<svg xmlns="http://www.w3.org/2000/svg" viewBox="0 0 50 50"><defs><style>.cls-1{fill:#fff;}.cls-2{fill:#a7b849;}</style></defs><title>face</title><g id="Layer_2" data-name="Layer 2"><g id="Layer_1-2" data-name="Layer 1"><path class="cls-1" d="M48.23,25A23.23,23.23,0,1,1,25,1.77,23.23,23.23,0,0,1,48.23,25"/><path class="cls-2" d="M42.62,7.38A24.14,24.14,0,0,0,24.93,0,24,24,0,0,0,7.45,7.38,24,24,0,0,0,0,25.07,23.86,23.86,0,0,0,7.45,42.62,24,24,0,0,0,24.93,50a24.19,24.19,0,0,0,17.76-7.31A24,24,0,0,0,50,25.07,24.13,24.13,0,0,0,42.62,7.38m-9,6.49H30.52c-2.46,0-2.93,1.17-2.93,2.89v3.78h5.86l-.76,5.93h-5.1V41.67H21.46V26.46H16.35V20.54h5.11V16.16c0-5.07,3.1-7.83,7.62-7.83a42.71,42.71,0,0,1,4.57.23Z"/></g></g></svg>