<svg xmlns="http://www.w3.org/2000/svg" viewBox="0 0 50 50"><defs><style>.cls-1{fill:#a7b849;}.cls-2{fill:#fff;}</style></defs><title>instagram</title><g id="Layer_2" data-name="Layer 2"><g id="Layer_1-2" data-name="Layer 1"><path class="cls-1" d="M0,24.37v1.35A25.3,25.3,0,0,0,23.15,50H27A25.22,25.22,0,0,0,50,25.7V24.37A25.18,25.18,0,0,0,26.31,0,25.27,25.27,0,0,0,0,24.37"/><path class="cls-2" d="M25.12,12.56c4,0,4.46,0,6,.08a8.2,8.2,0,0,1,2.77.52,4.56,4.56,0,0,1,1.71,1.13A4.8,4.8,0,0,1,36.74,16a8.82,8.82,0,0,1,.52,2.82c.07,1.61.08,2.08.08,6.14s0,4.53-.08,6.13a8.26,8.26,0,0,1-.52,2.82,4.65,4.65,0,0,1-1.12,1.74,4.56,4.56,0,0,1-1.71,1.13,8.06,8.06,0,0,1-2.77.52c-1.57.07-2,.08-6,.08s-4.46,0-6-.08a8.24,8.24,0,0,1-2.77-.52,4.56,4.56,0,0,1-1.71-1.13,4.81,4.81,0,0,1-1.12-1.74A8.86,8.86,0,0,1,13,31.13c-.07-1.61-.08-2.08-.08-6.13s0-4.53.08-6.14A8.26,8.26,0,0,1,13.49,16a4.68,4.68,0,0,1,1.12-1.74,4.56,4.56,0,0,1,1.71-1.13,8,8,0,0,1,2.77-.52c1.57-.06,2-.08,6-.08m0-2.74c-4.06,0-4.56,0-6.15.1a10.65,10.65,0,0,0-3.62.71,7.26,7.26,0,0,0-2.64,1.75A7.34,7.34,0,0,0,11,15.07a11.29,11.29,0,0,0-.7,3.69c-.07,1.61-.08,2.13-.08,6.25s0,4.64.08,6.25a11.36,11.36,0,0,0,.7,3.69,7.45,7.45,0,0,0,1.72,2.69,7.35,7.35,0,0,0,2.64,1.75A10.75,10.75,0,0,0,19,40.1c1.59.07,2.1.09,6.15.09s4.56,0,6.15-.09a10.75,10.75,0,0,0,3.62-.71,7.25,7.25,0,0,0,2.64-1.75,7.36,7.36,0,0,0,1.72-2.69,11.32,11.32,0,0,0,.7-3.69C40,29.65,40,29.13,40,25s0-4.64-.08-6.25a11.38,11.38,0,0,0-.7-3.69,7.71,7.71,0,0,0-4.36-4.45,10.65,10.65,0,0,0-3.62-.71c-1.58-.07-2.1-.1-6.15-.1"/><path class="cls-2" d="M25.12,17.2A7.8,7.8,0,1,0,32.77,25a7.72,7.72,0,0,0-7.66-7.79m0,12.85a5.06,5.06,0,1,1,5-5.06,5,5,0,0,1-5,5.06"/><path class="cls-2" d="M33.08,15.08A1.82,1.82,0,1,1,31.3,16.9a1.8,1.8,0,0,1,1.79-1.82"/></g></g></svg>