<svg xmlns="http://www.w3.org/2000/svg" viewBox="0 0 527.56 520"><defs><style>.cls-1,.cls-2{fill:#28373c;}.cls-2{font-size:25px;font-family:Roboto-Light, Roboto;}.cls-3{letter-spacing:-0.01em;}.cls-4{letter-spacing:-0.01em;}.cls-5{letter-spacing:-0.01em;}.cls-6{fill:#fff;}.cls-6,.cls-7{fill-rule:evenodd;}.cls-7{fill:#a7b849;}.cls-8{fill:none;stroke:#fff;stroke-miterlimit:10;}</style></defs><title>karta_hr</title><g id="Layer_2" data-name="Layer 2"><g id="Layer_1-2" data-name="Layer 1"><path class="cls-1" d="M241.19.48c6.23-1.41,12.38.53,18.26,2.41,5,1.59,12.15,1.41,16.52,4.23,3.89,2.49,5.45,7.65,9.85,8.9a19.35,19.35,0,0,1,10.29,7.8c4.86,6.83,7.25,15.49,13.55,21.28,4,3.64,9.56,4,14.45,5.86,5.66,2.13,7.68,6.32,9.83,11.61,4.9,12,15,3,23.16,9.57,3.58,2.9,4.4,7.33,8.77,9.8,4.62,2.6,9.95,3.53,14.76,5.68,12.44,5.58,28.25,1.67,41.5,4,3.84.67,5.47,2.3,8.86,0a82.59,82.59,0,0,0,6.84-5.15c5.07-4.3,9.45-9.53,11.66-15.88,2.69,1.89,7.45,8,9.93,5.14,4.75-5.44,7.12-5.26,14.42-5.53-1,2.58-1.91,5.17-2.83,7.76-1.44,4.06,1.67,7.25,3.36,11.08s3.27,7.82,5.14,11.61c2.11,4.31-.78,6.72-1,11.43a27.06,27.06,0,0,0,1.13,8.76c1.35,4.79,6.62,3.23,11.06,3.56,4.88.36,3.25,1.73,3,5.86l-8.11-.5q.07,5.84-.14,11.68c-.17,4.63,3.89,5.89,7.74,8,7.31,3.91,15.24,6.44,23.08,9.08,5.42,1.83,15.35,4.33,7.73,11-4.95,4.29-16.79-1.3-23-1.53.87,2.35,1.71,4.68,2.55,7q-6.89,1.49-13.89,2.3c7.06,4,19.21,14.43,7.16,20.61l8.47,4.6a47.37,47.37,0,0,0-18.69,7.75c-5.09,3.58-15.25-3.27-20.88-5.35,1.1-1.56,2.22-3.1,3.35-4.64,2.66-3.63.26-3.36-2.31-6.31A32.74,32.74,0,0,1,459.23,179q-1.07,2.54-2.14,5.1a40.83,40.83,0,0,1-12.52,0c-9.27-1.36-16.21-4.67-24-9.69-.47,3.47-.94,6.93-1.41,10.4-2.93.2-5.86.43-8.79.65-4,.3-3.22-.62-4.53-4.09-1.9-5-3.49-4.71-7.74-1.13-3.52,3-5.77,7.1-8.14,10.95a194.53,194.53,0,0,1-16-11.29c-7.33,1.2-14.72,1.94-22.07,3,.27-1-.26-2.23,0-3.24-5.46,1.49-10.24-1.15-13.78-5.19-3.15,3.3-7.11,4.27-11.24,2.26s-7.22-5.29-10.74-8c-4.6-3.51-9.37-3.92-15-4.78-.24,3.43-.43,6.86-.64,10.29-8.19-.61-16.25-2.23-24.3-3.76-6.62-1.25-12.55,10-15.51,15.53a44.56,44.56,0,0,0-4.17,10.77q-6,.87-11.92,1.8a47.27,47.27,0,0,0-7.49-8.21c-2.37-2-6.54-3.38-7.25-6.42-1.57-6.78-5.88-10.17-9.17-16.23-2.16-4-6.77-1.51-10.66-.25-6.17,2-6,2.53-6,8.76,0,4.27-.15,8.54-.31,12.8,2.18,2.21,5.6,3.82,4.27,6.82-2.06,4.62-3.16,11-9.28,11.63a15.46,15.46,0,0,1,.85,15.18c4.23,5.46,4.88,7.16,11.81,6.19,10.62-1.5,13.25,7.27,18.83,14.75,2.6,3.45,5.22,7.22,6.12,11.53a13.8,13.8,0,0,1-.14,6.34c-.83,3.13,0,3.74,1.43,6.68a39.89,39.89,0,0,0,3.69,6.46c2.39,3.22,3.88,2.07,2.17,6.08-2.4,5.65-1.36,11.74,1.41,17A51.24,51.24,0,0,0,254.47,310c4.19-.55,9.42-3.14,10.41,1.51.87,4.07,0,5,3.91,6a9.58,9.58,0,0,1,5.47,4.21c3.18,4.66,4.28,7.79,9.7,10.3,6.19,2.87,5.33,7.26,7.24,13.22,1.54,4.79,7.23,6.51,10.91,9.52,4.11,3.34,5.61,8.44,8.8,12.54,3.93,5.06,8.91,9.16,13.68,13.38,3.17,2.81,2.91,4,7.31,2.75,3.49-1,5.67-2.94,8.41-.07,3.06,3.2,5.77,7.51,2.77,11.71s.6,11.53,1.72,16.94c1,4.76,2.82,2.58,6.94,1.91,4.81-.78,3.53,1.05,4.3,5.18.73,3.85-.22,5.27,3.76,6.15a24.25,24.25,0,0,1,7.34,3,39.88,39.88,0,0,1,11.48,11.3c1.82,2.57,6.79,8,3.93,11.16-3.49,3.88-6.79,6-11.31,3.5-8.58-4.75-13.36-13.83-20.71-20-8.31-7-20.18-10.77-26.43-20a131.25,131.25,0,0,0-13.72-14.84c-2.77-2.65-3.76-4.4-7.58-4.62a30,30,0,0,1-7.58-1.52c-10.61-3.49-19.78-11.57-31.39-11.7l2-6.16c-4.12,1.1-10.13-.51-12.75,3.86,2.78,2.11,5.68,4.05,8.54,6.05-6.47-1-14.16-.3-18.73-6-2,2.22-4,4.47-5.94,6.68-5-1.17-13.13-1.08-14.88-6.17a29.64,29.64,0,0,1-1.52-15.14c.89-4.63-1.8-5.72-5.09-9-1.89,2.11-3.75,4.23-5.65,6.32q1.28-3.24,2.54-6.51c1.39-3.54-4-3.87-6.92-4.61-6.9-1.75-14.45-2.58-20.07-7.39,3.91.6,7.82,1.25,11.72,1.85-2.14-2.68-5.26-4.14-8.47-5.12-3.85-1.16-5.45-5.32-8.07-8.38-5.33-6.21-11.56-11.56-17.16-17.53-4.88-5.2-9.34-11-11.67-17.81-1.51-4.42-2.32-6-6-9-2.68-2.25-5.33-4.86-5.58-8.59a164.51,164.51,0,0,1,14,10.72c.43-2.28.85-4.56,1.27-6.84,3,2.69,5.9,5.36,8.84,8.05-.52-3.54-1-7.08-1.55-10.62a27.07,27.07,0,0,0,20,9.19c0,2.56,0,5.11,0,7.66a34.32,34.32,0,0,1,11.32,6c-5.93-8.31-10.08-14.73-19-20-7-4.12-14.31-8.19-19.35-14.74-9.65-12.44-23.89-22.4-27.35-38.65-6.3,3.81-9.13,10.55-4.52,17-2.65-3-5.23-6.06-7.8-9.13-3.18-3.8,2.11-7,5.2-10.05-4.42-1.62-8.88-3.1-13.27-4.78,2.67-2.61,4.69-5.91,7.82-8.05,2.23-1.53,4.35-.48,3.85-3.44a33.44,33.44,0,0,0-1-5.19c-1.34-4.07-6.08-4.12-9.63-5.17-2.89-.85-4.74-.13-4.17-3.45.41-2.42.83-4.82,1.26-7.23-3.14,2.1-4.18,4.22-7.69,2.31-3.09-1.69-6.45-3.25-8.51-6.26,6.57-5.12,9-13.08,9.46-21.1,3.4,4.47,5.86,9.84,10.65,13.07-1.88,4.65,1,7.95,4.51,10.64,5,3.9,6,5.06,7,11.19.89,5.45,3.22,11.34-2.12,15.33a20.45,20.45,0,0,0,3.91,1.32q-3.64-.88-7.3-1.75c3.36,4.68,7.79,14.14,14.16,14.82a47.48,47.48,0,0,1-.85-18.87,42.52,42.52,0,0,1,2.59-9.18c-1.21-2.88-2.29-5.8-3.46-8.7-4.39-10.9-15.47-17.61-24-25.7a101.16,101.16,0,0,0-12.08-10.11C89,154.79,81.77,149,79.61,153.46c-2.36,4.81-6.05,9.14-7.25,14.46C70,178.46,77,174.1,82.92,172.39c.54,7.33.22,12.35,2.86,19.38,1.53,4.09.71,5.78,5.34,5.25a19.71,19.71,0,0,1,9.26.94c-18.17,5.93-6.4,34.93-2,46.28-5.71-1.18-9.9-5.42-14.21-9-.08,13.56,14.56,19.83,18.27,31.85a101.16,101.16,0,0,1-8.5-8.79c-3.66-4.44-3.64-7.48-9.54-8.08-6.27-.64-3-20.7-.66-25-2.1-.54-4.19-1.09-6.27-1.68,2-.79,4-1.62,5.94-2.45-4.76-5.32-4.79-12.75-5.62-19.42,3,1.95,6.12,3.88,9.19,5.8-2-10-6.73-19.33-12.9-27.4a19.85,19.85,0,0,0-10.11,6.71c.53,4.77,1.08,9.53,1.61,14.3-9,1.06-10.08-7.22-11.53-14,.39,5.13,2.64,11.17,0,15.62a69.69,69.69,0,0,0-6.49,15.9l-4.89-2.94c.57,3.22,1.07,6.44,1.59,9.66-9.33-14.95-16.39-31.39-27.84-44.93,3.36-2,6.74-4,10.21-5.86-3.8-.05-7.6-.14-11.4-.23a83.75,83.75,0,0,0-1.55-16.05c-1.92-10.58-5-21-5.73-31.76,8.75,3.48,17.28,7.48,25.83,11.42,4.27,2,6.63.42,11-.83,4.12-1.19,2.42-5,2.22-8.88,5.71.86,11.33,2.23,16.94,3.57,4.86-.83,9.82-.77,14.71-1.48,6.5-.94,8.18-2.15,10.72-8,2-4.54,4.44-9,8.09-12.4,3.68,4.68,6.74,9.81,10.19,14.66,4.37,6.14,7.53,9.07,14.62,11.33.54-2.45,1.06-4.89,1.59-7.33,7.15,2.3,13.22,6.93,20.18,9.65,9.13,3.58,16.88.41,25.94-1.67-3.35-6.9-6.78-15.29-3.23-22.81,2.16-4.56-1-4.7-4-8.48a45.22,45.22,0,0,1-6.55-11.61c3.11-.63,6.23-1.18,9.36-1.74,4.32-.76,3.64-3,7-5.14,4.49-2.82,10.28-2.06,15.31-2.71,6-.76,6-17.87,6.79-22.7-1.34-3.28-4-5.65-6.7-7.86-4.55-3.81-3.57-4.24-1.26-9.6,2.65-6.07,2.89-6.19,9.54-6.62,5.13-.31,6.35-4.15,9.33-8.09,6.84-1,13.7-3.26,18.84-8.06,3.9-3.64,2.79-3.87,8-2.47a16.49,16.49,0,0,0,8.69.32c11.21-3.17,3.51-11.83,0-18.48"/><path class="cls-1" d="M128.2,243c6.65,3.07,6.88,10.81,8.48,17,.71-2.75,1.43-5.48,2.15-8.22,4.86,6.21,7.55,12.36,13.27,18.05,2.65,2.62,11.65,9.86,3.36,11.23-2.44.4-6.79,2.48-7.31-.54-.42-2.37-.35-4.85-1.06-7.18a5.33,5.33,0,0,0-5.1-4c-2.12-2.41-4.21-4.84-6.34-7.25q-3.32,3.35-6.55,6.78,1.08-3.87,2.16-7.75l-6.52.92c3.08-2.33,6.43-2.92,4.69-6.71A19.84,19.84,0,0,1,128.2,243"/><path class="cls-1" d="M118.32,267.93c4.28-1.69,5.92,6,3.09,8.27-4.76,1.89-6.65-6-3.09-8.27"/><path class="cls-1" d="M120.09,299.5c9.94-1.67,16.63,10.36,21.15,17.2a47.34,47.34,0,0,0,11.11,11.4c2.69,5.72,7.12,7.55,13.6,6.87l-3,3.27c7.76-1.24,7.29,4.9,6,10.49,1.71.1,3.42.23,5.14.33-.27,1.56-.55,3.11-.84,4.66-5.36-3.94-9.76-9-15.07-13-4.73-3.56-8.73-6-12-11.15-2.87-4.57-5.07-9.58-8.51-13.77-5.39-5.91-11.74-10.82-17.53-16.31"/><path class="cls-1" d="M148,304.38c4.5,2.19,11.27,7.72,11,13.26-6.18,1.35-12.38-7.76-11-13.26"/><path class="cls-1" d="M172.87,330.53c-6,2.71-15.4-7-5.06-7.24,3.77,1.47,5.43,3.88,5.06,7.24"/><path class="cls-1" d="M241.42,393.44c9.45-2.5,17.67,3.12,21.38,11.68-7.51-3.15-14.91-6.71-21.38-11.68"/><path class="cls-1" d="M269.43,396.29a123.63,123.63,0,0,1,38.38,9.3c-11.68,11.78-30.17,7.84-43.75,2q2.68-5.68,5.37-11.33"/><path class="cls-1" d="M254.83,423.64a65.39,65.39,0,0,1,17.76-4.8,68.43,68.43,0,0,1,9.22-.51c4.09,0,4.34,1.82,6.63,4.91,2.76,3.74,16.65,2.9,21.44,3.44,7.93.89,15.85,1.83,23.79,2.6-12.15,4.27-25,1.87-37.47.64-6.35-.62-12.78-.15-19-1.37-7.49-1.46-14.69-4.3-22.33-4.91"/><path class="cls-1" d="M317.38,440.45c5.7.26,11.4.69,17.1,1.14,6.67.52,9.74.92,15.26,4.51,9.48,6.21,20.57,9.34,30.28,15.14-.22-1.44-.44-2.89-.67-4.33a140.88,140.88,0,0,0,16.55.84,24.27,24.27,0,0,0,5.93,10.93c6.51,6.94,16.41,9.92,23.66,16.21,4,3.48,6.88,8.58,12.26,8.45,3.52-.08,12.72-.36,12.92,4,.25,5.28.57,6.54,4,10.61,3,3.54,5.68,7.48,6.8,12.05-10.73-5.31-20.35-12.57-29.31-20.46-2.79-2.46-2.46-2.45-2.81-5.77-.3-2.89-3.24-3.12-5.62-4.35a49.4,49.4,0,0,1-7.68-4.78c-3.29-2.58-2.76-1.68-6.12.2.49-1.12.34-2.51.8-3.65-7.87,4.56-14.35-3.7-20.83-6.84,3.72.62,7.43,1.28,11.15,1.91-2.75-6.93-3.57-6.51-11.34-7.69-8.82-1.33-17.74-2.85-25.95-6.51-9-4-17.63-8.83-26.64-12.89-6.8-2.31-15.85-1.35-19.74-8.73"/><path class="cls-1" d="M231.39,436.95c6.34-.26,12.68-.48,19-.3-3.09,7.4-11.94,7.18-18.53,8.84-.16-2.86-.34-5.7-.5-8.54"/><path class="cls-1" d="M287.35,445.66c15.6,7.56,34.92-2.36,49.25,9-.62,1.88-20,1.56-23.18,1.85-9.67.86-19.51,1.53-29-.81,1-3.36,2-6.7,3-10.07"/><path class="cls-1" d="M346.66,472.28c11-5,31.69,2.47,41.32,9.35-14.17-.93-27.94-4.78-41.32-9.35"/><path class="cls-1" d="M294.66,474.83a123.32,123.32,0,0,1,17.51-1.19c-2.64,9.15-12,3.88-17.51,1.19"/><text class="cls-2" transform="translate(417.19 270.17)">Zag<tspan class="cls-3" x="42.31" y="0">r</tspan><tspan x="50.59" y="0">eb</tspan></text><text class="cls-2" transform="translate(417.19 300.17)"><tspan class="cls-4">P</tspan><tspan x="15.32" y="0">o</tspan><tspan class="cls-3" x="29.23" y="0">r</tspan><tspan x="37.52" y="0">eč</tspan></text><text class="cls-2" transform="translate(417.19 330.17)">Pula</text><text class="cls-2" transform="translate(417.19 360.17)">Zadar</text><text class="cls-2" transform="translate(417.19 390.17)">Split</text><text class="cls-2" transform="translate(417.19 420.17)">Dub<tspan class="cls-3" x="44.24" y="0">r</tspan><tspan class="cls-5" x="52.52" y="0">o</tspan><tspan x="66.26" y="0">vnik</tspan></text><path class="cls-6" d="M30,162.33a15,15,0,1,1-15-15,15,15,0,0,1,15,15"/><path class="cls-7" d="M24.32,162.33A9.32,9.32,0,1,1,15,153a9.32,9.32,0,0,1,9.32,9.32"/><path class="cls-6" d="M53,212.33a15,15,0,1,1-15-15,15,15,0,0,1,15,15"/><path class="cls-7" d="M47.32,212.33A9.32,9.32,0,1,1,38,203a9.32,9.32,0,0,1,9.32,9.32"/><path class="cls-6" d="M175,307.33a15,15,0,1,1-15-15,15,15,0,0,1,15,15"/><path class="cls-7" d="M169.32,307.33A9.32,9.32,0,1,1,160,298a9.32,9.32,0,0,1,9.32,9.32"/><path class="cls-6" d="M243,84.33a15,15,0,1,1-15-15,15,15,0,0,1,15,15"/><path class="cls-7" d="M237.32,84.33A9.32,9.32,0,1,1,228,75a9.32,9.32,0,0,1,9.32,9.32"/><path class="cls-6" d="M285,382.33a15,15,0,1,1-15-15,15,15,0,0,1,15,15"/><path class="cls-7" d="M279.32,382.33A9.32,9.32,0,1,1,270,373a9.32,9.32,0,0,1,9.32,9.32"/><path class="cls-6" d="M424,483.33a15,15,0,1,1-15-15,15,15,0,0,1,15,15"/><path class="cls-7" d="M418.32,483.33A9.32,9.32,0,1,1,409,474a9.32,9.32,0,0,1,9.32,9.32"/><polyline class="cls-8" points="409.33 262.5 228.83 262.5 228.83 98"/><polyline class="cls-8" points="409.33 292.5 14.83 292.5 14.83 174"/><polyline class="cls-8" points="409.33 322.5 37.83 322.5 37.83 225"/><polyline class="cls-8" points="409.33 351.5 159.83 351.5 159.83 318"/><line class="cls-8" x1="409.33" y1="381.5" x2="282.33" y2="381.5"/><polyline class="cls-8" points="408.33 412.5 379.83 412.5 379.83 483.5 397.33 483.5"/></g></g></svg>