<?xml version="1.0" encoding="utf-8"?>
<!-- Generator: Adobe Illustrator 21.1.0, SVG Export Plug-In . SVG Version: 6.00 Build 0)  -->
<svg version="1.1" id="Layer_1" xmlns="http://www.w3.org/2000/svg" xmlns:xlink="http://www.w3.org/1999/xlink" x="0px" y="0px"
	 viewBox="0 0 531 564" style="enable-background:new 0 0 531 564;" xml:space="preserve">
<style type="text/css">
	.st0{fill-rule:evenodd;clip-rule:evenodd;fill:#28373C;}
	.st1{fill:#28373C;}
	.st2{fill-rule:evenodd;clip-rule:evenodd;fill:#FFFFFF;}
	.st3{fill-rule:evenodd;clip-rule:evenodd;fill:#A7B849;}
	.st4{fill:none;stroke:#FFFFFF;stroke-miterlimit:10;}
</style>
<g>
	<path class="st0" d="M3.2,138.2c2.9-2.5,5.9-4.9,8.8-7.4c0.3-0.3,0.5-0.7,0.7-1.1c0.9-2.5,5.4-7.4,7.4-8.6
		c3.8-2.1,7.6-4.1,11.3-6.4c1.4-0.9,2.7-2.3,3.3-3.8c1.9-5,5.1-7,10.6-6.8c8.7,0.4,8.8,0.1,10.1-9c1.3-8.8,2.9-10.3,11.1-7.9
		c4.8,1.4,9.2,1.5,13.8,0.1c7.5-2.2,14.2,0.1,20.3,4.4c1.5,1.1,3,2.2,4.7,3c0.9,0.4,2.2,0.5,3.1,0.2c5.7-2.5,15.8,0.6,18.6,6.5
		c1.7,3.6,4.2,4.8,7.9,4.8c4.5,0,9-0.2,13.4,0c2.2,0.1,4.4,1,6.6,1.2c1.5,0.2,3.1,0.1,4.6-0.1c3.1-0.6,6.1-1.6,9.3-2
		c3.1-0.4,5.9-0.7,8,3.1c1.1,1.9,5.4,3.1,8,2.7c5-0.7,7.6,1.4,9.6,5.4c0.7,1.5,1.6,2.9,3.5,4.2c0.4-2.6,1-5.2,1.2-7.9
		c0.2-3.2,1.6-5.1,4.7-5.9c6.8-1.7,12.3-4.9,16.3-11.2c1.2-2,4.8-3.2,7.5-3.4c6.5-0.4,9.6-3.4,11.3-9.7c1.2-4.6,3.8-8.9,6.2-13.2
		c1.2-2.2,3-3.6,6.1-2.8c1.3,0.3,3.2-0.9,4.5-1.8c5-3.5,5.8-3.4,9,1.5c2-2.4,3.7-5.4,6.3-7.2c2.1-1.5,5.2-1.5,7.9-2.1
		c1.4-0.3,2.8-0.2,4.2-0.5c5.7-1.3,11.2-0.7,17,0.6c5.1,1.1,10.8,0.3,16.2,0.1c4.9-0.2,9.8-0.9,14.6-1.4c4.9-0.6,8.3,2.1,11,5.6
		c1.5,1.9,2.6,4.4,5.3,2.9c2.9-1.5,6.8-3.3,7.7-5.9c3.1-8.7,3-9,12-9.9c1.9-0.2,3.6-2.1,5.5-2.9c2-0.8,4.3-1.9,6.2-1.5
		c5.7,1.2,11.4,1.4,16.3-1.7c7.6-4.8,14.4-3.1,21.5,0.9c3.1,1.8,6.6,2.7,9.7,4.4c2.7,1.5,5.1,3.4,7.9,5.4c1.2-3.5,1.1-7-1.7-9
		c-6.7-4.9-6.6-11.6-6.2-18.7c0.2-2.7-0.3-5.6,0.4-8.1c0.5-1.8,2.4-3.5,4.2-4.5c3.3-1.9,6.9-3.2,10.3-4.9c3.1-1.5,5.7-2.8,9.7-1.3
		c2.4,1,6-0.9,9.1-1.8c1.7-0.5,3.4-1.4,5-2.1h8.7c1.3,0.8,2.7,1.5,4,2.3c10.1,5.8,10.7,9.5,3.3,18.5c-0.2,0.2-0.2,0.5-0.1,0.3
		c0.7,2.4,1.1,4.5,1.9,6.4c2.5,5.8,6.2,10.7,12,13.4c2.1,1,3.1,1.9,3.2,4.3c0.2,3.6-0.3,6.5-5.1,7.3c1,1.5,1.5,2.7,2.4,3.5
		c3.8,3.8,7.8,7.5,11.6,11.4c1.5,1.5,2.8,3.2,4.1,4.9c1.7,2.4,4.5,4.8,4.7,7.3c0.4,5.8,3.2,9.2,8.3,11.2v3.5
		c-5.4,1.7-9.8-0.4-13.1-4.4c-3.9-4.8-9.9-5.3-14.6-8.3c-2.1-1.3-4.3-2.2-6-3.1c-5.3,3-10.8,6.2-16.4,9.3c-2.2,1.3-3.5,2.6-2.3,5.5
		c2.5,6.2,3.4,13.1,8.5,18.2c2.1,2.2,0.5,5.8-2.8,6.5c-1.9,0.4-4-0.1-6-0.2c-2.5-0.1-5-0.1-7.5-0.5c-2-0.4-4.3-0.9-5.8-2.1
		c-2.9-2.2-5.5-2.5-8.8-1.2c-2.6,1.1-5.5,1.5-8.5,2.3c0.6,1.2,1.2,2.4,1.7,3.7c1.8,4.2,1.1,6-3,7.9c-0.7,0.3-1.6,0.4-1.9,0.9
		c-2.3,4.3-6.4,5.4-10.6,7c-8.1,3.1-16,6.9-24,10.4c-1,0.5-2.2,0.6-3.2,0.9c-0.8,2.6-1.3,5.3-2.4,7.8c-1.5,3.3-4.1,4-7.5,2.8
		c-2.7-0.9-5.5-1.7-8.3-2c-3.7-0.4-7.3-0.4-7.1,5.3c0.1,1.6-1.9,3.4-3.2,4.9c-5.3,6.2-4,16.8,3,21.1c3.3,2.1,6.8,3.8,10.3,5.4
		c2.6,1.2,3.2,3.2,2.4,5.7c-2.1,6.7-2.9,13.4-1.9,20.4c0.4,2.5-0.5,5.6-1.8,7.8c-2.4,4.1-2.7,8.1-1.1,12.4c1.3,3.6-0.1,4.9-3.3,6.9
		c-5,3.2-8.9,2-13.4-0.5c-3.4-1.8-6.7-1.5-9.2,1.9c-2.1,3-4.6,3.9-7.8,0.8c-0.7,1.3-1.8,2.2-1.8,3.2c-0.2,4.7-2.9,5.2-7,5.9
		c-11,1.8-20.3,7.5-27.7,14.7c2.8,2.8,5.2,5.2,7.1,7c2-1.1,4.5-2.5,7-3.9c0.7,2.4,1.4,4.8,2.2,7.4c1.2,0.9,3.5,1.9,4.6,3.6
		c1,1.4,0.6,3.8,0.8,5.7c-1.8,0.2-3.5,0.6-5.3,0.4c-2.8-0.3-12.3,5.7-12.4,8.5c-0.1,1.9,1.6,3.8,1.7,5.7c0.2,8.4,3.5,14.6,11,18.8
		c0.9,0.5,1.7,2.5,1.4,3.6c-1,4.8-7,8.8-11.5,7.2c-5.6-1.9-9.1,0-11.9,4.6c-1.9,3.1-11,4.3-14,1.7c-4.1-3.6-7.9-7.5-11.9-11.2
		c-0.9-0.8-2-1.8-3.1-2c-7.5-1.2-14.7-2.8-20.2-8.6c-0.2-0.2-0.8-0.1-1.6-0.2c-0.2,0.6-0.5,1.2-0.5,1.9c-1,7.8-7.3,13.4-15.2,13
		c-1.5-0.1-3.9-1.5-4.2-2.7c-2-8.8-9.7-10.9-16.4-13.6c-3.8-1.5-4.9-3.2-3.7-6.6c1.3-3.7-0.4-5.6-3.3-7.3c-2.2-1.3-4.2-3-6.4-4.4
		c-3.5-2.4-5.3-5.4-4.8-9.8c0.2-1.4-1.3-3-2.6-4.3c-2.6,5.9-5,11.1-10.3,14.5c-1,0.7-1.6,2.9-1.4,4.3c0.6,8.3-4,13.3-10.5,16.9
		c-4.8,2.6-9.9,4.6-14.7,7.1c-6.3,3.3-11.9,0.4-17.1-2.5c-3.1-1.7-5-1.4-6.3,1.3c-1.2,2.5-2.8,2.9-5.2,2.7
		c-9.8-0.7-19.6-1.1-27.7-8.1c-1.3-1.1-4.5-0.2-6.2-0.2c0.8,3.4,2,6.5,2.1,9.7c0.1,2.4-1.8,3.9-4.7,3.8c-4.6-0.2-8.7,0.9-12.3,4.2
		c-3.4,3.2-12,1.3-14.3-3.2c-2.1-4-4.7-4.5-8.5-3.3c-1.6,0.5-3.5,0.6-5,1.3c-5.6,2.8-10.7,1.6-16-1c-4.5-2.2-7.4-4.8-6.8-10.2
		c0.1-1-0.7-2.4-1.4-3.3c-2.3-2.7-1.9-4.3,1.6-5c6.7-1.5,13.5-2.8,20.3-4.1c4.4-0.8,5.2-2.1,3.1-6c-0.6-1.2-1.3-3.6-1-3.7
		c1.5-0.8,3.4-1.8,5-1.6c3.1,0.5,6,1.8,9.1,2.6c3.3,0.8,6,0.4,8.5-2.6c2.3-2.7,5.3-4.8,8.4-7.4c-1.6-1.4-3.5-2.6-4.7-4.2
		c-2.9-3.9-5.6-7.9-8.2-12c-2.6-4.2-4.8-8.6-9.6-11.1c-4.1-2.1-7.7-5-11.7-7.4c-2.3-1.4-4.7-3-7.2-3.6c-9.7-2.1-14.3-9.7-11-19.1
		c1.3-3.8,3.9-7.1,5.4-10.8c1.7-4.4,2.9-9.1,4.5-14c-4.9-0.9-8-1.2-11.1,1.9c-1.4,1.4-5.3,1.9-7,0.9c-2.8-1.6-5.1-4.5-7.1-7.2
		c-1.4-2,2.7-15.3,4.7-16.8c5.7-4.4,11.7-8.5,17-13.3c3.4-3.1,5.8-7.4,8.6-11.2c-0.3-0.5-0.6-0.9-0.9-1.4c-3.5-0.3-7-0.7-10.5-0.9
		c-2.8-0.2-5.5-0.5-6.6-3.7c-0.2-0.6-0.8-1.4-1.4-1.5c-5.5-1.5-10.6-5.5-16.8-2.1c-2.7,1.5-4.5,0.6-5.3-2.7
		c-1.2-4.5-2.9-8.9-4.4-13.3V138.2z"/>
	<g>
		<g>
			<path class="st1" d="M373.7,395h8.8v1.2h-10.3v-17.8h1.5V395z"/>
			<path class="st1" d="M386.7,383.1v14.3c0,1.4-0.3,2.4-1,3.1c-0.7,0.7-1.6,1.1-2.7,1.1c-0.2,0-0.5,0-0.7-0.1
				c-0.2,0-0.4-0.1-0.7-0.2l0.2-1.2c0.1,0,0.3,0.1,0.5,0.1s0.4,0.1,0.6,0.1c0.7,0,1.3-0.3,1.7-0.8c0.4-0.5,0.6-1.2,0.6-2.2v-14.3
				H386.7z M386.6,379.2h-1.5v-2h1.5V379.2z"/>
			<path class="st1" d="M399.5,394.1c-0.4,0.8-1,1.4-1.7,1.8c-0.7,0.4-1.6,0.6-2.5,0.6c-1.4,0-2.5-0.5-3.3-1.4
				c-0.8-0.9-1.2-2.4-1.2-4.4v-7.7h1.5v7.7c0,1.6,0.3,2.8,0.8,3.5c0.5,0.7,1.3,1.1,2.3,1.1c1.1,0,2-0.2,2.6-0.7
				c0.7-0.5,1.1-1.2,1.4-2.1v-9.4h1.5v13.2h-1.3L399.5,394.1z"/>
			<path class="st1" d="M415.5,390c0,2-0.4,3.6-1.3,4.7s-2.1,1.8-3.7,1.8c-1,0-1.8-0.2-2.5-0.6c-0.7-0.4-1.3-0.9-1.7-1.7l-0.2,2
				h-1.3v-19h1.5v7.9c0.4-0.7,1-1.3,1.7-1.7c0.7-0.4,1.5-0.6,2.4-0.6c1.6,0,2.8,0.6,3.7,1.9c0.9,1.3,1.3,3,1.3,5.1V390z M414,389.8
				c0-1.7-0.3-3.1-1-4.1c-0.7-1.1-1.6-1.6-2.9-1.6c-1,0-1.8,0.3-2.5,0.8c-0.6,0.5-1.1,1.2-1.4,1.9v6c0.3,0.8,0.8,1.4,1.5,1.8
				c0.6,0.5,1.5,0.7,2.4,0.7c1.3,0,2.2-0.5,2.9-1.4s1-2.2,1-3.8V389.8z"/>
			<path class="st1" d="M420.4,396.3h-1.5v-19h1.5V396.3z"/>
			<path class="st1" d="M426.1,383.1v14.3c0,1.4-0.3,2.4-1,3.1c-0.7,0.7-1.6,1.1-2.7,1.1c-0.2,0-0.5,0-0.7-0.1
				c-0.2,0-0.4-0.1-0.7-0.2l0.2-1.2c0.1,0,0.3,0.1,0.5,0.1s0.4,0.1,0.6,0.1c0.7,0,1.3-0.3,1.7-0.8c0.4-0.5,0.6-1.2,0.6-2.2v-14.3
				H426.1z M426,379.2h-1.5v-2h1.5V379.2z"/>
			<path class="st1" d="M438.7,396.3c-0.1-0.4-0.2-0.8-0.2-1.2c0-0.3-0.1-0.7-0.1-1c-0.5,0.7-1.1,1.3-2,1.7
				c-0.8,0.5-1.7,0.7-2.7,0.7c-1.3,0-2.3-0.3-3-1s-1.1-1.6-1.1-2.7c0-1.2,0.5-2.2,1.6-2.9s2.5-1.1,4.3-1.1h2.9v-1.6
				c0-0.9-0.3-1.7-0.9-2.2s-1.5-0.8-2.5-0.8c-1,0-1.9,0.3-2.5,0.8c-0.7,0.5-1,1.1-1,1.9l-1.3,0l0-0.1c0-1,0.4-1.9,1.3-2.6
				c0.9-0.8,2.2-1.2,3.6-1.2c1.5,0,2.6,0.4,3.5,1.1c0.9,0.7,1.3,1.8,1.3,3.2v6.5c0,0.5,0,0.9,0.1,1.4s0.1,0.9,0.3,1.3H438.7z
				 M433.9,395.2c1,0,2-0.2,2.8-0.7s1.4-1.1,1.7-1.9v-2.8h-2.9c-1.3,0-2.4,0.3-3.2,0.8c-0.8,0.6-1.2,1.3-1.2,2.1
				c0,0.7,0.2,1.3,0.7,1.8C432.3,395,433,395.2,433.9,395.2z"/>
			<path class="st1" d="M445,383.1l0.1,2.3c0.4-0.8,1-1.4,1.7-1.9c0.7-0.4,1.6-0.7,2.6-0.7c1.4,0,2.5,0.4,3.3,1.3
				c0.7,0.9,1.1,2.2,1.1,4.1v8h-1.5v-8c0-1.5-0.3-2.6-0.8-3.2c-0.6-0.6-1.4-0.9-2.4-0.9c-1,0-1.9,0.3-2.5,0.8
				c-0.6,0.5-1.1,1.3-1.4,2.2v9.2h-1.5v-13.2H445z"/>
			<path class="st1" d="M466,396.3c-0.1-0.4-0.2-0.8-0.2-1.2c0-0.3-0.1-0.7-0.1-1c-0.5,0.7-1.1,1.3-2,1.7c-0.8,0.5-1.7,0.7-2.7,0.7
				c-1.3,0-2.3-0.3-3-1s-1.1-1.6-1.1-2.7c0-1.2,0.5-2.2,1.6-2.9s2.5-1.1,4.3-1.1h2.9v-1.6c0-0.9-0.3-1.7-0.9-2.2s-1.5-0.8-2.5-0.8
				c-1,0-1.9,0.3-2.5,0.8c-0.7,0.5-1,1.1-1,1.9l-1.3,0l0-0.1c0-1,0.4-1.9,1.3-2.6c0.9-0.8,2.2-1.2,3.6-1.2c1.5,0,2.6,0.4,3.5,1.1
				c0.9,0.7,1.3,1.8,1.3,3.2v6.5c0,0.5,0,0.9,0.1,1.4s0.1,0.9,0.3,1.3H466z M461.2,395.2c1,0,2-0.2,2.8-0.7s1.4-1.1,1.7-1.9v-2.8
				h-2.9c-1.3,0-2.4,0.3-3.2,0.8c-0.8,0.6-1.2,1.3-1.2,2.1c0,0.7,0.2,1.3,0.7,1.8C459.7,395,460.4,395.2,461.2,395.2z"/>
		</g>
		<g>
			<path class="st1" d="M374.1,408.5l6.5,15.6h0.1l6.6-15.6h1.9v17.8h-1.5v-7.8l0.1-7.8l-0.1,0l-6.6,15.6h-1l-6.6-15.6l-0.1,0
				l0.1,7.7v7.8h-1.5v-17.8H374.1z"/>
			<path class="st1" d="M401.8,426.3c-0.1-0.4-0.2-0.8-0.2-1.2c0-0.3-0.1-0.7-0.1-1c-0.5,0.7-1.1,1.3-2,1.7
				c-0.8,0.5-1.7,0.7-2.7,0.7c-1.3,0-2.3-0.3-3-1s-1.1-1.6-1.1-2.7c0-1.2,0.5-2.2,1.6-2.9s2.5-1.1,4.3-1.1h2.9v-1.6
				c0-0.9-0.3-1.7-0.9-2.2s-1.5-0.8-2.5-0.8c-1,0-1.9,0.3-2.5,0.8c-0.7,0.5-1,1.1-1,1.9l-1.3,0l0-0.1c0-1,0.4-1.9,1.3-2.6
				c0.9-0.8,2.2-1.2,3.6-1.2c1.5,0,2.6,0.4,3.5,1.1c0.9,0.7,1.3,1.8,1.3,3.2v6.5c0,0.5,0,0.9,0.1,1.4s0.1,0.9,0.3,1.3H401.8z
				 M397,425.2c1,0,2-0.2,2.8-0.7s1.4-1.1,1.7-1.9v-2.8h-2.9c-1.3,0-2.4,0.3-3.2,0.8c-0.8,0.6-1.2,1.3-1.2,2.1
				c0,0.7,0.2,1.3,0.7,1.8C395.5,425,396.2,425.2,397,425.2z"/>
			<path class="st1" d="M413,414.3l-1.1-0.1c-0.9,0-1.7,0.3-2.3,0.8c-0.6,0.5-1,1.2-1.3,2.1v9.1h-1.5v-13.2h1.3l0.2,2.2v0.1
				c0.4-0.8,0.9-1.4,1.5-1.9s1.4-0.7,2.3-0.7c0.2,0,0.4,0,0.5,0c0.2,0,0.3,0.1,0.4,0.1L413,414.3z"/>
			<path class="st1" d="M417.1,409.3h-1.5v-2.1h1.5V409.3z M417.1,426.3h-1.5v-13.2h1.5V426.3z"/>
			<path class="st1" d="M431.7,420c0,2-0.4,3.6-1.3,4.7s-2.1,1.8-3.7,1.8c-1,0-1.8-0.2-2.5-0.6c-0.7-0.4-1.3-0.9-1.7-1.7l-0.2,2
				h-1.3v-19h1.5v7.9c0.4-0.7,1-1.3,1.7-1.7c0.7-0.4,1.5-0.6,2.4-0.6c1.6,0,2.8,0.6,3.7,1.9c0.9,1.3,1.3,3,1.3,5.1V420z
				 M430.3,419.8c0-1.7-0.3-3.1-1-4.1c-0.7-1.1-1.6-1.6-2.9-1.6c-1,0-1.8,0.3-2.5,0.8c-0.6,0.5-1.1,1.2-1.4,1.9v6
				c0.3,0.8,0.8,1.4,1.5,1.8c0.6,0.5,1.5,0.7,2.4,0.7c1.3,0,2.2-0.5,2.9-1.4s1-2.2,1-3.8V419.8z"/>
			<path class="st1" d="M434.2,419.5c0-1.9,0.5-3.5,1.6-4.8s2.5-1.9,4.2-1.9c1.8,0,3.2,0.6,4.2,1.9c1.1,1.2,1.6,2.8,1.6,4.8v0.4
				c0,2-0.5,3.5-1.6,4.8c-1.1,1.2-2.5,1.9-4.2,1.9c-1.8,0-3.2-0.6-4.3-1.9s-1.6-2.8-1.6-4.8V419.5z M435.7,419.9
				c0,1.5,0.4,2.8,1.2,3.9c0.8,1,1.9,1.6,3.2,1.6c1.4,0,2.4-0.5,3.2-1.6c0.8-1,1.2-2.3,1.2-3.9v-0.4c0-1.5-0.4-2.8-1.2-3.8
				c-0.8-1-1.9-1.6-3.2-1.6s-2.4,0.5-3.2,1.6c-0.8,1-1.2,2.3-1.2,3.8V419.9z"/>
			<path class="st1" d="M455,414.3l-1.1-0.1c-0.9,0-1.7,0.3-2.3,0.8c-0.6,0.5-1,1.2-1.3,2.1v9.1h-1.5v-13.2h1.3l0.2,2.2v0.1
				c0.4-0.8,0.9-1.4,1.5-1.9s1.4-0.7,2.3-0.7c0.2,0,0.4,0,0.5,0c0.2,0,0.3,0.1,0.4,0.1L455,414.3z"/>
		</g>
		<g>
			<path class="st1" d="M376.1,447.9h-2.4v8.3h-1.5v-17.8h1.5v8.2h2.4l7-8.2h1.6l0,0.1l-7.3,8.7l7.9,9l0,0.1h-1.7L376.1,447.9z"/>
			<path class="st1" d="M386.6,449.5c0-1.9,0.5-3.5,1.6-4.8s2.5-1.9,4.2-1.9c1.8,0,3.2,0.6,4.2,1.9c1.1,1.2,1.6,2.8,1.6,4.8v0.4
				c0,2-0.5,3.5-1.6,4.8c-1.1,1.2-2.5,1.9-4.2,1.9c-1.8,0-3.2-0.6-4.3-1.9s-1.6-2.8-1.6-4.8V449.5z M388.1,449.9
				c0,1.5,0.4,2.8,1.2,3.9c0.8,1,1.9,1.6,3.2,1.6c1.4,0,2.4-0.5,3.2-1.6c0.8-1,1.2-2.3,1.2-3.9v-0.4c0-1.5-0.4-2.8-1.2-3.8
				c-0.8-1-1.9-1.6-3.2-1.6s-2.4,0.5-3.2,1.6c-0.8,1-1.2,2.3-1.2,3.8V449.9z"/>
			<path class="st1" d="M412,450c0,2-0.4,3.6-1.3,4.7c-0.9,1.2-2.1,1.8-3.7,1.8c-0.9,0-1.7-0.2-2.4-0.5c-0.7-0.3-1.3-0.9-1.7-1.5
				v6.8h-1.5v-18.3h1.2l0.2,2.1c0.4-0.7,1-1.3,1.7-1.7c0.7-0.4,1.5-0.6,2.5-0.6c1.6,0,2.8,0.6,3.7,1.9c0.9,1.3,1.3,3,1.3,5.1V450z
				 M410.5,449.7c0-1.7-0.3-3-1-4.1c-0.7-1.1-1.6-1.6-2.9-1.6c-1,0-1.8,0.2-2.4,0.7c-0.6,0.5-1.1,1.1-1.4,1.8v6.4
				c0.3,0.7,0.8,1.3,1.4,1.7c0.6,0.4,1.4,0.6,2.4,0.6c1.3,0,2.2-0.5,2.9-1.4c0.7-1,1-2.2,1-3.8V449.7z"/>
			<path class="st1" d="M420.2,456.5c-1.7,0-3-0.6-4.1-1.8s-1.6-2.8-1.6-4.6v-0.7c0-1.9,0.5-3.5,1.6-4.7c1.1-1.2,2.4-1.9,3.9-1.9
				c1.6,0,2.9,0.5,3.8,1.5s1.4,2.4,1.4,4.1v1.2h-9.3v0.4c0,1.5,0.4,2.7,1.2,3.7c0.8,1,1.8,1.5,3.1,1.5c0.9,0,1.7-0.1,2.3-0.4
				c0.6-0.3,1.2-0.6,1.6-1.1l0.6,1c-0.5,0.5-1.1,0.9-1.9,1.2C422.2,456.4,421.3,456.5,420.2,456.5z M420.1,444.1
				c-1.1,0-2,0.4-2.7,1.2c-0.7,0.8-1.2,1.9-1.3,3.1l0,0.1h7.7v-0.4c0-1.1-0.3-2.1-1-2.9C422.1,444.4,421.2,444.1,420.1,444.1z"/>
			<path class="st1" d="M434.2,444.3l-1.1-0.1c-0.9,0-1.7,0.3-2.3,0.8c-0.6,0.5-1,1.2-1.3,2.1v9.1h-1.5v-13.2h1.3l0.2,2.2v0.1
				c0.4-0.8,0.9-1.4,1.5-1.9s1.4-0.7,2.3-0.7c0.2,0,0.4,0,0.5,0c0.2,0,0.3,0.1,0.4,0.1L434.2,444.3z"/>
		</g>
		<g>
			<path class="st1" d="M372.2,486.3v-17.8h5.2c1.8,0,3.3,0.4,4.3,1.2c1,0.8,1.5,1.9,1.5,3.5c0,0.9-0.3,1.7-0.8,2.4
				s-1.2,1.1-2.1,1.4c1.1,0.2,2,0.7,2.6,1.5s1,1.8,1,2.8c0,1.6-0.5,2.8-1.5,3.7s-2.4,1.3-4.1,1.3H372.2z M373.7,476.5h4.1
				c1.3,0,2.3-0.3,3-0.8c0.7-0.6,1.1-1.4,1.1-2.5c0-1.1-0.4-2-1.1-2.5c-0.7-0.6-1.8-0.8-3.3-0.8h-3.7V476.5z M373.7,477.7v7.3h4.7
				c1.3,0,2.3-0.3,3.1-1c0.7-0.6,1.1-1.5,1.1-2.7c0-1.1-0.3-1.9-1-2.6c-0.7-0.7-1.7-1-3-1H373.7z"/>
			<path class="st1" d="M388.9,486.3h-1.5v-19h1.5V486.3z"/>
			<path class="st1" d="M397.9,486.5c-1.7,0-3-0.6-4.1-1.8s-1.6-2.8-1.6-4.6v-0.7c0-1.9,0.5-3.5,1.6-4.7c1.1-1.2,2.4-1.9,3.9-1.9
				c1.6,0,2.9,0.5,3.8,1.5s1.4,2.4,1.4,4.1v1.2h-9.3v0.4c0,1.5,0.4,2.7,1.2,3.7c0.8,1,1.8,1.5,3.1,1.5c0.9,0,1.7-0.1,2.3-0.4
				c0.6-0.3,1.2-0.6,1.6-1.1l0.6,1c-0.5,0.5-1.1,0.9-1.9,1.2C399.9,486.4,399,486.5,397.9,486.5z M397.7,474.1c-1.1,0-2,0.4-2.7,1.2
				c-0.7,0.8-1.2,1.9-1.3,3.1l0,0.1h7.7v-0.4c0-1.1-0.3-2.1-1-2.9C399.8,474.4,398.9,474.1,397.7,474.1z"/>
			<path class="st1" d="M405.3,479.8c0-2.1,0.4-3.8,1.3-5.1c0.9-1.3,2.1-1.9,3.7-1.9c0.9,0,1.7,0.2,2.4,0.6s1.2,0.9,1.7,1.7v-7.8
				h1.5v19h-1.3l-0.1-1.9c-0.4,0.7-1,1.2-1.7,1.6s-1.5,0.6-2.4,0.6c-1.6,0-2.8-0.6-3.7-1.8c-0.9-1.2-1.3-2.8-1.3-4.7V479.8z
				 M406.7,480c0,1.6,0.3,2.9,1,3.8c0.6,0.9,1.6,1.4,2.9,1.4c0.9,0,1.7-0.2,2.4-0.6c0.6-0.4,1.1-1,1.5-1.8v-6.2
				c-0.3-0.8-0.8-1.4-1.4-1.9c-0.6-0.5-1.4-0.7-2.4-0.7c-1.3,0-2.3,0.5-2.9,1.6c-0.6,1.1-1,2.4-1,4.1V480z"/>
		</g>
		<g>
			<path class="st1" d="M376.1,507.9h-2.4v8.3h-1.5v-17.8h1.5v8.2h2.4l7-8.2h1.6l0,0.1l-7.3,8.7l7.9,9l0,0.1h-1.7L376.1,507.9z"/>
			<path class="st1" d="M393.9,504.3l-1.1-0.1c-0.9,0-1.7,0.3-2.3,0.8c-0.6,0.5-1,1.2-1.3,2.1v9.1h-1.5v-13.2h1.3l0.2,2.2v0.1
				c0.4-0.8,0.9-1.4,1.5-1.9s1.4-0.7,2.3-0.7c0.2,0,0.4,0,0.5,0c0.2,0,0.3,0.1,0.4,0.1L393.9,504.3z"/>
			<path class="st1" d="M404.2,516.3c-0.1-0.4-0.2-0.8-0.2-1.2c0-0.3-0.1-0.7-0.1-1c-0.5,0.7-1.1,1.3-2,1.7
				c-0.8,0.5-1.7,0.7-2.7,0.7c-1.3,0-2.3-0.3-3-1s-1.1-1.6-1.1-2.7c0-1.2,0.5-2.2,1.6-2.9s2.5-1.1,4.3-1.1h2.9v-1.6
				c0-0.9-0.3-1.7-0.9-2.2s-1.5-0.8-2.5-0.8c-1,0-1.9,0.3-2.5,0.8c-0.7,0.5-1,1.1-1,1.9l-1.3,0l0-0.1c0-1,0.4-1.9,1.3-2.6
				c0.9-0.8,2.2-1.2,3.6-1.2c1.5,0,2.6,0.4,3.5,1.1c0.9,0.7,1.3,1.8,1.3,3.2v6.5c0,0.5,0,0.9,0.1,1.4s0.1,0.9,0.3,1.3H404.2z
				 M399.4,515.2c1,0,2-0.2,2.8-0.7s1.4-1.1,1.7-1.9v-2.8H401c-1.3,0-2.4,0.3-3.2,0.8c-0.8,0.6-1.2,1.3-1.2,2.1
				c0,0.7,0.2,1.3,0.7,1.8C397.8,515,398.5,515.2,399.4,515.2z"/>
			<path class="st1" d="M410.5,503.1l0.1,2.3c0.4-0.8,1-1.4,1.7-1.9c0.7-0.4,1.6-0.7,2.6-0.7c1.4,0,2.5,0.4,3.3,1.3
				c0.7,0.9,1.1,2.2,1.1,4.1v8h-1.5v-8c0-1.5-0.3-2.6-0.8-3.2c-0.6-0.6-1.4-0.9-2.4-0.9c-1,0-1.9,0.3-2.5,0.8
				c-0.6,0.5-1.1,1.3-1.4,2.2v9.2h-1.5v-13.2H410.5z"/>
			<path class="st1" d="M424.9,503.1v14.3c0,1.4-0.3,2.4-1,3.1c-0.7,0.7-1.6,1.1-2.7,1.1c-0.2,0-0.5,0-0.7-0.1
				c-0.2,0-0.4-0.1-0.7-0.2l0.2-1.2c0.1,0,0.3,0.1,0.5,0.1s0.4,0.1,0.6,0.1c0.7,0,1.3-0.3,1.7-0.8c0.4-0.5,0.6-1.2,0.6-2.2v-14.3
				H424.9z M424.8,499.2h-1.5v-2h1.5V499.2z"/>
			<path class="st1" d="M437,512.9c0-0.6-0.3-1.2-0.8-1.6c-0.5-0.5-1.4-0.8-2.8-1.1c-1.6-0.3-2.7-0.8-3.5-1.4
				c-0.8-0.6-1.1-1.4-1.1-2.4c0-1,0.4-1.9,1.3-2.6c0.8-0.7,2-1,3.4-1c1.5,0,2.7,0.4,3.5,1.1s1.3,1.7,1.2,2.8l0,0.1h-1.4
				c0-0.7-0.3-1.4-0.9-1.9c-0.6-0.5-1.4-0.8-2.5-0.8c-1.1,0-1.9,0.2-2.4,0.7c-0.5,0.5-0.8,1-0.8,1.6c0,0.6,0.2,1.1,0.7,1.5
				c0.5,0.4,1.4,0.7,2.8,1c1.6,0.4,2.7,0.8,3.5,1.4s1.2,1.4,1.2,2.5c0,1.1-0.4,2-1.3,2.7c-0.9,0.7-2.1,1-3.5,1
				c-1.6,0-2.9-0.4-3.8-1.1c-0.9-0.8-1.3-1.7-1.3-2.7l0-0.1h1.3c0.1,0.9,0.4,1.6,1.2,2.1c0.7,0.4,1.6,0.6,2.5,0.6
				c1.1,0,1.9-0.2,2.5-0.7C436.7,514.1,437,513.6,437,512.9z"/>
			<path class="st1" d="M445,509.8h-1.7v6.4h-1.5v-19h1.5v11.4h1.5l4.9-5.5h1.7l0,0.1l-5.3,6l5.8,7.1l0,0.1h-1.7L445,509.8z"/>
			<path class="st1" d="M462.4,516.3c-0.1-0.4-0.2-0.8-0.2-1.2c0-0.3-0.1-0.7-0.1-1c-0.5,0.7-1.1,1.3-2,1.7
				c-0.8,0.5-1.7,0.7-2.7,0.7c-1.3,0-2.3-0.3-3-1s-1.1-1.6-1.1-2.7c0-1.2,0.5-2.2,1.6-2.9s2.5-1.1,4.3-1.1h2.9v-1.6
				c0-0.9-0.3-1.7-0.9-2.2s-1.5-0.8-2.5-0.8c-1,0-1.9,0.3-2.5,0.8c-0.7,0.5-1,1.1-1,1.9l-1.3,0l0-0.1c0-1,0.4-1.9,1.3-2.6
				c0.9-0.8,2.2-1.2,3.6-1.2c1.5,0,2.6,0.4,3.5,1.1c0.9,0.7,1.3,1.8,1.3,3.2v6.5c0,0.5,0,0.9,0.1,1.4s0.1,0.9,0.3,1.3H462.4z
				 M457.7,515.2c1,0,2-0.2,2.8-0.7s1.4-1.1,1.7-1.9v-2.8h-2.9c-1.3,0-2.4,0.3-3.2,0.8c-0.8,0.6-1.2,1.3-1.2,2.1
				c0,0.7,0.2,1.3,0.7,1.8C456.1,515,456.8,515.2,457.7,515.2z"/>
			<path class="st1" d="M486.7,514.1c-0.4,0.6-1.1,1.1-2.2,1.6c-1.1,0.5-2.4,0.8-4,0.8c-2.1,0-3.8-0.7-5.1-2.1s-2-3.2-2-5.5v-3.3
				c0-2.2,0.6-4,1.9-5.4c1.3-1.4,2.9-2.1,4.9-2.1c1.9,0,3.4,0.5,4.5,1.4s1.7,2.2,1.9,3.7l0,0.1h-1.4c-0.2-1.2-0.7-2.2-1.5-2.9
				c-0.8-0.7-1.9-1.1-3.5-1.1c-1.6,0-2.9,0.6-3.9,1.7c-1,1.2-1.5,2.6-1.5,4.4v3.3c0,1.9,0.5,3.4,1.5,4.6c1,1.2,2.4,1.8,4.1,1.8
				c1.2,0,2.2-0.2,3-0.5c0.8-0.3,1.4-0.7,1.7-1.1v-4.6h-4.7v-1.2h6.2V514.1z"/>
			<path class="st1" d="M489.9,509.5c0-1.9,0.5-3.5,1.6-4.8s2.5-1.9,4.2-1.9c1.8,0,3.2,0.6,4.2,1.9c1.1,1.2,1.6,2.8,1.6,4.8v0.4
				c0,2-0.5,3.5-1.6,4.8c-1.1,1.2-2.5,1.9-4.2,1.9c-1.8,0-3.2-0.6-4.3-1.9s-1.6-2.8-1.6-4.8V509.5z M491.4,509.9
				c0,1.5,0.4,2.8,1.2,3.9c0.8,1,1.9,1.6,3.2,1.6c1.4,0,2.4-0.5,3.2-1.6c0.8-1,1.2-2.3,1.2-3.9v-0.4c0-1.5-0.4-2.8-1.2-3.8
				c-0.8-1-1.9-1.6-3.2-1.6s-2.4,0.5-3.2,1.6c-0.8,1-1.2,2.3-1.2,3.8V509.9z"/>
			<path class="st1" d="M510.7,504.3l-1.1-0.1c-0.9,0-1.7,0.3-2.3,0.8c-0.6,0.5-1,1.2-1.3,2.1v9.1h-1.5v-13.2h1.3l0.2,2.2v0.1
				c0.4-0.8,0.9-1.4,1.5-1.9s1.4-0.7,2.3-0.7c0.2,0,0.4,0,0.5,0c0.2,0,0.3,0.1,0.4,0.1L510.7,504.3z"/>
			<path class="st1" d="M521,516.3c-0.1-0.4-0.2-0.8-0.2-1.2c0-0.3-0.1-0.7-0.1-1c-0.5,0.7-1.1,1.3-2,1.7c-0.8,0.5-1.7,0.7-2.7,0.7
				c-1.3,0-2.3-0.3-3-1s-1.1-1.6-1.1-2.7c0-1.2,0.5-2.2,1.6-2.9s2.5-1.1,4.3-1.1h2.9v-1.6c0-0.9-0.3-1.7-0.9-2.2s-1.5-0.8-2.5-0.8
				c-1,0-1.9,0.3-2.5,0.8c-0.7,0.5-1,1.1-1,1.9l-1.3,0l0-0.1c0-1,0.4-1.9,1.3-2.6c0.9-0.8,2.2-1.2,3.6-1.2c1.5,0,2.6,0.4,3.5,1.1
				c0.9,0.7,1.3,1.8,1.3,3.2v6.5c0,0.5,0,0.9,0.1,1.4s0.1,0.9,0.3,1.3H521z M516.2,515.2c1,0,2-0.2,2.8-0.7s1.4-1.1,1.7-1.9v-2.8
				h-2.9c-1.3,0-2.4,0.3-3.2,0.8c-0.8,0.6-1.2,1.3-1.2,2.1c0,0.7,0.2,1.3,0.7,1.8C514.6,515,515.3,515.2,516.2,515.2z"/>
		</g>
		<g>
			<path class="st1" d="M372.7,538.5v7.4h-1.5v-17.8h6.1c1.9,0,3.3,0.5,4.3,1.4c1,0.9,1.5,2.2,1.5,3.8c0,1.6-0.5,2.8-1.5,3.8
				s-2.5,1.4-4.3,1.4H372.7z M372.7,537.3h4.7c1.5,0,2.6-0.4,3.3-1.1c0.7-0.7,1.1-1.7,1.1-2.8c0-1.1-0.4-2.1-1.1-2.8
				c-0.7-0.8-1.8-1.1-3.3-1.1h-4.7V537.3z"/>
			<path class="st1" d="M385.5,539.1c0-1.9,0.5-3.5,1.6-4.8s2.5-1.9,4.2-1.9c1.8,0,3.2,0.6,4.2,1.9c1.1,1.2,1.6,2.8,1.6,4.8v0.4
				c0,2-0.5,3.6-1.6,4.8c-1.1,1.2-2.5,1.9-4.2,1.9c-1.8,0-3.2-0.6-4.3-1.9c-1.1-1.2-1.6-2.8-1.6-4.8V539.1z M386.9,539.5
				c0,1.5,0.4,2.8,1.2,3.9c0.8,1,1.9,1.6,3.2,1.6c1.4,0,2.4-0.5,3.2-1.6c0.8-1,1.2-2.3,1.2-3.9v-0.4c0-1.5-0.4-2.8-1.2-3.8
				s-1.9-1.6-3.2-1.6s-2.4,0.5-3.2,1.6s-1.2,2.3-1.2,3.8V539.5z"/>
			<path class="st1" d="M406.3,534l-1.1-0.1c-0.9,0-1.7,0.3-2.3,0.8c-0.6,0.5-1,1.2-1.3,2.1v9.1h-1.5v-13.2h1.3l0.2,2.2v0.1
				c0.4-0.8,0.9-1.4,1.5-1.9c0.6-0.5,1.4-0.7,2.3-0.7c0.2,0,0.4,0,0.5,0s0.3,0.1,0.4,0.1L406.3,534z"/>
			<path class="st1" d="M411,529.3v3.4h2.9v1.2H411v8.6c0,0.9,0.2,1.5,0.5,1.8s0.7,0.5,1.3,0.5c0.2,0,0.5,0,0.7,0
				c0.2,0,0.5-0.1,0.8-0.1l0.2,1.1c-0.2,0.1-0.5,0.2-0.9,0.2s-0.7,0.1-1,0.1c-0.9,0-1.7-0.3-2.2-0.9s-0.8-1.5-0.8-2.8v-8.6h-2.3
				v-1.2h2.3v-3.4H411z"/>
			<path class="st1" d="M416.2,539.1c0-1.9,0.5-3.5,1.6-4.8s2.5-1.9,4.2-1.9c1.8,0,3.2,0.6,4.2,1.9c1.1,1.2,1.6,2.8,1.6,4.8v0.4
				c0,2-0.5,3.6-1.6,4.8c-1.1,1.2-2.5,1.9-4.2,1.9c-1.8,0-3.2-0.6-4.3-1.9c-1.1-1.2-1.6-2.8-1.6-4.8V539.1z M417.6,539.5
				c0,1.5,0.4,2.8,1.2,3.9c0.8,1,1.9,1.6,3.2,1.6c1.4,0,2.4-0.5,3.2-1.6c0.8-1,1.2-2.3,1.2-3.9v-0.4c0-1.5-0.4-2.8-1.2-3.8
				s-1.9-1.6-3.2-1.6s-2.4,0.5-3.2,1.6s-1.2,2.3-1.2,3.8V539.5z"/>
			<path class="st1" d="M437,534l-1.1-0.1c-0.9,0-1.7,0.3-2.3,0.8c-0.6,0.5-1,1.2-1.3,2.1v9.1h-1.5v-13.2h1.3l0.2,2.2v0.1
				c0.4-0.8,0.9-1.4,1.5-1.9c0.6-0.5,1.4-0.7,2.3-0.7c0.2,0,0.4,0,0.5,0s0.3,0.1,0.4,0.1L437,534z"/>
			<path class="st1" d="M438.6,539.1c0-1.9,0.5-3.5,1.6-4.8s2.5-1.9,4.2-1.9c1.8,0,3.2,0.6,4.2,1.9c1.1,1.2,1.6,2.8,1.6,4.8v0.4
				c0,2-0.5,3.6-1.6,4.8c-1.1,1.2-2.5,1.9-4.2,1.9c-1.8,0-3.2-0.6-4.3-1.9c-1.1-1.2-1.6-2.8-1.6-4.8V539.1z M440.1,539.5
				c0,1.5,0.4,2.8,1.2,3.9c0.8,1,1.9,1.6,3.2,1.6c1.4,0,2.4-0.5,3.2-1.6c0.8-1,1.2-2.3,1.2-3.9v-0.4c0-1.5-0.4-2.8-1.2-3.8
				s-1.9-1.6-3.2-1.6s-2.4,0.5-3.2,1.6s-1.2,2.3-1.2,3.8V539.5z"/>
			<path class="st1" d="M454.3,544.7h8.6v1.2h-10.4v-1.1l8-10.9h-7.7v-1.2h9.6v1.1L454.3,544.7z M457.8,529.7l2-2.1h1.4v0.2
				l-2.8,2.7h-1.2l-2.8-2.7v-0.2h1.4L457.8,529.7z"/>
		</g>
		<path class="st2" d="M149.8,124.3c0,8.3-6.7,15-15,15c-8.3,0-15-6.7-15-15c0-8.3,6.7-15,15-15C143.1,109.3,149.8,116,149.8,124.3"
			/>
		<path class="st3" d="M144.2,124.3c0,5.1-4.2,9.3-9.3,9.3s-9.3-4.2-9.3-9.3c0-5.1,4.2-9.3,9.3-9.3S144.2,119.2,144.2,124.3"/>
		<path class="st2" d="M204.8,200.3c0,8.3-6.7,15-15,15c-8.3,0-15-6.7-15-15c0-8.3,6.7-15,15-15C198.1,185.3,204.8,192,204.8,200.3"
			/>
		<path class="st3" d="M199.2,200.3c0,5.1-4.2,9.3-9.3,9.3s-9.3-4.2-9.3-9.3c0-5.1,4.2-9.3,9.3-9.3S199.2,195.2,199.2,200.3"/>
		<path class="st2" d="M83.8,109.3c0,8.3-6.7,15-15,15c-8.3,0-15-6.7-15-15c0-8.3,6.7-15,15-15C77.1,94.3,83.8,101,83.8,109.3"/>
		<path class="st3" d="M78.2,109.3c0,5.1-4.2,9.3-9.3,9.3s-9.3-4.2-9.3-9.3c0-5.1,4.2-9.3,9.3-9.3S78.2,104.2,78.2,109.3"/>
		<g>
			<path class="st2" d="M47.5,337.3c0,8.3-6.7,15-15,15c-8.3,0-15-6.7-15-15c0-8.3,6.7-15,15-15C40.8,322.3,47.5,329,47.5,337.3"/>
			<path class="st3" d="M41.8,337.3c0,5.1-4.2,9.3-9.3,9.3s-9.3-4.2-9.3-9.3c0-5.1,4.2-9.3,9.3-9.3S41.8,332.2,41.8,337.3"/>
		</g>
		<path class="st2" d="M378.8,83.3c0,8.3-6.7,15-15,15c-8.3,0-15-6.7-15-15c0-8.3,6.7-15,15-15C372.1,68.3,378.8,75,378.8,83.3"/>
		<path class="st3" d="M373.2,83.3c0,5.1-4.2,9.3-9.3,9.3s-9.3-4.2-9.3-9.3c0-5.1,4.2-9.3,9.3-9.3S373.2,78.2,373.2,83.3"/>
		<g>
			<path class="st2" d="M64.5,311.3c0,8.3-6.7,15-15,15c-8.3,0-15-6.7-15-15c0-8.3,6.7-15,15-15C57.8,296.3,64.5,303,64.5,311.3"/>
			<path class="st3" d="M58.8,311.3c0,5.1-4.2,9.3-9.3,9.3s-9.3-4.2-9.3-9.3c0-5.1,4.2-9.3,9.3-9.3S58.8,306.2,58.8,311.3"/>
		</g>
		<polyline class="st4" points="361.2,389.5 189.7,389.5 189.7,215 		"/>
		<polyline class="st4" points="361.2,419.5 332.7,419.5 332.7,83.5 351.2,83.5 		"/>
		<polyline class="st4" points="360.2,449.5 49.3,449.5 49.3,326 		"/>
		<polyline class="st4" points="361.2,478.5 134.7,478.5 134.7,136 		"/>
		<polyline class="st4" points="361.2,508.5 70.7,508.5 70.7,121 		"/>
		<polyline class="st4" points="362,537.5 31,537.5 31,352 		"/>
	</g>
</g>
</svg>
