<svg xmlns="http://www.w3.org/2000/svg" viewBox="0 0 50.02 50"><defs><style>.cls-1{fill:#fff;}.cls-1,.cls-2{fill-rule:evenodd;}.cls-2{fill:#a7b849;}</style></defs><title>linkedin</title><g id="Layer_2" data-name="Layer 2"><g id="Layer_1-2" data-name="Layer 1"><path class="cls-1" d="M44.47,25A20.5,20.5,0,1,1,24,4.5,20.5,20.5,0,0,1,44.47,25"/><path class="cls-2" d="M25.18,50h-.35l-.18,0A20.13,20.13,0,0,1,22,49.79c-.73-.11-1.46-.21-2.19-.36a24.07,24.07,0,0,1-5.34-1.79A25,25,0,0,1,1.68,34,22.89,22.89,0,0,1,.57,30.21c-.16-.79-.27-1.6-.38-2.4-.07-.47-.09-.94-.12-1.41s0-.73,0-1.09a.87.87,0,0,0,0-.12v-.4a1.05,1.05,0,0,0,0-.14c0-.32,0-.65,0-1s0-.95.11-1.42c.1-.73.21-1.46.34-2.19a23.89,23.89,0,0,1,1.85-5.65A25,25,0,0,1,18.12,1,24.73,24.73,0,0,1,23.91,0,24.38,24.38,0,0,1,27.25.1c.62.06,1.25.15,1.86.24a22.78,22.78,0,0,1,3.42.81,25.06,25.06,0,0,1,16,15.37,23.37,23.37,0,0,1,1.06,3.95c.1.56.18,1.13.25,1.7s.09.89.12,1.33,0,.81,0,1.22a.74.74,0,0,0,0,.12v.3a1.38,1.38,0,0,0,0,.16c0,.33,0,.65,0,1,0,.62-.08,1.24-.16,1.86a23.47,23.47,0,0,1-.49,2.7A25,25,0,0,1,35.46,47.69a24,24,0,0,1-5.4,1.77c-.67.13-1.34.23-2,.33-.49.07-1,.11-1.49.15s-.8,0-1.2,0l-.17,0m1.31-26.93V21c0-.17,0-.17-.18-.17H21.13c-.07,0-.1,0-.1.1,0,.43,0,.86,0,1.29q0,4.17,0,8.34c0,1.86,0,3.71,0,5.56,0,.16,0,.16.17.16h5.09c.21,0,.21,0,.21-.22q0-4.36,0-8.72a1.69,1.69,0,0,1,.1-.64,2.69,2.69,0,0,1,2.29-1.87,2.74,2.74,0,0,1,1.45.22,2.47,2.47,0,0,1,1.29,1.57,5.63,5.63,0,0,1,.25,1.79c0,2.6,0,5.2,0,7.8,0,.17,0,.17.17.17h5.2c.18,0,.18,0,.18-.18,0-2.82,0-5.63,0-8.44,0-.49,0-1-.07-1.48a7.25,7.25,0,0,0-.65-2.41A5.33,5.33,0,0,0,34,21.14a6.76,6.76,0,0,0-3.69-.48,5.6,5.6,0,0,0-2.23.77,3.87,3.87,0,0,0-1.58,1.64m-8.35,5.56V21.07c0-.16,0-.16-.17-.16H13.5c-.18,0-.18,0-.18.18V36.2c0,.18,0,.18.18.18H18c.18,0,.18,0,.18-.18Zm-5.56-12.4c0,.13,0,.27,0,.4a2.51,2.51,0,0,0,1.74,2.15,3.52,3.52,0,0,0,1.93.12,2.49,2.49,0,0,0,2-1.58,2.88,2.88,0,0,0,.17-1.39,2.51,2.51,0,0,0-1.55-2.15,3.44,3.44,0,0,0-2.06-.21,2.63,2.63,0,0,0-2.25,2.65"/></g></g></svg>