<svg xmlns="http://www.w3.org/2000/svg" width="520.97" height="520" viewBox="0 0 520.97 520"><defs><style>.cls-1,.cls-4{fill:#28373c}.cls-1,.cls-2,.cls-3{fill-rule:evenodd}.cls-2{fill:#fff}.cls-3{fill:#a7b849}.cls-4{font-size:25px;font-family:Roboto-Light,Roboto}.cls-5{letter-spacing:-.01em}.cls-6{letter-spacing:-.02em}.cls-7{letter-spacing:0}.cls-8{letter-spacing:-.02em}.cls-9{fill:none;stroke:#fff;stroke-miterlimit:10}</style></defs><g id="Layer_2"><g id="Layer_1-2"><path d="M0 135.2c2.92-2.46 5.86-4.91 8.76-7.39a2.64 2.64 0 0 0 .69-1.06c.92-2.47 5.36-7.45 7.43-8.56 3.8-2.06 7.62-4.1 11.26-6.41a8.43 8.43 0 0 0 3.28-3.78c1.89-5 5.1-7 10.59-6.78 8.73.4 8.75.1 10.06-9 1.26-8.75 2.92-10.32 11.08-7.9a23.1 23.1 0 0 0 13.77.09c7.55-2.24 14.16.05 20.32 4.37a36.1 36.1 0 0 0 4.72 3A4.1 4.1 0 0 0 105 92c5.72-2.52 15.83.65 18.63 6.46 1.73 3.58 4.24 4.8 7.85 4.77 4.47 0 9-.15 13.42 0 2.2.1 4.37 1 6.57 1.23a15.38 15.38 0 0 0 4.57-.12c3.11-.56 6.14-1.56 9.26-2s5.86-.74 8 3.07c1.1 1.91 5.42 3.1 8 2.75 5-.69 7.58 1.42 9.57 5.39a10.17 10.17 0 0 0 3.49 4.16c.4-2.62 1-5.24 1.16-7.87.19-3.17 1.56-5.14 4.65-5.9 6.82-1.67 12.34-4.93 16.27-11.16 1.23-2 4.84-3.18 7.45-3.35 6.45-.42 9.63-3.44 11.25-9.66 1.2-4.62 3.84-8.92 6.16-13.2 1.19-2.19 3-3.6 6.09-2.79 1.28.33 3.19-.89 4.53-1.82 5-3.46 5.81-3.37 9 1.52 2-2.41 3.73-5.4 6.28-7.16 2.12-1.46 5.22-1.53 7.91-2.09 1.37-.28 2.82-.18 4.18-.48 5.74-1.28 11.22-.69 17 .6 5.15 1.15 10.78.34 16.18.08 4.89-.24 9.76-.85 14.62-1.43s8.25 2.08 11 5.57c1.46 1.89 2.61 4.36 5.28 2.92 2.86-1.53 6.75-3.32 7.67-5.9 3.08-8.67 3-9 12-9.91 1.92-.21 3.61-2.11 5.55-2.87s4.29-1.87 6.16-1.47c5.74 1.22 11.38 1.44 16.34-1.73 7.58-4.84 14.44-3.08 21.5.94 3.08 1.75 6.6 2.74 9.72 4.43a94.92 94.92 0 0 1 7.94 5.38c1.19-3.48 1.07-7-1.69-9-6.7-4.89-6.63-11.61-6.22-18.66.16-2.71-.32-5.59.45-8.1.55-1.79 2.43-3.53 4.16-4.53 3.27-1.91 6.91-3.2 10.31-4.9C440.4 3.63 443 2.34 447 3.91c2.41 1 6-.93 9.05-1.76a38.91 38.91 0 0 0 5-2.15h8.67c1.34.76 2.69 1.51 4 2.29 10.05 5.84 10.7 9.49 3.31 18.48-.17.21-.2.53-.14.35a56.57 56.57 0 0 0 1.88 6.39c2.49 5.8 6.17 10.74 12 13.45 2.12 1 3.13 1.88 3.24 4.3.16 3.58-.29 6.52-5.07 7.31a24.15 24.15 0 0 0 2.37 3.54c3.83 3.84 7.79 7.54 11.61 11.4a41.38 41.38 0 0 1 4.08 4.9c1.73 2.39 4.52 4.79 4.71 7.35.48 5.83 3.29 9.17 8.29 11.24v3.47c-5.43 1.69-9.82-.4-13.07-4.44-3.86-4.8-9.87-5.33-14.64-8.25-2.07-1.27-4.33-2.22-6-3.06-5.32 3-10.83 6.2-16.35 9.33-2.23 1.26-3.47 2.55-2.25 5.52 2.55 6.2 3.41 13.08 8.46 18.22 2.14 2.18.55 5.83-2.75 6.53-1.88.4-4-.1-6-.21a62.88 62.88 0 0 1-7.46-.52 13.41 13.41 0 0 1-5.84-2.09c-2.86-2.25-5.52-2.49-8.81-1.18a75.55 75.55 0 0 1-8.54 2.34c.55 1.16 1.2 2.4 1.74 3.68 1.78 4.19 1.06 6-3 7.87-.65.3-1.62.44-1.89.95-2.31 4.26-6.4 5.44-10.61 7-8.13 3.08-16 6.93-24 10.42a23.66 23.66 0 0 1-3.21.92 66.11 66.11 0 0 1-2.43 7.75c-1.47 3.28-4.1 4-7.55 2.84a36.75 36.75 0 0 0-8.3-2c-3.71-.36-7.33-.35-7.14 5.31.06 1.61-1.88 3.42-3.17 4.91-5.34 6.17-4 16.79 3 21.14a99.67 99.67 0 0 0 10.31 5.41c2.62 1.24 3.2 3.19 2.41 5.66A43.89 43.89 0 0 0 381 219a12.8 12.8 0 0 1-1.77 7.79 13.72 13.72 0 0 0-1.11 12.42c1.29 3.57-.13 4.94-3.33 6.94-5 3.16-8.94 2-13.43-.47-3.38-1.84-6.7-1.51-9.17 1.91-2.15 3-4.64 3.87-7.83.83-.74 1.27-1.75 2.21-1.79 3.19-.19 4.69-2.86 5.21-7 5.9-11 1.84-20.29 7.52-27.72 14.73l7.06 7 7-3.94 2.21 7.36c1.17.87 3.45 1.88 4.61 3.64 1 1.45.58 3.78.8 5.72a29.2 29.2 0 0 1-5.28.41c-2.82-.27-12.31 5.67-12.44 8.5-.09 1.85 1.61 3.75 1.65 5.65.17 8.38 3.53 14.65 11 18.76a4.17 4.17 0 0 1 1.43 3.59c-1 4.75-7 8.76-11.53 7.25-5.58-1.85-9.07 0-11.93 4.63-1.89 3.09-11 4.29-14 1.71-4.12-3.55-7.88-7.52-11.87-11.24a6.87 6.87 0 0 0-3.14-2c-7.48-1.19-14.73-2.77-20.23-8.59-.22-.23-.81-.1-1.56-.18a12.71 12.71 0 0 0-.54 1.88c-1 7.83-7.28 13.4-15.16 13-1.48-.08-3.89-1.51-4.16-2.71-2-8.82-9.69-10.91-16.38-13.62-3.76-1.52-4.93-3.22-3.71-6.6 1.34-3.73-.36-5.64-3.3-7.35-2.23-1.3-4.23-3-6.39-4.42-3.53-2.35-5.32-5.36-4.82-9.83.16-1.4-1.27-3-2.61-4.32-2.59 5.86-5 11.09-10.27 14.54-1 .67-1.55 2.88-1.44 4.31.64 8.28-4 13.26-10.52 16.85-4.78 2.62-9.88 4.63-14.72 7.14-6.33 3.28-11.88.36-17.06-2.47-3.13-1.71-5-1.45-6.26 1.34-1.16 2.48-2.83 2.89-5.17 2.73-9.81-.67-19.57-1.13-27.68-8.05-1.34-1.14-4.49-.16-6.17-.16.79 3.39 2 6.51 2.08 9.66.06 2.35-1.75 3.93-4.72 3.79a16 16 0 0 0-12.25 4.24c-3.39 3.15-12 1.34-14.29-3.16-2.06-4-4.71-4.51-8.46-3.35-1.65.51-3.48.58-5 1.32-5.6 2.76-10.69 1.6-16-1-4.46-2.21-7.39-4.8-6.78-10.22a5.11 5.11 0 0 0-1.39-3.26c-2.26-2.73-1.93-4.26 1.61-5q10.09-2.22 20.25-4.05c4.43-.8 5.2-2.14 3.14-6-.62-1.16-1.32-3.58-1-3.73 1.53-.85 3.44-1.8 5-1.55 3.09.48 6 1.85 9.09 2.64 3.27.85 6 .36 8.46-2.57 2.27-2.72 5.33-4.77 8.42-7.45-1.61-1.42-3.48-2.6-4.71-4.24-2.89-3.86-5.61-7.87-8.16-12s-4.82-8.62-9.63-11.09c-4.07-2.09-7.72-5-11.66-7.37-2.31-1.39-4.69-3-7.25-3.57-9.65-2.14-14.29-9.68-11-19.1 1.33-3.76 3.88-7.06 5.36-10.78 1.75-4.41 2.93-9.05 4.48-14-4.86-.87-8-1.17-11.14 1.86-1.43 1.37-5.27 1.9-7 .95-2.84-1.6-5.13-4.49-7.12-7.22-1.42-2 2.65-15.27 4.66-16.82 5.72-4.4 11.73-8.47 17-13.33 3.42-3.15 5.78-7.45 8.62-11.23l-.9-1.4c-3.51-.31-7-.68-10.53-.91-2.84-.19-5.48-.53-6.63-3.74a2.62 2.62 0 0 0-1.42-1.51c-5.48-1.51-10.6-5.54-16.8-2.11-2.66 1.48-4.46.6-5.33-2.66C3.24 148.33 1.51 144 0 139.53z" class="cls-1"/><path d="M146.67 121.3a15 15 0 1 1-15-15 15 15 0 0 1 15 15" class="cls-2"/><path d="M141 121.3a9.32 9.32 0 1 1-9.32-9.32 9.32 9.32 0 0 1 9.32 9.32" class="cls-3"/><path d="M201.67 197.3a15 15 0 1 1-15-15 15 15 0 0 1 15 15" class="cls-2"/><path d="M196 197.3a9.32 9.32 0 1 1-9.32-9.32 9.32 9.32 0 0 1 9.32 9.32" class="cls-3"/><path d="M80.67 106.3a15 15 0 1 1-15-15 15 15 0 0 1 15 15" class="cls-2"/><path d="M75 106.3a9.32 9.32 0 1 1-9.33-9.3 9.32 9.32 0 0 1 9.33 9.3" class="cls-3"/><path d="M375.67 80.3a15 15 0 1 1-15-15 15 15 0 0 1 15 15" class="cls-2"/><path d="M370 80.3a9.32 9.32 0 1 1-9.33-9.3 9.32 9.32 0 0 1 9.33 9.3" class="cls-3"/><path d="M56.67 315.3a15 15 0 1 1-15-15 15 15 0 0 1 15 15" class="cls-2"/><path d="M51 315.3a9.32 9.32 0 1 1-9.33-9.3 9.32 9.32 0 0 1 9.33 9.3" class="cls-3"/><text class="cls-4" transform="translate(366.71 393.22)">Ljubljana</text><text class="cls-4" transform="translate(366.71 423.22)">Maribor</text><text class="cls-4" transform="translate(366.71 453.22)"><tspan class="cls-5">K</tspan><tspan x="15.64" y="0">oper</tspan></text><text class="cls-4" transform="translate(366.71 483.22)">Bled</text><text class="cls-4" transform="translate(366.71 513.22)">K<tspan x="15.97" y="0" class="cls-6">r</tspan><tspan x="24" y="0" class="cls-7">anjska Go</tspan><tspan x="132.81" y="0" class="cls-8">r</tspan><tspan x="140.82" y="0">a</tspan></text><path d="M358 386.5H186.5V212" class="cls-9"/><path d="M358 416.5h-30.5V112.92l24.4-24.36M358 446.5H41.5V330" class="cls-9"/><path d="M358 475.5H131.5V133" class="cls-9"/><path d="M358 505.5H67.5V118" class="cls-9"/></g></g></svg>