<svg xmlns="http://www.w3.org/2000/svg" viewBox="0 0 278.66 55.29"><defs><style>.cls-1{fill:#fff;}</style></defs><title>Asset 1</title><g id="Layer_2" data-name="Layer 2"><g id="Layer_1-2" data-name="Layer 1"><path class="cls-1" d="M157.92,42.53c-.21,0-.38.13-.55.41L154.91,47l-2.48-4.09c-.16-.28-.34-.41-.55-.41s-.5.29-.5.93V51.8a.51.51,0,1,0,1,0V44.91l1.81,3c.28.47.46.63.7.63s.41-.16.69-.63l1.81-3V51.8a.51.51,0,1,0,1,0V43.46c0-.63-.16-.93-.5-.93"/><path class="cls-1" d="M163,45.35a2.48,2.48,0,0,0-2.53,2.71v1.57a2.53,2.53,0,1,0,5,0V48.06A2.48,2.48,0,0,0,163,45.35m1.5,4c0,1.25-.55,2-1.5,2s-1.51-.71-1.51-2v-1c0-1.32.51-2,1.51-2s1.5.68,1.5,2Z"/><path class="cls-1" d="M170.07,45.35h-1.7V43.07a.51.51,0,1,0-1,0v8.65c0,.46.16.62.62.62h2c1.63,0,2.31-.66,2.31-2.27V47.62a2.85,2.85,0,0,0-.34-1.48,2.17,2.17,0,0,0-1.91-.78M171.3,50c0,.93-.4,1.32-1.31,1.32h-1.63v-5H170c.91,0,1.31.4,1.31,1.32Z"/><path class="cls-1" d="M174.79,42.32a.6.6,0,1,0,0,1.19.6.6,0,0,0,0-1.19"/><path class="cls-1" d="M174.77,45.35a.5.5,0,0,0-.5.54v5.9a.51.51,0,1,0,1,0V45.9a.5.5,0,0,0-.52-.54"/><path class="cls-1" d="M179.19,51.49c-.68-.35-.75-.48-.75-1.32V43.07a.51.51,0,1,0-1,0v7.25a2.19,2.19,0,0,0,.36,1.41,1.64,1.64,0,0,0,1.16.6.44.44,0,0,0,.46-.49.39.39,0,0,0-.21-.37"/><path class="cls-1" d="M183.61,45.35h-1.9c-.69,0-.88.16-.88.72v5.72a.51.51,0,1,0,1,0V46.37h1.52c1.13,0,1.43.32,1.43,1.6v3.82a.51.51,0,1,0,1,0V47.88c0-1.81-.63-2.53-2.19-2.53"/><path class="cls-1" d="M190,45.35a2.48,2.48,0,0,0-2.53,2.71v1.57a2.53,2.53,0,1,0,5,0V48.06A2.48,2.48,0,0,0,190,45.35m1.5,4c0,1.25-.55,2-1.5,2s-1.52-.71-1.52-2v-1c0-1.32.52-2,1.52-2s1.5.68,1.5,2Z"/><path class="cls-1" d="M198,49.27a9.45,9.45,0,0,0-1.5-.87c-.9-.47-.9-.47-1.13-.62a.83.83,0,0,1-.4-.65c0-.44.49-.75,1.16-.75a2.77,2.77,0,0,1,.93.16,2.34,2.34,0,0,0,.75.16.49.49,0,0,0,.5-.52.44.44,0,0,0-.33-.44,4.47,4.47,0,0,0-1.81-.4c-1.29,0-2.22.72-2.22,1.75,0,.87.46,1.37,2,2.15.94.48.94.48,1.19.63a.94.94,0,0,1,.57.78c0,.43-.41.69-1.1.69a3.27,3.27,0,0,1-1.71-.48,1.46,1.46,0,0,0-.65-.23.5.5,0,0,0-.45.5c0,.56,1.41,1.21,2.63,1.21s2.29-.71,2.29-1.71a1.74,1.74,0,0,0-.69-1.37"/><path class="cls-1" d="M203,45.35h-1.46V43.07a.51.51,0,1,0-1,0v2.28h-.44a.52.52,0,0,0-.54.51.5.5,0,0,0,.54.5h.44v5.43a.51.51,0,1,0,1,0V46.37H203a.51.51,0,1,0,0-1"/><path class="cls-1" d="M210.2,45.35h-1.81c-.68,0-.85.19-.85.93v8.34a.51.51,0,1,0,1,0V52.34h1.71c1.54,0,2.25-.71,2.25-2.27V47.62a2.51,2.51,0,0,0-.44-1.57,2,2,0,0,0-1.87-.69m1.29,4.75c0,.93-.32,1.22-1.31,1.22h-1.63v-5h1.72c.87,0,1.22.34,1.22,1.18Z"/><path class="cls-1" d="M216.6,45.35a2.48,2.48,0,0,0-2.53,2.71v1.57a2.53,2.53,0,1,0,5,0V48.06a2.48,2.48,0,0,0-2.51-2.71m1.5,4c0,1.25-.55,2-1.5,2s-1.52-.71-1.52-2v-1c0-1.32.52-2,1.52-2s1.5.68,1.5,2Z"/><path class="cls-1" d="M227.34,45.34a.52.52,0,0,0-.5.38l-1.44,4.59-1.47-4.59a.5.5,0,0,0-.5-.38.52.52,0,0,0-.5.51,1.39,1.39,0,0,0,0,.19l1.81,5.6c.16.53.31.69.62.69s.51-.21.66-.69l1.76-5.6a1,1,0,0,0,0-.19.52.52,0,0,0-.5-.51"/><path class="cls-1" d="M231.65,45.35h-2.06a.51.51,0,1,0,0,1h2.23c.78,0,1.06.41,1.06,1.51v.41h-1.74a2.62,2.62,0,0,0-1.25.26,2,2,0,0,0-1,1.72,2.09,2.09,0,0,0,1,1.75,2.7,2.7,0,0,0,1.54.31h1.78c.5,0,.66-.24.66-.91V47.63c0-1.57-.69-2.28-2.25-2.28m1.23,5.93h-1.6c-.79,0-1.29-.38-1.29-1s.49-1,1.5-1h1.4Z"/><path class="cls-1" d="M239.6,49.27a9.4,9.4,0,0,0-1.5-.87c-.9-.47-.9-.47-1.13-.62a.83.83,0,0,1-.4-.65c0-.44.48-.75,1.16-.75a2.77,2.77,0,0,1,.93.16,2.34,2.34,0,0,0,.75.16.49.49,0,0,0,.5-.52.44.44,0,0,0-.32-.44,4.47,4.47,0,0,0-1.81-.4c-1.29,0-2.22.72-2.22,1.75,0,.87.46,1.37,2,2.15.94.48.94.48,1.19.63a.94.94,0,0,1,.57.78c0,.43-.41.69-1.1.69a3.27,3.27,0,0,1-1.71-.48,1.46,1.46,0,0,0-.65-.23.5.5,0,0,0-.45.5c0,.56,1.41,1.21,2.63,1.21s2.3-.71,2.3-1.71a1.74,1.74,0,0,0-.69-1.37"/><path class="cls-1" d="M238.78,42.06l-1,.91-1-.91a.65.65,0,0,0-.44-.21.44.44,0,0,0-.46.43c0,.19.1.37.44.68l.65.6c.38.35.53.44.8.44h0c.22,0,.38-.09.75-.44l.65-.6c.32-.31.44-.49.44-.68a.44.44,0,0,0-.46-.43.68.68,0,0,0-.44.21"/><path class="cls-1" d="M246.51,48.06a2.53,2.53,0,1,0-5,0v1.57a2.53,2.53,0,1,0,5,0Zm-1,1.29c0,1.25-.54,2-1.5,2s-1.52-.71-1.52-2v-1c0-1.32.52-2,1.52-2s1.5.68,1.5,2Z"/><path class="cls-1" d="M248.67,45.35a.5.5,0,0,0-.5.54v6.78a2.32,2.32,0,0,1-.28,1.27c-.21.26-.28.28-1.19.35q-.57,0-.57.48c0,.34.26.52.78.52a2.07,2.07,0,0,0,2.08-1,4.86,4.86,0,0,0,.2-1.47V45.9a.5.5,0,0,0-.51-.54"/><path class="cls-1" d="M248.65,42.32a.6.6,0,1,0,.59.6.59.59,0,0,0-.59-.6"/><path class="cls-1" d="M261,47.54a2.43,2.43,0,0,0-.44-1.56c-.37-.46-1-.63-2.15-.63h-3.15c-.83,0-1,.18-1,.82v5.62a.51.51,0,1,0,1,0V46.37h1.84v5.43a.51.51,0,1,0,1,0V46.37c1.63,0,1.9.19,1.9,1.4v4a.51.51,0,1,0,1,0Z"/><path class="cls-1" d="M263.4,42.32a.6.6,0,1,0,.59.6.59.59,0,0,0-.59-.6"/><path class="cls-1" d="M263.43,45.35a.5.5,0,0,0-.5.54v6.78a2.31,2.31,0,0,1-.28,1.27c-.21.26-.28.28-1.19.35q-.57,0-.57.48c0,.34.26.52.78.52a2.07,2.07,0,0,0,2.08-1,4.85,4.85,0,0,0,.21-1.47V45.9a.5.5,0,0,0-.52-.54"/><path class="cls-1" d="M270.13,51.32h-2c-1,0-1.31-.31-1.31-1.47v-.52H270c.59,0,.69-.18.69-1.16a3.45,3.45,0,0,0-.32-1.56,2.36,2.36,0,0,0-2.1-1.26,2.42,2.42,0,0,0-2.41,2.54V50a3.08,3.08,0,0,0,.4,1.62c.34.48.88.68,1.91.68h2a.51.51,0,1,0,0-1m-3.29-3.18c0-1.16.48-1.76,1.4-1.76s1.4.59,1.4,1.94h-2.79Z"/><path class="cls-1" d="M274.75,45.35h-1.62c-.56,0-.74.18-.74.77v5.68a.51.51,0,1,0,1,0V46.37h.84c.56,0,.85.1,1,.34.37.6.38.62.63.62a.43.43,0,0,0,.46-.47,1.62,1.62,0,0,0-1.59-1.5"/><path class="cls-1" d="M278.06,45.35a.5.5,0,0,0-.5.54v5.9a.51.51,0,1,0,1,0V45.9a.5.5,0,0,0-.52-.54"/><path class="cls-1" d="M278.07,43.51a.6.6,0,1,0-.6-.6.6.6,0,0,0,.6.6"/><path class="cls-1" d="M29,43.1c-6.59,3.41-11.58,2.69-14-1.9-3-5.78-.15-10,9.08-14.76l11.5-5.93-.32-.62c-1.64-3.16-4.47-2.78-10,.07L10.73,27.48,8.06,22.31,26,13.08c5.59-2.89,10.1-3.68,13.48-2.41L33.79,0,16.85,9C9.06,13.12,4.14,17.28,1.65,23.16A22,22,0,0,0,2.81,42.24,21.93,21.93,0,0,0,17.75,53.51C24.07,54.82,30.22,53,38,48.87l16.94-9-4.26-8Z"/><path class="cls-1" d="M27.93,30.75c-3.71,1.92-5.11,3.36-4,5.58s2.79,1.56,6-.1L40.9,30.6l-2.67-5.17Z"/><path class="cls-1" d="M75.85,20H64v3.83h9.67c3.66,0,5.25.63,5.25,3v.46H71.27c-6.12,0-8.75,1.63-8.75,5.92,0,3.41,2.42,5.34,6.79,5.34H84.89V26.95c0-4.57-3-6.92-9-6.92m3.09,14.81H71.69c-2.13,0-3.17-.22-3.17-1.76S69.65,31,72.11,31h6.83Z"/><polygon class="cls-1" points="104.46 20.02 98.01 33.17 91.93 20.02 85.43 20.02 94.72 38.55 100.97 38.55 110.71 20.02 104.46 20.02"/><path class="cls-1" d="M123.53,20H111.67v3.83h9.66c3.66,0,5.24.63,5.24,3v.46H119c-6.13,0-8.75,1.63-8.75,5.92,0,3.41,2.42,5.34,6.79,5.34h15.58V26.95c0-4.57-3-6.92-9-6.92m3.08,14.81h-7.25c-2.12,0-3.16-.22-3.16-1.76S117.33,31,119.79,31h6.83Z"/><path class="cls-1" d="M155.64,38.55V26.8c0-4.92-2.67-6.78-9.15-6.78H135.57V38.55h5.79V24.1H146c3.3,0,3.83.73,3.83,3.3V38.55Z"/><path class="cls-1" d="M172.3,34.86h-2.38c-2.95,0-3.75-1.09-3.75-3.66V23.72h6.13V20h-6.13V13.29h-5.78V20h-4.08v3.7h4.08v9c0,3.8,2.41,5.81,6.62,5.81h5.29Z"/><path class="cls-1" d="M217,21.33c-1.55-1.12-3.92-1.7-7.07-1.7h-12.5v1.94h10a10.79,10.79,0,0,1,5.29,1,4.09,4.09,0,0,1,2,3.69V28H204.59c-3.35,0-5.72.47-7.07,1.38s-1.87,2.19-1.87,4.21a4.17,4.17,0,0,0,1.65,3.56,8.15,8.15,0,0,0,5,1.35h16.79V26.39A5.89,5.89,0,0,0,217,21.33m-2.31,15.27H205a6.13,6.13,0,0,1-3.57-.74,2.72,2.72,0,0,1-1.24-2.5,3.19,3.19,0,0,1,1.45-2.86,8.44,8.44,0,0,1,3.9-.67h9.05Z"/><path class="cls-1" d="M180.18,20.21a10.27,10.27,0,0,0-3.55,1.7,10.32,10.32,0,0,0-2.38,3.19,9.88,9.88,0,0,0-.88,4.07,9.39,9.39,0,0,0,.89,3.95A9,9,0,0,0,180.09,38a23.11,23.11,0,0,0,5.36.54h7.85V36.37h-5.89l-3.28-.12-1.76-.45.34.12-1-.32a6.53,6.53,0,0,1-2.8-2.73,7,7,0,0,1-.94-3.71c0-2.6.79-4.51,2.34-5.7,1.28-1.09,3.64-1.64,7.15-1.64h5.89V19.64h-7.85a20.6,20.6,0,0,0-5.28.57"/><path class="cls-1" d="M236.06,26.13h4V23.8c0-1.58-.38-2.65-1.13-3.18-.6-.46-1.88-1-4.81-1H224V38.5h4.33V21.28H232a5.39,5.39,0,0,1,3.13.62,3.4,3.4,0,0,1,1,2.65s0,.8,0,1.58"/><path class="cls-1" d="M247.89,24.76c0-.59-.35-.85-1-.85h-1.14v3h.45V25.6h.52l.78,1.29H248l-.85-1.31a.77.77,0,0,0,.77-.82m-1.73.46v-.92h.62c.31,0,.65.07.65.44s-.34.48-.73.48Z"/><path class="cls-1" d="M246.7,22.82a2.58,2.58,0,1,0,2.61,2.57,2.58,2.58,0,0,0-2.61-2.57m0,4.73a2.15,2.15,0,1,1,2.09-2.16,2.09,2.09,0,0,1-2.09,2.16"/></g></g></svg>