<svg xmlns="http://www.w3.org/2000/svg" viewBox="0 0 540 540"><defs><style>.cls-1{fill:#e2e2e2;}.cls-2{fill:#28373c;}.cls-3,.cls-4{fill:#a8b949;}.cls-4{fill-rule:evenodd;}</style></defs><title>dugorocni_najam</title><g id="Layer_2" data-name="Layer 2"><g id="Layer_1-2" data-name="Layer 1"><rect class="cls-1" width="540" height="540"/><path class="cls-2" d="M55.22,74.95v6.45H51.66V63.62h7.08a7,7,0,0,1,4.82,1.56,5.68,5.68,0,0,1,0,8.22,7,7,0,0,1-4.82,1.55Zm0-2.75h3.52A3,3,0,0,0,61,71.39a2.89,2.89,0,0,0,.77-2.07A3,3,0,0,0,61,67.2a2.91,2.91,0,0,0-2.26-.84H55.22Z"/><path class="cls-2" d="M82.23,74.1a7.46,7.46,0,0,1-2.07,5.41,7.15,7.15,0,0,1-5.38,2.14,7.06,7.06,0,0,1-5.33-2.14A7.49,7.49,0,0,1,67.4,74.1v-3.2a7.51,7.51,0,0,1,2-5.4,7,7,0,0,1,5.33-2.14,7.16,7.16,0,0,1,5.38,2.14,7.45,7.45,0,0,1,2.08,5.4Zm-3.56-3.21a5.4,5.4,0,0,0-1-3.41,3.42,3.42,0,0,0-2.86-1.33A3.33,3.33,0,0,0,72,67.47a5.52,5.52,0,0,0-1,3.42v3.23a5.54,5.54,0,0,0,1,3.45,3.34,3.34,0,0,0,2.82,1.33,3.4,3.4,0,0,0,2.86-1.33,5.5,5.5,0,0,0,1-3.45Z"/><path class="cls-2" d="M98.66,79a6.72,6.72,0,0,1-2.47,1.87,9.67,9.67,0,0,1-4.24.82,7.27,7.27,0,0,1-5.32-2,7,7,0,0,1-2.06-5.26V70.65a7.2,7.2,0,0,1,2-5.25,6.82,6.82,0,0,1,5.11-2,7.12,7.12,0,0,1,5,1.58A5.48,5.48,0,0,1,98.4,69.1l0,.07H95a3.42,3.42,0,0,0-.9-2.24,3.15,3.15,0,0,0-2.36-.82,3.2,3.2,0,0,0-2.64,1.26,5.07,5.07,0,0,0-1,3.25v3.73a5,5,0,0,0,1,3.29A3.43,3.43,0,0,0,92,78.9a6.42,6.42,0,0,0,2-.26A3,3,0,0,0,95.1,78V74.73H92V72.26h6.71Z"/><path class="cls-2" d="M116,74.1A7.46,7.46,0,0,1,114,79.51a7.15,7.15,0,0,1-5.38,2.14,7.06,7.06,0,0,1-5.33-2.14,7.49,7.49,0,0,1-2.05-5.41v-3.2a7.51,7.51,0,0,1,2-5.4,7,7,0,0,1,5.33-2.14,7.16,7.16,0,0,1,5.38,2.14,7.45,7.45,0,0,1,2.08,5.4Zm-3.56-3.21a5.4,5.4,0,0,0-1-3.41,3.42,3.42,0,0,0-2.86-1.33,3.33,3.33,0,0,0-2.82,1.33,5.52,5.52,0,0,0-1,3.42v3.23a5.54,5.54,0,0,0,1,3.45,3.34,3.34,0,0,0,2.82,1.33,3.4,3.4,0,0,0,2.86-1.33,5.5,5.5,0,0,0,1-3.45Z"/><path class="cls-2" d="M118.81,81.39V63.62h6.1a7.33,7.33,0,0,1,5.37,2.08A7.17,7.17,0,0,1,132.39,71V74a7.15,7.15,0,0,1-2.11,5.34,7.36,7.36,0,0,1-5.37,2.07Zm3.56-15V78.64h2.36a3.71,3.71,0,0,0,3-1.29A5.08,5.08,0,0,0,128.82,74V71a5,5,0,0,0-1.09-3.35,3.71,3.71,0,0,0-3-1.29Z"/><path class="cls-2" d="M149.55,81.39H146l-7.18-12.15h-.07V81.39h-3.56V63.62h3.56l7.18,12.13H146V63.62h3.55Z"/><path class="cls-2" d="M167.18,74.1a7.46,7.46,0,0,1-2.07,5.41,7.15,7.15,0,0,1-5.38,2.14,7.06,7.06,0,0,1-5.33-2.14,7.49,7.49,0,0,1-2.05-5.41v-3.2a7.51,7.51,0,0,1,2-5.4,7,7,0,0,1,5.33-2.14,7.16,7.16,0,0,1,5.38,2.14,7.45,7.45,0,0,1,2.08,5.4Zm-3.56-3.21a5.4,5.4,0,0,0-1-3.41,3.42,3.42,0,0,0-2.86-1.33,3.33,3.33,0,0,0-2.82,1.33,5.52,5.52,0,0,0-1,3.42v3.23a5.54,5.54,0,0,0,1,3.45,3.34,3.34,0,0,0,2.82,1.33,3.4,3.4,0,0,0,2.86-1.33,5.5,5.5,0,0,0,1-3.45Z"/><path class="cls-2" d="M179.56,76.75a2.06,2.06,0,0,0-.73-1.65,7.34,7.34,0,0,0-2.54-1.17,14.5,14.5,0,0,1-4.8-2.17,4.12,4.12,0,0,1-1.62-3.44,4.26,4.26,0,0,1,1.86-3.57,7.75,7.75,0,0,1,4.75-1.39,7.15,7.15,0,0,1,4.77,1.56A4.66,4.66,0,0,1,183,68.76l0,.07h-3.45a2.59,2.59,0,0,0-.82-2,3.28,3.28,0,0,0-2.31-.76,3.42,3.42,0,0,0-2.21.63,2,2,0,0,0-.78,1.62,1.74,1.74,0,0,0,.84,1.48A11.57,11.57,0,0,0,177.16,71a11.2,11.2,0,0,1,4.46,2.16,4.49,4.49,0,0,1,1.51,3.53,4.23,4.23,0,0,1-1.8,3.6,7.86,7.86,0,0,1-4.75,1.32,8.68,8.68,0,0,1-5.07-1.5A4.67,4.67,0,0,1,169.4,76l0-.07h3.47a2.73,2.73,0,0,0,1,2.33,4.37,4.37,0,0,0,2.7.74,3.56,3.56,0,0,0,2.22-.6A1.92,1.92,0,0,0,179.56,76.75Z"/><path class="cls-2" d="M198.1,66.36h-5v15h-3.56v-15h-5V63.62h13.6Z"/><path class="cls-2" d="M203.88,81.39h-3.56V63.62h3.56Z"/><path class="cls-2" d="M217.22,74.95v6.45h-3.56V63.62h7.08a7,7,0,0,1,4.82,1.56,5.68,5.68,0,0,1,0,8.22,7,7,0,0,1-4.82,1.55Zm0-2.75h3.52a3,3,0,0,0,2.26-.81,2.88,2.88,0,0,0,.77-2.07A3,3,0,0,0,223,67.2a2.91,2.91,0,0,0-2.26-.84h-3.52Z"/><path class="cls-2" d="M244.23,74.1a7.46,7.46,0,0,1-2.07,5.41,7.15,7.15,0,0,1-5.38,2.14,7.06,7.06,0,0,1-5.33-2.14,7.49,7.49,0,0,1-2.05-5.41v-3.2a7.51,7.51,0,0,1,2-5.4,7,7,0,0,1,5.33-2.14,7.16,7.16,0,0,1,5.38,2.14,7.45,7.45,0,0,1,2.08,5.4Zm-3.56-3.21a5.4,5.4,0,0,0-1-3.41,3.42,3.42,0,0,0-2.86-1.33A3.33,3.33,0,0,0,234,67.47a5.52,5.52,0,0,0-1,3.42v3.23a5.54,5.54,0,0,0,1,3.45,3.34,3.34,0,0,0,2.82,1.33,3.4,3.4,0,0,0,2.86-1.33,5.5,5.5,0,0,0,1-3.45Z"/><path class="cls-2" d="M256.61,76.75a2.06,2.06,0,0,0-.73-1.65,7.34,7.34,0,0,0-2.54-1.17,14.5,14.5,0,0,1-4.8-2.17,4.12,4.12,0,0,1-1.62-3.44,4.26,4.26,0,0,1,1.86-3.57,7.75,7.75,0,0,1,4.75-1.39,7.15,7.15,0,0,1,4.77,1.56,4.66,4.66,0,0,1,1.78,3.84l0,.07h-3.45a2.59,2.59,0,0,0-.82-2,3.28,3.28,0,0,0-2.31-.76,3.42,3.42,0,0,0-2.21.63,2,2,0,0,0-.78,1.62,1.74,1.74,0,0,0,.84,1.48A11.57,11.57,0,0,0,254.21,71a11.2,11.2,0,0,1,4.46,2.16,4.49,4.49,0,0,1,1.51,3.53,4.23,4.23,0,0,1-1.8,3.6,7.86,7.86,0,0,1-4.75,1.32,8.68,8.68,0,0,1-5.07-1.5,4.67,4.67,0,0,1-2.1-4.19l0-.07h3.47a2.73,2.73,0,0,0,1,2.33,4.37,4.37,0,0,0,2.7.74,3.56,3.56,0,0,0,2.22-.6A1.92,1.92,0,0,0,256.61,76.75Z"/><path class="cls-2" d="M266.44,78.64h7.91v2.75H262.87V63.62h3.56Z"/><path class="cls-2" d="M289.94,74.1a7.46,7.46,0,0,1-2.07,5.41,7.15,7.15,0,0,1-5.38,2.14,7.06,7.06,0,0,1-5.33-2.14,7.49,7.49,0,0,1-2.05-5.41v-3.2a7.51,7.51,0,0,1,2-5.4,7,7,0,0,1,5.33-2.14,7.16,7.16,0,0,1,5.38,2.14,7.45,7.45,0,0,1,2.08,5.4Zm-3.56-3.21a5.4,5.4,0,0,0-1-3.41,3.42,3.42,0,0,0-2.86-1.33,3.33,3.33,0,0,0-2.82,1.33,5.52,5.52,0,0,0-1,3.42v3.23a5.54,5.54,0,0,0,1,3.45,3.34,3.34,0,0,0,2.82,1.33,3.4,3.4,0,0,0,2.86-1.33,5.5,5.5,0,0,0,1-3.45Z"/><path class="cls-2" d="M298.51,76.67l.22,1h.07l.21-.94,3.87-13.07h3.76l-6,17.77h-3.66l-6-17.77h3.76Z"/><path class="cls-2" d="M322.75,81.39H319.2L312,69.25h-.07V81.39h-3.56V63.62h3.56l7.18,12.13h.07V63.62h3.55Z"/><path class="cls-2" d="M340.38,74.1a7.46,7.46,0,0,1-2.07,5.41,7.15,7.15,0,0,1-5.38,2.14,7.06,7.06,0,0,1-5.33-2.14,7.49,7.49,0,0,1-2.05-5.41v-3.2a7.51,7.51,0,0,1,2-5.4,7,7,0,0,1,5.33-2.14,7.16,7.16,0,0,1,5.38,2.14,7.45,7.45,0,0,1,2.08,5.4Zm-3.56-3.21a5.4,5.4,0,0,0-1-3.41,3.42,3.42,0,0,0-2.86-1.33,3.33,3.33,0,0,0-2.82,1.33,5.52,5.52,0,0,0-1,3.42v3.23a5.54,5.54,0,0,0,1,3.45,3.34,3.34,0,0,0,2.82,1.33,3.4,3.4,0,0,0,2.86-1.33,5.5,5.5,0,0,0,1-3.45Z"/><path class="cls-2" d="M356.81,79a6.72,6.72,0,0,1-2.47,1.87,9.67,9.67,0,0,1-4.24.82,7.27,7.27,0,0,1-5.32-2,7,7,0,0,1-2.06-5.26V70.65a7.2,7.2,0,0,1,2-5.25,6.82,6.82,0,0,1,5.11-2,7.12,7.12,0,0,1,5,1.58,5.48,5.48,0,0,1,1.76,4.16l0,.07h-3.36a3.42,3.42,0,0,0-.9-2.24,3.15,3.15,0,0,0-2.36-.82,3.2,3.2,0,0,0-2.64,1.26,5.07,5.07,0,0,0-1,3.25v3.73a5,5,0,0,0,1,3.29,3.43,3.43,0,0,0,2.79,1.26,6.42,6.42,0,0,0,2-.26,3,3,0,0,0,1.15-.63V74.73h-3.15V72.26h6.71Z"/><path class="cls-2" d="M371.64,74h-2v7.42H366.1V63.62h3.56v7.26h1.55l4.71-7.26h4.36l-6,8.28,6.46,9.5h-4.35Z"/><path class="cls-2" d="M396.19,74.1a7.46,7.46,0,0,1-2.07,5.41,7.15,7.15,0,0,1-5.38,2.14,7.06,7.06,0,0,1-5.33-2.14,7.49,7.49,0,0,1-2.05-5.41v-3.2a7.51,7.51,0,0,1,2-5.4,7,7,0,0,1,5.33-2.14,7.16,7.16,0,0,1,5.38,2.14,7.45,7.45,0,0,1,2.08,5.4Zm-3.56-3.21a5.4,5.4,0,0,0-1-3.41,3.42,3.42,0,0,0-2.86-1.33,3.33,3.33,0,0,0-2.82,1.33,5.52,5.52,0,0,0-1,3.42v3.23a5.54,5.54,0,0,0,1,3.45,3.34,3.34,0,0,0,2.82,1.33,3.4,3.4,0,0,0,2.86-1.33,5.5,5.5,0,0,0,1-3.45Z"/><path class="cls-2" d="M402.54,74.29v7.1H399V63.62h6.7A7.37,7.37,0,0,1,410.43,65a4.69,4.69,0,0,1,1.72,3.86,3.91,3.91,0,0,1-.72,2.37,5,5,0,0,1-2.11,1.6,3.83,3.83,0,0,1,2.26,1.55,4.91,4.91,0,0,1,.69,2.69v1.31a6.44,6.44,0,0,0,.2,1.56,2.14,2.14,0,0,0,.69,1.2v.26h-3.67a2,2,0,0,1-.63-1.31,11,11,0,0,1-.15-1.73V77.09A2.83,2.83,0,0,0,408,75a2.74,2.74,0,0,0-2-.74Zm0-2.75h3.08a3.37,3.37,0,0,0,2.24-.63,2.34,2.34,0,0,0,.74-1.88,2.59,2.59,0,0,0-.74-1.94,3,3,0,0,0-2.18-.72h-3.14Z"/><path class="cls-2" d="M419.29,81.39h-3.56V63.62h3.56Z"/><path class="cls-2" d="M432.43,76.75a2.06,2.06,0,0,0-.73-1.65,7.34,7.34,0,0,0-2.54-1.17,14.5,14.5,0,0,1-4.8-2.17,4.12,4.12,0,0,1-1.62-3.44,4.26,4.26,0,0,1,1.86-3.57,7.75,7.75,0,0,1,4.75-1.39,7.15,7.15,0,0,1,4.77,1.56,4.66,4.66,0,0,1,1.78,3.84l0,.07h-3.45a2.59,2.59,0,0,0-.82-2,3.28,3.28,0,0,0-2.31-.76,3.42,3.42,0,0,0-2.21.63,2,2,0,0,0-.78,1.62,1.74,1.74,0,0,0,.84,1.48A11.57,11.57,0,0,0,430,71a11.2,11.2,0,0,1,4.46,2.16A4.49,4.49,0,0,1,436,76.73a4.23,4.23,0,0,1-1.8,3.6,7.86,7.86,0,0,1-4.75,1.32,8.68,8.68,0,0,1-5.07-1.5,4.67,4.67,0,0,1-2.1-4.19l0-.07h3.47a2.73,2.73,0,0,0,1,2.33,4.37,4.37,0,0,0,2.7.74,3.56,3.56,0,0,0,2.22-.6A1.92,1.92,0,0,0,432.43,76.75Z"/><path class="cls-2" d="M453.06,81.39h-3.55l-7.18-12.15h-.07V81.39H438.7V63.62h3.56l7.18,12.13h.07V63.62h3.55Z"/><path class="cls-2" d="M460.18,81.39h-3.56V63.62h3.56Z"/><path class="cls-2" d="M469.28,74h-2v7.42h-3.56V63.62h3.56v7.26h1.55l4.71-7.26h4.36l-6,8.28,6.46,9.5H474Z"/><path class="cls-2" d="M489.42,77.56h-6.24L482,81.39h-3.6l6.12-17.77h3.65l6.09,17.77h-3.6Zm-5.36-2.8h4.48l-2.2-7h-.07Z"/><path class="cls-3" d="M123.08,141.85V129.49l10.7,6.18Z"/><path class="cls-2" d="M143.82,134.71h-2v6.68H140.7V127.17h1.16v6.54h1.94l5.6-6.54h1.32l0,0-5.88,6.95,6.3,7.17,0,0h-1.39Z"/><path class="cls-2" d="M152.24,136a5.68,5.68,0,0,1,1.28-3.83,4.6,4.6,0,0,1,6.79,0,5.68,5.68,0,0,1,1.28,3.83v.32a5.69,5.69,0,0,1-1.27,3.83,4.62,4.62,0,0,1-6.79,0,5.68,5.68,0,0,1-1.28-3.83Zm1.17.32a5,5,0,0,0,.93,3.08,3.28,3.28,0,0,0,5.15,0,5,5,0,0,0,.93-3.08v-.32a5,5,0,0,0-.94-3.06,3.26,3.26,0,0,0-5.15,0,5,5,0,0,0-.93,3.06Z"/><path class="cls-2" d="M165,130.83l.11,1.75a3.71,3.71,0,0,1,1.35-1.44,3.84,3.84,0,0,1,2-.51,3.38,3.38,0,0,1,2,.59,3.22,3.22,0,0,1,1.17,1.79,4,4,0,0,1,1.36-1.74,3.61,3.61,0,0,1,2.15-.63,3.18,3.18,0,0,1,2.61,1.12,5.44,5.44,0,0,1,.92,3.48v6.16h-1.17V135.2a4.3,4.3,0,0,0-.69-2.76,2.39,2.39,0,0,0-1.92-.81,2.64,2.64,0,0,0-2.1.85,4,4,0,0,0-.92,2.18s0,.11,0,.2,0,.15,0,.19v6.35h-1.18V135.2a4.26,4.26,0,0,0-.7-2.75,2.38,2.38,0,0,0-1.92-.83,2.9,2.9,0,0,0-2,.63,3.35,3.35,0,0,0-1,1.7v7.44H164V130.83Z"/><path class="cls-2" d="M190.25,136.4a6.1,6.1,0,0,1-1.07,3.78,3.51,3.51,0,0,1-3,1.41,4.29,4.29,0,0,1-1.95-.42,3.53,3.53,0,0,1-1.36-1.2v5.48h-1.17V130.83h1l.15,1.64a3.75,3.75,0,0,1,1.36-1.36,3.89,3.89,0,0,1,2-.48,3.45,3.45,0,0,1,3,1.52,6.88,6.88,0,0,1,1.07,4Zm-1.17-.22a6.07,6.07,0,0,0-.8-3.28,2.6,2.6,0,0,0-2.34-1.27,3.08,3.08,0,0,0-1.92.56,3.46,3.46,0,0,0-1.11,1.46v5.08a3.2,3.2,0,0,0,1.16,1.37,3.37,3.37,0,0,0,1.89.5,2.65,2.65,0,0,0,2.33-1.15,5.3,5.3,0,0,0,.8-3.06Z"/><path class="cls-2" d="M194.19,141.39H193V126.16h1.16Z"/><path class="cls-2" d="M201.39,141.6a4.24,4.24,0,0,1-3.3-1.46,5.35,5.35,0,0,1-1.31-3.71v-.54a5.51,5.51,0,0,1,1.3-3.76,4,4,0,0,1,3.16-1.49,3.91,3.91,0,0,1,3.06,1.23,4.7,4.7,0,0,1,1.11,3.28v1H198v.28a4.66,4.66,0,0,0,.95,3,3,3,0,0,0,2.49,1.2,5.12,5.12,0,0,0,1.87-.3,3.66,3.66,0,0,0,1.32-.87l.5.8a4.24,4.24,0,0,1-1.51,1A5.76,5.76,0,0,1,201.39,141.6Zm-.15-10a2.8,2.8,0,0,0-2.18,1,4.25,4.25,0,0,0-1,2.48l0,0h6.19v-.29a3.36,3.36,0,0,0-.81-2.3A2.77,2.77,0,0,0,201.24,131.63Z"/><path class="cls-2" d="M209.56,128.12v2.71h2.32v1h-2.32v6.88a2.25,2.25,0,0,0,.38,1.47,1.26,1.26,0,0,0,1,.43l.55,0,.62-.08.18.87a3,3,0,0,1-.71.2,5.24,5.24,0,0,1-.84.07,2.19,2.19,0,0,1-1.73-.7,3.32,3.32,0,0,1-.62-2.23v-6.88h-1.83v-1h1.83v-2.71Z"/><path class="cls-2" d="M215.4,130.83l.11,1.85a3.77,3.77,0,0,1,1.37-1.51,3.82,3.82,0,0,1,2-.53,3.26,3.26,0,0,1,2.62,1,5,5,0,0,1,.9,3.28v6.44h-1.17V135a3.84,3.84,0,0,0-.68-2.57,2.46,2.46,0,0,0-1.93-.75,3,3,0,0,0-2,.65,3.62,3.62,0,0,0-1.12,1.73v7.39h-1.17V130.83Z"/><path class="cls-2" d="M232.19,141.39q-.12-.54-.17-.93a6.43,6.43,0,0,1,0-.79,4.66,4.66,0,0,1-1.56,1.38,4.42,4.42,0,0,1-2.2.55,3.32,3.32,0,0,1-2.4-.82,2.91,2.91,0,0,1-.85-2.2,2.72,2.72,0,0,1,1.26-2.34,5.88,5.88,0,0,1,3.41-.88H232V134a2.25,2.25,0,0,0-.73-1.78,3,3,0,0,0-2-.64,3.24,3.24,0,0,0-2,.62,1.84,1.84,0,0,0-.81,1.5H225.3l0-.06a2.53,2.53,0,0,1,1.08-2.11,4.42,4.42,0,0,1,2.9-.93,4.25,4.25,0,0,1,2.81.89,3.13,3.13,0,0,1,1.06,2.55v5.2a9.13,9.13,0,0,0,.06,1.08,6.79,6.79,0,0,0,.21,1Zm-3.84-.83a4.18,4.18,0,0,0,2.23-.59,3.5,3.5,0,0,0,1.4-1.51v-2.21h-2.35a4.3,4.3,0,0,0-2.54.68,2,2,0,0,0-1,1.68,1.82,1.82,0,0,0,.59,1.4A2.33,2.33,0,0,0,228.35,140.56Z"/><path class="cls-2" d="M248,139.66a3.64,3.64,0,0,1-1.37,1.43,4,4,0,0,1-2,.5,3.23,3.23,0,0,1-2.62-1.13,5.41,5.41,0,0,1-.95-3.52v-6.12h1.17V137a4.56,4.56,0,0,0,.66,2.78,2.24,2.24,0,0,0,1.87.84,3.44,3.44,0,0,0,2.12-.6,3.1,3.1,0,0,0,1.1-1.64v-7.53h1.17v10.57h-1Z"/><path class="cls-2" d="M258.58,138.7a1.7,1.7,0,0,0-.61-1.3,5,5,0,0,0-2.2-.91,7.39,7.39,0,0,1-2.8-1.08,2.24,2.24,0,0,1-.9-1.9,2.55,2.55,0,0,1,1-2,4.13,4.13,0,0,1,2.7-.83,4.24,4.24,0,0,1,2.83.88,2.64,2.64,0,0,1,1,2.21l0,.06h-1.08a2,2,0,0,0-.74-1.51,3.5,3.5,0,0,0-3.91-.1,1.65,1.65,0,0,0-.64,1.29,1.52,1.52,0,0,0,.55,1.21,5.39,5.39,0,0,0,2.2.84,7.18,7.18,0,0,1,2.82,1.15,2.38,2.38,0,0,1,.94,2,2.57,2.57,0,0,1-1.07,2.14,5.37,5.37,0,0,1-5.85-.1,2.6,2.6,0,0,1-1-2.19l0-.06h1.07a1.93,1.93,0,0,0,.93,1.65,3.9,3.9,0,0,0,2,.52,3.24,3.24,0,0,0,2-.56A1.64,1.64,0,0,0,258.58,138.7Z"/><path class="cls-2" d="M263.74,141.39h-1.16V126.16h1.16Z"/><path class="cls-2" d="M273.9,139.66a3.64,3.64,0,0,1-1.37,1.43,4,4,0,0,1-2,.5,3.23,3.23,0,0,1-2.62-1.13,5.41,5.41,0,0,1-.95-3.52v-6.12h1.17V137a4.56,4.56,0,0,0,.66,2.78,2.24,2.24,0,0,0,1.87.84,3.44,3.44,0,0,0,2.12-.6,3.1,3.1,0,0,0,1.1-1.64v-7.53H275v10.57h-1Z"/><path class="cls-2" d="M277.65,136.2a6.85,6.85,0,0,1,1.08-4,3.48,3.48,0,0,1,3-1.52,3.7,3.7,0,0,1,1.94.49,4,4,0,0,1,1.36,1.39l.14-1.69h1v10.43a4.47,4.47,0,0,1-1.13,3.22,4.13,4.13,0,0,1-3.14,1.18,7.71,7.71,0,0,1-1.62-.19,6.35,6.35,0,0,1-1.5-.51l.3-1a6,6,0,0,0,1.32.47,6.54,6.54,0,0,0,1.48.16,3,3,0,0,0,2.33-.89,3.6,3.6,0,0,0,.79-2.47v-1.33a3.71,3.71,0,0,1-1.36,1.24,4,4,0,0,1-1.91.43,3.54,3.54,0,0,1-3-1.42,6.08,6.08,0,0,1-1.08-3.78Zm1.17.21a5.33,5.33,0,0,0,.78,3.06,2.63,2.63,0,0,0,2.32,1.14,3.25,3.25,0,0,0,1.89-.52,3.38,3.38,0,0,0,1.17-1.44v-4.9a3.72,3.72,0,0,0-1.12-1.52,3,3,0,0,0-1.92-.59,2.58,2.58,0,0,0-2.33,1.28,6.17,6.17,0,0,0-.79,3.3Z"/><path class="cls-2" d="M295.94,141.39q-.12-.54-.17-.93a6.43,6.43,0,0,1,0-.79,4.66,4.66,0,0,1-1.56,1.38,4.42,4.42,0,0,1-2.2.55,3.32,3.32,0,0,1-2.4-.82,2.91,2.91,0,0,1-.85-2.2,2.72,2.72,0,0,1,1.26-2.34,5.88,5.88,0,0,1,3.41-.88h2.33V134a2.25,2.25,0,0,0-.73-1.78,3,3,0,0,0-2-.64,3.24,3.24,0,0,0-2,.62,1.84,1.84,0,0,0-.81,1.5h-1.07l0-.06a2.53,2.53,0,0,1,1.08-2.11,4.42,4.42,0,0,1,2.9-.93,4.25,4.25,0,0,1,2.81.89,3.13,3.13,0,0,1,1.06,2.55v5.2a9.13,9.13,0,0,0,.06,1.08,6.79,6.79,0,0,0,.21,1Zm-3.84-.83a4.18,4.18,0,0,0,2.23-.59,3.5,3.5,0,0,0,1.4-1.51v-2.21h-2.35a4.3,4.3,0,0,0-2.54.68,2,2,0,0,0-1,1.68,1.82,1.82,0,0,0,.59,1.4A2.33,2.33,0,0,0,292.1,140.56Z"/><path class="cls-2" d="M308.48,135.83H303.8v-1h4.68Z"/><path class="cls-2" d="M316.44,130.83l.11,1.75a3.71,3.71,0,0,1,1.35-1.44,3.84,3.84,0,0,1,2-.51,3.38,3.38,0,0,1,2,.59,3.22,3.22,0,0,1,1.17,1.79,4,4,0,0,1,1.36-1.74,3.61,3.61,0,0,1,2.15-.63,3.18,3.18,0,0,1,2.61,1.12,5.44,5.44,0,0,1,.92,3.48v6.16H329V135.2a4.3,4.3,0,0,0-.69-2.76,2.39,2.39,0,0,0-1.92-.81,2.64,2.64,0,0,0-2.1.85,4,4,0,0,0-.92,2.18s0,.11,0,.2,0,.15,0,.19v6.35h-1.18V135.2a4.26,4.26,0,0,0-.7-2.75,2.38,2.38,0,0,0-1.92-.83,2.9,2.9,0,0,0-2,.63,3.35,3.35,0,0,0-1,1.7v7.44h-1.18V130.83Z"/><path class="cls-2" d="M332.52,136a5.68,5.68,0,0,1,1.28-3.83,4.6,4.6,0,0,1,6.79,0,5.68,5.68,0,0,1,1.28,3.83v.32a5.69,5.69,0,0,1-1.27,3.83,4.62,4.62,0,0,1-6.79,0,5.68,5.68,0,0,1-1.28-3.83Zm1.17.32a5,5,0,0,0,.93,3.08,3.28,3.28,0,0,0,5.15,0,5,5,0,0,0,.93-3.08v-.32a5,5,0,0,0-.94-3.06,3.26,3.26,0,0,0-5.15,0,5,5,0,0,0-.93,3.06Z"/><path class="cls-2" d="M352.82,136.4a6.1,6.1,0,0,1-1.07,3.78,3.51,3.51,0,0,1-3,1.41,4.08,4.08,0,0,1-2-.46,3.58,3.58,0,0,1-1.36-1.33l-.13,1.59h-1V126.16h1.17v6.33a3.61,3.61,0,0,1,3.3-1.86,3.45,3.45,0,0,1,3,1.52,6.88,6.88,0,0,1,1.07,4Zm-1.18-.2a6.23,6.23,0,0,0-.78-3.3,2.55,2.55,0,0,0-2.31-1.27,3,3,0,0,0-2,.61,3.63,3.63,0,0,0-1.11,1.56v4.8a3.34,3.34,0,0,0,1.17,1.47,3.28,3.28,0,0,0,1.93.54,2.6,2.6,0,0,0,2.3-1.14,5.37,5.37,0,0,0,.77-3.06Z"/><path class="cls-2" d="M356.75,127.8h-1.16v-1.64h1.16Zm0,13.59h-1.16V130.83h1.16Z"/><path class="cls-2" d="M361.29,141.39h-1.16V126.16h1.16Z"/><path class="cls-2" d="M365.56,130.83l.11,1.85a3.77,3.77,0,0,1,1.37-1.51,3.82,3.82,0,0,1,2-.53,3.26,3.26,0,0,1,2.62,1,5,5,0,0,1,.9,3.28v6.44h-1.17V135a3.84,3.84,0,0,0-.68-2.57,2.46,2.46,0,0,0-1.93-.75,3,3,0,0,0-2,.65,3.62,3.62,0,0,0-1.12,1.73v7.39h-1.17V130.83Z"/><path class="cls-2" d="M375,136a5.68,5.68,0,0,1,1.28-3.83,4.6,4.6,0,0,1,6.79,0,5.68,5.68,0,0,1,1.28,3.83v.32a5.69,5.69,0,0,1-1.27,3.83,4.62,4.62,0,0,1-6.79,0,5.68,5.68,0,0,1-1.28-3.83Zm1.17.32a5,5,0,0,0,.93,3.08,3.28,3.28,0,0,0,5.15,0,5,5,0,0,0,.93-3.08v-.32a5,5,0,0,0-.94-3.06,3.26,3.26,0,0,0-5.15,0,5,5,0,0,0-.93,3.06Z"/><path class="cls-2" d="M393.12,138.7a1.7,1.7,0,0,0-.61-1.3,5,5,0,0,0-2.2-.91,7.39,7.39,0,0,1-2.8-1.08,2.24,2.24,0,0,1-.9-1.9,2.55,2.55,0,0,1,1-2,4.13,4.13,0,0,1,2.7-.83,4.24,4.24,0,0,1,2.83.88,2.64,2.64,0,0,1,1,2.21l0,.06H393a2,2,0,0,0-.74-1.51,3.5,3.5,0,0,0-3.91-.1,1.65,1.65,0,0,0-.64,1.29,1.52,1.52,0,0,0,.55,1.21,5.39,5.39,0,0,0,2.2.84,7.18,7.18,0,0,1,2.82,1.15,2.38,2.38,0,0,1,.94,2,2.57,2.57,0,0,1-1.07,2.14,5.37,5.37,0,0,1-5.85-.1,2.6,2.6,0,0,1-1-2.19l0-.06h1.07a1.93,1.93,0,0,0,.93,1.65,3.9,3.9,0,0,0,2,.52,3.24,3.24,0,0,0,2-.56A1.64,1.64,0,0,0,393.12,138.7Z"/><path class="cls-2" d="M398.81,128.12v2.71h2.32v1h-2.32v6.88a2.25,2.25,0,0,0,.38,1.47,1.26,1.26,0,0,0,1,.43l.55,0,.62-.08.18.87a3,3,0,0,1-.71.2,5.24,5.24,0,0,1-.84.07,2.19,2.19,0,0,1-1.73-.7,3.32,3.32,0,0,1-.62-2.23v-6.88H395.8v-1h1.83v-2.71Z"/><path class="cls-2" d="M417,136.4a6.1,6.1,0,0,1-1.07,3.78,3.51,3.51,0,0,1-3,1.41,4.08,4.08,0,0,1-2-.46,3.58,3.58,0,0,1-1.36-1.33l-.13,1.59h-1V126.16h1.17v6.33a3.61,3.61,0,0,1,3.3-1.86,3.45,3.45,0,0,1,3,1.52,6.88,6.88,0,0,1,1.07,4Zm-1.18-.2a6.23,6.23,0,0,0-.78-3.3,2.55,2.55,0,0,0-2.31-1.27,3,3,0,0,0-2,.61,3.63,3.63,0,0,0-1.11,1.56v4.8a3.34,3.34,0,0,0,1.17,1.47,3.28,3.28,0,0,0,1.93.54,2.6,2.6,0,0,0,2.3-1.14,5.37,5.37,0,0,0,.77-3.06Z"/><path class="cls-2" d="M423.58,141.6a4.24,4.24,0,0,1-3.3-1.46,5.35,5.35,0,0,1-1.31-3.71v-.54a5.51,5.51,0,0,1,1.3-3.76,4,4,0,0,1,3.16-1.49,3.91,3.91,0,0,1,3.06,1.23,4.7,4.7,0,0,1,1.11,3.28v1h-7.46v.28a4.66,4.66,0,0,0,.95,3,3,3,0,0,0,2.49,1.2,5.12,5.12,0,0,0,1.87-.3,3.66,3.66,0,0,0,1.32-.87l.5.8a4.24,4.24,0,0,1-1.51,1A5.76,5.76,0,0,1,423.58,141.6Zm-.15-10a2.8,2.8,0,0,0-2.18,1,4.25,4.25,0,0,0-1,2.48l0,0h6.19v-.29a3.36,3.36,0,0,0-.81-2.3A2.77,2.77,0,0,0,423.43,131.63Z"/><path class="cls-2" d="M430.69,140.4h6.87v1h-8.31v-.87l6.37-8.7h-6.17v-1h7.65v.86Z"/><path class="cls-2" d="M453.08,136.4a6.1,6.1,0,0,1-1.07,3.78,3.51,3.51,0,0,1-3,1.41,4.08,4.08,0,0,1-2-.46,3.58,3.58,0,0,1-1.36-1.33l-.13,1.59h-1V126.16h1.17v6.33a3.61,3.61,0,0,1,3.3-1.86,3.45,3.45,0,0,1,3,1.52,6.88,6.88,0,0,1,1.07,4Zm-1.18-.2a6.23,6.23,0,0,0-.78-3.3,2.55,2.55,0,0,0-2.31-1.27,3,3,0,0,0-2,.61,3.63,3.63,0,0,0-1.11,1.56v4.8a3.34,3.34,0,0,0,1.17,1.47,3.28,3.28,0,0,0,1.93.54,2.6,2.6,0,0,0,2.3-1.14,5.37,5.37,0,0,0,.77-3.06Z"/><path class="cls-2" d="M460.56,131.83l-.87-.06a2.65,2.65,0,0,0-1.81.62,3.42,3.42,0,0,0-1,1.7v7.29h-1.17V130.83h1l.15,1.76v.12a3.79,3.79,0,0,1,1.23-1.52,3.09,3.09,0,0,1,1.84-.55,2.68,2.68,0,0,1,.43,0l.35.07Z"/><path class="cls-2" d="M463.81,127.8h-1.16v-1.64h1.16Zm0,13.59h-1.16V130.83h1.16Z"/><path class="cls-2" d="M466.58,136.2a6.85,6.85,0,0,1,1.08-4,3.48,3.48,0,0,1,3-1.52,3.7,3.7,0,0,1,1.94.49,4,4,0,0,1,1.36,1.39l.14-1.69h1v10.43a4.47,4.47,0,0,1-1.13,3.22,4.13,4.13,0,0,1-3.14,1.18,7.71,7.71,0,0,1-1.62-.19,6.35,6.35,0,0,1-1.5-.51l.3-1a6,6,0,0,0,1.32.47,6.54,6.54,0,0,0,1.48.16,3,3,0,0,0,2.33-.89,3.6,3.6,0,0,0,.79-2.47v-1.33a3.71,3.71,0,0,1-1.36,1.24,4,4,0,0,1-1.91.43,3.54,3.54,0,0,1-3-1.42,6.08,6.08,0,0,1-1.08-3.78Zm1.17.21a5.33,5.33,0,0,0,.78,3.06,2.63,2.63,0,0,0,2.32,1.14,3.25,3.25,0,0,0,1.89-.52,3.38,3.38,0,0,0,1.17-1.44v-4.9a3.72,3.72,0,0,0-1.12-1.52,3,3,0,0,0-1.92-.59,2.58,2.58,0,0,0-2.33,1.28,6.17,6.17,0,0,0-.79,3.3Z"/><path class="cls-2" d="M482.15,141.6a4.24,4.24,0,0,1-3.3-1.46,5.35,5.35,0,0,1-1.31-3.71v-.54a5.51,5.51,0,0,1,1.3-3.76,4,4,0,0,1,3.16-1.49,3.91,3.91,0,0,1,3.06,1.23,4.7,4.7,0,0,1,1.11,3.28v1h-7.46v.28a4.66,4.66,0,0,0,.95,3,3,3,0,0,0,2.49,1.2,5.12,5.12,0,0,0,1.87-.3,3.66,3.66,0,0,0,1.32-.87l.5.8a4.24,4.24,0,0,1-1.51,1A5.76,5.76,0,0,1,482.15,141.6Zm-.15-10a2.8,2.8,0,0,0-2.18,1,4.25,4.25,0,0,0-1,2.48l0,0H485v-.29a3.36,3.36,0,0,0-.81-2.3A2.77,2.77,0,0,0,482,131.63Z"/><path class="cls-3" d="M123.08,171.85V159.49l10.7,6.18Z"/><path class="cls-2" d="M141.83,165v6.43h-1.16V157.18h4.81a5.4,5.4,0,0,1,3.51,1,3.56,3.56,0,0,1,1.22,2.92,3.34,3.34,0,0,1-.65,2,3.71,3.71,0,0,1-1.85,1.3,3.09,3.09,0,0,1,1.9,1.19,3.73,3.73,0,0,1,.58,2.14v1.34a4.18,4.18,0,0,0,.16,1.19,1.85,1.85,0,0,0,.52.86v.23h-1.19a2,2,0,0,1-.51-1,5.85,5.85,0,0,1-.15-1.32v-1.3a2.63,2.63,0,0,0-.84-2.07,3.41,3.41,0,0,0-2.36-.76Zm0-1h3.51a4.21,4.21,0,0,0,2.81-.78,2.64,2.64,0,0,0,.89-2.09,2.69,2.69,0,0,0-.88-2.16,4,4,0,0,0-2.67-.76h-3.65Z"/><path class="cls-2" d="M160.23,171.39q-.12-.54-.17-.93a6.43,6.43,0,0,1,0-.79,4.66,4.66,0,0,1-1.56,1.38,4.42,4.42,0,0,1-2.2.55,3.32,3.32,0,0,1-2.4-.82,2.91,2.91,0,0,1-.85-2.2,2.72,2.72,0,0,1,1.26-2.34,5.88,5.88,0,0,1,3.41-.88H160V164a2.25,2.25,0,0,0-.73-1.78,3,3,0,0,0-2-.64,3.24,3.24,0,0,0-2,.62,1.84,1.84,0,0,0-.81,1.5h-1.07l0-.06a2.53,2.53,0,0,1,1.08-2.11,4.42,4.42,0,0,1,2.9-.93,4.25,4.25,0,0,1,2.81.89,3.13,3.13,0,0,1,1.06,2.55v5.2a9.13,9.13,0,0,0,.06,1.08,6.79,6.79,0,0,0,.21,1Zm-3.84-.83a4.18,4.18,0,0,0,2.23-.59,3.5,3.5,0,0,0,1.4-1.51v-2.21h-2.35a4.3,4.3,0,0,0-2.54.68,2,2,0,0,0-1,1.68,1.82,1.82,0,0,0,.59,1.4A2.33,2.33,0,0,0,156.39,170.56Z"/><path class="cls-2" d="M165.08,170.4h6.87v1h-8.31v-.87l6.37-8.7h-6.17v-1h7.65v.86Z"/><path class="cls-2" d="M175.11,160.83l.11,1.85a3.77,3.77,0,0,1,1.37-1.51,3.82,3.82,0,0,1,2-.53,3.26,3.26,0,0,1,2.62,1,5,5,0,0,1,.9,3.28v6.44H181V165a3.84,3.84,0,0,0-.68-2.57,2.46,2.46,0,0,0-1.93-.75,3,3,0,0,0-2,.65,3.62,3.62,0,0,0-1.12,1.73v7.39h-1.17V160.83Z"/><path class="cls-2" d="M184.56,166a5.68,5.68,0,0,1,1.28-3.83,4.6,4.6,0,0,1,6.79,0A5.68,5.68,0,0,1,193.9,166v.32a5.69,5.69,0,0,1-1.27,3.83,4.62,4.62,0,0,1-6.79,0,5.68,5.68,0,0,1-1.28-3.83Zm1.17.32a5,5,0,0,0,.93,3.08,3.28,3.28,0,0,0,5.15,0,5,5,0,0,0,.93-3.08v-.32a5,5,0,0,0-.94-3.06,3.26,3.26,0,0,0-5.15,0,5,5,0,0,0-.93,3.06Z"/><path class="cls-2" d="M199.21,168.75l.34,1.24h.06l.37-1.24,2.87-7.92h1.21l-4,10.57h-.94l-4-10.57h1.21Z"/><path class="cls-2" d="M210.85,161.83l-.87-.06a2.65,2.65,0,0,0-1.81.62,3.42,3.42,0,0,0-1,1.7v7.29H206V160.83h1l.15,1.76v.12a3.79,3.79,0,0,1,1.23-1.52,3.09,3.09,0,0,1,1.84-.55,2.68,2.68,0,0,1,.43,0l.35.07Z"/><path class="cls-2" d="M219.12,168.7a1.7,1.7,0,0,0-.61-1.3,5,5,0,0,0-2.2-.91,7.39,7.39,0,0,1-2.8-1.08,2.24,2.24,0,0,1-.9-1.9,2.55,2.55,0,0,1,1-2,4.13,4.13,0,0,1,2.7-.83,4.24,4.24,0,0,1,2.83.88,2.64,2.64,0,0,1,1,2.21l0,.06h-1.08a2,2,0,0,0-.74-1.51,3.5,3.5,0,0,0-3.91-.1,1.65,1.65,0,0,0-.64,1.29,1.52,1.52,0,0,0,.55,1.21,5.39,5.39,0,0,0,2.2.84,7.18,7.18,0,0,1,2.82,1.15,2.38,2.38,0,0,1,.94,2,2.57,2.57,0,0,1-1.07,2.14,5.37,5.37,0,0,1-5.85-.1,2.6,2.6,0,0,1-1-2.19l0-.06h1.07a1.93,1.93,0,0,0,.93,1.65,3.9,3.9,0,0,0,2,.52,3.24,3.24,0,0,0,2-.56A1.64,1.64,0,0,0,219.12,168.7Z"/><path class="cls-2" d="M224,160.83l.11,1.85a3.77,3.77,0,0,1,1.37-1.51,3.82,3.82,0,0,1,2-.53,3.26,3.26,0,0,1,2.62,1,5,5,0,0,1,.9,3.28v6.44h-1.17V165a3.84,3.84,0,0,0-.68-2.57,2.46,2.46,0,0,0-1.93-.75,3,3,0,0,0-2,.65,3.62,3.62,0,0,0-1.12,1.73v7.39H223V160.83Z"/><path class="cls-2" d="M240.8,171.39q-.12-.54-.17-.93a6.43,6.43,0,0,1,0-.79A4.66,4.66,0,0,1,239,171a4.42,4.42,0,0,1-2.2.55,3.32,3.32,0,0,1-2.4-.82,2.91,2.91,0,0,1-.85-2.2,2.72,2.72,0,0,1,1.26-2.34,5.88,5.88,0,0,1,3.41-.88h2.33V164a2.25,2.25,0,0,0-.73-1.78,3,3,0,0,0-2-.64,3.24,3.24,0,0,0-2,.62,1.84,1.84,0,0,0-.81,1.5h-1.07l0-.06a2.53,2.53,0,0,1,1.08-2.11,4.42,4.42,0,0,1,2.9-.93,4.25,4.25,0,0,1,2.81.89,3.13,3.13,0,0,1,1.06,2.55v5.2a9.13,9.13,0,0,0,.06,1.08,6.79,6.79,0,0,0,.21,1Zm-3.84-.83a4.18,4.18,0,0,0,2.23-.59,3.5,3.5,0,0,0,1.4-1.51v-2.21h-2.35a4.3,4.3,0,0,0-2.54.68,2,2,0,0,0-1,1.68,1.82,1.82,0,0,0,.59,1.4A2.33,2.33,0,0,0,237,170.56Z"/><path class="cls-2" d="M251,157.8h-1.16v-1.64H251Zm0,13.59h-1.16V160.83H251Z"/><path class="cls-2" d="M260.17,160.83l.11,1.85a3.77,3.77,0,0,1,1.37-1.51,3.82,3.82,0,0,1,2-.53,3.26,3.26,0,0,1,2.62,1,5,5,0,0,1,.9,3.28v6.44H266V165a3.84,3.84,0,0,0-.68-2.57,2.46,2.46,0,0,0-1.93-.75,3,3,0,0,0-2,.65,3.62,3.62,0,0,0-1.12,1.73v7.39h-1.17V160.83Z"/><path class="cls-2" d="M269.61,166a5.68,5.68,0,0,1,1.28-3.83,4.6,4.6,0,0,1,6.79,0A5.68,5.68,0,0,1,279,166v.32a5.69,5.69,0,0,1-1.27,3.83,4.62,4.62,0,0,1-6.79,0,5.68,5.68,0,0,1-1.28-3.83Zm1.17.32a5,5,0,0,0,.93,3.08,3.28,3.28,0,0,0,5.15,0,5,5,0,0,0,.93-3.08v-.32a5,5,0,0,0-.94-3.06,3.26,3.26,0,0,0-5.15,0,5,5,0,0,0-.93,3.06Z"/><path class="cls-2" d="M284.31,168.75l.34,1.24h.06l.37-1.24,2.87-7.92h1.21l-4,10.57h-.94l-4-10.57h1.21Z"/><path class="cls-2" d="M297.63,171.39q-.12-.54-.17-.93a6.43,6.43,0,0,1,0-.79,4.66,4.66,0,0,1-1.56,1.38,4.42,4.42,0,0,1-2.2.55,3.32,3.32,0,0,1-2.4-.82,2.91,2.91,0,0,1-.85-2.2,2.72,2.72,0,0,1,1.26-2.34,5.88,5.88,0,0,1,3.41-.88h2.33V164a2.25,2.25,0,0,0-.73-1.78,3,3,0,0,0-2-.64,3.24,3.24,0,0,0-2,.62,1.84,1.84,0,0,0-.81,1.5h-1.07l0-.06a2.53,2.53,0,0,1,1.08-2.11,4.42,4.42,0,0,1,2.9-.93,4.25,4.25,0,0,1,2.81.89,3.13,3.13,0,0,1,1.06,2.55v5.2a9.13,9.13,0,0,0,.06,1.08,6.79,6.79,0,0,0,.21,1Zm-3.84-.83A4.18,4.18,0,0,0,296,170a3.5,3.5,0,0,0,1.4-1.51v-2.21h-2.35a4.3,4.3,0,0,0-2.54.68,2,2,0,0,0-1,1.68,1.82,1.82,0,0,0,.59,1.4A2.33,2.33,0,0,0,293.8,170.56Z"/><path class="cls-2" d="M315.07,166.4a6.1,6.1,0,0,1-1.07,3.78,3.51,3.51,0,0,1-3,1.41,4.29,4.29,0,0,1-1.95-.42,3.53,3.53,0,0,1-1.36-1.2v5.48h-1.17V160.83h1l.15,1.64a3.75,3.75,0,0,1,1.36-1.36,3.89,3.89,0,0,1,2-.48,3.45,3.45,0,0,1,3,1.52,6.88,6.88,0,0,1,1.07,4Zm-1.17-.22a6.07,6.07,0,0,0-.8-3.28,2.6,2.6,0,0,0-2.34-1.27,3.08,3.08,0,0,0-1.92.56,3.46,3.46,0,0,0-1.11,1.46v5.08a3.2,3.2,0,0,0,1.16,1.37,3.37,3.37,0,0,0,1.89.5,2.65,2.65,0,0,0,2.33-1.15,5.3,5.3,0,0,0,.8-3.06Z"/><path class="cls-2" d="M322.56,161.83l-.87-.06a2.65,2.65,0,0,0-1.81.62,3.42,3.42,0,0,0-1,1.7v7.29h-1.17V160.83h1l.15,1.76v.12a3.79,3.79,0,0,1,1.23-1.52,3.09,3.09,0,0,1,1.84-.55,2.68,2.68,0,0,1,.43,0l.35.07Z"/><path class="cls-2" d="M328.29,171.6a4.24,4.24,0,0,1-3.3-1.46,5.35,5.35,0,0,1-1.31-3.71v-.54a5.51,5.51,0,0,1,1.3-3.76,4,4,0,0,1,3.16-1.49,3.91,3.91,0,0,1,3.06,1.23,4.7,4.7,0,0,1,1.11,3.28v1h-7.46v.28a4.66,4.66,0,0,0,.95,3,3,3,0,0,0,2.49,1.2,5.12,5.12,0,0,0,1.87-.3,3.66,3.66,0,0,0,1.32-.87l.5.8a4.24,4.24,0,0,1-1.51,1A5.76,5.76,0,0,1,328.29,171.6Zm-.15-10a2.8,2.8,0,0,0-2.18,1,4.25,4.25,0,0,0-1,2.48l0,0h6.19v-.29a3.36,3.36,0,0,0-.81-2.3A2.77,2.77,0,0,0,328.14,161.63Z"/><path class="cls-2" d="M335.61,160.83l.11,1.75a3.71,3.71,0,0,1,1.35-1.44,3.84,3.84,0,0,1,2-.51,3.38,3.38,0,0,1,2,.59,3.22,3.22,0,0,1,1.17,1.79,4,4,0,0,1,1.36-1.74,3.61,3.61,0,0,1,2.15-.63,3.18,3.18,0,0,1,2.61,1.12,5.44,5.44,0,0,1,.92,3.48v6.16h-1.17V165.2a4.3,4.3,0,0,0-.69-2.76,2.39,2.39,0,0,0-1.92-.81,2.64,2.64,0,0,0-2.1.85,4,4,0,0,0-.92,2.18s0,.11,0,.2,0,.15,0,.19v6.35h-1.18V165.2a4.26,4.26,0,0,0-.7-2.75,2.38,2.38,0,0,0-1.92-.83,2.9,2.9,0,0,0-2,.63,3.35,3.35,0,0,0-1,1.7v7.44h-1.18V160.83Z"/><path class="cls-2" d="M353.66,157.8h-1.16v-1.64h1.16Zm0,13.59h-1.16V160.83h1.16Z"/><path class="cls-2" d="M363.81,169.66a3.64,3.64,0,0,1-1.37,1.43,4,4,0,0,1-2,.5,3.23,3.23,0,0,1-2.62-1.13,5.41,5.41,0,0,1-.95-3.52v-6.12H358V167a4.56,4.56,0,0,0,.66,2.78,2.24,2.24,0,0,0,1.87.84,3.44,3.44,0,0,0,2.12-.6,3.1,3.1,0,0,0,1.1-1.64v-7.53h1.17v10.57h-1Z"/><path class="cls-2" d="M369,160.83l.11,1.75a3.71,3.71,0,0,1,1.35-1.44,3.84,3.84,0,0,1,2-.51,3.38,3.38,0,0,1,2,.59,3.22,3.22,0,0,1,1.17,1.79,4,4,0,0,1,1.36-1.74,3.61,3.61,0,0,1,2.15-.63,3.18,3.18,0,0,1,2.61,1.12,5.44,5.44,0,0,1,.92,3.48v6.16h-1.17V165.2a4.3,4.3,0,0,0-.69-2.76,2.39,2.39,0,0,0-1.92-.81,2.64,2.64,0,0,0-2.1.85,4,4,0,0,0-.92,2.18s0,.11,0,.2,0,.15,0,.19v6.35h-1.18V165.2a4.26,4.26,0,0,0-.7-2.75,2.38,2.38,0,0,0-1.92-.83,2.9,2.9,0,0,0-2,.63,3.35,3.35,0,0,0-1,1.7v7.44H368V160.83Z"/><path class="cls-2" d="M391.46,171.39v-9.61h-1.75v-1h1.75v-1.54a3.52,3.52,0,0,1,.8-2.46,2.87,2.87,0,0,1,2.23-.87,4.47,4.47,0,0,1,.65,0,6.52,6.52,0,0,1,.67.14l-.15,1-.48-.09a4.3,4.3,0,0,0-.58,0,1.8,1.8,0,0,0-1.46.61,2.57,2.57,0,0,0-.51,1.7v1.54h2.52v1h-2.52v9.61Z"/><path class="cls-2" d="M398.49,171.39h-1.16V156.16h1.16Z"/><path class="cls-2" d="M401.07,166a5.68,5.68,0,0,1,1.28-3.83,4.6,4.6,0,0,1,6.79,0,5.68,5.68,0,0,1,1.28,3.83v.32a5.69,5.69,0,0,1-1.27,3.83,4.62,4.62,0,0,1-6.79,0,5.68,5.68,0,0,1-1.28-3.83Zm1.17.32a5,5,0,0,0,.93,3.08,3.28,3.28,0,0,0,5.15,0,5,5,0,0,0,.93-3.08v-.32a5,5,0,0,0-.94-3.06,3.26,3.26,0,0,0-5.15,0,5,5,0,0,0-.93,3.06Z"/><path class="cls-2" d="M414.69,158.12v2.71H417v1h-2.32v6.88a2.25,2.25,0,0,0,.38,1.47,1.26,1.26,0,0,0,1,.43l.55,0,.62-.08.18.87a3,3,0,0,1-.71.2,5.24,5.24,0,0,1-.84.07,2.19,2.19,0,0,1-1.73-.7,3.32,3.32,0,0,1-.62-2.23v-6.88h-1.83v-1h1.83v-2.71Z"/><path class="cls-2" d="M426.19,171.39q-.12-.54-.17-.93a6.43,6.43,0,0,1,0-.79,4.66,4.66,0,0,1-1.56,1.38,4.42,4.42,0,0,1-2.2.55,3.32,3.32,0,0,1-2.4-.82,2.91,2.91,0,0,1-.85-2.2,2.72,2.72,0,0,1,1.26-2.34,5.88,5.88,0,0,1,3.41-.88H426V164a2.25,2.25,0,0,0-.73-1.78,3,3,0,0,0-2-.64,3.24,3.24,0,0,0-2,.62,1.84,1.84,0,0,0-.81,1.5H419.3l0-.06a2.53,2.53,0,0,1,1.08-2.11,4.42,4.42,0,0,1,2.9-.93,4.25,4.25,0,0,1,2.81.89,3.13,3.13,0,0,1,1.06,2.55v5.2a9.13,9.13,0,0,0,.06,1.08,6.79,6.79,0,0,0,.21,1Zm-3.84-.83a4.18,4.18,0,0,0,2.23-.59,3.5,3.5,0,0,0,1.4-1.51v-2.21h-2.35a4.3,4.3,0,0,0-2.54.68,2,2,0,0,0-1,1.68,1.82,1.82,0,0,0,.59,1.4A2.33,2.33,0,0,0,422.35,170.56Z"/><path class="cls-3" d="M123.08,201.85V189.49l10.7,6.18Z"/><path class="cls-2" d="M151.17,201.39H150l-8.08-12.23h-.06v12.22H140.7V187.17h1.17l8.08,12.21H150v-12.2h1.16Z"/><path class="cls-2" d="M158.54,201.6a4.24,4.24,0,0,1-3.3-1.46,5.35,5.35,0,0,1-1.31-3.71v-.54a5.51,5.51,0,0,1,1.3-3.76,4,4,0,0,1,3.16-1.49,3.91,3.91,0,0,1,3.06,1.23,4.7,4.7,0,0,1,1.11,3.28v1H155.1v.28a4.66,4.66,0,0,0,.95,3,3,3,0,0,0,2.49,1.2,5.12,5.12,0,0,0,1.87-.3,3.66,3.66,0,0,0,1.32-.87l.5.8a4.24,4.24,0,0,1-1.51,1A5.76,5.76,0,0,1,158.54,201.6Zm-.15-10a2.8,2.8,0,0,0-2.18,1,4.25,4.25,0,0,0-1,2.48l0,0h6.19v-.29a3.36,3.36,0,0,0-.81-2.3A2.77,2.77,0,0,0,158.4,191.63Z"/><path class="cls-2" d="M165.87,190.83l.11,1.75a3.71,3.71,0,0,1,1.35-1.44,3.84,3.84,0,0,1,2-.51,3.38,3.38,0,0,1,2,.59,3.22,3.22,0,0,1,1.17,1.79,4,4,0,0,1,1.36-1.74,3.61,3.61,0,0,1,2.15-.63,3.18,3.18,0,0,1,2.61,1.12,5.44,5.44,0,0,1,.92,3.48v6.16h-1.17V195.2a4.3,4.3,0,0,0-.69-2.76,2.39,2.39,0,0,0-1.92-.81,2.64,2.64,0,0,0-2.1.85,4,4,0,0,0-.92,2.18s0,.11,0,.2,0,.15,0,.19v6.35h-1.18V195.2a4.26,4.26,0,0,0-.7-2.75,2.38,2.38,0,0,0-1.92-.83,2.9,2.9,0,0,0-2,.63,3.35,3.35,0,0,0-1,1.7v7.44h-1.18V190.83Z"/><path class="cls-2" d="M189.29,201.39q-.12-.54-.17-.93a6.43,6.43,0,0,1,0-.79,4.66,4.66,0,0,1-1.56,1.38,4.42,4.42,0,0,1-2.2.55,3.32,3.32,0,0,1-2.4-.82,2.91,2.91,0,0,1-.85-2.2,2.72,2.72,0,0,1,1.26-2.34,5.88,5.88,0,0,1,3.41-.88h2.33V194a2.25,2.25,0,0,0-.73-1.78,3,3,0,0,0-2-.64,3.24,3.24,0,0,0-2,.62,1.84,1.84,0,0,0-.81,1.5h-1.07l0-.06a2.53,2.53,0,0,1,1.08-2.11,4.42,4.42,0,0,1,2.9-.93,4.25,4.25,0,0,1,2.81.89,3.13,3.13,0,0,1,1.06,2.55v5.2a9.13,9.13,0,0,0,.06,1.08,6.79,6.79,0,0,0,.21,1Zm-3.84-.83a4.18,4.18,0,0,0,2.23-.59,3.5,3.5,0,0,0,1.4-1.51v-2.21h-2.35a4.3,4.3,0,0,0-2.54.68,2,2,0,0,0-1,1.68,1.82,1.82,0,0,0,.59,1.4A2.33,2.33,0,0,0,185.46,200.56Z"/><path class="cls-2" d="M199.25,190.83l.11,1.85a3.77,3.77,0,0,1,1.37-1.51,3.82,3.82,0,0,1,2-.53,3.26,3.26,0,0,1,2.62,1,5,5,0,0,1,.9,3.28v6.44h-1.17V195a3.84,3.84,0,0,0-.68-2.57,2.46,2.46,0,0,0-1.93-.75,3,3,0,0,0-2,.65,3.62,3.62,0,0,0-1.12,1.73v7.39h-1.17V190.83Z"/><path class="cls-2" d="M213.32,201.6a4.24,4.24,0,0,1-3.3-1.46,5.35,5.35,0,0,1-1.31-3.71v-.54a5.51,5.51,0,0,1,1.3-3.76,4,4,0,0,1,3.16-1.49,3.91,3.91,0,0,1,3.06,1.23,4.7,4.7,0,0,1,1.11,3.28v1h-7.46v.28a4.66,4.66,0,0,0,.95,3,3,3,0,0,0,2.49,1.2,5.12,5.12,0,0,0,1.87-.3,3.66,3.66,0,0,0,1.32-.87l.5.8a4.24,4.24,0,0,1-1.51,1A5.76,5.76,0,0,1,213.32,201.6Zm-.15-10a2.8,2.8,0,0,0-2.18,1,4.25,4.25,0,0,0-1,2.48l0,0h6.19v-.29a3.36,3.36,0,0,0-.81-2.3A2.77,2.77,0,0,0,213.17,191.63Z"/><path class="cls-2" d="M228.16,196.4a6.1,6.1,0,0,1-1.07,3.78,3.51,3.51,0,0,1-3,1.41,4.29,4.29,0,0,1-1.95-.42,3.53,3.53,0,0,1-1.36-1.2v5.48h-1.17V190.83h1l.15,1.64a3.75,3.75,0,0,1,1.36-1.36,3.89,3.89,0,0,1,2-.48,3.45,3.45,0,0,1,3,1.52,6.88,6.88,0,0,1,1.07,4Zm-1.17-.22a6.07,6.07,0,0,0-.8-3.28,2.6,2.6,0,0,0-2.34-1.27,3.08,3.08,0,0,0-1.92.56,3.46,3.46,0,0,0-1.11,1.46v5.08A3.2,3.2,0,0,0,222,200.1a3.37,3.37,0,0,0,1.89.5,2.65,2.65,0,0,0,2.33-1.15,5.3,5.3,0,0,0,.8-3.06Z"/><path class="cls-2" d="M235.65,191.83l-.87-.06a2.65,2.65,0,0,0-1.81.62,3.42,3.42,0,0,0-1,1.7v7.29h-1.17V190.83h1l.15,1.76v.12a3.79,3.79,0,0,1,1.23-1.52,3.09,3.09,0,0,1,1.84-.55,2.68,2.68,0,0,1,.43,0l.35.07Z"/><path class="cls-2" d="M241.38,201.6a4.24,4.24,0,0,1-3.3-1.46,5.35,5.35,0,0,1-1.31-3.71v-.54a5.51,5.51,0,0,1,1.3-3.76,4,4,0,0,1,3.16-1.49,3.91,3.91,0,0,1,3.06,1.23,4.7,4.7,0,0,1,1.11,3.28v1h-7.46v.28a4.66,4.66,0,0,0,.95,3,3,3,0,0,0,2.49,1.2,5.12,5.12,0,0,0,1.87-.3,3.66,3.66,0,0,0,1.32-.87l.5.8a4.24,4.24,0,0,1-1.51,1A5.76,5.76,0,0,1,241.38,201.6Zm-.15-10a2.8,2.8,0,0,0-2.18,1,4.25,4.25,0,0,0-1,2.48l0,0h6.19v-.29a3.36,3.36,0,0,0-.81-2.3A2.77,2.77,0,0,0,241.23,191.63Z"/><path class="cls-2" d="M247.26,196.2a6.9,6.9,0,0,1,1.07-4,3.44,3.44,0,0,1,3-1.52,3.76,3.76,0,0,1,1.91.47,3.87,3.87,0,0,1,1.35,1.33v-6.27h1.16v15.23h-1l-.1-1.53a3.62,3.62,0,0,1-1.36,1.29,4,4,0,0,1-2,.45,3.51,3.51,0,0,1-3-1.41,6.12,6.12,0,0,1-1.07-3.78Zm1.17.21a5.4,5.4,0,0,0,.77,3.06,2.6,2.6,0,0,0,2.31,1.14,3.31,3.31,0,0,0,1.89-.51,3.38,3.38,0,0,0,1.18-1.41v-5a3.77,3.77,0,0,0-1.13-1.5,3,3,0,0,0-1.91-.57,2.54,2.54,0,0,0-2.32,1.27,6.26,6.26,0,0,0-.78,3.3Z"/><path class="cls-2" d="M261.86,198.75l.34,1.24h.06l.37-1.24,2.87-7.92h1.21l-4,10.57h-.94l-4-10.57h1.21Z"/><path class="cls-2" d="M269.94,187.8h-1.16v-1.64h1.16Zm0,13.59h-1.16V190.83h1.16Z"/><path class="cls-2" d="M272.72,196.2a6.9,6.9,0,0,1,1.07-4,3.44,3.44,0,0,1,3-1.52,3.76,3.76,0,0,1,1.91.47,3.87,3.87,0,0,1,1.35,1.33v-6.27h1.16v15.23h-1l-.1-1.53a3.62,3.62,0,0,1-1.36,1.29,4,4,0,0,1-2,.45,3.51,3.51,0,0,1-3-1.41,6.12,6.12,0,0,1-1.07-3.78Zm1.17.21a5.4,5.4,0,0,0,.77,3.06A2.6,2.6,0,0,0,277,200.6a3.31,3.31,0,0,0,1.89-.51,3.38,3.38,0,0,0,1.18-1.41v-5a3.77,3.77,0,0,0-1.13-1.5,3,3,0,0,0-1.91-.57,2.54,2.54,0,0,0-2.32,1.27,6.26,6.26,0,0,0-.78,3.3Z"/><path class="cls-2" d="M285.62,187.8h-1.16v-1.64h1.16Zm0,13.59h-1.16V190.83h1.16Z"/><path class="cls-2" d="M291.86,198.75l.34,1.24h.06l.37-1.24,2.87-7.92h1.21l-4,10.57h-.94l-4-10.57h1.21Z"/><path class="cls-2" d="M299.94,187.8h-1.16v-1.64h1.16Zm0,13.59h-1.16V190.83h1.16Z"/><path class="cls-2" d="M304.35,192.63a3.78,3.78,0,0,1,3.46-2,3.2,3.2,0,0,1,2.56,1,4.84,4.84,0,0,1,.89,3.21v6.51h-1.17v-6.55a3.64,3.64,0,0,0-.68-2.47,2.4,2.4,0,0,0-1.87-.75,3.15,3.15,0,0,0-2,.63,3.67,3.67,0,0,0-1.19,1.68v7.46h-1.17V186.16h1.17Z"/><path class="cls-2" d="M321,188.12v2.71h2.32v1H321v6.88a2.25,2.25,0,0,0,.38,1.47,1.26,1.26,0,0,0,1,.43l.55,0,.62-.08.18.87a3,3,0,0,1-.71.2,5.24,5.24,0,0,1-.84.07,2.19,2.19,0,0,1-1.73-.7,3.32,3.32,0,0,1-.62-2.23v-6.88H318v-1h1.83v-2.71Z"/><path class="cls-2" d="M330.68,191.83l-.87-.06a2.65,2.65,0,0,0-1.81.62,3.42,3.42,0,0,0-1,1.7v7.29h-1.17V190.83h1l.15,1.76v.12a3.79,3.79,0,0,1,1.23-1.52,3.09,3.09,0,0,1,1.84-.55,2.68,2.68,0,0,1,.43,0l.35.07Z"/><path class="cls-2" d="M331.77,196a5.68,5.68,0,0,1,1.28-3.83,4.6,4.6,0,0,1,6.79,0,5.68,5.68,0,0,1,1.28,3.83v.32a5.69,5.69,0,0,1-1.27,3.83,4.62,4.62,0,0,1-6.79,0,5.68,5.68,0,0,1-1.28-3.83Zm1.17.32a5,5,0,0,0,.93,3.08,3.28,3.28,0,0,0,5.15,0,5,5,0,0,0,.93-3.08v-.32a5,5,0,0,0-.94-3.06,3.26,3.26,0,0,0-5.15,0,5,5,0,0,0-.93,3.06Z"/><path class="cls-2" d="M349.88,198.7a1.7,1.7,0,0,0-.61-1.3,5,5,0,0,0-2.2-.91,7.39,7.39,0,0,1-2.8-1.08,2.24,2.24,0,0,1-.9-1.9,2.55,2.55,0,0,1,1-2,4.13,4.13,0,0,1,2.7-.83,4.24,4.24,0,0,1,2.83.88,2.64,2.64,0,0,1,1,2.21l0,.06h-1.08a2,2,0,0,0-.74-1.51,3.5,3.5,0,0,0-3.91-.1,1.65,1.65,0,0,0-.64,1.29,1.52,1.52,0,0,0,.55,1.21,5.39,5.39,0,0,0,2.2.84,7.18,7.18,0,0,1,2.82,1.15,2.38,2.38,0,0,1,.94,2,2.57,2.57,0,0,1-1.07,2.14,5.37,5.37,0,0,1-5.85-.1,2.6,2.6,0,0,1-1-2.19l0-.06h1.07a1.93,1.93,0,0,0,.93,1.65,3.9,3.9,0,0,0,2,.52,3.24,3.24,0,0,0,2-.56A1.64,1.64,0,0,0,349.88,198.7Zm-2.8-10.53,1.62-1.65h1.12v.17l-2.28,2.2h-.95l-2.27-2.2v-.17h1.11Z"/><path class="cls-2" d="M356.27,196.24h-1.35v5.16h-1.17V186.16h1.17v9.08h1.23l3.93-4.41h1.37l0,0-4.23,4.76,4.67,5.71,0,0h-1.34Z"/><path class="cls-2" d="M362.91,196a5.68,5.68,0,0,1,1.28-3.83,4.6,4.6,0,0,1,6.79,0,5.68,5.68,0,0,1,1.28,3.83v.32a5.69,5.69,0,0,1-1.27,3.83,4.62,4.62,0,0,1-6.79,0,5.68,5.68,0,0,1-1.28-3.83Zm1.17.32a5,5,0,0,0,.93,3.08,3.28,3.28,0,0,0,5.15,0,5,5,0,0,0,.93-3.08v-.32a5,5,0,0,0-.94-3.06,3.26,3.26,0,0,0-5.15,0,5,5,0,0,0-.93,3.06Z"/><path class="cls-2" d="M377.56,198.75l.34,1.24H378l.37-1.24,2.87-7.92h1.21l-4,10.57h-.94l-4-10.57h1.21Z"/><path class="cls-2" d="M390.89,201.39q-.12-.54-.17-.93a6.43,6.43,0,0,1,0-.79,4.66,4.66,0,0,1-1.56,1.38,4.42,4.42,0,0,1-2.2.55,3.32,3.32,0,0,1-2.4-.82,2.91,2.91,0,0,1-.85-2.2,2.72,2.72,0,0,1,1.26-2.34,5.88,5.88,0,0,1,3.41-.88h2.33V194a2.25,2.25,0,0,0-.73-1.78,3,3,0,0,0-2-.64,3.24,3.24,0,0,0-2,.62,1.84,1.84,0,0,0-.81,1.5H384l0-.06a2.53,2.53,0,0,1,1.08-2.11,4.42,4.42,0,0,1,2.9-.93,4.25,4.25,0,0,1,2.81.89,3.13,3.13,0,0,1,1.06,2.55v5.2a9.13,9.13,0,0,0,.06,1.08,6.79,6.79,0,0,0,.21,1Zm-3.84-.83a4.18,4.18,0,0,0,2.23-.59,3.5,3.5,0,0,0,1.4-1.51v-2.21h-2.35a4.3,4.3,0,0,0-2.54.68,2,2,0,0,0-1,1.68,1.82,1.82,0,0,0,.59,1.4A2.33,2.33,0,0,0,387.05,200.56Z"/><path class="cls-2" d="M63.34,268.89H51.2v-2.33L57,260.4A13.92,13.92,0,0,0,58.72,258a3.91,3.91,0,0,0,.52-1.82,2.75,2.75,0,0,0-.6-1.84,2.12,2.12,0,0,0-1.71-.71,2.22,2.22,0,0,0-1.87.84,3.57,3.57,0,0,0-.64,2.23H50.95l0-.07a5.37,5.37,0,0,1,1.58-4.07,5.93,5.93,0,0,1,4.42-1.67,6.17,6.17,0,0,1,4.32,1.43,4.9,4.9,0,0,1,1.57,3.81,5.35,5.35,0,0,1-.88,3A29.4,29.4,0,0,1,59,262.64l-3.16,3.44,0,.06h7.47Z"/><path class="cls-2" d="M76,262.29h2V265H76v3.86H72.44V265H65.19L65,262.9l7.37-11.78H76Zm-7.64,0h4.09v-6.41l-.07,0-.28.5Z"/><path class="cls-2" d="M82,270.42H78.51L85,251.12H88.5Z"/><path class="cls-2" d="M102,253.86a20.83,20.83,0,0,0-3.9,6.24,30.64,30.64,0,0,0-1.5,7l-.17,1.81H92.91l.17-1.81a25.61,25.61,0,0,1,1.78-7.2,22.23,22.23,0,0,1,3.75-6H89.48v-2.75H102Z"/><path class="cls-2" d="M106.39,270.42h-3.47l6.52-19.3h3.47Z"/><path class="cls-2" d="M118,258.49h2a2.43,2.43,0,0,0,1.88-.67,2.63,2.63,0,0,0,.61-1.85,2.41,2.41,0,0,0-.61-1.72,2.32,2.32,0,0,0-1.77-.65,2.5,2.5,0,0,0-1.69.59,1.93,1.93,0,0,0-.68,1.54h-3.45l0-.07a4,4,0,0,1,1.6-3.44,6.38,6.38,0,0,1,4.15-1.35,6.83,6.83,0,0,1,4.4,1.32,4.55,4.55,0,0,1,1.64,3.76,3.77,3.77,0,0,1-.73,2.2,4.87,4.87,0,0,1-2,1.63,4.54,4.54,0,0,1,2.25,1.61,4.24,4.24,0,0,1,.77,2.53,4.62,4.62,0,0,1-1.78,3.84,7.13,7.13,0,0,1-4.55,1.4,7,7,0,0,1-4.25-1.31,4.19,4.19,0,0,1-1.71-3.71l0-.07h3.46a2.17,2.17,0,0,0,.73,1.68,2.66,2.66,0,0,0,1.86.66,2.7,2.7,0,0,0,1.95-.68,2.44,2.44,0,0,0,.71-1.85,2.68,2.68,0,0,0-.7-2.05,2.94,2.94,0,0,0-2.07-.65h-2Z"/><path class="cls-2" d="M135.86,250.86a8.52,8.52,0,0,1,1.85.19,9.71,9.71,0,0,1,1.7.56l-.63,2.61a13.09,13.09,0,0,0-1.43-.42,6.74,6.74,0,0,0-1.46-.14,3.19,3.19,0,0,0-2.61,1.21,4.92,4.92,0,0,0-.91,3.36l0,.06a4.14,4.14,0,0,1,1.51-1A5.69,5.69,0,0,1,136,257a4.51,4.51,0,0,1,3.73,1.69,6.71,6.71,0,0,1,1.35,4.31,6.16,6.16,0,0,1-1.67,4.43,5.7,5.7,0,0,1-4.32,1.75,6,6,0,0,1-4.59-1.91,7.49,7.49,0,0,1-1.77-5.29v-3.47a7.61,7.61,0,0,1,2-5.55A6.86,6.86,0,0,1,135.86,250.86Zm-.82,8.8a4,4,0,0,0-1.68.32,2.54,2.54,0,0,0-1.07.87V262a5.78,5.78,0,0,0,.76,3.24,2.34,2.34,0,0,0,2,1.13,2,2,0,0,0,1.76-1,4.31,4.31,0,0,0,.67-2.43,3.94,3.94,0,0,0-.67-2.39A2.12,2.12,0,0,0,135,259.66Z"/><path class="cls-2" d="M143.51,261l1-9.9h9.91V254h-7l-.49,4.1a4.26,4.26,0,0,1,1.18-.6,5.57,5.57,0,0,1,5.51,1.3,6.43,6.43,0,0,1,1.41,4.42,6.09,6.09,0,0,1-1.54,4.26,5.71,5.71,0,0,1-4.45,1.7,6.68,6.68,0,0,1-4.2-1.34,4.24,4.24,0,0,1-1.68-3.69l0-.06,3.43-.17a2.49,2.49,0,0,0,.67,1.85,2.39,2.39,0,0,0,1.76.67,2.06,2.06,0,0,0,1.84-.88,4.08,4.08,0,0,0,.59-2.31,4.28,4.28,0,0,0-.63-2.46,2.13,2.13,0,0,0-1.88-.93,2.73,2.73,0,0,0-1.57.38,2.07,2.07,0,0,0-.78,1Z"/><path class="cls-3" d="M123.08,329.35V317l10.7,6.18Z"/><path class="cls-2" d="M143.82,322.21h-2v6.68H140.7V314.67h1.16v6.54h1.94l5.6-6.54h1.32l0,0-5.88,6.95,6.3,7.17,0,0h-1.39Z"/><path class="cls-2" d="M152.24,323.45a5.68,5.68,0,0,1,1.28-3.83,4.6,4.6,0,0,1,6.79,0,5.68,5.68,0,0,1,1.28,3.83v.32a5.69,5.69,0,0,1-1.27,3.83,4.62,4.62,0,0,1-6.79,0,5.68,5.68,0,0,1-1.28-3.83Zm1.17.32a5,5,0,0,0,.93,3.08,3.28,3.28,0,0,0,5.15,0,5,5,0,0,0,.93-3.08v-.32a5,5,0,0,0-.94-3.06,3.26,3.26,0,0,0-5.15,0,5,5,0,0,0-.93,3.06Z"/><path class="cls-2" d="M168.89,319.33l-.87-.06a2.65,2.65,0,0,0-1.81.62,3.42,3.42,0,0,0-1,1.7v7.29H164V318.33h1l.15,1.76v.12a3.79,3.79,0,0,1,1.23-1.52,3.09,3.09,0,0,1,1.84-.55,2.74,2.74,0,0,1,.43,0l.35.07Z"/><path class="cls-2" d="M172.14,315.3H171v-1.64h1.16Zm0,13.59H171V318.33h1.16Z"/><path class="cls-2" d="M181.7,326.2a1.7,1.7,0,0,0-.61-1.3,5,5,0,0,0-2.2-.91,7.39,7.39,0,0,1-2.8-1.08,2.24,2.24,0,0,1-.9-1.9,2.55,2.55,0,0,1,1-2,4.13,4.13,0,0,1,2.7-.83,4.25,4.25,0,0,1,2.83.88,2.64,2.64,0,0,1,1,2.21l0,.06h-1.08a2,2,0,0,0-.74-1.51,3.5,3.5,0,0,0-3.91-.1,1.65,1.65,0,0,0-.64,1.29,1.52,1.52,0,0,0,.55,1.21,5.38,5.38,0,0,0,2.2.84,7.2,7.2,0,0,1,2.82,1.15,2.38,2.38,0,0,1,.94,2,2.57,2.57,0,0,1-1.07,2.14,5.37,5.37,0,0,1-5.85-.1,2.6,2.6,0,0,1-1-2.19l0-.06H176a1.92,1.92,0,0,0,.93,1.65,3.9,3.9,0,0,0,2,.52,3.24,3.24,0,0,0,2-.56A1.64,1.64,0,0,0,181.7,326.2Z"/><path class="cls-2" d="M186.59,318.33l.11,1.85a3.76,3.76,0,0,1,1.37-1.51,3.83,3.83,0,0,1,2-.53,3.25,3.25,0,0,1,2.62,1,5,5,0,0,1,.9,3.28v6.44h-1.17v-6.44a3.84,3.84,0,0,0-.68-2.57,2.46,2.46,0,0,0-1.93-.75,3,3,0,0,0-2,.65,3.62,3.62,0,0,0-1.12,1.73v7.39h-1.17V318.33Z"/><path class="cls-2" d="M198,315.3h-1.16v-1.64H198Zm0,13.59h-1.16V318.33H198Z"/><path class="cls-2" d="M205.15,328.1a3.35,3.35,0,0,0,2.05-.66,2.16,2.16,0,0,0,.89-1.84h1l0,.06a2.9,2.9,0,0,1-1.17,2.45,4.36,4.36,0,0,1-2.82,1,4,4,0,0,1-3.33-1.48,5.92,5.92,0,0,1-1.18-3.8v-.41a5.89,5.89,0,0,1,1.18-3.79,4,4,0,0,1,3.32-1.48,4.21,4.21,0,0,1,2.9,1,3.32,3.32,0,0,1,1.12,2.7l0,.06h-1a2.57,2.57,0,0,0-.85-2,3,3,0,0,0-2.09-.76,2.82,2.82,0,0,0-2.51,1.21,5.37,5.37,0,0,0-.82,3.06v.41a5.43,5.43,0,0,0,.81,3.08A2.83,2.83,0,0,0,205.15,328.1ZM205,315.67l1.62-1.65h1.12v.17l-2.28,2.2h-.95l-2.27-2.2V314h1.11Z"/><path class="cls-2" d="M214.12,323.74h-1.35v5.16H211.6V313.66h1.17v9.08H214l3.93-4.41h1.37l0,0-4.23,4.76,4.67,5.71,0,0h-1.34Z"/><path class="cls-2" d="M228.11,328.89c-.08-.36-.13-.67-.17-.93a6.44,6.44,0,0,1,0-.79,4.65,4.65,0,0,1-1.56,1.38,4.42,4.42,0,0,1-2.2.55,3.32,3.32,0,0,1-2.4-.82,2.91,2.91,0,0,1-.85-2.2,2.72,2.72,0,0,1,1.26-2.34,5.88,5.88,0,0,1,3.41-.88h2.33v-1.31a2.25,2.25,0,0,0-.73-1.78,3,3,0,0,0-2-.64,3.24,3.24,0,0,0-2,.62,1.84,1.84,0,0,0-.81,1.5h-1.07l0-.06a2.53,2.53,0,0,1,1.08-2.11,4.42,4.42,0,0,1,2.9-.93A4.24,4.24,0,0,1,228,319a3.13,3.13,0,0,1,1.06,2.55v5.2a9.13,9.13,0,0,0,.06,1.08,6.78,6.78,0,0,0,.21,1Zm-3.84-.83a4.19,4.19,0,0,0,2.23-.59,3.5,3.5,0,0,0,1.4-1.51v-2.21h-2.35a4.3,4.3,0,0,0-2.54.68,2,2,0,0,0-1,1.68,1.82,1.82,0,0,0,.59,1.4A2.33,2.33,0,0,0,224.27,328.06Z"/><path class="cls-2" d="M245.54,323.9a6.1,6.1,0,0,1-1.07,3.78,3.51,3.51,0,0,1-3,1.41,4.28,4.28,0,0,1-1.95-.42,3.54,3.54,0,0,1-1.36-1.2V333H237V318.33h1l.15,1.64a3.76,3.76,0,0,1,1.36-1.36,3.89,3.89,0,0,1,2-.48,3.45,3.45,0,0,1,3,1.52,6.88,6.88,0,0,1,1.07,4Zm-1.17-.22a6.07,6.07,0,0,0-.8-3.29,2.6,2.6,0,0,0-2.34-1.27,3.08,3.08,0,0,0-1.92.56,3.45,3.45,0,0,0-1.11,1.46v5.08a3.2,3.2,0,0,0,1.16,1.37,3.37,3.37,0,0,0,1.89.5,2.65,2.65,0,0,0,2.33-1.15,5.3,5.3,0,0,0,.8-3.06Z"/><path class="cls-2" d="M247.51,323.45a5.68,5.68,0,0,1,1.28-3.83,4.6,4.6,0,0,1,6.79,0,5.68,5.68,0,0,1,1.28,3.83v.32a5.69,5.69,0,0,1-1.27,3.83,4.62,4.62,0,0,1-6.79,0,5.68,5.68,0,0,1-1.28-3.83Zm1.17.32a5,5,0,0,0,.93,3.08,3.28,3.28,0,0,0,5.15,0,5,5,0,0,0,.93-3.08v-.32a5,5,0,0,0-.94-3.06,3.26,3.26,0,0,0-5.15,0,5,5,0,0,0-.93,3.06Z"/><path class="cls-2" d="M258.84,323.7a6.9,6.9,0,0,1,1.07-4,3.44,3.44,0,0,1,3-1.52,3.76,3.76,0,0,1,1.91.47,3.87,3.87,0,0,1,1.35,1.33v-6.27h1.16v15.23h-1l-.1-1.53a3.63,3.63,0,0,1-1.36,1.29,4,4,0,0,1-2,.45,3.51,3.51,0,0,1-3-1.41,6.11,6.11,0,0,1-1.07-3.78Zm1.17.21a5.4,5.4,0,0,0,.77,3.06,2.6,2.6,0,0,0,2.31,1.14,3.31,3.31,0,0,0,1.89-.51,3.37,3.37,0,0,0,1.18-1.41v-5a3.76,3.76,0,0,0-1.13-1.5,3,3,0,0,0-1.91-.57,2.54,2.54,0,0,0-2.32,1.27,6.25,6.25,0,0,0-.78,3.3Z"/><path class="cls-2" d="M275.29,319.33l-.87-.06a2.65,2.65,0,0,0-1.81.62,3.42,3.42,0,0,0-1,1.7v7.29h-1.17V318.33h1l.15,1.76v.12a3.79,3.79,0,0,1,1.23-1.52,3.09,3.09,0,0,1,1.84-.55,2.74,2.74,0,0,1,.43,0l.35.07Z"/><path class="cls-2" d="M283.57,326.2a1.7,1.7,0,0,0-.61-1.3,5,5,0,0,0-2.2-.91,7.39,7.39,0,0,1-2.8-1.08,2.24,2.24,0,0,1-.9-1.9,2.55,2.55,0,0,1,1-2,4.13,4.13,0,0,1,2.7-.83,4.25,4.25,0,0,1,2.83.88,2.64,2.64,0,0,1,1,2.21l0,.06H283.5a2,2,0,0,0-.74-1.51,3.5,3.5,0,0,0-3.91-.1,1.65,1.65,0,0,0-.64,1.29,1.52,1.52,0,0,0,.55,1.21,5.38,5.38,0,0,0,2.2.84,7.2,7.2,0,0,1,2.82,1.15,2.38,2.38,0,0,1,.94,2,2.57,2.57,0,0,1-1.07,2.14,5.37,5.37,0,0,1-5.85-.1,2.6,2.6,0,0,1-1-2.19l0-.06h1.07a1.92,1.92,0,0,0,.93,1.65,3.9,3.9,0,0,0,2,.52,3.24,3.24,0,0,0,2-.56A1.64,1.64,0,0,0,283.57,326.2Zm-2.8-10.53,1.62-1.65h1.12v.17l-2.28,2.2h-.95l-2.27-2.2V314h1.11Z"/><path class="cls-2" d="M290,323.74H288.6v5.16h-1.17V313.66h1.17v9.08h1.23l3.93-4.41h1.37l0,0-4.23,4.76,4.67,5.71,0,0h-1.34Z"/><path class="cls-2" d="M303.94,328.89c-.08-.36-.13-.67-.17-.93a6.44,6.44,0,0,1,0-.79,4.65,4.65,0,0,1-1.56,1.38,4.42,4.42,0,0,1-2.2.55,3.32,3.32,0,0,1-2.4-.82,2.91,2.91,0,0,1-.85-2.2,2.72,2.72,0,0,1,1.26-2.34,5.88,5.88,0,0,1,3.41-.88h2.33v-1.31a2.25,2.25,0,0,0-.73-1.78,3,3,0,0,0-2-.64,3.24,3.24,0,0,0-2,.62,1.84,1.84,0,0,0-.81,1.5h-1.07l0-.06a2.53,2.53,0,0,1,1.08-2.11,4.42,4.42,0,0,1,2.9-.93,4.24,4.24,0,0,1,2.81.89,3.13,3.13,0,0,1,1.06,2.55v5.2a9.13,9.13,0,0,0,.06,1.08,6.78,6.78,0,0,0,.21,1Zm-3.84-.83a4.19,4.19,0,0,0,2.23-.59,3.5,3.5,0,0,0,1.4-1.51v-2.21h-2.35a4.3,4.3,0,0,0-2.54.68,2,2,0,0,0-1,1.68,1.82,1.82,0,0,0,.59,1.4A2.33,2.33,0,0,0,300.1,328.06Z"/><path class="cls-2" d="M321.49,328.89h-8.83V328l4.66-5.27a14.09,14.09,0,0,0,1.82-2.44,4,4,0,0,0,.53-1.88,3,3,0,0,0-.75-2.13,2.75,2.75,0,0,0-2.11-.8,3.21,3.21,0,0,0-2.46.9,3.38,3.38,0,0,0-.84,2.4h-1.08l0-.06a4,4,0,0,1,1.15-3,4.34,4.34,0,0,1,3.25-1.23,4.08,4.08,0,0,1,2.94,1.05,3.74,3.74,0,0,1,1.1,2.83,4.54,4.54,0,0,1-.74,2.38,19.45,19.45,0,0,1-2.06,2.69l-3.92,4.42,0,0h7.32Z"/><path class="cls-2" d="M330.91,324.31h2.23v1h-2.23v3.58h-1.16v-3.58h-6.67v-.67l6.55-10h1.28Zm-6.45,0h5.28v-8.11l-.06,0-.5,1.06Z"/><path class="cls-2" d="M334.84,330.11h-1.06l5.94-15.44h1.05Z"/><path class="cls-2" d="M351.5,315.67a20.86,20.86,0,0,0-5.16,12l-.11,1.19h-1.17l.11-1.19a22.39,22.39,0,0,1,1.7-6.54,23.33,23.33,0,0,1,3.42-5.49h-8.12v-1h9.33Z"/><path class="cls-2" d="M353.87,330.11H352.8l5.94-15.44h1.05Z"/><path class="cls-2" d="M364.39,321.15h1.36a3.25,3.25,0,0,0,2.35-.78,2.66,2.66,0,0,0,.8-2,2.68,2.68,0,0,0-3-2.91,3.18,3.18,0,0,0-2.24.81,2.75,2.75,0,0,0-.87,2.12H361.7l0-.06a3.44,3.44,0,0,1,1.16-2.76,4.38,4.38,0,0,1,3.07-1.1,4.29,4.29,0,0,1,3,1,3.76,3.76,0,0,1,1.13,2.9,3.21,3.21,0,0,1-.62,1.89,3.69,3.69,0,0,1-1.76,1.31,3.58,3.58,0,0,1,2,1.28,3.52,3.52,0,0,1,.66,2.13,3.77,3.77,0,0,1-1.23,3A4.58,4.58,0,0,1,366,329.1a5,5,0,0,1-3.2-1.06,3.42,3.42,0,0,1-1.29-2.94l0-.06h1.09a2.85,2.85,0,0,0,.94,2.21,3.48,3.48,0,0,0,2.44.86,3.35,3.35,0,0,0,2.36-.79,2.9,2.9,0,0,0,.85-2.25,2.67,2.67,0,0,0-.89-2.21,4,4,0,0,0-2.54-.72h-1.36Z"/><path class="cls-2" d="M377.85,314.47a6.37,6.37,0,0,1,1.45.17,4.8,4.8,0,0,1,1.27.48l-.3,1a4.81,4.81,0,0,0-1.1-.46,5.11,5.11,0,0,0-1.31-.15,3.29,3.29,0,0,0-2.62,1.23,4.84,4.84,0,0,0-1,3.23v1.26a4.3,4.3,0,0,1,1.49-1.22,4.4,4.4,0,0,1,2-.46,3.75,3.75,0,0,1,3,1.32,5.15,5.15,0,0,1,1.11,3.44,5.07,5.07,0,0,1-1.2,3.47,3.94,3.94,0,0,1-3.11,1.37,4.1,4.1,0,0,1-3.24-1.46,5.91,5.91,0,0,1-1.27-4V320a5.78,5.78,0,0,1,1.4-4A4.44,4.44,0,0,1,377.85,314.47Zm-.39,6a3.53,3.53,0,0,0-2.07.61,3.08,3.08,0,0,0-1.21,1.58v1a5,5,0,0,0,.94,3.22,2.94,2.94,0,0,0,2.4,1.18,2.73,2.73,0,0,0,2.28-1.12,4.36,4.36,0,0,0,.85-2.73,4.29,4.29,0,0,0-.83-2.75A2.85,2.85,0,0,0,377.46,320.46Z"/><path class="cls-2" d="M384.46,322.46l.79-7.78h6.9v1.08h-5.91l-.53,5.07a4,4,0,0,1,1.18-.75,5.09,5.09,0,0,1,1.75-.29,3.65,3.65,0,0,1,2.93,1.22,4.87,4.87,0,0,1,1.11,3.36,5.2,5.2,0,0,1-1.08,3.45,4,4,0,0,1-3.25,1.29,4.41,4.41,0,0,1-2.93-1,3.45,3.45,0,0,1-1.12-2.91l0-.06h1a2.85,2.85,0,0,0,.82,2.19,3.06,3.06,0,0,0,2.17.76,2.89,2.89,0,0,0,2.37-1,4.26,4.26,0,0,0,.79-2.77,3.9,3.9,0,0,0-.79-2.55,2.69,2.69,0,0,0-2.2-1,4.07,4.07,0,0,0-2.08.43,2.47,2.47,0,0,0-1,1.31Z"/><path class="cls-3" d="M123.08,359.35V347l10.7,6.18Z"/><path class="cls-2" d="M140.7,358.89V344.67h4.13a5.77,5.77,0,0,1,4.31,1.74,6.12,6.12,0,0,1,1.7,4.46v1.83a6.1,6.1,0,0,1-1.7,4.46,5.78,5.78,0,0,1-4.31,1.73Zm1.16-13.22V357.9h3a4.52,4.52,0,0,0,3.47-1.47,5.28,5.28,0,0,0,1.36-3.73v-1.85a5.23,5.23,0,0,0-1.37-3.7,4.52,4.52,0,0,0-3.47-1.47Z"/><path class="cls-2" d="M152.85,353.45a5.68,5.68,0,0,1,1.28-3.83,4.6,4.6,0,0,1,6.79,0,5.68,5.68,0,0,1,1.28,3.83v.32a5.69,5.69,0,0,1-1.27,3.83,4.62,4.62,0,0,1-6.79,0,5.68,5.68,0,0,1-1.28-3.83Zm1.17.32a5,5,0,0,0,.93,3.08,3.28,3.28,0,0,0,5.15,0,5,5,0,0,0,.93-3.08v-.32a5,5,0,0,0-.94-3.06,3.26,3.26,0,0,0-5.15,0,5,5,0,0,0-.93,3.06Z"/><path class="cls-2" d="M164.18,353.7a6.9,6.9,0,0,1,1.07-4,3.44,3.44,0,0,1,3-1.52,3.76,3.76,0,0,1,1.91.47,3.87,3.87,0,0,1,1.35,1.33v-6.27h1.16v15.23h-1l-.1-1.53a3.63,3.63,0,0,1-1.36,1.29,4,4,0,0,1-2,.45,3.51,3.51,0,0,1-3-1.41,6.11,6.11,0,0,1-1.07-3.78Zm1.17.21a5.4,5.4,0,0,0,.77,3.06,2.6,2.6,0,0,0,2.31,1.14,3.31,3.31,0,0,0,1.89-.51,3.37,3.37,0,0,0,1.18-1.41v-5a3.76,3.76,0,0,0-1.13-1.5,3,3,0,0,0-1.91-.57,2.54,2.54,0,0,0-2.32,1.27,6.25,6.25,0,0,0-.78,3.3Z"/><path class="cls-2" d="M177.08,345.3h-1.16v-1.64h1.16Zm0,13.59h-1.16V348.33h1.16Z"/><path class="cls-2" d="M181.69,348.33v11.44a3.68,3.68,0,0,1-.78,2.51,2.74,2.74,0,0,1-2.17.88,3,3,0,0,1-.55,0,4.79,4.79,0,0,1-.54-.14l.13-1,.43.1a2.8,2.8,0,0,0,.48,0,1.65,1.65,0,0,0,1.36-.6,2.76,2.76,0,0,0,.49-1.77V348.33Zm-.06-3.07h-1.16v-1.6h1.16Z"/><path class="cls-2" d="M189,359.1a4.24,4.24,0,0,1-3.3-1.46,5.35,5.35,0,0,1-1.31-3.71v-.54a5.51,5.51,0,0,1,1.3-3.76,4,4,0,0,1,3.16-1.49,3.91,3.91,0,0,1,3.06,1.23,4.7,4.7,0,0,1,1.11,3.28v1h-7.46v.28a4.66,4.66,0,0,0,.95,3,3,3,0,0,0,2.49,1.2,5.11,5.11,0,0,0,1.87-.3,3.66,3.66,0,0,0,1.32-.87l.5.8a4.24,4.24,0,0,1-1.51,1A5.76,5.76,0,0,1,189,359.1Zm-.15-10a2.8,2.8,0,0,0-2.18,1,4.25,4.25,0,0,0-1,2.48l0,0h6.19v-.29a3.36,3.36,0,0,0-.81-2.3A2.77,2.77,0,0,0,188.85,349.13Z"/><path class="cls-2" d="M196.65,358.89h-1.16V343.66h1.16Z"/><path class="cls-2" d="M201.26,348.33v11.44a3.68,3.68,0,0,1-.78,2.51,2.74,2.74,0,0,1-2.17.88,3,3,0,0,1-.55,0,4.79,4.79,0,0,1-.54-.14l.13-1,.43.1a2.8,2.8,0,0,0,.48,0,1.65,1.65,0,0,0,1.36-.6,2.76,2.76,0,0,0,.49-1.77V348.33Zm-.06-3.07H200v-1.6h1.16Z"/><path class="cls-2" d="M208.57,359.1a4.24,4.24,0,0,1-3.3-1.46,5.35,5.35,0,0,1-1.31-3.71v-.54a5.51,5.51,0,0,1,1.3-3.76,4,4,0,0,1,3.16-1.49,3.91,3.91,0,0,1,3.06,1.23,4.7,4.7,0,0,1,1.11,3.28v1h-7.46v.28a4.66,4.66,0,0,0,.95,3,3,3,0,0,0,2.49,1.2,5.11,5.11,0,0,0,1.87-.3,3.66,3.66,0,0,0,1.32-.87l.5.8a4.24,4.24,0,0,1-1.51,1A5.76,5.76,0,0,1,208.57,359.1Zm-.15-10a2.8,2.8,0,0,0-2.18,1,4.25,4.25,0,0,0-1,2.48l0,0h6.19v-.29a3.36,3.36,0,0,0-.81-2.3A2.77,2.77,0,0,0,208.42,349.13Z"/><path class="cls-2" d="M215.94,348.33l.11,1.85a3.76,3.76,0,0,1,1.37-1.51,3.83,3.83,0,0,1,2-.53,3.25,3.25,0,0,1,2.62,1,5,5,0,0,1,.9,3.28v6.44h-1.17v-6.44a3.84,3.84,0,0,0-.68-2.57,2.46,2.46,0,0,0-1.93-.75,3,3,0,0,0-2,.65,3.62,3.62,0,0,0-1.12,1.73v7.39h-1.17V348.33Z"/><path class="cls-2" d="M227.35,345.3h-1.16v-1.64h1.16Zm0,13.59h-1.16V348.33h1.16Z"/><path class="cls-2" d="M238,353.74h-1.35v5.16h-1.17V343.66h1.17v9.08h1.23l3.93-4.41h1.37l0,0-4.23,4.76,4.67,5.71,0,0h-1.34Z"/><path class="cls-2" d="M249,359.1a4.24,4.24,0,0,1-3.3-1.46,5.35,5.35,0,0,1-1.31-3.71v-.54a5.51,5.51,0,0,1,1.3-3.76,4,4,0,0,1,3.16-1.49,3.91,3.91,0,0,1,3.06,1.23,4.7,4.7,0,0,1,1.11,3.28v1H245.6v.28a4.66,4.66,0,0,0,.95,3,3,3,0,0,0,2.49,1.2,5.11,5.11,0,0,0,1.87-.3,3.66,3.66,0,0,0,1.32-.87l.5.8a4.24,4.24,0,0,1-1.51,1A5.76,5.76,0,0,1,249,359.1Zm-.15-10a2.8,2.8,0,0,0-2.18,1,4.25,4.25,0,0,0-1,2.48l0,0h6.19v-.29a3.36,3.36,0,0,0-.81-2.3A2.77,2.77,0,0,0,248.89,349.13Z"/><path class="cls-2" d="M258.25,356l.37,1.26h.06l3.19-9h1.31l-4.59,12.26a6,6,0,0,1-1.06,1.83,2.4,2.4,0,0,1-1.91.75,3.44,3.44,0,0,1-.5,0,2.51,2.51,0,0,1-.43-.09l.14-1,.38,0,.38,0a1.52,1.52,0,0,0,1.22-.54,4.74,4.74,0,0,0,.78-1.39l.56-1.43-4.08-10.43h1.3Z"/><path class="cls-2" d="M276.59,358.89c-.08-.36-.13-.67-.17-.93a6.44,6.44,0,0,1,0-.79,4.65,4.65,0,0,1-1.56,1.38,4.42,4.42,0,0,1-2.2.55,3.32,3.32,0,0,1-2.4-.82,2.91,2.91,0,0,1-.85-2.2,2.72,2.72,0,0,1,1.26-2.34,5.88,5.88,0,0,1,3.41-.88h2.33v-1.31a2.25,2.25,0,0,0-.73-1.78,3,3,0,0,0-2-.64,3.24,3.24,0,0,0-2,.62,1.84,1.84,0,0,0-.81,1.5h-1.07l0-.06a2.53,2.53,0,0,1,1.08-2.11,4.42,4.42,0,0,1,2.9-.93,4.24,4.24,0,0,1,2.81.89,3.13,3.13,0,0,1,1.06,2.55v5.2a9.13,9.13,0,0,0,.06,1.08,6.78,6.78,0,0,0,.21,1Zm-3.84-.83a4.19,4.19,0,0,0,2.23-.59,3.5,3.5,0,0,0,1.4-1.51v-2.21H274a4.3,4.3,0,0,0-2.54.68,2,2,0,0,0-1,1.68,1.82,1.82,0,0,0,.59,1.4A2.33,2.33,0,0,0,272.75,358.06Z"/><path class="cls-2" d="M284.57,358.1a3.35,3.35,0,0,0,2.05-.66,2.16,2.16,0,0,0,.89-1.84h1l0,.06a2.9,2.9,0,0,1-1.17,2.45,4.36,4.36,0,0,1-2.82,1,4,4,0,0,1-3.33-1.48,5.92,5.92,0,0,1-1.18-3.8v-.41a5.89,5.89,0,0,1,1.18-3.79,4,4,0,0,1,3.32-1.48,4.21,4.21,0,0,1,2.9,1,3.32,3.32,0,0,1,1.12,2.7l0,.06h-1a2.57,2.57,0,0,0-.85-2,3,3,0,0,0-2.09-.76,2.82,2.82,0,0,0-2.51,1.21,5.37,5.37,0,0,0-.82,3.06v.41a5.43,5.43,0,0,0,.81,3.08A2.83,2.83,0,0,0,284.57,358.1Z"/><path class="cls-2" d="M294.93,358.1a3.35,3.35,0,0,0,2.05-.66,2.16,2.16,0,0,0,.89-1.84h1l0,.06a2.9,2.9,0,0,1-1.17,2.45,4.36,4.36,0,0,1-2.82,1,4,4,0,0,1-3.33-1.48,5.92,5.92,0,0,1-1.18-3.8v-.41a5.89,5.89,0,0,1,1.18-3.79,4,4,0,0,1,3.32-1.48,4.21,4.21,0,0,1,2.9,1,3.32,3.32,0,0,1,1.12,2.7l0,.06h-1a2.57,2.57,0,0,0-.85-2,3,3,0,0,0-2.09-.76,2.82,2.82,0,0,0-2.51,1.21,5.37,5.37,0,0,0-.82,3.06v.41a5.43,5.43,0,0,0,.81,3.08A2.83,2.83,0,0,0,294.93,358.1Z"/><path class="cls-2" d="M300.72,353.45a5.68,5.68,0,0,1,1.28-3.83,4.6,4.6,0,0,1,6.79,0,5.68,5.68,0,0,1,1.28,3.83v.32a5.69,5.69,0,0,1-1.27,3.83,4.62,4.62,0,0,1-6.79,0,5.68,5.68,0,0,1-1.28-3.83Zm1.17.32a5,5,0,0,0,.93,3.08,3.28,3.28,0,0,0,5.15,0,5,5,0,0,0,.93-3.08v-.32a5,5,0,0,0-.94-3.06,3.26,3.26,0,0,0-5.15,0,5,5,0,0,0-.93,3.06Z"/><path class="cls-2" d="M319.43,357.16a3.64,3.64,0,0,1-1.37,1.43,4,4,0,0,1-2,.5,3.23,3.23,0,0,1-2.62-1.13,5.41,5.41,0,0,1-.95-3.52v-6.12h1.17v6.16a4.56,4.56,0,0,0,.66,2.78,2.24,2.24,0,0,0,1.87.84,3.44,3.44,0,0,0,2.12-.6,3.1,3.1,0,0,0,1.1-1.64v-7.53h1.17v10.57h-1Z"/><path class="cls-2" d="M324.68,348.33l.11,1.85a3.76,3.76,0,0,1,1.37-1.51,3.83,3.83,0,0,1,2-.53,3.25,3.25,0,0,1,2.62,1,5,5,0,0,1,.9,3.28v6.44h-1.17v-6.44a3.84,3.84,0,0,0-.68-2.57,2.46,2.46,0,0,0-1.93-.75,3,3,0,0,0-2,.65,3.62,3.62,0,0,0-1.12,1.73v7.39h-1.17V348.33Z"/><path class="cls-2" d="M336.61,345.62v2.71h2.32v1h-2.32v6.88a2.25,2.25,0,0,0,.38,1.47,1.26,1.26,0,0,0,1,.43l.55,0,.62-.08.18.87a3,3,0,0,1-.71.2,5.18,5.18,0,0,1-.84.07,2.19,2.19,0,0,1-1.73-.7,3.32,3.32,0,0,1-.62-2.23v-6.88H333.6v-1h1.83v-2.71Z"/><path class="cls-2" d="M347.26,348.33l.11,1.75a3.72,3.72,0,0,1,1.35-1.44,3.84,3.84,0,0,1,2-.51,3.38,3.38,0,0,1,2,.59,3.22,3.22,0,0,1,1.17,1.79,4,4,0,0,1,1.36-1.74,3.61,3.61,0,0,1,2.15-.63,3.18,3.18,0,0,1,2.61,1.12,5.44,5.44,0,0,1,.92,3.48v6.16H359.8V352.7a4.29,4.29,0,0,0-.69-2.76,2.39,2.39,0,0,0-1.92-.81,2.64,2.64,0,0,0-2.1.85,4,4,0,0,0-.92,2.18s0,.11,0,.2,0,.15,0,.19v6.35H353V352.7a4.26,4.26,0,0,0-.7-2.74,2.38,2.38,0,0,0-1.92-.83,2.9,2.9,0,0,0-2,.63,3.36,3.36,0,0,0-1,1.7v7.44h-1.18V348.33Z"/><path class="cls-2" d="M370.69,358.89c-.08-.36-.13-.67-.17-.93a6.44,6.44,0,0,1,0-.79,4.65,4.65,0,0,1-1.56,1.38,4.42,4.42,0,0,1-2.2.55,3.32,3.32,0,0,1-2.4-.82,2.91,2.91,0,0,1-.85-2.2,2.72,2.72,0,0,1,1.26-2.34,5.88,5.88,0,0,1,3.41-.88h2.33v-1.31a2.25,2.25,0,0,0-.73-1.78,3,3,0,0,0-2-.64,3.24,3.24,0,0,0-2,.62,1.84,1.84,0,0,0-.81,1.5h-1.07l0-.06a2.53,2.53,0,0,1,1.08-2.11,4.42,4.42,0,0,1,2.9-.93,4.24,4.24,0,0,1,2.81.89,3.13,3.13,0,0,1,1.06,2.55v5.2a9.13,9.13,0,0,0,.06,1.08,6.78,6.78,0,0,0,.21,1Zm-3.84-.83a4.19,4.19,0,0,0,2.23-.59,3.5,3.5,0,0,0,1.4-1.51v-2.21h-2.35a4.3,4.3,0,0,0-2.54.68,2,2,0,0,0-1,1.68,1.82,1.82,0,0,0,.59,1.4A2.33,2.33,0,0,0,366.85,358.06Z"/><path class="cls-2" d="M375.79,348.33l.11,1.85a3.76,3.76,0,0,1,1.37-1.51,3.83,3.83,0,0,1,2-.53,3.25,3.25,0,0,1,2.62,1,5,5,0,0,1,.9,3.28v6.44h-1.17v-6.44a3.84,3.84,0,0,0-.68-2.57,2.46,2.46,0,0,0-1.93-.75,3,3,0,0,0-2,.65,3.62,3.62,0,0,0-1.12,1.73v7.39h-1.17V348.33Z"/><path class="cls-2" d="M392.58,358.89c-.08-.36-.13-.67-.17-.93a6.44,6.44,0,0,1,0-.79,4.65,4.65,0,0,1-1.56,1.38,4.42,4.42,0,0,1-2.2.55,3.32,3.32,0,0,1-2.4-.82,2.91,2.91,0,0,1-.85-2.2,2.72,2.72,0,0,1,1.26-2.34,5.88,5.88,0,0,1,3.41-.88h2.33v-1.31a2.25,2.25,0,0,0-.73-1.78,3,3,0,0,0-2-.64,3.24,3.24,0,0,0-2,.62,1.84,1.84,0,0,0-.81,1.5h-1.07l0-.06a2.53,2.53,0,0,1,1.08-2.11,4.42,4.42,0,0,1,2.9-.93,4.24,4.24,0,0,1,2.81.89,3.13,3.13,0,0,1,1.06,2.55v5.2a9.13,9.13,0,0,0,.06,1.08,6.78,6.78,0,0,0,.21,1Zm-3.84-.83a4.19,4.19,0,0,0,2.23-.59,3.5,3.5,0,0,0,1.4-1.51v-2.21H390a4.3,4.3,0,0,0-2.54.68,2,2,0,0,0-1,1.68,1.82,1.82,0,0,0,.59,1.4A2.33,2.33,0,0,0,388.74,358.06Z"/><path class="cls-2" d="M396.18,353.7a6.85,6.85,0,0,1,1.08-4,3.48,3.48,0,0,1,3-1.52,3.7,3.7,0,0,1,1.94.49,4,4,0,0,1,1.36,1.39l.14-1.69h1v10.43a4.48,4.48,0,0,1-1.13,3.22,4.13,4.13,0,0,1-3.14,1.18,7.68,7.68,0,0,1-1.62-.19,6.37,6.37,0,0,1-1.5-.51l.3-1a6,6,0,0,0,1.32.47,6.54,6.54,0,0,0,1.48.16,3,3,0,0,0,2.33-.89,3.6,3.6,0,0,0,.79-2.47v-1.33a3.71,3.71,0,0,1-1.36,1.24,4,4,0,0,1-1.91.43,3.54,3.54,0,0,1-3-1.42,6.08,6.08,0,0,1-1.08-3.78Zm1.17.21a5.33,5.33,0,0,0,.78,3.06,2.63,2.63,0,0,0,2.32,1.14,3.25,3.25,0,0,0,1.89-.52,3.38,3.38,0,0,0,1.17-1.44v-4.9a3.72,3.72,0,0,0-1.12-1.52,3,3,0,0,0-1.92-.59,2.57,2.57,0,0,0-2.33,1.28,6.17,6.17,0,0,0-.79,3.29Z"/><path class="cls-2" d="M411.75,359.1a4.24,4.24,0,0,1-3.3-1.46,5.35,5.35,0,0,1-1.31-3.71v-.54a5.51,5.51,0,0,1,1.3-3.76,4,4,0,0,1,3.16-1.49,3.91,3.91,0,0,1,3.06,1.23,4.7,4.7,0,0,1,1.11,3.28v1h-7.46v.28a4.66,4.66,0,0,0,.95,3,3,3,0,0,0,2.49,1.2,5.11,5.11,0,0,0,1.87-.3,3.66,3.66,0,0,0,1.32-.87l.5.8a4.24,4.24,0,0,1-1.51,1A5.76,5.76,0,0,1,411.75,359.1Zm-.15-10a2.8,2.8,0,0,0-2.18,1,4.25,4.25,0,0,0-1,2.48l0,0h6.19v-.29a3.36,3.36,0,0,0-.81-2.3A2.77,2.77,0,0,0,411.6,349.13Z"/><path class="cls-2" d="M422.95,349.33l-.87-.06a2.65,2.65,0,0,0-1.81.62,3.42,3.42,0,0,0-1,1.7v7.29h-1.17V348.33h1l.15,1.76v.12a3.79,3.79,0,0,1,1.23-1.52,3.09,3.09,0,0,1,1.84-.55,2.74,2.74,0,0,1,.43,0l.35.07Z"/><path class="cls-4" d="M88,331.67c-.58.22-1.13.46-1.7.63a14.65,14.65,0,0,1-3.61.68c-1,0-2,.11-2.94.11a21.28,21.28,0,0,1-4.93-.63,15.67,15.67,0,0,1-4.11-1.59,8.91,8.91,0,0,1-3.52-3.39c-.21-.38-.36-.8-.54-1.21l-.12-.3-.37,1.09a9.64,9.64,0,0,1-3.68,5,8.51,8.51,0,0,1-3.46,1.32,11.39,11.39,0,0,1-2.91.05.28.28,0,0,0-.36.24,18.86,18.86,0,0,0-.88,4.3,17.62,17.62,0,0,0,.11,3.79,17,17,0,0,0,1.23,4.42,17.33,17.33,0,0,0,2.9,4.62,16.08,16.08,0,0,0,3.25,2.89c.67.44,1.38.82,2.06,1.24a.37.37,0,0,1,.17.25c0,1.62,0,3.24,0,4.86a.78.78,0,0,1,0,.13H52.08a.72.72,0,0,1-.81-.82q0-5.62,0-11.23v-1.39c-.37-.08-.73-.14-1.08-.24a6.84,6.84,0,0,1-4.1-3.25,7.78,7.78,0,0,1,.4-8.44,6.78,6.78,0,0,1,2.21-2,.42.42,0,0,0,.21-.33c.18-.89.33-1.79.6-2.66.35-1.14.76-2.26,1.22-3.35a24.67,24.67,0,0,1,2-3.69A27,27,0,0,1,55,319.66a23.24,23.24,0,0,1,3.68-3.44,19.91,19.91,0,0,1,4.82-2.69,27.79,27.79,0,0,1,3.41-1,23.85,23.85,0,0,1,7.22-.53,23.08,23.08,0,0,1,4.46.74,21.29,21.29,0,0,1,4.73,1.89,22.18,22.18,0,0,1,4.57,3.32,24.64,24.64,0,0,1,3,3.36A23,23,0,0,1,93.19,325c.54,1.13,1.07,2.26,1.54,3.42a17.34,17.34,0,0,1,1.1,4.14.52.52,0,0,0,.3.4,6.91,6.91,0,0,1,2.06,2,7.57,7.57,0,0,1,1.31,5.1,7.35,7.35,0,0,1-3,5.4,6.26,6.26,0,0,1-3,1.23l-.26.07V347q0,6.13,0,12.27c0,.65-.24.9-.89.9H79.89v-.3c0-1.49,0-3,0-4.46a.4.4,0,0,1,.25-.44,17.41,17.41,0,0,0,6.06-5,.3.3,0,0,0,.08-.15l-.79.45a15.28,15.28,0,0,1-3.1,1.34,21.34,21.34,0,0,1-4.73.9c-.7.06-1.4.06-2.1.08a.3.3,0,0,0-.31.18,3.2,3.2,0,0,1-2.77,1.77,3.25,3.25,0,0,1-3.28-2.37A3.14,3.14,0,0,1,70,349a3.1,3.1,0,0,1,3.11-.87,3.14,3.14,0,0,1,2.24,2,.28.28,0,0,0,.31.21,19.15,19.15,0,0,0,4.76-.67A19.67,19.67,0,0,0,86.26,347a26.18,26.18,0,0,0,2.49-1.92,1.87,1.87,0,0,0,.39-.87,17,17,0,0,0,.65-3.64,17.59,17.59,0,0,0-.12-3.63,16.71,16.71,0,0,0-1.43-4.89l-.15-.34,0-.06m-35.92.27.5,0c.16,0,.21,0,.27-.18.19-.48.39-1,.61-1.44a21.07,21.07,0,0,1,3.14-4.76,20.67,20.67,0,0,1,4.91-4.12A19.26,19.26,0,0,1,68,319a28.45,28.45,0,0,1,3.41-.45,19.79,19.79,0,0,1,6,.61,20.24,20.24,0,0,1,4,1.47,21.09,21.09,0,0,1,8,6.89,19.71,19.71,0,0,1,2.31,4.36A.23.23,0,0,0,92,332c.19,0,.38,0,.6,0-.1-.45-.18-.86-.3-1.27a22.51,22.51,0,0,0-2.41-5.45A20.66,20.66,0,0,0,85.44,320a18.44,18.44,0,0,0-4.62-2.84A20.59,20.59,0,0,0,75,315.68a24.24,24.24,0,0,0-7.65.38A18.44,18.44,0,0,0,60,319.37a18.84,18.84,0,0,0-3,2.79A22.54,22.54,0,0,0,53.81,327a20.68,20.68,0,0,0-1.69,4.9"/><polygon class="cls-3" points="60.28 178.42 62.85 175.85 72.68 185.72 93.32 165.05 95.89 167.62 72.68 190.82 60.28 178.42"/><path class="cls-3" d="M62,161.25c0,.25,0,.4.16.57a.62.62,0,0,0,.54.18H81.82a1.23,1.23,0,0,0,.78-.18c.16-.16.4-.31.4-.57v-1.74c0-.25-.24-.28-.4-.45s-.53-.07-.78-.07H62.7c-.25,0-.38-.1-.54.07s-.16.19-.16.45Z"/><path class="cls-3" d="M61.83,185H54V148H66.17a2.68,2.68,0,0,0,2-.65,2.39,2.39,0,0,0,.87-1.74V134H90v29.92l3-3.48v-27a2.28,2.28,0,0,0-.7-1.76,2.32,2.32,0,0,0-1.79-.68H66.17a6.08,6.08,0,0,0-2.39.46,6.28,6.28,0,0,0-2.06,1.26l-8.47,8.45a6.58,6.58,0,0,0-1.51,2.05,6.88,6.88,0,0,0-.74,2.38v40a2.45,2.45,0,0,0,1,1.72,2.89,2.89,0,0,0,2,.63H65.3Zm-6.14-41.75L64,134.94c.22-.22,1-.23,1-.41V144H55.09c.18,0,.38-.53.6-.75"/><path class="cls-3" d="M90,178.68V185H83.54l-3.48,3H90.51a2.28,2.28,0,0,0,1.79-.63,2.18,2.18,0,0,0,.7-1.72V175.21Z"/><path class="cls-3" d="M62,168.2a.72.72,0,0,0,.16.59.64.64,0,0,0,.54.21H81.82a1.24,1.24,0,0,0,.78-.21c.16-.16.4-.34.4-.59v-1.74a1.86,1.86,0,0,0-.4-.92c-.16-.16-.53-.54-.78-.54H62.7c-.25,0-.38.38-.54.54s-.16.67-.16.92Z"/><path class="cls-3" d="M62.7,155H81.82a1.23,1.23,0,0,0,.78-.16c.16-.16.4-.29.4-.54v-1.74c0-.25-.24-.31-.4-.47s-.53-.09-.78-.09H62.7c-.25,0-.38-.07-.54.09s-.16.22-.16.47v1.74c0,.25,0,.38.16.54s.29.16.54.16"/><path class="cls-2" d="M350,448.49c-3.83,2-6.73,1.57-8.11-1.11-1.73-3.36-.09-5.81,5.28-8.58l6.69-3.45-.19-.36c-1-1.84-2.6-1.62-5.81,0l-8.47,4.37-1.55-3L348.28,431c3.25-1.68,5.88-2.14,7.83-1.4l-3.29-6.2L343,428.66c-4.53,2.4-7.39,4.82-8.84,8.24a13.14,13.14,0,0,0,9.36,17.64c3.68.77,7.25-.29,11.78-2.69l9.85-5.23L362.66,442Z"/><path class="cls-2" d="M349.43,441.31c-2.16,1.12-3,2-2.3,3.25s1.62.91,3.48-.06l6.36-3.27-1.55-3Z"/><path class="cls-2" d="M377.28,435.07h-6.9v2.23H376c2.13,0,3.05.37,3.05,1.73v.27h-4.43c-3.56,0-5.09.95-5.09,3.44,0,2,1.41,3.11,3.95,3.11h9.05V439.1c0-2.66-1.77-4-5.25-4m1.79,8.61h-4.21c-1.24,0-1.84-.13-1.84-1s.65-1.21,2.08-1.21h4Z"/><polygon class="cls-2" points="393.91 435.07 390.16 442.72 386.63 435.07 382.85 435.07 388.25 445.85 391.88 445.85 397.55 435.07 393.91 435.07"/><path class="cls-2" d="M405,435.07h-6.9v2.23h5.62c2.13,0,3.05.37,3.05,1.73v.27h-4.43c-3.56,0-5.09.95-5.09,3.44,0,2,1.41,3.11,3.95,3.11h9.06V439.1c0-2.66-1.77-4-5.26-4m1.79,8.61h-4.21c-1.23,0-1.84-.13-1.84-1s.65-1.21,2.08-1.21h4Z"/><path class="cls-2" d="M423.67,445.85V439c0-2.86-1.55-3.94-5.32-3.94H412v10.77h3.37v-8.4h2.71c1.92,0,2.23.43,2.23,1.92v6.48Z"/><path class="cls-2" d="M433.35,443.7H432c-1.71,0-2.18-.63-2.18-2.12v-4.35h3.56v-2.15h-3.56v-3.91h-3.36v3.91h-2.37v2.15h2.37v5.25c0,2.21,1.4,3.38,3.85,3.38h3.08Z"/><path class="cls-2" d="M459.31,435.84a7,7,0,0,0-4.11-1h-7.26V436h5.8a6.27,6.27,0,0,1,3.07.57,2.37,2.37,0,0,1,1.15,2.14v1h-5.84a7.7,7.7,0,0,0-4.11.8,2.66,2.66,0,0,0-1.09,2.45,2.43,2.43,0,0,0,1,2.07,4.75,4.75,0,0,0,2.93.78h9.76v-7a3.42,3.42,0,0,0-1.26-2.94M458,444.71h-5.58a3.55,3.55,0,0,1-2.07-.43,1.58,1.58,0,0,1-.72-1.45,1.86,1.86,0,0,1,.84-1.66,4.91,4.91,0,0,1,2.27-.39H458Z"/><path class="cls-2" d="M437.93,435.18a4.8,4.8,0,0,0-3.44,2.84,5.75,5.75,0,0,0-.51,2.37,5.46,5.46,0,0,0,.52,2.3,5.09,5.09,0,0,0,1.38,1.78,5,5,0,0,0,2,1,13.41,13.41,0,0,0,3.12.32h4.57v-1.24h-3.42l-1.91-.07-1-.26.2.07-.6-.18a3.8,3.8,0,0,1-1.63-1.58,4.09,4.09,0,0,1-.55-2.16,3.93,3.93,0,0,1,1.36-3.32c.74-.63,2.12-1,4.15-1h3.42v-1.27H441a12,12,0,0,0-3.07.33"/><path class="cls-2" d="M470.42,438.63h2.34v-1.36a2.14,2.14,0,0,0-.66-1.85,4.63,4.63,0,0,0-2.8-.57h-5.87v11H466v-10H468a3.13,3.13,0,0,1,1.82.36,2,2,0,0,1,.56,1.54s0,.47,0,.92"/><path class="cls-2" d="M425,448.16c-.12,0-.22.08-.32.24l-1.44,2.38-1.44-2.38c-.1-.16-.2-.24-.32-.24s-.29.17-.29.54v4.85a.3.3,0,1,0,.59,0v-4l1.05,1.74c.16.27.27.37.41.37s.24-.09.4-.37l1.05-1.74v4a.3.3,0,1,0,.59,0V448.7c0-.37-.09-.54-.29-.54"/><path class="cls-2" d="M428,449.8a1.44,1.44,0,0,0-1.47,1.57v.92a1.47,1.47,0,1,0,2.93,0v-.92A1.44,1.44,0,0,0,428,449.8m.87,2.32c0,.73-.32,1.14-.87,1.14s-.88-.41-.88-1.14v-.56c0-.77.3-1.16.88-1.16s.87.39.87,1.16Z"/><path class="cls-2" d="M432.06,449.8h-1v-1.32a.3.3,0,1,0-.59,0v5c0,.27.09.36.36.36H432c.95,0,1.34-.38,1.34-1.32v-1.43a1.66,1.66,0,0,0-.2-.86,1.26,1.26,0,0,0-1.11-.45m.72,2.7c0,.54-.23.77-.76.77h-.95v-2.88H432c.53,0,.76.23.76.77Z"/><path class="cls-2" d="M434.79,449.8a.29.29,0,0,0-.29.32v3.43a.29.29,0,0,0,.29.32.29.29,0,0,0,.3-.32v-3.43a.29.29,0,0,0-.3-.32"/><path class="cls-2" d="M434.8,448a.35.35,0,1,0,0,.69.35.35,0,0,0,0-.69"/><path class="cls-2" d="M437.36,453.36c-.39-.2-.44-.28-.44-.77v-4.12a.3.3,0,1,0-.59,0v4.21a1.27,1.27,0,0,0,.21.82,1,1,0,0,0,.67.35.26.26,0,0,0,.27-.28.23.23,0,0,0-.12-.21"/><path class="cls-2" d="M439.93,449.8h-1.1c-.4,0-.51.09-.51.42v3.33a.3.3,0,1,0,.59,0v-3.15h.88c.66,0,.83.19.83.93v2.22a.29.29,0,1,0,.59,0v-2.27c0-1.05-.37-1.47-1.27-1.47"/><path class="cls-2" d="M443.66,449.8a1.44,1.44,0,0,0-1.47,1.57v.92a1.47,1.47,0,1,0,2.93,0v-.92a1.44,1.44,0,0,0-1.46-1.57m.87,2.32c0,.73-.32,1.14-.87,1.14s-.88-.41-.88-1.14v-.56c0-.77.3-1.16.88-1.16s.87.39.87,1.16Z"/><path class="cls-2" d="M448.28,452.07a5.47,5.47,0,0,0-.87-.51c-.52-.27-.52-.27-.66-.36a.48.48,0,0,1-.23-.38c0-.26.28-.44.68-.44a1.61,1.61,0,0,1,.54.09,1.35,1.35,0,0,0,.44.09.29.29,0,0,0,.29-.3c0-.13-.05-.2-.19-.26a2.58,2.58,0,0,0-1.05-.23c-.75,0-1.29.42-1.29,1s.26.8,1.14,1.25l.69.37a.55.55,0,0,1,.33.45c0,.25-.24.4-.64.4a1.9,1.9,0,0,1-1-.28.84.84,0,0,0-.38-.14.29.29,0,0,0-.26.29c0,.32.82.7,1.53.7s1.33-.41,1.33-1a1,1,0,0,0-.4-.8"/><path class="cls-2" d="M451.21,449.8h-.85v-1.32a.3.3,0,1,0-.59,0v1.32h-.26a.3.3,0,0,0-.31.3.29.29,0,0,0,.31.29h.26v3.15a.3.3,0,1,0,.59,0v-3.15h.85a.3.3,0,1,0,0-.59"/><path class="cls-2" d="M455.39,449.8h-1.05c-.39,0-.5.11-.5.54v4.85a.3.3,0,1,0,.59,0v-1.33h1c.9,0,1.31-.41,1.31-1.32v-1.43a1.46,1.46,0,0,0-.26-.92,1.18,1.18,0,0,0-1.08-.4m.75,2.76c0,.54-.19.71-.76.71h-.95v-2.88h1c.51,0,.71.2.71.68Z"/><path class="cls-2" d="M459.11,449.8a1.44,1.44,0,0,0-1.47,1.57v.92a1.47,1.47,0,1,0,2.93,0v-.92a1.44,1.44,0,0,0-1.46-1.57m.87,2.32c0,.73-.32,1.14-.87,1.14s-.88-.41-.88-1.14v-.56c0-.77.3-1.16.88-1.16s.87.39.87,1.16Z"/><path class="cls-2" d="M465.35,449.79a.3.3,0,0,0-.29.22l-.84,2.67-.86-2.67a.29.29,0,0,0-.29-.22.3.3,0,0,0-.29.3.75.75,0,0,0,0,.11l1.05,3.26c.09.31.18.4.36.4s.3-.12.38-.4l1-3.26a.55.55,0,0,0,0-.11.3.3,0,0,0-.29-.3"/><path class="cls-2" d="M467.85,449.8h-1.2a.3.3,0,1,0,0,.59H468c.45,0,.62.24.62.88v.24h-1a1.52,1.52,0,0,0-.73.15,1.17,1.17,0,0,0-.58,1,1.21,1.21,0,0,0,.59,1,1.58,1.58,0,0,0,.9.18h1c.29,0,.38-.14.38-.53v-2.21c0-.91-.4-1.32-1.31-1.32m.72,3.44h-.93c-.46,0-.75-.22-.75-.57s.28-.57.87-.57h.81Z"/><path class="cls-2" d="M472.48,452.07a5.47,5.47,0,0,0-.87-.51c-.52-.27-.52-.27-.66-.36a.48.48,0,0,1-.23-.38c0-.26.28-.44.68-.44a1.62,1.62,0,0,1,.54.09,1.35,1.35,0,0,0,.44.09.29.29,0,0,0,.29-.3c0-.13-.05-.2-.19-.26a2.58,2.58,0,0,0-1.05-.23c-.75,0-1.29.42-1.29,1s.26.8,1.14,1.25l.69.37a.55.55,0,0,1,.33.45c0,.25-.24.4-.64.4a1.9,1.9,0,0,1-1-.28.85.85,0,0,0-.38-.14.29.29,0,0,0-.26.29c0,.32.82.7,1.53.7s1.33-.41,1.33-1a1,1,0,0,0-.4-.8"/><path class="cls-2" d="M472,447.88l-.56.53-.57-.53a.37.37,0,0,0-.26-.12.26.26,0,0,0-.27.25c0,.11.06.21.26.39l.38.35c.22.21.31.26.46.26h0c.13,0,.22-.05.44-.26l.38-.35c.19-.18.26-.28.26-.39a.26.26,0,0,0-.27-.25.39.39,0,0,0-.26.12"/><path class="cls-2" d="M476.5,451.37a1.47,1.47,0,1,0-2.93,0v.92a1.47,1.47,0,1,0,2.93,0Zm-.59.75c0,.73-.32,1.14-.87,1.14s-.88-.41-.88-1.14v-.56c0-.77.3-1.16.88-1.16s.87.39.87,1.16Z"/><path class="cls-2" d="M477.75,449.8a.29.29,0,0,0-.29.32v3.94a1.33,1.33,0,0,1-.16.73c-.12.15-.16.16-.69.21-.22,0-.33.11-.33.28s.15.3.45.3a1.2,1.2,0,0,0,1.21-.61,2.82,2.82,0,0,0,.12-.86v-4a.29.29,0,0,0-.3-.32"/><path class="cls-2" d="M477.74,448a.35.35,0,1,0,0,.69.35.35,0,0,0,0-.69"/><path class="cls-2" d="M484.93,451.07a1.4,1.4,0,0,0-.26-.9c-.21-.27-.56-.37-1.25-.37h-1.83c-.48,0-.61.1-.61.48v3.26a.29.29,0,1,0,.59,0v-3.15h1.07v3.15a.3.3,0,1,0,.59,0v-3.15c1,0,1.1.11,1.1.81v2.34a.3.3,0,1,0,.59,0Z"/><path class="cls-2" d="M486.33,449.8a.29.29,0,0,0-.29.32v3.94a1.33,1.33,0,0,1-.16.73c-.12.15-.16.16-.69.21q-.33,0-.33.28c0,.2.15.3.45.3a1.2,1.2,0,0,0,1.2-.61,2.82,2.82,0,0,0,.12-.86v-4a.29.29,0,0,0-.3-.32"/><path class="cls-2" d="M486.31,448a.35.35,0,1,0,0,.69.35.35,0,0,0,0-.69"/><path class="cls-2" d="M490.23,453.27h-1.15c-.61,0-.76-.18-.76-.86v-.3h1.82c.34,0,.4-.1.4-.67a2,2,0,0,0-.19-.91,1.37,1.37,0,0,0-1.22-.74,1.41,1.41,0,0,0-1.4,1.48v1.25a1.78,1.78,0,0,0,.23.94c.2.28.51.39,1.11.39h1.16a.3.3,0,1,0,0-.59m-1.92-1.85c0-.67.28-1,.81-1s.81.34.81,1.13h-1.63Z"/><path class="cls-2" d="M492.91,449.8H492c-.32,0-.43.1-.43.45v3.3a.3.3,0,1,0,.59,0v-3.15h.49c.32,0,.5.06.58.2.21.35.22.36.37.36a.25.25,0,0,0,.27-.27.94.94,0,0,0-.92-.87"/><path class="cls-2" d="M494.83,449.8a.29.29,0,0,0-.29.32v3.43a.3.3,0,1,0,.59,0v-3.43a.29.29,0,0,0-.3-.32"/><path class="cls-2" d="M494.84,448.73a.35.35,0,1,0-.35-.35.34.34,0,0,0,.35.35"/><path class="cls-2" d="M476.61,436.7a1.5,1.5,0,1,0,1.52,1.5,1.5,1.5,0,0,0-1.52-1.5m0,2.75a1.25,1.25,0,1,1,1.21-1.26,1.21,1.21,0,0,1-1.21,1.26"/><path class="cls-2" d="M477.3,437.82c0-.34-.2-.49-.61-.49H476v1.73h.26v-.75h.3l.46.75h.29l-.49-.76a.45.45,0,0,0,.45-.48m-1,.27v-.54h.36c.18,0,.38,0,.38.26s-.2.28-.42.28Z"/></g></g></svg>