<svg id="Layer_1" data-name="Layer 1" xmlns="http://www.w3.org/2000/svg" viewBox="0 0 540 540"><defs><style>.cls-1{fill:#e2e2e2;}.cls-2{fill:#28373c;}.cls-3{fill:#a8b949;}</style></defs><title>dugorocni_najam</title><rect class="cls-1" width="540" height="540"/><path class="cls-2" d="M107.63,120v4.88h-2.69V111.39h5.35a5.29,5.29,0,0,1,3.64,1.18,4.29,4.29,0,0,1,.14,6.07l-.14.14a5.29,5.29,0,0,1-3.64,1.17Zm0-2.08h2.66a2.27,2.27,0,0,0,1.71-.61,2.19,2.19,0,0,0,.58-1.57,2.27,2.27,0,0,0-.58-1.6,2.2,2.2,0,0,0-1.71-.64h-2.66Z"/><path class="cls-2" d="M128.05,119.31a5.64,5.64,0,0,1-1.57,4.09,5.41,5.41,0,0,1-4.07,1.62,5.34,5.34,0,0,1-4-1.62,5.66,5.66,0,0,1-1.55-4.09v-2.42a5.68,5.68,0,0,1,1.51-4.08,5.29,5.29,0,0,1,4-1.62,5.41,5.41,0,0,1,4.07,1.62,5.63,5.63,0,0,1,1.57,4.08Zm-2.69-2.43a4.08,4.08,0,0,0-.76-2.58,2.59,2.59,0,0,0-2.16-1,2.52,2.52,0,0,0-2.12,1,4.17,4.17,0,0,0-.76,2.59v2.44a4.19,4.19,0,0,0,.76,2.61,2.53,2.53,0,0,0,2.13,1,2.57,2.57,0,0,0,2.16-1,4.16,4.16,0,0,0,.76-2.61Z"/><path class="cls-2" d="M140.48,123a5.08,5.08,0,0,1-1.87,1.41,7.31,7.31,0,0,1-3.21.62,5.5,5.5,0,0,1-4-1.51,5.29,5.29,0,0,1-1.56-4V116.7a5.44,5.44,0,0,1,1.51-4,5.16,5.16,0,0,1,3.86-1.51,5.38,5.38,0,0,1,3.78,1.19,4.14,4.14,0,0,1,1.3,3.12v.05h-2.57a2.59,2.59,0,0,0-.68-1.69,2.38,2.38,0,0,0-1.78-.62,2.42,2.42,0,0,0-2,1,3.83,3.83,0,0,0-.76,2.46v2.82a3.78,3.78,0,0,0,.76,2.49,2.59,2.59,0,0,0,2.19,1,4.85,4.85,0,0,0,1.51-.2,2.27,2.27,0,0,0,.83-.48v-2.47h-2.34v-1.87h5.07Z"/><path class="cls-2" d="M153.59,119.31a5.64,5.64,0,0,1-1.51,4.09A5.41,5.41,0,0,1,148,125a5.34,5.34,0,0,1-4-1.62,5.66,5.66,0,0,1-1.55-4.09v-2.42a5.68,5.68,0,0,1,1.51-4.08,5.29,5.29,0,0,1,4-1.62,5.41,5.41,0,0,1,4.07,1.62,5.63,5.63,0,0,1,1.57,4.08Zm-2.69-2.43a4.08,4.08,0,0,0-.76-2.58,2.59,2.59,0,0,0-2.16-1,2.52,2.52,0,0,0-2.13,1,4.17,4.17,0,0,0-.76,2.59v2.44a4.19,4.19,0,0,0,.76,2.61,2.53,2.53,0,0,0,2.13,1,2.57,2.57,0,0,0,2.16-1,4.16,4.16,0,0,0,.76-2.61Z"/><path class="cls-2" d="M155.71,124.82V111.39h4.61a5.54,5.54,0,0,1,4.06,1.57,5.42,5.42,0,0,1,1.6,4v2.27a5.41,5.41,0,0,1-1.6,4,5.56,5.56,0,0,1-4.06,1.57Zm2.69-11.34v9.26h1.78a2.81,2.81,0,0,0,2.27-1,3.84,3.84,0,0,0,.82-2.53V117a3.78,3.78,0,0,0-.82-2.53,2.81,2.81,0,0,0-2.27-1Z"/><path class="cls-2" d="M179,124.82h-2.68l-5.43-9.19h-.05v9.19H168.1V111.39h2.69l5.43,9.17h.05v-9.17H179Z"/><path class="cls-2" d="M192.28,119.31a5.64,5.64,0,0,1-1.57,4.09,5.41,5.41,0,0,1-4.07,1.62,5.34,5.34,0,0,1-4-1.62,5.66,5.66,0,0,1-1.55-4.09v-2.42a5.68,5.68,0,0,1,1.51-4.08,5.29,5.29,0,0,1,4-1.62,5.41,5.41,0,0,1,4.07,1.62,5.63,5.63,0,0,1,1.57,4.08Zm-2.69-2.43a4.08,4.08,0,0,0-.76-2.58,2.59,2.59,0,0,0-2.16-1,2.52,2.52,0,0,0-2.13,1,4.17,4.17,0,0,0-.76,2.59v2.44a4.19,4.19,0,0,0,.76,2.61,2.53,2.53,0,0,0,2.13,1,2.57,2.57,0,0,0,2.16-1,4.16,4.16,0,0,0,.76-2.61Z"/><path class="cls-2" d="M201.65,121.31a1.56,1.56,0,0,0-.55-1.25,5.55,5.55,0,0,0-1.92-.88,11,11,0,0,1-3.63-1.64,3.12,3.12,0,0,1-1.22-2.6,3.22,3.22,0,0,1,1.41-2.7,5.86,5.86,0,0,1,3.59-1.05,5.41,5.41,0,0,1,3.61,1.18,3.52,3.52,0,0,1,1.32,2.9v.05h-2.61a2,2,0,0,0-.62-1.51,2.48,2.48,0,0,0-1.75-.57,2.59,2.59,0,0,0-1.67.48,1.51,1.51,0,0,0-.59,1.22,1.32,1.32,0,0,0,.64,1.12,8.75,8.75,0,0,0,2.19.91,8.47,8.47,0,0,1,3.37,1.63,3.39,3.39,0,0,1,1.14,2.67A3.2,3.2,0,0,1,203,124a5.94,5.94,0,0,1-3.59,1,6.56,6.56,0,0,1-3.83-1.13,3.53,3.53,0,0,1-1.6-3.11v-.05h2.62a2.06,2.06,0,0,0,.76,1.76,3.3,3.3,0,0,0,2,.56,2.69,2.69,0,0,0,1.68-.45A1.45,1.45,0,0,0,201.65,121.31Z"/><path class="cls-2" d="M215.66,113.46h-3.78V124.8h-2.69V113.46h-3.78v-2.07h10.28Z"/><path class="cls-2" d="M220,124.82h-2.69V111.39H220Z"/><path class="cls-2" d="M230.12,120v4.88h-2.69V111.39h5.35a5.29,5.29,0,0,1,3.64,1.18,4.29,4.29,0,0,1,.14,6.07l-.14.14a5.29,5.29,0,0,1-3.64,1.17Zm0-2.08h2.66a2.27,2.27,0,0,0,1.71-.61,2.18,2.18,0,0,0,.58-1.57,2.27,2.27,0,0,0-.58-1.6,2.2,2.2,0,0,0-1.71-.64h-2.66Z"/><path class="cls-2" d="M250.54,119.31A5.64,5.64,0,0,1,249,123.4a5.41,5.41,0,0,1-4.07,1.62,5.34,5.34,0,0,1-4-1.62,5.66,5.66,0,0,1-1.55-4.09v-2.42a5.68,5.68,0,0,1,1.51-4.08,5.29,5.29,0,0,1,4-1.62,5.41,5.41,0,0,1,4.07,1.62,5.63,5.63,0,0,1,1.57,4.08Zm-2.69-2.43a4.08,4.08,0,0,0-.76-2.58,2.59,2.59,0,0,0-2.16-1,2.52,2.52,0,0,0-2.12,1,4.17,4.17,0,0,0-.76,2.59v2.44a4.19,4.19,0,0,0,.76,2.61,2.53,2.53,0,0,0,2.13,1,2.57,2.57,0,0,0,2.16-1,4.16,4.16,0,0,0,.76-2.61Z"/><path class="cls-2" d="M259.9,121.31a1.56,1.56,0,0,0-.55-1.25,5.55,5.55,0,0,0-1.92-.88,11,11,0,0,1-3.63-1.64,3.12,3.12,0,0,1-1.22-2.6,3.22,3.22,0,0,1,1.41-2.7,5.86,5.86,0,0,1,3.59-1.05,5.41,5.41,0,0,1,3.61,1.18,3.52,3.52,0,0,1,1.35,2.9v.05h-2.61a2,2,0,0,0-.62-1.51,2.48,2.48,0,0,0-1.75-.57,2.59,2.59,0,0,0-1.67.48,1.51,1.51,0,0,0-.59,1.22,1.32,1.32,0,0,0,.64,1.12,8.75,8.75,0,0,0,2.16.91,8.47,8.47,0,0,1,3.37,1.63,3.39,3.39,0,0,1,1.14,2.67,3.2,3.2,0,0,1-1.36,2.72,5.94,5.94,0,0,1-3.59,1,6.56,6.56,0,0,1-3.83-1.13,3.53,3.53,0,0,1-1.59-3.17v-.05h2.62a2.06,2.06,0,0,0,.76,1.76,3.3,3.3,0,0,0,2,.56,2.69,2.69,0,0,0,1.68-.45A1.45,1.45,0,0,0,259.9,121.31Z"/><path class="cls-2" d="M267.34,122.74h6v2.08h-8.68V111.39h2.69Z"/><path class="cls-2" d="M285.1,119.31a5.64,5.64,0,0,1-1.57,4.09,5.41,5.41,0,0,1-4.07,1.62,5.34,5.34,0,0,1-4-1.62,5.66,5.66,0,0,1-1.55-4.09v-2.42a5.68,5.68,0,0,1,1.51-4.08,5.29,5.29,0,0,1,4-1.62,5.41,5.41,0,0,1,4.07,1.62,5.63,5.63,0,0,1,1.57,4.08Zm-2.69-2.43a4.08,4.08,0,0,0-.76-2.58,2.59,2.59,0,0,0-2.16-1,2.52,2.52,0,0,0-2.13,1,4.17,4.17,0,0,0-.76,2.59v2.44a4.19,4.19,0,0,0,.76,2.61,2.53,2.53,0,0,0,2.13,1,2.57,2.57,0,0,0,2.16-1,4.16,4.16,0,0,0,.76-2.61Z"/><path class="cls-2" d="M291.58,121.25l.17.76h.05l.16-.71,2.93-9.88h2.84l-4.54,13.44h-2.77l-4.54-13.44h2.84Z"/><path class="cls-2" d="M309.91,124.82h-2.68l-5.44-9.18h-.05v9.18H299V111.39h2.69l5.43,9.17h.05v-9.17h2.68Z"/><path class="cls-2" d="M323.24,119.31a5.64,5.64,0,0,1-1.57,4.09,5.41,5.41,0,0,1-4.07,1.62,5.34,5.34,0,0,1-4-1.62,5.66,5.66,0,0,1-1.55-4.09v-2.42a5.68,5.68,0,0,1,1.51-4.08,5.29,5.29,0,0,1,4-1.62,5.41,5.41,0,0,1,4.07,1.62,5.63,5.63,0,0,1,1.57,4.08Zm-2.69-2.43a4.08,4.08,0,0,0-.76-2.58,2.59,2.59,0,0,0-2.16-1,2.52,2.52,0,0,0-2.13,1,4.17,4.17,0,0,0-.76,2.59v2.44a4.19,4.19,0,0,0,.76,2.61,2.53,2.53,0,0,0,2.13,1,2.57,2.57,0,0,0,2.16-1,4.16,4.16,0,0,0,.76-2.61Z"/><path class="cls-2" d="M335.67,123a5.08,5.08,0,0,1-1.87,1.41,7.31,7.31,0,0,1-3.21.62,5.5,5.5,0,0,1-4-1.51,5.29,5.29,0,0,1-1.56-4V116.7a5.44,5.44,0,0,1,1.51-4,5.16,5.16,0,0,1,3.86-1.51,5.38,5.38,0,0,1,3.78,1.19,4.14,4.14,0,0,1,1.33,3.15v.05H333a2.59,2.59,0,0,0-.68-1.69,2.38,2.38,0,0,0-1.78-.62,2.42,2.42,0,0,0-2,1,3.83,3.83,0,0,0-.76,2.46v2.82a3.78,3.78,0,0,0,.76,2.49,2.59,2.59,0,0,0,2.11,1,4.85,4.85,0,0,0,1.51-.2,2.27,2.27,0,0,0,.87-.48v-2.51h-2.38v-1.87h5.07Z"/><path class="cls-2" d="M346.88,119.24h-1.51v5.61h-2.68V111.39h2.69v5.49h1.17l3.56-5.49h3.3l-4.54,6.26,4.88,7.18h-3.29Z"/><path class="cls-2" d="M365.44,119.31a5.64,5.64,0,0,1-1.57,4.09,5.41,5.41,0,0,1-4.07,1.62,5.34,5.34,0,0,1-4-1.62,5.66,5.66,0,0,1-1.55-4.09v-2.42a5.68,5.68,0,0,1,1.51-4.08,5.29,5.29,0,0,1,4-1.62,5.41,5.41,0,0,1,4.07,1.62,5.63,5.63,0,0,1,1.57,4.08Zm-2.69-2.43a4.08,4.08,0,0,0-.76-2.58,2.59,2.59,0,0,0-2.16-1,2.52,2.52,0,0,0-2.13,1,4.17,4.17,0,0,0-.76,2.59v2.44a4.19,4.19,0,0,0,.76,2.61,2.53,2.53,0,0,0,2.13,1,2.57,2.57,0,0,0,2.16-1,4.16,4.16,0,0,0,.76-2.61Z"/><path class="cls-2" d="M370.24,119.45v5.37h-2.68V111.39h5.07a5.57,5.57,0,0,1,3.58,1,3.55,3.55,0,0,1,1.3,2.92,3,3,0,0,1-.54,1.79,3.78,3.78,0,0,1-1.6,1.21,2.9,2.9,0,0,1,1.71,1.17,3.71,3.71,0,0,1,.52,2v1a4.87,4.87,0,0,0,.15,1.18,1.62,1.62,0,0,0,.52.91v.2H375.5a1.51,1.51,0,0,1-.48-1,8.32,8.32,0,0,1-.11-1.31v-1a2.14,2.14,0,0,0-.54-1.58,2.07,2.07,0,0,0-1.51-.56Zm0-2.08h2.33a2.55,2.55,0,0,0,1.69-.48,1.77,1.77,0,0,0,.56-1.42,2,2,0,0,0-.56-1.47,2.27,2.27,0,0,0-1.65-.54h-2.37Z"/><path class="cls-2" d="M382.91,124.82h-2.69V111.39h2.69Z"/><path class="cls-2" d="M392.84,121.31a1.56,1.56,0,0,0-.55-1.25,5.55,5.55,0,0,0-1.92-.88,11,11,0,0,1-3.63-1.64,3.12,3.12,0,0,1-1.22-2.6,3.22,3.22,0,0,1,1.41-2.7,5.86,5.86,0,0,1,3.59-1.05,5.41,5.41,0,0,1,3.61,1.18,3.52,3.52,0,0,1,1.35,2.9v.05h-2.61a2,2,0,0,0-.62-1.51,2.48,2.48,0,0,0-1.75-.57,2.59,2.59,0,0,0-1.67.48,1.51,1.51,0,0,0-.59,1.22,1.32,1.32,0,0,0,.64,1.12A8.75,8.75,0,0,0,391,117a8.47,8.47,0,0,1,3.37,1.63,3.39,3.39,0,0,1,1.16,2.7,3.2,3.2,0,0,1-1.36,2.72,5.94,5.94,0,0,1-3.59,1,6.56,6.56,0,0,1-3.83-1.13,3.53,3.53,0,0,1-1.59-3.17v-.05h2.62a2.06,2.06,0,0,0,.76,1.76,3.3,3.3,0,0,0,2,.56,2.69,2.69,0,0,0,1.68-.45A1.45,1.45,0,0,0,392.84,121.31Z"/><path class="cls-2" d="M408.44,124.82h-2.68l-5.43-9.19h-.05v9.19h-2.69V111.39h2.69l5.43,9.17h.05v-9.17h2.68Z"/><path class="cls-2" d="M413.82,124.82h-2.69V111.39h2.69Z"/><path class="cls-2" d="M420.7,119.24h-1.51v5.61H416.5V111.39h2.69v5.49h1.17l3.56-5.49h3.3l-4.54,6.26,4.88,7.18h-3.3Z"/><path class="cls-2" d="M435.93,121.93h-4.72l-.89,2.9H427.6l4.63-13.44H435l4.6,13.44h-2.72Zm-4.05-2.12h3.39l-1.66-5.29h-.05Z"/><path class="cls-3" d="M158.94,170.54v-9.35l8.09,4.67Z"/><path class="cls-2" d="M174.62,165.14h-1.51v5.05h-.85V159.44h.88v4.94h1.47l4.23-4.94h1l-4.45,5.25,4.76,5.42h-1.05Z"/><path class="cls-2" d="M181,166.11a4.29,4.29,0,0,1,1-2.9,3.48,3.48,0,0,1,4.91-.22l.22.22a4.29,4.29,0,0,1,1,2.9v.24a4.3,4.3,0,0,1-1,2.9,3.49,3.49,0,0,1-4.94.2l-.2-.2a4.29,4.29,0,0,1-1-2.9Zm.88.24a3.78,3.78,0,0,0,.7,2.33,2.48,2.48,0,0,0,3.89,0,3.78,3.78,0,0,0,.7-2.33v-.24a3.78,3.78,0,0,0-.71-2.31,2.46,2.46,0,0,0-3.89,0,3.78,3.78,0,0,0-.7,2.31Z"/><path class="cls-2" d="M190.64,162.21l.08,1.32a2.81,2.81,0,0,1,1-1.09,2.9,2.9,0,0,1,1.51-.39,2.56,2.56,0,0,1,1.51.45,2.43,2.43,0,0,1,.88,1.35,3,3,0,0,1,1-1.32,2.73,2.73,0,0,1,1.63-.48,2.4,2.4,0,0,1,2,.85,4.11,4.11,0,0,1,.7,2.63v4.66h-.88v-4.69a3.25,3.25,0,0,0-.52-2.09,1.81,1.81,0,0,0-1.45-.61,2,2,0,0,0-1.59.64,3,3,0,0,0-.7,1.65v5.1h-.89v-4.69a3.22,3.22,0,0,0-.53-2.08,1.8,1.8,0,0,0-1.45-.63,2.19,2.19,0,0,0-1.51.48,2.53,2.53,0,0,0-.76,1.29v5.63h-.81v-8Z"/><path class="cls-2" d="M209.73,166.42a4.61,4.61,0,0,1-.81,2.86,2.65,2.65,0,0,1-2.27,1.07,3.24,3.24,0,0,1-1.47-.32,2.67,2.67,0,0,1-1-.91v4.14h-.88V162.21H204l.11,1.24a2.84,2.84,0,0,1,1-1,2.94,2.94,0,0,1,1.51-.36,2.61,2.61,0,0,1,2.27,1.15,5.2,5.2,0,0,1,.81,3Zm-.88-.17a4.59,4.59,0,0,0-.6-2.48,2,2,0,0,0-1.77-1,2.33,2.33,0,0,0-1.45.42,2.62,2.62,0,0,0-.84,1.1v3.84a2.42,2.42,0,0,0,.88,1,2.55,2.55,0,0,0,1.43.38,2,2,0,0,0,1.76-.87,4,4,0,0,0,.6-2.31Z"/><path class="cls-2" d="M212.71,170.19h-.9V158.67h.88Z"/><path class="cls-2" d="M218.15,170.35a3.21,3.21,0,0,1-2.5-1.1,4,4,0,0,1-1-2.81V166a4.17,4.17,0,0,1,1-2.84,3,3,0,0,1,2.39-1.13,3,3,0,0,1,2.31.93,3.55,3.55,0,0,1,.84,2.48v.76h-5.6v.21a3.52,3.52,0,0,0,.72,2.27,2.27,2.27,0,0,0,1.88.91,3.87,3.87,0,0,0,1.41-.23,2.77,2.77,0,0,0,1-.66l.38.6a3.21,3.21,0,0,1-1.14.76A4.36,4.36,0,0,1,218.15,170.35Zm-.11-7.56a2.12,2.12,0,0,0-1.65.76,3.21,3.21,0,0,0-.76,1.88h4.68v-.22a2.54,2.54,0,0,0-.61-1.74,2.09,2.09,0,0,0-1.66-.65Z"/><path class="cls-2" d="M224.33,160.16v2h1.75V163h-1.75v5.2a1.7,1.7,0,0,0,.29,1.11,1,1,0,0,0,.76.33h.42l.47-.06.14.66a2.27,2.27,0,0,1-.54.15,4,4,0,0,1-.64.05,1.66,1.66,0,0,1-1.31-.53,2.51,2.51,0,0,1-.47-1.69V163h-1.38v-.76h1.38v-2Z"/><path class="cls-2" d="M228.74,162.21l.08,1.4a2.85,2.85,0,0,1,1-1.14,2.89,2.89,0,0,1,1.51-.4,2.46,2.46,0,0,1,2,.76,3.78,3.78,0,0,1,.68,2.48v4.87h-.88v-4.81a2.9,2.9,0,0,0-.51-1.94,1.86,1.86,0,0,0-1.46-.57,2.27,2.27,0,0,0-1.51.49,2.74,2.74,0,0,0-.85,1.31v5.59h-.88v-8Z"/><path class="cls-2" d="M241.44,170.19q-.09-.41-.13-.7a4.86,4.86,0,0,1,0-.6,3.52,3.52,0,0,1-1.18,1,3.34,3.34,0,0,1-1.66.42,2.51,2.51,0,0,1-1.81-.62,2.2,2.2,0,0,1-.64-1.66,2.06,2.06,0,0,1,1-1.77,4.45,4.45,0,0,1,2.58-.67h1.75v-1a1.7,1.7,0,0,0-.55-1.35,2.27,2.27,0,0,0-1.51-.48,2.45,2.45,0,0,0-1.51.47,1.39,1.39,0,0,0-.61,1.13h-.88v0a1.91,1.91,0,0,1,.82-1.6,3.34,3.34,0,0,1,2.19-.7,3.21,3.21,0,0,1,2.12.67,2.37,2.37,0,0,1,.8,1.93v3.93a6.9,6.9,0,0,0,0,.82,5.13,5.13,0,0,0,.16.76Zm-2.9-.63a3.16,3.16,0,0,0,1.69-.45,2.65,2.65,0,0,0,1.06-1.14V166.3H239.5a3.25,3.25,0,0,0-1.92.51,1.51,1.51,0,0,0-.76,1.27,1.38,1.38,0,0,0,.45,1.06A1.76,1.76,0,0,0,238.54,169.56Z"/><path class="cls-2" d="M253.39,168.88a2.75,2.75,0,0,1-1,1.08,3,3,0,0,1-1.51.38,2.44,2.44,0,0,1-2-.85,4.09,4.09,0,0,1-.72-2.66V162.2H249v4.67a3.45,3.45,0,0,0,.5,2.1,1.69,1.69,0,0,0,1.41.64,2.6,2.6,0,0,0,1.6-.45,2.34,2.34,0,0,0,.83-1.24v-5.69h.88v8h-.76Z"/><path class="cls-2" d="M261.39,168.16a1.29,1.29,0,0,0-.46-1,3.78,3.78,0,0,0-1.66-.69,5.59,5.59,0,0,1-2.12-.82,1.69,1.69,0,0,1-.68-1.44,1.93,1.93,0,0,1,.76-1.51,3.12,3.12,0,0,1,2-.63,3.21,3.21,0,0,1,2.14.67,2,2,0,0,1,.76,1.67v0h-.82a1.51,1.51,0,0,0-.56-1.14,2.65,2.65,0,0,0-3-.08,1.25,1.25,0,0,0-.48,1,1.15,1.15,0,0,0,.42.91,4.08,4.08,0,0,0,1.66.64,5.43,5.43,0,0,1,2.13.87,1.8,1.8,0,0,1,.71,1.51,1.94,1.94,0,0,1-.81,1.62,4.06,4.06,0,0,1-4.42-.08,2,2,0,0,1-.76-1.66v0h.81a1.46,1.46,0,0,0,.7,1.25,3,3,0,0,0,1.51.39,2.45,2.45,0,0,0,1.51-.42A1.24,1.24,0,0,0,261.39,168.16Z"/><path class="cls-2" d="M265.29,170.19h-.88V158.67h.88Z"/><path class="cls-2" d="M273,168.88a2.75,2.75,0,0,1-1,1.08,3,3,0,0,1-1.51.38,2.44,2.44,0,0,1-2-.85,4.09,4.09,0,0,1-.72-2.66V162.2h.88v4.67a3.45,3.45,0,0,0,.5,2.1,1.69,1.69,0,0,0,1.41.64,2.6,2.6,0,0,0,1.6-.45,2.34,2.34,0,0,0,.83-1.24v-5.69h.85v8h-.76Z"/><path class="cls-2" d="M275.81,166.27a5.18,5.18,0,0,1,.82-3,2.63,2.63,0,0,1,2.27-1.15,2.8,2.8,0,0,1,1.47.37,3,3,0,0,1,1,1.05l.11-1.28h.76v7.89a3.38,3.38,0,0,1-.85,2.43,3.12,3.12,0,0,1-2.37.89,5.83,5.83,0,0,1-1.22-.14,4.8,4.8,0,0,1-1.13-.39l.23-.76a4.54,4.54,0,0,0,1,.36,4.94,4.94,0,0,0,1.12.12,2.27,2.27,0,0,0,1.76-.67,2.72,2.72,0,0,0,.6-1.87v-1a2.81,2.81,0,0,1-1,.94,3,3,0,0,1-1.44.33,2.68,2.68,0,0,1-2.27-1.07,4.6,4.6,0,0,1-.82-2.86Zm.88.16a4,4,0,0,0,.59,2.31,2,2,0,0,0,1.75.86,2.46,2.46,0,0,0,1.43-.39,2.56,2.56,0,0,0,.88-1.09v-3.7a2.81,2.81,0,0,0-.85-1.15,2.27,2.27,0,0,0-1.45-.45,2,2,0,0,0-1.76,1,4.67,4.67,0,0,0-.6,2.5Z"/><path class="cls-2" d="M289.64,170.19q-.09-.41-.13-.7a4.86,4.86,0,0,1,0-.6,3.52,3.52,0,0,1-1.18,1,3.34,3.34,0,0,1-1.66.42,2.51,2.51,0,0,1-1.81-.62,2.2,2.2,0,0,1-.64-1.66,2.06,2.06,0,0,1,1-1.77,4.45,4.45,0,0,1,2.58-.67h1.76v-1a1.7,1.7,0,0,0-.55-1.35,2.27,2.27,0,0,0-1.51-.48,2.45,2.45,0,0,0-1.51.47,1.39,1.39,0,0,0-.61,1.13h-.81v0a1.91,1.91,0,0,1,.82-1.6,3.34,3.34,0,0,1,2.19-.7,3.21,3.21,0,0,1,2.12.67,2.37,2.37,0,0,1,.8,1.93v3.93a6.9,6.9,0,0,0,0,.82,5.13,5.13,0,0,0,.16.76Zm-2.9-.63a3.16,3.16,0,0,0,1.69-.45,2.65,2.65,0,0,0,1.06-1.14V166.3h-1.78a3.25,3.25,0,0,0-1.92.51,1.51,1.51,0,0,0-.76,1.27,1.38,1.38,0,0,0,.45,1.06A1.76,1.76,0,0,0,286.74,169.56Z"/><path class="cls-2" d="M299.12,166h-3.54v-.76h3.54Z"/><path class="cls-2" d="M305.14,162.21l.08,1.32a2.81,2.81,0,0,1,1-1.09,2.9,2.9,0,0,1,1.51-.39,2.56,2.56,0,0,1,1.51.45,2.43,2.43,0,0,1,.88,1.35,3,3,0,0,1,1-1.32,2.73,2.73,0,0,1,1.63-.48,2.4,2.4,0,0,1,2,.85,4.11,4.11,0,0,1,.7,2.63v4.66h-.84v-4.69a3.25,3.25,0,0,0-.52-2.09,1.81,1.81,0,0,0-1.45-.61,2,2,0,0,0-1.59.64,3,3,0,0,0-.7,1.65v5.1h-.89v-4.69a3.22,3.22,0,0,0-.53-2.08,1.8,1.8,0,0,0-1.45-.63,2.19,2.19,0,0,0-1.51.48,2.53,2.53,0,0,0-.76,1.29v5.63h-.89v-8Z"/><path class="cls-2" d="M317.3,166.11a4.29,4.29,0,0,1,1-2.9,3.48,3.48,0,0,1,4.91-.22l.22.22a4.29,4.29,0,0,1,1,2.9v.24a4.3,4.3,0,0,1-1,2.9,3.49,3.49,0,0,1-4.94.2l-.2-.2a4.29,4.29,0,0,1-1-2.9Zm.88.24a3.78,3.78,0,0,0,.7,2.33,2.48,2.48,0,0,0,3.89,0,3.78,3.78,0,0,0,.7-2.33v-.24a3.78,3.78,0,0,0-.71-2.31,2.46,2.46,0,0,0-3.89,0,3.78,3.78,0,0,0-.7,2.31Z"/><path class="cls-2" d="M332.65,166.42a4.61,4.61,0,0,1-.81,2.86,2.65,2.65,0,0,1-2.27,1.07,3.08,3.08,0,0,1-1.51-.35,2.71,2.71,0,0,1-1-1l-.1,1.2h-.76V158.67h.88v4.79a2.73,2.73,0,0,1,2.5-1.41,2.61,2.61,0,0,1,2.27,1.15,5.2,5.2,0,0,1,.81,3Zm-.89-.15a4.71,4.71,0,0,0-.59-2.5,1.93,1.93,0,0,0-1.75-1,2.27,2.27,0,0,0-1.51.46,2.74,2.74,0,0,0-.84,1.18v3.63a2.53,2.53,0,0,0,.88,1.11,2.48,2.48,0,0,0,1.46.41,2,2,0,0,0,1.74-.86,4.06,4.06,0,0,0,.58-2.31Z"/><path class="cls-2" d="M335.62,159.91h-.88v-1.24h.88Zm0,10.28h-.88v-8h.88Z"/><path class="cls-2" d="M339.05,170.19h-.88V158.67h.88Z"/><path class="cls-2" d="M342.28,162.21l.08,1.4a2.85,2.85,0,0,1,1-1.14,2.89,2.89,0,0,1,1.51-.4,2.46,2.46,0,0,1,2,.76,3.78,3.78,0,0,1,.68,2.48v4.87h-.88v-4.81a2.9,2.9,0,0,0-.51-1.94,1.86,1.86,0,0,0-1.46-.57,2.27,2.27,0,0,0-1.51.49,2.74,2.74,0,0,0-.85,1.31v5.59h-.88v-8Z"/><path class="cls-2" d="M349.42,166.11a4.29,4.29,0,0,1,1-2.9,3.48,3.48,0,0,1,4.91-.22l.22.22a4.29,4.29,0,0,1,1,2.9v.24a4.3,4.3,0,0,1-1,2.9,3.49,3.49,0,0,1-4.94.2l-.2-.2a4.29,4.29,0,0,1-1-2.9Zm.88.24a3.78,3.78,0,0,0,.7,2.33,2.48,2.48,0,0,0,3.89,0,3.78,3.78,0,0,0,.7-2.33v-.24a3.78,3.78,0,0,0-.71-2.31,2.46,2.46,0,0,0-3.89,0,3.78,3.78,0,0,0-.7,2.31Z"/><path class="cls-2" d="M363.12,168.16a1.29,1.29,0,0,0-.46-1,3.78,3.78,0,0,0-1.66-.69,5.59,5.59,0,0,1-2.12-.82,1.69,1.69,0,0,1-.68-1.44,1.93,1.93,0,0,1,.76-1.51,3.12,3.12,0,0,1,2-.63,3.21,3.21,0,0,1,2.14.67,2,2,0,0,1,.76,1.67v0H363a1.51,1.51,0,0,0-.56-1.14,2.65,2.65,0,0,0-3-.08,1.25,1.25,0,0,0-.48,1,1.15,1.15,0,0,0,.42.91,4.08,4.08,0,0,0,1.66.64,5.43,5.43,0,0,1,2.13.87,1.8,1.8,0,0,1,.71,1.51,1.94,1.94,0,0,1-.81,1.62,4.06,4.06,0,0,1-4.42-.08A2,2,0,0,1,358,168v0h.81a1.46,1.46,0,0,0,.7,1.25,3,3,0,0,0,1.51.39,2.45,2.45,0,0,0,1.51-.42A1.24,1.24,0,0,0,363.12,168.16Z"/><path class="cls-2" d="M367.42,160.16v2h1.75V163h-1.75v5.2a1.7,1.7,0,0,0,.29,1.11,1,1,0,0,0,.76.33h.42l.47-.06.14.66a2.27,2.27,0,0,1-.54.15,4,4,0,0,1-.64.05,1.66,1.66,0,0,1-1.31-.53,2.51,2.51,0,0,1-.47-1.69V163h-1.39v-.76h1.38v-2Z"/><path class="cls-2" d="M381.18,166.42a4.61,4.61,0,0,1-.81,2.86,2.65,2.65,0,0,1-2.27,1.07,3.08,3.08,0,0,1-1.51-.35,2.71,2.71,0,0,1-1-1l-.1,1.2h-.76V158.67h.88v4.79a2.73,2.73,0,0,1,2.5-1.41,2.61,2.61,0,0,1,2.27,1.15,5.2,5.2,0,0,1,.81,3Zm-.89-.15a4.71,4.71,0,0,0-.59-2.5,1.93,1.93,0,0,0-1.75-1,2.27,2.27,0,0,0-1.51.46,2.74,2.74,0,0,0-.84,1.18v3.63a2.53,2.53,0,0,0,.88,1.11,2.48,2.48,0,0,0,1.46.41,2,2,0,0,0,1.74-.86,4.06,4.06,0,0,0,.58-2.31Z"/><path class="cls-2" d="M386.15,170.35a3.21,3.21,0,0,1-2.5-1.1,4,4,0,0,1-1-2.81V166a4.17,4.17,0,0,1,1-2.84,3,3,0,0,1,2.39-1.13,3,3,0,0,1,2.31.93,3.55,3.55,0,0,1,.84,2.48v.76h-5.64v.21a3.52,3.52,0,0,0,.72,2.27,2.27,2.27,0,0,0,1.88.91,3.87,3.87,0,0,0,1.41-.23,2.77,2.77,0,0,0,1-.66l.38.6a3.21,3.21,0,0,1-1.14.76A4.36,4.36,0,0,1,386.15,170.35Zm-.11-7.56a2.12,2.12,0,0,0-1.65.76,3.21,3.21,0,0,0-.76,1.88h4.68v-.22a2.54,2.54,0,0,0-.61-1.74,2.09,2.09,0,0,0-1.66-.65Z"/><path class="cls-2" d="M391.53,169.44h5.19v.76h-6.28v-.66l4.82-6.58h-4.67v-.76h5.78v.65Z"/><path class="cls-2" d="M408.46,166.42a4.61,4.61,0,0,1-.81,2.86,2.65,2.65,0,0,1-2.27,1.07,3.08,3.08,0,0,1-1.51-.35,2.71,2.71,0,0,1-1-1l-.1,1.2H402V158.67h.88v4.79a2.73,2.73,0,0,1,2.5-1.41,2.61,2.61,0,0,1,2.27,1.15,5.2,5.2,0,0,1,.81,3Zm-.89-.15a4.71,4.71,0,0,0-.59-2.5,1.93,1.93,0,0,0-1.75-1,2.27,2.27,0,0,0-1.51.46,2.74,2.74,0,0,0-.84,1.18v3.63a2.53,2.53,0,0,0,.88,1.11,2.48,2.48,0,0,0,1.46.41,2,2,0,0,0,1.74-.86,4.06,4.06,0,0,0,.58-2.31Z"/><path class="cls-2" d="M414.11,163l-.66,0a2,2,0,0,0-1.37.47,2.59,2.59,0,0,0-.76,1.29v5.51h-.88v-8h.76l.11,1.33v.09a2.87,2.87,0,0,1,.93-1.15,2.34,2.34,0,0,1,1.39-.42H414l.26.05Z"/><path class="cls-2" d="M416.57,159.91h-.88v-1.24h.88Zm0,10.28h-.88v-8h.88Z"/><path class="cls-2" d="M418.66,166.27a5.18,5.18,0,0,1,.82-3,2.63,2.63,0,0,1,2.27-1.15,2.8,2.8,0,0,1,1.47.37,3,3,0,0,1,1,1.05l.11-1.28h.76v7.89a3.38,3.38,0,0,1-.85,2.43,3.12,3.12,0,0,1-2.37.89,5.83,5.83,0,0,1-1.22-.14,4.8,4.8,0,0,1-1.13-.39l.23-.76a4.54,4.54,0,0,0,1,.36,4.94,4.94,0,0,0,1.12.12,2.27,2.27,0,0,0,1.76-.67,2.72,2.72,0,0,0,.6-1.87v-1a2.81,2.81,0,0,1-1,.94,3,3,0,0,1-1.44.33,2.68,2.68,0,0,1-2.27-1.07,4.6,4.6,0,0,1-.82-2.86Zm.88.16a4,4,0,0,0,.59,2.31,2,2,0,0,0,1.75.86,2.46,2.46,0,0,0,1.43-.39,2.56,2.56,0,0,0,.88-1.09v-3.7a2.81,2.81,0,0,0-.85-1.15,2.27,2.27,0,0,0-1.45-.45,2,2,0,0,0-1.76,1,4.67,4.67,0,0,0-.6,2.5Z"/><path class="cls-2" d="M430.44,170.35a3.21,3.21,0,0,1-2.5-1.1,4,4,0,0,1-1-2.81V166a4.17,4.17,0,0,1,1-2.84,3,3,0,0,1,2.39-1.13,3,3,0,0,1,2.31.93,3.55,3.55,0,0,1,.84,2.48v.76h-5.64v.21a3.52,3.52,0,0,0,.72,2.27,2.27,2.27,0,0,0,1.88.91,3.87,3.87,0,0,0,1.41-.23,2.77,2.77,0,0,0,1-.66l.38.6a3.21,3.21,0,0,1-1.14.76A4.36,4.36,0,0,1,430.44,170.35Zm-.11-7.56a2.12,2.12,0,0,0-1.65.76,3.21,3.21,0,0,0-.76,1.88h4.67v-.22a2.54,2.54,0,0,0-.61-1.74,2.09,2.09,0,0,0-1.66-.65Z"/><path class="cls-3" d="M158.94,193.22v-9.35l8.09,4.67Z"/><path class="cls-2" d="M173.12,188v4.86h-.88V182.13h3.64a4.08,4.08,0,0,1,2.65.76,2.69,2.69,0,0,1,.92,2.21,2.53,2.53,0,0,1-.49,1.51,2.81,2.81,0,0,1-1.4,1,2.34,2.34,0,0,1,1.44.9,2.82,2.82,0,0,1,.44,1.62v1a3.16,3.16,0,0,0,.12.9,1.4,1.4,0,0,0,.39.65v.17h-.9a1.51,1.51,0,0,1-.39-.76,4.42,4.42,0,0,1-.11-1v-1a2,2,0,0,0-.64-1.57,2.58,2.58,0,0,0-1.78-.57Zm0-.76h2.65a3.18,3.18,0,0,0,2.12-.59,2,2,0,0,0,.67-1.58,2,2,0,0,0-.67-1.63,3,3,0,0,0-2-.57h-2.76Z"/><path class="cls-2" d="M187,192.87q-.09-.41-.13-.7a4.86,4.86,0,0,1,0-.6,3.52,3.52,0,0,1-1.18,1,3.34,3.34,0,0,1-1.66.42,2.51,2.51,0,0,1-1.81-.62,2.2,2.2,0,0,1-.64-1.66,2.06,2.06,0,0,1,1-1.77,4.45,4.45,0,0,1,2.58-.67h1.72v-1a1.7,1.7,0,0,0-.55-1.35,2.27,2.27,0,0,0-1.51-.48,2.45,2.45,0,0,0-1.51.47,1.39,1.39,0,0,0-.61,1.13h-.81v0a1.91,1.91,0,0,1,.82-1.6,3.34,3.34,0,0,1,2.19-.7,3.21,3.21,0,0,1,2.12.67,2.37,2.37,0,0,1,.8,1.93v3.93a6.9,6.9,0,0,0,0,.82,5.13,5.13,0,0,0,.16.76Zm-2.9-.63a3.16,3.16,0,0,0,1.69-.45,2.65,2.65,0,0,0,1.06-1.14V189h-1.78a3.25,3.25,0,0,0-1.92.51,1.51,1.51,0,0,0-.76,1.27,1.38,1.38,0,0,0,.45,1.06A1.76,1.76,0,0,0,184.13,192.25Z"/><path class="cls-2" d="M190.7,192.12h5.19v.76h-6.28v-.66l4.82-6.58h-4.67v-.76h5.78v.65Z"/><path class="cls-2" d="M198.28,184.89l.08,1.4a2.85,2.85,0,0,1,1-1.14,2.89,2.89,0,0,1,1.51-.4,2.46,2.46,0,0,1,2,.76,3.78,3.78,0,0,1,.68,2.48v4.87h-.84V188a2.9,2.9,0,0,0-.51-1.94,1.86,1.86,0,0,0-1.46-.57,2.27,2.27,0,0,0-1.51.49,2.74,2.74,0,0,0-.85,1.31v5.59h-.88v-8Z"/><path class="cls-2" d="M205.43,188.8a4.29,4.29,0,0,1,1-2.9,3.48,3.48,0,0,1,4.91-.22l.22.22a4.29,4.29,0,0,1,1,2.9V189a4.3,4.3,0,0,1-1,2.9,3.49,3.49,0,0,1-4.94.2l-.2-.2a4.29,4.29,0,0,1-1-2.9Zm.88.24a3.78,3.78,0,0,0,.7,2.33,2.48,2.48,0,0,0,3.89,0,3.78,3.78,0,0,0,.7-2.33v-.24a3.78,3.78,0,0,0-.71-2.31,2.46,2.46,0,0,0-3.89,0,3.78,3.78,0,0,0-.7,2.31Z"/><path class="cls-2" d="M216.5,190.88l.26.94h0l.28-.94,2.17-6h.91l-3,8h-.71l-3-8h.91Z"/><path class="cls-2" d="M225.3,185.64l-.66,0a2,2,0,0,0-1.37.47,2.59,2.59,0,0,0-.76,1.29v5.51h-.88v-8h.76l.11,1.33v.09a2.87,2.87,0,0,1,.93-1.15,2.34,2.34,0,0,1,1.39-.42h.33l.26.05Z"/><path class="cls-2" d="M231.56,190.84a1.29,1.29,0,0,0-.46-1,3.78,3.78,0,0,0-1.66-.69,5.59,5.59,0,0,1-2.12-.82,1.69,1.69,0,0,1-.68-1.44,1.93,1.93,0,0,1,.76-1.51,3.12,3.12,0,0,1,2-.63,3.21,3.21,0,0,1,2.14.67,2,2,0,0,1,.76,1.67v0h-.82A1.51,1.51,0,0,0,231,186a2.65,2.65,0,0,0-3-.08,1.25,1.25,0,0,0-.48,1,1.15,1.15,0,0,0,.42.91,4.08,4.08,0,0,0,1.66.64,5.43,5.43,0,0,1,2.13.87,1.8,1.8,0,0,1,.71,1.51,1.94,1.94,0,0,1-.81,1.62,4.06,4.06,0,0,1-4.42-.08,2,2,0,0,1-.76-1.66v0h.81a1.46,1.46,0,0,0,.7,1.25,3,3,0,0,0,1.51.39,2.45,2.45,0,0,0,1.51-.42A1.24,1.24,0,0,0,231.56,190.84Z"/><path class="cls-2" d="M235.25,184.89l.08,1.4a2.85,2.85,0,0,1,1-1.14,2.89,2.89,0,0,1,1.51-.4,2.46,2.46,0,0,1,2,.76,3.78,3.78,0,0,1,.68,2.48v4.87h-.88V188a2.9,2.9,0,0,0-.51-1.94,1.86,1.86,0,0,0-1.46-.57,2.27,2.27,0,0,0-1.51.49,2.74,2.74,0,0,0-.85,1.31v5.59h-.83v-8Z"/><path class="cls-2" d="M247.95,192.87q-.09-.41-.13-.7a4.86,4.86,0,0,1,0-.6,3.52,3.52,0,0,1-1.23,1,3.34,3.34,0,0,1-1.66.42,2.51,2.51,0,0,1-1.81-.62,2.2,2.2,0,0,1-.64-1.66,2.06,2.06,0,0,1,1-1.77,4.45,4.45,0,0,1,2.58-.67h1.76v-1a1.7,1.7,0,0,0-.55-1.35,2.27,2.27,0,0,0-1.51-.48,2.45,2.45,0,0,0-1.51.47,1.39,1.39,0,0,0-.61,1.13h-.81v0a1.91,1.91,0,0,1,.82-1.6,3.34,3.34,0,0,1,2.19-.7,3.21,3.21,0,0,1,2.12.67,2.37,2.37,0,0,1,.8,1.93v3.93a6.9,6.9,0,0,0,0,.82,5.13,5.13,0,0,0,.16.76Zm-2.9-.63a3.16,3.16,0,0,0,1.69-.45,2.65,2.65,0,0,0,1.06-1.14V189H246a3.25,3.25,0,0,0-1.92.51,1.51,1.51,0,0,0-.76,1.27,1.38,1.38,0,0,0,.45,1.06,1.76,1.76,0,0,0,1.29.42Z"/><path class="cls-2" d="M255.66,182.6h-.88v-1.24h.88Zm0,10.28h-.88v-8h.88Z"/><path class="cls-2" d="M262.6,184.89l.08,1.4a2.85,2.85,0,0,1,1-1.14,2.89,2.89,0,0,1,1.51-.4,2.46,2.46,0,0,1,2,.76,3.78,3.78,0,0,1,.68,2.48v4.87H267V188a2.9,2.9,0,0,0-.51-1.94,1.86,1.86,0,0,0-1.46-.57,2.27,2.27,0,0,0-1.51.49,2.74,2.74,0,0,0-.85,1.31v5.59h-.88v-8Z"/><path class="cls-2" d="M269.73,188.8a4.29,4.29,0,0,1,1-2.9,3.48,3.48,0,0,1,4.91-.22l.22.22a4.29,4.29,0,0,1,1,2.9V189a4.3,4.3,0,0,1-1,2.9,3.49,3.49,0,0,1-4.94.2l-.2-.2a4.29,4.29,0,0,1-1-2.9Zm.88.24a3.78,3.78,0,0,0,.7,2.33,2.48,2.48,0,0,0,3.89,0,3.78,3.78,0,0,0,.7-2.33v-.24a3.78,3.78,0,0,0-.71-2.31,2.46,2.46,0,0,0-3.89,0,3.78,3.78,0,0,0-.7,2.31Z"/><path class="cls-2" d="M280.85,190.88l.26.94h0l.28-.94,2.17-6h.91l-3,8h-.71l-3-8h.91Z"/><path class="cls-2" d="M290.92,192.87q-.09-.41-.13-.7a4.86,4.86,0,0,1,0-.6,3.52,3.52,0,0,1-1.18,1,3.34,3.34,0,0,1-1.66.42,2.51,2.51,0,0,1-1.81-.62,2.2,2.2,0,0,1-.64-1.66,2.06,2.06,0,0,1,1-1.77,4.45,4.45,0,0,1,2.58-.67h1.76v-1a1.7,1.7,0,0,0-.55-1.35,2.27,2.27,0,0,0-1.51-.48,2.45,2.45,0,0,0-1.51.47,1.39,1.39,0,0,0-.61,1.13h-.81v0a1.91,1.91,0,0,1,.82-1.6,3.34,3.34,0,0,1,2.19-.7,3.21,3.21,0,0,1,2.12.67,2.37,2.37,0,0,1,.8,1.93v3.93a6.9,6.9,0,0,0,0,.82,5.13,5.13,0,0,0,.16.76Zm-2.9-.63a3.16,3.16,0,0,0,1.67-.42,2.65,2.65,0,0,0,1.06-1.14V189H289a3.25,3.25,0,0,0-1.92.51,1.51,1.51,0,0,0-.76,1.27,1.38,1.38,0,0,0,.45,1.06,1.76,1.76,0,0,0,1.29.39Z"/><path class="cls-2" d="M304.11,189.1a4.61,4.61,0,0,1-.81,2.86A2.65,2.65,0,0,1,301,193a3.24,3.24,0,0,1-1.47-.32,2.67,2.67,0,0,1-1-.91v4.14h-.88V184.89h.76l.11,1.24a2.84,2.84,0,0,1,1-1,2.94,2.94,0,0,1,1.51-.36,2.61,2.61,0,0,1,2.27,1.15,5.2,5.2,0,0,1,.81,3Zm-.88-.17a4.59,4.59,0,0,0-.6-2.48,2,2,0,0,0-1.77-1,2.33,2.33,0,0,0-1.45.42,2.62,2.62,0,0,0-.84,1.1v3.84a2.42,2.42,0,0,0,.88,1,2.55,2.55,0,0,0,1.43.38,2,2,0,0,0,1.76-.87,4,4,0,0,0,.6-2.31Z"/><path class="cls-2" d="M309.77,185.64l-.66,0a2,2,0,0,0-1.37.47,2.59,2.59,0,0,0-.76,1.29v5.51h-.88v-8h.76l.11,1.33v.09a2.87,2.87,0,0,1,.93-1.15,2.34,2.34,0,0,1,1.39-.42h.33l.26.05Z"/><path class="cls-2" d="M314.1,193a3.21,3.21,0,0,1-2.5-1.1,4,4,0,0,1-1-2.81v-.41a4.17,4.17,0,0,1,1-2.84,3,3,0,0,1,2.39-1.13,3,3,0,0,1,2.31.93,3.55,3.55,0,0,1,.84,2.48v.76H311.5v.21a3.52,3.52,0,0,0,.72,2.27,2.27,2.27,0,0,0,1.88.91,3.87,3.87,0,0,0,1.41-.23,2.77,2.77,0,0,0,1-.66l.38.6a3.21,3.21,0,0,1-1.14.76A4.36,4.36,0,0,1,314.1,193Zm-.11-7.56a2.12,2.12,0,0,0-1.65.76,3.21,3.21,0,0,0-.76,1.88h4.68v-.22a2.54,2.54,0,0,0-.61-1.74,2.09,2.09,0,0,0-1.66-.65Z"/><path class="cls-2" d="M319.64,184.89l.08,1.32a2.81,2.81,0,0,1,1-1.09,2.9,2.9,0,0,1,1.51-.39,2.56,2.56,0,0,1,1.51.45,2.43,2.43,0,0,1,.88,1.35,3,3,0,0,1,1-1.32,2.73,2.73,0,0,1,1.63-.48,2.4,2.4,0,0,1,2,.85,4.11,4.11,0,0,1,.7,2.63v4.66h-.88v-4.69a3.25,3.25,0,0,0-.52-2.09,1.81,1.81,0,0,0-1.45-.61,2,2,0,0,0-1.59.64,3,3,0,0,0-.7,1.65v5.1h-.89v-4.69a3.22,3.22,0,0,0-.53-2.08,1.8,1.8,0,0,0-1.45-.63,2.19,2.19,0,0,0-1.51.48,2.53,2.53,0,0,0-.76,1.29v5.63h-.89v-8Z"/><path class="cls-2" d="M333.28,182.6h-.88v-1.24h.88Zm0,10.28h-.88v-8h.88Z"/><path class="cls-2" d="M341,191.56a2.75,2.75,0,0,1-1,1.08,3,3,0,0,1-1.51.38,2.44,2.44,0,0,1-2-.85,4.09,4.09,0,0,1-.72-2.66v-4.63h.85v4.67a3.45,3.45,0,0,0,.5,2.1,1.69,1.69,0,0,0,1.41.64,2.6,2.6,0,0,0,1.6-.45,2.34,2.34,0,0,0,.83-1.24V184.9h.88v8H341Z"/><path class="cls-2" d="M344.88,184.89l.08,1.32a2.81,2.81,0,0,1,1-1.09,2.9,2.9,0,0,1,1.51-.39,2.56,2.56,0,0,1,1.51.45,2.43,2.43,0,0,1,.88,1.35,3,3,0,0,1,1-1.32,2.73,2.73,0,0,1,1.63-.48,2.4,2.4,0,0,1,2,.85,4.11,4.11,0,0,1,.7,2.63v4.66h-.88v-4.69a3.25,3.25,0,0,0-.52-2.09,1.81,1.81,0,0,0-1.45-.61,2,2,0,0,0-1.59.64,3,3,0,0,0-.7,1.65v5.1h-.89v-4.69a3.22,3.22,0,0,0-.53-2.08,1.8,1.8,0,0,0-1.45-.63,2.19,2.19,0,0,0-1.51.48,2.53,2.53,0,0,0-.76,1.29v5.63h-.81v-8Z"/><path class="cls-2" d="M361.86,192.87v-7.27h-1.32v-.76h1.32v-1.16a2.66,2.66,0,0,1,.6-1.86,2.17,2.17,0,0,1,1.69-.66,3.38,3.38,0,0,1,.49,0l.51.11L365,182l-.36-.07h-.44a1.36,1.36,0,0,0-1.1.46,1.94,1.94,0,0,0-.39,1.29v1.16h1.91v.76h-1.91v7.27Z"/><path class="cls-2" d="M367.18,192.87h-.88V181.36h.88Z"/><path class="cls-2" d="M369.13,188.8a4.29,4.29,0,0,1,1-2.9,3.48,3.48,0,0,1,4.91-.22l.22.22a4.29,4.29,0,0,1,1,2.9V189a4.3,4.3,0,0,1-1,2.9,3.49,3.49,0,0,1-4.94.2l-.2-.2a4.29,4.29,0,0,1-1-2.9Zm.88.24a3.78,3.78,0,0,0,.7,2.33,2.48,2.48,0,0,0,3.89,0,3.78,3.78,0,0,0,.7-2.33v-.24a3.78,3.78,0,0,0-.71-2.31,2.46,2.46,0,0,0-3.89,0,3.78,3.78,0,0,0-.7,2.31Z"/><path class="cls-2" d="M379.43,182.84v2h1.75v.76h-1.75v5.2a1.7,1.7,0,0,0,.29,1.11,1,1,0,0,0,.76.33h.42l.47-.06.14.66a2.27,2.27,0,0,1-.54.15,4,4,0,0,1-.64.05,1.66,1.66,0,0,1-1.31-.53,2.51,2.51,0,0,1-.47-1.69v-5.2h-1.38v-.76h1.38v-2Z"/><path class="cls-2" d="M388.12,192.87q-.09-.41-.13-.7a4.86,4.86,0,0,1,0-.6,3.52,3.52,0,0,1-1.18,1,3.34,3.34,0,0,1-1.66.42,2.51,2.51,0,0,1-1.81-.62,2.2,2.2,0,0,1-.64-1.66,2.06,2.06,0,0,1,1-1.77,4.45,4.45,0,0,1,2.58-.67H388v-1a1.7,1.7,0,0,0-.55-1.35,2.27,2.27,0,0,0-1.51-.48,2.45,2.45,0,0,0-1.51.47,1.39,1.39,0,0,0-.61,1.13h-.88v0a1.91,1.91,0,0,1,.82-1.6,3.34,3.34,0,0,1,2.19-.7,3.21,3.21,0,0,1,2.12.67,2.37,2.37,0,0,1,.8,1.93v3.93a6.9,6.9,0,0,0,0,.82,5.13,5.13,0,0,0,.16.76Zm-2.9-.63a3.16,3.16,0,0,0,1.69-.45,2.65,2.65,0,0,0,1.06-1.14V189h-1.78a3.25,3.25,0,0,0-1.92.51,1.51,1.51,0,0,0-.76,1.27,1.38,1.38,0,0,0,.45,1.06A1.76,1.76,0,0,0,385.22,192.25Z"/><path class="cls-3" d="M158.94,215.9v-9.35l8.09,4.67Z"/><path class="cls-2" d="M180.18,215.56h-.88l-6.11-9.25h0v9.24h-.88V204.8h.88l6.11,9.23h0v-9.22h.88Z"/><path class="cls-2" d="M185.75,215.71a3.21,3.21,0,0,1-2.5-1.1,4,4,0,0,1-1-2.81v-.41a4.17,4.17,0,0,1,1-2.84,3,3,0,0,1,2.39-1.13,3,3,0,0,1,2.31.93,3.55,3.55,0,0,1,.84,2.48v.76h-5.64v.21a3.52,3.52,0,0,0,.72,2.27,2.27,2.27,0,0,0,1.88.91,3.87,3.87,0,0,0,1.41-.23,2.77,2.77,0,0,0,1-.66l.38.6a3.21,3.21,0,0,1-1.14.76A4.36,4.36,0,0,1,185.75,215.71Zm-.11-7.56a2.12,2.12,0,0,0-1.65.76,3.21,3.21,0,0,0-.76,1.88h4.68v-.22a2.54,2.54,0,0,0-.61-1.74,2.09,2.09,0,0,0-1.66-.65Z"/><path class="cls-2" d="M191.29,207.57l.08,1.32a2.81,2.81,0,0,1,1-1.09,2.9,2.9,0,0,1,1.51-.39,2.56,2.56,0,0,1,1.51.45,2.43,2.43,0,0,1,.88,1.35,3,3,0,0,1,1-1.32,2.73,2.73,0,0,1,1.63-.48,2.4,2.4,0,0,1,2,.85,4.11,4.11,0,0,1,.7,2.63v4.66h-.88v-4.69a3.25,3.25,0,0,0-.52-2.09,1.81,1.81,0,0,0-1.45-.61,2,2,0,0,0-1.59.64,3,3,0,0,0-.7,1.65v5.1h-.89v-4.69a3.22,3.22,0,0,0-.53-2.08,1.8,1.8,0,0,0-1.45-.63,2.19,2.19,0,0,0-1.51.48,2.53,2.53,0,0,0-.76,1.29v5.63h-.89v-8Z"/><path class="cls-2" d="M209,215.56q-.09-.41-.13-.7a4.86,4.86,0,0,1,0-.6,3.52,3.52,0,0,1-1.18,1,3.34,3.34,0,0,1-1.66.42,2.51,2.51,0,0,1-1.81-.62,2.2,2.2,0,0,1-.64-1.66,2.06,2.06,0,0,1,1-1.77,4.45,4.45,0,0,1,2.58-.67h1.76v-1a1.7,1.7,0,0,0-.55-1.35,2.27,2.27,0,0,0-1.51-.48,2.45,2.45,0,0,0-1.51.47,1.39,1.39,0,0,0-.61,1.13h-.81v0a1.91,1.91,0,0,1,.82-1.6,3.34,3.34,0,0,1,2.19-.7,3.21,3.21,0,0,1,2.12.67,2.37,2.37,0,0,1,.8,1.93v3.93a6.9,6.9,0,0,0,0,.82,5.13,5.13,0,0,0,.16.76Zm-2.9-.63a3.16,3.16,0,0,0,1.69-.45,2.65,2.65,0,0,0,1.06-1.14v-1.67h-1.78a3.25,3.25,0,0,0-1.92.51,1.51,1.51,0,0,0-.76,1.27,1.38,1.38,0,0,0,.45,1.06,1.76,1.76,0,0,0,1.27.42Z"/><path class="cls-2" d="M216.53,207.57l.08,1.4a2.85,2.85,0,0,1,1-1.14,2.89,2.89,0,0,1,1.51-.4,2.46,2.46,0,0,1,2,.76,3.78,3.78,0,0,1,.68,2.48v4.87h-.88v-4.81a2.9,2.9,0,0,0-.51-1.94,1.86,1.86,0,0,0-1.46-.57,2.27,2.27,0,0,0-1.51.49,2.74,2.74,0,0,0-.85,1.31v5.59h-.88v-8Z"/><path class="cls-2" d="M227.17,215.71a3.21,3.21,0,0,1-2.5-1.1,4,4,0,0,1-1-2.81v-.41a4.17,4.17,0,0,1,1-2.84,3,3,0,0,1,2.39-1.13,3,3,0,0,1,2.31.93,3.55,3.55,0,0,1,.84,2.48v.76h-5.64v.21a3.52,3.52,0,0,0,.72,2.27,2.27,2.27,0,0,0,1.88.91,3.87,3.87,0,0,0,1.41-.23,2.77,2.77,0,0,0,1-.66l.38.6a3.21,3.21,0,0,1-1.14.76A4.36,4.36,0,0,1,227.17,215.71Zm-.11-7.56a2.12,2.12,0,0,0-1.65.76,3.21,3.21,0,0,0-.76,1.88h4.68v-.22a2.54,2.54,0,0,0-.61-1.74,2.09,2.09,0,0,0-1.66-.65Z"/><path class="cls-2" d="M238.39,211.78a4.61,4.61,0,0,1-.81,2.86,2.65,2.65,0,0,1-2.27,1.07,3.24,3.24,0,0,1-1.47-.32,2.67,2.67,0,0,1-1-.91v4.14h-.88V207.57h.76l.11,1.24a2.84,2.84,0,0,1,1-1,2.94,2.94,0,0,1,1.51-.36,2.61,2.61,0,0,1,2.27,1.15,5.2,5.2,0,0,1,.81,3Zm-.88-.17a4.59,4.59,0,0,0-.6-2.48,2,2,0,0,0-1.77-1,2.33,2.33,0,0,0-1.45.42,2.62,2.62,0,0,0-.84,1.1v3.84a2.42,2.42,0,0,0,.89,1,2.55,2.55,0,0,0,1.43.38,2,2,0,0,0,1.76-.87,4,4,0,0,0,.6-2.31Z"/><path class="cls-2" d="M244.06,208.33l-.66,0a2,2,0,0,0-1.37.47,2.59,2.59,0,0,0-.76,1.29v5.51h-.88v-8h.76l.11,1.33V209a2.87,2.87,0,0,1,.93-1.15,2.34,2.34,0,0,1,1.39-.42h.33l.26.05Z"/><path class="cls-2" d="M248.39,215.71a3.21,3.21,0,0,1-2.5-1.1,4,4,0,0,1-1-2.81v-.41a4.17,4.17,0,0,1,1-2.84,3,3,0,0,1,2.39-1.13,3,3,0,0,1,2.31.93,3.55,3.55,0,0,1,.84,2.48v.76h-5.64v.21a3.52,3.52,0,0,0,.72,2.27,2.27,2.27,0,0,0,1.88.91,3.87,3.87,0,0,0,1.41-.23,2.77,2.77,0,0,0,1-.66l.38.6a3.21,3.21,0,0,1-1.14.76A4.36,4.36,0,0,1,248.39,215.71Zm-.11-7.56a2.12,2.12,0,0,0-1.65.76,3.21,3.21,0,0,0-.76,1.88h4.68v-.22a2.54,2.54,0,0,0-.61-1.74,2.09,2.09,0,0,0-1.66-.65Z"/><path class="cls-2" d="M252.83,211.63a5.22,5.22,0,0,1,.81-3,2.6,2.6,0,0,1,2.27-1.15,2.84,2.84,0,0,1,1.44.36,2.93,2.93,0,0,1,1,1v-4.74h.88v11.52h-.76l-.08-1.16a2.74,2.74,0,0,1-1,1,3,3,0,0,1-1.51.34,2.65,2.65,0,0,1-2.27-1.07,4.63,4.63,0,0,1-.81-2.86Zm.88.16a4.08,4.08,0,0,0,.58,2.31A2,2,0,0,0,256,215a2.5,2.5,0,0,0,1.43-.39,2.56,2.56,0,0,0,.89-1.07v-3.78a2.85,2.85,0,0,0-.85-1.13,2.27,2.27,0,0,0-1.44-.43,1.92,1.92,0,0,0-1.75,1,4.73,4.73,0,0,0-.59,2.5Z"/><path class="cls-2" d="M263.87,213.56l.26.94h0l.28-.94,2.17-6h.91l-3,8h-.71l-3-8h.91Z"/><path class="cls-2" d="M270,205.28h-.88V204H270Zm0,10.28h-.88v-8H270Z"/><path class="cls-2" d="M272.08,211.63a5.22,5.22,0,0,1,.81-3,2.6,2.6,0,0,1,2.27-1.15,2.84,2.84,0,0,1,1.44.36,2.93,2.93,0,0,1,1,1v-4.74h.88v11.52h-.76l-.08-1.16a2.74,2.74,0,0,1-1,1,3,3,0,0,1-1.51.34,2.65,2.65,0,0,1-2.27-1.07,4.63,4.63,0,0,1-.81-2.86Zm.88.16a4.08,4.08,0,0,0,.58,2.31,2,2,0,0,0,1.77.85,2.5,2.5,0,0,0,1.43-.39,2.56,2.56,0,0,0,.89-1.07v-3.78a2.85,2.85,0,0,0-.85-1.13,2.27,2.27,0,0,0-1.44-.43,1.92,1.92,0,0,0-1.75,1,4.73,4.73,0,0,0-.59,2.5Z"/><path class="cls-2" d="M281.84,205.28H281V204h.88Zm0,10.28H281v-8h.88Z"/><path class="cls-2" d="M286.56,213.56l.26.94h0l.28-.94,2.17-6h.91l-3,8h-.71l-3-8h.91Z"/><path class="cls-2" d="M292.67,205.28h-.88V204h.88Zm0,10.28h-.88v-8h.88Z"/><path class="cls-2" d="M296,208.93a2.86,2.86,0,0,1,2.62-1.51,2.42,2.42,0,0,1,1.94.76,3.66,3.66,0,0,1,.67,2.43v4.92h-.88v-5a2.75,2.75,0,0,0-.51-1.87,1.81,1.81,0,0,0-1.41-.57,2.38,2.38,0,0,0-1.51.48,2.77,2.77,0,0,0-.9,1.27v5.64h-.88V204H296Z"/><path class="cls-2" d="M308.59,205.52v2h1.75v.76h-1.75v5.2a1.7,1.7,0,0,0,.29,1.11,1,1,0,0,0,.76.33H310l.47-.06.14.66a2.27,2.27,0,0,1-.54.15,4,4,0,0,1-.64.05,1.66,1.66,0,0,1-1.31-.53,2.51,2.51,0,0,1-.47-1.69v-5.2h-1.38v-.76h1.38v-2Z"/><path class="cls-2" d="M315.91,208.33l-.66,0a2,2,0,0,0-1.37.47,2.59,2.59,0,0,0-.76,1.29v5.51h-.88v-8H313l.11,1.33V209a2.87,2.87,0,0,1,.93-1.15,2.34,2.34,0,0,1,1.39-.42h.33l.26.05Z"/><path class="cls-2" d="M316.73,211.48a4.29,4.29,0,0,1,1-2.9,3.48,3.48,0,0,1,4.91-.22l.22.22a4.29,4.29,0,0,1,1,2.9v.24a4.3,4.3,0,0,1-1,2.9,3.49,3.49,0,0,1-4.94.2l-.2-.2a4.29,4.29,0,0,1-1-2.9Zm.88.24a3.78,3.78,0,0,0,.7,2.33,2.48,2.48,0,0,0,3.89,0,3.78,3.78,0,0,0,.7-2.33v-.24a3.78,3.78,0,0,0-.71-2.31,2.46,2.46,0,0,0-3.89,0,3.78,3.78,0,0,0-.7,2.31Z"/><path class="cls-2" d="M330.43,213.52a1.29,1.29,0,0,0-.46-1,3.78,3.78,0,0,0-1.66-.69,5.59,5.59,0,0,1-2.12-.82,1.69,1.69,0,0,1-.68-1.44,1.93,1.93,0,0,1,.76-1.51,3.12,3.12,0,0,1,2-.63,3.21,3.21,0,0,1,2.14.67,2,2,0,0,1,.76,1.67v0h-.82a1.51,1.51,0,0,0-.56-1.14,2.65,2.65,0,0,0-3-.08,1.25,1.25,0,0,0-.48,1,1.15,1.15,0,0,0,.42.91,4.08,4.08,0,0,0,1.66.64,5.43,5.43,0,0,1,2.13.87,1.8,1.8,0,0,1,.71,1.51,1.94,1.94,0,0,1-.81,1.62,4.06,4.06,0,0,1-4.42-.08,2,2,0,0,1-.76-1.66v0h.81a1.46,1.46,0,0,0,.7,1.25,3,3,0,0,0,1.51.39,2.45,2.45,0,0,0,1.51-.42A1.24,1.24,0,0,0,330.43,213.52Zm-2.12-8,1.22-1.25h.85v.13l-1.72,1.66h-.72l-1.72-1.66v-.13h.84Z"/><path class="cls-2" d="M335.26,211.66h-1v3.9h-.88V204h.88v6.87h.93l3-3.33h1l-3.2,3.6,3.53,4.32h-1Z"/><path class="cls-2" d="M340.28,211.48a4.29,4.29,0,0,1,1-2.9,3.48,3.48,0,0,1,4.91-.22l.22.22a4.29,4.29,0,0,1,1,2.9v.24a4.3,4.3,0,0,1-1,2.9,3.49,3.49,0,0,1-4.94.2l-.2-.2a4.29,4.29,0,0,1-1-2.9Zm.88.24a3.78,3.78,0,0,0,.7,2.33,2.48,2.48,0,0,0,3.89,0,3.78,3.78,0,0,0,.7-2.33v-.24a3.78,3.78,0,0,0-.71-2.31,2.46,2.46,0,0,0-3.89,0,3.78,3.78,0,0,0-.7,2.31Z"/><path class="cls-2" d="M351.35,213.56l.26.94h.08l.28-.94,2.17-6h.91l-3,8h-.71l-3-8h.91Z"/><path class="cls-2" d="M361.43,215.56q-.09-.41-.13-.7a4.86,4.86,0,0,1,0-.6,3.52,3.52,0,0,1-1.18,1,3.34,3.34,0,0,1-1.66.42,2.51,2.51,0,0,1-1.81-.62,2.2,2.2,0,0,1-.64-1.66,2.06,2.06,0,0,1,1-1.77,4.45,4.45,0,0,1,2.58-.67h1.76v-1a1.7,1.7,0,0,0-.55-1.35,2.27,2.27,0,0,0-1.51-.48,2.45,2.45,0,0,0-1.51.47,1.39,1.39,0,0,0-.61,1.13h-.88v0a1.91,1.91,0,0,1,.82-1.6,3.34,3.34,0,0,1,2.19-.7,3.21,3.21,0,0,1,2.12.67,2.37,2.37,0,0,1,.8,1.93v3.93a6.9,6.9,0,0,0,0,.82,5.13,5.13,0,0,0,.16.76Zm-2.9-.63a3.16,3.16,0,0,0,1.69-.45,2.65,2.65,0,0,0,1.06-1.14v-1.67H359.5a3.25,3.25,0,0,0-1.92.51,1.51,1.51,0,0,0-.76,1.27,1.38,1.38,0,0,0,.45,1.06,1.76,1.76,0,0,0,1.26.42Z"/><path class="cls-2" d="M113.77,266.59h-9.18v-1.76l4.39-4.66a10.53,10.53,0,0,0,1.3-1.81,3,3,0,0,0,.39-1.38,2.08,2.08,0,0,0-.45-1.39,1.6,1.6,0,0,0-1.29-.54,1.68,1.68,0,0,0-1.41.64,2.7,2.7,0,0,0-.48,1.69H104.4v-.05a4.06,4.06,0,0,1,1.19-3.08,4.48,4.48,0,0,1,3.34-1.26,4.67,4.67,0,0,1,3.27,1.08,3.7,3.7,0,0,1,1.19,2.88,4,4,0,0,1-.67,2.27,22.23,22.23,0,0,1-2.24,2.65l-2.39,2.6v0h5.65Z"/><path class="cls-2" d="M123.34,261.6h1.51v2h-1.51v2.92h-2.69v-2.92h-5.48l-.14-1.59,5.57-8.91h2.74Zm-5.78,0h3.09v-4.85h-.05l-.21.38Z"/><path class="cls-2" d="M127.88,267.75h-2.64l4.91-14.59h2.65Z"/><path class="cls-2" d="M143,255.23a15.75,15.75,0,0,0-2.95,4.72,23.17,23.17,0,0,0-1.13,5.29l-.13,1.37h-2.66l.13-1.37a19.36,19.36,0,0,1,1.35-5.44,16.81,16.81,0,0,1,2.84-4.54h-6.9v-2.08H143Z"/><path class="cls-2" d="M146.32,267.75H143.7l4.93-14.59h2.62Z"/><path class="cls-2" d="M155.1,258.73h1.51a1.84,1.84,0,0,0,1.42-.51,2,2,0,0,0,.46-1.4,1.82,1.82,0,0,0-.46-1.3,1.75,1.75,0,0,0-1.34-.49,1.89,1.89,0,0,0-1.28.45,1.46,1.46,0,0,0-.51,1.16h-2.61v-.05a3,3,0,0,1,1.21-2.6,4.82,4.82,0,0,1,3.14-1,5.16,5.16,0,0,1,3.33,1,3.44,3.44,0,0,1,1.24,2.84,2.85,2.85,0,0,1-.55,1.66,3.68,3.68,0,0,1-1.51,1.23,3.43,3.43,0,0,1,1.7,1.22,3.21,3.21,0,0,1,.58,1.91,3.49,3.49,0,0,1-1.35,2.9,5.39,5.39,0,0,1-3.44,1.06,5.29,5.29,0,0,1-3.21-1,3.17,3.17,0,0,1-1.29-2.81v-.05h2.62a1.64,1.64,0,0,0,.55,1.27,2,2,0,0,0,1.41.5,2,2,0,0,0,1.47-.51,1.84,1.84,0,0,0,.54-1.4,2,2,0,0,0-.53-1.55,2.22,2.22,0,0,0-1.57-.49h-1.51Z"/><path class="cls-2" d="M168.6,253a6.44,6.44,0,0,1,1.4.14,7.34,7.34,0,0,1,1.29.42l-.48,2a9.9,9.9,0,0,0-1.08-.32,5.1,5.1,0,0,0-1.1-.11,2.41,2.41,0,0,0-2,.91,3.72,3.72,0,0,0-.69,2.54v0a3.13,3.13,0,0,1,1.14-.76,4.3,4.3,0,0,1,1.6-.22,3.41,3.41,0,0,1,2.82,1.28,5.07,5.07,0,0,1,1,3.26,4.66,4.66,0,0,1-1.26,3.35,4.31,4.31,0,0,1-3.27,1.32,4.54,4.54,0,0,1-3.47-1.44,5.66,5.66,0,0,1-1.34-4v-2.62a5.75,5.75,0,0,1,1.51-4.2A5.19,5.19,0,0,1,168.6,253Zm-.62,6.65a3,3,0,0,0-1.27.24,1.92,1.92,0,0,0-.81.66v.87a4.37,4.37,0,0,0,.57,2.45,1.77,1.77,0,0,0,1.51.85,1.51,1.51,0,0,0,1.33-.76,3.26,3.26,0,0,0,.51-1.84,3,3,0,0,0-.51-1.81,1.6,1.6,0,0,0-1.37-.67Z"/><path class="cls-2" d="M174.39,260.63l.76-7.49h7.49v2.19h-5.29l-.37,3.1a3.22,3.22,0,0,1,.89-.45,4.21,4.21,0,0,1,4.17,1,4.86,4.86,0,0,1,1.07,3.34,4.6,4.6,0,0,1-1.16,3.22,4.32,4.32,0,0,1-3.36,1.29,5.05,5.05,0,0,1-3.18-1,3.21,3.21,0,0,1-1.27-2.79v0l2.59-.13a1.88,1.88,0,0,0,.51,1.4,1.81,1.81,0,0,0,1.33.51,1.56,1.56,0,0,0,1.39-.67,3.08,3.08,0,0,0,.45-1.75,3.24,3.24,0,0,0-.48-1.86,1.61,1.61,0,0,0-1.42-.7,2.06,2.06,0,0,0-1.19.29,1.57,1.57,0,0,0-.59.76Z"/><path class="cls-3" d="M158.94,312.31V303l8.09,4.67Z"/><path class="cls-2" d="M174.62,306.91h-1.51V312h-.85V301.21h.88v4.94h1.47l4.23-4.94h1l-4.45,5.25,4.76,5.42h-1.05Z"/><path class="cls-2" d="M181,307.85a4.29,4.29,0,0,1,1-2.9,3.48,3.48,0,0,1,4.91-.22l.22.22a4.29,4.29,0,0,1,1,2.9v.24a4.3,4.3,0,0,1-1,2.9,3.49,3.49,0,0,1-4.94.2l-.2-.2a4.29,4.29,0,0,1-1-2.9Zm.88.24a3.78,3.78,0,0,0,.7,2.33,2.48,2.48,0,0,0,3.89,0,3.78,3.78,0,0,0,.7-2.33v-.24a3.78,3.78,0,0,0-.71-2.31,2.46,2.46,0,0,0-3.89,0,3.78,3.78,0,0,0-.7,2.31Z"/><path class="cls-2" d="M193.58,304.73l-.66,0a2,2,0,0,0-1.37.47,2.59,2.59,0,0,0-.76,1.29V312h-.91v-8h.76l.11,1.33v.09a2.87,2.87,0,0,1,.93-1.15,2.34,2.34,0,0,1,1.39-.42h.33l.26.05Z"/><path class="cls-2" d="M196,301.68h-.86v-1.24h.88ZM196,312h-.86v-8h.88Z"/><path class="cls-2" d="M203.26,309.93a1.29,1.29,0,0,0-.46-1,3.78,3.78,0,0,0-1.66-.69,5.59,5.59,0,0,1-2.12-.82,1.69,1.69,0,0,1-.68-1.44,1.93,1.93,0,0,1,.76-1.51,3.12,3.12,0,0,1,2-.63,3.21,3.21,0,0,1,2.14.67,2,2,0,0,1,.76,1.67v0h-.82a1.51,1.51,0,0,0-.56-1.14,2.65,2.65,0,0,0-3-.08,1.25,1.25,0,0,0-.48,1,1.15,1.15,0,0,0,.42.91,4.07,4.07,0,0,0,1.66.64,5.44,5.44,0,0,1,2.13.87,1.8,1.8,0,0,1,.71,1.51,1.94,1.94,0,0,1-.81,1.62,4.06,4.06,0,0,1-4.42-.08,2,2,0,0,1-.76-1.66v0h.8a1.45,1.45,0,0,0,.7,1.25,3,3,0,0,0,1.51.39,2.45,2.45,0,0,0,1.51-.42A1.24,1.24,0,0,0,203.26,309.93Z"/><path class="cls-2" d="M207,304l.08,1.4a2.84,2.84,0,0,1,1-1.14,2.9,2.9,0,0,1,1.51-.4,2.46,2.46,0,0,1,2,.76,3.78,3.78,0,0,1,.68,2.48v4.87h-.88v-4.87a2.9,2.9,0,0,0-.51-1.94,1.86,1.86,0,0,0-1.46-.57,2.27,2.27,0,0,0-1.51.49,2.74,2.74,0,0,0-.85,1.31v5.59h-.88v-8Z"/><path class="cls-2" d="M215.59,301.68h-.88v-1.24h.88Zm0,10.28h-.88v-8h.88Z"/><path class="cls-2" d="M221,311.36a2.53,2.53,0,0,0,1.55-.5,1.63,1.63,0,0,0,.67-1.39H224v0a2.19,2.19,0,0,1-.88,1.85,3.3,3.3,0,0,1-2.13.76,3,3,0,0,1-2.52-1.12,4.48,4.48,0,0,1-.89-2.87v-.31a4.45,4.45,0,0,1,.89-2.87,3,3,0,0,1,2.51-1.12,3.18,3.18,0,0,1,2.19.76,2.51,2.51,0,0,1,.85,2v0h-.76a1.94,1.94,0,0,0-.64-1.51,2.27,2.27,0,0,0-1.58-.57,2.13,2.13,0,0,0-1.9.91,4.06,4.06,0,0,0-.62,2.31v.31a4.11,4.11,0,0,0,.61,2.33A2.14,2.14,0,0,0,221,311.36Zm-.11-9.4,1.22-1.25H223v.13l-1.72,1.66h-.72l-1.72-1.66v-.14h.84Z"/><path class="cls-2" d="M227.78,308.07h-1V312h-.88V300.44h.88v6.87h.93l3-3.33h1l-3.2,3.6,3.53,4.32h-1Z"/><path class="cls-2" d="M238.35,312c-.06-.27-.1-.51-.13-.7a4.87,4.87,0,0,1,0-.6,3.52,3.52,0,0,1-1.18,1,3.34,3.34,0,0,1-1.66.42,2.51,2.51,0,0,1-1.81-.62,2.2,2.2,0,0,1-.64-1.66,2.06,2.06,0,0,1,1-1.77,4.45,4.45,0,0,1,2.58-.67h1.76v-1a1.7,1.7,0,0,0-.55-1.35,2.27,2.27,0,0,0-1.51-.48,2.45,2.45,0,0,0-1.51.47,1.39,1.39,0,0,0-.61,1.13h-.81v0a1.91,1.91,0,0,1,.82-1.6,3.34,3.34,0,0,1,2.19-.7,3.21,3.21,0,0,1,2,.64,2.37,2.37,0,0,1,.8,1.93v3.93a6.9,6.9,0,0,0,0,.82,5.13,5.13,0,0,0,.16.76Zm-2.9-.63a3.17,3.17,0,0,0,1.69-.45,2.65,2.65,0,0,0,1.06-1.14v-1.67h-1.78a3.25,3.25,0,0,0-1.92.51,1.51,1.51,0,0,0-.76,1.27,1.38,1.38,0,0,0,.45,1.06,1.76,1.76,0,0,0,1.26.42Z"/><path class="cls-2" d="M251.53,308.19a4.61,4.61,0,0,1-.81,2.86,2.65,2.65,0,0,1-2.27,1.07,3.24,3.24,0,0,1-1.47-.32,2.68,2.68,0,0,1-1-.91v4.18h-.88V304h.76l.11,1.24a2.84,2.84,0,0,1,1-1,2.94,2.94,0,0,1,1.51-.36,2.61,2.61,0,0,1,2.27,1.15,5.2,5.2,0,0,1,.81,3Zm-.88-.17a4.59,4.59,0,0,0-.6-2.49,2,2,0,0,0-1.77-1,2.33,2.33,0,0,0-1.45.42,2.61,2.61,0,0,0-.84,1.1v3.84a2.42,2.42,0,0,0,.88,1,2.55,2.55,0,0,0,1.43.38,2,2,0,0,0,1.76-.87,4,4,0,0,0,.6-2.31Z"/><path class="cls-2" d="M253,307.85a4.29,4.29,0,0,1,1-2.9,3.48,3.48,0,0,1,4.91-.22l.22.22a4.29,4.29,0,0,1,1,2.9v.24a4.3,4.3,0,0,1-1,2.9,3.49,3.49,0,0,1-4.94.2l-.2-.2a4.29,4.29,0,0,1-1-2.9Zm.88.24a3.78,3.78,0,0,0,.7,2.33,2.48,2.48,0,0,0,3.89,0,3.78,3.78,0,0,0,.7-2.33v-.24a3.78,3.78,0,0,0-.71-2.31,2.46,2.46,0,0,0-3.89,0,3.78,3.78,0,0,0-.7,2.31Z"/><path class="cls-2" d="M261.59,308a5.22,5.22,0,0,1,.81-3,2.6,2.6,0,0,1,2.27-1.15,2.84,2.84,0,0,1,1.44.36,2.93,2.93,0,0,1,1,1v-4.74H268V312h-.76l-.08-1.16a2.74,2.74,0,0,1-1,1,3,3,0,0,1-1.51.34,2.65,2.65,0,0,1-2.27-1.07,4.62,4.62,0,0,1-.81-2.86Zm.88.16a4.08,4.08,0,0,0,.58,2.31,2,2,0,0,0,1.75.86,2.5,2.5,0,0,0,1.43-.39,2.55,2.55,0,0,0,.89-1.07v-3.78a2.84,2.84,0,0,0-.85-1.13,2.27,2.27,0,0,0-1.44-.43,1.92,1.92,0,0,0-1.75,1,4.73,4.73,0,0,0-.59,2.5Z"/><path class="cls-2" d="M274,304.73l-.66,0a2,2,0,0,0-1.37.47,2.59,2.59,0,0,0-.76,1.29V312h-.88v-8h.76l.11,1.33v.09a2.87,2.87,0,0,1,.93-1.15,2.34,2.34,0,0,1,1.39-.42h.33l.26.05Z"/><path class="cls-2" d="M280.29,309.93a1.29,1.29,0,0,0-.46-1,3.78,3.78,0,0,0-1.66-.69,5.59,5.59,0,0,1-2.12-.82,1.69,1.69,0,0,1-.68-1.44,1.93,1.93,0,0,1,.76-1.51,3.12,3.12,0,0,1,2-.63,3.21,3.21,0,0,1,2.14.67,2,2,0,0,1,.76,1.67v0h-.82a1.51,1.51,0,0,0-.56-1.14,2.65,2.65,0,0,0-3-.08,1.25,1.25,0,0,0-.48,1,1.15,1.15,0,0,0,.42.91,4.07,4.07,0,0,0,1.66.64,5.44,5.44,0,0,1,2.13.87,1.8,1.8,0,0,1,.71,1.51,1.94,1.94,0,0,1-.81,1.62,4.06,4.06,0,0,1-4.42-.08,2,2,0,0,1-.76-1.66v0H276a1.45,1.45,0,0,0,.7,1.25,3,3,0,0,0,1.51.39,2.45,2.45,0,0,0,1.51-.42A1.24,1.24,0,0,0,280.29,309.93Zm-2.12-8,1.22-1.25h.85v.13l-1.72,1.66h-.72l-1.72-1.66v-.14h.84Z"/><path class="cls-2" d="M285.15,308.07h-1.06V312h-.88V300.44h.88v6.87H285l3-3.33h1l-3.2,3.6,3.53,4.32h-1Z"/><path class="cls-2" d="M295.69,312c-.06-.27-.1-.51-.13-.7a4.87,4.87,0,0,1,0-.6,3.52,3.52,0,0,1-1.18,1,3.34,3.34,0,0,1-1.66.42,2.51,2.51,0,0,1-1.81-.62,2.2,2.2,0,0,1-.64-1.66,2.06,2.06,0,0,1,1-1.77,4.45,4.45,0,0,1,2.58-.67h1.76v-1a1.7,1.7,0,0,0-.55-1.35,2.27,2.27,0,0,0-1.51-.48A2.45,2.45,0,0,0,292,305a1.39,1.39,0,0,0-.61,1.13h-.81v0a1.91,1.91,0,0,1,.82-1.6,3.34,3.34,0,0,1,2.19-.7,3.21,3.21,0,0,1,2.12.67,2.37,2.37,0,0,1,.8,1.93v3.93a6.9,6.9,0,0,0,0,.82,5.12,5.12,0,0,0,.16.76Zm-2.9-.63a3.17,3.17,0,0,0,1.69-.45,2.65,2.65,0,0,0,1.06-1.14v-1.67h-1.78a3.25,3.25,0,0,0-1.92.51,1.51,1.51,0,0,0-.76,1.27,1.38,1.38,0,0,0,.45,1.06,1.76,1.76,0,0,0,1.26.42Z"/><path class="cls-2" d="M309,312h-6.68v-.67l3.52-4a10.65,10.65,0,0,0,1.38-1.84,3,3,0,0,0,.4-1.42,2.27,2.27,0,0,0-.57-1.61,2.08,2.08,0,0,0-1.6-.6,2.43,2.43,0,0,0-1.86.68,2.56,2.56,0,0,0-.64,1.81h-.82v0A3,3,0,0,1,303,302a3.28,3.28,0,0,1,2.46-.93,3.08,3.08,0,0,1,2.22.79,2.83,2.83,0,0,1,.83,2.14,3.43,3.43,0,0,1-.56,1.8,14.71,14.71,0,0,1-1.56,2l-3,3.34h5.53Z"/><path class="cls-2" d="M316.08,308.5h1.69v.76h-1.69V312h-.88v-2.71h-5v-.51l5-7.56h1Zm-4.88,0h4v-6.13h0l-.38.8Z"/><path class="cls-2" d="M319.05,312.88h-.8l4.49-11.67h.79Z"/><path class="cls-2" d="M331.65,302a15.77,15.77,0,0,0-3.9,9.07l-.08.9h-.88l.08-.9a16.93,16.93,0,0,1,1.29-4.94,17.64,17.64,0,0,1,2.59-4.15H324.6v-.76h7.05Z"/><path class="cls-2" d="M333.44,312.88h-.81l4.49-11.67h.79Z"/><path class="cls-2" d="M341.4,306.11h1a2.46,2.46,0,0,0,1.78-.59,2.13,2.13,0,0,0-1.66-3.71,2.4,2.4,0,0,0-1.69.61,2.08,2.08,0,0,0-.66,1.6h-.82v0a2.6,2.6,0,0,1,.88-2.09,3.31,3.31,0,0,1,2.32-.83,3.24,3.24,0,0,1,2.27.76,2.84,2.84,0,0,1,.85,2.19,2.43,2.43,0,0,1-.47,1.43,2.79,2.79,0,0,1-1.33,1,2.71,2.71,0,0,1,1.51,1,2.66,2.66,0,0,1,.5,1.61,2.85,2.85,0,0,1-.93,2.27,3.46,3.46,0,0,1-2.35.85,3.78,3.78,0,0,1-2.42-.8,2.59,2.59,0,0,1-1-2.22v0H340a2.15,2.15,0,0,0,.71,1.67,2.63,2.63,0,0,0,1.84.65,2.53,2.53,0,0,0,1.78-.6,2.19,2.19,0,0,0,.64-1.7,2,2,0,0,0-.67-1.67,3,3,0,0,0-1.92-.54h-1Z"/><path class="cls-2" d="M351.57,301.06a4.82,4.82,0,0,1,1.1.13,3.63,3.63,0,0,1,1,.36l-.23.76a3.64,3.64,0,0,0-.83-.35,3.86,3.86,0,0,0-1-.11,2.49,2.49,0,0,0-2,.93,3.66,3.66,0,0,0-.76,2.44v1a3.25,3.25,0,0,1,1.13-.92,3.33,3.33,0,0,1,1.51-.35,2.84,2.84,0,0,1,2.27,1,3.89,3.89,0,0,1,.84,2.6,3.83,3.83,0,0,1-.91,2.62,3,3,0,0,1-2.35,1,3.1,3.1,0,0,1-2.45-1.1,4.47,4.47,0,0,1-1-3v-2.79a4.37,4.37,0,0,1,1.06-3A3.36,3.36,0,0,1,351.57,301.06Zm-.29,4.54a2.67,2.67,0,0,0-1.57.46,2.33,2.33,0,0,0-.91,1.19V308a3.78,3.78,0,0,0,.71,2.43,2.22,2.22,0,0,0,1.81.89,2.06,2.06,0,0,0,1.72-.85,3.3,3.3,0,0,0,.64-2.06,3.24,3.24,0,0,0-.63-2.08,2.15,2.15,0,0,0-1.78-.76Z"/><path class="cls-2" d="M356.57,307.1l.6-5.88h5.22V302h-4.47l-.4,3.83a3,3,0,0,1,.89-.57,3.85,3.85,0,0,1,1.32-.22,2.76,2.76,0,0,1,2.22.92,3.68,3.68,0,0,1,.84,2.54,3.93,3.93,0,0,1-.82,2.61,3,3,0,0,1-2.46,1,3.33,3.33,0,0,1-2.22-.76,2.61,2.61,0,0,1-.85-2.2v0h.76a2.15,2.15,0,0,0,.62,1.66,2.31,2.31,0,0,0,1.64.57,2.19,2.19,0,0,0,1.79-.76,3.22,3.22,0,0,0,.6-2.09,3,3,0,0,0-.6-1.93,2,2,0,0,0-1.66-.76,3.08,3.08,0,0,0-1.57.33,1.87,1.87,0,0,0-.76,1Z"/><path class="cls-3" d="M158.94,335v-9.34l8.09,4.67Z"/><path class="cls-2" d="M172.26,334.64V323.89h3.12a4.36,4.36,0,0,1,3.26,1.32,4.63,4.63,0,0,1,1.29,3.37V330a4.61,4.61,0,0,1-1.29,3.37,4.37,4.37,0,0,1-3.26,1.31Zm.88-10v9.25h2.27a3.42,3.42,0,0,0,2.62-1.11,4,4,0,0,0,1-2.82v-1.4a4,4,0,0,0-1-2.8,3.42,3.42,0,0,0-2.62-1.11Z"/><path class="cls-2" d="M181.45,330.53a4.29,4.29,0,0,1,1-2.9,3.48,3.48,0,0,1,4.91-.22l.22.22a4.29,4.29,0,0,1,1,2.9v.24a4.3,4.3,0,0,1-1,2.9,3.49,3.49,0,0,1-4.94.2l-.2-.2a4.29,4.29,0,0,1-1-2.9Zm.88.24a3.78,3.78,0,0,0,.7,2.33,2.48,2.48,0,0,0,3.89,0,3.78,3.78,0,0,0,.7-2.33v-.24a3.78,3.78,0,0,0-.71-2.31,2.46,2.46,0,0,0-3.89,0,3.78,3.78,0,0,0-.7,2.31Z"/><path class="cls-2" d="M190,330.72a5.22,5.22,0,0,1,.81-3,2.6,2.6,0,0,1,2.27-1.15,2.84,2.84,0,0,1,1.44.36,2.93,2.93,0,0,1,1,1v-4.74h.88v11.52h-.76l-.08-1.16a2.74,2.74,0,0,1-1,1,3,3,0,0,1-1.51.34,2.65,2.65,0,0,1-2.27-1.07,4.62,4.62,0,0,1-.81-2.86Zm.88.16a4.08,4.08,0,0,0,.58,2.31,2,2,0,0,0,1.75.86,2.5,2.5,0,0,0,1.43-.39,2.55,2.55,0,0,0,.89-1.07v-3.78a2.84,2.84,0,0,0-.85-1.13,2.27,2.27,0,0,0-1.44-.43,1.92,1.92,0,0,0-1.75,1,4.73,4.73,0,0,0-.59,2.5Z"/><path class="cls-2" d="M199.77,324.37h-.88v-1.24h.88Zm0,10.28h-.88v-8h.88Z"/><path class="cls-2" d="M203.26,326.66v8.65a2.78,2.78,0,0,1-.59,1.9,2.07,2.07,0,0,1-1.64.67,2.27,2.27,0,0,1-.42,0l-.41-.11.1-.76.33.08a2.12,2.12,0,0,0,.36,0,1.25,1.25,0,0,0,1-.45,2.09,2.09,0,0,0,.37-1.34v-8.63Zm0-2.32h-.88v-1.21h.88Z"/><path class="cls-2" d="M208.78,334.8a3.21,3.21,0,0,1-2.5-1.1,4,4,0,0,1-1-2.81v-.41a4.17,4.17,0,0,1,1-2.84,3,3,0,0,1,2.39-1.13,3,3,0,0,1,2.31.93,3.55,3.55,0,0,1,.84,2.48v.76h-5.64v.21a3.52,3.52,0,0,0,.72,2.27,2.27,2.27,0,0,0,1.88.91,3.86,3.86,0,0,0,1.41-.23,2.77,2.77,0,0,0,1-.66l.38.6a3.21,3.21,0,0,1-1.14.76A4.36,4.36,0,0,1,208.78,334.8Zm-.11-7.56A2.12,2.12,0,0,0,207,328a3.21,3.21,0,0,0-.76,1.88h4.68v-.22a2.54,2.54,0,0,0-.61-1.74,2.09,2.09,0,0,0-1.66-.65Z"/><path class="cls-2" d="M214.57,334.64h-.88V323.13h.88Z"/><path class="cls-2" d="M218.05,326.66v8.65a2.78,2.78,0,0,1-.59,1.9,2.07,2.07,0,0,1-1.64.67,2.27,2.27,0,0,1-.42,0l-.41-.11.1-.76.33.08a2.12,2.12,0,0,0,.36,0,1.25,1.25,0,0,0,1-.45,2.09,2.09,0,0,0,.37-1.34v-8.63Zm0-2.32h-.91v-1.21H218Z"/><path class="cls-2" d="M223.58,334.8a3.21,3.21,0,0,1-2.5-1.1,4,4,0,0,1-1-2.81v-.41a4.17,4.17,0,0,1,1-2.84,3,3,0,0,1,2.39-1.13,3,3,0,0,1,2.31.93,3.55,3.55,0,0,1,.84,2.48v.76H221v.21a3.52,3.52,0,0,0,.72,2.27,2.27,2.27,0,0,0,1.88.91,3.86,3.86,0,0,0,1.41-.23,2.77,2.77,0,0,0,1-.66l.38.6a3.21,3.21,0,0,1-1.14.76A4.36,4.36,0,0,1,223.58,334.8Zm-.11-7.56a2.12,2.12,0,0,0-1.65.76,3.21,3.21,0,0,0-.76,1.88h4.68v-.22a2.54,2.54,0,0,0-.61-1.74,2.09,2.09,0,0,0-1.66-.65Z"/><path class="cls-2" d="M229.15,326.66l.08,1.4a2.84,2.84,0,0,1,1-1.14,2.9,2.9,0,0,1,1.51-.4,2.46,2.46,0,0,1,2,.76,3.78,3.78,0,0,1,.68,2.48v4.87h-.88v-4.87a2.9,2.9,0,0,0-.51-1.94,1.86,1.86,0,0,0-1.46-.57,2.27,2.27,0,0,0-1.51.49,2.74,2.74,0,0,0-.85,1.31v5.59h-.88v-8Z"/><path class="cls-2" d="M237.78,324.37h-.88v-1.24h.88Zm0,10.28h-.88v-8h.88Z"/><path class="cls-2" d="M245.83,330.75h-1v3.9h-.88V323.13h.88V330h.93l3-3.33h1l-3.2,3.6,3.53,4.32h-1Z"/><path class="cls-2" d="M254.15,334.8a3.21,3.21,0,0,1-2.5-1.1,4,4,0,0,1-1-2.81v-.41a4.17,4.17,0,0,1,1-2.84,3,3,0,0,1,2.39-1.13,3,3,0,0,1,2.31.93,3.55,3.55,0,0,1,.84,2.48v.76h-5.61v.21a3.52,3.52,0,0,0,.72,2.27,2.27,2.27,0,0,0,1.88.91,3.86,3.86,0,0,0,1.41-.23,2.77,2.77,0,0,0,1-.66l.38.6a3.21,3.21,0,0,1-1.14.76A4.35,4.35,0,0,1,254.15,334.8Zm-.11-7.56a2.12,2.12,0,0,0-1.65.76,3.21,3.21,0,0,0-.76,1.88h4.68v-.22a2.54,2.54,0,0,0-.61-1.74,2.09,2.09,0,0,0-1.63-.65Z"/><path class="cls-2" d="M261.14,332.46l.28,1h0l2.41-6.8h1l-3.47,9.27a4.54,4.54,0,0,1-.8,1.38,1.81,1.81,0,0,1-1.44.57h-.38l-.33-.07.11-.76h.57a1.15,1.15,0,0,0,.92-.41,3.58,3.58,0,0,0,.59-1.05l.42-1.08L258,326.57h1Z"/><path class="cls-2" d="M275,334.64c-.06-.27-.1-.51-.13-.7a4.87,4.87,0,0,1,0-.6,3.52,3.52,0,0,1-1.18,1,3.34,3.34,0,0,1-1.66.42,2.51,2.51,0,0,1-1.81-.62,2.2,2.2,0,0,1-.64-1.66,2.06,2.06,0,0,1,1-1.77,4.45,4.45,0,0,1,2.58-.67h1.76v-1a1.7,1.7,0,0,0-.55-1.35,2.27,2.27,0,0,0-1.51-.48,2.45,2.45,0,0,0-1.51.47,1.39,1.39,0,0,0-.61,1.13h-.81v0a1.91,1.91,0,0,1,.82-1.6,3.34,3.34,0,0,1,2.19-.7,3.21,3.21,0,0,1,2.12.67,2.37,2.37,0,0,1,.8,1.93v3.93a6.9,6.9,0,0,0,0,.82,5.13,5.13,0,0,0,.16.76Zm-2.9-.63a3.17,3.17,0,0,0,1.69-.45,2.65,2.65,0,0,0,1.06-1.14v-1.67h-1.8a3.25,3.25,0,0,0-1.92.51,1.51,1.51,0,0,0-.76,1.27,1.38,1.38,0,0,0,.45,1.06,1.76,1.76,0,0,0,1.29.42Z"/><path class="cls-2" d="M281,334a2.53,2.53,0,0,0,1.55-.5,1.63,1.63,0,0,0,.67-1.39H284v0a2.19,2.19,0,0,1-.88,1.85,3.3,3.3,0,0,1-2.13.76,3,3,0,0,1-2.52-1.12,4.48,4.48,0,0,1-.89-2.87v-.31a4.45,4.45,0,0,1,.89-2.87,3,3,0,0,1,2.51-1.12,3.18,3.18,0,0,1,2.19.76,2.51,2.51,0,0,1,.85,2v0h-.76a1.94,1.94,0,0,0-.64-1.51,2.27,2.27,0,0,0-1.58-.57,2.13,2.13,0,0,0-1.9.91,4.06,4.06,0,0,0-.62,2.31v.31a4.11,4.11,0,0,0,.61,2.33A2.14,2.14,0,0,0,281,334Z"/><path class="cls-2" d="M288.88,334a2.53,2.53,0,0,0,1.55-.5,1.63,1.63,0,0,0,.67-1.39h.76v0a2.19,2.19,0,0,1-.88,1.85,3.3,3.3,0,0,1-2.13.76,3,3,0,0,1-2.52-1.12,4.48,4.48,0,0,1-.89-2.87v-.31a4.45,4.45,0,0,1,.89-2.87,3,3,0,0,1,2.51-1.12,3.18,3.18,0,0,1,2.19.76,2.51,2.51,0,0,1,.85,2v0h-.76a1.94,1.94,0,0,0-.64-1.51,2.27,2.27,0,0,0-1.58-.57,2.13,2.13,0,0,0-1.9.91,4.06,4.06,0,0,0-.62,2.31v.31a4.11,4.11,0,0,0,.61,2.33A2.14,2.14,0,0,0,288.88,334Z"/><path class="cls-2" d="M293.26,330.53a4.29,4.29,0,0,1,1-2.9,3.48,3.48,0,0,1,4.91-.22l.22.22a4.29,4.29,0,0,1,1,2.9v.24a4.3,4.3,0,0,1-1,2.9,3.49,3.49,0,0,1-4.94.2l-.2-.2a4.29,4.29,0,0,1-1-2.9Zm.88.24a3.78,3.78,0,0,0,.7,2.33,2.48,2.48,0,0,0,3.89,0,3.78,3.78,0,0,0,.7-2.33v-.24a3.78,3.78,0,0,0-.71-2.31,2.46,2.46,0,0,0-3.89,0,3.78,3.78,0,0,0-.7,2.31Z"/><path class="cls-2" d="M307.4,333.33a2.75,2.75,0,0,1-1,1.08,3,3,0,0,1-1.51.38,2.44,2.44,0,0,1-2-.85,4.09,4.09,0,0,1-.72-2.66v-4.63H303v4.66a3.45,3.45,0,0,0,.5,2.1A1.69,1.69,0,0,0,305,334a2.6,2.6,0,0,0,1.6-.45,2.34,2.34,0,0,0,.83-1.24v-5.69h.88v8h-.76Z"/><path class="cls-2" d="M311.37,326.66l.08,1.4a2.84,2.84,0,0,1,1-1.14,2.9,2.9,0,0,1,1.51-.4,2.46,2.46,0,0,1,2,.76,3.78,3.78,0,0,1,.68,2.48v4.87h-.88v-4.87a2.9,2.9,0,0,0-.51-1.94,1.86,1.86,0,0,0-1.46-.57,2.27,2.27,0,0,0-1.51.49,2.74,2.74,0,0,0-.85,1.31v5.59h-.88v-8Z"/><path class="cls-2" d="M320.39,324.61v2h1.75v.76h-1.75v5.2a1.7,1.7,0,0,0,.29,1.11,1,1,0,0,0,.76.33h.42l.47-.06.14.66a2.27,2.27,0,0,1-.54.15,3.92,3.92,0,0,1-.64.05,1.66,1.66,0,0,1-1.31-.53,2.51,2.51,0,0,1-.47-1.69v-5.2h-1.39v-.76h1.38v-2Z"/><path class="cls-2" d="M328.44,326.66l.08,1.32a2.81,2.81,0,0,1,1-1.09,2.9,2.9,0,0,1,1.51-.39,2.56,2.56,0,0,1,1.51.45,2.43,2.43,0,0,1,.88,1.35,3,3,0,0,1,1-1.32,2.73,2.73,0,0,1,1.63-.48,2.4,2.4,0,0,1,2,.85,4.11,4.11,0,0,1,.7,2.63v4.66h-.85V330a3.24,3.24,0,0,0-.52-2.09,1.81,1.81,0,0,0-1.45-.61,2,2,0,0,0-1.59.64,3,3,0,0,0-.7,1.65v5.1h-.88V330a3.22,3.22,0,0,0-.53-2.07,1.8,1.8,0,0,0-1.45-.63,2.19,2.19,0,0,0-1.51.48,2.54,2.54,0,0,0-.76,1.29v5.63h-.89v-8Z"/><path class="cls-2" d="M346.16,334.64c-.06-.27-.1-.51-.13-.7a4.87,4.87,0,0,1,0-.6,3.52,3.52,0,0,1-1.18,1,3.34,3.34,0,0,1-1.66.42,2.51,2.51,0,0,1-1.81-.62,2.2,2.2,0,0,1-.64-1.66,2.06,2.06,0,0,1,1-1.77,4.45,4.45,0,0,1,2.58-.67H346v-1a1.7,1.7,0,0,0-.55-1.35,2.27,2.27,0,0,0-1.51-.48,2.45,2.45,0,0,0-1.51.47,1.39,1.39,0,0,0-.61,1.13H341v0a1.91,1.91,0,0,1,.82-1.6,3.34,3.34,0,0,1,2.19-.7,3.21,3.21,0,0,1,2.12.67,2.37,2.37,0,0,1,.8,1.93v3.93a6.9,6.9,0,0,0,0,.82,5.13,5.13,0,0,0,.16.76Zm-2.9-.63a3.17,3.17,0,0,0,1.69-.45,2.65,2.65,0,0,0,1.06-1.14v-1.67h-1.78a3.25,3.25,0,0,0-1.92.51,1.51,1.51,0,0,0-.76,1.27,1.38,1.38,0,0,0,.45,1.06,1.76,1.76,0,0,0,1.26.42Z"/><path class="cls-2" d="M350,326.66l.08,1.4a2.84,2.84,0,0,1,1-1.14,2.9,2.9,0,0,1,1.51-.4,2.46,2.46,0,0,1,2,.76,3.78,3.78,0,0,1,.68,2.48v4.87h-.88v-4.87a2.9,2.9,0,0,0-.51-1.94,1.86,1.86,0,0,0-1.46-.57,2.27,2.27,0,0,0-1.51.49,2.74,2.74,0,0,0-.85,1.31v5.59h-.88v-8Z"/><path class="cls-2" d="M362.71,334.64c-.06-.27-.1-.51-.13-.7a4.87,4.87,0,0,1,0-.6,3.52,3.52,0,0,1-1.18,1,3.34,3.34,0,0,1-1.66.42,2.51,2.51,0,0,1-1.81-.62,2.2,2.2,0,0,1-.64-1.66,2.06,2.06,0,0,1,1-1.77,4.45,4.45,0,0,1,2.58-.67h1.76v-1a1.7,1.7,0,0,0-.55-1.35,2.27,2.27,0,0,0-1.51-.48,2.45,2.45,0,0,0-1.51.47,1.39,1.39,0,0,0-.61,1.13h-.81v0a1.91,1.91,0,0,1,.82-1.6,3.34,3.34,0,0,1,2.19-.7,3.21,3.21,0,0,1,2.12.67,2.37,2.37,0,0,1,.8,1.93v3.93a6.9,6.9,0,0,0,0,.82,5.12,5.12,0,0,0,.16.76Zm-2.9-.63a3.17,3.17,0,0,0,1.69-.45,2.65,2.65,0,0,0,1.06-1.14v-1.67h-1.79a3.25,3.25,0,0,0-1.92.51,1.51,1.51,0,0,0-.76,1.27,1.38,1.38,0,0,0,.45,1.06,1.76,1.76,0,0,0,1.28.42Z"/><path class="cls-2" d="M365.43,330.72a5.18,5.18,0,0,1,.82-3,2.63,2.63,0,0,1,2.27-1.15,2.8,2.8,0,0,1,1.47.37,3,3,0,0,1,1,1.05l.11-1.28h.76v7.89A3.39,3.39,0,0,1,371,337a3.12,3.12,0,0,1-2.37.89,5.81,5.81,0,0,1-1.22-.14,4.82,4.82,0,0,1-1.13-.39l.23-.76a4.54,4.54,0,0,0,1,.36,4.94,4.94,0,0,0,1.12.12,2.27,2.27,0,0,0,1.76-.67,2.72,2.72,0,0,0,.6-1.87v-1a2.81,2.81,0,0,1-1,.94,3,3,0,0,1-1.44.33,2.68,2.68,0,0,1-2.27-1.07,4.6,4.6,0,0,1-.82-2.86Zm.88.16a4,4,0,0,0,.59,2.31,2,2,0,0,0,1.75.86,2.46,2.46,0,0,0,1.43-.39,2.56,2.56,0,0,0,.88-1.09v-3.7a2.81,2.81,0,0,0-.85-1.15,2.27,2.27,0,0,0-1.45-.45,1.94,1.94,0,0,0-1.76,1,4.67,4.67,0,0,0-.6,2.49Z"/><path class="cls-2" d="M377.21,334.8a3.21,3.21,0,0,1-2.5-1.1,4,4,0,0,1-1-2.81v-.41a4.17,4.17,0,0,1,1-2.84,3,3,0,0,1,2.39-1.13,3,3,0,0,1,2.31.93,3.55,3.55,0,0,1,.84,2.48v.76H374.6v.21a3.52,3.52,0,0,0,.72,2.27,2.27,2.27,0,0,0,1.88.91,3.86,3.86,0,0,0,1.41-.23,2.77,2.77,0,0,0,1-.66l.38.6a3.21,3.21,0,0,1-1.14.76A4.36,4.36,0,0,1,377.21,334.8Zm-.11-7.56a2.12,2.12,0,0,0-1.65.76,3.21,3.21,0,0,0-.76,1.88h4.68v-.22a2.54,2.54,0,0,0-.61-1.74,2.09,2.09,0,0,0-1.66-.65Z"/><path class="cls-2" d="M385.67,327.41l-.66,0a2,2,0,0,0-1.37.47,2.59,2.59,0,0,0-.76,1.29v5.51H382v-8h.76l.11,1.33v.09a2.87,2.87,0,0,1,.93-1.15,2.34,2.34,0,0,1,1.39-.42h.33l.26.05Z"/><path class="cls-3" d="M132.42,314.06c-.44.17-.85.35-1.29.48a11.08,11.08,0,0,1-2.73.51c-.76,0-1.51.08-2.22.08a16.09,16.09,0,0,1-3.73-.48,11.85,11.85,0,0,1-3.11-1.2,6.74,6.74,0,0,1-2.66-2.56c-.16-.29-.27-.6-.41-.91l-.09-.23-.28.82a7.29,7.29,0,0,1-2.78,3.78,6.43,6.43,0,0,1-2.62,1,8.61,8.61,0,0,1-2.2,0,.21.21,0,0,0-.26.14v0a14.26,14.26,0,0,0-.67,3.25,13.32,13.32,0,0,0,.08,2.87,12.85,12.85,0,0,0,.93,3.34,13.1,13.1,0,0,0,2.19,3.49,12.16,12.16,0,0,0,2.46,2.19c.51.33,1,.62,1.56.94a.28.28,0,0,1,.13.19v3.67a.59.59,0,0,1,0,.1h-9.46a.54.54,0,0,1-.61-.62v-9.54c-.28-.06-.55-.11-.82-.18a5.17,5.17,0,0,1-3.1-2.46,5.88,5.88,0,0,1,.3-6.38,5.13,5.13,0,0,1,1.67-1.51.32.32,0,0,0,.16-.25,20.34,20.34,0,0,1,.45-2,26.61,26.61,0,0,1,.92-2.53,18.65,18.65,0,0,1,1.51-2.79,20.42,20.42,0,0,1,1.72-2.35,17.57,17.57,0,0,1,2.78-2.6,15.05,15.05,0,0,1,3.64-2,21,21,0,0,1,2.58-.76,18,18,0,0,1,5.46-.4,17.45,17.45,0,0,1,3.37.56,16.1,16.1,0,0,1,3.58,1.43,16.77,16.77,0,0,1,3.46,2.51,18.63,18.63,0,0,1,2.27,2.54,17.39,17.39,0,0,1,1.74,2.79c.41.85.81,1.71,1.16,2.59a13.11,13.11,0,0,1,.83,3.13.39.39,0,0,0,.23.3,5.22,5.22,0,0,1,1.56,1.51,5.72,5.72,0,0,1,1,3.86,5.56,5.56,0,0,1-2.27,4.08,4.73,4.73,0,0,1-2.27.93l-.2.05v9.46c0,.49-.18.68-.67.68h-9.42V332a.3.3,0,0,1,.19-.33,13.16,13.16,0,0,0,4.58-3.78.23.23,0,0,0,.06-.11l-.6.34a11.55,11.55,0,0,1-2.34,1,16.14,16.14,0,0,1-3.58.68c-.53,0-1.06,0-1.59.06a.23.23,0,0,0-.23.14,2.42,2.42,0,0,1-2.09,1.34,2.46,2.46,0,0,1-2.48-1.79,2.37,2.37,0,0,1,.6-2.4,2.34,2.34,0,0,1,2.35-.66,2.37,2.37,0,0,1,1.69,1.51.21.21,0,0,0,.23.16,14.48,14.48,0,0,0,3.6-.51,14.87,14.87,0,0,0,4.42-2A19.8,19.8,0,0,0,133,324.2a1.41,1.41,0,0,0,.29-.66,12.85,12.85,0,0,0,.49-2.75,13.3,13.3,0,0,0-.09-2.74,12.63,12.63,0,0,0-1.08-3.7l-.11-.26v0m-27.16.2h.38c.12,0,.16,0,.2-.14.14-.36.29-.76.46-1.09a15.93,15.93,0,0,1,2.37-3.6,15.63,15.63,0,0,1,3.71-3.12,14.56,14.56,0,0,1,4.84-1.83,21.51,21.51,0,0,1,2.58-.34,15,15,0,0,1,4.54.46,15.3,15.3,0,0,1,3,1.11,16,16,0,0,1,6,5.21,14.9,14.9,0,0,1,1.75,3.3.17.17,0,0,0,.21.09h.45c-.08-.34-.14-.65-.23-1a17,17,0,0,0-1.82-4.12,15.62,15.62,0,0,0-3.36-4,13.94,13.94,0,0,0-3.49-2.15,15.57,15.57,0,0,0-4.4-1.12,18.33,18.33,0,0,0-5.78.29,13.94,13.94,0,0,0-5.56,2.5,14.24,14.24,0,0,0-2.27,2.11,17,17,0,0,0-2.41,3.66,15.64,15.64,0,0,0-1.28,3.7"/><polygon class="cls-3" points="111.46 198.19 113.4 196.25 120.83 203.71 136.44 188.08 138.38 190.02 120.83 207.56 111.46 198.19"/><path class="cls-3" d="M112.76,185.21a.53.53,0,0,0,.12.43.47.47,0,0,0,.41.14h14.46a.93.93,0,0,0,.59-.14c.12-.12.3-.23.3-.43v-1.32c0-.19-.18-.21-.3-.34s-.4-.05-.59-.05H113.29c-.19,0-.29-.08-.41.05s-.12.14-.12.34Z"/><path class="cls-3" d="M112.63,203.16h-5.92v-28h9.2a2,2,0,0,0,1.51-.49,1.81,1.81,0,0,0,.66-1.32V164.6h15.85v22.62l2.27-2.63V164.18a1.72,1.72,0,0,0-.53-1.33,1.75,1.75,0,0,0-1.35-.51h-18.4a4.6,4.6,0,0,0-1.81.35,4.75,4.75,0,0,0-1.56,1l-6.4,6.39a5,5,0,0,0-1.14,1.55,5.2,5.2,0,0,0-.56,1.8v30.24a1.85,1.85,0,0,0,.76,1.3,2.19,2.19,0,0,0,1.51.48h8.54ZM108,171.6l6.28-6.28c.17-.17.76-.17.76-.31v7.16h-7.49c.14,0,.29-.4.45-.57"/><path class="cls-3" d="M133.93,198.38v4.78H129l-2.63,2.27h7.9a1.72,1.72,0,0,0,1.35-.48,1.65,1.65,0,0,0,.53-1.3v-7.89Z"/><path class="cls-3" d="M112.76,190.46a.54.54,0,0,0,.12.45.48.48,0,0,0,.41.16h14.46a.94.94,0,0,0,.59-.16c.12-.12.3-.26.3-.45v-1.32a1.41,1.41,0,0,0-.3-.7c-.12-.12-.4-.41-.59-.41H113.29c-.19,0-.29.29-.41.41s-.12.51-.12.7Z"/><path class="cls-3" d="M113.29,180.48h14.46a.93.93,0,0,0,.59-.12c.12-.12.3-.22.3-.41v-1.32c0-.19-.18-.23-.3-.36s-.4-.07-.59-.07H113.29c-.19,0-.29-.05-.41.07s-.12.17-.12.36V180c0,.19,0,.29.12.41s.22.12.41.12"/><path class="cls-2" d="M330.52,402.39c-2.9,1.51-5.09,1.19-6.13-.84-1.31-2.54-.07-4.39,4-6.49l5.06-2.61-.14-.27c-.76-1.39-2-1.22-4.39,0l-6.4,3.3-1.17-2.27,7.89-4.05c2.46-1.27,4.45-1.62,5.92-1.06l-2.49-4.69-7.42,4c-3.43,1.81-5.59,3.64-6.68,6.23A9.94,9.94,0,0,0,325.62,407c2.78.58,5.48-.22,8.91-2l7.45-4-1.88-3.49Z"/><path class="cls-2" d="M330.08,397c-1.63.85-2.27,1.51-1.74,2.46s1.22.69,2.63,0l4.81-2.47-1.17-2.27Z"/><path class="cls-2" d="M351.14,392.24h-5.22v1.69h4.25c1.61,0,2.31.28,2.31,1.31v.2h-3.35c-2.69,0-3.85.72-3.85,2.6,0,1.51,1.07,2.35,3,2.35h6.84v-5.1c0-2-1.34-3-4-3m1.35,6.51h-3.18c-.94,0-1.39-.1-1.39-.76s.49-.91,1.57-.91h3Z"/><polygon class="cls-2" points="363.72 392.24 360.88 398.03 358.21 392.24 355.35 392.24 359.44 400.39 362.18 400.39 366.47 392.24 363.72 392.24"/><path class="cls-2" d="M372.1,392.24h-5.22v1.69h4.25c1.61,0,2.31.28,2.31,1.31v.2h-3.35c-2.69,0-3.85.72-3.85,2.6,0,1.51,1.07,2.35,3,2.35h6.85v-5.1c0-2-1.34-3-4-3m1.35,6.51h-3.18c-.93,0-1.39-.1-1.39-.76s.49-.91,1.57-.91h3Z"/><path class="cls-2" d="M386.22,400.39v-5.18c0-2.16-1.17-3-4-3h-4.8v8.14h2.55V394h2c1.45,0,1.69.33,1.69,1.45v4.9Z"/><path class="cls-2" d="M393.54,398.77h-1c-1.29,0-1.65-.48-1.65-1.6v-3.29h2.69v-1.63h-2.69v-3h-2.54v3h-1.79v1.63h1.79v4c0,1.67,1.06,2.56,2.91,2.56h2.33Z"/><path class="cls-2" d="M413.17,392.82a5.29,5.29,0,0,0-3.11-.76h-5.49v.88H409a4.74,4.74,0,0,1,2.32.43,1.79,1.79,0,0,1,.87,1.62v.76h-4.42a5.82,5.82,0,0,0-3.11.6,2,2,0,0,0-.82,1.85,1.84,1.84,0,0,0,.76,1.57,3.59,3.59,0,0,0,2.22.59h7.38v-5.29a2.59,2.59,0,0,0-1-2.22m-1,6.68H408a2.68,2.68,0,0,1-1.57-.33,1.19,1.19,0,0,1-.54-1.1,1.41,1.41,0,0,1,.64-1.26,3.71,3.71,0,0,1,1.72-.29h4Z"/><path class="cls-2" d="M397,392.33a3.63,3.63,0,0,0-2.6,2.15,4.35,4.35,0,0,0-.39,1.79,4.13,4.13,0,0,0,.39,1.74,3.85,3.85,0,0,0,1,1.35,3.78,3.78,0,0,0,1.51.76,10.14,10.14,0,0,0,2.36.24h3.46v-.94h-2.59l-1.44-.05-.76-.2.15.05-.45-.14a2.87,2.87,0,0,1-1.23-1.19,3.09,3.09,0,0,1-.42-1.63,3,3,0,0,1,1-2.51,5,5,0,0,1,3.14-.76h2.59v-1h-3.47a9.07,9.07,0,0,0-2.32.25"/><path class="cls-2" d="M421.57,394.93h1.77v-1a1.62,1.62,0,0,0-.5-1.4,3.5,3.5,0,0,0-2.12-.43h-4.44v8.32h1.94v-7.56h1.51a2.37,2.37,0,0,1,1.38.27,1.51,1.51,0,0,1,.42,1.16v.7"/><path class="cls-2" d="M387.22,402.14c-.09,0-.17.06-.24.18l-1.09,1.8-1.09-1.8c-.08-.12-.15-.18-.24-.18s-.22.13-.22.41v3.67a.23.23,0,1,0,.45,0v-3l.79,1.32c.12.2.2.28.31.28s.18-.07.3-.28l.79-1.32v3a.23.23,0,1,0,.45,0v-3.67c0-.28-.07-.41-.22-.41"/><path class="cls-2" d="M389.49,403.38a1.09,1.09,0,0,0-1.11,1.19v.7a1.11,1.11,0,1,0,2.22,0v-.7a1.09,1.09,0,0,0-1-1.18h-.12m.66,1.75c0,.55-.24.86-.66.86s-.67-.31-.67-.86v-.42c0-.58.23-.88.67-.88s.66.29.66.88Z"/><path class="cls-2" d="M392.56,403.38h-.76v-1a.23.23,0,1,0-.45,0v3.78c0,.2.07.27.27.27h.88c.72,0,1-.29,1-1v-1.08a1.26,1.26,0,0,0-.15-.65,1,1,0,0,0-.84-.34m.54,2c0,.41-.17.58-.57.58h-.72v-2.18h.73c.4,0,.57.17.57.58Z"/><path class="cls-2" d="M394.63,403.38a.22.22,0,0,0-.22.22v2.62a.22.22,0,0,0,.2.24h0a.22.22,0,0,0,.23-.24v-2.59a.22.22,0,0,0-.2-.24h0"/><path class="cls-2" d="M394.63,402a.26.26,0,0,0-.09.52h.09a.26.26,0,0,0,0-.52"/><path class="cls-2" d="M396.57,406.07c-.29-.15-.33-.21-.33-.58v-3.12a.23.23,0,1,0-.45,0v3.18a1,1,0,0,0,.16.62.76.76,0,0,0,.51.26.2.2,0,0,0,.2-.19.19.19,0,0,0,0,0,.17.17,0,0,0-.09-.16"/><path class="cls-2" d="M398.51,403.38h-.83c-.3,0-.39.07-.39.32v2.52a.23.23,0,1,0,.45,0v-2.38h.67c.5,0,.63.14.63.7v1.68a.22.22,0,0,0,.45,0V404.5c0-.79-.28-1.11-1-1.11"/><path class="cls-2" d="M401.33,403.38a1.09,1.09,0,0,0-1.11,1.19v.7a1.11,1.11,0,1,0,2.22,0v-.7a1.09,1.09,0,0,0-1-1.18h-.12m.66,1.75c0,.55-.24.86-.66.86s-.67-.31-.67-.86v-.42c0-.58.23-.88.67-.88s.66.29.66.88Z"/><path class="cls-2" d="M404.83,405.1a4.14,4.14,0,0,0-.66-.39,4.91,4.91,0,0,1-.5-.27.36.36,0,0,1-.17-.29c0-.2.21-.33.51-.33a1.22,1.22,0,0,1,.41.07,1,1,0,0,0,.33.07.22.22,0,0,0,.22-.22h0a.19.19,0,0,0-.14-.2,2,2,0,0,0-.79-.17c-.57,0-1,.32-1,.76s.2.6.86.95l.52.28a.42.42,0,0,1,.25.34c0,.19-.18.3-.48.3a1.44,1.44,0,0,1-.76-.21.64.64,0,0,0-.29-.11.22.22,0,0,0-.2.22c0,.24.62.53,1.16.53s1-.31,1-.76a.76.76,0,0,0-.3-.6"/><path class="cls-2" d="M407,403.38h-.64v-1a.23.23,0,1,0-.45,0v1h-.2a.23.23,0,0,0-.23.22h0a.22.22,0,0,0,.22.22H406v2.38a.23.23,0,1,0,.45,0v-2.38H407a.23.23,0,0,0,.08-.45H407"/><path class="cls-2" d="M410.2,403.38h-.79c-.29,0-.38.08-.38.41v3.67a.23.23,0,1,0,.45,0v-1h.76c.68,0,1-.31,1-1v-1.08a1.1,1.1,0,0,0-.2-.7.89.89,0,0,0-.82-.3m.57,2.09c0,.41-.14.54-.57.54h-.72v-2.18h.76c.39,0,.54.15.54.51Z"/><path class="cls-2" d="M413,403.38a1.09,1.09,0,0,0-1.11,1.19v.7a1.11,1.11,0,1,0,2.22,0v-.7a1.09,1.09,0,0,0-1-1.18H413m.66,1.75c0,.55-.24.86-.66.86s-.67-.31-.67-.86v-.42c0-.58.23-.88.67-.88s.66.29.66.88Z"/><path class="cls-2" d="M417.73,403.37a.23.23,0,0,0-.22.17l-.64,2-.65-2a.22.22,0,0,0-.22-.17.23.23,0,0,0-.22.23.57.57,0,0,0,0,.08l.79,2.46c.07.23.14.3.27.3s.23-.09.29-.3l.76-2.46a.42.42,0,0,0,0-.08.23.23,0,0,0-.22-.23"/><path class="cls-2" d="M419.62,403.38h-.91a.23.23,0,0,0-.08.45h1.1c.34,0,.47.18.47.67v.18h-.76a1.15,1.15,0,0,0-.55.11.88.88,0,0,0-.44.76.91.91,0,0,0,.45.76,1.19,1.19,0,0,0,.68.14h.76c.22,0,.29-.11.29-.4v-1.67c0-.69-.3-1-1-1m.54,2.6h-.7c-.35,0-.57-.17-.57-.43s.21-.43.66-.43h.61Z"/><path class="cls-2" d="M423.12,405.1a4.14,4.14,0,0,0-.66-.39,4.91,4.91,0,0,1-.5-.27.36.36,0,0,1-.17-.29c0-.2.21-.33.51-.33a1.22,1.22,0,0,1,.41.07,1,1,0,0,0,.33.07.22.22,0,0,0,.22-.22h0a.19.19,0,0,0-.14-.2,2,2,0,0,0-.79-.17c-.57,0-1,.32-1,.76s.2.6.86.95l.52.28a.42.42,0,0,1,.25.34c0,.19-.18.3-.48.3a1.44,1.44,0,0,1-.76-.21.64.64,0,0,0-.29-.11.22.22,0,0,0-.2.22c0,.24.62.53,1.16.53s1-.31,1-.76a.76.76,0,0,0-.3-.6"/><path class="cls-2" d="M422.76,401.93l-.42.4-.43-.4a.28.28,0,0,0-.2-.09.2.2,0,0,0-.2.19h0c0,.08,0,.16.2.29l.29.26c.17.16.23.2.35.2h0c.1,0,.17,0,.33-.2l.29-.26c.14-.14.2-.21.2-.29a.2.2,0,0,0-.2-.19h0a.29.29,0,0,0-.2.09"/><path class="cls-2" d="M426.16,404.57a1.11,1.11,0,1,0-2.22,0v.7a1.11,1.11,0,1,0,2.22,0Zm-.45.57c0,.55-.24.86-.66.86s-.67-.31-.67-.86v-.42c0-.58.23-.88.67-.88s.66.29.66.88Z"/><path class="cls-2" d="M427.11,403.38a.22.22,0,0,0-.22.22v3a1,1,0,0,1-.12.55c-.09.11-.12.12-.52.16-.17,0-.25.08-.25.21s.11.23.34.23a.91.91,0,0,0,.91-.46,2.13,2.13,0,0,0,.09-.65v-3a.22.22,0,0,0-.2-.24h0"/><path class="cls-2" d="M427.1,402a.26.26,0,0,0-.09.52h.09a.26.26,0,0,0,0-.52"/><path class="cls-2" d="M432.54,404.34a1.06,1.06,0,0,0-.2-.68c-.16-.2-.42-.28-.95-.28H430c-.36,0-.46.08-.46.36v2.46a.22.22,0,1,0,.45,0h0v-2.38h.81v2.38a.23.23,0,1,0,.45,0v-2.38c.76,0,.83.08.83.61v1.77a.23.23,0,1,0,.45,0Z"/><path class="cls-2" d="M433.6,403.38a.22.22,0,0,0-.22.22v3a1,1,0,0,1-.12.55c-.09.11-.12.12-.52.16q-.25,0-.25.21t.34.23a.91.91,0,0,0,.91-.46,2.13,2.13,0,0,0,.09-.65v-3a.22.22,0,0,0-.2-.24h0"/><path class="cls-2" d="M433.58,402a.26.26,0,0,0-.09.52h.09a.26.26,0,0,0,0-.52"/><path class="cls-2" d="M436.54,406h-.87c-.46,0-.57-.14-.57-.65v-.23h1.38c.26,0,.3-.08.3-.51a1.51,1.51,0,0,0-.14-.69,1,1,0,0,0-.92-.56,1.07,1.07,0,0,0-1.06,1.07v1a1.35,1.35,0,0,0,.17.71c.15.21.39.29.84.29h.88a.23.23,0,1,0,.08-.45h-.08m-1.45-1.4c0-.51.21-.76.61-.76s.61.26.61.85h-1.23Z"/><path class="cls-2" d="M438.57,403.38h-.69c-.24,0-.33.08-.33.34v2.5a.23.23,0,1,0,.45,0v-2.38h.37c.24,0,.38,0,.44.15.16.26.17.27.28.27a.19.19,0,0,0,.2-.2.71.71,0,0,0-.7-.66"/><path class="cls-2" d="M440,403.38a.22.22,0,0,0-.22.22v2.62a.23.23,0,1,0,.45,0v-2.59a.22.22,0,0,0-.2-.24h0"/><path class="cls-2" d="M440,402.57a.26.26,0,1,0-.26-.26.26.26,0,0,0,.25.26h0"/><path class="cls-2" d="M426.25,393.48a1.13,1.13,0,1,0,1.15,1.13,1.13,1.13,0,0,0-1.15-1.13h0m0,2.08a.95.95,0,1,1,.91-1v0a.91.91,0,0,1-.88,1h0"/><path class="cls-2" d="M426.77,394.32c0-.26-.15-.37-.46-.37h-.52v1.31h.2v-.57h.23l.35.57h.22l-.37-.57a.34.34,0,0,0,.34-.34v0m-.76.2v-.41h.27c.14,0,.29,0,.29.2s-.15.21-.32.21Z"/></svg>