<?xml version="1.0" encoding="utf-8"?>
<!-- Generator: Adobe Illustrator 21.1.0, SVG Export Plug-In . SVG Version: 6.00 Build 0)  -->
<svg version="1.1" id="Layer_1" xmlns="http://www.w3.org/2000/svg" xmlns:xlink="http://www.w3.org/1999/xlink" x="0px" y="0px"
	 viewBox="0 0 963.4 538.9" style="enable-background:new 0 0 963.4 538.9;" xml:space="preserve">
<style type="text/css">
	.st0{fill:#E2E2E2;}
	.st1{fill:#A8B949;}
	.st2{fill:#28373C;}
</style>
<rect x="1.4" y="0.9" class="st0" width="966" height="540"/>
<rect x="1.4" y="0.9" class="st1" width="966" height="50"/>
<rect x="1.4" y="533.9" class="st1" width="966" height="7"/>
<g>
	<path class="st2" d="M93.5,159.1c0,2.3-0.6,4.2-1.9,5.6c-1.3,1.4-2.9,2.1-5.1,2.1c-2.1,0-3.7-0.7-5-2.1c-1.2-1.4-1.9-3.3-1.9-5.6
		v-2.9c0-2.3,0.6-4.1,1.9-5.6c1.2-1.4,2.9-2.1,5-2.1c2.1,0,3.8,0.7,5.1,2.1c1.3,1.4,1.9,3.3,1.9,5.6V159.1z M92,156.2
		c0-1.9-0.5-3.5-1.5-4.6c-1-1.2-2.3-1.8-4-1.8c-1.7,0-3,0.6-4,1.8c-0.9,1.2-1.4,2.7-1.4,4.6v2.9c0,1.9,0.5,3.5,1.4,4.7
		c0.9,1.2,2.3,1.8,4,1.8c1.7,0,3.1-0.6,4-1.8c1-1.2,1.4-2.7,1.4-4.7V156.2z"/>
	<path class="st2" d="M100.7,163.2l0.4,1.6h0.1l0.5-1.6l3.6-9.9h1.5l-5,13.2h-1.2l-5-13.2h1.5L100.7,163.2z"/>
	<path class="st2" d="M110.8,149.5h-1.5v-2.1h1.5V149.5z M110.8,166.5h-1.5v-13.2h1.5V166.5z"/>
	<path class="st2" d="M116.1,153.3l0.1,2.2c0.4-0.8,1-1.4,1.7-1.8c0.7-0.4,1.5-0.6,2.5-0.6c1,0,1.9,0.2,2.5,0.7
		c0.7,0.5,1.2,1.2,1.5,2.2c0.4-0.9,1-1.7,1.7-2.2c0.7-0.5,1.6-0.8,2.7-0.8c1.4,0,2.5,0.5,3.3,1.4c0.8,0.9,1.1,2.4,1.1,4.3v7.7h-1.5
		v-7.7c0-1.6-0.3-2.8-0.9-3.5c-0.6-0.7-1.4-1-2.4-1c-1.1,0-2,0.4-2.6,1.1c-0.6,0.7-1,1.6-1.1,2.7c0,0.1,0,0.1,0,0.2
		c0,0.1,0,0.2,0,0.2v7.9h-1.5v-7.7c0-1.6-0.3-2.7-0.9-3.4c-0.6-0.7-1.4-1-2.4-1c-1,0-1.9,0.3-2.5,0.8c-0.6,0.5-1,1.2-1.3,2.1v9.3
		h-1.5v-13.2H116.1z"/>
	<path class="st2" d="M153.7,160.3c0,2-0.4,3.6-1.3,4.7c-0.9,1.2-2.1,1.8-3.7,1.8c-0.9,0-1.7-0.2-2.4-0.5c-0.7-0.3-1.3-0.9-1.7-1.5
		v6.8h-1.5v-18.3h1.2l0.2,2.1c0.4-0.7,1-1.3,1.7-1.7c0.7-0.4,1.5-0.6,2.5-0.6c1.6,0,2.8,0.6,3.7,1.9c0.9,1.3,1.3,3,1.3,5.1V160.3z
		 M152.3,160c0-1.7-0.3-3-1-4.1c-0.7-1.1-1.6-1.6-2.9-1.6c-1,0-1.8,0.2-2.4,0.7c-0.6,0.5-1.1,1.1-1.4,1.8v6.4
		c0.3,0.7,0.8,1.3,1.4,1.7c0.6,0.4,1.4,0.6,2.4,0.6c1.3,0,2.2-0.5,2.9-1.4c0.7-1,1-2.2,1-3.8V160z"/>
	<path class="st2" d="M165.7,164.3c-0.4,0.8-1,1.4-1.7,1.8c-0.7,0.4-1.6,0.6-2.5,0.6c-1.4,0-2.5-0.5-3.3-1.4
		c-0.8-0.9-1.2-2.4-1.2-4.4v-7.7h1.5v7.7c0,1.6,0.3,2.8,0.8,3.5c0.5,0.7,1.3,1.1,2.3,1.1c1.1,0,2-0.2,2.6-0.7s1.1-1.2,1.4-2.1v-9.4
		h1.5v13.2h-1.3L165.7,164.3z"/>
	<path class="st2" d="M173.2,149.9v3.4h2.9v1.2h-2.9v8.6c0,0.9,0.2,1.5,0.5,1.8c0.3,0.4,0.7,0.5,1.3,0.5c0.2,0,0.5,0,0.7,0
		c0.2,0,0.5-0.1,0.8-0.1l0.2,1.1c-0.2,0.1-0.5,0.2-0.9,0.2c-0.4,0.1-0.7,0.1-1,0.1c-0.9,0-1.6-0.3-2.2-0.9c-0.5-0.6-0.8-1.5-0.8-2.8
		v-8.6h-2.3v-1.2h2.3v-3.4H173.2z"/>
	<path class="st2" d="M184.2,166.8c-1.7,0-3-0.6-4.1-1.8c-1.1-1.2-1.6-2.8-1.6-4.6v-0.7c0-1.9,0.5-3.5,1.6-4.7
		c1.1-1.2,2.4-1.9,3.9-1.9c1.6,0,2.9,0.5,3.8,1.5s1.4,2.4,1.4,4.1v1.2h-9.3v0.4c0,1.5,0.4,2.7,1.2,3.7c0.8,1,1.8,1.5,3.1,1.5
		c0.9,0,1.7-0.1,2.3-0.4c0.6-0.3,1.2-0.6,1.6-1.1l0.6,1c-0.5,0.5-1.1,0.9-1.9,1.2C186.1,166.6,185.2,166.8,184.2,166.8z M184,154.3
		c-1.1,0-2,0.4-2.7,1.2c-0.7,0.8-1.2,1.9-1.3,3.1l0,0.1h7.7v-0.4c0-1.1-0.3-2.1-1-2.9C186.1,154.7,185.1,154.3,184,154.3z"/>
	<path class="st2" d="M193.3,153.3l0.1,2.2c0.4-0.8,1-1.4,1.7-1.8c0.7-0.4,1.5-0.6,2.5-0.6c1,0,1.9,0.2,2.5,0.7
		c0.7,0.5,1.2,1.2,1.5,2.2c0.4-0.9,1-1.7,1.7-2.2c0.7-0.5,1.6-0.8,2.7-0.8c1.4,0,2.5,0.5,3.3,1.4c0.8,0.9,1.1,2.4,1.1,4.3v7.7H209
		v-7.7c0-1.6-0.3-2.8-0.9-3.5c-0.6-0.7-1.4-1-2.4-1c-1.1,0-2,0.4-2.6,1.1c-0.6,0.7-1,1.6-1.1,2.7c0,0.1,0,0.1,0,0.2
		c0,0.1,0,0.2,0,0.2v7.9h-1.5v-7.7c0-1.6-0.3-2.7-0.9-3.4c-0.6-0.7-1.4-1-2.4-1c-1,0-1.9,0.3-2.5,0.8c-0.6,0.5-1,1.2-1.3,2.1v9.3
		H192v-13.2H193.3z"/>
	<path class="st2" d="M221.8,155.5c0.4-0.8,1-1.4,1.8-1.8s1.6-0.7,2.6-0.7c1.4,0,2.5,0.4,3.2,1.3c0.7,0.9,1.1,2.2,1.1,4v8.1H229
		v-8.2c0-1.4-0.3-2.5-0.8-3.1c-0.6-0.6-1.3-0.9-2.3-0.9c-1,0-1.8,0.3-2.5,0.8c-0.7,0.5-1.2,1.2-1.5,2.1v9.3h-1.5v-19h1.5V155.5z"/>
	<path class="st2" d="M236.5,149.9v3.4h2.9v1.2h-2.9v8.6c0,0.9,0.2,1.5,0.5,1.8c0.3,0.4,0.7,0.5,1.3,0.5c0.2,0,0.5,0,0.7,0
		c0.2,0,0.5-0.1,0.8-0.1l0.2,1.1c-0.2,0.1-0.5,0.2-0.9,0.2c-0.4,0.1-0.7,0.1-1,0.1c-0.9,0-1.6-0.3-2.2-0.9c-0.5-0.6-0.8-1.5-0.8-2.8
		v-8.6h-2.3v-1.2h2.3v-3.4H236.5z"/>
	<path class="st2" d="M244.3,153.3v14.3c0,1.4-0.3,2.4-1,3.1c-0.7,0.7-1.6,1.1-2.7,1.1c-0.2,0-0.5,0-0.7-0.1c-0.2,0-0.4-0.1-0.7-0.2
		l0.2-1.2c0.1,0,0.3,0.1,0.5,0.1c0.2,0,0.4,0.1,0.6,0.1c0.7,0,1.3-0.3,1.7-0.8c0.4-0.5,0.6-1.2,0.6-2.2v-14.3H244.3z M244.2,149.5
		h-1.5v-2h1.5V149.5z"/>
	<path class="st2" d="M253.4,166.8c-1.7,0-3-0.6-4.1-1.8c-1.1-1.2-1.6-2.8-1.6-4.6v-0.7c0-1.9,0.5-3.5,1.6-4.7
		c1.1-1.2,2.4-1.9,3.9-1.9c1.6,0,2.9,0.5,3.8,1.5s1.4,2.4,1.4,4.1v1.2h-9.3v0.4c0,1.5,0.4,2.7,1.2,3.7c0.8,1,1.8,1.5,3.1,1.5
		c0.9,0,1.7-0.1,2.3-0.4c0.6-0.3,1.2-0.6,1.6-1.1l0.6,1c-0.5,0.5-1.1,0.9-1.9,1.2C255.4,166.6,254.5,166.8,253.4,166.8z
		 M253.2,154.3c-1.1,0-2,0.4-2.7,1.2c-0.7,0.8-1.2,1.9-1.3,3.1l0,0.1h7.7v-0.4c0-1.1-0.3-2.1-1-2.9
		C255.3,154.7,254.4,154.3,253.2,154.3z"/>
	<path class="st2" d="M263,166.5h-1.5v-19h1.5V166.5z"/>
	<path class="st2" d="M268.6,149.5h-1.5v-2.1h1.5V149.5z M268.6,166.5h-1.5v-13.2h1.5V166.5z"/>
	<path class="st2" d="M289.4,160.3c0,2-0.4,3.6-1.3,4.7c-0.9,1.2-2.1,1.8-3.7,1.8c-1,0-1.8-0.2-2.5-0.6c-0.7-0.4-1.3-0.9-1.7-1.7
		l-0.2,2h-1.3v-19h1.5v7.9c0.4-0.7,1-1.3,1.7-1.7c0.7-0.4,1.5-0.6,2.4-0.6c1.6,0,2.8,0.6,3.7,1.9c0.9,1.3,1.3,3,1.3,5.1V160.3z
		 M287.9,160c0-1.7-0.3-3.1-1-4.1c-0.7-1.1-1.6-1.6-2.9-1.6c-1,0-1.8,0.3-2.5,0.8c-0.6,0.5-1.1,1.2-1.4,1.9v6
		c0.3,0.8,0.8,1.4,1.5,1.8c0.6,0.5,1.5,0.7,2.4,0.7c1.3,0,2.2-0.5,2.9-1.4c0.6-0.9,1-2.2,1-3.8V160z"/>
	<path class="st2" d="M294.3,149.5h-1.5v-2.1h1.5V149.5z M294.3,166.5h-1.5v-13.2h1.5V166.5z"/>
	<path class="st2" d="M306.3,163.1c0-0.6-0.3-1.2-0.8-1.6c-0.5-0.5-1.4-0.8-2.8-1.1c-1.6-0.3-2.7-0.8-3.5-1.4
		c-0.8-0.6-1.1-1.4-1.1-2.4c0-1,0.4-1.9,1.3-2.6c0.9-0.7,2-1,3.4-1c1.5,0,2.7,0.4,3.5,1.1c0.9,0.7,1.3,1.7,1.2,2.8l0,0.1h-1.4
		c0-0.7-0.3-1.4-0.9-1.9c-0.6-0.5-1.4-0.8-2.5-0.8c-1.1,0-1.9,0.2-2.4,0.7c-0.5,0.5-0.8,1-0.8,1.6c0,0.6,0.2,1.1,0.7,1.5
		c0.5,0.4,1.4,0.7,2.8,1c1.6,0.4,2.7,0.8,3.5,1.4c0.8,0.6,1.2,1.4,1.2,2.5c0,1.1-0.4,2-1.3,2.7c-0.9,0.7-2.1,1-3.5,1
		c-1.6,0-2.9-0.4-3.8-1.1c-0.9-0.8-1.3-1.7-1.3-2.7l0-0.1h1.3c0.1,0.9,0.4,1.6,1.2,2.1c0.7,0.4,1.6,0.6,2.5,0.6
		c1.1,0,1.9-0.2,2.5-0.7C306,164.4,306.3,163.8,306.3,163.1z"/>
	<path class="st2" d="M312.3,153.3l0.1,2.2c0.4-0.8,1-1.4,1.7-1.8c0.7-0.4,1.5-0.6,2.5-0.6c1,0,1.9,0.2,2.5,0.7
		c0.7,0.5,1.2,1.2,1.5,2.2c0.4-0.9,1-1.7,1.7-2.2c0.7-0.5,1.6-0.8,2.7-0.8c1.4,0,2.5,0.5,3.3,1.4c0.8,0.9,1.1,2.4,1.1,4.3v7.7H328
		v-7.7c0-1.6-0.3-2.8-0.9-3.5c-0.6-0.7-1.4-1-2.4-1c-1.1,0-2,0.4-2.6,1.1c-0.6,0.7-1,1.6-1.1,2.7c0,0.1,0,0.1,0,0.2
		c0,0.1,0,0.2,0,0.2v7.9h-1.5v-7.7c0-1.6-0.3-2.7-0.9-3.4c-0.6-0.7-1.4-1-2.4-1c-1,0-1.9,0.3-2.5,0.8c-0.6,0.5-1,1.2-1.3,2.1v9.3
		H311v-13.2H312.3z"/>
	<path class="st2" d="M332.4,159.7c0-1.9,0.5-3.5,1.6-4.8c1.1-1.2,2.5-1.9,4.2-1.9c1.8,0,3.2,0.6,4.2,1.9c1.1,1.2,1.6,2.8,1.6,4.8
		v0.4c0,2-0.5,3.6-1.6,4.8c-1.1,1.2-2.5,1.9-4.2,1.9c-1.8,0-3.2-0.6-4.3-1.9c-1.1-1.2-1.6-2.8-1.6-4.8V159.7z M333.9,160.1
		c0,1.5,0.4,2.8,1.2,3.9c0.8,1,1.9,1.6,3.2,1.6c1.4,0,2.4-0.5,3.2-1.6c0.8-1,1.2-2.3,1.2-3.9v-0.4c0-1.5-0.4-2.8-1.2-3.8
		c-0.8-1-1.9-1.6-3.2-1.6s-2.4,0.5-3.2,1.6c-0.8,1-1.2,2.3-1.2,3.8V160.1z"/>
	<path class="st2" d="M358.6,163.5l0.4,1.2h0.1l0.4-1.2l5.3-14.8h1.6l-6.6,17.8h-1.4l-6.6-17.8h1.6L358.6,163.5z"/>
	<path class="st2" d="M376.5,166.5c-0.1-0.4-0.2-0.8-0.2-1.2c0-0.3-0.1-0.7-0.1-1c-0.5,0.7-1.1,1.3-2,1.7c-0.8,0.5-1.7,0.7-2.7,0.7
		c-1.3,0-2.3-0.3-3-1c-0.7-0.7-1.1-1.6-1.1-2.7c0-1.2,0.5-2.2,1.6-2.9c1.1-0.7,2.5-1.1,4.3-1.1h2.9v-1.6c0-0.9-0.3-1.7-0.9-2.2
		c-0.6-0.5-1.5-0.8-2.5-0.8c-1,0-1.9,0.3-2.5,0.8c-0.7,0.5-1,1.1-1,1.9l-1.3,0l0-0.1c0-1,0.4-1.9,1.3-2.6c0.9-0.8,2.2-1.2,3.6-1.2
		c1.5,0,2.6,0.4,3.5,1.1c0.9,0.7,1.3,1.8,1.3,3.2v6.5c0,0.5,0,0.9,0.1,1.4c0.1,0.4,0.1,0.9,0.3,1.3H376.5z M371.7,165.5
		c1,0,2-0.2,2.8-0.7c0.8-0.5,1.4-1.1,1.7-1.9v-2.8h-2.9c-1.3,0-2.4,0.3-3.2,0.8c-0.8,0.6-1.2,1.3-1.2,2.1c0,0.7,0.2,1.3,0.7,1.8
		C370.1,165.2,370.8,165.5,371.7,165.5z"/>
	<path class="st2" d="M389.5,163.1c0-0.6-0.3-1.2-0.8-1.6c-0.5-0.5-1.4-0.8-2.8-1.1c-1.6-0.3-2.7-0.8-3.5-1.4
		c-0.8-0.6-1.1-1.4-1.1-2.4c0-1,0.4-1.9,1.3-2.6c0.9-0.7,2-1,3.4-1c1.5,0,2.7,0.4,3.5,1.1c0.9,0.7,1.3,1.7,1.2,2.8l0,0.1h-1.4
		c0-0.7-0.3-1.4-0.9-1.9c-0.6-0.5-1.4-0.8-2.5-0.8c-1.1,0-1.9,0.2-2.4,0.7c-0.5,0.5-0.8,1-0.8,1.6c0,0.6,0.2,1.1,0.7,1.5
		c0.5,0.4,1.4,0.7,2.8,1c1.6,0.4,2.7,0.8,3.5,1.4c0.8,0.6,1.2,1.4,1.2,2.5c0,1.1-0.4,2-1.3,2.7c-0.9,0.7-2.1,1-3.5,1
		c-1.6,0-2.9-0.4-3.8-1.1c-0.9-0.8-1.3-1.7-1.3-2.7l0-0.1h1.3c0.1,0.9,0.4,1.6,1.2,2.1c0.7,0.4,1.6,0.6,2.5,0.6
		c1.1,0,1.9-0.2,2.5-0.7C389.2,164.4,389.5,163.8,389.5,163.1z"/>
	<path class="st2" d="M409,164.3c-0.4,0.8-1,1.4-1.7,1.8c-0.7,0.4-1.6,0.6-2.5,0.6c-1.4,0-2.5-0.5-3.3-1.4c-0.8-0.9-1.2-2.4-1.2-4.4
		v-7.7h1.5v7.7c0,1.6,0.3,2.8,0.8,3.5c0.5,0.7,1.3,1.1,2.3,1.1c1.1,0,2-0.2,2.6-0.7s1.1-1.2,1.4-2.1v-9.4h1.5v13.2h-1.3L409,164.3z"
		/>
	<path class="st2" d="M417.4,160.1h-1.7v6.4h-1.5v-19h1.5v11.4h1.5l4.9-5.5h1.7l0,0.1l-5.3,6l5.8,7.1l0,0.1h-1.7L417.4,160.1z"/>
	<path class="st2" d="M432.6,154.5l-1.1-0.1c-0.9,0-1.7,0.3-2.3,0.8c-0.6,0.5-1,1.2-1.3,2.1v9.1h-1.5v-13.2h1.3l0.2,2.2v0.1
		c0.4-0.8,0.9-1.4,1.5-1.9c0.6-0.5,1.4-0.7,2.3-0.7c0.2,0,0.4,0,0.5,0c0.2,0,0.3,0.1,0.4,0.1L432.6,154.5z"/>
	<path class="st2" d="M443,166.5c-0.1-0.4-0.2-0.8-0.2-1.2c0-0.3-0.1-0.7-0.1-1c-0.5,0.7-1.1,1.3-2,1.7c-0.8,0.5-1.7,0.7-2.7,0.7
		c-1.3,0-2.3-0.3-3-1c-0.7-0.7-1.1-1.6-1.1-2.7c0-1.2,0.5-2.2,1.6-2.9c1.1-0.7,2.5-1.1,4.3-1.1h2.9v-1.6c0-0.9-0.3-1.7-0.9-2.2
		c-0.6-0.5-1.5-0.8-2.5-0.8c-1,0-1.9,0.3-2.5,0.8c-0.7,0.5-1,1.1-1,1.9l-1.3,0l0-0.1c0-1,0.4-1.9,1.3-2.6c0.9-0.8,2.2-1.2,3.6-1.2
		c1.5,0,2.6,0.4,3.5,1.1c0.9,0.7,1.3,1.8,1.3,3.2v6.5c0,0.5,0,0.9,0.1,1.4c0.1,0.4,0.1,0.9,0.3,1.3H443z M438.2,165.5
		c1,0,2-0.2,2.8-0.7c0.8-0.5,1.4-1.1,1.7-1.9v-2.8h-2.9c-1.3,0-2.4,0.3-3.2,0.8c-0.8,0.6-1.2,1.3-1.2,2.1c0,0.7,0.2,1.3,0.7,1.8
		C436.6,165.2,437.3,165.5,438.2,165.5z"/>
	<path class="st2" d="M450.3,149.9v3.4h2.9v1.2h-2.9v8.6c0,0.9,0.2,1.5,0.5,1.8c0.3,0.4,0.7,0.5,1.3,0.5c0.2,0,0.5,0,0.7,0
		c0.2,0,0.5-0.1,0.8-0.1l0.2,1.1c-0.2,0.1-0.5,0.2-0.9,0.2c-0.4,0.1-0.7,0.1-1,0.1c-0.9,0-1.6-0.3-2.2-0.9c-0.5-0.6-0.8-1.5-0.8-2.8
		v-8.6h-2.3v-1.2h2.3v-3.4H450.3z"/>
	<path class="st2" d="M459.5,160.1h-1.7v6.4h-1.5v-19h1.5v11.4h1.5l4.9-5.5h1.7l0,0.1l-5.3,6l5.8,7.1l0,0.1h-1.7L459.5,160.1z"/>
	<path class="st2" d="M467.8,159.7c0-1.9,0.5-3.5,1.6-4.8c1.1-1.2,2.5-1.9,4.2-1.9c1.8,0,3.2,0.6,4.2,1.9c1.1,1.2,1.6,2.8,1.6,4.8
		v0.4c0,2-0.5,3.6-1.6,4.8c-1.1,1.2-2.5,1.9-4.2,1.9c-1.8,0-3.2-0.6-4.3-1.9c-1.1-1.2-1.6-2.8-1.6-4.8V159.7z M469.3,160.1
		c0,1.5,0.4,2.8,1.2,3.9c0.8,1,1.9,1.6,3.2,1.6c1.4,0,2.4-0.5,3.2-1.6c0.8-1,1.2-2.3,1.2-3.9v-0.4c0-1.5-0.4-2.8-1.2-3.8
		c-0.8-1-1.9-1.6-3.2-1.6s-2.4,0.5-3.2,1.6c-0.8,1-1.2,2.3-1.2,3.8V160.1z"/>
	<path class="st2" d="M497.3,164.3c-0.4,0.8-1,1.4-1.7,1.8c-0.7,0.4-1.6,0.6-2.5,0.6c-1.4,0-2.5-0.5-3.3-1.4
		c-0.8-0.9-1.2-2.4-1.2-4.4v-7.7h1.5v7.7c0,1.6,0.3,2.8,0.8,3.5c0.5,0.7,1.3,1.1,2.3,1.1c1.1,0,2-0.2,2.6-0.7s1.1-1.2,1.4-2.1v-9.4
		h1.5v13.2h-1.3L497.3,164.3z"/>
	<path class="st2" d="M513.2,160.3c0,2-0.4,3.6-1.3,4.7c-0.9,1.2-2.1,1.8-3.7,1.8c-0.9,0-1.7-0.2-2.4-0.5c-0.7-0.3-1.3-0.9-1.7-1.5
		v6.8h-1.5v-18.3h1.2l0.2,2.1c0.4-0.7,1-1.3,1.7-1.7c0.7-0.4,1.5-0.6,2.5-0.6c1.6,0,2.8,0.6,3.7,1.9c0.9,1.3,1.3,3,1.3,5.1V160.3z
		 M511.7,160c0-1.7-0.3-3-1-4.1c-0.7-1.1-1.6-1.6-2.9-1.6c-1,0-1.8,0.2-2.4,0.7s-1.1,1.1-1.4,1.8v6.4c0.3,0.7,0.8,1.3,1.4,1.7
		c0.6,0.4,1.4,0.6,2.4,0.6c1.3,0,2.2-0.5,2.9-1.4c0.7-1,1-2.2,1-3.8V160z"/>
	<path class="st2" d="M515.6,159.7c0-1.9,0.5-3.5,1.6-4.8s2.5-1.9,4.2-1.9c1.8,0,3.2,0.6,4.2,1.9c1.1,1.2,1.6,2.8,1.6,4.8v0.4
		c0,2-0.5,3.6-1.6,4.8c-1.1,1.2-2.5,1.9-4.2,1.9c-1.8,0-3.2-0.6-4.3-1.9c-1.1-1.2-1.6-2.8-1.6-4.8V159.7z M517.1,160.1
		c0,1.5,0.4,2.8,1.2,3.9s1.9,1.6,3.2,1.6c1.4,0,2.4-0.5,3.2-1.6c0.8-1,1.2-2.3,1.2-3.9v-0.4c0-1.5-0.4-2.8-1.2-3.8
		c-0.8-1-1.9-1.6-3.2-1.6s-2.4,0.5-3.2,1.6c-0.8,1-1.2,2.3-1.2,3.8V160.1z"/>
	<path class="st2" d="M531.2,165.3h8.6v1.2h-10.4v-1.1l8-10.9h-7.7v-1.2h9.6v1.1L531.2,165.3z"/>
	<path class="st2" d="M543.7,153.3l0.1,2.3c0.4-0.8,1-1.4,1.7-1.9c0.7-0.4,1.6-0.7,2.6-0.7c1.4,0,2.5,0.4,3.3,1.3
		c0.7,0.9,1.1,2.2,1.1,4.1v8H551v-8c0-1.5-0.3-2.6-0.8-3.2c-0.6-0.6-1.4-0.9-2.4-0.9c-1,0-1.9,0.3-2.5,0.8c-0.6,0.5-1.1,1.3-1.4,2.2
		v9.2h-1.5v-13.2H543.7z"/>
	<path class="st2" d="M564.7,166.5c-0.1-0.4-0.2-0.8-0.2-1.2c0-0.3-0.1-0.7-0.1-1c-0.5,0.7-1.1,1.3-2,1.7c-0.8,0.5-1.7,0.7-2.7,0.7
		c-1.3,0-2.3-0.3-3-1s-1.1-1.6-1.1-2.7c0-1.2,0.5-2.2,1.6-2.9s2.5-1.1,4.3-1.1h2.9v-1.6c0-0.9-0.3-1.7-0.9-2.2s-1.5-0.8-2.5-0.8
		c-1,0-1.9,0.3-2.5,0.8c-0.7,0.5-1,1.1-1,1.9l-1.3,0l0-0.1c0-1,0.4-1.9,1.3-2.6c0.9-0.8,2.2-1.2,3.6-1.2c1.5,0,2.6,0.4,3.5,1.1
		c0.9,0.7,1.3,1.8,1.3,3.2v6.5c0,0.5,0,0.9,0.1,1.4s0.1,0.9,0.3,1.3H564.7z M559.9,165.5c1,0,2-0.2,2.8-0.7c0.8-0.5,1.4-1.1,1.7-1.9
		v-2.8h-2.9c-1.3,0-2.4,0.3-3.2,0.8c-0.8,0.6-1.2,1.3-1.2,2.1c0,0.7,0.2,1.3,0.7,1.8C558.3,165.2,559,165.5,559.9,165.5z"/>
	<path class="st2" d="M572.1,149.9v3.4h2.9v1.2h-2.9v8.6c0,0.9,0.2,1.5,0.5,1.8c0.3,0.4,0.7,0.5,1.3,0.5c0.2,0,0.5,0,0.7,0
		c0.2,0,0.5-0.1,0.8-0.1l0.2,1.1c-0.2,0.1-0.5,0.2-0.9,0.2c-0.3,0.1-0.7,0.1-1,0.1c-0.9,0-1.7-0.3-2.2-0.9s-0.8-1.5-0.8-2.8v-8.6
		h-2.3v-1.2h2.3v-3.4H572.1z"/>
	<path class="st2" d="M579.7,149.5h-1.5v-2.1h1.5V149.5z M579.7,166.5h-1.5v-13.2h1.5V166.5z"/>
	<path class="st2" d="M597.7,163.1c0-0.6-0.3-1.2-0.8-1.6c-0.5-0.5-1.4-0.8-2.8-1.1c-1.6-0.3-2.7-0.8-3.5-1.4
		c-0.8-0.6-1.1-1.4-1.1-2.4c0-1,0.4-1.9,1.3-2.6c0.8-0.7,2-1,3.4-1c1.5,0,2.7,0.4,3.5,1.1c0.9,0.7,1.3,1.7,1.2,2.8l0,0.1h-1.4
		c0-0.7-0.3-1.4-0.9-1.9c-0.6-0.5-1.4-0.8-2.5-0.8c-1.1,0-1.9,0.2-2.4,0.7c-0.5,0.5-0.8,1-0.8,1.6c0,0.6,0.2,1.1,0.7,1.5
		c0.5,0.4,1.4,0.7,2.8,1c1.6,0.4,2.7,0.8,3.5,1.4c0.8,0.6,1.2,1.4,1.2,2.5c0,1.1-0.4,2-1.3,2.7c-0.9,0.7-2.1,1-3.5,1
		c-1.6,0-2.9-0.4-3.8-1.1c-0.9-0.8-1.3-1.7-1.3-2.7l0-0.1h1.3c0.1,0.9,0.4,1.6,1.2,2.1c0.7,0.4,1.6,0.6,2.5,0.6
		c1.1,0,1.9-0.2,2.5-0.7C597.4,164.4,597.7,163.8,597.7,163.1z"/>
	<path class="st2" d="M609.9,153.3l0.1,2.3c0.4-0.8,1-1.4,1.7-1.9c0.7-0.4,1.6-0.7,2.6-0.7c1.4,0,2.5,0.4,3.3,1.3
		c0.7,0.9,1.1,2.2,1.1,4.1v8h-1.5v-8c0-1.5-0.3-2.6-0.8-3.2c-0.6-0.6-1.4-0.9-2.4-0.9c-1,0-1.9,0.3-2.5,0.8
		c-0.6,0.5-1.1,1.3-1.4,2.2v9.2h-1.5v-13.2H609.9z"/>
	<path class="st2" d="M630.9,166.5c-0.1-0.4-0.2-0.8-0.2-1.2c0-0.3-0.1-0.7-0.1-1c-0.5,0.7-1.1,1.3-2,1.7c-0.8,0.5-1.7,0.7-2.7,0.7
		c-1.3,0-2.3-0.3-3-1s-1.1-1.6-1.1-2.7c0-1.2,0.5-2.2,1.6-2.9s2.5-1.1,4.3-1.1h2.9v-1.6c0-0.9-0.3-1.7-0.9-2.2s-1.5-0.8-2.5-0.8
		c-1,0-1.9,0.3-2.5,0.8c-0.7,0.5-1,1.1-1,1.9l-1.3,0l0-0.1c0-1,0.4-1.9,1.3-2.6c0.9-0.8,2.2-1.2,3.6-1.2c1.5,0,2.6,0.4,3.5,1.1
		c0.9,0.7,1.3,1.8,1.3,3.2v6.5c0,0.5,0,0.9,0.1,1.4s0.1,0.9,0.3,1.3H630.9z M626.1,165.5c1,0,2-0.2,2.8-0.7c0.8-0.5,1.4-1.1,1.7-1.9
		v-2.8h-2.9c-1.3,0-2.4,0.3-3.2,0.8c-0.8,0.6-1.2,1.3-1.2,2.1c0,0.7,0.2,1.3,0.7,1.8C624.6,165.2,625.2,165.5,626.1,165.5z"/>
	<path class="st2" d="M643.9,163.1c0-0.6-0.3-1.2-0.8-1.6c-0.5-0.5-1.4-0.8-2.8-1.1c-1.6-0.3-2.7-0.8-3.5-1.4
		c-0.8-0.6-1.1-1.4-1.1-2.4c0-1,0.4-1.9,1.3-2.6c0.8-0.7,2-1,3.4-1c1.5,0,2.7,0.4,3.5,1.1c0.9,0.7,1.3,1.7,1.2,2.8l0,0.1h-1.4
		c0-0.7-0.3-1.4-0.9-1.9c-0.6-0.5-1.4-0.8-2.5-0.8c-1.1,0-1.9,0.2-2.4,0.7c-0.5,0.5-0.8,1-0.8,1.6c0,0.6,0.2,1.1,0.7,1.5
		c0.5,0.4,1.4,0.7,2.8,1c1.6,0.4,2.7,0.8,3.5,1.4c0.8,0.6,1.2,1.4,1.2,2.5c0,1.1-0.4,2-1.3,2.7c-0.9,0.7-2.1,1-3.5,1
		c-1.6,0-2.9-0.4-3.8-1.1c-0.9-0.8-1.3-1.7-1.3-2.7l0-0.1h1.3c0.1,0.9,0.4,1.6,1.2,2.1c0.7,0.4,1.6,0.6,2.5,0.6
		c1.1,0,1.9-0.2,2.5-0.7C643.6,164.4,643.9,163.8,643.9,163.1z M640.4,150l2-2.1h1.4v0.2l-2.8,2.7h-1.2l-2.8-2.7v-0.2h1.4L640.4,150
		z"/>
	<path class="st2" d="M650.4,149.5h-1.5v-2.1h1.5V149.5z M650.4,166.5h-1.5v-13.2h1.5V166.5z"/>
	<path class="st2" d="M655.6,153.3l0.1,2.2c0.4-0.8,1-1.4,1.7-1.8c0.7-0.4,1.5-0.6,2.5-0.6c1,0,1.9,0.2,2.5,0.7s1.2,1.2,1.5,2.2
		c0.4-0.9,1-1.7,1.7-2.2c0.7-0.5,1.6-0.8,2.7-0.8c1.4,0,2.5,0.5,3.3,1.4c0.8,0.9,1.1,2.4,1.1,4.3v7.7h-1.5v-7.7
		c0-1.6-0.3-2.8-0.9-3.5c-0.6-0.7-1.4-1-2.4-1c-1.1,0-2,0.4-2.6,1.1c-0.6,0.7-1,1.6-1.1,2.7c0,0.1,0,0.1,0,0.2c0,0.1,0,0.2,0,0.2
		v7.9h-1.5v-7.7c0-1.6-0.3-2.7-0.9-3.4c-0.6-0.7-1.4-1-2.4-1c-1,0-1.9,0.3-2.5,0.8c-0.6,0.5-1,1.2-1.3,2.1v9.3h-1.5v-13.2H655.6z"/>
	<path class="st2" d="M688.7,154.5l-1.1-0.1c-0.9,0-1.7,0.3-2.3,0.8c-0.6,0.5-1,1.2-1.3,2.1v9.1h-1.5v-13.2h1.3l0.2,2.2v0.1
		c0.4-0.8,0.9-1.4,1.5-1.9c0.6-0.5,1.4-0.7,2.3-0.7c0.2,0,0.4,0,0.5,0c0.2,0,0.3,0.1,0.4,0.1L688.7,154.5z"/>
	<path class="st2" d="M699,166.5c-0.1-0.4-0.2-0.8-0.2-1.2c0-0.3-0.1-0.7-0.1-1c-0.5,0.7-1.1,1.3-2,1.7c-0.8,0.5-1.7,0.7-2.7,0.7
		c-1.3,0-2.3-0.3-3-1s-1.1-1.6-1.1-2.7c0-1.2,0.5-2.2,1.6-2.9s2.5-1.1,4.3-1.1h2.9v-1.6c0-0.9-0.3-1.7-0.9-2.2s-1.5-0.8-2.5-0.8
		c-1,0-1.9,0.3-2.5,0.8c-0.7,0.5-1,1.1-1,1.9l-1.3,0l0-0.1c0-1,0.4-1.9,1.3-2.6c0.9-0.8,2.2-1.2,3.6-1.2c1.5,0,2.6,0.4,3.5,1.1
		c0.9,0.7,1.3,1.8,1.3,3.2v6.5c0,0.5,0,0.9,0.1,1.4s0.1,0.9,0.3,1.3H699z M694.2,165.5c1,0,2-0.2,2.8-0.7c0.8-0.5,1.4-1.1,1.7-1.9
		v-2.8h-2.9c-1.3,0-2.4,0.3-3.2,0.8c-0.8,0.6-1.2,1.3-1.2,2.1c0,0.7,0.2,1.3,0.7,1.8C692.7,165.2,693.4,165.5,694.2,165.5z"/>
	<path class="st2" d="M703.5,160c0-2.1,0.4-3.8,1.3-5.1c0.9-1.3,2.1-1.9,3.7-1.9c0.9,0,1.7,0.2,2.4,0.6s1.2,0.9,1.7,1.7v-7.8h1.5v19
		h-1.3l-0.1-1.9c-0.4,0.7-1,1.2-1.7,1.6s-1.5,0.6-2.4,0.6c-1.6,0-2.8-0.6-3.7-1.8c-0.9-1.2-1.3-2.8-1.3-4.7V160z M705,160.3
		c0,1.6,0.3,2.9,1,3.8c0.6,0.9,1.6,1.4,2.9,1.4c0.9,0,1.7-0.2,2.4-0.6c0.6-0.4,1.1-1,1.5-1.8v-6.2c-0.3-0.8-0.8-1.4-1.4-1.9
		s-1.4-0.7-2.4-0.7c-1.3,0-2.3,0.5-2.9,1.6c-0.6,1.1-1,2.4-1,4.1V160.3z"/>
	<path class="st2" d="M717.2,159.7c0-1.9,0.5-3.5,1.6-4.8s2.5-1.9,4.2-1.9c1.8,0,3.2,0.6,4.2,1.9c1.1,1.2,1.6,2.8,1.6,4.8v0.4
		c0,2-0.5,3.6-1.6,4.8c-1.1,1.2-2.5,1.9-4.2,1.9c-1.8,0-3.2-0.6-4.3-1.9c-1.1-1.2-1.6-2.8-1.6-4.8V159.7z M718.7,160.1
		c0,1.5,0.4,2.8,1.2,3.9s1.9,1.6,3.2,1.6c1.4,0,2.4-0.5,3.2-1.6c0.8-1,1.2-2.3,1.2-3.9v-0.4c0-1.5-0.4-2.8-1.2-3.8
		c-0.8-1-1.9-1.6-3.2-1.6s-2.4,0.5-3.2,1.6c-0.8,1-1.2,2.3-1.2,3.8V160.1z"/>
	<path class="st2" d="M733.2,153.3l0.1,2.2c0.4-0.8,1-1.4,1.7-1.8c0.7-0.4,1.5-0.6,2.5-0.6c1,0,1.9,0.2,2.5,0.7s1.2,1.2,1.5,2.2
		c0.4-0.9,1-1.7,1.7-2.2c0.7-0.5,1.6-0.8,2.7-0.8c1.4,0,2.5,0.5,3.3,1.4c0.8,0.9,1.1,2.4,1.1,4.3v7.7h-1.5v-7.7
		c0-1.6-0.3-2.8-0.9-3.5c-0.6-0.7-1.4-1-2.4-1c-1.1,0-2,0.4-2.6,1.1c-0.6,0.7-1,1.6-1.1,2.7c0,0.1,0,0.1,0,0.2c0,0.1,0,0.2,0,0.2
		v7.9h-1.5v-7.7c0-1.6-0.3-2.7-0.9-3.4c-0.6-0.7-1.4-1-2.4-1c-1,0-1.9,0.3-2.5,0.8c-0.6,0.5-1,1.2-1.3,2.1v9.3h-1.5v-13.2H733.2z"/>
	<path class="st2" d="M761.8,149.5h-1.5v-2.1h1.5V149.5z M761.8,166.5h-1.5v-13.2h1.5V166.5z"/>
	<path class="st2" d="M782.6,160.3c0,2-0.4,3.6-1.3,4.7c-0.9,1.2-2.1,1.8-3.7,1.8c-0.9,0-1.7-0.2-2.4-0.5c-0.7-0.3-1.3-0.9-1.7-1.5
		v6.8h-1.5v-18.3h1.2l0.2,2.1c0.4-0.7,1-1.3,1.7-1.7c0.7-0.4,1.5-0.6,2.5-0.6c1.6,0,2.8,0.6,3.7,1.9c0.9,1.3,1.3,3,1.3,5.1V160.3z
		 M781.1,160c0-1.7-0.3-3-1-4.1c-0.7-1.1-1.6-1.6-2.9-1.6c-1,0-1.8,0.2-2.4,0.7s-1.1,1.1-1.4,1.8v6.4c0.3,0.7,0.8,1.3,1.4,1.7
		c0.6,0.4,1.4,0.6,2.4,0.6c1.3,0,2.2-0.5,2.9-1.4c0.7-1,1-2.2,1-3.8V160z"/>
	<path class="st2" d="M791.9,154.5l-1.1-0.1c-0.9,0-1.7,0.3-2.3,0.8c-0.6,0.5-1,1.2-1.3,2.1v9.1h-1.5v-13.2h1.3l0.2,2.2v0.1
		c0.4-0.8,0.9-1.4,1.5-1.9c0.6-0.5,1.4-0.7,2.3-0.7c0.2,0,0.4,0,0.5,0c0.2,0,0.3,0.1,0.4,0.1L791.9,154.5z"/>
	<path class="st2" d="M796,149.5h-1.5v-2.1h1.5V149.5z M796,166.5h-1.5v-13.2h1.5V166.5z"/>
	<path class="st2" d="M807.9,163.1c0-0.6-0.3-1.2-0.8-1.6c-0.5-0.5-1.4-0.8-2.8-1.1c-1.6-0.3-2.7-0.8-3.5-1.4
		c-0.8-0.6-1.1-1.4-1.1-2.4c0-1,0.4-1.9,1.3-2.6c0.8-0.7,2-1,3.4-1c1.5,0,2.7,0.4,3.5,1.1c0.9,0.7,1.3,1.7,1.2,2.8l0,0.1h-1.4
		c0-0.7-0.3-1.4-0.9-1.9c-0.6-0.5-1.4-0.8-2.5-0.8c-1.1,0-1.9,0.2-2.4,0.7c-0.5,0.5-0.8,1-0.8,1.6c0,0.6,0.2,1.1,0.7,1.5
		c0.5,0.4,1.4,0.7,2.8,1c1.6,0.4,2.7,0.8,3.5,1.4c0.8,0.6,1.2,1.4,1.2,2.5c0,1.1-0.4,2-1.3,2.7c-0.9,0.7-2.1,1-3.5,1
		c-1.6,0-2.9-0.4-3.8-1.1c-0.9-0.8-1.3-1.7-1.3-2.7l0-0.1h1.3c0.1,0.9,0.4,1.6,1.2,2.1c0.7,0.4,1.6,0.6,2.5,0.6
		c1.1,0,1.9-0.2,2.5-0.7C807.6,164.4,807.9,163.8,807.9,163.1z"/>
	<path class="st2" d="M815.1,149.9v3.4h2.9v1.2h-2.9v8.6c0,0.9,0.2,1.5,0.5,1.8c0.3,0.4,0.7,0.5,1.3,0.5c0.2,0,0.5,0,0.7,0
		c0.2,0,0.5-0.1,0.8-0.1l0.2,1.1c-0.2,0.1-0.5,0.2-0.9,0.2c-0.3,0.1-0.7,0.1-1,0.1c-0.9,0-1.7-0.3-2.2-0.9s-0.8-1.5-0.8-2.8v-8.6
		h-2.3v-1.2h2.3v-3.4H815.1z"/>
	<path class="st2" d="M829.7,164.3c-0.4,0.8-1,1.4-1.7,1.8c-0.7,0.4-1.6,0.6-2.5,0.6c-1.4,0-2.5-0.5-3.3-1.4
		c-0.8-0.9-1.2-2.4-1.2-4.4v-7.7h1.5v7.7c0,1.6,0.3,2.8,0.8,3.5c0.5,0.7,1.3,1.1,2.3,1.1c1.1,0,2-0.2,2.6-0.7s1.1-1.2,1.4-2.1v-9.4
		h1.5v13.2h-1.3L829.7,164.3z"/>
	<path class="st2" d="M845.6,160.3c0,2-0.4,3.6-1.3,4.7c-0.9,1.2-2.1,1.8-3.7,1.8c-0.9,0-1.7-0.2-2.4-0.5c-0.7-0.3-1.3-0.9-1.7-1.5
		v6.8H835v-18.3h1.2l0.2,2.1c0.4-0.7,1-1.3,1.7-1.7c0.7-0.4,1.5-0.6,2.5-0.6c1.6,0,2.8,0.6,3.7,1.9c0.9,1.3,1.3,3,1.3,5.1V160.3z
		 M844.1,160c0-1.7-0.3-3-1-4.1c-0.7-1.1-1.6-1.6-2.9-1.6c-1,0-1.8,0.2-2.4,0.7s-1.1,1.1-1.4,1.8v6.4c0.3,0.7,0.8,1.3,1.4,1.7
		c0.6,0.4,1.4,0.6,2.4,0.6c1.3,0,2.2-0.5,2.9-1.4c0.7-1,1-2.2,1-3.8V160z"/>
	<path class="st2" d="M848.1,159.7c0-1.9,0.5-3.5,1.6-4.8s2.5-1.9,4.2-1.9c1.8,0,3.2,0.6,4.2,1.9c1.1,1.2,1.6,2.8,1.6,4.8v0.4
		c0,2-0.5,3.6-1.6,4.8c-1.1,1.2-2.5,1.9-4.2,1.9c-1.8,0-3.2-0.6-4.3-1.9c-1.1-1.2-1.6-2.8-1.6-4.8V159.7z M849.5,160.1
		c0,1.5,0.4,2.8,1.2,3.9s1.9,1.6,3.2,1.6c1.4,0,2.4-0.5,3.2-1.6c0.8-1,1.2-2.3,1.2-3.9v-0.4c0-1.5-0.4-2.8-1.2-3.8
		c-0.8-1-1.9-1.6-3.2-1.6s-2.4,0.5-3.2,1.6c-0.8,1-1.2,2.3-1.2,3.8V160.1z"/>
	<path class="st2" d="M864,153.3l0.1,2.2c0.4-0.8,1-1.4,1.7-1.8c0.7-0.4,1.5-0.6,2.5-0.6c1,0,1.9,0.2,2.5,0.7s1.2,1.2,1.5,2.2
		c0.4-0.9,1-1.7,1.7-2.2c0.7-0.5,1.6-0.8,2.7-0.8c1.4,0,2.5,0.5,3.3,1.4c0.8,0.9,1.1,2.4,1.1,4.3v7.7h-1.5v-7.7
		c0-1.6-0.3-2.8-0.9-3.5c-0.6-0.7-1.4-1-2.4-1c-1.1,0-2,0.4-2.6,1.1c-0.6,0.7-1,1.6-1.1,2.7c0,0.1,0,0.1,0,0.2c0,0.1,0,0.2,0,0.2
		v7.9h-1.5v-7.7c0-1.6-0.3-2.7-0.9-3.4c-0.6-0.7-1.4-1-2.4-1c-1,0-1.9,0.3-2.5,0.8c-0.6,0.5-1,1.2-1.3,2.1v9.3h-1.5v-13.2H864z"/>
	<path class="st2" d="M886.7,166.5h-1.7v-2h1.7V166.5z"/>
</g>
<g>
	<path class="st2" d="M130,204h-1.5l-10.1-15.3l-0.1,0V204h-1.5v-17.8h1.5l10.1,15.3l0.1,0v-15.2h1.5V204z"/>
	<path class="st2" d="M142.6,204c-0.1-0.4-0.2-0.8-0.2-1.2c0-0.3-0.1-0.7-0.1-1c-0.5,0.7-1.1,1.3-2,1.7c-0.8,0.5-1.7,0.7-2.7,0.7
		c-1.3,0-2.3-0.3-3-1c-0.7-0.7-1.1-1.6-1.1-2.7c0-1.2,0.5-2.2,1.6-2.9c1.1-0.7,2.5-1.1,4.3-1.1h2.9v-1.6c0-0.9-0.3-1.7-0.9-2.2
		c-0.6-0.5-1.5-0.8-2.5-0.8c-1,0-1.9,0.3-2.5,0.8c-0.7,0.5-1,1.1-1,1.9l-1.3,0l0-0.1c0-1,0.4-1.9,1.3-2.6c0.9-0.8,2.2-1.2,3.6-1.2
		c1.5,0,2.6,0.4,3.5,1.1c0.9,0.7,1.3,1.8,1.3,3.2v6.5c0,0.5,0,0.9,0.1,1.4c0.1,0.4,0.1,0.9,0.3,1.3H142.6z M137.8,203
		c1,0,2-0.2,2.8-0.7c0.8-0.5,1.4-1.1,1.7-1.9v-2.8h-2.9c-1.3,0-2.4,0.3-3.2,0.8c-0.8,0.6-1.2,1.3-1.2,2.1c0,0.7,0.2,1.3,0.7,1.8
		C136.3,202.7,137,203,137.8,203z"/>
	<path class="st2" d="M155.6,200.6c0-0.6-0.3-1.2-0.8-1.6c-0.5-0.5-1.4-0.8-2.8-1.1c-1.6-0.3-2.7-0.8-3.5-1.4
		c-0.8-0.6-1.1-1.4-1.1-2.4c0-1,0.4-1.9,1.3-2.6c0.9-0.7,2-1,3.4-1c1.5,0,2.7,0.4,3.5,1.1c0.9,0.7,1.3,1.7,1.2,2.8l0,0.1h-1.4
		c0-0.7-0.3-1.4-0.9-1.9c-0.6-0.5-1.4-0.8-2.5-0.8c-1.1,0-1.9,0.2-2.4,0.7c-0.5,0.5-0.8,1-0.8,1.6c0,0.6,0.2,1.1,0.7,1.5
		c0.5,0.4,1.4,0.7,2.8,1c1.6,0.4,2.7,0.8,3.5,1.4c0.8,0.6,1.2,1.4,1.2,2.5c0,1.1-0.4,2-1.3,2.7c-0.9,0.7-2.1,1-3.5,1
		c-1.6,0-2.9-0.4-3.8-1.1c-0.9-0.8-1.3-1.7-1.3-2.7l0-0.1h1.3c0.1,0.9,0.4,1.6,1.2,2.1c0.7,0.4,1.6,0.6,2.5,0.6
		c1.1,0,1.9-0.2,2.5-0.7C155.3,201.9,155.6,201.3,155.6,200.6z"/>
	<path class="st2" d="M175.2,201.8c-0.4,0.8-1,1.4-1.7,1.8c-0.7,0.4-1.6,0.6-2.5,0.6c-1.4,0-2.5-0.5-3.3-1.4
		c-0.8-0.9-1.2-2.4-1.2-4.4v-7.7h1.5v7.7c0,1.6,0.3,2.8,0.8,3.5c0.5,0.7,1.3,1.1,2.3,1.1c1.1,0,2-0.2,2.6-0.7s1.1-1.2,1.4-2.1v-9.4
		h1.5V204h-1.3L175.2,201.8z"/>
	<path class="st2" d="M196.5,199h-8.1l-1.8,5H185l6.8-17.8h1.4l6.7,17.8h-1.5L196.5,199z M188.8,197.7h7.2l-3.5-9.6h-0.1
		L188.8,197.7z"/>
	<path class="st2" d="M205.3,200.7l0.4,1.6h0.1l0.5-1.6l3.6-9.9h1.5l-5,13.2h-1.2l-5-13.2h1.5L205.3,200.7z"/>
	<path class="st2" d="M221.9,204c-0.1-0.4-0.2-0.8-0.2-1.2c0-0.3-0.1-0.7-0.1-1c-0.5,0.7-1.1,1.3-2,1.7c-0.8,0.5-1.7,0.7-2.7,0.7
		c-1.3,0-2.3-0.3-3-1c-0.7-0.7-1.1-1.6-1.1-2.7c0-1.2,0.5-2.2,1.6-2.9c1.1-0.7,2.5-1.1,4.3-1.1h2.9v-1.6c0-0.9-0.3-1.7-0.9-2.2
		c-0.6-0.5-1.5-0.8-2.5-0.8c-1,0-1.9,0.3-2.5,0.8c-0.7,0.5-1,1.1-1,1.9l-1.3,0l0-0.1c0-1,0.4-1.9,1.3-2.6c0.9-0.8,2.2-1.2,3.6-1.2
		c1.5,0,2.6,0.4,3.5,1.1c0.9,0.7,1.3,1.8,1.3,3.2v6.5c0,0.5,0,0.9,0.1,1.4c0.1,0.4,0.1,0.9,0.3,1.3H221.9z M217.2,203
		c1,0,2-0.2,2.8-0.7c0.8-0.5,1.4-1.1,1.7-1.9v-2.8h-2.9c-1.3,0-2.4,0.3-3.2,0.8c-0.8,0.6-1.2,1.3-1.2,2.1c0,0.7,0.2,1.3,0.7,1.8
		C215.6,202.7,216.3,203,217.2,203z"/>
	<path class="st2" d="M228.3,190.8l0.1,2.3c0.4-0.8,1-1.4,1.7-1.9c0.7-0.4,1.6-0.7,2.6-0.7c1.4,0,2.5,0.4,3.3,1.3
		c0.7,0.9,1.1,2.2,1.1,4.1v8h-1.5v-8c0-1.5-0.3-2.6-0.8-3.2c-0.6-0.6-1.4-0.9-2.4-0.9c-1,0-1.9,0.3-2.5,0.8
		c-0.6,0.5-1.1,1.3-1.4,2.2v9.2H227v-13.2H228.3z"/>
	<path class="st2" d="M243.2,187.4v3.4h2.9v1.2h-2.9v8.6c0,0.9,0.2,1.5,0.5,1.8c0.3,0.4,0.7,0.5,1.3,0.5c0.2,0,0.5,0,0.7,0
		c0.2,0,0.5-0.1,0.8-0.1l0.2,1.1c-0.2,0.1-0.5,0.2-0.9,0.2c-0.4,0.1-0.7,0.1-1,0.1c-0.9,0-1.6-0.3-2.2-0.9c-0.5-0.6-0.8-1.5-0.8-2.8
		V192h-2.3v-1.2h2.3v-3.4H243.2z"/>
	<path class="st2" d="M260.2,203c1,0,1.8-0.3,2.6-0.8c0.7-0.6,1.1-1.3,1.1-2.3h1.3l0,0.1c0,1.2-0.4,2.2-1.5,3.1
		c-1,0.8-2.2,1.2-3.5,1.2c-1.8,0-3.2-0.6-4.2-1.8c-1-1.2-1.5-2.8-1.5-4.8v-0.5c0-1.9,0.5-3.5,1.5-4.7c1-1.2,2.4-1.9,4.2-1.9
		c1.4,0,2.7,0.4,3.6,1.3c1,0.9,1.4,2,1.4,3.4l0,0.1h-1.3c0-1.1-0.4-1.9-1.1-2.5c-0.7-0.6-1.6-0.9-2.6-0.9c-1.4,0-2.5,0.5-3.1,1.5
		c-0.7,1-1,2.3-1,3.8v0.5c0,1.6,0.3,2.8,1,3.9C257.7,202.5,258.8,203,260.2,203z"/>
	<path class="st2" d="M276.6,204c-0.1-0.4-0.2-0.8-0.2-1.2c0-0.3-0.1-0.7-0.1-1c-0.5,0.7-1.1,1.3-2,1.7c-0.8,0.5-1.7,0.7-2.7,0.7
		c-1.3,0-2.3-0.3-3-1c-0.7-0.7-1.1-1.6-1.1-2.7c0-1.2,0.5-2.2,1.6-2.9c1.1-0.7,2.5-1.1,4.3-1.1h2.9v-1.6c0-0.9-0.3-1.7-0.9-2.2
		c-0.6-0.5-1.5-0.8-2.5-0.8c-1,0-1.9,0.3-2.5,0.8c-0.7,0.5-1,1.1-1,1.9l-1.3,0l0-0.1c0-1,0.4-1.9,1.3-2.6c0.9-0.8,2.2-1.2,3.6-1.2
		c1.5,0,2.6,0.4,3.5,1.1c0.9,0.7,1.3,1.8,1.3,3.2v6.5c0,0.5,0,0.9,0.1,1.4c0.1,0.4,0.1,0.9,0.3,1.3H276.6z M271.8,203
		c1,0,2-0.2,2.8-0.7c0.8-0.5,1.4-1.1,1.7-1.9v-2.8h-2.9c-1.3,0-2.4,0.3-3.2,0.8c-0.8,0.6-1.2,1.3-1.2,2.1c0,0.7,0.2,1.3,0.7,1.8
		C270.3,202.7,271,203,271.8,203z"/>
	<path class="st2" d="M287.8,192l-1.1-0.1c-0.9,0-1.7,0.3-2.3,0.8c-0.6,0.5-1,1.2-1.3,2.1v9.1h-1.5v-13.2h1.3l0.2,2.2v0.1
		c0.4-0.8,0.9-1.4,1.5-1.9c0.6-0.5,1.4-0.7,2.3-0.7c0.2,0,0.4,0,0.5,0c0.2,0,0.3,0.1,0.4,0.1L287.8,192z"/>
	<path class="st2" d="M298.9,201.8c-0.4,0.8-1,1.4-1.7,1.8c-0.7,0.4-1.6,0.6-2.5,0.6c-1.4,0-2.5-0.5-3.3-1.4
		c-0.8-0.9-1.2-2.4-1.2-4.4v-7.7h1.5v7.7c0,1.6,0.3,2.8,0.8,3.5c0.5,0.7,1.3,1.1,2.3,1.1c1.1,0,2-0.2,2.6-0.7s1.1-1.2,1.4-2.1v-9.4
		h1.5V204H299L298.9,201.8z"/>
	<path class="st2" d="M309.4,197.2c0-1.9,0.5-3.5,1.6-4.8c1.1-1.2,2.5-1.9,4.2-1.9c1.8,0,3.2,0.6,4.2,1.9c1.1,1.2,1.6,2.8,1.6,4.8
		v0.4c0,2-0.5,3.6-1.6,4.8c-1.1,1.2-2.5,1.9-4.2,1.9c-1.8,0-3.2-0.6-4.3-1.9c-1.1-1.2-1.6-2.8-1.6-4.8V197.2z M310.9,197.6
		c0,1.5,0.4,2.8,1.2,3.9c0.8,1,1.9,1.6,3.2,1.6c1.4,0,2.4-0.5,3.2-1.6c0.8-1,1.2-2.3,1.2-3.9v-0.4c0-1.5-0.4-2.8-1.2-3.8
		c-0.8-1-1.9-1.6-3.2-1.6s-2.4,0.5-3.2,1.6c-0.8,1-1.2,2.3-1.2,3.8V197.6z"/>
	<path class="st2" d="M334.8,197.8c0,2-0.4,3.6-1.3,4.7c-0.9,1.2-2.1,1.8-3.7,1.8c-1,0-1.8-0.2-2.5-0.6c-0.7-0.4-1.3-0.9-1.7-1.7
		l-0.2,2h-1.3v-19h1.5v7.9c0.4-0.7,1-1.3,1.7-1.7c0.7-0.4,1.5-0.6,2.4-0.6c1.6,0,2.8,0.6,3.7,1.9c0.9,1.3,1.3,3,1.3,5.1V197.8z
		 M333.3,197.5c0-1.7-0.3-3.1-1-4.1c-0.7-1.1-1.6-1.6-2.9-1.6c-1,0-1.8,0.3-2.5,0.8c-0.6,0.5-1.1,1.2-1.4,1.9v6
		c0.3,0.8,0.8,1.4,1.5,1.8c0.6,0.5,1.5,0.7,2.4,0.7c1.3,0,2.2-0.5,2.9-1.4c0.6-0.9,1-2.2,1-3.8V197.5z"/>
	<path class="st2" d="M339.7,187h-1.5V185h1.5V187z M339.7,204h-1.5v-13.2h1.5V204z"/>
	<path class="st2" d="M345.4,204h-1.5v-19h1.5V204z"/>
	<path class="st2" d="M351.1,190.8v14.3c0,1.4-0.3,2.4-1,3.1c-0.7,0.7-1.6,1.1-2.7,1.1c-0.2,0-0.5,0-0.7-0.1c-0.2,0-0.4-0.1-0.7-0.2
		l0.2-1.2c0.1,0,0.3,0.1,0.5,0.1c0.2,0,0.4,0.1,0.6,0.1c0.7,0,1.3-0.3,1.7-0.8c0.4-0.5,0.6-1.2,0.6-2.2v-14.3H351.1z M351.1,187
		h-1.5v-2h1.5V187z"/>
	<path class="st2" d="M360.3,204.3c-1.7,0-3-0.6-4.1-1.8c-1.1-1.2-1.6-2.8-1.6-4.6v-0.7c0-1.9,0.5-3.5,1.6-4.7
		c1.1-1.2,2.4-1.9,3.9-1.9c1.6,0,2.9,0.5,3.8,1.5s1.4,2.4,1.4,4.1v1.2H356v0.4c0,1.5,0.4,2.7,1.2,3.7c0.8,1,1.8,1.5,3.1,1.5
		c0.9,0,1.7-0.1,2.3-0.4c0.6-0.3,1.2-0.6,1.6-1.1l0.6,1c-0.5,0.5-1.1,0.9-1.9,1.2C362.2,204.1,361.3,204.3,360.3,204.3z
		 M360.1,191.8c-1.1,0-2,0.4-2.7,1.2c-0.7,0.8-1.2,1.9-1.3,3.1l0,0.1h7.7v-0.4c0-1.1-0.3-2.1-1-2.9
		C362.2,192.2,361.2,191.8,360.1,191.8z"/>
	<path class="st2" d="M369.2,202.8h8.6v1.2h-10.4v-1.1l8-10.9h-7.7v-1.2h9.6v1.1L369.2,202.8z M372.6,187.7l2-2.1h1.4v0.2l-2.8,2.7
		H372l-2.8-2.7v-0.2h1.4L372.6,187.7z"/>
	<path class="st2" d="M388.8,204c-0.1-0.4-0.2-0.8-0.2-1.2c0-0.3-0.1-0.7-0.1-1c-0.5,0.7-1.1,1.3-2,1.7c-0.8,0.5-1.7,0.7-2.7,0.7
		c-1.3,0-2.3-0.3-3-1c-0.7-0.7-1.1-1.6-1.1-2.7c0-1.2,0.5-2.2,1.6-2.9c1.1-0.7,2.5-1.1,4.3-1.1h2.9v-1.6c0-0.9-0.3-1.7-0.9-2.2
		c-0.6-0.5-1.5-0.8-2.5-0.8c-1,0-1.9,0.3-2.5,0.8c-0.7,0.5-1,1.1-1,1.9l-1.3,0l0-0.1c0-1,0.4-1.9,1.3-2.6c0.9-0.8,2.2-1.2,3.6-1.2
		c1.5,0,2.6,0.4,3.5,1.1c0.9,0.7,1.3,1.8,1.3,3.2v6.5c0,0.5,0,0.9,0.1,1.4c0.1,0.4,0.1,0.9,0.3,1.3H388.8z M384,203
		c1,0,2-0.2,2.8-0.7c0.8-0.5,1.4-1.1,1.7-1.9v-2.8h-2.9c-1.3,0-2.4,0.3-3.2,0.8c-0.8,0.6-1.2,1.3-1.2,2.1c0,0.7,0.2,1.3,0.7,1.8
		C382.4,202.7,383.1,203,384,203z"/>
	<path class="st2" d="M397.4,200.7l0.4,1.6h0.1l0.5-1.6l3.6-9.9h1.5l-5,13.2h-1.2l-5-13.2h1.5L397.4,200.7z"/>
	<path class="st2" d="M414.1,204c-0.1-0.4-0.2-0.8-0.2-1.2c0-0.3-0.1-0.7-0.1-1c-0.5,0.7-1.1,1.3-2,1.7c-0.8,0.5-1.7,0.7-2.7,0.7
		c-1.3,0-2.3-0.3-3-1c-0.7-0.7-1.1-1.6-1.1-2.7c0-1.2,0.5-2.2,1.6-2.9c1.1-0.7,2.5-1.1,4.3-1.1h2.9v-1.6c0-0.9-0.3-1.7-0.9-2.2
		c-0.6-0.5-1.5-0.8-2.5-0.8c-1,0-1.9,0.3-2.5,0.8c-0.7,0.5-1,1.1-1,1.9l-1.3,0l0-0.1c0-1,0.4-1.9,1.3-2.6c0.9-0.8,2.2-1.2,3.6-1.2
		c1.5,0,2.6,0.4,3.5,1.1c0.9,0.7,1.3,1.8,1.3,3.2v6.5c0,0.5,0,0.9,0.1,1.4c0.1,0.4,0.1,0.9,0.3,1.3H414.1z M409.3,203
		c1,0,2-0.2,2.8-0.7c0.8-0.5,1.4-1.1,1.7-1.9v-2.8h-2.9c-1.3,0-2.4,0.3-3.2,0.8c-0.8,0.6-1.2,1.3-1.2,2.1c0,0.7,0.2,1.3,0.7,1.8
		C407.8,202.7,408.4,203,409.3,203z"/>
	<path class="st2" d="M435.9,197.8c0,2-0.4,3.6-1.3,4.7c-0.9,1.2-2.1,1.8-3.7,1.8c-1,0-1.8-0.2-2.5-0.6c-0.7-0.4-1.3-0.9-1.7-1.7
		l-0.2,2h-1.3v-19h1.5v7.9c0.4-0.7,1-1.3,1.7-1.7c0.7-0.4,1.5-0.6,2.4-0.6c1.6,0,2.8,0.6,3.7,1.9c0.9,1.3,1.3,3,1.3,5.1V197.8z
		 M434.4,197.5c0-1.7-0.3-3.1-1-4.1c-0.7-1.1-1.6-1.6-2.9-1.6c-1,0-1.8,0.3-2.5,0.8c-0.6,0.5-1.1,1.2-1.4,1.9v6
		c0.3,0.8,0.8,1.4,1.5,1.8c0.6,0.5,1.5,0.7,2.4,0.7c1.3,0,2.2-0.5,2.9-1.4c0.6-0.9,1-2.2,1-3.8V197.5z"/>
	<path class="st2" d="M445.3,192l-1.1-0.1c-0.9,0-1.7,0.3-2.3,0.8c-0.6,0.5-1,1.2-1.3,2.1v9.1h-1.5v-13.2h1.3l0.2,2.2v0.1
		c0.4-0.8,0.9-1.4,1.5-1.9c0.6-0.5,1.4-0.7,2.3-0.7c0.2,0,0.4,0,0.5,0c0.2,0,0.3,0.1,0.4,0.1L445.3,192z"/>
	<path class="st2" d="M448.7,202.8h8.6v1.2h-10.4v-1.1l8-10.9h-7.7v-1.2h9.6v1.1L448.7,202.8z"/>
	<path class="st2" d="M461.6,187h-1.5V185h1.5V187z M461.6,204h-1.5v-13.2h1.5V204z"/>
	<path class="st2" d="M466.9,190.8l0.1,2.3c0.4-0.8,1-1.4,1.7-1.9c0.7-0.4,1.6-0.7,2.6-0.7c1.4,0,2.5,0.4,3.3,1.3
		c0.7,0.9,1.1,2.2,1.1,4.1v8h-1.5v-8c0-1.5-0.3-2.6-0.8-3.2c-0.6-0.6-1.4-0.9-2.4-0.9c-1,0-1.9,0.3-2.5,0.8
		c-0.6,0.5-1.1,1.3-1.4,2.2v9.2h-1.5v-13.2H466.9z"/>
	<path class="st2" d="M487.9,204c-0.1-0.4-0.2-0.8-0.2-1.2c0-0.3-0.1-0.7-0.1-1c-0.5,0.7-1.1,1.3-2,1.7c-0.8,0.5-1.7,0.7-2.7,0.7
		c-1.3,0-2.3-0.3-3-1c-0.7-0.7-1.1-1.6-1.1-2.7c0-1.2,0.5-2.2,1.6-2.9c1.1-0.7,2.5-1.1,4.3-1.1h2.9v-1.6c0-0.9-0.3-1.7-0.9-2.2
		c-0.6-0.5-1.5-0.8-2.5-0.8c-1,0-1.9,0.3-2.5,0.8c-0.7,0.5-1,1.1-1,1.9l-1.3,0l0-0.1c0-1,0.4-1.9,1.3-2.6c0.9-0.8,2.2-1.2,3.6-1.2
		c1.5,0,2.6,0.4,3.5,1.1c0.9,0.7,1.3,1.8,1.3,3.2v6.5c0,0.5,0,0.9,0.1,1.4s0.1,0.9,0.3,1.3H487.9z M483.1,203c1,0,2-0.2,2.8-0.7
		c0.8-0.5,1.4-1.1,1.7-1.9v-2.8h-2.9c-1.3,0-2.4,0.3-3.2,0.8c-0.8,0.6-1.2,1.3-1.2,2.1c0,0.7,0.2,1.3,0.7,1.8
		C481.5,202.7,482.2,203,483.1,203z"/>
	<path class="st2" d="M500.7,187h-1.5V185h1.5V187z M500.7,204h-1.5v-13.2h1.5V204z"/>
	<path class="st2" d="M519.4,201.8c-0.4,0.8-1,1.4-1.7,1.8c-0.7,0.4-1.6,0.6-2.5,0.6c-1.4,0-2.5-0.5-3.3-1.4
		c-0.8-0.9-1.2-2.4-1.2-4.4v-7.7h1.5v7.7c0,1.6,0.3,2.8,0.8,3.5c0.5,0.7,1.3,1.1,2.3,1.1c1.1,0,2-0.2,2.6-0.7s1.1-1.2,1.4-2.1v-9.4
		h1.5V204h-1.3L519.4,201.8z"/>
	<path class="st2" d="M532.6,200.6c0-0.6-0.3-1.2-0.8-1.6c-0.5-0.5-1.4-0.8-2.8-1.1c-1.6-0.3-2.7-0.8-3.5-1.4
		c-0.8-0.6-1.1-1.4-1.1-2.4c0-1,0.4-1.9,1.3-2.6c0.8-0.7,2-1,3.4-1c1.5,0,2.7,0.4,3.5,1.1c0.9,0.7,1.3,1.7,1.2,2.8l0,0.1h-1.4
		c0-0.7-0.3-1.4-0.9-1.9c-0.6-0.5-1.4-0.8-2.5-0.8c-1.1,0-1.9,0.2-2.4,0.7c-0.5,0.5-0.8,1-0.8,1.6c0,0.6,0.2,1.1,0.7,1.5
		c0.5,0.4,1.4,0.7,2.8,1c1.6,0.4,2.7,0.8,3.5,1.4c0.8,0.6,1.2,1.4,1.2,2.5c0,1.1-0.4,2-1.3,2.7c-0.9,0.7-2.1,1-3.5,1
		c-1.6,0-2.9-0.4-3.8-1.1c-0.9-0.8-1.3-1.7-1.3-2.7l0-0.1h1.3c0.1,0.9,0.4,1.6,1.2,2.1c0.7,0.4,1.6,0.6,2.5,0.6
		c1.1,0,1.9-0.2,2.5-0.7C532.3,201.9,532.6,201.3,532.6,200.6z"/>
	<path class="st2" d="M539.1,204h-1.5v-19h1.5V204z"/>
	<path class="st2" d="M551.8,201.8c-0.4,0.8-1,1.4-1.7,1.8c-0.7,0.4-1.6,0.6-2.5,0.6c-1.4,0-2.5-0.5-3.3-1.4
		c-0.8-0.9-1.2-2.4-1.2-4.4v-7.7h1.5v7.7c0,1.6,0.3,2.8,0.8,3.5c0.5,0.7,1.3,1.1,2.3,1.1c1.1,0,2-0.2,2.6-0.7s1.1-1.2,1.4-2.1v-9.4
		h1.5V204h-1.3L551.8,201.8z"/>
	<path class="st2" d="M558,202.8h8.6v1.2h-10.4v-1.1l8-10.9h-7.7v-1.2h9.6v1.1L558,202.8z M561.5,187.7l2-2.1h1.4v0.2l-2.8,2.7h-1.2
		l-2.8-2.7v-0.2h1.4L561.5,187.7z"/>
	<path class="st2" d="M570.5,190.8l0.1,2.3c0.4-0.8,1-1.4,1.7-1.9c0.7-0.4,1.6-0.7,2.6-0.7c1.4,0,2.5,0.4,3.3,1.3
		c0.7,0.9,1.1,2.2,1.1,4.1v8h-1.5v-8c0-1.5-0.3-2.6-0.8-3.2c-0.6-0.6-1.4-0.9-2.4-0.9c-1,0-1.9,0.3-2.5,0.8
		c-0.6,0.5-1.1,1.3-1.4,2.2v9.2h-1.5v-13.2H570.5z"/>
	<path class="st2" d="M582.4,197.2c0-1.9,0.5-3.5,1.6-4.8s2.5-1.9,4.2-1.9c1.8,0,3.2,0.6,4.2,1.9c1.1,1.2,1.6,2.8,1.6,4.8v0.4
		c0,2-0.5,3.6-1.6,4.8c-1.1,1.2-2.5,1.9-4.2,1.9c-1.8,0-3.2-0.6-4.3-1.9c-1.1-1.2-1.6-2.8-1.6-4.8V197.2z M583.8,197.6
		c0,1.5,0.4,2.8,1.2,3.9s1.9,1.6,3.2,1.6c1.4,0,2.4-0.5,3.2-1.6c0.8-1,1.2-2.3,1.2-3.9v-0.4c0-1.5-0.4-2.8-1.2-3.8
		c-0.8-1-1.9-1.6-3.2-1.6s-2.4,0.5-3.2,1.6c-0.8,1-1.2,2.3-1.2,3.8V197.6z"/>
	<path class="st2" d="M605,200.6c0-0.6-0.3-1.2-0.8-1.6c-0.5-0.5-1.4-0.8-2.8-1.1c-1.6-0.3-2.7-0.8-3.5-1.4
		c-0.8-0.6-1.1-1.4-1.1-2.4c0-1,0.4-1.9,1.3-2.6c0.8-0.7,2-1,3.4-1c1.5,0,2.7,0.4,3.5,1.1c0.9,0.7,1.3,1.7,1.2,2.8l0,0.1h-1.4
		c0-0.7-0.3-1.4-0.9-1.9c-0.6-0.5-1.4-0.8-2.5-0.8c-1.1,0-1.9,0.2-2.4,0.7c-0.5,0.5-0.8,1-0.8,1.6c0,0.6,0.2,1.1,0.7,1.5
		c0.5,0.4,1.4,0.7,2.8,1c1.6,0.4,2.7,0.8,3.5,1.4c0.8,0.6,1.2,1.4,1.2,2.5c0,1.1-0.4,2-1.3,2.7c-0.9,0.7-2.1,1-3.5,1
		c-1.6,0-2.9-0.4-3.8-1.1c-0.9-0.8-1.3-1.7-1.3-2.7l0-0.1h1.3c0.1,0.9,0.4,1.6,1.2,2.1c0.7,0.4,1.6,0.6,2.5,0.6
		c1.1,0,1.9-0.2,2.5-0.7C604.7,201.9,605,201.3,605,200.6z"/>
	<path class="st2" d="M612.1,187.4v3.4h2.9v1.2h-2.9v8.6c0,0.9,0.2,1.5,0.5,1.8c0.3,0.4,0.7,0.5,1.3,0.5c0.2,0,0.5,0,0.7,0
		c0.2,0,0.5-0.1,0.8-0.1l0.2,1.1c-0.2,0.1-0.5,0.2-0.9,0.2c-0.3,0.1-0.7,0.1-1,0.1c-0.9,0-1.7-0.3-2.2-0.9s-0.8-1.5-0.8-2.8V192
		h-2.3v-1.2h2.3v-3.4H612.1z"/>
	<path class="st2" d="M632.9,201.8c-0.4,0.8-1,1.4-1.7,1.8c-0.7,0.4-1.6,0.6-2.5,0.6c-1.4,0-2.5-0.5-3.3-1.4
		c-0.8-0.9-1.2-2.4-1.2-4.4v-7.7h1.5v7.7c0,1.6,0.3,2.8,0.8,3.5c0.5,0.7,1.3,1.1,2.3,1.1c1.1,0,2-0.2,2.6-0.7s1.1-1.2,1.4-2.1v-9.4
		h1.5V204H633L632.9,201.8z"/>
	<path class="st2" d="M654.8,197.8c0,2-0.4,3.6-1.3,4.7c-0.9,1.2-2.1,1.8-3.7,1.8c-1,0-1.8-0.2-2.5-0.6c-0.7-0.4-1.3-0.9-1.7-1.7
		l-0.2,2h-1.3v-19h1.5v7.9c0.4-0.7,1-1.3,1.7-1.7c0.7-0.4,1.5-0.6,2.4-0.6c1.6,0,2.8,0.6,3.7,1.9c0.9,1.3,1.3,3,1.3,5.1V197.8z
		 M653.4,197.5c0-1.7-0.3-3.1-1-4.1c-0.7-1.1-1.6-1.6-2.9-1.6c-1,0-1.8,0.3-2.5,0.8c-0.6,0.5-1.1,1.2-1.4,1.9v6
		c0.3,0.8,0.8,1.4,1.5,1.8c0.6,0.5,1.5,0.7,2.4,0.7c1.3,0,2.2-0.5,2.9-1.4c0.6-0.9,1-2.2,1-3.8V197.5z"/>
	<path class="st2" d="M659.7,187h-1.5V185h1.5V187z M659.7,204h-1.5v-13.2h1.5V204z"/>
	<path class="st2" d="M665.4,204H664v-19h1.5V204z"/>
	<path class="st2" d="M668.6,197.2c0-1.9,0.5-3.5,1.6-4.8s2.5-1.9,4.2-1.9c1.8,0,3.2,0.6,4.2,1.9c1.1,1.2,1.6,2.8,1.6,4.8v0.4
		c0,2-0.5,3.6-1.6,4.8c-1.1,1.2-2.5,1.9-4.2,1.9c-1.8,0-3.2-0.6-4.3-1.9c-1.1-1.2-1.6-2.8-1.6-4.8V197.2z M670.1,197.6
		c0,1.5,0.4,2.8,1.2,3.9s1.9,1.6,3.2,1.6c1.4,0,2.4-0.5,3.2-1.6c0.8-1,1.2-2.3,1.2-3.9v-0.4c0-1.5-0.4-2.8-1.2-3.8
		c-0.8-1-1.9-1.6-3.2-1.6s-2.4,0.5-3.2,1.6c-0.8,1-1.2,2.3-1.2,3.8V197.6z"/>
	<path class="st2" d="M692.6,197.6h-1.7v6.4h-1.5v-19h1.5v11.4h1.5l4.9-5.5h1.7l0,0.1l-5.3,6l5.8,7.1l0,0.1H698L692.6,197.6z"/>
	<path class="st2" d="M710.1,204c-0.1-0.4-0.2-0.8-0.2-1.2c0-0.3-0.1-0.7-0.1-1c-0.5,0.7-1.1,1.3-2,1.7c-0.8,0.5-1.7,0.7-2.7,0.7
		c-1.3,0-2.3-0.3-3-1s-1.1-1.6-1.1-2.7c0-1.2,0.5-2.2,1.6-2.9s2.5-1.1,4.3-1.1h2.9v-1.6c0-0.9-0.3-1.7-0.9-2.2s-1.5-0.8-2.5-0.8
		c-1,0-1.9,0.3-2.5,0.8c-0.7,0.5-1,1.1-1,1.9l-1.3,0l0-0.1c0-1,0.4-1.9,1.3-2.6c0.9-0.8,2.2-1.2,3.6-1.2c1.5,0,2.6,0.4,3.5,1.1
		c0.9,0.7,1.3,1.8,1.3,3.2v6.5c0,0.5,0,0.9,0.1,1.4s0.1,0.9,0.3,1.3H710.1z M705.3,203c1,0,2-0.2,2.8-0.7c0.8-0.5,1.4-1.1,1.7-1.9
		v-2.8h-2.9c-1.3,0-2.4,0.3-3.2,0.8c-0.8,0.6-1.2,1.3-1.2,2.1c0,0.7,0.2,1.3,0.7,1.8C703.8,202.7,704.4,203,705.3,203z"/>
	<path class="st2" d="M718.3,197.6h-1.7v6.4h-1.5v-19h1.5v11.4h1.5l4.9-5.5h1.7l0,0.1l-5.3,6l5.8,7.1l0,0.1h-1.7L718.3,197.6z"/>
	<path class="st2" d="M731.2,200.7l0.4,1.6h0.1l0.5-1.6l3.6-9.9h1.5l-5,13.2h-1.2l-5-13.2h1.5L731.2,200.7z"/>
	<path class="st2" d="M738.7,197.2c0-1.9,0.5-3.5,1.6-4.8s2.5-1.9,4.2-1.9c1.8,0,3.2,0.6,4.2,1.9c1.1,1.2,1.6,2.8,1.6,4.8v0.4
		c0,2-0.5,3.6-1.6,4.8c-1.1,1.2-2.5,1.9-4.2,1.9c-1.8,0-3.2-0.6-4.3-1.9c-1.1-1.2-1.6-2.8-1.6-4.8V197.2z M740.2,197.6
		c0,1.5,0.4,2.8,1.2,3.9s1.9,1.6,3.2,1.6c1.4,0,2.4-0.5,3.2-1.6c0.8-1,1.2-2.3,1.2-3.9v-0.4c0-1.5-0.4-2.8-1.2-3.8
		c-0.8-1-1.9-1.6-3.2-1.6s-2.4,0.5-3.2,1.6c-0.8,1-1.2,2.3-1.2,3.8V197.6z"/>
	<path class="st2" d="M755.2,190.8v14.3c0,1.4-0.3,2.4-1,3.1c-0.7,0.7-1.6,1.1-2.7,1.1c-0.2,0-0.5,0-0.7-0.1c-0.2,0-0.4-0.1-0.7-0.2
		l0.2-1.2c0.1,0,0.3,0.1,0.5,0.1c0.2,0,0.4,0.1,0.6,0.1c0.7,0,1.3-0.3,1.7-0.8c0.4-0.5,0.6-1.2,0.6-2.2v-14.3H755.2z M755.1,187
		h-1.5v-2h1.5V187z"/>
	<path class="st2" d="M773.3,200.6c0-0.6-0.3-1.2-0.8-1.6c-0.5-0.5-1.4-0.8-2.8-1.1c-1.6-0.3-2.7-0.8-3.5-1.4
		c-0.8-0.6-1.1-1.4-1.1-2.4c0-1,0.4-1.9,1.3-2.6c0.8-0.7,2-1,3.4-1c1.5,0,2.7,0.4,3.5,1.1c0.9,0.7,1.3,1.7,1.2,2.8l0,0.1h-1.4
		c0-0.7-0.3-1.4-0.9-1.9c-0.6-0.5-1.4-0.8-2.5-0.8c-1.1,0-1.9,0.2-2.4,0.7c-0.5,0.5-0.8,1-0.8,1.6c0,0.6,0.2,1.1,0.7,1.5
		c0.5,0.4,1.4,0.7,2.8,1c1.6,0.4,2.7,0.8,3.5,1.4c0.8,0.6,1.2,1.4,1.2,2.5c0,1.1-0.4,2-1.3,2.7c-0.9,0.7-2.1,1-3.5,1
		c-1.6,0-2.9-0.4-3.8-1.1c-0.9-0.8-1.3-1.7-1.3-2.7l0-0.1h1.3c0.1,0.9,0.4,1.6,1.2,2.1c0.7,0.4,1.6,0.6,2.5,0.6
		c1.1,0,1.9-0.2,2.5-0.7C773,201.9,773.3,201.3,773.3,200.6z"/>
	<path class="st2" d="M779.8,187h-1.5V185h1.5V187z M779.8,204h-1.5v-13.2h1.5V204z"/>
	<path class="st2" d="M786.1,187.4v3.4h2.9v1.2h-2.9v8.6c0,0.9,0.2,1.5,0.5,1.8c0.3,0.4,0.7,0.5,1.3,0.5c0.2,0,0.5,0,0.7,0
		c0.2,0,0.5-0.1,0.8-0.1l0.2,1.1c-0.2,0.1-0.5,0.2-0.9,0.2c-0.3,0.1-0.7,0.1-1,0.1c-0.9,0-1.7-0.3-2.2-0.9s-0.8-1.5-0.8-2.8V192
		h-2.3v-1.2h2.3v-3.4H786.1z"/>
	<path class="st2" d="M800.8,201.8c-0.4,0.8-1,1.4-1.7,1.8c-0.7,0.4-1.6,0.6-2.5,0.6c-1.4,0-2.5-0.5-3.3-1.4
		c-0.8-0.9-1.2-2.4-1.2-4.4v-7.7h1.5v7.7c0,1.6,0.3,2.8,0.8,3.5c0.5,0.7,1.3,1.1,2.3,1.1c1.1,0,2-0.2,2.6-0.7s1.1-1.2,1.4-2.1v-9.4
		h1.5V204h-1.3L800.8,201.8z"/>
	<path class="st2" d="M814.4,204c-0.1-0.4-0.2-0.8-0.2-1.2c0-0.3-0.1-0.7-0.1-1c-0.5,0.7-1.1,1.3-2,1.7c-0.8,0.5-1.7,0.7-2.7,0.7
		c-1.3,0-2.3-0.3-3-1s-1.1-1.6-1.1-2.7c0-1.2,0.5-2.2,1.6-2.9s2.5-1.1,4.3-1.1h2.9v-1.6c0-0.9-0.3-1.7-0.9-2.2s-1.5-0.8-2.5-0.8
		c-1,0-1.9,0.3-2.5,0.8c-0.7,0.5-1,1.1-1,1.9l-1.3,0l0-0.1c0-1,0.4-1.9,1.3-2.6c0.9-0.8,2.2-1.2,3.6-1.2c1.5,0,2.6,0.4,3.5,1.1
		c0.9,0.7,1.3,1.8,1.3,3.2v6.5c0,0.5,0,0.9,0.1,1.4s0.1,0.9,0.3,1.3H814.4z M809.6,203c1,0,2-0.2,2.8-0.7c0.8-0.5,1.4-1.1,1.7-1.9
		v-2.8h-2.9c-1.3,0-2.4,0.3-3.2,0.8c-0.8,0.6-1.2,1.3-1.2,2.1c0,0.7,0.2,1.3,0.7,1.8C808.1,202.7,808.7,203,809.6,203z"/>
	<path class="st2" d="M824.4,203c1,0,1.8-0.3,2.6-0.8c0.7-0.6,1.1-1.3,1.1-2.3h1.3l0,0.1c0,1.2-0.4,2.2-1.5,3.1
		c-1,0.8-2.2,1.2-3.5,1.2c-1.8,0-3.2-0.6-4.2-1.8c-1-1.2-1.5-2.8-1.5-4.8v-0.5c0-1.9,0.5-3.5,1.5-4.7c1-1.2,2.4-1.9,4.2-1.9
		c1.4,0,2.7,0.4,3.6,1.3c1,0.9,1.4,2,1.4,3.4l0,0.1h-1.3c0-1.1-0.4-1.9-1.1-2.5c-0.7-0.6-1.6-0.9-2.6-0.9c-1.4,0-2.5,0.5-3.1,1.5
		c-0.7,1-1,2.3-1,3.8v0.5c0,1.6,0.3,2.8,1,3.9C821.9,202.5,822.9,203,824.4,203z"/>
	<path class="st2" d="M834.1,187h-1.5V185h1.5V187z M834.1,204h-1.5v-13.2h1.5V204z"/>
	<path class="st2" d="M839.8,190.8v14.3c0,1.4-0.3,2.4-1,3.1c-0.7,0.7-1.6,1.1-2.7,1.1c-0.2,0-0.5,0-0.7-0.1c-0.2,0-0.4-0.1-0.7-0.2
		l0.2-1.2c0.1,0,0.3,0.1,0.5,0.1c0.2,0,0.4,0.1,0.6,0.1c0.7,0,1.3-0.3,1.7-0.8c0.4-0.5,0.6-1.2,0.6-2.2v-14.3H839.8z M839.8,187
		h-1.5v-2h1.5V187z"/>
	<path class="st2" d="M845.7,187h-1.5V185h1.5V187z M845.7,204h-1.5v-13.2h1.5V204z"/>
	<path class="st2" d="M851.5,204h-1.7v-2h1.7V204z"/>
</g>
<g>
	<path class="st2" d="M145.6,238.5l0.4,1.2h0.1l0.4-1.2l5.3-14.8h1.6l-6.6,17.8h-1.4l-6.6-17.8h1.6L145.6,238.5z"/>
	<path class="st2" d="M163.4,241.5c-0.1-0.4-0.2-0.8-0.2-1.2c0-0.3-0.1-0.7-0.1-1c-0.5,0.7-1.1,1.3-2,1.7c-0.8,0.5-1.7,0.7-2.7,0.7
		c-1.3,0-2.3-0.3-3-1c-0.7-0.7-1.1-1.6-1.1-2.7c0-1.2,0.5-2.2,1.6-2.9c1.1-0.7,2.5-1.1,4.3-1.1h2.9v-1.6c0-0.9-0.3-1.7-0.9-2.2
		c-0.6-0.5-1.5-0.8-2.5-0.8c-1,0-1.9,0.3-2.5,0.8c-0.7,0.5-1,1.1-1,1.9l-1.3,0l0-0.1c0-1,0.4-1.9,1.3-2.6c0.9-0.8,2.2-1.2,3.6-1.2
		c1.5,0,2.6,0.4,3.5,1.1c0.9,0.7,1.3,1.8,1.3,3.2v6.5c0,0.5,0,0.9,0.1,1.4c0.1,0.4,0.1,0.9,0.3,1.3H163.4z M158.6,240.5
		c1,0,2-0.2,2.8-0.7c0.8-0.5,1.4-1.1,1.7-1.9v-2.8h-2.9c-1.3,0-2.4,0.3-3.2,0.8c-0.8,0.6-1.2,1.3-1.2,2.1c0,0.7,0.2,1.3,0.7,1.8
		C157.1,240.2,157.7,240.5,158.6,240.5z"/>
	<path class="st2" d="M176.4,238.1c0-0.6-0.3-1.2-0.8-1.6c-0.5-0.5-1.4-0.8-2.8-1.1c-1.6-0.3-2.7-0.8-3.5-1.4
		c-0.8-0.6-1.1-1.4-1.1-2.4c0-1,0.4-1.9,1.3-2.6c0.9-0.7,2-1,3.4-1c1.5,0,2.7,0.4,3.5,1.1c0.9,0.7,1.3,1.7,1.2,2.8l0,0.1h-1.4
		c0-0.7-0.3-1.4-0.9-1.9c-0.6-0.5-1.4-0.8-2.5-0.8c-1.1,0-1.9,0.2-2.4,0.7c-0.5,0.5-0.8,1-0.8,1.6c0,0.6,0.2,1.1,0.7,1.5
		c0.5,0.4,1.4,0.7,2.8,1c1.6,0.4,2.7,0.8,3.5,1.4c0.8,0.6,1.2,1.4,1.2,2.5c0,1.1-0.4,2-1.3,2.7c-0.9,0.7-2.1,1-3.5,1
		c-1.6,0-2.9-0.4-3.8-1.1c-0.9-0.8-1.3-1.7-1.3-2.7l0-0.1h1.3c0.1,0.9,0.4,1.6,1.2,2.1c0.7,0.4,1.6,0.6,2.5,0.6
		c1.1,0,1.9-0.2,2.5-0.7C176.1,239.4,176.4,238.8,176.4,238.1z M172.9,225l2-2.1h1.4v0.2l-2.8,2.7h-1.2l-2.8-2.7v-0.2h1.4L172.9,225
		z"/>
	<path class="st2" d="M186.2,241.8c-1.7,0-3-0.6-4.1-1.8c-1.1-1.2-1.6-2.8-1.6-4.6v-0.7c0-1.9,0.5-3.5,1.6-4.7
		c1.1-1.2,2.4-1.9,3.9-1.9c1.6,0,2.9,0.5,3.8,1.5s1.4,2.4,1.4,4.1v1.2h-9.3v0.4c0,1.5,0.4,2.7,1.2,3.7c0.8,1,1.8,1.5,3.1,1.5
		c0.9,0,1.7-0.1,2.3-0.4c0.6-0.3,1.2-0.6,1.6-1.1l0.6,1c-0.5,0.5-1.1,0.9-1.9,1.2C188.1,241.6,187.2,241.8,186.2,241.8z M186,229.3
		c-1.1,0-2,0.4-2.7,1.2c-0.7,0.8-1.2,1.9-1.3,3.1l0,0.1h7.7v-0.4c0-1.1-0.3-2.1-1-2.9C188.1,229.7,187.1,229.3,186,229.3z"/>
	<path class="st2" d="M201.1,240.3h8.6v1.2h-10.4v-1.1l8-10.9h-7.7v-1.2h9.6v1.1L201.1,240.3z M204.6,225.2l2-2.1h1.4v0.2l-2.8,2.7
		H204l-2.8-2.7v-0.2h1.4L204.6,225.2z"/>
	<path class="st2" d="M217.2,241.8c-1.7,0-3-0.6-4.1-1.8c-1.1-1.2-1.6-2.8-1.6-4.6v-0.7c0-1.9,0.5-3.5,1.6-4.7
		c1.1-1.2,2.4-1.9,3.9-1.9c1.6,0,2.9,0.5,3.8,1.5s1.4,2.4,1.4,4.1v1.2h-9.3v0.4c0,1.5,0.4,2.7,1.2,3.7c0.8,1,1.8,1.5,3.1,1.5
		c0.9,0,1.7-0.1,2.3-0.4c0.6-0.3,1.2-0.6,1.6-1.1l0.6,1c-0.5,0.5-1.1,0.9-1.9,1.2C219.1,241.6,218.2,241.8,217.2,241.8z M217,229.3
		c-1.1,0-2,0.4-2.7,1.2c-0.7,0.8-1.2,1.9-1.3,3.1l0,0.1h7.7v-0.4c0-1.1-0.3-2.1-1-2.9C219.1,229.7,218.2,229.3,217,229.3z"/>
	<path class="st2" d="M226.7,241.5h-1.5v-19h1.5V241.5z"/>
	<path class="st2" d="M232.5,228.3v14.3c0,1.4-0.3,2.4-1,3.1c-0.7,0.7-1.6,1.1-2.7,1.1c-0.2,0-0.5,0-0.7-0.1c-0.2,0-0.4-0.1-0.7-0.2
		l0.2-1.2c0.1,0,0.3,0.1,0.5,0.1c0.2,0,0.4,0.1,0.6,0.1c0.7,0,1.3-0.3,1.7-0.8c0.4-0.5,0.6-1.2,0.6-2.2v-14.3H232.5z M232.4,224.5
		H231v-2h1.5V224.5z"/>
	<path class="st2" d="M241.6,241.8c-1.7,0-3-0.6-4.1-1.8c-1.1-1.2-1.6-2.8-1.6-4.6v-0.7c0-1.9,0.5-3.5,1.6-4.7
		c1.1-1.2,2.4-1.9,3.9-1.9c1.6,0,2.9,0.5,3.8,1.5s1.4,2.4,1.4,4.1v1.2h-9.3v0.4c0,1.5,0.4,2.7,1.2,3.7c0.8,1,1.8,1.5,3.1,1.5
		c0.9,0,1.7-0.1,2.3-0.4c0.6-0.3,1.2-0.6,1.6-1.1l0.6,1c-0.5,0.5-1.1,0.9-1.9,1.2C243.6,241.6,242.7,241.8,241.6,241.8z
		 M241.5,229.3c-1.1,0-2,0.4-2.7,1.2c-0.7,0.8-1.2,1.9-1.3,3.1l0,0.1h7.7v-0.4c0-1.1-0.3-2.1-1-2.9
		C243.5,229.7,242.6,229.3,241.5,229.3z"/>
	<path class="st2" d="M257.3,224.5h-1.5v-2.1h1.5V224.5z M257.3,241.5h-1.5v-13.2h1.5V241.5z"/>
	<path class="st2" d="M278,235.3c0,2-0.4,3.6-1.3,4.7c-0.9,1.2-2.1,1.8-3.7,1.8c-0.9,0-1.7-0.2-2.4-0.5c-0.7-0.3-1.3-0.9-1.7-1.5
		v6.8h-1.5v-18.3h1.2l0.2,2.1c0.4-0.7,1-1.3,1.7-1.7c0.7-0.4,1.5-0.6,2.5-0.6c1.6,0,2.8,0.6,3.7,1.9c0.9,1.3,1.3,3,1.3,5.1V235.3z
		 M276.6,235c0-1.7-0.3-3-1-4.1c-0.7-1.1-1.6-1.6-2.9-1.6c-1,0-1.8,0.2-2.4,0.7c-0.6,0.5-1.1,1.1-1.4,1.8v6.4
		c0.3,0.7,0.8,1.3,1.4,1.7c0.6,0.4,1.4,0.6,2.4,0.6c1.3,0,2.2-0.5,2.9-1.4c0.7-1,1-2.2,1-3.8V235z"/>
	<path class="st2" d="M280.5,234.7c0-1.9,0.5-3.5,1.6-4.8c1.1-1.2,2.5-1.9,4.2-1.9c1.8,0,3.2,0.6,4.2,1.9c1.1,1.2,1.6,2.8,1.6,4.8
		v0.4c0,2-0.5,3.6-1.6,4.8c-1.1,1.2-2.5,1.9-4.2,1.9c-1.8,0-3.2-0.6-4.3-1.9c-1.1-1.2-1.6-2.8-1.6-4.8V234.7z M282,235.1
		c0,1.5,0.4,2.8,1.2,3.9c0.8,1,1.9,1.6,3.2,1.6c1.4,0,2.4-0.5,3.2-1.6c0.8-1,1.2-2.3,1.2-3.9v-0.4c0-1.5-0.4-2.8-1.2-3.8
		c-0.8-1-1.9-1.6-3.2-1.6s-2.4,0.5-3.2,1.6c-0.8,1-1.2,2.3-1.2,3.8V235.1z"/>
	<path class="st2" d="M297.5,224.9v3.4h2.9v1.2h-2.9v8.6c0,0.9,0.2,1.5,0.5,1.8c0.3,0.4,0.7,0.5,1.3,0.5c0.2,0,0.5,0,0.7,0
		c0.2,0,0.5-0.1,0.8-0.1l0.2,1.1c-0.2,0.1-0.5,0.2-0.9,0.2c-0.4,0.1-0.7,0.1-1,0.1c-0.9,0-1.6-0.3-2.2-0.9c-0.5-0.6-0.8-1.5-0.8-2.8
		v-8.6h-2.3v-1.2h2.3v-3.4H297.5z"/>
	<path class="st2" d="M309.6,229.5l-1.1-0.1c-0.9,0-1.7,0.3-2.3,0.8c-0.6,0.5-1,1.2-1.3,2.1v9.1h-1.5v-13.2h1.3l0.2,2.2v0.1
		c0.4-0.8,0.9-1.4,1.5-1.9c0.6-0.5,1.4-0.7,2.3-0.7c0.2,0,0.4,0,0.5,0c0.2,0,0.3,0.1,0.4,0.1L309.6,229.5z"/>
	<path class="st2" d="M316.8,241.8c-1.7,0-3-0.6-4.1-1.8c-1.1-1.2-1.6-2.8-1.6-4.6v-0.7c0-1.9,0.5-3.5,1.6-4.7
		c1.1-1.2,2.4-1.9,3.9-1.9c1.6,0,2.9,0.5,3.8,1.5s1.4,2.4,1.4,4.1v1.2h-9.3v0.4c0,1.5,0.4,2.7,1.2,3.7c0.8,1,1.8,1.5,3.1,1.5
		c0.9,0,1.7-0.1,2.3-0.4c0.6-0.3,1.2-0.6,1.6-1.1l0.6,1c-0.5,0.5-1.1,0.9-1.9,1.2C318.7,241.6,317.8,241.8,316.8,241.8z
		 M316.6,229.3c-1.1,0-2,0.4-2.7,1.2c-0.7,0.8-1.2,1.9-1.3,3.1l0,0.1h7.7v-0.4c0-1.1-0.3-2.1-1-2.9
		C318.7,229.7,317.7,229.3,316.6,229.3z"/>
	<path class="st2" d="M335.3,235.3c0,2-0.4,3.6-1.3,4.7c-0.9,1.2-2.1,1.8-3.7,1.8c-1,0-1.8-0.2-2.5-0.6c-0.7-0.4-1.3-0.9-1.7-1.7
		l-0.2,2h-1.3v-19h1.5v7.9c0.4-0.7,1-1.3,1.7-1.7c0.7-0.4,1.5-0.6,2.4-0.6c1.6,0,2.8,0.6,3.7,1.9c0.9,1.3,1.3,3,1.3,5.1V235.3z
		 M333.9,235c0-1.7-0.3-3.1-1-4.1c-0.7-1.1-1.6-1.6-2.9-1.6c-1,0-1.8,0.3-2.5,0.8c-0.6,0.5-1.1,1.2-1.4,1.9v6
		c0.3,0.8,0.8,1.4,1.5,1.8c0.6,0.5,1.5,0.7,2.4,0.7c1.3,0,2.2-0.5,2.9-1.4c0.6-0.9,1-2.2,1-3.8V235z"/>
	<path class="st2" d="M343.6,241.8c-1.7,0-3-0.6-4.1-1.8c-1.1-1.2-1.6-2.8-1.6-4.6v-0.7c0-1.9,0.5-3.5,1.6-4.7
		c1.1-1.2,2.4-1.9,3.9-1.9c1.6,0,2.9,0.5,3.8,1.5s1.4,2.4,1.4,4.1v1.2h-9.3v0.4c0,1.5,0.4,2.7,1.2,3.7c0.8,1,1.8,1.5,3.1,1.5
		c0.9,0,1.7-0.1,2.3-0.4c0.6-0.3,1.2-0.6,1.6-1.1l0.6,1c-0.5,0.5-1.1,0.9-1.9,1.2C345.5,241.6,344.6,241.8,343.6,241.8z
		 M343.4,229.3c-1.1,0-2,0.4-2.7,1.2c-0.7,0.8-1.2,1.9-1.3,3.1l0,0.1h7.7v-0.4c0-1.1-0.3-2.1-1-2.9
		C345.5,229.7,344.5,229.3,343.4,229.3z"/>
	<path class="st2" d="M365.5,238.1c0-0.6-0.3-1.2-0.8-1.6c-0.5-0.5-1.4-0.8-2.8-1.1c-1.6-0.3-2.7-0.8-3.5-1.4
		c-0.8-0.6-1.1-1.4-1.1-2.4c0-1,0.4-1.9,1.3-2.6c0.9-0.7,2-1,3.4-1c1.5,0,2.7,0.4,3.5,1.1c0.9,0.7,1.3,1.7,1.2,2.8l0,0.1h-1.4
		c0-0.7-0.3-1.4-0.9-1.9c-0.6-0.5-1.4-0.8-2.5-0.8c-1.1,0-1.9,0.2-2.4,0.7c-0.5,0.5-0.8,1-0.8,1.6c0,0.6,0.2,1.1,0.7,1.5
		c0.5,0.4,1.4,0.7,2.8,1c1.6,0.4,2.7,0.8,3.5,1.4c0.8,0.6,1.2,1.4,1.2,2.5c0,1.1-0.4,2-1.3,2.7c-0.9,0.7-2.1,1-3.5,1
		c-1.6,0-2.9-0.4-3.8-1.1c-0.9-0.8-1.3-1.7-1.3-2.7l0-0.1h1.3c0.1,0.9,0.4,1.6,1.2,2.1c0.7,0.4,1.6,0.6,2.5,0.6
		c1.1,0,1.9-0.2,2.5-0.7C365.2,239.4,365.5,238.8,365.5,238.1z"/>
	<path class="st2" d="M379,239.3c-0.4,0.8-1,1.4-1.7,1.8c-0.7,0.4-1.6,0.6-2.5,0.6c-1.4,0-2.5-0.5-3.3-1.4c-0.8-0.9-1.2-2.4-1.2-4.4
		v-7.7h1.5v7.7c0,1.6,0.3,2.8,0.8,3.5c0.5,0.7,1.3,1.1,2.3,1.1c1.1,0,2-0.2,2.6-0.7s1.1-1.2,1.4-2.1v-9.4h1.5v13.2h-1.3L379,239.3z"
		/>
	<path class="st2" d="M391.9,224.5h-1.5v-2.1h1.5V224.5z M391.9,241.5h-1.5v-13.2h1.5V241.5z"/>
	<path class="st2" d="M403.9,238.1c0-0.6-0.3-1.2-0.8-1.6c-0.5-0.5-1.4-0.8-2.8-1.1c-1.6-0.3-2.7-0.8-3.5-1.4
		c-0.8-0.6-1.1-1.4-1.1-2.4c0-1,0.4-1.9,1.3-2.6c0.9-0.7,2-1,3.4-1c1.5,0,2.7,0.4,3.5,1.1c0.9,0.7,1.3,1.7,1.2,2.8l0,0.1h-1.4
		c0-0.7-0.3-1.4-0.9-1.9c-0.6-0.5-1.4-0.8-2.5-0.8c-1.1,0-1.9,0.2-2.4,0.7c-0.5,0.5-0.8,1-0.8,1.6c0,0.6,0.2,1.1,0.7,1.5
		c0.5,0.4,1.4,0.7,2.8,1c1.6,0.4,2.7,0.8,3.5,1.4c0.8,0.6,1.2,1.4,1.2,2.5c0,1.1-0.4,2-1.3,2.7c-0.9,0.7-2.1,1-3.5,1
		c-1.6,0-2.9-0.4-3.8-1.1c-0.9-0.8-1.3-1.7-1.3-2.7l0-0.1h1.3c0.1,0.9,0.4,1.6,1.2,2.1c0.7,0.4,1.6,0.6,2.5,0.6
		c1.1,0,1.9-0.2,2.5-0.7C403.6,239.4,403.9,238.8,403.9,238.1z"/>
	<path class="st2" d="M411,224.9v3.4h2.9v1.2H411v8.6c0,0.9,0.2,1.5,0.5,1.8c0.3,0.4,0.7,0.5,1.3,0.5c0.2,0,0.5,0,0.7,0
		c0.2,0,0.5-0.1,0.8-0.1l0.2,1.1c-0.2,0.1-0.5,0.2-0.9,0.2c-0.4,0.1-0.7,0.1-1,0.1c-0.9,0-1.6-0.3-2.2-0.9c-0.5-0.6-0.8-1.5-0.8-2.8
		v-8.6h-2.3v-1.2h2.3v-3.4H411z"/>
	<path class="st2" d="M416,234.7c0-1.9,0.5-3.5,1.6-4.8c1.1-1.2,2.5-1.9,4.2-1.9c1.8,0,3.2,0.6,4.2,1.9c1.1,1.2,1.6,2.8,1.6,4.8v0.4
		c0,2-0.5,3.6-1.6,4.8c-1.1,1.2-2.5,1.9-4.2,1.9c-1.8,0-3.2-0.6-4.3-1.9c-1.1-1.2-1.6-2.8-1.6-4.8V234.7z M417.4,235.1
		c0,1.5,0.4,2.8,1.2,3.9c0.8,1,1.9,1.6,3.2,1.6c1.4,0,2.4-0.5,3.2-1.6c0.8-1,1.2-2.3,1.2-3.9v-0.4c0-1.5-0.4-2.8-1.2-3.8
		c-0.8-1-1.9-1.6-3.2-1.6s-2.4,0.5-3.2,1.6c-0.8,1-1.2,2.3-1.2,3.8V235.1z"/>
	<path class="st2" d="M434.3,238.2l0.4,1.6h0.1l0.5-1.6l3.6-9.9h1.5l-5,13.2h-1.2l-5-13.2h1.5L434.3,238.2z"/>
	<path class="st2" d="M448.8,229.5l-1.1-0.1c-0.9,0-1.7,0.3-2.3,0.8c-0.6,0.5-1,1.2-1.3,2.1v9.1h-1.5v-13.2h1.3l0.2,2.2v0.1
		c0.4-0.8,0.9-1.4,1.5-1.9c0.6-0.5,1.4-0.7,2.3-0.7c0.2,0,0.4,0,0.5,0c0.2,0,0.3,0.1,0.4,0.1L448.8,229.5z"/>
	<path class="st2" d="M456,241.8c-1.7,0-3-0.6-4.1-1.8c-1.1-1.2-1.6-2.8-1.6-4.6v-0.7c0-1.9,0.5-3.5,1.6-4.7
		c1.1-1.2,2.4-1.9,3.9-1.9c1.6,0,2.9,0.5,3.8,1.5s1.4,2.4,1.4,4.1v1.2h-9.3v0.4c0,1.5,0.4,2.7,1.2,3.7c0.8,1,1.8,1.5,3.1,1.5
		c0.9,0,1.7-0.1,2.3-0.4c0.6-0.3,1.2-0.6,1.6-1.1l0.6,1c-0.5,0.5-1.1,0.9-1.9,1.2C457.9,241.6,457,241.8,456,241.8z M455.8,229.3
		c-1.1,0-2,0.4-2.7,1.2c-0.7,0.8-1.2,1.9-1.3,3.1l0,0.1h7.7v-0.4c0-1.1-0.3-2.1-1-2.9C457.9,229.7,457,229.3,455.8,229.3z"/>
	<path class="st2" d="M465.1,228.3l0.1,2.2c0.4-0.8,1-1.4,1.7-1.8c0.7-0.4,1.5-0.6,2.5-0.6c1,0,1.9,0.2,2.5,0.7
		c0.7,0.5,1.2,1.2,1.5,2.2c0.4-0.9,1-1.7,1.7-2.2c0.7-0.5,1.6-0.8,2.7-0.8c1.4,0,2.5,0.5,3.3,1.4c0.8,0.9,1.1,2.4,1.1,4.3v7.7h-1.5
		v-7.7c0-1.6-0.3-2.8-0.9-3.5c-0.6-0.7-1.4-1-2.4-1c-1.1,0-2,0.4-2.6,1.1c-0.6,0.7-1,1.6-1.1,2.7c0,0.1,0,0.1,0,0.2
		c0,0.1,0,0.2,0,0.2v7.9h-1.5v-7.7c0-1.6-0.3-2.7-0.9-3.4c-0.6-0.7-1.4-1-2.4-1c-1,0-1.9,0.3-2.5,0.8c-0.6,0.5-1,1.2-1.3,2.1v9.3
		h-1.5v-13.2H465.1z"/>
	<path class="st2" d="M491,241.8c-1.7,0-3-0.6-4.1-1.8s-1.6-2.8-1.6-4.6v-0.7c0-1.9,0.5-3.5,1.6-4.7c1.1-1.2,2.4-1.9,3.9-1.9
		c1.6,0,2.9,0.5,3.8,1.5s1.4,2.4,1.4,4.1v1.2h-9.3v0.4c0,1.5,0.4,2.7,1.2,3.7c0.8,1,1.8,1.5,3.1,1.5c0.9,0,1.7-0.1,2.3-0.4
		c0.6-0.3,1.2-0.6,1.6-1.1l0.6,1c-0.5,0.5-1.1,0.9-1.9,1.2S492.1,241.8,491,241.8z M490.8,229.3c-1.1,0-2,0.4-2.7,1.2
		c-0.7,0.8-1.2,1.9-1.3,3.1l0,0.1h7.7v-0.4c0-1.1-0.3-2.1-1-2.9S492,229.3,490.8,229.3z"/>
	<path class="st2" d="M500.2,228.3l0.1,2.3c0.4-0.8,1-1.4,1.7-1.9c0.7-0.4,1.6-0.7,2.6-0.7c1.4,0,2.5,0.4,3.3,1.3
		c0.7,0.9,1.1,2.2,1.1,4.1v8h-1.5v-8c0-1.5-0.3-2.6-0.8-3.2c-0.6-0.6-1.4-0.9-2.4-0.9c-1,0-1.9,0.3-2.5,0.8
		c-0.6,0.5-1.1,1.3-1.4,2.2v9.2h-1.5v-13.2H500.2z"/>
	<path class="st2" d="M512,234.7c0-1.9,0.5-3.5,1.6-4.8s2.5-1.9,4.2-1.9c1.8,0,3.2,0.6,4.2,1.9c1.1,1.2,1.6,2.8,1.6,4.8v0.4
		c0,2-0.5,3.6-1.6,4.8c-1.1,1.2-2.5,1.9-4.2,1.9c-1.8,0-3.2-0.6-4.3-1.9c-1.1-1.2-1.6-2.8-1.6-4.8V234.7z M513.5,235.1
		c0,1.5,0.4,2.8,1.2,3.9s1.9,1.6,3.2,1.6c1.4,0,2.4-0.5,3.2-1.6c0.8-1,1.2-2.3,1.2-3.9v-0.4c0-1.5-0.4-2.8-1.2-3.8
		c-0.8-1-1.9-1.6-3.2-1.6s-2.4,0.5-3.2,1.6c-0.8,1-1.2,2.3-1.2,3.8V235.1z"/>
	<path class="st2" d="M534.2,228.3l0.1,2.3c0.4-0.8,1-1.4,1.7-1.9c0.7-0.4,1.6-0.7,2.6-0.7c1.4,0,2.5,0.4,3.3,1.3
		c0.7,0.9,1.1,2.2,1.1,4.1v8h-1.5v-8c0-1.5-0.3-2.6-0.8-3.2c-0.6-0.6-1.4-0.9-2.4-0.9c-1,0-1.9,0.3-2.5,0.8
		c-0.6,0.5-1.1,1.3-1.4,2.2v9.2h-1.5v-13.2H534.2z"/>
	<path class="st2" d="M555.1,241.5c-0.1-0.4-0.2-0.8-0.2-1.2c0-0.3-0.1-0.7-0.1-1c-0.5,0.7-1.1,1.3-2,1.7c-0.8,0.5-1.7,0.7-2.7,0.7
		c-1.3,0-2.3-0.3-3-1s-1.1-1.6-1.1-2.7c0-1.2,0.5-2.2,1.6-2.9s2.5-1.1,4.3-1.1h2.9v-1.6c0-0.9-0.3-1.7-0.9-2.2s-1.5-0.8-2.5-0.8
		c-1,0-1.9,0.3-2.5,0.8c-0.7,0.5-1,1.1-1,1.9l-1.3,0l0-0.1c0-1,0.4-1.9,1.3-2.6c0.9-0.8,2.2-1.2,3.6-1.2c1.5,0,2.6,0.4,3.5,1.1
		c0.9,0.7,1.3,1.8,1.3,3.2v6.5c0,0.5,0,0.9,0.1,1.4s0.1,0.9,0.3,1.3H555.1z M550.3,240.5c1,0,2-0.2,2.8-0.7c0.8-0.5,1.4-1.1,1.7-1.9
		v-2.8h-2.9c-1.3,0-2.4,0.3-3.2,0.8c-0.8,0.6-1.2,1.3-1.2,2.1c0,0.7,0.2,1.3,0.7,1.8C548.8,240.2,549.5,240.5,550.3,240.5z"/>
	<path class="st2" d="M568.1,238.1c0-0.6-0.3-1.2-0.8-1.6c-0.5-0.5-1.4-0.8-2.8-1.1c-1.6-0.3-2.7-0.8-3.5-1.4
		c-0.8-0.6-1.1-1.4-1.1-2.4c0-1,0.4-1.9,1.3-2.6c0.8-0.7,2-1,3.4-1c1.5,0,2.7,0.4,3.5,1.1c0.9,0.7,1.3,1.7,1.2,2.8l0,0.1H568
		c0-0.7-0.3-1.4-0.9-1.9c-0.6-0.5-1.4-0.8-2.5-0.8c-1.1,0-1.9,0.2-2.4,0.7c-0.5,0.5-0.8,1-0.8,1.6c0,0.6,0.2,1.1,0.7,1.5
		c0.5,0.4,1.4,0.7,2.8,1c1.6,0.4,2.7,0.8,3.5,1.4c0.8,0.6,1.2,1.4,1.2,2.5c0,1.1-0.4,2-1.3,2.7c-0.9,0.7-2.1,1-3.5,1
		c-1.6,0-2.9-0.4-3.8-1.1c-0.9-0.8-1.3-1.7-1.3-2.7l0-0.1h1.3c0.1,0.9,0.4,1.6,1.2,2.1c0.7,0.4,1.6,0.6,2.5,0.6
		c1.1,0,1.9-0.2,2.5-0.7C567.8,239.4,568.1,238.8,568.1,238.1z M564.6,225l2-2.1h1.4v0.2l-2.8,2.7H564l-2.8-2.7v-0.2h1.4L564.6,225z
		"/>
	<path class="st2" d="M577.9,241.8c-1.7,0-3-0.6-4.1-1.8s-1.6-2.8-1.6-4.6v-0.7c0-1.9,0.5-3.5,1.6-4.7c1.1-1.2,2.4-1.9,3.9-1.9
		c1.6,0,2.9,0.5,3.8,1.5s1.4,2.4,1.4,4.1v1.2h-9.3v0.4c0,1.5,0.4,2.7,1.2,3.7c0.8,1,1.8,1.5,3.1,1.5c0.9,0,1.7-0.1,2.3-0.4
		c0.6-0.3,1.2-0.6,1.6-1.1l0.6,1c-0.5,0.5-1.1,0.9-1.9,1.2S579,241.8,577.9,241.8z M577.7,229.3c-1.1,0-2,0.4-2.7,1.2
		c-0.7,0.8-1.2,1.9-1.3,3.1l0,0.1h7.7v-0.4c0-1.1-0.3-2.1-1-2.9S578.9,229.3,577.7,229.3z"/>
	<path class="st2" d="M595.7,238.2l0.4,1.6h0.1l0.5-1.6l3.6-9.9h1.5l-5,13.2h-1.2l-5-13.2h1.5L595.7,238.2z"/>
	<path class="st2" d="M608.9,241.8c-1.7,0-3-0.6-4.1-1.8s-1.6-2.8-1.6-4.6v-0.7c0-1.9,0.5-3.5,1.6-4.7c1.1-1.2,2.4-1.9,3.9-1.9
		c1.6,0,2.9,0.5,3.8,1.5s1.4,2.4,1.4,4.1v1.2h-9.3v0.4c0,1.5,0.4,2.7,1.2,3.7c0.8,1,1.8,1.5,3.1,1.5c0.9,0,1.7-0.1,2.3-0.4
		c0.6-0.3,1.2-0.6,1.6-1.1l0.6,1c-0.5,0.5-1.1,0.9-1.9,1.2S610,241.8,608.9,241.8z M608.8,229.3c-1.1,0-2,0.4-2.7,1.2
		c-0.7,0.8-1.2,1.9-1.3,3.1l0,0.1h7.7v-0.4c0-1.1-0.3-2.1-1-2.9S609.9,229.3,608.8,229.3z"/>
	<path class="st2" d="M624.8,238.1c0-0.6-0.3-1.2-0.8-1.6c-0.5-0.5-1.4-0.8-2.8-1.1c-1.6-0.3-2.7-0.8-3.5-1.4
		c-0.8-0.6-1.1-1.4-1.1-2.4c0-1,0.4-1.9,1.3-2.6c0.8-0.7,2-1,3.4-1c1.5,0,2.7,0.4,3.5,1.1c0.9,0.7,1.3,1.7,1.2,2.8l0,0.1h-1.4
		c0-0.7-0.3-1.4-0.9-1.9c-0.6-0.5-1.4-0.8-2.5-0.8c-1.1,0-1.9,0.2-2.4,0.7c-0.5,0.5-0.8,1-0.8,1.6c0,0.6,0.2,1.1,0.7,1.5
		c0.5,0.4,1.4,0.7,2.8,1c1.6,0.4,2.7,0.8,3.5,1.4c0.8,0.6,1.2,1.4,1.2,2.5c0,1.1-0.4,2-1.3,2.7c-0.9,0.7-2.1,1-3.5,1
		c-1.6,0-2.9-0.4-3.8-1.1c-0.9-0.8-1.3-1.7-1.3-2.7l0-0.1h1.3c0.1,0.9,0.4,1.6,1.2,2.1c0.7,0.4,1.6,0.6,2.5,0.6
		c1.1,0,1.9-0.2,2.5-0.7C624.5,239.4,624.8,238.8,624.8,238.1z"/>
	<path class="st2" d="M634.6,241.8c-1.7,0-3-0.6-4.1-1.8s-1.6-2.8-1.6-4.6v-0.7c0-1.9,0.5-3.5,1.6-4.7c1.1-1.2,2.4-1.9,3.9-1.9
		c1.6,0,2.9,0.5,3.8,1.5s1.4,2.4,1.4,4.1v1.2h-9.3v0.4c0,1.5,0.4,2.7,1.2,3.7c0.8,1,1.8,1.5,3.1,1.5c0.9,0,1.7-0.1,2.3-0.4
		c0.6-0.3,1.2-0.6,1.6-1.1l0.6,1c-0.5,0.5-1.1,0.9-1.9,1.2S635.6,241.8,634.6,241.8z M634.4,229.3c-1.1,0-2,0.4-2.7,1.2
		c-0.7,0.8-1.2,1.9-1.3,3.1l0,0.1h7.7v-0.4c0-1.1-0.3-2.1-1-2.9S635.5,229.3,634.4,229.3z"/>
	<path class="st2" d="M644.1,241.5h-1.5v-19h1.5V241.5z"/>
	<path class="st2" d="M649.9,228.3v14.3c0,1.4-0.3,2.4-1,3.1c-0.7,0.7-1.6,1.1-2.7,1.1c-0.2,0-0.5,0-0.7-0.1c-0.2,0-0.4-0.1-0.7-0.2
		l0.2-1.2c0.1,0,0.3,0.1,0.5,0.1c0.2,0,0.4,0.1,0.6,0.1c0.7,0,1.3-0.3,1.7-0.8c0.4-0.5,0.6-1.2,0.6-2.2v-14.3H649.9z M649.8,224.5
		h-1.5v-2h1.5V224.5z"/>
	<path class="st2" d="M659,241.8c-1.7,0-3-0.6-4.1-1.8s-1.6-2.8-1.6-4.6v-0.7c0-1.9,0.5-3.5,1.6-4.7c1.1-1.2,2.4-1.9,3.9-1.9
		c1.6,0,2.9,0.5,3.8,1.5s1.4,2.4,1.4,4.1v1.2h-9.3v0.4c0,1.5,0.4,2.7,1.2,3.7c0.8,1,1.8,1.5,3.1,1.5c0.9,0,1.7-0.1,2.3-0.4
		c0.6-0.3,1.2-0.6,1.6-1.1l0.6,1c-0.5,0.5-1.1,0.9-1.9,1.2S660.1,241.8,659,241.8z M658.8,229.3c-1.1,0-2,0.4-2.7,1.2
		c-0.7,0.8-1.2,1.9-1.3,3.1l0,0.1h7.7v-0.4c0-1.1-0.3-2.1-1-2.9S660,229.3,658.8,229.3z"/>
	<path class="st2" d="M674.7,224.5h-1.5v-2.1h1.5V224.5z M674.7,241.5h-1.5v-13.2h1.5V241.5z"/>
	<path class="st2" d="M684,234.7c0-1.9,0.5-3.5,1.6-4.8s2.5-1.9,4.2-1.9c1.8,0,3.2,0.6,4.2,1.9c1.1,1.2,1.6,2.8,1.6,4.8v0.4
		c0,2-0.5,3.6-1.6,4.8c-1.1,1.2-2.5,1.9-4.2,1.9c-1.8,0-3.2-0.6-4.3-1.9c-1.1-1.2-1.6-2.8-1.6-4.8V234.7z M685.4,235.1
		c0,1.5,0.4,2.8,1.2,3.9s1.9,1.6,3.2,1.6c1.4,0,2.4-0.5,3.2-1.6c0.8-1,1.2-2.3,1.2-3.9v-0.4c0-1.5-0.4-2.8-1.2-3.8
		c-0.8-1-1.9-1.6-3.2-1.6s-2.4,0.5-3.2,1.6c-0.8,1-1.2,2.3-1.2,3.8V235.1z"/>
	<path class="st2" d="M698.1,235c0-2.1,0.4-3.8,1.3-5.1c0.9-1.3,2.1-1.9,3.7-1.9c0.9,0,1.7,0.2,2.4,0.6s1.2,0.9,1.7,1.7v-7.8h1.5v19
		h-1.3l-0.1-1.9c-0.4,0.7-1,1.2-1.7,1.6s-1.5,0.6-2.4,0.6c-1.6,0-2.8-0.6-3.7-1.8c-0.9-1.2-1.3-2.8-1.3-4.7V235z M699.6,235.3
		c0,1.6,0.3,2.9,1,3.8c0.6,0.9,1.6,1.4,2.9,1.4c0.9,0,1.7-0.2,2.4-0.6c0.6-0.4,1.1-1,1.5-1.8v-6.2c-0.3-0.8-0.8-1.4-1.4-1.9
		s-1.4-0.7-2.4-0.7c-1.3,0-2.3,0.5-2.9,1.6c-0.6,1.1-1,2.4-1,4.1V235.3z"/>
	<path class="st2" d="M712,235c0-2.1,0.4-3.8,1.3-5.1c0.9-1.3,2.2-1.9,3.8-1.9c0.9,0,1.7,0.2,2.4,0.6c0.7,0.4,1.2,1,1.7,1.7l0.2-2.1
		h1.2v13c0,1.7-0.5,3-1.4,4c-0.9,1-2.2,1.5-3.9,1.5c-0.6,0-1.3-0.1-2-0.2c-0.7-0.2-1.3-0.4-1.9-0.6l0.4-1.2c0.5,0.3,1.1,0.5,1.6,0.6
		c0.6,0.1,1.2,0.2,1.9,0.2c1.3,0,2.3-0.4,2.9-1.1c0.7-0.7,1-1.8,1-3.1v-1.7c-0.4,0.7-1,1.2-1.7,1.5c-0.7,0.4-1.5,0.5-2.4,0.5
		c-1.6,0-2.8-0.6-3.7-1.8c-0.9-1.2-1.3-2.8-1.3-4.7V235z M713.5,235.3c0,1.6,0.3,2.9,1,3.8c0.7,1,1.6,1.4,2.9,1.4
		c0.9,0,1.7-0.2,2.4-0.7s1.1-1,1.5-1.8v-6.1c-0.3-0.8-0.8-1.4-1.4-1.9c-0.6-0.5-1.4-0.7-2.4-0.7c-1.3,0-2.3,0.5-2.9,1.6
		c-0.7,1.1-1,2.4-1,4.1V235.3z"/>
	<path class="st2" d="M725.7,234.7c0-1.9,0.5-3.5,1.6-4.8s2.5-1.9,4.2-1.9c1.8,0,3.2,0.6,4.2,1.9c1.1,1.2,1.6,2.8,1.6,4.8v0.4
		c0,2-0.5,3.6-1.6,4.8c-1.1,1.2-2.5,1.9-4.2,1.9c-1.8,0-3.2-0.6-4.3-1.9c-1.1-1.2-1.6-2.8-1.6-4.8V234.7z M727.2,235.1
		c0,1.5,0.4,2.8,1.2,3.9s1.9,1.6,3.2,1.6c1.4,0,2.4-0.5,3.2-1.6c0.8-1,1.2-2.3,1.2-3.9v-0.4c0-1.5-0.4-2.8-1.2-3.8
		c-0.8-1-1.9-1.6-3.2-1.6s-2.4,0.5-3.2,1.6c-0.8,1-1.2,2.3-1.2,3.8V235.1z"/>
	<path class="st2" d="M744,238.2l0.4,1.6h0.1l0.5-1.6l3.6-9.9h1.5l-5,13.2h-1.2l-5-13.2h1.5L744,238.2z"/>
	<path class="st2" d="M751.5,234.7c0-1.9,0.5-3.5,1.6-4.8s2.5-1.9,4.2-1.9c1.8,0,3.2,0.6,4.2,1.9c1.1,1.2,1.6,2.8,1.6,4.8v0.4
		c0,2-0.5,3.6-1.6,4.8c-1.1,1.2-2.5,1.9-4.2,1.9c-1.8,0-3.2-0.6-4.3-1.9c-1.1-1.2-1.6-2.8-1.6-4.8V234.7z M753,235.1
		c0,1.5,0.4,2.8,1.2,3.9s1.9,1.6,3.2,1.6c1.4,0,2.4-0.5,3.2-1.6c0.8-1,1.2-2.3,1.2-3.9v-0.4c0-1.5-0.4-2.8-1.2-3.8
		c-0.8-1-1.9-1.6-3.2-1.6s-2.4,0.5-3.2,1.6c-0.8,1-1.2,2.3-1.2,3.8V235.1z"/>
	<path class="st2" d="M772.3,229.5l-1.1-0.1c-0.9,0-1.7,0.3-2.3,0.8c-0.6,0.5-1,1.2-1.3,2.1v9.1h-1.5v-13.2h1.3l0.2,2.2v0.1
		c0.4-0.8,0.9-1.4,1.5-1.9c0.6-0.5,1.4-0.7,2.3-0.7c0.2,0,0.4,0,0.5,0c0.2,0,0.3,0.1,0.4,0.1L772.3,229.5z"/>
	<path class="st2" d="M776.1,228.3l0.1,2.3c0.4-0.8,1-1.4,1.7-1.9c0.7-0.4,1.6-0.7,2.6-0.7c1.4,0,2.5,0.4,3.3,1.3
		c0.7,0.9,1.1,2.2,1.1,4.1v8h-1.5v-8c0-1.5-0.3-2.6-0.8-3.2c-0.6-0.6-1.4-0.9-2.4-0.9c-1,0-1.9,0.3-2.5,0.8
		c-0.6,0.5-1.1,1.3-1.4,2.2v9.2h-1.5v-13.2H776.1z"/>
	<path class="st2" d="M787.9,234.7c0-1.9,0.5-3.5,1.6-4.8s2.5-1.9,4.2-1.9c1.8,0,3.2,0.6,4.2,1.9c1.1,1.2,1.6,2.8,1.6,4.8v0.4
		c0,2-0.5,3.6-1.6,4.8c-1.1,1.2-2.5,1.9-4.2,1.9c-1.8,0-3.2-0.6-4.3-1.9c-1.1-1.2-1.6-2.8-1.6-4.8V234.7z M789.3,235.1
		c0,1.5,0.4,2.8,1.2,3.9s1.9,1.6,3.2,1.6c1.4,0,2.4-0.5,3.2-1.6c0.8-1,1.2-2.3,1.2-3.9v-0.4c0-1.5-0.4-2.8-1.2-3.8
		c-0.8-1-1.9-1.6-3.2-1.6s-2.4,0.5-3.2,1.6c-0.8,1-1.2,2.3-1.2,3.8V235.1z"/>
	<path class="st2" d="M810.5,238.1c0-0.6-0.3-1.2-0.8-1.6c-0.5-0.5-1.4-0.8-2.8-1.1c-1.6-0.3-2.7-0.8-3.5-1.4
		c-0.8-0.6-1.1-1.4-1.1-2.4c0-1,0.4-1.9,1.3-2.6c0.8-0.7,2-1,3.4-1c1.5,0,2.7,0.4,3.5,1.1c0.9,0.7,1.3,1.7,1.2,2.8l0,0.1h-1.4
		c0-0.7-0.3-1.4-0.9-1.9c-0.6-0.5-1.4-0.8-2.5-0.8c-1.1,0-1.9,0.2-2.4,0.7c-0.5,0.5-0.8,1-0.8,1.6c0,0.6,0.2,1.1,0.7,1.5
		c0.5,0.4,1.4,0.7,2.8,1c1.6,0.4,2.7,0.8,3.5,1.4c0.8,0.6,1.2,1.4,1.2,2.5c0,1.1-0.4,2-1.3,2.7c-0.9,0.7-2.1,1-3.5,1
		c-1.6,0-2.9-0.4-3.8-1.1c-0.9-0.8-1.3-1.7-1.3-2.7l0-0.1h1.3c0.1,0.9,0.4,1.6,1.2,2.1c0.7,0.4,1.6,0.6,2.5,0.6
		c1.1,0,1.9-0.2,2.5-0.7C810.2,239.4,810.5,238.8,810.5,238.1z"/>
	<path class="st2" d="M817.6,224.9v3.4h2.9v1.2h-2.9v8.6c0,0.9,0.2,1.5,0.5,1.8c0.3,0.4,0.7,0.5,1.3,0.5c0.2,0,0.5,0,0.7,0
		c0.2,0,0.5-0.1,0.8-0.1l0.2,1.1c-0.2,0.1-0.5,0.2-0.9,0.2c-0.3,0.1-0.7,0.1-1,0.1c-0.9,0-1.7-0.3-2.2-0.9s-0.8-1.5-0.8-2.8v-8.6
		h-2.3v-1.2h2.3v-3.4H817.6z"/>
	<path class="st2" d="M825.4,241.5h-1.7v-2h1.7V241.5z"/>
</g>
<g>
	<path class="st2" d="M130.4,279v-17.8h5.2c2.2,0,4,0.7,5.4,2.2c1.4,1.4,2.1,3.3,2.1,5.6v2.3c0,2.3-0.7,4.1-2.1,5.6
		c-1.4,1.4-3.2,2.2-5.4,2.2H130.4z M131.9,262.5v15.3h3.7c1.8,0,3.2-0.6,4.3-1.8c1.1-1.2,1.7-2.8,1.7-4.7v-2.3
		c0-1.9-0.6-3.4-1.7-4.6c-1.1-1.2-2.6-1.8-4.3-1.8H131.9z"/>
	<path class="st2" d="M148.2,265.8v14.3c0,1.4-0.3,2.4-1,3.1c-0.7,0.7-1.6,1.1-2.7,1.1c-0.2,0-0.5,0-0.7-0.1c-0.2,0-0.4-0.1-0.7-0.2
		l0.2-1.2c0.1,0,0.3,0.1,0.5,0.1c0.2,0,0.4,0.1,0.6,0.1c0.7,0,1.3-0.3,1.7-0.8c0.4-0.5,0.6-1.2,0.6-2.2v-14.3H148.2z M148.1,262
		h-1.5v-2h1.5V262z"/>
	<path class="st2" d="M157.3,279.3c-1.7,0-3-0.6-4.1-1.8c-1.1-1.2-1.6-2.8-1.6-4.6v-0.7c0-1.9,0.5-3.5,1.6-4.7
		c1.1-1.2,2.4-1.9,3.9-1.9c1.6,0,2.9,0.5,3.8,1.5s1.4,2.4,1.4,4.1v1.2H153v0.4c0,1.5,0.4,2.7,1.2,3.7c0.8,1,1.8,1.5,3.1,1.5
		c0.9,0,1.7-0.1,2.3-0.4c0.6-0.3,1.2-0.6,1.6-1.1l0.6,1c-0.5,0.5-1.1,0.9-1.9,1.2C159.2,279.1,158.3,279.3,157.3,279.3z
		 M157.1,266.8c-1.1,0-2,0.4-2.7,1.2c-0.7,0.8-1.2,1.9-1.3,3.1l0,0.1h7.7v-0.4c0-1.1-0.3-2.1-1-2.9
		C159.2,267.2,158.3,266.8,157.1,266.8z"/>
	<path class="st2" d="M166.9,279h-1.5v-19h1.5V279z"/>
	<path class="st2" d="M179.3,279c-0.1-0.4-0.2-0.8-0.2-1.2c0-0.3-0.1-0.7-0.1-1c-0.5,0.7-1.1,1.3-2,1.7c-0.8,0.5-1.7,0.7-2.7,0.7
		c-1.3,0-2.3-0.3-3-1c-0.7-0.7-1.1-1.6-1.1-2.7c0-1.2,0.5-2.2,1.6-2.9c1.1-0.7,2.5-1.1,4.3-1.1h2.9v-1.6c0-0.9-0.3-1.7-0.9-2.2
		c-0.6-0.5-1.5-0.8-2.5-0.8c-1,0-1.9,0.3-2.5,0.8c-0.7,0.5-1,1.1-1,1.9l-1.3,0l0-0.1c0-1,0.4-1.9,1.3-2.6c0.9-0.8,2.2-1.2,3.6-1.2
		c1.5,0,2.6,0.4,3.5,1.1c0.9,0.7,1.3,1.8,1.3,3.2v6.5c0,0.5,0,0.9,0.1,1.4c0.1,0.4,0.1,0.9,0.3,1.3H179.3z M174.5,278
		c1,0,2-0.2,2.8-0.7c0.8-0.5,1.4-1.1,1.7-1.9v-2.8H176c-1.3,0-2.4,0.3-3.2,0.8c-0.8,0.6-1.2,1.3-1.2,2.1c0,0.7,0.2,1.3,0.7,1.8
		C172.9,277.7,173.6,278,174.5,278z"/>
	<path class="st2" d="M186.6,262.4v3.4h2.9v1.2h-2.9v8.6c0,0.9,0.2,1.5,0.5,1.8c0.3,0.4,0.7,0.5,1.3,0.5c0.2,0,0.5,0,0.7,0
		c0.2,0,0.5-0.1,0.8-0.1l0.2,1.1c-0.2,0.1-0.5,0.2-0.9,0.2c-0.4,0.1-0.7,0.1-1,0.1c-0.9,0-1.6-0.3-2.2-0.9c-0.5-0.6-0.8-1.5-0.8-2.8
		V267h-2.3v-1.2h2.3v-3.4H186.6z"/>
	<path class="st2" d="M193.9,265.8l0.1,2.3c0.4-0.8,1-1.4,1.7-1.9c0.7-0.4,1.6-0.7,2.6-0.7c1.4,0,2.5,0.4,3.3,1.3
		c0.7,0.9,1.1,2.2,1.1,4.1v8h-1.5v-8c0-1.5-0.3-2.6-0.8-3.2c-0.6-0.6-1.4-0.9-2.4-0.9c-1,0-1.9,0.3-2.5,0.8
		c-0.6,0.5-1.1,1.3-1.4,2.2v9.2h-1.5v-13.2H193.9z"/>
	<path class="st2" d="M208.2,262h-1.5V260h1.5V262z M208.2,279h-1.5v-13.2h1.5V279z"/>
	<path class="st2" d="M217.1,278c1,0,1.8-0.3,2.6-0.8c0.7-0.6,1.1-1.3,1.1-2.3h1.3l0,0.1c0,1.2-0.4,2.2-1.5,3.1
		c-1,0.8-2.2,1.2-3.5,1.2c-1.8,0-3.2-0.6-4.2-1.8c-1-1.2-1.5-2.8-1.5-4.8v-0.5c0-1.9,0.5-3.5,1.5-4.7c1-1.2,2.4-1.9,4.2-1.9
		c1.4,0,2.7,0.4,3.6,1.3c1,0.9,1.4,2,1.4,3.4l0,0.1h-1.3c0-1.1-0.4-1.9-1.1-2.5c-0.7-0.6-1.6-0.9-2.6-0.9c-1.4,0-2.5,0.5-3.1,1.5
		c-0.7,1-1,2.3-1,3.8v0.5c0,1.6,0.3,2.8,1,3.9C214.6,277.5,215.7,278,217.1,278z"/>
	<path class="st2" d="M226.8,262h-1.5V260h1.5V262z M226.8,279h-1.5v-13.2h1.5V279z"/>
	<path class="st2" d="M243,267l-1.1-0.1c-0.9,0-1.7,0.3-2.3,0.8c-0.6,0.5-1,1.2-1.3,2.1v9.1h-1.5v-13.2h1.3l0.2,2.2v0.1
		c0.4-0.8,0.9-1.4,1.5-1.9c0.6-0.5,1.4-0.7,2.3-0.7c0.2,0,0.4,0,0.5,0c0.2,0,0.3,0.1,0.4,0.1L243,267z"/>
	<path class="st2" d="M250.2,279.3c-1.7,0-3-0.6-4.1-1.8c-1.1-1.2-1.6-2.8-1.6-4.6v-0.7c0-1.9,0.5-3.5,1.6-4.7
		c1.1-1.2,2.4-1.9,3.9-1.9c1.6,0,2.9,0.5,3.8,1.5s1.4,2.4,1.4,4.1v1.2h-9.3v0.4c0,1.5,0.4,2.7,1.2,3.7c0.8,1,1.8,1.5,3.1,1.5
		c0.9,0,1.7-0.1,2.3-0.4c0.6-0.3,1.2-0.6,1.6-1.1l0.6,1c-0.5,0.5-1.1,0.9-1.9,1.2C252.1,279.1,251.2,279.3,250.2,279.3z M250,266.8
		c-1.1,0-2,0.4-2.7,1.2c-0.7,0.8-1.2,1.9-1.3,3.1l0,0.1h7.7v-0.4c0-1.1-0.3-2.1-1-2.9C252.1,267.2,251.1,266.8,250,266.8z"/>
	<path class="st2" d="M259.1,277.8h8.6v1.2h-10.4v-1.1l8-10.9h-7.7v-1.2h9.6v1.1L259.1,277.8z"/>
	<path class="st2" d="M275.1,279.3c-1.7,0-3-0.6-4.1-1.8c-1.1-1.2-1.6-2.8-1.6-4.6v-0.7c0-1.9,0.5-3.5,1.6-4.7
		c1.1-1.2,2.4-1.9,3.9-1.9c1.6,0,2.9,0.5,3.8,1.5s1.4,2.4,1.4,4.1v1.2h-9.3v0.4c0,1.5,0.4,2.7,1.2,3.7c0.8,1,1.8,1.5,3.1,1.5
		c0.9,0,1.7-0.1,2.3-0.4c0.6-0.3,1.2-0.6,1.6-1.1l0.6,1c-0.5,0.5-1.1,0.9-1.9,1.2C277,279.1,276.1,279.3,275.1,279.3z M274.9,266.8
		c-1.1,0-2,0.4-2.7,1.2c-0.7,0.8-1.2,1.9-1.3,3.1l0,0.1h7.7v-0.4c0-1.1-0.3-2.1-1-2.9C277,267.2,276.1,266.8,274.9,266.8z"/>
	<path class="st2" d="M289.1,267L288,267c-0.9,0-1.7,0.3-2.3,0.8c-0.6,0.5-1,1.2-1.3,2.1v9.1H283v-13.2h1.3l0.2,2.2v0.1
		c0.4-0.8,0.9-1.4,1.5-1.9c0.6-0.5,1.4-0.7,2.3-0.7c0.2,0,0.4,0,0.5,0c0.2,0,0.3,0.1,0.4,0.1L289.1,267z"/>
	<path class="st2" d="M295.5,275.7l0.4,1.6h0.1l0.5-1.6l3.6-9.9h1.5l-5,13.2h-1.2l-5-13.2h1.5L295.5,275.7z"/>
	<path class="st2" d="M312.1,279c-0.1-0.4-0.2-0.8-0.2-1.2c0-0.3-0.1-0.7-0.1-1c-0.5,0.7-1.1,1.3-2,1.7c-0.8,0.5-1.7,0.7-2.7,0.7
		c-1.3,0-2.3-0.3-3-1c-0.7-0.7-1.1-1.6-1.1-2.7c0-1.2,0.5-2.2,1.6-2.9c1.1-0.7,2.5-1.1,4.3-1.1h2.9v-1.6c0-0.9-0.3-1.7-0.9-2.2
		c-0.6-0.5-1.5-0.8-2.5-0.8c-1,0-1.9,0.3-2.5,0.8c-0.7,0.5-1,1.1-1,1.9l-1.3,0l0-0.1c0-1,0.4-1.9,1.3-2.6c0.9-0.8,2.2-1.2,3.6-1.2
		c1.5,0,2.6,0.4,3.5,1.1c0.9,0.7,1.3,1.8,1.3,3.2v6.5c0,0.5,0,0.9,0.1,1.4c0.1,0.4,0.1,0.9,0.3,1.3H312.1z M307.3,278
		c1,0,2-0.2,2.8-0.7c0.8-0.5,1.4-1.1,1.7-1.9v-2.8h-2.9c-1.3,0-2.4,0.3-3.2,0.8c-0.8,0.6-1.2,1.3-1.2,2.1c0,0.7,0.2,1.3,0.7,1.8
		C305.8,277.7,306.5,278,307.3,278z"/>
	<path class="st2" d="M322.1,278c1,0,1.8-0.3,2.6-0.8c0.7-0.6,1.1-1.3,1.1-2.3h1.3l0,0.1c0,1.2-0.4,2.2-1.5,3.1
		c-1,0.8-2.2,1.2-3.5,1.2c-1.8,0-3.2-0.6-4.2-1.8c-1-1.2-1.5-2.8-1.5-4.8v-0.5c0-1.9,0.5-3.5,1.5-4.7c1-1.2,2.4-1.9,4.2-1.9
		c1.4,0,2.7,0.4,3.6,1.3c1,0.9,1.4,2,1.4,3.4l0,0.1h-1.3c0-1.1-0.4-1.9-1.1-2.5c-0.7-0.6-1.6-0.9-2.6-0.9c-1.4,0-2.5,0.5-3.1,1.5
		c-0.7,1-1,2.3-1,3.8v0.5c0,1.6,0.3,2.8,1,3.9C319.6,277.5,320.7,278,322.1,278z"/>
	<path class="st2" d="M331.8,262h-1.5V260h1.5V262z M331.8,279h-1.5v-13.2h1.5V279z"/>
	<path class="st2" d="M337.6,265.8v14.3c0,1.4-0.3,2.4-1,3.1c-0.7,0.7-1.6,1.1-2.7,1.1c-0.2,0-0.5,0-0.7-0.1c-0.2,0-0.4-0.1-0.7-0.2
		l0.2-1.2c0.1,0,0.3,0.1,0.5,0.1c0.2,0,0.4,0.1,0.6,0.1c0.7,0,1.3-0.3,1.7-0.8c0.4-0.5,0.6-1.2,0.6-2.2v-14.3H337.6z M337.5,262H336
		v-2h1.5V262z"/>
	<path class="st2" d="M349.7,275.6c0-0.6-0.3-1.2-0.8-1.6c-0.5-0.5-1.4-0.8-2.8-1.1c-1.6-0.3-2.7-0.8-3.5-1.4
		c-0.8-0.6-1.1-1.4-1.1-2.4c0-1,0.4-1.9,1.3-2.6c0.9-0.7,2-1,3.4-1c1.5,0,2.7,0.4,3.5,1.1c0.9,0.7,1.3,1.7,1.2,2.8l0,0.1h-1.4
		c0-0.7-0.3-1.4-0.9-1.9c-0.6-0.5-1.4-0.8-2.5-0.8c-1.1,0-1.9,0.2-2.4,0.7c-0.5,0.5-0.8,1-0.8,1.6c0,0.6,0.2,1.1,0.7,1.5
		c0.5,0.4,1.4,0.7,2.8,1c1.6,0.4,2.7,0.8,3.5,1.4s1.2,1.4,1.2,2.5c0,1.1-0.4,2-1.3,2.7c-0.9,0.7-2.1,1-3.5,1c-1.6,0-2.9-0.4-3.8-1.1
		c-0.9-0.8-1.3-1.7-1.3-2.7l0-0.1h1.3c0.1,0.9,0.4,1.6,1.2,2.1c0.7,0.4,1.6,0.6,2.5,0.6c1.1,0,1.9-0.2,2.5-0.7
		S349.7,276.3,349.7,275.6z"/>
	<path class="st2" d="M357.6,272.6H356v6.4h-1.5v-19h1.5v11.4h1.5l4.9-5.5h1.7l0,0.1l-5.3,6l5.8,7.1l0,0.1H363L357.6,272.6z"/>
	<path class="st2" d="M365.9,272.2c0-1.9,0.5-3.5,1.6-4.8c1.1-1.2,2.5-1.9,4.2-1.9c1.8,0,3.2,0.6,4.2,1.9c1.1,1.2,1.6,2.8,1.6,4.8
		v0.4c0,2-0.5,3.6-1.6,4.8c-1.1,1.2-2.5,1.9-4.2,1.9c-1.8,0-3.2-0.6-4.3-1.9c-1.1-1.2-1.6-2.8-1.6-4.8V272.2z M367.4,272.6
		c0,1.5,0.4,2.8,1.2,3.9c0.8,1,1.9,1.6,3.2,1.6c1.4,0,2.4-0.5,3.2-1.6c0.8-1,1.2-2.3,1.2-3.9v-0.4c0-1.5-0.4-2.8-1.2-3.8
		c-0.8-1-1.9-1.6-3.2-1.6s-2.4,0.5-3.2,1.6c-0.8,1-1.2,2.3-1.2,3.8V272.6z"/>
	<path class="st2" d="M380.1,272.5c0-2.1,0.4-3.8,1.3-5.1c0.9-1.3,2.1-1.9,3.8-1.9c0.9,0,1.7,0.2,2.4,0.6c0.7,0.4,1.2,1,1.7,1.7
		l0.2-2.1h1.2v13c0,1.7-0.5,3-1.4,4c-0.9,1-2.2,1.5-3.9,1.5c-0.6,0-1.3-0.1-2-0.2c-0.7-0.2-1.3-0.4-1.9-0.6l0.4-1.2
		c0.5,0.3,1.1,0.5,1.6,0.6c0.6,0.1,1.2,0.2,1.9,0.2c1.3,0,2.3-0.4,2.9-1.1c0.7-0.7,1-1.8,1-3.1v-1.7c-0.4,0.7-1,1.2-1.7,1.5
		c-0.7,0.4-1.5,0.5-2.4,0.5c-1.6,0-2.8-0.6-3.7-1.8c-0.9-1.2-1.3-2.8-1.3-4.7V272.5z M381.6,272.8c0,1.6,0.3,2.9,1,3.8
		c0.7,1,1.6,1.4,2.9,1.4c0.9,0,1.7-0.2,2.4-0.7c0.6-0.4,1.1-1,1.5-1.8v-6.1c-0.3-0.8-0.8-1.4-1.4-1.9c-0.6-0.5-1.4-0.7-2.4-0.7
		c-1.3,0-2.3,0.5-2.9,1.6c-0.7,1.1-1,2.4-1,4.1V272.8z"/>
	<path class="st2" d="M405.6,278c1,0,1.8-0.3,2.6-0.8c0.7-0.6,1.1-1.3,1.1-2.3h1.3l0,0.1c0,1.2-0.4,2.2-1.5,3.1
		c-1,0.8-2.2,1.2-3.5,1.2c-1.8,0-3.2-0.6-4.2-1.8c-1-1.2-1.5-2.8-1.5-4.8v-0.5c0-1.9,0.5-3.5,1.5-4.7c1-1.2,2.4-1.9,4.2-1.9
		c1.4,0,2.7,0.4,3.6,1.3c1,0.9,1.4,2,1.4,3.4l0,0.1h-1.3c0-1.1-0.4-1.9-1.1-2.5c-0.7-0.6-1.6-0.9-2.6-0.9c-1.4,0-2.5,0.5-3.1,1.5
		c-0.7,1-1,2.3-1,3.8v0.5c0,1.6,0.3,2.8,1,3.9C403.1,277.5,404.1,278,405.6,278z"/>
	<path class="st2" d="M418.6,279.3c-1.7,0-3-0.6-4.1-1.8c-1.1-1.2-1.6-2.8-1.6-4.6v-0.7c0-1.9,0.5-3.5,1.6-4.7
		c1.1-1.2,2.4-1.9,3.9-1.9c1.6,0,2.9,0.5,3.8,1.5s1.4,2.4,1.4,4.1v1.2h-9.3v0.4c0,1.5,0.4,2.7,1.2,3.7c0.8,1,1.8,1.5,3.1,1.5
		c0.9,0,1.7-0.1,2.3-0.4c0.6-0.3,1.2-0.6,1.6-1.1l0.6,1c-0.5,0.5-1.1,0.9-1.9,1.2C420.5,279.1,419.6,279.3,418.6,279.3z
		 M418.4,266.8c-1.1,0-2,0.4-2.7,1.2c-0.7,0.8-1.2,1.9-1.3,3.1l0,0.1h7.7v-0.4c0-1.1-0.3-2.1-1-2.9
		C420.5,267.2,419.6,266.8,418.4,266.8z"/>
	<path class="st2" d="M427.8,265.8l0.1,2.3c0.4-0.8,1-1.4,1.7-1.9c0.7-0.4,1.6-0.7,2.6-0.7c1.4,0,2.5,0.4,3.3,1.3
		c0.7,0.9,1.1,2.2,1.1,4.1v8h-1.5v-8c0-1.5-0.3-2.6-0.8-3.2c-0.6-0.6-1.4-0.9-2.4-0.9c-1,0-1.9,0.3-2.5,0.8
		c-0.6,0.5-1.1,1.3-1.4,2.2v9.2h-1.5v-13.2H427.8z"/>
	<path class="st2" d="M442.7,262.4v3.4h2.9v1.2h-2.9v8.6c0,0.9,0.2,1.5,0.5,1.8c0.3,0.4,0.7,0.5,1.3,0.5c0.2,0,0.5,0,0.7,0
		c0.2,0,0.5-0.1,0.8-0.1l0.2,1.1c-0.2,0.1-0.5,0.2-0.9,0.2c-0.4,0.1-0.7,0.1-1,0.1c-0.9,0-1.6-0.3-2.2-0.9c-0.5-0.6-0.8-1.5-0.8-2.8
		V267H439v-1.2h2.3v-3.4H442.7z"/>
	<path class="st2" d="M454.8,267l-1.1-0.1c-0.9,0-1.7,0.3-2.3,0.8c-0.6,0.5-1,1.2-1.3,2.1v9.1h-1.5v-13.2h1.3l0.2,2.2v0.1
		c0.4-0.8,0.9-1.4,1.5-1.9c0.6-0.5,1.4-0.7,2.3-0.7c0.2,0,0.4,0,0.5,0c0.2,0,0.3,0.1,0.4,0.1L454.8,267z"/>
	<path class="st2" d="M465.1,279c-0.1-0.4-0.2-0.8-0.2-1.2c0-0.3-0.1-0.7-0.1-1c-0.5,0.7-1.1,1.3-2,1.7c-0.8,0.5-1.7,0.7-2.7,0.7
		c-1.3,0-2.3-0.3-3-1c-0.7-0.7-1.1-1.6-1.1-2.7c0-1.2,0.5-2.2,1.6-2.9c1.1-0.7,2.5-1.1,4.3-1.1h2.9v-1.6c0-0.9-0.3-1.7-0.9-2.2
		c-0.6-0.5-1.5-0.8-2.5-0.8c-1,0-1.9,0.3-2.5,0.8c-0.7,0.5-1,1.1-1,1.9l-1.3,0l0-0.1c0-1,0.4-1.9,1.3-2.6c0.9-0.8,2.2-1.2,3.6-1.2
		c1.5,0,2.6,0.4,3.5,1.1c0.9,0.7,1.3,1.8,1.3,3.2v6.5c0,0.5,0,0.9,0.1,1.4c0.1,0.4,0.1,0.9,0.3,1.3H465.1z M460.3,278
		c1,0,2-0.2,2.8-0.7c0.8-0.5,1.4-1.1,1.7-1.9v-2.8h-2.9c-1.3,0-2.4,0.3-3.2,0.8c-0.8,0.6-1.2,1.3-1.2,2.1c0,0.7,0.2,1.3,0.7,1.8
		C458.8,277.7,459.5,278,460.3,278z"/>
	<path class="st2" d="M479.4,272.6h-1.7v6.4h-1.5v-19h1.5v11.4h1.5l4.9-5.5h1.7l0,0.1l-5.3,6l5.8,7.1l0,0.1h-1.7L479.4,272.6z"/>
	<path class="st2" d="M487.7,272.2c0-1.9,0.5-3.5,1.6-4.8s2.5-1.9,4.2-1.9c1.8,0,3.2,0.6,4.2,1.9c1.1,1.2,1.6,2.8,1.6,4.8v0.4
		c0,2-0.5,3.6-1.6,4.8c-1.1,1.2-2.5,1.9-4.2,1.9c-1.8,0-3.2-0.6-4.3-1.9c-1.1-1.2-1.6-2.8-1.6-4.8V272.2z M489.2,272.6
		c0,1.5,0.4,2.8,1.2,3.9c0.8,1,1.9,1.6,3.2,1.6c1.4,0,2.4-0.5,3.2-1.6c0.8-1,1.2-2.3,1.2-3.9v-0.4c0-1.5-0.4-2.8-1.2-3.8
		c-0.8-1-1.9-1.6-3.2-1.6s-2.4,0.5-3.2,1.6c-0.8,1-1.2,2.3-1.2,3.8V272.6z"/>
	<path class="st2" d="M503.8,265.8l0.1,2.3c0.4-0.8,1-1.4,1.7-1.9c0.7-0.4,1.6-0.7,2.6-0.7c1.4,0,2.5,0.4,3.3,1.3
		c0.7,0.9,1.1,2.2,1.1,4.1v8h-1.5v-8c0-1.5-0.3-2.6-0.8-3.2c-0.6-0.6-1.4-0.9-2.4-0.9c-1,0-1.9,0.3-2.5,0.8
		c-0.6,0.5-1.1,1.3-1.4,2.2v9.2h-1.5v-13.2H503.8z"/>
	<path class="st2" d="M518.7,262.4v3.4h2.9v1.2h-2.9v8.6c0,0.9,0.2,1.5,0.5,1.8s0.7,0.5,1.3,0.5c0.2,0,0.5,0,0.7,0
		c0.2,0,0.5-0.1,0.8-0.1l0.2,1.1c-0.2,0.1-0.5,0.2-0.9,0.2s-0.7,0.1-1,0.1c-0.9,0-1.7-0.3-2.2-0.9s-0.8-1.5-0.8-2.8V267h-2.3v-1.2
		h2.3v-3.4H518.7z"/>
	<path class="st2" d="M533.1,279c-0.1-0.4-0.2-0.8-0.2-1.2c0-0.3-0.1-0.7-0.1-1c-0.5,0.7-1.1,1.3-2,1.7c-0.8,0.5-1.7,0.7-2.7,0.7
		c-1.3,0-2.3-0.3-3-1s-1.1-1.6-1.1-2.7c0-1.2,0.5-2.2,1.6-2.9s2.5-1.1,4.3-1.1h2.9v-1.6c0-0.9-0.3-1.7-0.9-2.2s-1.5-0.8-2.5-0.8
		c-1,0-1.9,0.3-2.5,0.8c-0.7,0.5-1,1.1-1,1.9l-1.3,0l0-0.1c0-1,0.4-1.9,1.3-2.6c0.9-0.8,2.2-1.2,3.6-1.2c1.5,0,2.6,0.4,3.5,1.1
		c0.9,0.7,1.3,1.8,1.3,3.2v6.5c0,0.5,0,0.9,0.1,1.4s0.1,0.9,0.3,1.3H533.1z M528.3,278c1,0,2-0.2,2.8-0.7c0.8-0.5,1.4-1.1,1.7-1.9
		v-2.8h-2.9c-1.3,0-2.4,0.3-3.2,0.8c-0.8,0.6-1.2,1.3-1.2,2.1c0,0.7,0.2,1.3,0.7,1.8C526.7,277.7,527.4,278,528.3,278z"/>
	<path class="st2" d="M541.3,272.6h-1.7v6.4h-1.5v-19h1.5v11.4h1.5l4.9-5.5h1.7l0,0.1l-5.3,6l5.8,7.1l0,0.1h-1.7L541.3,272.6z"/>
	<path class="st2" d="M552.7,262.4v3.4h2.9v1.2h-2.9v8.6c0,0.9,0.2,1.5,0.5,1.8s0.7,0.5,1.3,0.5c0.2,0,0.5,0,0.7,0
		c0.2,0,0.5-0.1,0.8-0.1l0.2,1.1c-0.2,0.1-0.5,0.2-0.9,0.2s-0.7,0.1-1,0.1c-0.9,0-1.7-0.3-2.2-0.9s-0.8-1.5-0.8-2.8V267h-2.3v-1.2
		h2.3v-3.4H552.7z"/>
	<path class="st2" d="M560.3,262h-1.5V260h1.5V262z M560.3,279h-1.5v-13.2h1.5V279z"/>
	<path class="st2" d="M570.5,267l-1.1-0.1c-0.9,0-1.7,0.3-2.3,0.8c-0.6,0.5-1,1.2-1.3,2.1v9.1h-1.5v-13.2h1.3l0.2,2.2v0.1
		c0.4-0.8,0.9-1.4,1.5-1.9c0.6-0.5,1.4-0.7,2.3-0.7c0.2,0,0.4,0,0.5,0c0.2,0,0.3,0.1,0.4,0.1L570.5,267z"/>
	<path class="st2" d="M580.8,279c-0.1-0.4-0.2-0.8-0.2-1.2c0-0.3-0.1-0.7-0.1-1c-0.5,0.7-1.1,1.3-2,1.7c-0.8,0.5-1.7,0.7-2.7,0.7
		c-1.3,0-2.3-0.3-3-1s-1.1-1.6-1.1-2.7c0-1.2,0.5-2.2,1.6-2.9s2.5-1.1,4.3-1.1h2.9v-1.6c0-0.9-0.3-1.7-0.9-2.2s-1.5-0.8-2.5-0.8
		c-1,0-1.9,0.3-2.5,0.8c-0.7,0.5-1,1.1-1,1.9l-1.3,0l0-0.1c0-1,0.4-1.9,1.3-2.6c0.9-0.8,2.2-1.2,3.6-1.2c1.5,0,2.6,0.4,3.5,1.1
		c0.9,0.7,1.3,1.8,1.3,3.2v6.5c0,0.5,0,0.9,0.1,1.4s0.1,0.9,0.3,1.3H580.8z M576,278c1,0,2-0.2,2.8-0.7c0.8-0.5,1.4-1.1,1.7-1.9
		v-2.8h-2.9c-1.3,0-2.4,0.3-3.2,0.8c-0.8,0.6-1.2,1.3-1.2,2.1c0,0.7,0.2,1.3,0.7,1.8C574.4,277.7,575.1,278,576,278z"/>
	<path class="st2" d="M588.2,262.4v3.4h2.9v1.2h-2.9v8.6c0,0.9,0.2,1.5,0.5,1.8s0.7,0.5,1.3,0.5c0.2,0,0.5,0,0.7,0
		c0.2,0,0.5-0.1,0.8-0.1l0.2,1.1c-0.2,0.1-0.5,0.2-0.9,0.2s-0.7,0.1-1,0.1c-0.9,0-1.7-0.3-2.2-0.9s-0.8-1.5-0.8-2.8V267h-2.3v-1.2
		h2.3v-3.4H588.2z"/>
	<path class="st2" d="M605.1,278c1,0,1.8-0.3,2.6-0.8c0.7-0.6,1.1-1.3,1.1-2.3h1.3l0,0.1c0,1.2-0.4,2.2-1.5,3.1s-2.2,1.2-3.5,1.2
		c-1.8,0-3.2-0.6-4.2-1.8c-1-1.2-1.5-2.8-1.5-4.8v-0.5c0-1.9,0.5-3.5,1.5-4.7c1-1.2,2.4-1.9,4.2-1.9c1.4,0,2.7,0.4,3.6,1.3
		c1,0.9,1.4,2,1.4,3.4l0,0.1h-1.3c0-1.1-0.4-1.9-1.1-2.5c-0.7-0.6-1.6-0.9-2.6-0.9c-1.4,0-2.5,0.5-3.1,1.5c-0.7,1-1,2.3-1,3.8v0.5
		c0,1.6,0.3,2.8,1,3.9S603.7,278,605.1,278z M606.5,260.7h1.8l0,0.1l-3,3.2H604L606.5,260.7z"/>
	<path class="st2" d="M618.2,279.3c-1.7,0-3-0.6-4.1-1.8s-1.6-2.8-1.6-4.6v-0.7c0-1.9,0.5-3.5,1.6-4.7c1.1-1.2,2.4-1.9,3.9-1.9
		c1.6,0,2.9,0.5,3.8,1.5s1.4,2.4,1.4,4.1v1.2h-9.3v0.4c0,1.5,0.4,2.7,1.2,3.7c0.8,1,1.8,1.5,3.1,1.5c0.9,0,1.7-0.1,2.3-0.4
		c0.6-0.3,1.2-0.6,1.6-1.1l0.6,1c-0.5,0.5-1.1,0.9-1.9,1.2S619.2,279.3,618.2,279.3z M618,266.8c-1.1,0-2,0.4-2.7,1.2
		c-0.7,0.8-1.2,1.9-1.3,3.1l0,0.1h7.7v-0.4c0-1.1-0.3-2.1-1-2.9S619.1,266.8,618,266.8z"/>
	<path class="st2" d="M637.5,276l0.4,1.2h0.1l0.4-1.2l5.3-14.8h1.6l-6.6,17.8h-1.4l-6.6-17.8h1.6L637.5,276z"/>
	<path class="st2" d="M655.4,279c-0.1-0.4-0.2-0.8-0.2-1.2c0-0.3-0.1-0.7-0.1-1c-0.5,0.7-1.1,1.3-2,1.7c-0.8,0.5-1.7,0.7-2.7,0.7
		c-1.3,0-2.3-0.3-3-1s-1.1-1.6-1.1-2.7c0-1.2,0.5-2.2,1.6-2.9s2.5-1.1,4.3-1.1h2.9v-1.6c0-0.9-0.3-1.7-0.9-2.2s-1.5-0.8-2.5-0.8
		c-1,0-1.9,0.3-2.5,0.8c-0.7,0.5-1,1.1-1,1.9l-1.3,0l0-0.1c0-1,0.4-1.9,1.3-2.6c0.9-0.8,2.2-1.2,3.6-1.2c1.5,0,2.6,0.4,3.5,1.1
		c0.9,0.7,1.3,1.8,1.3,3.2v6.5c0,0.5,0,0.9,0.1,1.4s0.1,0.9,0.3,1.3H655.4z M650.6,278c1,0,2-0.2,2.8-0.7c0.8-0.5,1.4-1.1,1.7-1.9
		v-2.8h-2.9c-1.3,0-2.4,0.3-3.2,0.8c-0.8,0.6-1.2,1.3-1.2,2.1c0,0.7,0.2,1.3,0.7,1.8C649,277.7,649.7,278,650.6,278z"/>
	<path class="st2" d="M668.4,275.6c0-0.6-0.3-1.2-0.8-1.6c-0.5-0.5-1.4-0.8-2.8-1.1c-1.6-0.3-2.7-0.8-3.5-1.4
		c-0.8-0.6-1.1-1.4-1.1-2.4c0-1,0.4-1.9,1.3-2.6c0.8-0.7,2-1,3.4-1c1.5,0,2.7,0.4,3.5,1.1c0.9,0.7,1.3,1.7,1.2,2.8l0,0.1h-1.4
		c0-0.7-0.3-1.4-0.9-1.9c-0.6-0.5-1.4-0.8-2.5-0.8c-1.1,0-1.9,0.2-2.4,0.7c-0.5,0.5-0.8,1-0.8,1.6c0,0.6,0.2,1.1,0.7,1.5
		c0.5,0.4,1.4,0.7,2.8,1c1.6,0.4,2.7,0.8,3.5,1.4s1.2,1.4,1.2,2.5c0,1.1-0.4,2-1.3,2.7c-0.9,0.7-2.1,1-3.5,1c-1.6,0-2.9-0.4-3.8-1.1
		c-0.9-0.8-1.3-1.7-1.3-2.7l0-0.1h1.3c0.1,0.9,0.4,1.6,1.2,2.1c0.7,0.4,1.6,0.6,2.5,0.6c1.1,0,1.9-0.2,2.5-0.7
		C668.1,276.9,668.4,276.3,668.4,275.6z"/>
	<path class="st2" d="M687.9,276.8c-0.4,0.8-1,1.4-1.7,1.8c-0.7,0.4-1.6,0.6-2.5,0.6c-1.4,0-2.5-0.5-3.3-1.4
		c-0.8-0.9-1.2-2.4-1.2-4.4v-7.7h1.5v7.7c0,1.6,0.3,2.8,0.8,3.5c0.5,0.7,1.3,1.1,2.3,1.1c1.1,0,2-0.2,2.6-0.7
		c0.7-0.5,1.1-1.2,1.4-2.1v-9.4h1.5V279H688L687.9,276.8z"/>
	<path class="st2" d="M705.3,267l-1.1-0.1c-0.9,0-1.7,0.3-2.3,0.8c-0.6,0.5-1,1.2-1.3,2.1v9.1h-1.5v-13.2h1.3l0.2,2.2v0.1
		c0.4-0.8,0.9-1.4,1.5-1.9c0.6-0.5,1.4-0.7,2.3-0.7c0.2,0,0.4,0,0.5,0c0.2,0,0.3,0.1,0.4,0.1L705.3,267z"/>
	<path class="st2" d="M706.7,272.2c0-1.9,0.5-3.5,1.6-4.8s2.5-1.9,4.2-1.9c1.8,0,3.2,0.6,4.2,1.9c1.1,1.2,1.6,2.8,1.6,4.8v0.4
		c0,2-0.5,3.6-1.6,4.8c-1.1,1.2-2.5,1.9-4.2,1.9c-1.8,0-3.2-0.6-4.3-1.9c-1.1-1.2-1.6-2.8-1.6-4.8V272.2z M708.2,272.6
		c0,1.5,0.4,2.8,1.2,3.9c0.8,1,1.9,1.6,3.2,1.6c1.4,0,2.4-0.5,3.2-1.6c0.8-1,1.2-2.3,1.2-3.9v-0.4c0-1.5-0.4-2.8-1.2-3.8
		c-0.8-1-1.9-1.6-3.2-1.6s-2.4,0.5-3.2,1.6c-0.8,1-1.2,2.3-1.2,3.8V272.6z"/>
	<path class="st2" d="M724.6,272.6h-1.7v6.4h-1.5v-19h1.5v11.4h1.5l4.9-5.5h1.7l0,0.1l-5.3,6l5.8,7.1l0,0.1H730L724.6,272.6z"/>
	<path class="st2" d="M742.4,276.8c-0.4,0.8-1,1.4-1.7,1.8c-0.7,0.4-1.6,0.6-2.5,0.6c-1.4,0-2.5-0.5-3.3-1.4
		c-0.8-0.9-1.2-2.4-1.2-4.4v-7.7h1.5v7.7c0,1.6,0.3,2.8,0.8,3.5c0.5,0.7,1.3,1.1,2.3,1.1c1.1,0,2-0.2,2.6-0.7
		c0.7-0.5,1.1-1.2,1.4-2.1v-9.4h1.5V279h-1.3L742.4,276.8z"/>
	<path class="st2" d="M764.5,279h-11v-1.1l5.8-6.6c1.1-1.2,1.8-2.2,2.3-3c0.4-0.8,0.7-1.6,0.7-2.4c0-1.1-0.3-2-0.9-2.7
		c-0.6-0.7-1.5-1-2.6-1c-1.4,0-2.4,0.4-3.1,1.1c-0.7,0.7-1,1.8-1,3h-1.4l0-0.1c0-1.5,0.4-2.7,1.4-3.8c1-1,2.4-1.5,4.1-1.5
		c1.5,0,2.8,0.4,3.7,1.3c0.9,0.9,1.4,2.1,1.4,3.5c0,1-0.3,2-0.9,3c-0.6,1-1.5,2.1-2.6,3.4l-4.9,5.5l0,0.1h9.2V279z"/>
	<path class="st2" d="M776.3,273.3h2.8v1.2h-2.8v4.5h-1.5v-4.5h-8.3v-0.8l8.2-12.5h1.6V273.3z M768.2,273.3h6.6v-10.1l-0.1,0
		l-0.6,1.3L768.2,273.3z"/>
	<path class="st2" d="M795.4,275.6c0-0.6-0.3-1.2-0.8-1.6c-0.5-0.5-1.4-0.8-2.8-1.1c-1.6-0.3-2.7-0.8-3.5-1.4
		c-0.8-0.6-1.1-1.4-1.1-2.4c0-1,0.4-1.9,1.3-2.6c0.8-0.7,2-1,3.4-1c1.5,0,2.7,0.4,3.5,1.1c0.9,0.7,1.3,1.7,1.2,2.8l0,0.1h-1.4
		c0-0.7-0.3-1.4-0.9-1.9c-0.6-0.5-1.4-0.8-2.5-0.8c-1.1,0-1.9,0.2-2.4,0.7c-0.5,0.5-0.8,1-0.8,1.6c0,0.6,0.2,1.1,0.7,1.5
		c0.5,0.4,1.4,0.7,2.8,1c1.6,0.4,2.7,0.8,3.5,1.4s1.2,1.4,1.2,2.5c0,1.1-0.4,2-1.3,2.7c-0.9,0.7-2.1,1-3.5,1c-1.6,0-2.9-0.4-3.8-1.1
		c-0.9-0.8-1.3-1.7-1.3-2.7l0-0.1h1.3c0.1,0.9,0.4,1.6,1.2,2.1c0.7,0.4,1.6,0.6,2.5,0.6c1.1,0,1.9-0.2,2.5-0.7
		C795.1,276.9,795.4,276.3,795.4,275.6z"/>
	<path class="st2" d="M808.6,279c-0.1-0.4-0.2-0.8-0.2-1.2c0-0.3-0.1-0.7-0.1-1c-0.5,0.7-1.1,1.3-2,1.7c-0.8,0.5-1.7,0.7-2.7,0.7
		c-1.3,0-2.3-0.3-3-1s-1.1-1.6-1.1-2.7c0-1.2,0.5-2.2,1.6-2.9s2.5-1.1,4.3-1.1h2.9v-1.6c0-0.9-0.3-1.7-0.9-2.2s-1.5-0.8-2.5-0.8
		c-1,0-1.9,0.3-2.5,0.8c-0.7,0.5-1,1.1-1,1.9l-1.3,0l0-0.1c0-1,0.4-1.9,1.3-2.6c0.9-0.8,2.2-1.2,3.6-1.2c1.5,0,2.6,0.4,3.5,1.1
		c0.9,0.7,1.3,1.8,1.3,3.2v6.5c0,0.5,0,0.9,0.1,1.4s0.1,0.9,0.3,1.3H808.6z M803.8,278c1,0,2-0.2,2.8-0.7c0.8-0.5,1.4-1.1,1.7-1.9
		v-2.8h-2.9c-1.3,0-2.4,0.3-3.2,0.8c-0.8,0.6-1.2,1.3-1.2,2.1c0,0.7,0.2,1.3,0.7,1.8C802.3,277.7,803,278,803.8,278z"/>
	<path class="st2" d="M816,262.4v3.4h2.9v1.2H816v8.6c0,0.9,0.2,1.5,0.5,1.8s0.7,0.5,1.3,0.5c0.2,0,0.5,0,0.7,0
		c0.2,0,0.5-0.1,0.8-0.1l0.2,1.1c-0.2,0.1-0.5,0.2-0.9,0.2s-0.7,0.1-1,0.1c-0.9,0-1.7-0.3-2.2-0.9s-0.8-1.5-0.8-2.8V267h-2.3v-1.2
		h2.3v-3.4H816z"/>
	<path class="st2" d="M830.4,279c-0.1-0.4-0.2-0.8-0.2-1.2c0-0.3-0.1-0.7-0.1-1c-0.5,0.7-1.1,1.3-2,1.7c-0.8,0.5-1.7,0.7-2.7,0.7
		c-1.3,0-2.3-0.3-3-1s-1.1-1.6-1.1-2.7c0-1.2,0.5-2.2,1.6-2.9s2.5-1.1,4.3-1.1h2.9v-1.6c0-0.9-0.3-1.7-0.9-2.2s-1.5-0.8-2.5-0.8
		c-1,0-1.9,0.3-2.5,0.8c-0.7,0.5-1,1.1-1,1.9l-1.3,0l0-0.1c0-1,0.4-1.9,1.3-2.6c0.9-0.8,2.2-1.2,3.6-1.2c1.5,0,2.6,0.4,3.5,1.1
		c0.9,0.7,1.3,1.8,1.3,3.2v6.5c0,0.5,0,0.9,0.1,1.4s0.1,0.9,0.3,1.3H830.4z M825.6,278c1,0,2-0.2,2.8-0.7c0.8-0.5,1.4-1.1,1.7-1.9
		v-2.8h-2.9c-1.3,0-2.4,0.3-3.2,0.8c-0.8,0.6-1.2,1.3-1.2,2.1c0,0.7,0.2,1.3,0.7,1.8C824,277.7,824.7,278,825.6,278z"/>
	<path class="st2" d="M837.2,279h-1.7v-2h1.7V279z"/>
</g>
<g>
	<path class="st2" d="M413.8,351l0.4,1.2h0.1l0.4-1.2l5.3-14.8h1.6l-6.6,17.8h-1.4l-6.6-17.8h1.6L413.8,351z"/>
	<path class="st2" d="M431.7,354c-0.1-0.4-0.2-0.8-0.2-1.2c0-0.3-0.1-0.7-0.1-1c-0.5,0.7-1.1,1.3-2,1.7c-0.8,0.5-1.7,0.7-2.7,0.7
		c-1.3,0-2.3-0.3-3-1c-0.7-0.7-1.1-1.6-1.1-2.7c0-1.2,0.5-2.2,1.6-2.9c1.1-0.7,2.5-1.1,4.3-1.1h2.9v-1.6c0-0.9-0.3-1.7-0.9-2.2
		c-0.6-0.5-1.5-0.8-2.5-0.8c-1,0-1.9,0.3-2.5,0.8c-0.7,0.5-1,1.1-1,1.9l-1.3,0l0-0.1c0-1,0.4-1.9,1.3-2.6c0.9-0.8,2.2-1.2,3.6-1.2
		c1.5,0,2.6,0.4,3.5,1.1c0.9,0.7,1.3,1.8,1.3,3.2v6.5c0,0.5,0,0.9,0.1,1.4c0.1,0.4,0.1,0.9,0.3,1.3H431.7z M426.9,353
		c1,0,2-0.2,2.8-0.7c0.8-0.5,1.4-1.1,1.7-1.9v-2.8h-2.9c-1.3,0-2.4,0.3-3.2,0.8c-0.8,0.6-1.2,1.3-1.2,2.1c0,0.7,0.2,1.3,0.7,1.8
		C425.3,352.7,426,353,426.9,353z"/>
	<path class="st2" d="M444.6,350.6c0-0.6-0.3-1.2-0.8-1.6c-0.5-0.5-1.4-0.8-2.8-1.1c-1.6-0.3-2.7-0.8-3.5-1.4
		c-0.8-0.6-1.1-1.4-1.1-2.4c0-1,0.4-1.9,1.3-2.6c0.9-0.7,2-1,3.4-1c1.5,0,2.7,0.4,3.5,1.1c0.9,0.7,1.3,1.7,1.2,2.8l0,0.1h-1.4
		c0-0.7-0.3-1.4-0.9-1.9c-0.6-0.5-1.4-0.8-2.5-0.8c-1.1,0-1.9,0.2-2.4,0.7c-0.5,0.5-0.8,1-0.8,1.6c0,0.6,0.2,1.1,0.7,1.5
		c0.5,0.4,1.4,0.7,2.8,1c1.6,0.4,2.7,0.8,3.5,1.4s1.2,1.4,1.2,2.5c0,1.1-0.4,2-1.3,2.7c-0.9,0.7-2.1,1-3.5,1c-1.6,0-2.9-0.4-3.8-1.1
		c-0.9-0.8-1.3-1.7-1.3-2.7l0-0.1h1.3c0.1,0.9,0.4,1.6,1.2,2.1c0.7,0.4,1.6,0.6,2.5,0.6c1.1,0,1.9-0.2,2.5-0.7
		S444.6,351.3,444.6,350.6z M441.1,337.5l2-2.1h1.4v0.2l-2.8,2.7h-1.2l-2.8-2.7v-0.2h1.4L441.1,337.5z"/>
	<path class="st2" d="M465.5,349h-8.1l-1.8,5H454l6.8-17.8h1.4l6.7,17.8h-1.5L465.5,349z M457.8,347.7h7.2l-3.5-9.6h-0.1
		L457.8,347.7z"/>
	<path class="st2" d="M474.3,350.7l0.4,1.6h0.1l0.5-1.6l3.6-9.9h1.5l-5,13.2h-1.2l-5-13.2h1.5L474.3,350.7z"/>
	<path class="st2" d="M491,354c-0.1-0.4-0.2-0.8-0.2-1.2c0-0.3-0.1-0.7-0.1-1c-0.5,0.7-1.1,1.3-2,1.7c-0.8,0.5-1.7,0.7-2.7,0.7
		c-1.3,0-2.3-0.3-3-1s-1.1-1.6-1.1-2.7c0-1.2,0.5-2.2,1.6-2.9s2.5-1.1,4.3-1.1h2.9v-1.6c0-0.9-0.3-1.7-0.9-2.2s-1.5-0.8-2.5-0.8
		c-1,0-1.9,0.3-2.5,0.8c-0.7,0.5-1,1.1-1,1.9l-1.3,0l0-0.1c0-1,0.4-1.9,1.3-2.6s2.2-1.2,3.6-1.2c1.5,0,2.6,0.4,3.5,1.1
		c0.9,0.7,1.3,1.8,1.3,3.2v6.5c0,0.5,0,0.9,0.1,1.4s0.1,0.9,0.3,1.3H491z M486.2,353c1,0,2-0.2,2.8-0.7c0.8-0.5,1.4-1.1,1.7-1.9
		v-2.8h-2.9c-1.3,0-2.4,0.3-3.2,0.8c-0.8,0.6-1.2,1.3-1.2,2.1c0,0.7,0.2,1.3,0.7,1.8C484.6,352.7,485.3,353,486.2,353z"/>
	<path class="st2" d="M497.3,340.8l0.1,2.3c0.4-0.8,1-1.4,1.7-1.9c0.7-0.4,1.6-0.7,2.6-0.7c1.4,0,2.5,0.4,3.3,1.3
		c0.7,0.9,1.1,2.2,1.1,4.1v8h-1.5v-8c0-1.5-0.3-2.6-0.8-3.2c-0.6-0.6-1.4-0.9-2.4-0.9c-1,0-1.9,0.3-2.5,0.8
		c-0.6,0.5-1.1,1.3-1.4,2.2v9.2h-1.5v-13.2H497.3z"/>
	<path class="st2" d="M512.3,337.4v3.4h2.9v1.2h-2.9v8.6c0,0.9,0.2,1.5,0.5,1.8s0.7,0.5,1.3,0.5c0.2,0,0.5,0,0.7,0
		c0.2,0,0.5-0.1,0.8-0.1l0.2,1.1c-0.2,0.1-0.5,0.2-0.9,0.2s-0.7,0.1-1,0.1c-0.9,0-1.7-0.3-2.2-0.9s-0.8-1.5-0.8-2.8V342h-2.3v-1.2
		h2.3v-3.4H512.3z"/>
	<path class="st2" d="M529.2,353c1,0,1.8-0.3,2.6-0.8c0.7-0.6,1.1-1.3,1.1-2.3h1.3l0,0.1c0,1.2-0.4,2.2-1.5,3.1s-2.2,1.2-3.5,1.2
		c-1.8,0-3.2-0.6-4.2-1.8c-1-1.2-1.5-2.8-1.5-4.8v-0.5c0-1.9,0.5-3.5,1.5-4.7s2.4-1.9,4.2-1.9c1.4,0,2.7,0.4,3.6,1.3
		c1,0.9,1.4,2,1.4,3.4l0,0.1h-1.3c0-1.1-0.4-1.9-1.1-2.5s-1.6-0.9-2.6-0.9c-1.4,0-2.5,0.5-3.1,1.5c-0.7,1-1,2.3-1,3.8v0.5
		c0,1.6,0.3,2.8,1,3.9S527.8,353,529.2,353z"/>
	<path class="st2" d="M545.7,354c-0.1-0.4-0.2-0.8-0.2-1.2c0-0.3-0.1-0.7-0.1-1c-0.5,0.7-1.1,1.3-2,1.7c-0.8,0.5-1.7,0.7-2.7,0.7
		c-1.3,0-2.3-0.3-3-1s-1.1-1.6-1.1-2.7c0-1.2,0.5-2.2,1.6-2.9s2.5-1.1,4.3-1.1h2.9v-1.6c0-0.9-0.3-1.7-0.9-2.2s-1.5-0.8-2.5-0.8
		c-1,0-1.9,0.3-2.5,0.8c-0.7,0.5-1,1.1-1,1.9l-1.3,0l0-0.1c0-1,0.4-1.9,1.3-2.6s2.2-1.2,3.6-1.2c1.5,0,2.6,0.4,3.5,1.1
		c0.9,0.7,1.3,1.8,1.3,3.2v6.5c0,0.5,0,0.9,0.1,1.4s0.1,0.9,0.3,1.3H545.7z M540.9,353c1,0,2-0.2,2.8-0.7c0.8-0.5,1.4-1.1,1.7-1.9
		v-2.8h-2.9c-1.3,0-2.4,0.3-3.2,0.8c-0.8,0.6-1.2,1.3-1.2,2.1c0,0.7,0.2,1.3,0.7,1.8C539.3,352.7,540,353,540.9,353z"/>
	<path class="st2" d="M556.8,342l-1.1-0.1c-0.9,0-1.7,0.3-2.3,0.8c-0.6,0.5-1,1.2-1.3,2.1v9.1h-1.5v-13.2h1.3l0.2,2.2v0.1
		c0.4-0.8,0.9-1.4,1.5-1.9s1.4-0.7,2.3-0.7c0.2,0,0.4,0,0.5,0s0.3,0.1,0.4,0.1L556.8,342z"/>
</g>
<g>
	<path class="st2" d="M269.7,31.2l0.2,1h0.1l0.2-0.9l3.9-13.1h3.8l-6,17.8h-3.7l-6-17.8h3.8L269.7,31.2z"/>
	<path class="st2" d="M288.2,32.1H282l-1.2,3.8h-3.6l6.1-17.8h3.6l6.1,17.8h-3.6L288.2,32.1z M282.9,29.3h4.5l-2.2-7h-0.1
		L282.9,29.3z"/>
	<path class="st2" d="M304.3,31.3c0-0.7-0.2-1.2-0.7-1.6c-0.5-0.4-1.3-0.8-2.5-1.2c-2.1-0.6-3.7-1.3-4.8-2.2c-1.1-0.8-1.6-2-1.6-3.4
		c0-1.5,0.6-2.6,1.9-3.6c1.2-0.9,2.8-1.4,4.8-1.4c2,0,3.5,0.5,4.8,1.6c1.2,1,1.8,2.3,1.8,3.8l0,0.1h-3.5c0-0.8-0.3-1.5-0.8-2
		c-0.5-0.5-1.3-0.8-2.3-0.8c-1,0-1.7,0.2-2.2,0.6c-0.5,0.4-0.8,1-0.8,1.6c0,0.6,0.3,1.1,0.8,1.5c0.6,0.4,1.5,0.8,2.9,1.2
		c2,0.5,3.4,1.3,4.5,2.2c1,0.9,1.5,2.1,1.5,3.5c0,1.5-0.6,2.7-1.8,3.6c-1.2,0.9-2.8,1.3-4.8,1.3c-1.9,0-3.6-0.5-5.1-1.5
		c-1.4-1-2.1-2.4-2.1-4.2l0-0.1h3.5c0,1.1,0.3,1.8,1,2.3c0.6,0.5,1.5,0.7,2.7,0.7c1,0,1.7-0.2,2.2-0.6
		C304,32.5,304.3,31.9,304.3,31.3z M300.9,14.3l1.4-1.6h3.2V13l-3.4,3.1h-2.4l-3.4-3.1v-0.2h3.2L300.9,14.3z"/>
	<path class="st2" d="M330.8,18.1v11.8c0,2-0.7,3.5-2,4.6c-1.3,1.1-3,1.6-5.2,1.6c-2.1,0-3.8-0.5-5.1-1.6c-1.3-1.1-2-2.6-2-4.6V18.1
		h3.6v11.8c0,1.2,0.3,2,0.9,2.6c0.6,0.6,1.5,0.9,2.6,0.9c1.1,0,2-0.3,2.6-0.9c0.6-0.6,1-1.5,1-2.6V18.1H330.8z"/>
	<path class="st2" d="M337.5,29.5v6.4h-3.6V18.1h7.1c2,0,3.6,0.5,4.8,1.6c1.2,1,1.8,2.4,1.8,4.1c0,1.7-0.6,3.1-1.8,4.1
		c-1.2,1-2.8,1.6-4.8,1.6H337.5z M337.5,26.7h3.5c1,0,1.7-0.3,2.3-0.8c0.5-0.5,0.8-1.2,0.8-2.1c0-0.9-0.3-1.6-0.8-2.1
		c-0.5-0.6-1.3-0.8-2.3-0.8h-3.5V26.7z"/>
	<path class="st2" d="M354,35.9h-3.6V18.1h3.6V35.9z"/>
	<path class="st2" d="M369.5,20.9h-5v15h-3.6v-15h-5v-2.7h13.6V20.9z"/>
	<path class="st2" d="M391.1,18.1v11.8c0,2-0.7,3.5-2,4.6c-1.3,1.1-3,1.6-5.2,1.6c-2.1,0-3.8-0.5-5.1-1.6c-1.3-1.1-2-2.6-2-4.6V18.1
		h3.6v11.8c0,1.2,0.3,2,0.9,2.6c0.6,0.6,1.5,0.9,2.6,0.9c1.1,0,2-0.3,2.6-0.9c0.6-0.6,1-1.5,1-2.6V18.1H391.1z"/>
	<path class="st2" d="M403.8,31.3c0-0.7-0.2-1.2-0.7-1.6c-0.5-0.4-1.3-0.8-2.5-1.2c-2.1-0.6-3.7-1.3-4.8-2.2c-1.1-0.8-1.6-2-1.6-3.4
		c0-1.5,0.6-2.6,1.9-3.6c1.2-0.9,2.8-1.4,4.8-1.4c2,0,3.5,0.5,4.8,1.6c1.2,1,1.8,2.3,1.8,3.8l0,0.1h-3.5c0-0.8-0.3-1.5-0.8-2
		c-0.5-0.5-1.3-0.8-2.3-0.8c-1,0-1.7,0.2-2.2,0.6c-0.5,0.4-0.8,1-0.8,1.6c0,0.6,0.3,1.1,0.8,1.5c0.6,0.4,1.5,0.8,2.9,1.2
		c2,0.5,3.4,1.3,4.5,2.2c1,0.9,1.5,2.1,1.5,3.5c0,1.5-0.6,2.7-1.8,3.6c-1.2,0.9-2.8,1.3-4.8,1.3c-1.9,0-3.6-0.5-5.1-1.5
		c-1.4-1-2.1-2.4-2.1-4.2l0-0.1h3.5c0,1.1,0.3,1.8,1,2.3c0.6,0.5,1.5,0.7,2.7,0.7c1,0,1.7-0.2,2.2-0.6
		C403.5,32.5,403.8,31.9,403.8,31.3z"/>
	<path class="st2" d="M413.6,29.5v6.4H410V18.1h7.1c2,0,3.6,0.5,4.8,1.6c1.2,1,1.8,2.4,1.8,4.1c0,1.7-0.6,3.1-1.8,4.1
		c-1.2,1-2.8,1.6-4.8,1.6H413.6z M413.6,26.7h3.5c1,0,1.7-0.3,2.3-0.8c0.5-0.5,0.8-1.2,0.8-2.1c0-0.9-0.3-1.6-0.8-2.1
		c-0.5-0.6-1.3-0.8-2.3-0.8h-3.5V26.7z"/>
	<path class="st2" d="M431.5,18.1h3.6v12.4c0,1.7-0.6,3.1-1.7,4.1c-1.1,1-2.5,1.5-4.2,1.5c-1.9,0-3.3-0.5-4.4-1.4
		c-1.1-0.9-1.6-2.2-1.6-4l0-0.1h3.5c0,0.9,0.2,1.6,0.7,2c0.4,0.4,1,0.6,1.8,0.6c0.7,0,1.2-0.3,1.7-0.8c0.5-0.5,0.7-1.2,0.7-2.1V18.1
		z"/>
	<path class="st2" d="M449.3,28.1h-7.4v5.1h8.6v2.7h-12.2V18.1h12.1v2.7h-8.6v4.5h7.4V28.1z"/>
	<path class="st2" d="M462.3,31.3c0-0.7-0.2-1.2-0.7-1.6c-0.5-0.4-1.3-0.8-2.5-1.2c-2.1-0.6-3.7-1.3-4.8-2.2c-1.1-0.8-1.6-2-1.6-3.4
		c0-1.5,0.6-2.6,1.9-3.6c1.2-0.9,2.8-1.4,4.8-1.4c2,0,3.5,0.5,4.8,1.6c1.2,1,1.8,2.3,1.8,3.8l0,0.1h-3.5c0-0.8-0.3-1.5-0.8-2
		c-0.5-0.5-1.3-0.8-2.3-0.8c-1,0-1.7,0.2-2.2,0.6c-0.5,0.4-0.8,1-0.8,1.6c0,0.6,0.3,1.1,0.8,1.5c0.6,0.4,1.5,0.8,2.9,1.2
		c2,0.5,3.4,1.3,4.5,2.2c1,0.9,1.5,2.1,1.5,3.5c0,1.5-0.6,2.7-1.8,3.6c-1.2,0.9-2.8,1.3-4.8,1.3c-1.9,0-3.6-0.5-5.1-1.5
		c-1.4-1-2.1-2.4-2.1-4.2l0-0.1h3.5c0,1.1,0.3,1.8,1,2.3c0.6,0.5,1.5,0.7,2.7,0.7c1,0,1.7-0.2,2.2-0.6
		C462,32.5,462.3,31.9,462.3,31.3z M459,14.3l1.4-1.6h3.2V13l-3.4,3.1h-2.4l-3.4-3.1v-0.2h3.2L459,14.3z"/>
	<path class="st2" d="M482.9,35.9h-3.6l-7.2-12.1l-0.1,0v12.1h-3.6V18.1h3.6l7.2,12.1l0.1,0V18.1h3.6V35.9z"/>
	<path class="st2" d="M500.6,28.6c0,2.2-0.7,4-2.1,5.4c-1.4,1.4-3.2,2.1-5.4,2.1c-2.2,0-4-0.7-5.3-2.1c-1.4-1.4-2.1-3.2-2.1-5.4
		v-3.2c0-2.2,0.7-4,2-5.4c1.4-1.4,3.1-2.1,5.3-2.1c2.2,0,4,0.7,5.4,2.1c1.4,1.4,2.1,3.2,2.1,5.4V28.6z M497,25.4
		c0-1.4-0.3-2.5-1-3.4c-0.7-0.9-1.6-1.3-2.9-1.3s-2.2,0.4-2.8,1.3c-0.7,0.9-1,2-1,3.4v3.2c0,1.4,0.3,2.6,1,3.4
		c0.7,0.9,1.6,1.3,2.8,1.3c1.2,0,2.2-0.4,2.9-1.3c0.7-0.9,1-2,1-3.4V25.4z"/>
	<path class="st2" d="M517,18.1h3.6v12.4c0,1.7-0.6,3.1-1.7,4.1c-1.1,1-2.5,1.5-4.2,1.5c-1.9,0-3.3-0.5-4.4-1.4
		c-1.1-0.9-1.6-2.2-1.6-4l0-0.1h3.5c0,0.9,0.2,1.6,0.7,2s1,0.6,1.8,0.6c0.7,0,1.2-0.3,1.7-0.8c0.5-0.5,0.7-1.2,0.7-2.1V18.1z"/>
	<path class="st2" d="M534.8,28.1h-7.4v5.1h8.6v2.7h-12.2V18.1H536v2.7h-8.6v4.5h7.4V28.1z"/>
	<path class="st2" d="M548,33.2h8.7v2.7h-13V34l8.4-13.2h-8.4v-2.7h12.8v1.8L548,33.2z"/>
	<path class="st2" d="M568.8,32.1h-6.2l-1.2,3.8h-3.6l6.1-17.8h3.7l6.1,17.8H570L568.8,32.1z M563.5,29.3h4.5l-2.2-7h-0.1
		L563.5,29.3z"/>
	<path class="st2" d="M578.9,29.5v6.4h-3.6V18.1h7.1c2,0,3.7,0.5,4.8,1.6c1.2,1,1.8,2.4,1.8,4.1c0,1.7-0.6,3.1-1.8,4.1
		c-1.2,1-2.8,1.6-4.8,1.6H578.9z M578.9,26.7h3.5c1,0,1.7-0.3,2.3-0.8c0.5-0.5,0.8-1.2,0.8-2.1c0-0.9-0.3-1.6-0.8-2.1
		c-0.5-0.6-1.3-0.8-2.3-0.8h-3.5V26.7z"/>
	<path class="st2" d="M595.1,28.8v7.1h-3.6V18.1h6.7c2,0,3.6,0.5,4.8,1.4c1.1,0.9,1.7,2.2,1.7,3.9c0,0.9-0.2,1.7-0.7,2.4
		s-1.2,1.2-2.1,1.6c1,0.3,1.8,0.8,2.3,1.6c0.5,0.7,0.7,1.6,0.7,2.7v1.3c0,0.5,0.1,1,0.2,1.6c0.1,0.5,0.4,0.9,0.7,1.2v0.3h-3.7
		c-0.3-0.3-0.5-0.7-0.6-1.3s-0.1-1.2-0.1-1.7v-1.3c0-0.9-0.2-1.6-0.7-2.1c-0.5-0.5-1.2-0.7-2-0.7H595.1z M595.1,26h3.1
		c1,0,1.7-0.2,2.2-0.6c0.5-0.4,0.7-1,0.7-1.9c0-0.8-0.2-1.5-0.7-1.9c-0.5-0.5-1.2-0.7-2.2-0.7h-3.1V26z"/>
	<path class="st2" d="M611.9,35.9h-3.6V18.1h3.6V35.9z"/>
	<path class="st2" d="M620.1,18.1l4.5,13.1h0.1l4.6-13.1h4.7v17.8h-3.6v-5.3l0.3-7.8l-0.1,0l-4.8,13.2h-2.4l-4.7-13.1l-0.1,0
		l0.3,7.8v5.3h-3.6V18.1H620.1z"/>
	<path class="st2" d="M640.8,33.2h7.9v2.7h-11.5V18.1h3.6V33.2z"/>
	<path class="st2" d="M658.2,18.1h3.6v12.4c0,1.7-0.6,3.1-1.7,4.1c-1.1,1-2.5,1.5-4.2,1.5c-1.9,0-3.3-0.5-4.4-1.4
		c-1.1-0.9-1.6-2.2-1.6-4l0-0.1h3.5c0,0.9,0.2,1.6,0.7,2s1,0.6,1.8,0.6c0.7,0,1.2-0.3,1.7-0.8c0.5-0.5,0.7-1.2,0.7-2.1V18.1z"/>
	<path class="st2" d="M676,28.1h-7.4v5.1h8.6v2.7h-12.2V18.1h12.1v2.7h-8.6v4.5h7.4V28.1z"/>
	<path class="st2" d="M693.8,35.9h-3.6L683,23.8l-0.1,0v12.1h-3.6V18.1h3.6l7.2,12.1l0.1,0V18.1h3.6V35.9z"/>
	<path class="st2" d="M700.8,35.9h-3.6v-3.1h3.6V35.9z"/>
</g>
</svg>
