<?xml version="1.0" encoding="utf-8"?>
<!-- Generator: Adobe Illustrator 21.1.0, SVG Export Plug-In . SVG Version: 6.00 Build 0)  -->
<svg version="1.1" id="Layer_1" xmlns="http://www.w3.org/2000/svg" xmlns:xlink="http://www.w3.org/1999/xlink" x="0px" y="0px"
	 viewBox="0 0 489.3 720" style="enable-background:new 0 0 489.3 720;" xml:space="preserve">
<style type="text/css">
	.st0{fill:#E2E2E2;}
	.st1{fill:#28373C;}
	.st2{fill:#A8B949;}
	.st3{fill-rule:evenodd;clip-rule:evenodd;fill:#A8B949;}
</style>
<rect x="-5.5" y="-4" class="st0" width="540" height="750"/>
<path class="st1" d="M460.5,455.5c-0.2,0-0.3,0.1-0.3,0.3v3.3c0,0.2,0.1,0.3,0.3,0.3c0.2,0,0.3-0.1,0.3-0.3v-3.3
	C460.7,455.6,460.6,455.5,460.5,455.5"/>
<path class="st1" d="M460.5,454.5c0.2,0,0.3-0.1,0.3-0.3c0-0.2-0.1-0.3-0.3-0.3c-0.2,0-0.3,0.1-0.3,0.3
	C460.1,454.4,460.3,454.5,460.5,454.5"/>
<g>
	<g>
		<path class="st1" d="M42,98.7v6.1h-3.4V87.9h6.7c1.9,0,3.5,0.5,4.6,1.5c1.1,1,1.7,2.3,1.7,3.9c0,1.6-0.6,2.9-1.7,3.9
			c-1.1,1-2.6,1.5-4.6,1.5H42z M42,96.1h3.3c0.9,0,1.7-0.3,2.2-0.8c0.5-0.5,0.7-1.2,0.7-2c0-0.8-0.2-1.5-0.7-2
			c-0.5-0.5-1.2-0.8-2.2-0.8H42V96.1z"/>
		<path class="st1" d="M67.7,97.9c0,2.1-0.7,3.8-2,5.1c-1.3,1.4-3,2-5.1,2c-2.1,0-3.8-0.7-5.1-2c-1.3-1.4-2-3.1-2-5.1v-3
			c0-2.1,0.6-3.8,1.9-5.1c1.3-1.4,3-2,5.1-2c2.1,0,3.8,0.7,5.1,2c1.3,1.4,2,3.1,2,5.1V97.9z M64.3,94.9c0-1.3-0.3-2.4-1-3.2
			c-0.7-0.8-1.6-1.3-2.7-1.3c-1.2,0-2,0.4-2.7,1.3c-0.6,0.8-1,1.9-1,3.3v3.1c0,1.3,0.3,2.4,1,3.3c0.6,0.8,1.5,1.3,2.7,1.3
			c1.2,0,2.1-0.4,2.7-1.3c0.7-0.8,1-1.9,1-3.3V94.9z"/>
		<path class="st1" d="M83.4,102.5c-0.5,0.7-1.3,1.3-2.4,1.8c-1.1,0.5-2.4,0.8-4,0.8c-2.1,0-3.8-0.6-5.1-1.9c-1.3-1.3-2-3-2-5v-3.5
			c0-2,0.6-3.7,1.9-5c1.3-1.3,2.9-1.9,4.9-1.9c2.1,0,3.6,0.5,4.7,1.5c1.1,1,1.7,2.3,1.7,4l0,0.1h-3.2c-0.1-0.9-0.3-1.6-0.9-2.1
			c-0.5-0.5-1.3-0.8-2.2-0.8c-1,0-1.9,0.4-2.5,1.2c-0.6,0.8-1,1.8-1,3.1v3.6c0,1.3,0.3,2.3,1,3.1c0.7,0.8,1.5,1.2,2.7,1.2
			c0.8,0,1.4-0.1,1.9-0.2c0.5-0.2,0.8-0.4,1.1-0.6v-3.1h-3v-2.3h6.4V102.5z"/>
		<path class="st1" d="M99.9,97.9c0,2.1-0.7,3.8-2,5.1c-1.3,1.4-3,2-5.1,2c-2.1,0-3.8-0.7-5.1-2c-1.3-1.4-2-3.1-2-5.1v-3
			c0-2.1,0.6-3.8,1.9-5.1c1.3-1.4,3-2,5.1-2c2.1,0,3.8,0.7,5.1,2c1.3,1.4,2,3.1,2,5.1V97.9z M96.5,94.9c0-1.3-0.3-2.4-1-3.2
			c-0.7-0.8-1.6-1.3-2.7-1.3s-2,0.4-2.7,1.3c-0.6,0.8-1,1.9-1,3.3v3.1c0,1.3,0.3,2.4,1,3.3c0.6,0.8,1.5,1.3,2.7,1.3
			c1.2,0,2.1-0.4,2.7-1.3c0.7-0.8,1-1.9,1-3.3V94.9z"/>
		<path class="st1" d="M102.5,104.9V87.9h5.8c2.1,0,3.8,0.7,5.1,2c1.3,1.3,2,3,2,5.1v2.8c0,2.1-0.7,3.8-2,5.1c-1.3,1.3-3,2-5.1,2
			H102.5z M105.9,90.5v11.7h2.2c1.2,0,2.2-0.4,2.9-1.2c0.7-0.8,1-1.9,1-3.2V95c0-1.3-0.3-2.4-1-3.2c-0.7-0.8-1.6-1.2-2.9-1.2H105.9z
			"/>
		<path class="st1" d="M131.8,104.9h-3.4l-6.8-11.6l-0.1,0v11.5h-3.4V87.9h3.4l6.8,11.5l0.1,0V87.9h3.4V104.9z"/>
		<path class="st1" d="M148.6,97.9c0,2.1-0.7,3.8-2,5.1c-1.3,1.4-3,2-5.1,2c-2.1,0-3.8-0.7-5.1-2c-1.3-1.4-2-3.1-2-5.1v-3
			c0-2.1,0.6-3.8,1.9-5.1c1.3-1.4,3-2,5.1-2c2.1,0,3.8,0.7,5.1,2c1.3,1.4,2,3.1,2,5.1V97.9z M145.2,94.9c0-1.3-0.3-2.4-1-3.2
			c-0.7-0.8-1.6-1.3-2.7-1.3c-1.2,0-2,0.4-2.7,1.3c-0.6,0.8-1,1.9-1,3.3v3.1c0,1.3,0.3,2.4,1,3.3c0.6,0.8,1.5,1.3,2.7,1.3
			c1.2,0,2.1-0.4,2.7-1.3c0.7-0.8,1-1.9,1-3.3V94.9z"/>
		<path class="st1" d="M160.4,100.4c0-0.7-0.2-1.2-0.7-1.6c-0.5-0.4-1.3-0.8-2.4-1.1c-2-0.6-3.5-1.3-4.6-2.1c-1-0.8-1.5-1.9-1.5-3.3
			c0-1.4,0.6-2.5,1.8-3.4c1.2-0.9,2.7-1.3,4.5-1.3c1.9,0,3.4,0.5,4.5,1.5c1.2,1,1.7,2.2,1.7,3.7l0,0.1h-3.3c0-0.8-0.3-1.4-0.8-1.9
			c-0.5-0.5-1.3-0.7-2.2-0.7c-0.9,0-1.6,0.2-2.1,0.6c-0.5,0.4-0.7,0.9-0.7,1.5c0,0.6,0.3,1,0.8,1.4c0.5,0.4,1.4,0.8,2.7,1.2
			c1.9,0.5,3.3,1.2,4.2,2.1c1,0.9,1.4,2,1.4,3.4c0,1.4-0.6,2.6-1.7,3.4c-1.1,0.8-2.7,1.3-4.5,1.3c-1.8,0-3.5-0.5-4.8-1.4
			c-1.4-0.9-2-2.3-2-4l0-0.1h3.3c0,1,0.3,1.7,0.9,2.2c0.6,0.5,1.5,0.7,2.6,0.7c0.9,0,1.6-0.2,2.1-0.6
			C160.1,101.6,160.4,101.1,160.4,100.4z"/>
		<path class="st1" d="M178,90.5h-4.8v14.3h-3.4V90.5h-4.8v-2.6H178V90.5z"/>
		<path class="st1" d="M183.5,104.9h-3.4V87.9h3.4V104.9z"/>
		<path class="st1" d="M196.2,98.7v6.1h-3.4V87.9h6.7c1.9,0,3.5,0.5,4.6,1.5c1.1,1,1.7,2.3,1.7,3.9c0,1.6-0.6,2.9-1.7,3.9
			c-1.1,1-2.6,1.5-4.6,1.5H196.2z M196.2,96.1h3.3c0.9,0,1.7-0.3,2.1-0.8c0.5-0.5,0.7-1.2,0.7-2c0-0.8-0.2-1.5-0.7-2
			c-0.5-0.5-1.2-0.8-2.2-0.8h-3.3V96.1z"/>
		<path class="st1" d="M221.9,97.9c0,2.1-0.7,3.8-2,5.1c-1.3,1.4-3,2-5.1,2c-2.1,0-3.8-0.7-5.1-2c-1.3-1.4-2-3.1-2-5.1v-3
			c0-2.1,0.6-3.8,1.9-5.1c1.3-1.4,3-2,5.1-2c2.1,0,3.8,0.7,5.1,2c1.3,1.4,2,3.1,2,5.1V97.9z M218.5,94.9c0-1.3-0.3-2.4-1-3.2
			c-0.7-0.8-1.6-1.3-2.7-1.3c-1.2,0-2,0.4-2.7,1.3c-0.6,0.8-1,1.9-1,3.3v3.1c0,1.3,0.3,2.4,1,3.3c0.6,0.8,1.5,1.3,2.7,1.3
			c1.2,0,2.1-0.4,2.7-1.3c0.7-0.8,1-1.9,1-3.3V94.9z"/>
		<path class="st1" d="M233.7,100.4c0-0.7-0.2-1.2-0.7-1.6c-0.5-0.4-1.3-0.8-2.4-1.1c-2-0.6-3.5-1.3-4.6-2.1c-1-0.8-1.5-1.9-1.5-3.3
			c0-1.4,0.6-2.5,1.8-3.4c1.2-0.9,2.7-1.3,4.5-1.3c1.9,0,3.4,0.5,4.5,1.5c1.2,1,1.7,2.2,1.7,3.7l0,0.1h-3.3c0-0.8-0.3-1.4-0.8-1.9
			c-0.5-0.5-1.3-0.7-2.2-0.7c-0.9,0-1.6,0.2-2.1,0.6c-0.5,0.4-0.7,0.9-0.7,1.5c0,0.6,0.3,1,0.8,1.4c0.5,0.4,1.4,0.8,2.7,1.2
			c1.9,0.5,3.3,1.2,4.2,2.1c1,0.9,1.4,2,1.4,3.4c0,1.4-0.6,2.6-1.7,3.4c-1.1,0.8-2.7,1.3-4.5,1.3c-1.8,0-3.5-0.5-4.8-1.4
			c-1.4-0.9-2-2.3-2-4l0-0.1h3.3c0,1,0.3,1.7,0.9,2.2c0.6,0.5,1.5,0.7,2.6,0.7c0.9,0,1.6-0.2,2.1-0.6
			C233.5,101.6,233.7,101.1,233.7,100.4z"/>
		<path class="st1" d="M243.1,102.2h7.5v2.6h-10.9V87.9h3.4V102.2z"/>
		<path class="st1" d="M265.4,97.9c0,2.1-0.7,3.8-2,5.1c-1.3,1.4-3,2-5.1,2c-2.1,0-3.8-0.7-5.1-2c-1.3-1.4-2-3.1-2-5.1v-3
			c0-2.1,0.6-3.8,1.9-5.1c1.3-1.4,3-2,5.1-2c2.1,0,3.8,0.7,5.1,2c1.3,1.4,2,3.1,2,5.1V97.9z M262,94.9c0-1.3-0.3-2.4-1-3.2
			c-0.7-0.8-1.6-1.3-2.7-1.3s-2,0.4-2.7,1.3c-0.6,0.8-1,1.9-1,3.3v3.1c0,1.3,0.3,2.4,1,3.3c0.6,0.8,1.5,1.3,2.7,1.3
			c1.2,0,2.1-0.4,2.7-1.3c0.7-0.8,1-1.9,1-3.3V94.9z"/>
		<path class="st1" d="M273.6,100.4l0.2,0.9h0.1l0.2-0.9l3.7-12.4h3.6l-5.8,16.9h-3.5l-5.7-16.9h3.6L273.6,100.4z"/>
		<path class="st1" d="M296.7,104.9h-3.4l-6.8-11.6l-0.1,0v11.5H283V87.9h3.4l6.8,11.5l0.1,0V87.9h3.4V104.9z"/>
		<path class="st1" d="M313.4,97.9c0,2.1-0.7,3.8-2,5.1c-1.3,1.4-3,2-5.1,2c-2.1,0-3.8-0.7-5.1-2c-1.3-1.4-2-3.1-2-5.1v-3
			c0-2.1,0.6-3.8,1.9-5.1c1.3-1.4,3-2,5.1-2c2.1,0,3.8,0.7,5.1,2c1.3,1.4,2,3.1,2,5.1V97.9z M310,94.9c0-1.3-0.3-2.4-1-3.2
			c-0.7-0.8-1.6-1.3-2.7-1.3c-1.2,0-2,0.4-2.7,1.3c-0.6,0.8-1,1.9-1,3.3v3.1c0,1.3,0.3,2.4,1,3.3c0.6,0.8,1.5,1.3,2.7,1.3
			c1.2,0,2.1-0.4,2.7-1.3c0.7-0.8,1-1.9,1-3.3V94.9z"/>
		<path class="st1" d="M329.1,102.5c-0.5,0.7-1.3,1.3-2.4,1.8c-1.1,0.5-2.4,0.8-4,0.8c-2.1,0-3.8-0.6-5.1-1.9c-1.3-1.3-2-3-2-5v-3.5
			c0-2,0.6-3.7,1.9-5c1.3-1.3,2.9-1.9,4.9-1.9c2.1,0,3.6,0.5,4.7,1.5c1.1,1,1.7,2.3,1.7,4l0,0.1h-3.2c-0.1-0.9-0.3-1.6-0.9-2.1
			c-0.5-0.5-1.3-0.8-2.2-0.8c-1,0-1.9,0.4-2.5,1.2c-0.6,0.8-1,1.8-1,3.1v3.6c0,1.3,0.3,2.3,1,3.1c0.7,0.8,1.5,1.2,2.7,1.2
			c0.8,0,1.4-0.1,1.9-0.2c0.5-0.2,0.8-0.4,1.1-0.6v-3.1h-3v-2.3h6.4V102.5z"/>
		<path class="st1" d="M343.2,97.8h-1.9v7.1h-3.4V87.9h3.4v6.9h1.5l4.5-6.9h4.1l-5.7,7.9l6.1,9h-4.1L343.2,97.8z"/>
		<path class="st1" d="M366.6,97.9c0,2.1-0.7,3.8-2,5.1c-1.3,1.4-3,2-5.1,2c-2.1,0-3.8-0.7-5.1-2c-1.3-1.4-2-3.1-2-5.1v-3
			c0-2.1,0.6-3.8,1.9-5.1c1.3-1.4,3-2,5.1-2c2.1,0,3.8,0.7,5.1,2c1.3,1.4,2,3.1,2,5.1V97.9z M363.2,94.9c0-1.3-0.3-2.4-1-3.2
			c-0.7-0.8-1.6-1.3-2.7-1.3s-2,0.4-2.7,1.3c-0.6,0.8-1,1.9-1,3.3v3.1c0,1.3,0.3,2.4,1,3.3c0.6,0.8,1.5,1.3,2.7,1.3
			c1.2,0,2.1-0.4,2.7-1.3c0.7-0.8,1-1.9,1-3.3V94.9z"/>
		<path class="st1" d="M372.6,98.1v6.8h-3.4V87.9h6.4c1.9,0,3.4,0.4,4.5,1.3c1.1,0.9,1.6,2.1,1.6,3.7c0,0.9-0.2,1.6-0.7,2.3
			c-0.5,0.6-1.1,1.1-2,1.5c1,0.3,1.7,0.8,2.2,1.5c0.4,0.7,0.7,1.5,0.7,2.6v1.2c0,0.5,0.1,1,0.2,1.5c0.1,0.5,0.3,0.9,0.7,1.1v0.2
			h-3.5c-0.3-0.2-0.5-0.7-0.6-1.2s-0.1-1.1-0.1-1.6v-1.2c0-0.8-0.2-1.5-0.7-2c-0.5-0.5-1.1-0.7-1.9-0.7H372.6z M372.6,95.5h2.9
			c1,0,1.7-0.2,2.1-0.6c0.5-0.4,0.7-1,0.7-1.8c0-0.8-0.2-1.4-0.7-1.8c-0.5-0.5-1.2-0.7-2.1-0.7h-3V95.5z"/>
		<path class="st1" d="M388.6,104.9h-3.4V87.9h3.4V104.9z"/>
		<path class="st1" d="M401.1,100.4c0-0.7-0.2-1.2-0.7-1.6c-0.5-0.4-1.3-0.8-2.4-1.1c-2-0.6-3.5-1.3-4.6-2.1c-1-0.8-1.5-1.9-1.5-3.3
			c0-1.4,0.6-2.5,1.8-3.4c1.2-0.9,2.7-1.3,4.5-1.3c1.9,0,3.4,0.5,4.5,1.5c1.2,1,1.7,2.2,1.7,3.7l0,0.1h-3.3c0-0.8-0.3-1.4-0.8-1.9
			c-0.5-0.5-1.3-0.7-2.2-0.7c-0.9,0-1.6,0.2-2.1,0.6c-0.5,0.4-0.7,0.9-0.7,1.5c0,0.6,0.3,1,0.8,1.4c0.5,0.4,1.4,0.8,2.7,1.2
			c1.9,0.5,3.3,1.2,4.2,2.1c1,0.9,1.4,2,1.4,3.4c0,1.4-0.6,2.6-1.7,3.4c-1.1,0.8-2.7,1.3-4.5,1.3c-1.8,0-3.5-0.5-4.8-1.4
			c-1.4-0.9-2-2.3-2-4l0-0.1h3.3c0,1,0.3,1.7,0.9,2.2c0.6,0.5,1.5,0.7,2.6,0.7c0.9,0,1.6-0.2,2.1-0.6
			C400.8,101.6,401.1,101.1,401.1,100.4z"/>
		<path class="st1" d="M420.7,104.9h-3.4l-6.8-11.6l-0.1,0v11.5H407V87.9h3.4l6.8,11.5l0.1,0V87.9h3.4V104.9z"/>
		<path class="st1" d="M427.5,104.9h-3.4V87.9h3.4V104.9z"/>
		<path class="st1" d="M436.1,97.8h-1.9v7.1h-3.4V87.9h3.4v6.9h1.5l4.5-6.9h4.1l-5.7,7.9l6.1,9h-4.1L436.1,97.8z"/>
		<path class="st1" d="M455.3,101.2h-5.9l-1.1,3.6h-3.4l5.8-16.9h3.5l5.8,16.9h-3.4L455.3,101.2z M450.2,98.5h4.3l-2.1-6.6h-0.1
			L450.2,98.5z"/>
	</g>
	<g>
		<path class="st2" d="M106.6,162.4v-11.8l10.2,5.9L106.6,162.4z"/>
	</g>
	<g>
		<path class="st1" d="M124.7,162h-1.1v-13.5h1.1V162z"/>
		<path class="st1" d="M129,151.9l0.1,1.8c0.3-0.6,0.8-1.1,1.3-1.4c0.5-0.3,1.2-0.5,1.9-0.5c1.1,0,1.9,0.3,2.5,1s0.9,1.7,0.9,3.1
			v6.1h-1.1v-6.1c0-1.2-0.2-2-0.6-2.4c-0.4-0.5-1-0.7-1.8-0.7c-0.8,0-1.4,0.2-1.9,0.6c-0.5,0.4-0.8,1-1.1,1.6v7H128v-10.1H129z"/>
		<path class="st1" d="M137.9,157c0-1.6,0.3-2.9,1-3.9s1.6-1.4,2.8-1.4c0.7,0,1.3,0.1,1.8,0.4s0.9,0.7,1.3,1.3v-6h1.1V162h-1
			l-0.1-1.5c-0.3,0.5-0.8,0.9-1.3,1.2c-0.5,0.3-1.1,0.4-1.9,0.4c-1.2,0-2.1-0.4-2.8-1.3s-1-2.1-1-3.6V157z M139,157.2
			c0,1.2,0.2,2.2,0.7,2.9c0.5,0.7,1.2,1.1,2.2,1.1c0.7,0,1.3-0.2,1.8-0.5c0.5-0.3,0.9-0.8,1.1-1.3v-4.7c-0.3-0.6-0.6-1.1-1.1-1.4
			c-0.5-0.4-1.1-0.5-1.8-0.5c-1,0-1.7,0.4-2.2,1.2c-0.5,0.8-0.7,1.9-0.7,3.1V157.2z"/>
		<path class="st1" d="M149.9,149h-1.1v-1.6h1.1V149z M149.9,162h-1.1v-10.1h1.1V162z"/>
		<path class="st1" d="M155.6,159.4l0.3,1.2h0.1l0.4-1.2l2.7-7.5h1.2l-3.8,10.1h-0.9l-3.8-10.1h1.2L155.6,159.4z"/>
		<path class="st1" d="M163.1,149H162v-1.6h1.1V149z M163.1,162H162v-10.1h1.1V162z"/>
		<path class="st1" d="M165.5,157c0-1.6,0.3-2.9,1-3.9c0.7-1,1.6-1.4,2.8-1.4c0.7,0,1.3,0.1,1.8,0.4s0.9,0.7,1.3,1.3v-6h1.1V162h-1
			l-0.1-1.5c-0.3,0.5-0.8,0.9-1.3,1.2c-0.5,0.3-1.1,0.4-1.9,0.4c-1.2,0-2.1-0.4-2.8-1.3c-0.7-0.9-1-2.1-1-3.6V157z M166.6,157.2
			c0,1.2,0.2,2.2,0.7,2.9c0.5,0.7,1.2,1.1,2.2,1.1c0.7,0,1.3-0.2,1.8-0.5c0.5-0.3,0.9-0.8,1.1-1.3v-4.7c-0.3-0.6-0.6-1.1-1.1-1.4
			c-0.5-0.4-1.1-0.5-1.8-0.5c-1,0-1.7,0.4-2.2,1.2c-0.5,0.8-0.7,1.9-0.7,3.1V157.2z"/>
		<path class="st1" d="M182.8,160.3c-0.3,0.6-0.8,1-1.3,1.4c-0.5,0.3-1.2,0.5-1.9,0.5c-1.1,0-1.9-0.4-2.5-1.1
			c-0.6-0.7-0.9-1.8-0.9-3.3v-5.8h1.1v5.9c0,1.2,0.2,2.1,0.6,2.6c0.4,0.5,1,0.8,1.8,0.8c0.8,0,1.5-0.2,2-0.6
			c0.5-0.4,0.9-0.9,1.1-1.6v-7.2h1.1V162h-1L182.8,160.3z"/>
		<path class="st1" d="M193,162c-0.1-0.3-0.1-0.6-0.2-0.9c0-0.2,0-0.5,0-0.8c-0.4,0.5-0.9,1-1.5,1.3c-0.6,0.3-1.3,0.5-2.1,0.5
			c-1,0-1.7-0.3-2.3-0.8c-0.5-0.5-0.8-1.2-0.8-2.1c0-0.9,0.4-1.7,1.2-2.2s1.9-0.8,3.2-0.8h2.2V155c0-0.7-0.2-1.3-0.7-1.7
			c-0.5-0.4-1.1-0.6-1.9-0.6c-0.8,0-1.4,0.2-1.9,0.6c-0.5,0.4-0.8,0.9-0.8,1.4l-1,0l0-0.1c0-0.7,0.3-1.4,1-2
			c0.7-0.6,1.6-0.9,2.8-0.9c1.1,0,2,0.3,2.7,0.8c0.7,0.6,1,1.4,1,2.4v4.9c0,0.4,0,0.7,0.1,1c0,0.3,0.1,0.7,0.2,1H193z M189.3,161.2
			c0.8,0,1.5-0.2,2.1-0.6c0.6-0.4,1.1-0.9,1.3-1.4v-2.1h-2.2c-1,0-1.8,0.2-2.4,0.6c-0.6,0.4-0.9,1-0.9,1.6c0,0.5,0.2,1,0.6,1.3
			C188.1,161,188.6,161.2,189.3,161.2z"/>
		<path class="st1" d="M197.8,162h-1.1v-14.5h1.1V162z"/>
		<path class="st1" d="M201.6,151.9l0.1,1.8c0.3-0.6,0.8-1.1,1.3-1.4s1.2-0.5,1.9-0.5c1.1,0,1.9,0.3,2.5,1s0.9,1.7,0.9,3.1v6.1h-1.1
			v-6.1c0-1.2-0.2-2-0.6-2.4c-0.4-0.5-1-0.7-1.8-0.7c-0.8,0-1.4,0.2-1.9,0.6c-0.5,0.4-0.8,1-1.1,1.6v7h-1.1v-10.1H201.6z"/>
		<path class="st1" d="M212.2,149h-1.1v-1.6h1.1V149z M212.2,162h-1.1v-10.1h1.1V162z"/>
		<path class="st1" d="M227.6,157.2c0,1.5-0.3,2.7-1,3.6s-1.6,1.3-2.8,1.3c-0.7,0-1.3-0.1-1.9-0.4c-0.5-0.3-1-0.6-1.3-1.1v5.2h-1.1
			v-13.9h0.9l0.1,1.6c0.3-0.6,0.8-1,1.3-1.3c0.5-0.3,1.2-0.5,1.9-0.5c1.2,0,2.2,0.5,2.8,1.4s1,2.2,1,3.9V157.2z M226.4,157
			c0-1.3-0.3-2.3-0.8-3.1c-0.5-0.8-1.3-1.2-2.2-1.2c-0.8,0-1.4,0.2-1.8,0.5c-0.5,0.4-0.8,0.8-1.1,1.4v4.8c0.3,0.6,0.6,1,1.1,1.3
			c0.5,0.3,1.1,0.5,1.8,0.5c1,0,1.7-0.4,2.2-1.1c0.5-0.7,0.8-1.7,0.8-2.9V157z"/>
		<path class="st1" d="M234.4,152.9l-0.8-0.1c-0.7,0-1.3,0.2-1.7,0.6c-0.4,0.4-0.8,0.9-1,1.6v6.9h-1.1v-10.1h1l0.1,1.7v0.1
			c0.3-0.6,0.7-1.1,1.2-1.5c0.5-0.3,1.1-0.5,1.7-0.5c0.1,0,0.3,0,0.4,0c0.1,0,0.2,0,0.3,0.1L234.4,152.9z"/>
		<path class="st1" d="M237.3,149h-1.1v-1.6h1.1V149z M237.3,162h-1.1v-10.1h1.1V162z"/>
		<path class="st1" d="M246.1,159.4c0-0.5-0.2-0.9-0.6-1.2s-1.1-0.6-2.1-0.9c-1.2-0.3-2.1-0.6-2.7-1c-0.6-0.4-0.9-1-0.9-1.8
			c0-0.8,0.3-1.4,1-1.9c0.6-0.5,1.5-0.8,2.6-0.8c1.1,0,2,0.3,2.7,0.8c0.7,0.6,1,1.3,0.9,2.1l0,0.1h-1c0-0.6-0.2-1-0.7-1.4
			s-1.1-0.6-1.9-0.6c-0.8,0-1.4,0.2-1.8,0.5c-0.4,0.3-0.6,0.8-0.6,1.2c0,0.5,0.2,0.8,0.5,1.1c0.4,0.3,1,0.6,2.1,0.8
			c1.2,0.3,2.1,0.6,2.7,1.1c0.6,0.5,0.9,1.1,0.9,1.9c0,0.8-0.3,1.5-1,2c-0.7,0.5-1.6,0.8-2.7,0.8c-1.2,0-2.2-0.3-2.9-0.9
			c-0.7-0.6-1-1.3-1-2.1l0-0.1h1c0,0.7,0.3,1.2,0.9,1.6c0.5,0.3,1.2,0.5,1.9,0.5c0.8,0,1.4-0.2,1.9-0.5S246.1,159.9,246.1,159.4z"/>
		<path class="st1" d="M251.3,149.3v2.6h2.2v0.9h-2.2v6.6c0,0.7,0.1,1.1,0.4,1.4c0.2,0.3,0.6,0.4,1,0.4c0.2,0,0.4,0,0.5,0
			c0.2,0,0.4,0,0.6-0.1l0.2,0.8c-0.2,0.1-0.4,0.1-0.7,0.2c-0.3,0-0.5,0.1-0.8,0.1c-0.7,0-1.3-0.2-1.6-0.7c-0.4-0.4-0.6-1.2-0.6-2.1
			v-6.6h-1.7v-0.9h1.7v-2.6H251.3z"/>
		<path class="st1" d="M262.2,160.3c-0.3,0.6-0.8,1-1.3,1.4c-0.5,0.3-1.2,0.5-1.9,0.5c-1.1,0-1.9-0.4-2.5-1.1
			c-0.6-0.7-0.9-1.8-0.9-3.3v-5.8h1.1v5.9c0,1.2,0.2,2.1,0.6,2.6c0.4,0.5,1,0.8,1.8,0.8c0.8,0,1.5-0.2,2-0.6
			c0.5-0.4,0.9-0.9,1.1-1.6v-7.2h1.1V162h-1L262.2,160.3z"/>
		<path class="st1" d="M274.1,157.2c0,1.5-0.3,2.7-1,3.6s-1.6,1.3-2.8,1.3c-0.7,0-1.3-0.1-1.9-0.4c-0.5-0.3-1-0.6-1.3-1.1v5.2H266
			v-13.9h0.9l0.1,1.6c0.3-0.6,0.8-1,1.3-1.3s1.2-0.5,1.9-0.5c1.2,0,2.2,0.5,2.8,1.4s1,2.2,1,3.9V157.2z M273,157
			c0-1.3-0.3-2.3-0.8-3.1c-0.5-0.8-1.3-1.2-2.2-1.2c-0.8,0-1.4,0.2-1.8,0.5c-0.5,0.4-0.8,0.8-1.1,1.4v4.8c0.3,0.6,0.6,1,1.1,1.3
			s1.1,0.5,1.8,0.5c1,0,1.7-0.4,2.2-1.1c0.5-0.7,0.8-1.7,0.8-2.9V157z"/>
		<path class="st1" d="M282,149h-1.1v-1.6h1.1V149z M282,162h-1.1v-10.1h1.1V162z"/>
		<path class="st1" d="M290,162v-9.1h-1.7v-0.9h1.7v-1.5c0-1,0.3-1.8,0.8-2.3c0.5-0.6,1.2-0.8,2.1-0.8c0.2,0,0.4,0,0.6,0
			s0.4,0.1,0.6,0.1l-0.1,0.9c-0.1,0-0.3-0.1-0.5-0.1c-0.2,0-0.3,0-0.6,0c-0.6,0-1.1,0.2-1.4,0.6c-0.3,0.4-0.5,0.9-0.5,1.6v1.5h2.4
			v0.9h-2.4v9.1H290z"/>
		<path class="st1" d="M296.4,162h-1.1v-14.5h1.1V162z"/>
		<path class="st1" d="M303,162.2c-1.3,0-2.3-0.5-3.1-1.4c-0.8-0.9-1.3-2.1-1.3-3.5v-0.5c0-1.4,0.4-2.6,1.2-3.6
			c0.8-0.9,1.8-1.4,3-1.4c1.2,0,2.2,0.4,2.9,1.2c0.7,0.8,1.1,1.8,1.1,3.1v0.9h-7.1v0.3c0,1.1,0.3,2.1,0.9,2.8
			c0.6,0.8,1.4,1.1,2.4,1.1c0.7,0,1.3-0.1,1.8-0.3c0.5-0.2,0.9-0.5,1.3-0.8l0.5,0.8c-0.4,0.4-0.9,0.7-1.4,0.9
			C304.5,162,303.8,162.2,303,162.2z M302.9,152.7c-0.8,0-1.5,0.3-2.1,0.9c-0.6,0.6-0.9,1.4-1,2.4l0,0h5.9v-0.3
			c0-0.9-0.3-1.6-0.8-2.2S303.8,152.7,302.9,152.7z"/>
		<path class="st1" d="M311.2,157.1h-1.3v4.9h-1.1v-14.5h1.1v8.6h1.2l3.7-4.2h1.3l0,0l-4,4.5l4.4,5.4l0,0h-1.3L311.2,157.1z"/>
		<path class="st1" d="M323.9,159.4c0-0.5-0.2-0.9-0.6-1.2c-0.4-0.4-1.1-0.6-2.1-0.9c-1.2-0.3-2.1-0.6-2.7-1c-0.6-0.4-0.9-1-0.9-1.8
			c0-0.8,0.3-1.4,1-1.9c0.6-0.5,1.5-0.8,2.6-0.8c1.1,0,2,0.3,2.7,0.8c0.7,0.6,1,1.3,0.9,2.1l0,0.1h-1c0-0.6-0.2-1-0.7-1.4
			s-1.1-0.6-1.9-0.6c-0.8,0-1.4,0.2-1.8,0.5c-0.4,0.3-0.6,0.8-0.6,1.2c0,0.5,0.2,0.8,0.5,1.1c0.4,0.3,1,0.6,2.1,0.8
			c1.2,0.3,2.1,0.6,2.7,1.1c0.6,0.5,0.9,1.1,0.9,1.9c0,0.8-0.3,1.5-1,2c-0.7,0.5-1.6,0.8-2.7,0.8c-1.2,0-2.2-0.3-2.9-0.9
			c-0.7-0.6-1-1.3-1-2.1l0-0.1h1c0,0.7,0.3,1.2,0.9,1.6c0.5,0.3,1.2,0.5,1.9,0.5c0.8,0,1.4-0.2,1.9-0.5
			C323.7,160.3,323.9,159.9,323.9,159.4z"/>
		<path class="st1" d="M328.6,149h-1.1v-1.6h1.1V149z M328.6,162h-1.1v-10.1h1.1V162z"/>
		<path class="st1" d="M339.5,157.2c0,1.5-0.3,2.7-1,3.6c-0.7,0.9-1.6,1.3-2.8,1.3c-0.7,0-1.4-0.1-1.9-0.4c-0.5-0.3-1-0.7-1.3-1.3
			l-0.1,1.5h-1v-14.5h1.1v6c0.3-0.6,0.8-1,1.3-1.3s1.1-0.5,1.9-0.5c1.2,0,2.2,0.5,2.8,1.4c0.7,1,1,2.2,1,3.9V157.2z M338.4,157
			c0-1.3-0.2-2.3-0.7-3.1c-0.5-0.8-1.2-1.2-2.2-1.2c-0.8,0-1.4,0.2-1.9,0.6c-0.5,0.4-0.8,0.9-1.1,1.5v4.6c0.2,0.6,0.6,1.1,1.1,1.4
			c0.5,0.3,1.1,0.5,1.8,0.5c1,0,1.7-0.4,2.2-1.1s0.7-1.7,0.7-2.9V157z"/>
		<path class="st1" d="M343,149h-1.1v-1.6h1.1V149z M343,162h-1.1v-10.1h1.1V162z"/>
		<path class="st1" d="M347.1,162H346v-14.5h1.1V162z"/>
		<path class="st1" d="M350.9,151.9l0.1,1.8c0.3-0.6,0.8-1.1,1.3-1.4s1.2-0.5,1.9-0.5c1.1,0,1.9,0.3,2.5,1c0.6,0.7,0.9,1.7,0.9,3.1
			v6.1h-1.1v-6.1c0-1.2-0.2-2-0.6-2.4c-0.4-0.5-1-0.7-1.8-0.7c-0.8,0-1.4,0.2-1.9,0.6c-0.5,0.4-0.8,1-1.1,1.6v7h-1.1v-10.1H350.9z"
			/>
		<path class="st1" d="M366.7,162c-0.1-0.3-0.1-0.6-0.2-0.9c0-0.2,0-0.5,0-0.8c-0.4,0.5-0.9,1-1.5,1.3s-1.3,0.5-2.1,0.5
			c-1,0-1.7-0.3-2.3-0.8c-0.5-0.5-0.8-1.2-0.8-2.1c0-0.9,0.4-1.7,1.2-2.2c0.8-0.6,1.9-0.8,3.2-0.8h2.2V155c0-0.7-0.2-1.3-0.7-1.7
			c-0.5-0.4-1.1-0.6-1.9-0.6c-0.8,0-1.4,0.2-1.9,0.6c-0.5,0.4-0.8,0.9-0.8,1.4l-1,0l0-0.1c0-0.7,0.3-1.4,1-2
			c0.7-0.6,1.6-0.9,2.8-0.9c1.1,0,2,0.3,2.7,0.8s1,1.4,1,2.4v4.9c0,0.4,0,0.7,0.1,1c0,0.3,0.1,0.7,0.2,1H366.7z M363,161.2
			c0.8,0,1.5-0.2,2.1-0.6c0.6-0.4,1.1-0.9,1.3-1.4v-2.1h-2.2c-1,0-1.8,0.2-2.4,0.6c-0.6,0.4-0.9,1-0.9,1.6c0,0.5,0.2,1,0.6,1.3
			C361.8,161,362.3,161.2,363,161.2z"/>
		<path class="st1" d="M379.3,152.9l-0.8-0.1c-0.7,0-1.3,0.2-1.7,0.6s-0.8,0.9-1,1.6v6.9h-1.1v-10.1h1l0.1,1.7v0.1
			c0.3-0.6,0.7-1.1,1.2-1.5c0.5-0.3,1.1-0.5,1.7-0.5c0.1,0,0.3,0,0.4,0c0.1,0,0.2,0,0.3,0.1L379.3,152.9z"/>
		<path class="st1" d="M382.2,151.9v10.9c0,1-0.2,1.8-0.7,2.4c-0.5,0.6-1.2,0.8-2.1,0.8c-0.2,0-0.4,0-0.5,0c-0.2,0-0.3-0.1-0.5-0.1
			l0.1-0.9c0.1,0,0.2,0.1,0.4,0.1s0.3,0,0.5,0c0.6,0,1-0.2,1.3-0.6c0.3-0.4,0.5-0.9,0.5-1.7v-10.9H382.2z M382.1,149H381v-1.5h1.1
			V149z"/>
		<path class="st1" d="M388.9,162.2c-1.3,0-2.3-0.5-3.1-1.4c-0.8-0.9-1.3-2.1-1.3-3.5v-0.5c0-1.4,0.4-2.6,1.2-3.6
			c0.8-0.9,1.8-1.4,3-1.4c1.2,0,2.2,0.4,2.9,1.2c0.7,0.8,1.1,1.8,1.1,3.1v0.9h-7.1v0.3c0,1.1,0.3,2.1,0.9,2.8
			c0.6,0.8,1.4,1.1,2.4,1.1c0.7,0,1.3-0.1,1.8-0.3c0.5-0.2,0.9-0.5,1.3-0.8l0.5,0.8c-0.4,0.4-0.9,0.7-1.4,0.9
			C390.4,162,389.7,162.2,388.9,162.2z M388.8,152.7c-0.8,0-1.5,0.3-2.1,0.9c-0.6,0.6-0.9,1.4-1,2.4l0,0h5.9v-0.3
			c0-0.9-0.3-1.6-0.8-2.2S389.7,152.7,388.8,152.7z"/>
		<path class="st1" d="M400.7,159.4c0-0.5-0.2-0.9-0.6-1.2c-0.4-0.4-1.1-0.6-2.1-0.9c-1.2-0.3-2.1-0.6-2.7-1c-0.6-0.4-0.9-1-0.9-1.8
			c0-0.8,0.3-1.4,1-1.9c0.6-0.5,1.5-0.8,2.6-0.8c1.1,0,2,0.3,2.7,0.8c0.7,0.6,1,1.3,0.9,2.1l0,0.1h-1c0-0.6-0.2-1-0.7-1.4
			s-1.1-0.6-1.9-0.6c-0.8,0-1.4,0.2-1.8,0.5c-0.4,0.3-0.6,0.8-0.6,1.2c0,0.5,0.2,0.8,0.5,1.1c0.4,0.3,1,0.6,2.1,0.8
			c1.2,0.3,2.1,0.6,2.7,1.1c0.6,0.5,0.9,1.1,0.9,1.9c0,0.8-0.3,1.5-1,2c-0.7,0.5-1.6,0.8-2.7,0.8c-1.2,0-2.2-0.3-2.9-0.9
			c-0.7-0.6-1-1.3-1-2.1l0-0.1h1c0,0.7,0.3,1.2,0.9,1.6c0.5,0.3,1.2,0.5,1.9,0.5c0.8,0,1.4-0.2,1.9-0.5
			C400.5,160.3,400.7,159.9,400.7,159.4z M398.1,149.4l1.5-1.6h1.1v0.2l-2.2,2.1h-0.9l-2.2-2.1v-0.2h1.1L398.1,149.4z"/>
		<path class="st1" d="M407.9,162.2c-1.3,0-2.3-0.5-3.1-1.4c-0.8-0.9-1.3-2.1-1.3-3.5v-0.5c0-1.4,0.4-2.6,1.2-3.6
			c0.8-0.9,1.8-1.4,3-1.4c1.2,0,2.2,0.4,2.9,1.2c0.7,0.8,1.1,1.8,1.1,3.1v0.9h-7.1v0.3c0,1.1,0.3,2.1,0.9,2.8
			c0.6,0.8,1.4,1.1,2.4,1.1c0.7,0,1.3-0.1,1.8-0.3c0.5-0.2,0.9-0.5,1.3-0.8l0.5,0.8c-0.4,0.4-0.9,0.7-1.4,0.9
			C409.4,162,408.7,162.2,407.9,162.2z M407.8,152.7c-0.8,0-1.5,0.3-2.1,0.9c-0.6,0.6-0.9,1.4-1,2.4l0,0h5.9v-0.3
			c0-0.9-0.3-1.6-0.8-2.2S408.7,152.7,407.8,152.7z"/>
		<path class="st1" d="M414.7,151.9l0.1,1.8c0.3-0.6,0.8-1.1,1.3-1.4s1.2-0.5,1.9-0.5c1.1,0,1.9,0.3,2.5,1c0.6,0.7,0.9,1.7,0.9,3.1
			v6.1h-1.1v-6.1c0-1.2-0.2-2-0.6-2.4c-0.4-0.5-1-0.7-1.8-0.7c-0.8,0-1.4,0.2-1.9,0.6c-0.5,0.4-0.8,1-1.1,1.6v7h-1.1v-10.1H414.7z"
			/>
		<path class="st1" d="M425.4,151.9v10.9c0,1-0.2,1.8-0.7,2.4c-0.5,0.6-1.2,0.8-2.1,0.8c-0.2,0-0.4,0-0.5,0c-0.2,0-0.3-0.1-0.5-0.1
			l0.1-0.9c0.1,0,0.2,0.1,0.4,0.1s0.3,0,0.5,0c0.6,0,1-0.2,1.3-0.6c0.3-0.4,0.5-0.9,0.5-1.7v-10.9H425.4z M425.3,149h-1.1v-1.5h1.1
			V149z"/>
		<path class="st1" d="M434.7,162c-0.1-0.3-0.1-0.6-0.2-0.9c0-0.2,0-0.5,0-0.8c-0.4,0.5-0.9,1-1.5,1.3c-0.6,0.3-1.3,0.5-2.1,0.5
			c-1,0-1.7-0.3-2.3-0.8c-0.5-0.5-0.8-1.2-0.8-2.1c0-0.9,0.4-1.7,1.2-2.2c0.8-0.6,1.9-0.8,3.2-0.8h2.2V155c0-0.7-0.2-1.3-0.7-1.7
			s-1.1-0.6-1.9-0.6c-0.8,0-1.4,0.2-1.9,0.6c-0.5,0.4-0.8,0.9-0.8,1.4l-1,0l0-0.1c0-0.7,0.3-1.4,1-2c0.7-0.6,1.6-0.9,2.8-0.9
			c1.1,0,2,0.3,2.7,0.8s1,1.4,1,2.4v4.9c0,0.4,0,0.7,0.1,1c0,0.3,0.1,0.7,0.2,1H434.7z M431,161.2c0.8,0,1.5-0.2,2.1-0.6
			c0.6-0.4,1.1-0.9,1.3-1.4v-2.1h-2.2c-1,0-1.8,0.2-2.4,0.6c-0.6,0.4-0.9,1-0.9,1.6c0,0.5,0.2,1,0.6,1.3
			C429.8,161,430.4,161.2,431,161.2z"/>
	</g>
	<g>
		<path class="st2" d="M106.6,191v-11.8l10.2,5.9L106.6,191z"/>
	</g>
	<g>
		<path class="st1" d="M132.8,177v9.2c0,1.5-0.5,2.6-1.4,3.4c-0.9,0.8-2.1,1.2-3.5,1.2c-1.4,0-2.6-0.4-3.5-1.2
			c-0.9-0.8-1.3-1.9-1.3-3.4V177h1.1v9.2c0,1.2,0.3,2,1,2.7c0.7,0.6,1.6,0.9,2.7,0.9c1.1,0,2-0.3,2.7-0.9c0.7-0.6,1.1-1.5,1.1-2.7
			V177H132.8z"/>
		<path class="st1" d="M141.9,188c0-0.5-0.2-0.9-0.6-1.2s-1.1-0.6-2.1-0.9c-1.2-0.3-2.1-0.6-2.7-1c-0.6-0.4-0.9-1-0.9-1.8
			c0-0.8,0.3-1.4,1-1.9c0.6-0.5,1.5-0.8,2.6-0.8c1.1,0,2,0.3,2.7,0.8c0.7,0.6,1,1.3,0.9,2.1l0,0.1h-1c0-0.6-0.2-1-0.7-1.4
			s-1.1-0.6-1.9-0.6c-0.8,0-1.4,0.2-1.8,0.5c-0.4,0.3-0.6,0.8-0.6,1.2c0,0.5,0.2,0.8,0.5,1.1c0.4,0.3,1,0.6,2.1,0.8
			c1.2,0.3,2.1,0.6,2.7,1.1c0.6,0.5,0.9,1.1,0.9,1.9c0,0.8-0.3,1.5-1,2c-0.7,0.5-1.6,0.8-2.7,0.8c-1.2,0-2.2-0.3-2.9-0.9
			c-0.7-0.6-1-1.3-1-2.1l0-0.1h1c0,0.7,0.3,1.2,0.9,1.6c0.5,0.3,1.2,0.5,1.9,0.5c0.8,0,1.4-0.2,1.9-0.5S141.9,188.5,141.9,188z
			 M139.2,177.9l1.5-1.6h1.1v0.2l-2.2,2.1h-0.9l-2.2-2.1v-0.2h1.1L139.2,177.9z"/>
		<path class="st1" d="M147.3,177.9v2.6h2.2v0.9h-2.2v6.6c0,0.7,0.1,1.1,0.4,1.4c0.2,0.3,0.6,0.4,1,0.4c0.2,0,0.4,0,0.5,0
			c0.2,0,0.4,0,0.6-0.1l0.2,0.8c-0.2,0.1-0.4,0.1-0.7,0.2c-0.3,0-0.5,0.1-0.8,0.1c-0.7,0-1.3-0.2-1.6-0.7c-0.4-0.4-0.6-1.2-0.6-2.1
			v-6.6h-1.7v-0.9h1.7v-2.6H147.3z"/>
		<path class="st1" d="M155.6,190.7c-1.3,0-2.3-0.5-3.1-1.4c-0.8-0.9-1.3-2.1-1.3-3.5v-0.5c0-1.4,0.4-2.6,1.2-3.6
			c0.8-0.9,1.8-1.4,3-1.4c1.2,0,2.2,0.4,2.9,1.2c0.7,0.8,1.1,1.8,1.1,3.1v0.9h-7.1v0.3c0,1.1,0.3,2.1,0.9,2.8
			c0.6,0.8,1.4,1.1,2.4,1.1c0.7,0,1.3-0.1,1.8-0.3c0.5-0.2,0.9-0.5,1.3-0.8l0.5,0.8c-0.4,0.4-0.9,0.7-1.4,0.9
			C157.1,190.6,156.4,190.7,155.6,190.7z M155.5,181.2c-0.8,0-1.5,0.3-2.1,0.9c-0.6,0.6-0.9,1.4-1,2.4l0,0h5.9v-0.3
			c0-0.9-0.3-1.6-0.8-2.2S156.4,181.2,155.5,181.2z"/>
		<path class="st1" d="M161.2,185.6c0-1.6,0.3-2.9,1-3.9c0.7-1,1.6-1.4,2.8-1.4c0.7,0,1.3,0.1,1.8,0.4c0.5,0.3,0.9,0.7,1.3,1.3v-6
			h1.1v14.5h-1l-0.1-1.5c-0.3,0.5-0.8,0.9-1.3,1.2c-0.5,0.3-1.1,0.4-1.9,0.4c-1.2,0-2.1-0.4-2.8-1.3c-0.7-0.9-1-2.1-1-3.6V185.6z
			 M162.3,185.8c0,1.2,0.2,2.2,0.7,2.9s1.2,1.1,2.2,1.1c0.7,0,1.3-0.2,1.8-0.5c0.5-0.3,0.9-0.8,1.1-1.3v-4.7
			c-0.3-0.6-0.6-1.1-1.1-1.4c-0.5-0.4-1.1-0.5-1.8-0.5c-1,0-1.7,0.4-2.2,1.2c-0.5,0.8-0.7,1.9-0.7,3.1V185.8z"/>
		<path class="st1" d="M178.6,190.5c-0.1-0.3-0.1-0.6-0.2-0.9c0-0.2,0-0.5,0-0.8c-0.4,0.5-0.9,1-1.5,1.3c-0.6,0.3-1.3,0.5-2.1,0.5
			c-1,0-1.7-0.3-2.3-0.8c-0.5-0.5-0.8-1.2-0.8-2.1c0-0.9,0.4-1.7,1.2-2.2c0.8-0.6,1.9-0.8,3.2-0.8h2.2v-1.2c0-0.7-0.2-1.3-0.7-1.7
			s-1.1-0.6-1.9-0.6c-0.8,0-1.4,0.2-1.9,0.6c-0.5,0.4-0.8,0.9-0.8,1.4l-1,0l0-0.1c0-0.7,0.3-1.4,1-2c0.7-0.6,1.6-0.9,2.8-0.9
			c1.1,0,2,0.3,2.7,0.8s1,1.4,1,2.4v4.9c0,0.4,0,0.7,0.1,1c0,0.3,0.1,0.7,0.2,1H178.6z M175,189.7c0.8,0,1.5-0.2,2.1-0.6
			c0.6-0.4,1.1-0.9,1.3-1.4v-2.1h-2.2c-1,0-1.8,0.2-2.4,0.6c-0.6,0.4-0.9,1-0.9,1.6c0,0.5,0.2,1,0.6,1.3
			C173.8,189.6,174.3,189.7,175,189.7z"/>
		<path class="st1" d="M190,188l0.3,1.2h0.1l0.4-1.2l2.7-7.5h1.2l-3.8,10.1h-0.9l-3.8-10.1h1.2L190,188z"/>
		<path class="st1" d="M201.1,181.4l-0.8-0.1c-0.7,0-1.3,0.2-1.7,0.6c-0.4,0.4-0.8,0.9-1,1.6v6.9h-1.1v-10.1h1l0.1,1.7v0.1
			c0.3-0.6,0.7-1.1,1.2-1.5c0.5-0.3,1.1-0.5,1.7-0.5c0.1,0,0.3,0,0.4,0c0.1,0,0.2,0,0.3,0.1L201.1,181.4z"/>
		<path class="st1" d="M206.7,190.7c-1.3,0-2.3-0.5-3.1-1.4c-0.8-0.9-1.3-2.1-1.3-3.5v-0.5c0-1.4,0.4-2.6,1.2-3.6
			c0.8-0.9,1.8-1.4,3-1.4c1.2,0,2.2,0.4,2.9,1.2c0.7,0.8,1.1,1.8,1.1,3.1v0.9h-7.1v0.3c0,1.1,0.3,2.1,0.9,2.8
			c0.6,0.8,1.4,1.1,2.4,1.1c0.7,0,1.3-0.1,1.8-0.3c0.5-0.2,0.9-0.5,1.3-0.8l0.5,0.8c-0.4,0.4-0.9,0.7-1.4,0.9
			C208.2,190.6,207.5,190.7,206.7,190.7z M206.6,181.2c-0.8,0-1.5,0.3-2.1,0.9c-0.6,0.6-0.9,1.4-1,2.4l0,0h5.9v-0.3
			c0-0.9-0.3-1.6-0.8-2.2S207.4,181.2,206.6,181.2z"/>
		<path class="st1" d="M213.7,180.5l0.1,1.7c0.3-0.6,0.8-1,1.3-1.4c0.5-0.3,1.2-0.5,1.9-0.5c0.8,0,1.4,0.2,1.9,0.6
			c0.5,0.4,0.9,0.9,1.1,1.7c0.3-0.7,0.7-1.3,1.3-1.7c0.6-0.4,1.2-0.6,2-0.6c1.1,0,1.9,0.4,2.5,1.1c0.6,0.7,0.9,1.8,0.9,3.3v5.9h-1.1
			v-5.9c0-1.2-0.2-2.1-0.7-2.6c-0.4-0.5-1-0.8-1.8-0.8c-0.9,0-1.5,0.3-2,0.8c-0.5,0.5-0.8,1.2-0.9,2.1c0,0,0,0.1,0,0.2
			c0,0.1,0,0.1,0,0.2v6h-1.1v-5.9c0-1.2-0.2-2.1-0.7-2.6c-0.4-0.5-1.1-0.8-1.8-0.8c-0.8,0-1.4,0.2-1.9,0.6c-0.5,0.4-0.8,0.9-1,1.6
			v7.1h-1.1v-10.1H213.7z"/>
		<path class="st1" d="M233.4,190.7c-1.3,0-2.3-0.5-3.1-1.4c-0.8-0.9-1.3-2.1-1.3-3.5v-0.5c0-1.4,0.4-2.6,1.2-3.6
			c0.8-0.9,1.8-1.4,3-1.4c1.2,0,2.2,0.4,2.9,1.2c0.7,0.8,1.1,1.8,1.1,3.1v0.9h-7.1v0.3c0,1.1,0.3,2.1,0.9,2.8
			c0.6,0.8,1.4,1.1,2.4,1.1c0.7,0,1.3-0.1,1.8-0.3c0.5-0.2,0.9-0.5,1.3-0.8l0.5,0.8c-0.4,0.4-0.9,0.7-1.4,0.9
			C234.9,190.6,234.2,190.7,233.4,190.7z M233.2,181.2c-0.8,0-1.5,0.3-2.1,0.9c-0.6,0.6-0.9,1.4-1,2.4l0,0h5.9v-0.3
			c0-0.9-0.3-1.6-0.8-2.2S234.1,181.2,233.2,181.2z"/>
		<path class="st1" d="M240.4,180.5l0.1,1.8c0.3-0.6,0.8-1.1,1.3-1.4c0.5-0.3,1.2-0.5,1.9-0.5c1.1,0,1.9,0.3,2.5,1
			c0.6,0.7,0.9,1.7,0.9,3.1v6.1H246v-6.1c0-1.2-0.2-2-0.6-2.4c-0.4-0.5-1-0.7-1.8-0.7c-0.8,0-1.4,0.2-1.9,0.6
			c-0.5,0.4-0.8,1-1.1,1.6v7h-1.1v-10.1H240.4z"/>
		<path class="st1" d="M256.4,190.5c-0.1-0.3-0.1-0.6-0.2-0.9c0-0.2,0-0.5,0-0.8c-0.4,0.5-0.9,1-1.5,1.3c-0.6,0.3-1.3,0.5-2.1,0.5
			c-1,0-1.7-0.3-2.3-0.8c-0.5-0.5-0.8-1.2-0.8-2.1c0-0.9,0.4-1.7,1.2-2.2c0.8-0.6,1.9-0.8,3.2-0.8h2.2v-1.2c0-0.7-0.2-1.3-0.7-1.7
			c-0.5-0.4-1.1-0.6-1.9-0.6c-0.8,0-1.4,0.2-1.9,0.6c-0.5,0.4-0.8,0.9-0.8,1.4l-1,0l0-0.1c0-0.7,0.3-1.4,1-2
			c0.7-0.6,1.6-0.9,2.8-0.9c1.1,0,2,0.3,2.7,0.8s1,1.4,1,2.4v4.9c0,0.4,0,0.7,0.1,1c0,0.3,0.1,0.7,0.2,1H256.4z M252.7,189.7
			c0.8,0,1.5-0.2,2.1-0.6c0.6-0.4,1.1-0.9,1.3-1.4v-2.1h-2.2c-1,0-1.8,0.2-2.4,0.6c-0.6,0.4-0.9,1-0.9,1.6c0,0.5,0.2,1,0.6,1.3
			C251.5,189.6,252.1,189.7,252.7,189.7z"/>
		<path class="st1" d="M266.1,177.6H265V176h1.1V177.6z M266.1,190.5H265v-10.1h1.1V190.5z"/>
		<path class="st1" d="M274.8,180.5l0.1,1.8c0.3-0.6,0.8-1.1,1.3-1.4c0.5-0.3,1.2-0.5,1.9-0.5c1.1,0,1.9,0.3,2.5,1
			c0.6,0.7,0.9,1.7,0.9,3.1v6.1h-1.1v-6.1c0-1.2-0.2-2-0.6-2.4c-0.4-0.5-1-0.7-1.8-0.7c-0.8,0-1.4,0.2-1.9,0.6
			c-0.5,0.4-0.8,1-1.1,1.6v7h-1.1v-10.1H274.8z"/>
		<path class="st1" d="M283.8,185.3c0-1.5,0.4-2.7,1.2-3.6c0.8-0.9,1.9-1.4,3.2-1.4c1.3,0,2.4,0.5,3.2,1.4c0.8,0.9,1.2,2.2,1.2,3.6
			v0.3c0,1.5-0.4,2.7-1.2,3.6c-0.8,0.9-1.9,1.4-3.2,1.4c-1.4,0-2.4-0.5-3.2-1.4c-0.8-0.9-1.2-2.2-1.2-3.6V185.3z M284.9,185.6
			c0,1.2,0.3,2.1,0.9,2.9c0.6,0.8,1.4,1.2,2.5,1.2c1,0,1.8-0.4,2.4-1.2c0.6-0.8,0.9-1.8,0.9-2.9v-0.3c0-1.1-0.3-2.1-0.9-2.9
			c-0.6-0.8-1.4-1.2-2.5-1.2s-1.9,0.4-2.4,1.2c-0.6,0.8-0.9,1.8-0.9,2.9V185.6z"/>
		<path class="st1" d="M297.9,188l0.3,1.2h0.1l0.4-1.2l2.7-7.5h1.2l-3.8,10.1h-0.9l-3.8-10.1h1.2L297.9,188z"/>
		<path class="st1" d="M310.7,190.5c-0.1-0.3-0.1-0.6-0.2-0.9c0-0.2,0-0.5,0-0.8c-0.4,0.5-0.9,1-1.5,1.3c-0.6,0.3-1.3,0.5-2.1,0.5
			c-1,0-1.7-0.3-2.3-0.8c-0.5-0.5-0.8-1.2-0.8-2.1c0-0.9,0.4-1.7,1.2-2.2s1.9-0.8,3.2-0.8h2.2v-1.2c0-0.7-0.2-1.3-0.7-1.7
			s-1.1-0.6-1.9-0.6c-0.8,0-1.4,0.2-1.9,0.6c-0.5,0.4-0.8,0.9-0.8,1.4l-1,0l0-0.1c0-0.7,0.3-1.4,1-2c0.7-0.6,1.6-0.9,2.8-0.9
			c1.1,0,2,0.3,2.7,0.8s1,1.4,1,2.4v4.9c0,0.4,0,0.7,0.1,1c0,0.3,0.1,0.7,0.2,1H310.7z M307,189.7c0.8,0,1.5-0.2,2.1-0.6
			c0.6-0.4,1.1-0.9,1.3-1.4v-2.1h-2.2c-1,0-1.8,0.2-2.4,0.6c-0.6,0.4-0.9,1-0.9,1.6c0,0.5,0.2,1,0.6,1.3
			C305.9,189.6,306.4,189.7,307,189.7z"/>
		<path class="st1" d="M318.3,189.8c0.7,0,1.4-0.2,2-0.6c0.6-0.4,0.8-1,0.8-1.7h1l0,0.1c0,0.9-0.3,1.7-1.1,2.3
			c-0.8,0.6-1.7,0.9-2.7,0.9c-1.4,0-2.4-0.5-3.2-1.4c-0.7-0.9-1.1-2.1-1.1-3.6v-0.4c0-1.5,0.4-2.7,1.1-3.6c0.8-0.9,1.8-1.4,3.2-1.4
			c1.1,0,2,0.3,2.8,1c0.7,0.7,1.1,1.5,1.1,2.6l0,0.1h-1c0-0.8-0.3-1.4-0.8-1.9c-0.5-0.5-1.2-0.7-2-0.7c-1.1,0-1.9,0.4-2.4,1.2
			c-0.5,0.8-0.8,1.7-0.8,2.9v0.4c0,1.2,0.3,2.2,0.8,2.9C316.4,189.4,317.2,189.8,318.3,189.8z"/>
		<path class="st1" d="M330.8,190.5c-0.1-0.3-0.1-0.6-0.2-0.9c0-0.2,0-0.5,0-0.8c-0.4,0.5-0.9,1-1.5,1.3c-0.6,0.3-1.3,0.5-2.1,0.5
			c-1,0-1.7-0.3-2.3-0.8c-0.5-0.5-0.8-1.2-0.8-2.1c0-0.9,0.4-1.7,1.2-2.2s1.9-0.8,3.2-0.8h2.2v-1.2c0-0.7-0.2-1.3-0.7-1.7
			s-1.1-0.6-1.9-0.6c-0.8,0-1.4,0.2-1.9,0.6c-0.5,0.4-0.8,0.9-0.8,1.4l-1,0l0-0.1c0-0.7,0.3-1.4,1-2c0.7-0.6,1.6-0.9,2.8-0.9
			c1.1,0,2,0.3,2.7,0.8s1,1.4,1,2.4v4.9c0,0.4,0,0.7,0.1,1c0,0.3,0.1,0.7,0.2,1H330.8z M327.1,189.7c0.8,0,1.5-0.2,2.1-0.6
			c0.6-0.4,1.1-0.9,1.3-1.4v-2.1h-2.2c-1,0-1.8,0.2-2.4,0.6c-0.6,0.4-0.9,1-0.9,1.6c0,0.5,0.2,1,0.6,1.3
			C326,189.6,326.5,189.7,327.1,189.7z"/>
	</g>
	<g>
		<path class="st2" d="M106.6,219.5v-11.8l10.2,5.9L106.6,219.5z"/>
	</g>
	<g>
		<path class="st1" d="M127.2,216.8l0.3,0.9h0.1l0.3-0.9l4.1-11.2h1.2l-5,13.5h-1.1l-5-13.5h1.2L127.2,216.8z"/>
		<path class="st1" d="M141.2,219.1c-0.1-0.3-0.1-0.6-0.2-0.9c0-0.2,0-0.5,0-0.8c-0.4,0.5-0.9,1-1.5,1.3c-0.6,0.3-1.3,0.5-2.1,0.5
			c-1,0-1.7-0.3-2.3-0.8c-0.5-0.5-0.8-1.2-0.8-2.1c0-0.9,0.4-1.7,1.2-2.2c0.8-0.6,1.9-0.8,3.2-0.8h2.2v-1.2c0-0.7-0.2-1.3-0.7-1.7
			s-1.1-0.6-1.9-0.6c-0.8,0-1.4,0.2-1.9,0.6c-0.5,0.4-0.8,0.9-0.8,1.4l-1,0l0-0.1c0-0.7,0.3-1.4,1-2c0.7-0.6,1.6-0.9,2.8-0.9
			c1.1,0,2,0.3,2.7,0.8s1,1.4,1,2.4v4.9c0,0.4,0,0.7,0.1,1c0,0.3,0.1,0.7,0.2,1H141.2z M137.5,218.3c0.8,0,1.5-0.2,2.1-0.6
			c0.6-0.4,1.1-0.9,1.3-1.4v-2.1h-2.2c-1,0-1.8,0.2-2.4,0.6c-0.6,0.4-0.9,1-0.9,1.6c0,0.5,0.2,1,0.6,1.3
			C136.3,218.1,136.9,218.3,137.5,218.3z"/>
		<path class="st1" d="M151.1,216.5c0-0.5-0.2-0.9-0.6-1.2s-1.1-0.6-2.1-0.9c-1.2-0.3-2.1-0.6-2.7-1c-0.6-0.4-0.9-1-0.9-1.8
			c0-0.8,0.3-1.4,1-1.9c0.6-0.5,1.5-0.8,2.6-0.8c1.1,0,2,0.3,2.7,0.8c0.7,0.6,1,1.3,0.9,2.1l0,0.1h-1c0-0.6-0.2-1-0.7-1.4
			s-1.1-0.6-1.9-0.6c-0.8,0-1.4,0.2-1.8,0.5c-0.4,0.3-0.6,0.8-0.6,1.2c0,0.5,0.2,0.8,0.5,1.1c0.4,0.3,1,0.6,2.1,0.8
			c1.2,0.3,2.1,0.6,2.7,1.1c0.6,0.5,0.9,1.1,0.9,1.9c0,0.8-0.3,1.5-1,2c-0.7,0.5-1.6,0.8-2.7,0.8c-1.2,0-2.2-0.3-2.9-0.9
			c-0.7-0.6-1-1.3-1-2.1l0-0.1h1c0,0.7,0.3,1.2,0.9,1.6c0.5,0.3,1.2,0.5,1.9,0.5c0.8,0,1.4-0.2,1.9-0.5S151.1,217,151.1,216.5z
			 M148.4,206.5l1.5-1.6h1.1v0.2l-2.2,2.1h-0.9l-2.2-2.1v-0.2h1.1L148.4,206.5z"/>
		<path class="st1" d="M161.1,219.1c-0.1-0.3-0.1-0.6-0.2-0.9c0-0.2,0-0.5,0-0.8c-0.4,0.5-0.9,1-1.5,1.3c-0.6,0.3-1.3,0.5-2.1,0.5
			c-1,0-1.7-0.3-2.3-0.8c-0.5-0.5-0.8-1.2-0.8-2.1c0-0.9,0.4-1.7,1.2-2.2c0.8-0.6,1.9-0.8,3.2-0.8h2.2v-1.2c0-0.7-0.2-1.3-0.7-1.7
			c-0.5-0.4-1.1-0.6-1.9-0.6c-0.8,0-1.4,0.2-1.9,0.6c-0.5,0.4-0.8,0.9-0.8,1.4l-1,0l0-0.1c0-0.7,0.3-1.4,1-2
			c0.7-0.6,1.6-0.9,2.8-0.9c1.1,0,2,0.3,2.7,0.8c0.7,0.6,1,1.4,1,2.4v4.9c0,0.4,0,0.7,0.1,1c0,0.3,0.1,0.7,0.2,1H161.1z
			 M157.5,218.3c0.8,0,1.5-0.2,2.1-0.6c0.6-0.4,1.1-0.9,1.3-1.4v-2.1h-2.2c-1,0-1.8,0.2-2.4,0.6c-0.6,0.4-0.9,1-0.9,1.6
			c0,0.5,0.2,1,0.6,1.3C156.3,218.1,156.8,218.3,157.5,218.3z"/>
		<path class="st1" d="M170.4,219.1v-9.1h-1.7V209h1.7v-1.5c0-1,0.3-1.8,0.8-2.3c0.5-0.6,1.2-0.8,2.1-0.8c0.2,0,0.4,0,0.6,0
			c0.2,0,0.4,0.1,0.6,0.1l-0.1,0.9c-0.1,0-0.3-0.1-0.5-0.1c-0.2,0-0.3,0-0.6,0c-0.6,0-1.1,0.2-1.4,0.6c-0.3,0.4-0.5,0.9-0.5,1.6v1.5
			h2.4v0.9h-2.4v9.1H170.4z"/>
		<path class="st1" d="M177.1,219.1H176v-14.5h1.1V219.1z"/>
		<path class="st1" d="M179.6,213.9c0-1.5,0.4-2.7,1.2-3.6c0.8-0.9,1.9-1.4,3.2-1.4c1.3,0,2.4,0.5,3.2,1.4c0.8,0.9,1.2,2.2,1.2,3.6
			v0.3c0,1.5-0.4,2.7-1.2,3.6c-0.8,0.9-1.9,1.4-3.2,1.4c-1.4,0-2.4-0.5-3.2-1.4c-0.8-0.9-1.2-2.2-1.2-3.6V213.9z M180.7,214.2
			c0,1.2,0.3,2.1,0.9,2.9c0.6,0.8,1.4,1.2,2.5,1.2c1,0,1.8-0.4,2.4-1.2s0.9-1.8,0.9-2.9v-0.3c0-1.1-0.3-2.1-0.9-2.9
			s-1.4-1.2-2.5-1.2c-1,0-1.9,0.4-2.4,1.2c-0.6,0.8-0.9,1.8-0.9,2.9V214.2z"/>
		<path class="st1" d="M192.5,206.4v2.6h2.2v0.9h-2.2v6.6c0,0.7,0.1,1.1,0.4,1.4c0.2,0.3,0.6,0.4,1,0.4c0.2,0,0.4,0,0.5,0
			c0.2,0,0.4,0,0.6-0.1l0.2,0.8c-0.2,0.1-0.4,0.1-0.7,0.2c-0.3,0-0.5,0.1-0.8,0.1c-0.7,0-1.3-0.2-1.6-0.7c-0.4-0.4-0.6-1.2-0.6-2.1
			v-6.6h-1.7V209h1.7v-2.6H192.5z"/>
		<path class="st1" d="M203.5,219.1c-0.1-0.3-0.1-0.6-0.2-0.9c0-0.2,0-0.5,0-0.8c-0.4,0.5-0.9,1-1.5,1.3c-0.6,0.3-1.3,0.5-2.1,0.5
			c-1,0-1.7-0.3-2.3-0.8c-0.5-0.5-0.8-1.2-0.8-2.1c0-0.9,0.4-1.7,1.2-2.2s1.9-0.8,3.2-0.8h2.2v-1.2c0-0.7-0.2-1.3-0.7-1.7
			c-0.5-0.4-1.1-0.6-1.9-0.6c-0.8,0-1.4,0.2-1.9,0.6c-0.5,0.4-0.8,0.9-0.8,1.4l-1,0l0-0.1c0-0.7,0.3-1.4,1-2
			c0.7-0.6,1.6-0.9,2.8-0.9c1.1,0,2,0.3,2.7,0.8c0.7,0.6,1,1.4,1,2.4v4.9c0,0.4,0,0.7,0.1,1c0,0.3,0.1,0.7,0.2,1H203.5z
			 M199.8,218.3c0.8,0,1.5-0.2,2.1-0.6c0.6-0.4,1.1-0.9,1.3-1.4v-2.1H201c-1,0-1.8,0.2-2.4,0.6c-0.6,0.4-0.9,1-0.9,1.6
			c0,0.5,0.2,1,0.6,1.3C198.6,218.1,199.2,218.3,199.8,218.3z"/>
		<path class="st1" d="M211.3,213.9c0-1.5,0.4-2.7,1.2-3.6c0.8-0.9,1.9-1.4,3.2-1.4c1.3,0,2.4,0.5,3.2,1.4c0.8,0.9,1.2,2.2,1.2,3.6
			v0.3c0,1.5-0.4,2.7-1.2,3.6c-0.8,0.9-1.9,1.4-3.2,1.4c-1.4,0-2.4-0.5-3.2-1.4c-0.8-0.9-1.2-2.2-1.2-3.6V213.9z M212.5,214.2
			c0,1.2,0.3,2.1,0.9,2.9s1.4,1.2,2.5,1.2c1,0,1.8-0.4,2.4-1.2s0.9-1.8,0.9-2.9v-0.3c0-1.1-0.3-2.1-0.9-2.9s-1.4-1.2-2.5-1.2
			c-1,0-1.9,0.4-2.4,1.2s-0.9,1.8-0.9,2.9V214.2z"/>
		<path class="st1" d="M222.1,214.1c0-1.6,0.3-2.9,1-3.9c0.7-1,1.6-1.4,2.8-1.4c0.7,0,1.3,0.1,1.8,0.4s0.9,0.7,1.3,1.3v-6h1.1v14.5
			h-1l-0.1-1.5c-0.3,0.5-0.8,0.9-1.3,1.2c-0.5,0.3-1.1,0.4-1.9,0.4c-1.2,0-2.1-0.4-2.8-1.3c-0.7-0.9-1-2.1-1-3.6V214.1z
			 M223.2,214.3c0,1.2,0.2,2.2,0.7,2.9s1.2,1.1,2.2,1.1c0.7,0,1.3-0.2,1.8-0.5c0.5-0.3,0.9-0.8,1.1-1.3v-4.7
			c-0.3-0.6-0.6-1.1-1.1-1.4c-0.5-0.4-1.1-0.5-1.8-0.5c-1,0-1.7,0.4-2.2,1.2c-0.5,0.8-0.7,1.9-0.7,3.1V214.3z"/>
		<path class="st1" d="M242.6,219.1h-1.1v-12.4l-3.4,0.4v-0.8l4.6-0.8V219.1z"/>
		<path class="st1" d="M249.7,219.1h-1.3v-1.5h1.3V219.1z"/>
		<path class="st1" d="M257.4,205.3c0.5,0,0.9,0.1,1.4,0.2c0.5,0.1,0.9,0.3,1.2,0.5l-0.3,0.9c-0.4-0.2-0.7-0.3-1.1-0.4
			c-0.3-0.1-0.8-0.1-1.2-0.1c-1,0-1.8,0.4-2.5,1.2c-0.7,0.8-1,1.8-1,3.1v1.2c0.4-0.5,0.8-0.9,1.4-1.2s1.2-0.4,1.9-0.4
			c1.2,0,2.2,0.4,2.9,1.3s1.1,1.9,1.1,3.3c0,1.3-0.4,2.4-1.1,3.3c-0.8,0.9-1.7,1.3-3,1.3c-1.2,0-2.3-0.5-3.1-1.4
			c-0.8-0.9-1.2-2.2-1.2-3.8v-3.4c0-1.6,0.4-2.8,1.3-3.8C255,205.8,256.1,205.3,257.4,205.3z M257.1,211.1c-0.8,0-1.4,0.2-2,0.6
			c-0.6,0.4-0.9,0.9-1.1,1.5v1c0,1.3,0.3,2.3,0.9,3.1c0.6,0.7,1.4,1.1,2.3,1.1c0.9,0,1.6-0.4,2.2-1.1s0.8-1.6,0.8-2.6
			c0-1.1-0.3-2-0.8-2.6C258.8,211.4,258,211.1,257.1,211.1z"/>
		<path class="st1" d="M271.8,213.8c0,1.7-0.4,3.1-1.1,4s-1.8,1.4-3.2,1.4c-1.3,0-2.4-0.5-3.2-1.4c-0.8-0.9-1.1-2.3-1.1-4v-3
			c0-1.7,0.4-3.1,1.1-4c0.8-0.9,1.8-1.4,3.2-1.4c1.3,0,2.4,0.5,3.2,1.4c0.8,0.9,1.1,2.3,1.1,4V213.8z M270.7,210.6
			c0-1.4-0.3-2.5-0.8-3.2c-0.5-0.7-1.3-1.1-2.4-1.1s-1.8,0.4-2.4,1.1c-0.5,0.7-0.8,1.8-0.8,3.2v3.4c0,1.4,0.3,2.4,0.8,3.2
			c0.5,0.8,1.3,1.1,2.4,1.1c1,0,1.8-0.4,2.4-1.1c0.5-0.8,0.8-1.8,0.8-3.2V210.6z"/>
		<path class="st1" d="M282.9,213.8c0,1.7-0.4,3.1-1.1,4c-0.8,0.9-1.8,1.4-3.2,1.4c-1.3,0-2.4-0.5-3.2-1.4c-0.8-0.9-1.1-2.3-1.1-4
			v-3c0-1.7,0.4-3.1,1.1-4c0.8-0.9,1.8-1.4,3.2-1.4c1.3,0,2.4,0.5,3.2,1.4c0.8,0.9,1.1,2.3,1.1,4V213.8z M281.8,210.6
			c0-1.4-0.3-2.5-0.8-3.2c-0.5-0.7-1.3-1.1-2.4-1.1s-1.8,0.4-2.4,1.1c-0.5,0.7-0.8,1.8-0.8,3.2v3.4c0,1.4,0.3,2.4,0.8,3.2
			c0.5,0.8,1.3,1.1,2.4,1.1s1.8-0.4,2.4-1.1c0.5-0.8,0.8-1.8,0.8-3.2V210.6z"/>
		<path class="st1" d="M293.1,216.6l0.3,1.2h0.1l0.4-1.2l2.7-7.5h1.2l-3.8,10.1H293l-3.8-10.1h1.2L293.1,216.6z"/>
		<path class="st1" d="M299,213.9c0-1.5,0.4-2.7,1.2-3.6c0.8-0.9,1.9-1.4,3.2-1.4c1.3,0,2.4,0.5,3.2,1.4c0.8,0.9,1.2,2.2,1.2,3.6
			v0.3c0,1.5-0.4,2.7-1.2,3.6c-0.8,0.9-1.9,1.4-3.2,1.4c-1.4,0-2.4-0.5-3.2-1.4c-0.8-0.9-1.2-2.2-1.2-3.6V213.9z M300.1,214.2
			c0,1.2,0.3,2.1,0.9,2.9s1.4,1.2,2.5,1.2c1,0,1.8-0.4,2.4-1.2c0.6-0.8,0.9-1.8,0.9-2.9v-0.3c0-1.1-0.3-2.1-0.9-2.9
			s-1.4-1.2-2.5-1.2c-1,0-1.9,0.4-2.4,1.2s-0.9,1.8-0.9,2.9V214.2z"/>
		<path class="st1" d="M310.9,218.1h6.5v0.9h-7.9v-0.8l6.1-8.3h-5.9V209h7.3v0.8L310.9,218.1z"/>
		<path class="st1" d="M320.7,206.1h-1.1v-1.6h1.1V206.1z M320.7,219.1h-1.1V209h1.1V219.1z"/>
		<path class="st1" d="M325.1,219.1h-1.1v-14.5h1.1V219.1z"/>
		<path class="st1" d="M334.5,219.1c-0.1-0.3-0.1-0.6-0.2-0.9c0-0.2,0-0.5,0-0.8c-0.4,0.5-0.9,1-1.5,1.3c-0.6,0.3-1.3,0.5-2.1,0.5
			c-1,0-1.7-0.3-2.3-0.8c-0.5-0.5-0.8-1.2-0.8-2.1c0-0.9,0.4-1.7,1.2-2.2s1.9-0.8,3.2-0.8h2.2v-1.2c0-0.7-0.2-1.3-0.7-1.7
			s-1.1-0.6-1.9-0.6c-0.8,0-1.4,0.2-1.9,0.6c-0.5,0.4-0.8,0.9-0.8,1.4l-1,0l0-0.1c0-0.7,0.3-1.4,1-2c0.7-0.6,1.6-0.9,2.8-0.9
			c1.1,0,2,0.3,2.7,0.8s1,1.4,1,2.4v4.9c0,0.4,0,0.7,0.1,1c0,0.3,0.1,0.7,0.2,1H334.5z M330.8,218.3c0.8,0,1.5-0.2,2.1-0.6
			c0.6-0.4,1.1-0.9,1.3-1.4v-2.1h-2.2c-1,0-1.8,0.2-2.4,0.6c-0.6,0.4-0.9,1-0.9,1.6c0,0.5,0.2,1,0.6,1.3
			C329.7,218.1,330.2,218.3,330.8,218.3z"/>
	</g>
	<g>
		<path class="st1" d="M52,266.4v11.2c0,1.9-0.6,3.4-1.9,4.4c-1.3,1-2.9,1.5-4.9,1.5c-2,0-3.7-0.5-4.9-1.5c-1.2-1-1.9-2.5-1.9-4.4
			v-11.2h3.4v11.2c0,1.1,0.3,1.9,0.9,2.5c0.6,0.6,1.4,0.8,2.5,0.8c1.1,0,1.9-0.3,2.5-0.8c0.6-0.6,0.9-1.4,0.9-2.5v-11.2H52z"/>
		<path class="st1" d="M59.2,278.6l0.2,1.2h0.1l0.2-1.2l2.1-7.9h3.5l-4.3,12.6h-3.2l-4.3-12.6h3.5L59.2,278.6z"/>
		<path class="st1" d="M70.4,267.7H67v-2.5h3.4V267.7z M70.4,283.3H67v-12.6h3.4V283.3z"/>
		<path class="st1" d="M76.9,270.8v13c0,1.5-0.4,2.6-1.2,3.4c-0.8,0.8-1.9,1.2-3.3,1.2c-0.3,0-0.6,0-0.8,0c-0.3,0-0.5-0.1-0.8-0.2
			l0.2-2.6c0.2,0,0.4,0.1,0.5,0.1c0.2,0,0.4,0,0.6,0c0.5,0,0.8-0.2,1.1-0.5c0.2-0.3,0.4-0.8,0.4-1.5v-13H76.9z M76.8,267.7h-3.4
			v-2.5h3.4V267.7z"/>
		<path class="st1" d="M85.1,283.6c-1.8,0-3.3-0.6-4.3-1.7c-1.1-1.2-1.6-2.6-1.6-4.4v-0.5c0-1.9,0.5-3.4,1.5-4.6
			c1-1.2,2.4-1.8,4.1-1.8c1.7,0,3,0.5,4,1.5c0.9,1,1.4,2.4,1.4,4.1v1.8h-7.5l0,0.1c0.1,0.8,0.3,1.5,0.8,2c0.5,0.5,1.2,0.8,2,0.8
			c0.8,0,1.4-0.1,1.9-0.2c0.5-0.2,1-0.4,1.6-0.7l0.9,2.1c-0.5,0.4-1.2,0.8-2,1C87,283.4,86.1,283.6,85.1,283.6z M84.8,273.1
			c-0.6,0-1.1,0.2-1.5,0.7c-0.4,0.5-0.6,1.1-0.7,1.9l0,0.1h4.2v-0.3c0-0.7-0.2-1.3-0.5-1.7C86,273.3,85.5,273.1,84.8,273.1z"/>
		<path class="st1" d="M96.4,278.1h-0.9v5.3h-3.4v-18.1h3.4v10.3h0.8l2.9-4.7h3.9l-4,5.7l4.6,6.9h-3.9L96.4,278.1z"/>
		<path class="st1" d="M117.6,279.9c0-0.4-0.2-0.7-0.5-1c-0.4-0.3-1-0.5-2-0.7c-1.5-0.3-2.6-0.8-3.4-1.3c-0.8-0.6-1.1-1.4-1.1-2.4
			c0-1.1,0.5-2,1.4-2.8c0.9-0.8,2.1-1.1,3.7-1.1c1.6,0,2.9,0.4,3.8,1.1s1.4,1.7,1.4,2.8l0,0.1h-3.3c0-0.5-0.2-0.9-0.5-1.2
			c-0.3-0.3-0.8-0.5-1.4-0.5c-0.6,0-1,0.1-1.3,0.4c-0.3,0.3-0.5,0.6-0.5,1c0,0.4,0.2,0.7,0.5,1c0.3,0.2,1,0.5,2,0.7
			c1.5,0.3,2.7,0.8,3.5,1.4c0.8,0.6,1.1,1.4,1.1,2.5c0,1.1-0.5,2.1-1.5,2.8c-1,0.7-2.2,1.1-3.8,1.1c-1.7,0-3-0.4-4-1.3
			c-1-0.8-1.4-1.8-1.4-2.9l0-0.1h3.1c0,0.7,0.2,1.2,0.7,1.5c0.4,0.3,1,0.5,1.6,0.5c0.6,0,1.1-0.1,1.4-0.4
			C117.4,280.6,117.6,280.3,117.6,279.9z"/>
		<path class="st1" d="M126.2,270.8l0.1,1.7c0.4-0.6,0.9-1.1,1.5-1.4c0.6-0.3,1.3-0.5,2.1-0.5c0.8,0,1.5,0.2,2.1,0.5
			c0.6,0.4,1,0.9,1.3,1.6c0.4-0.7,0.9-1.2,1.5-1.6c0.6-0.4,1.3-0.6,2.2-0.6c1.2,0,2.2,0.4,2.9,1.3c0.7,0.9,1.1,2.2,1.1,3.9v7.6h-3.4
			v-7.6c0-1-0.2-1.6-0.5-2c-0.3-0.4-0.8-0.6-1.4-0.6c-0.5,0-0.9,0.1-1.2,0.3c-0.4,0.2-0.6,0.5-0.8,0.9c0,0.1,0,0.3,0,0.4
			c0,0.1,0,0.2,0,0.3v8.3h-3.4v-7.6c0-0.9-0.2-1.6-0.5-2c-0.3-0.4-0.8-0.6-1.4-0.6c-0.5,0-0.9,0.1-1.2,0.3c-0.3,0.2-0.6,0.4-0.9,0.7
			v9.2H123v-12.6H126.2z"/>
		<path class="st1" d="M143.1,276.9c0-1.9,0.5-3.4,1.6-4.6c1-1.2,2.5-1.8,4.3-1.8c1.9,0,3.3,0.6,4.4,1.8c1.1,1.2,1.6,2.7,1.6,4.6
			v0.2c0,1.9-0.5,3.4-1.6,4.6s-2.5,1.8-4.4,1.8c-1.9,0-3.3-0.6-4.4-1.8s-1.6-2.7-1.6-4.6V276.9z M146.5,277.2c0,1.1,0.2,2.1,0.6,2.8
			c0.4,0.7,1.1,1,2,1c0.9,0,1.5-0.3,1.9-1c0.4-0.7,0.6-1.6,0.6-2.7v-0.2c0-1.1-0.2-2-0.6-2.7c-0.4-0.7-1.1-1.1-1.9-1.1
			c-0.9,0-1.5,0.4-1.9,1.1c-0.4,0.7-0.6,1.6-0.6,2.7V277.2z"/>
		<path class="st1" d="M167,267.7v3.1h2.1v2.4H167v6.4c0,0.5,0.1,0.8,0.3,1c0.2,0.2,0.5,0.3,0.8,0.3c0.2,0,0.3,0,0.5,0
			c0.1,0,0.3-0.1,0.4-0.1l0.3,2.5c-0.3,0.1-0.7,0.2-1,0.3c-0.3,0.1-0.7,0.1-1.1,0.1c-1.2,0-2.1-0.3-2.7-1c-0.6-0.6-0.9-1.7-0.9-3.1
			v-6.4h-1.8v-2.4h1.8v-3.1H167z"/>
		<path class="st1" d="M179,281.5c-0.4,0.7-0.9,1.2-1.5,1.5s-1.3,0.5-2.1,0.5c-1.3,0-2.4-0.4-3.1-1.3c-0.7-0.8-1.1-2.2-1.1-4v-7.6
			h3.4v7.6c0,0.9,0.2,1.6,0.5,2c0.3,0.4,0.8,0.6,1.4,0.6c0.5,0,1-0.1,1.4-0.3c0.4-0.2,0.7-0.4,1-0.8v-9.2h3.4v12.6h-2.9L179,281.5z"
			/>
		<path class="st1" d="M194.4,280.7h6.2v2.6h-10.4v-2l6-8h-5.8v-2.6h10.1v1.9L194.4,280.7z"/>
		<path class="st1" d="M210.2,283.3c-0.1-0.3-0.2-0.6-0.3-0.9c-0.1-0.3-0.2-0.6-0.2-1c-0.3,0.6-0.8,1.1-1.4,1.5
			c-0.6,0.4-1.2,0.6-2,0.6c-1.3,0-2.3-0.3-3-1c-0.7-0.7-1.1-1.6-1.1-2.8c0-1.2,0.5-2.2,1.4-2.9c0.9-0.7,2.3-1,4.2-1h1.9v-1
			c0-0.6-0.2-1.1-0.5-1.4c-0.3-0.3-0.8-0.5-1.4-0.5c-0.6,0-1,0.1-1.3,0.4c-0.3,0.3-0.4,0.6-0.4,1.1l-3.3,0l0-0.1
			c-0.1-1.1,0.4-2,1.4-2.7s2.3-1.2,3.8-1.2c1.5,0,2.7,0.4,3.7,1.1c0.9,0.8,1.4,1.8,1.4,3.3v5.2c0,0.6,0,1.1,0.1,1.7s0.2,1,0.4,1.5
			H210.2z M207.1,281.1c0.6,0,1.1-0.1,1.6-0.4c0.5-0.3,0.8-0.6,0.9-1v-1.8h-1.9c-0.7,0-1.3,0.2-1.6,0.5c-0.4,0.4-0.6,0.8-0.6,1.3
			c0,0.4,0.1,0.8,0.4,1C206.2,280.9,206.6,281.1,207.1,281.1z"/>
		<path class="st1" d="M226.1,278.6l0.2,1.2h0.1l0.2-1.2l2.1-7.9h3.5l-4.3,12.6h-3.2l-4.3-12.6h3.5L226.1,278.6z"/>
		<path class="st1" d="M241.1,283.3c-0.1-0.3-0.2-0.6-0.3-0.9c-0.1-0.3-0.2-0.6-0.2-1c-0.3,0.6-0.8,1.1-1.4,1.5
			c-0.6,0.4-1.2,0.6-2,0.6c-1.3,0-2.3-0.3-3-1c-0.7-0.7-1.1-1.6-1.1-2.8c0-1.2,0.5-2.2,1.4-2.9c0.9-0.7,2.3-1,4.2-1h1.9v-1
			c0-0.6-0.2-1.1-0.5-1.4c-0.3-0.3-0.8-0.5-1.4-0.5c-0.6,0-1,0.1-1.3,0.4c-0.3,0.3-0.4,0.6-0.4,1.1l-3.3,0l0-0.1
			c-0.1-1.1,0.4-2,1.4-2.7c1-0.8,2.3-1.2,3.8-1.2c1.5,0,2.7,0.4,3.7,1.1c0.9,0.8,1.4,1.8,1.4,3.3v5.2c0,0.6,0,1.1,0.1,1.7
			c0.1,0.5,0.2,1,0.4,1.5H241.1z M237.9,281.1c0.6,0,1.1-0.1,1.6-0.4c0.5-0.3,0.8-0.6,0.9-1v-1.8h-1.9c-0.7,0-1.3,0.2-1.6,0.5
			c-0.4,0.4-0.6,0.8-0.6,1.3c0,0.4,0.1,0.8,0.4,1C237.1,280.9,237.5,281.1,237.9,281.1z"/>
		<path class="st1" d="M253.3,279.9c0-0.4-0.2-0.7-0.5-1c-0.4-0.3-1-0.5-2-0.7c-1.5-0.3-2.6-0.8-3.4-1.3c-0.8-0.6-1.1-1.4-1.1-2.4
			c0-1.1,0.5-2,1.4-2.8c0.9-0.8,2.1-1.1,3.7-1.1c1.6,0,2.9,0.4,3.8,1.1s1.4,1.7,1.4,2.8l0,0.1h-3.3c0-0.5-0.2-0.9-0.5-1.2
			c-0.3-0.3-0.8-0.5-1.4-0.5c-0.6,0-1,0.1-1.3,0.4c-0.3,0.3-0.5,0.6-0.5,1c0,0.4,0.2,0.7,0.5,1c0.3,0.2,1,0.5,2,0.7
			c1.5,0.3,2.7,0.8,3.5,1.4c0.8,0.6,1.1,1.4,1.1,2.5c0,1.1-0.5,2.1-1.5,2.8c-1,0.7-2.2,1.1-3.8,1.1c-1.7,0-3-0.4-4-1.3
			c-1-0.8-1.4-1.8-1.4-2.9l0-0.1h3.1c0,0.7,0.2,1.2,0.7,1.5c0.4,0.3,1,0.5,1.6,0.5c0.6,0,1.1-0.1,1.4-0.4
			C253.1,280.6,253.3,280.3,253.3,279.9z"/>
	</g>
	<g>
		<path class="st2" d="M106.6,340.9v-11.8l10.2,5.9L106.6,340.9z"/>
	</g>
	<g>
		<path class="st1" d="M126.3,334.1h-1.9v6.4h-1.1v-13.5h1.1v6.2h1.8l5.3-6.2h1.3l0,0l-5.6,6.6l6,6.8l0,0H132L126.3,334.1z"/>
		<path class="st1" d="M138.8,340.6c-1.3,0-2.3-0.5-3.1-1.4c-0.8-0.9-1.3-2.1-1.3-3.5v-0.5c0-1.4,0.4-2.6,1.2-3.6
			c0.8-0.9,1.8-1.4,3-1.4c1.2,0,2.2,0.4,2.9,1.2c0.7,0.8,1.1,1.8,1.1,3.1v0.9h-7.1v0.3c0,1.1,0.3,2.1,0.9,2.8s1.4,1.1,2.4,1.1
			c0.7,0,1.3-0.1,1.8-0.3s0.9-0.5,1.3-0.8l0.5,0.8c-0.4,0.4-0.9,0.7-1.4,0.9C140.2,340.5,139.6,340.6,138.8,340.6z M138.6,331.1
			c-0.8,0-1.5,0.3-2.1,0.9c-0.6,0.6-0.9,1.4-1,2.4l0,0h5.9v-0.3c0-0.9-0.3-1.6-0.8-2.2C140.2,331.4,139.5,331.1,138.6,331.1z"/>
		<path class="st1" d="M147.4,337.7l0.4,1.2h0.1l3-8.5h1.2l-4.4,11.7c-0.3,0.7-0.6,1.3-1,1.7c-0.4,0.5-1,0.7-1.8,0.7
			c-0.1,0-0.3,0-0.5,0c-0.2,0-0.3-0.1-0.4-0.1l0.1-0.9c0.1,0,0.2,0,0.4,0c0.2,0,0.3,0,0.4,0c0.5,0,0.9-0.2,1.2-0.5
			c0.3-0.3,0.5-0.8,0.7-1.3l0.5-1.4l-3.9-9.9h1.2L147.4,337.7z"/>
		<path class="st1" d="M164.4,340.4c-0.1-0.3-0.1-0.6-0.2-0.9c0-0.2,0-0.5,0-0.8c-0.4,0.5-0.9,1-1.5,1.3c-0.6,0.3-1.3,0.5-2.1,0.5
			c-1,0-1.7-0.3-2.3-0.8c-0.5-0.5-0.8-1.2-0.8-2.1c0-0.9,0.4-1.7,1.2-2.2c0.8-0.6,1.9-0.8,3.2-0.8h2.2v-1.2c0-0.7-0.2-1.3-0.7-1.7
			c-0.5-0.4-1.1-0.6-1.9-0.6c-0.8,0-1.4,0.2-1.9,0.6s-0.8,0.9-0.8,1.4l-1,0l0-0.1c0-0.8,0.3-1.4,1-2c0.7-0.6,1.6-0.9,2.8-0.9
			c1.1,0,2,0.3,2.7,0.8c0.7,0.6,1,1.4,1,2.4v4.9c0,0.4,0,0.7,0.1,1c0,0.3,0.1,0.7,0.2,1H164.4z M160.7,339.6c0.8,0,1.5-0.2,2.1-0.6
			s1.1-0.9,1.3-1.4v-2.1h-2.2c-1,0-1.8,0.2-2.4,0.6c-0.6,0.4-0.9,1-0.9,1.6c0,0.5,0.2,1,0.6,1.3S160,339.6,160.7,339.6z"/>
		<path class="st1" d="M171.7,339.7c0.7,0,1.4-0.2,2-0.6c0.6-0.4,0.8-1,0.8-1.8h1l0,0.1c0,0.9-0.3,1.7-1.1,2.3
			c-0.8,0.6-1.7,0.9-2.7,0.9c-1.4,0-2.4-0.5-3.2-1.4c-0.7-0.9-1.1-2.1-1.1-3.6v-0.4c0-1.5,0.4-2.7,1.1-3.6s1.8-1.4,3.2-1.4
			c1.1,0,2,0.3,2.8,1c0.7,0.7,1.1,1.5,1.1,2.6l0,0.1h-1c0-0.8-0.3-1.4-0.8-1.9c-0.5-0.5-1.2-0.7-2-0.7c-1.1,0-1.9,0.4-2.4,1.2
			c-0.5,0.8-0.8,1.7-0.8,2.9v0.4c0,1.2,0.3,2.2,0.8,2.9C169.8,339.3,170.6,339.7,171.7,339.7z"/>
		<path class="st1" d="M181.3,339.7c0.7,0,1.4-0.2,2-0.6c0.6-0.4,0.8-1,0.8-1.8h1l0,0.1c0,0.9-0.3,1.7-1.1,2.3s-1.7,0.9-2.7,0.9
			c-1.4,0-2.4-0.5-3.2-1.4c-0.7-0.9-1.1-2.1-1.1-3.6v-0.4c0-1.5,0.4-2.7,1.1-3.6c0.8-0.9,1.8-1.4,3.2-1.4c1.1,0,2,0.3,2.8,1
			c0.7,0.7,1.1,1.5,1.1,2.6l0,0.1h-1c0-0.8-0.3-1.4-0.8-1.9c-0.5-0.5-1.2-0.7-2-0.7c-1.1,0-1.9,0.4-2.4,1.2
			c-0.5,0.8-0.8,1.7-0.8,2.9v0.4c0,1.2,0.3,2.2,0.8,2.9C179.4,339.3,180.2,339.7,181.3,339.7z"/>
		<path class="st1" d="M186.6,335.3c0-1.5,0.4-2.7,1.2-3.6c0.8-0.9,1.9-1.4,3.2-1.4c1.3,0,2.4,0.5,3.2,1.4c0.8,0.9,1.2,2.2,1.2,3.6
			v0.3c0,1.5-0.4,2.7-1.2,3.6s-1.9,1.4-3.2,1.4c-1.4,0-2.4-0.5-3.2-1.4s-1.2-2.2-1.2-3.6V335.3z M187.7,335.6c0,1.2,0.3,2.1,0.9,2.9
			c0.6,0.8,1.4,1.2,2.5,1.2c1,0,1.8-0.4,2.4-1.2c0.6-0.8,0.9-1.8,0.9-2.9v-0.3c0-1.1-0.3-2.1-0.9-2.9c-0.6-0.8-1.4-1.2-2.5-1.2
			s-1.9,0.4-2.4,1.2c-0.6,0.8-0.9,1.8-0.9,2.9V335.6z"/>
		<path class="st1" d="M204.1,338.8c-0.3,0.6-0.8,1-1.3,1.4c-0.5,0.3-1.2,0.5-1.9,0.5c-1.1,0-1.9-0.4-2.5-1.1s-0.9-1.8-0.9-3.3v-5.8
			h1.1v5.9c0,1.2,0.2,2.1,0.6,2.6c0.4,0.5,1,0.8,1.8,0.8c0.8,0,1.5-0.2,2-0.6c0.5-0.4,0.9-0.9,1.1-1.6v-7.2h1.1v10.1h-1L204.1,338.8
			z"/>
		<path class="st1" d="M208.9,330.4l0.1,1.8c0.3-0.6,0.8-1.1,1.3-1.4c0.5-0.3,1.2-0.5,1.9-0.5c1.1,0,1.9,0.3,2.5,1
			c0.6,0.7,0.9,1.7,0.9,3.1v6.1h-1.1v-6.1c0-1.2-0.2-2-0.6-2.4c-0.4-0.5-1-0.7-1.8-0.7c-0.8,0-1.4,0.2-1.9,0.6
			c-0.5,0.4-0.8,1-1.1,1.6v7h-1.1v-10.1H208.9z"/>
		<path class="st1" d="M220,327.8v2.6h2.2v0.9H220v6.6c0,0.7,0.1,1.1,0.4,1.4c0.2,0.3,0.6,0.4,1,0.4c0.2,0,0.4,0,0.5,0
			s0.4,0,0.6-0.1l0.2,0.8c-0.2,0.1-0.4,0.1-0.7,0.2c-0.3,0-0.5,0.1-0.8,0.1c-0.7,0-1.3-0.2-1.6-0.7c-0.4-0.4-0.6-1.2-0.6-2.1v-6.6
			h-1.7v-0.9h1.7v-2.6H220z"/>
		<path class="st1" d="M229.6,330.4l0.1,1.7c0.3-0.6,0.8-1,1.3-1.4c0.5-0.3,1.2-0.5,1.9-0.5c0.8,0,1.4,0.2,1.9,0.6
			c0.5,0.4,0.9,0.9,1.1,1.7c0.3-0.7,0.7-1.3,1.3-1.7c0.6-0.4,1.2-0.6,2-0.6c1.1,0,1.9,0.4,2.5,1.1s0.9,1.8,0.9,3.3v5.9h-1.1v-5.9
			c0-1.2-0.2-2.1-0.7-2.6s-1-0.8-1.8-0.8c-0.9,0-1.5,0.3-2,0.8c-0.5,0.5-0.8,1.2-0.9,2.1c0,0,0,0.1,0,0.2s0,0.1,0,0.2v6h-1.1v-5.9
			c0-1.2-0.2-2.1-0.7-2.6c-0.4-0.5-1.1-0.8-1.8-0.8c-0.8,0-1.4,0.2-1.9,0.6c-0.5,0.4-0.8,0.9-1,1.6v7.1h-1.1v-10.1H229.6z"/>
		<path class="st1" d="M251.7,340.4c-0.1-0.3-0.1-0.6-0.2-0.9c0-0.2,0-0.5,0-0.8c-0.4,0.5-0.9,1-1.5,1.3c-0.6,0.3-1.3,0.5-2.1,0.5
			c-1,0-1.7-0.3-2.3-0.8c-0.5-0.5-0.8-1.2-0.8-2.1c0-0.9,0.4-1.7,1.2-2.2c0.8-0.6,1.9-0.8,3.2-0.8h2.2v-1.2c0-0.7-0.2-1.3-0.7-1.7
			c-0.5-0.4-1.1-0.6-1.9-0.6c-0.8,0-1.4,0.2-1.9,0.6c-0.5,0.4-0.8,0.9-0.8,1.4l-1,0l0-0.1c0-0.8,0.3-1.4,1-2
			c0.7-0.6,1.6-0.9,2.8-0.9c1.1,0,2,0.3,2.7,0.8c0.7,0.6,1,1.4,1,2.4v4.9c0,0.4,0,0.7,0.1,1c0,0.3,0.1,0.7,0.2,1H251.7z M248,339.6
			c0.8,0,1.5-0.2,2.1-0.6s1.1-0.9,1.3-1.4v-2.1h-2.2c-1,0-1.8,0.2-2.4,0.6c-0.6,0.4-0.9,1-0.9,1.6c0,0.5,0.2,1,0.6,1.3
			C246.9,339.5,247.4,339.6,248,339.6z"/>
		<path class="st1" d="M256.3,330.4l0.1,1.8c0.3-0.6,0.8-1.1,1.3-1.4c0.5-0.3,1.2-0.5,1.9-0.5c1.1,0,1.9,0.3,2.5,1
			c0.6,0.7,0.9,1.7,0.9,3.1v6.1h-1.1v-6.1c0-1.2-0.2-2-0.6-2.4c-0.4-0.5-1-0.7-1.8-0.7c-0.8,0-1.4,0.2-1.9,0.6
			c-0.5,0.4-0.8,1-1.1,1.6v7h-1.1v-10.1H256.3z"/>
		<path class="st1" d="M272,340.4c-0.1-0.3-0.1-0.6-0.2-0.9c0-0.2,0-0.5,0-0.8c-0.4,0.5-0.9,1-1.5,1.3c-0.6,0.3-1.3,0.5-2.1,0.5
			c-1,0-1.7-0.3-2.3-0.8s-0.8-1.2-0.8-2.1c0-0.9,0.4-1.7,1.2-2.2c0.8-0.6,1.9-0.8,3.2-0.8h2.2v-1.2c0-0.7-0.2-1.3-0.7-1.7
			c-0.5-0.4-1.1-0.6-1.9-0.6c-0.8,0-1.4,0.2-1.9,0.6c-0.5,0.4-0.8,0.9-0.8,1.4l-1,0l0-0.1c0-0.8,0.3-1.4,1-2
			c0.7-0.6,1.6-0.9,2.8-0.9c1.1,0,2,0.3,2.7,0.8s1,1.4,1,2.4v4.9c0,0.4,0,0.7,0.1,1c0,0.3,0.1,0.7,0.2,1H272z M268.4,339.6
			c0.8,0,1.5-0.2,2.1-0.6c0.6-0.4,1.1-0.9,1.3-1.4v-2.1h-2.2c-1,0-1.8,0.2-2.4,0.6c-0.6,0.4-0.9,1-0.9,1.6c0,0.5,0.2,1,0.6,1.3
			S267.7,339.6,268.4,339.6z"/>
		<path class="st1" d="M275.2,335.5c0-1.6,0.3-2.9,1-3.9c0.7-1,1.6-1.4,2.9-1.4c0.7,0,1.3,0.2,1.8,0.5s1,0.8,1.3,1.3l0.1-1.6h0.9
			v9.9c0,1.3-0.4,2.3-1.1,3.1c-0.7,0.8-1.7,1.1-3,1.1c-0.5,0-1-0.1-1.5-0.2c-0.5-0.1-1-0.3-1.4-0.5l0.3-0.9c0.4,0.2,0.8,0.3,1.3,0.5
			c0.4,0.1,0.9,0.2,1.4,0.2c1,0,1.7-0.3,2.2-0.8c0.5-0.6,0.7-1.3,0.7-2.4V339c-0.3,0.5-0.8,0.9-1.3,1.2c-0.5,0.3-1.1,0.4-1.8,0.4
			c-1.2,0-2.2-0.4-2.8-1.3c-0.7-0.9-1-2.1-1-3.6V335.5z M276.3,335.7c0,1.2,0.2,2.2,0.7,2.9s1.2,1.1,2.2,1.1c0.7,0,1.3-0.2,1.8-0.5
			c0.5-0.3,0.9-0.8,1.1-1.4v-4.7c-0.2-0.6-0.6-1.1-1.1-1.4c-0.5-0.4-1.1-0.6-1.8-0.6c-1,0-1.7,0.4-2.2,1.2c-0.5,0.8-0.8,1.9-0.8,3.1
			V335.7z"/>
		<path class="st1" d="M289.8,340.6c-1.3,0-2.3-0.5-3.1-1.4s-1.3-2.1-1.3-3.5v-0.5c0-1.4,0.4-2.6,1.2-3.6c0.8-0.9,1.8-1.4,3-1.4
			c1.2,0,2.2,0.4,2.9,1.2c0.7,0.8,1.1,1.8,1.1,3.1v0.9h-7.1v0.3c0,1.1,0.3,2.1,0.9,2.8s1.4,1.1,2.4,1.1c0.7,0,1.3-0.1,1.8-0.3
			s0.9-0.5,1.3-0.8l0.5,0.8c-0.4,0.4-0.9,0.7-1.4,0.9C291.3,340.5,290.6,340.6,289.8,340.6z M289.7,331.1c-0.8,0-1.5,0.3-2.1,0.9
			c-0.6,0.6-0.9,1.4-1,2.4l0,0h5.9v-0.3c0-0.9-0.3-1.6-0.8-2.2C291.2,331.4,290.5,331.1,289.7,331.1z"/>
		<path class="st1" d="M300.2,331.3l-0.8-0.1c-0.7,0-1.3,0.2-1.7,0.6s-0.8,0.9-1,1.6v6.9h-1.1v-10.1h1l0.1,1.7v0.1
			c0.3-0.6,0.7-1.1,1.2-1.5s1.1-0.5,1.7-0.5c0.1,0,0.3,0,0.4,0c0.1,0,0.2,0,0.3,0.1L300.2,331.3z"/>
	</g>
	<g>
		<path class="st2" d="M106.6,369.4v-11.8l10.2,5.9L106.6,369.4z"/>
	</g>
	<g>
		<path class="st1" d="M130.6,365.2h-6.2l-1.4,3.8h-1.2l5.1-13.5h1.1l5.1,13.5H132L130.6,365.2z M124.8,364.2h5.5l-2.7-7.3h-0.1
			L124.8,364.2z"/>
		<path class="st1" d="M141,366.4c0-0.5-0.2-0.9-0.6-1.2s-1.1-0.6-2.1-0.9c-1.2-0.3-2.1-0.6-2.7-1c-0.6-0.4-0.9-1-0.9-1.8
			c0-0.8,0.3-1.4,1-1.9c0.6-0.5,1.5-0.8,2.6-0.8c1.1,0,2,0.3,2.7,0.8s1,1.3,0.9,2.1l0,0.1h-1c0-0.6-0.2-1-0.7-1.4s-1.1-0.6-1.9-0.6
			c-0.8,0-1.4,0.2-1.8,0.5c-0.4,0.3-0.6,0.8-0.6,1.2c0,0.5,0.2,0.8,0.5,1.1c0.4,0.3,1,0.6,2.1,0.8c1.2,0.3,2.1,0.6,2.7,1.1
			c0.6,0.5,0.9,1.1,0.9,1.9c0,0.8-0.3,1.5-1,2c-0.7,0.5-1.6,0.8-2.7,0.8c-1.2,0-2.2-0.3-2.9-0.9c-0.7-0.6-1-1.3-1-2.1l0-0.1h1
			c0,0.7,0.3,1.2,0.9,1.6c0.5,0.3,1.2,0.5,1.9,0.5c0.8,0,1.4-0.2,1.9-0.5C140.8,367.4,141,366.9,141,366.4z"/>
		<path class="st1" d="M145.9,356h-1.1v-1.6h1.1V356z M145.9,369h-1.1v-10.1h1.1V369z"/>
		<path class="st1" d="M155,366.4c0-0.5-0.2-0.9-0.6-1.2s-1.1-0.6-2.1-0.9c-1.2-0.3-2.1-0.6-2.7-1c-0.6-0.4-0.9-1-0.9-1.8
			c0-0.8,0.3-1.4,1-1.9s1.5-0.8,2.6-0.8c1.1,0,2,0.3,2.7,0.8c0.7,0.6,1,1.3,0.9,2.1l0,0.1h-1c0-0.6-0.2-1-0.7-1.4s-1.1-0.6-1.9-0.6
			c-0.8,0-1.4,0.2-1.8,0.5c-0.4,0.3-0.6,0.8-0.6,1.2c0,0.5,0.2,0.8,0.5,1.1s1,0.6,2.1,0.8c1.2,0.3,2.1,0.6,2.7,1.1
			c0.6,0.5,0.9,1.1,0.9,1.9c0,0.8-0.3,1.5-1,2c-0.7,0.5-1.6,0.8-2.7,0.8c-1.2,0-2.2-0.3-2.9-0.9s-1-1.3-1-2.1l0-0.1h1
			c0,0.7,0.3,1.2,0.9,1.6c0.5,0.3,1.2,0.5,1.9,0.5c0.8,0,1.4-0.2,1.9-0.5S155,366.9,155,366.4z"/>
		<path class="st1" d="M160.4,356.4v2.6h2.2v0.9h-2.2v6.6c0,0.7,0.1,1.1,0.4,1.4c0.2,0.3,0.6,0.4,1,0.4c0.2,0,0.4,0,0.5,0
			c0.2,0,0.4,0,0.6-0.1l0.2,0.8c-0.2,0.1-0.4,0.1-0.7,0.2c-0.3,0-0.5,0.1-0.8,0.1c-0.7,0-1.3-0.2-1.6-0.7c-0.4-0.4-0.6-1.2-0.6-2.1
			v-6.6h-1.7v-0.9h1.7v-2.6H160.4z"/>
		<path class="st1" d="M168.8,369.2c-1.3,0-2.3-0.5-3.1-1.4c-0.8-0.9-1.3-2.1-1.3-3.5v-0.5c0-1.4,0.4-2.6,1.2-3.6
			c0.8-0.9,1.8-1.4,3-1.4c1.2,0,2.2,0.4,2.9,1.2s1.1,1.8,1.1,3.1v0.9h-7.1v0.3c0,1.1,0.3,2.1,0.9,2.8c0.6,0.8,1.4,1.1,2.4,1.1
			c0.7,0,1.3-0.1,1.8-0.3s0.9-0.5,1.3-0.8l0.5,0.8c-0.4,0.4-0.9,0.7-1.4,0.9C170.3,369.1,169.6,369.2,168.8,369.2z M168.6,359.7
			c-0.8,0-1.5,0.3-2.1,0.9c-0.6,0.6-0.9,1.4-1,2.4l0,0h5.9v-0.3c0-0.9-0.3-1.6-0.8-2.2C170.2,360,169.5,359.7,168.6,359.7z"/>
		<path class="st1" d="M175.8,358.9l0.1,1.8c0.3-0.6,0.8-1.1,1.3-1.4c0.5-0.3,1.2-0.5,1.9-0.5c1.1,0,1.9,0.3,2.5,1s0.9,1.7,0.9,3.1
			v6.1h-1.1v-6.1c0-1.2-0.2-2-0.6-2.4c-0.4-0.5-1-0.7-1.8-0.7c-0.8,0-1.4,0.2-1.9,0.6c-0.5,0.4-0.8,1-1.1,1.6v7h-1.1v-10.1H175.8z"
			/>
		<path class="st1" d="M189.1,368.2c0.7,0,1.4-0.2,2-0.6c0.6-0.4,0.8-1,0.8-1.8h1l0,0.1c0,0.9-0.3,1.7-1.1,2.3
			c-0.8,0.6-1.7,0.9-2.7,0.9c-1.4,0-2.4-0.5-3.2-1.4c-0.7-0.9-1.1-2.1-1.1-3.6v-0.4c0-1.5,0.4-2.7,1.1-3.6c0.8-0.9,1.8-1.4,3.2-1.4
			c1.1,0,2,0.3,2.8,1c0.7,0.7,1.1,1.5,1.1,2.6l0,0.1h-1c0-0.8-0.3-1.4-0.8-1.9c-0.5-0.5-1.2-0.7-2-0.7c-1.1,0-1.9,0.4-2.4,1.2
			c-0.5,0.8-0.8,1.7-0.8,2.9v0.4c0,1.2,0.3,2.2,0.8,2.9C187.2,367.9,188,368.2,189.1,368.2z"/>
		<path class="st1" d="M196.5,356h-1.1v-1.6h1.1V356z M196.5,369h-1.1v-10.1h1.1V369z"/>
		<path class="st1" d="M200.9,358.9v10.9c0,1-0.2,1.8-0.7,2.4c-0.5,0.6-1.2,0.8-2.1,0.8c-0.2,0-0.4,0-0.5,0c-0.2,0-0.3-0.1-0.5-0.1
			l0.1-0.9c0.1,0,0.2,0.1,0.4,0.1c0.2,0,0.3,0,0.5,0c0.6,0,1-0.2,1.3-0.6s0.5-0.9,0.5-1.7v-10.9H200.9z M200.8,356h-1.1v-1.5h1.1
			V356z"/>
		<path class="st1" d="M210.4,369c-0.1-0.3-0.1-0.6-0.2-0.9c0-0.2,0-0.5,0-0.8c-0.4,0.5-0.9,1-1.5,1.3c-0.6,0.3-1.3,0.5-2.1,0.5
			c-1,0-1.7-0.3-2.3-0.8c-0.5-0.5-0.8-1.2-0.8-2.1c0-0.9,0.4-1.7,1.2-2.2c0.8-0.6,1.9-0.8,3.2-0.8h2.2V362c0-0.7-0.2-1.3-0.7-1.7
			c-0.5-0.4-1.1-0.6-1.9-0.6c-0.8,0-1.4,0.2-1.9,0.6s-0.8,0.9-0.8,1.4l-1,0l0-0.1c0-0.8,0.3-1.4,1-2c0.7-0.6,1.6-0.9,2.8-0.9
			c1.1,0,2,0.3,2.7,0.8c0.7,0.6,1,1.4,1,2.4v4.9c0,0.4,0,0.7,0.1,1c0,0.3,0.1,0.7,0.2,1H210.4z M206.8,368.2c0.8,0,1.5-0.2,2.1-0.6
			c0.6-0.4,1.1-0.9,1.3-1.4v-2.1H208c-1,0-1.8,0.2-2.4,0.6c-0.6,0.4-0.9,1-0.9,1.6c0,0.5,0.2,1,0.6,1.3S206.1,368.2,206.8,368.2z"/>
		<path class="st1" d="M227.2,369h-8.4v-0.9l4.4-5c0.8-0.9,1.4-1.7,1.7-2.3c0.3-0.6,0.5-1.2,0.5-1.8c0-0.8-0.2-1.5-0.7-2
			c-0.5-0.5-1.1-0.8-2-0.8c-1,0-1.8,0.3-2.3,0.9c-0.5,0.6-0.8,1.3-0.8,2.3h-1l0-0.1c0-1.1,0.3-2.1,1.1-2.9s1.8-1.2,3.1-1.2
			c1.2,0,2.1,0.3,2.8,1c0.7,0.7,1.1,1.6,1.1,2.7c0,0.7-0.2,1.5-0.7,2.3s-1.1,1.6-2,2.6l-3.7,4.2l0,0h7V369z"/>
		<path class="st1" d="M236.1,364.6h2.1v0.9h-2.1v3.4H235v-3.4h-6.3v-0.6l6.2-9.5h1.2V364.6z M230,364.6h5v-7.7l-0.1,0l-0.5,1
			L230,364.6z"/>
		<path class="st1" d="M239.9,370.2h-1l5.7-14.7h1L239.9,370.2z"/>
		<path class="st1" d="M255.7,356.4c-1.5,1.7-2.6,3.5-3.4,5.3s-1.3,3.8-1.6,6.2l-0.1,1.1h-1.1l0.1-1.1c0.3-2.3,0.8-4.4,1.6-6.2
			s1.9-3.6,3.3-5.2h-7.7v-0.9h8.9V356.4z"/>
	</g>
	<path class="st3" d="M73.3,343.1c-0.6,0.2-1.1,0.4-1.6,0.6c-1.1,0.3-2.3,0.6-3.4,0.6c-0.9,0-1.9,0.1-2.8,0.1
		c-1.6,0-3.2-0.2-4.7-0.6c-1.4-0.3-2.7-0.8-3.9-1.5c-1.4-0.8-2.6-1.8-3.3-3.2c-0.2-0.4-0.3-0.8-0.5-1.1c0-0.1-0.1-0.2-0.1-0.3
		c-0.1,0.4-0.2,0.7-0.4,1c-0.7,2-1.8,3.6-3.5,4.8c-1,0.7-2.1,1.1-3.3,1.3c-0.9,0.1-1.8,0.1-2.8,0.1c-0.2,0-0.3,0-0.3,0.2
		c-0.4,1.3-0.7,2.7-0.8,4.1c-0.1,1.2-0.1,2.4,0.1,3.6c0.2,1.5,0.6,2.9,1.2,4.2c0.7,1.6,1.6,3.1,2.8,4.4c0.9,1,1.9,2,3.1,2.8
		c0.6,0.4,1.3,0.8,2,1.2c0.1,0,0.2,0.2,0.2,0.2c0,1.5,0,3.1,0,4.6c0,0,0,0.1,0,0.1h-0.3c-3.9,0-7.7,0-11.6,0c-0.5,0-0.8-0.3-0.8-0.8
		c0-3.6,0-7.1,0-10.7v-1.3c-0.4-0.1-0.7-0.1-1-0.2c-1.7-0.5-3-1.6-3.9-3.1c-0.8-1.4-1.1-2.9-1-4.5c0.1-1.3,0.6-2.5,1.3-3.6
		c0.6-0.8,1.3-1.4,2.1-1.9c0.1-0.1,0.2-0.2,0.2-0.3c0.2-0.8,0.3-1.7,0.6-2.5c0.3-1.1,0.7-2.1,1.2-3.2c0.5-1.2,1.1-2.4,1.9-3.5
		c0.7-1,1.4-2,2.2-3c1-1.2,2.2-2.3,3.5-3.3c1.4-1.1,2.9-1.9,4.6-2.6c1.1-0.4,2.1-0.7,3.2-1c2.3-0.5,4.6-0.7,6.9-0.5
		c1.4,0.1,2.9,0.3,4.2,0.7c1.6,0.4,3.1,1,4.5,1.8c1.6,0.9,3,1.9,4.3,3.2c1,1,2,2,2.8,3.2c0.8,1.1,1.6,2.3,2.2,3.6
		c0.5,1.1,1,2.2,1.5,3.3c0.5,1.3,0.9,2.6,1,3.9c0,0.2,0.1,0.3,0.3,0.4c0.8,0.5,1.4,1.1,2,1.9c1,1.5,1.4,3.1,1.2,4.9
		c-0.2,2.1-1.1,3.9-2.8,5.1c-0.8,0.6-1.8,1-2.8,1.2c-0.1,0-0.1,0-0.3,0.1v0.3c0,3.9,0,7.8,0,11.7c0,0.6-0.2,0.9-0.9,0.9
		c-3.9,0-7.8,0-11.7,0h-0.2V370c0-1.4,0-2.8,0-4.2c0-0.2,0-0.3,0.2-0.4c2.3-1.1,4.2-2.7,5.8-4.7c0,0,0.1-0.1,0.1-0.1
		c-0.2,0.1-0.5,0.3-0.7,0.4c-0.9,0.5-1.9,0.9-3,1.3c-1.5,0.5-3,0.7-4.5,0.9c-0.7,0.1-1.3,0.1-2,0.1c-0.1,0-0.2,0-0.3,0.2
		c-0.6,1-1.5,1.6-2.6,1.7c-1.4,0.1-2.8-0.9-3.1-2.3c-0.3-1.2-0.1-2.2,0.8-3.1c0.8-0.8,1.8-1.1,3-0.8c1,0.3,1.7,0.9,2.1,1.9
		c0.1,0.1,0.1,0.2,0.3,0.2c1.5,0,3-0.2,4.5-0.6c2-0.5,3.8-1.4,5.5-2.5c0.8-0.6,1.6-1.2,2.4-1.8c0.2-0.2,0.3-0.5,0.4-0.8
		c0.3-1.1,0.5-2.3,0.6-3.5c0.1-1.2,0-2.3-0.1-3.5c-0.2-1.6-0.7-3.2-1.4-4.6C73.4,343.3,73.3,343.2,73.3,343.1
		C73.3,343.1,73.3,343.1,73.3,343.1 M39.1,343.3c0.2,0,0.3,0,0.5,0c0.1,0,0.2,0,0.3-0.2c0.2-0.5,0.4-0.9,0.6-1.4
		c0.8-1.6,1.8-3.2,3-4.5c1.4-1.6,2.9-2.9,4.7-3.9c1.9-1.2,3.9-2,6.1-2.4c1.1-0.2,2.2-0.4,3.2-0.4c1.9-0.1,3.9,0.1,5.8,0.6
		c1.3,0.3,2.6,0.8,3.9,1.4c1.5,0.7,2.9,1.7,4.2,2.8c1.3,1.1,2.4,2.4,3.4,3.8c0.9,1.3,1.6,2.7,2.2,4.1c0,0.1,0.1,0.1,0.1,0.1
		c0.2,0,0.4,0,0.6,0c-0.1-0.4-0.2-0.8-0.3-1.2c-0.5-1.8-1.3-3.6-2.3-5.2c-1.1-1.9-2.5-3.5-4.2-4.9c-1.3-1.1-2.8-2-4.4-2.7
		c-1.8-0.8-3.6-1.2-5.5-1.4c-2.4-0.3-4.9-0.1-7.3,0.4c-1.3,0.3-2.6,0.7-3.8,1.3c-1.1,0.5-2.2,1.1-3.2,1.9c-1,0.8-2,1.7-2.9,2.7
		c-1.2,1.4-2.2,3-3,4.6C40,340.1,39.4,341.7,39.1,343.3"/>
	<polygon class="st2" points="46.8,197.2 49.3,194.8 58.6,204.2 78.3,184.5 80.7,186.9 58.6,209 	"/>
	<path class="st2" d="M48.5,180.9c0,0.2,0,0.4,0.2,0.5c0.2,0.2,0.3,0.2,0.5,0.2h18.2c0.2,0,0.6,0,0.7-0.2c0.2-0.2,0.4-0.3,0.4-0.5
		v-1.7c0-0.2-0.2-0.3-0.4-0.4c-0.2-0.2-0.5-0.1-0.7-0.1H49.1c-0.2,0-0.4-0.1-0.5,0.1c-0.2,0.2-0.2,0.2-0.2,0.4V180.9z"/>
	<path class="st2" d="M48.3,203.5h-7.5v-35.2h11.6c0.7,0,1.4-0.1,1.9-0.6c0.5-0.5,0.8-1,0.8-1.7v-11h20v28.5l2.9-3.3v-25.7
		c0-0.7-0.2-1.2-0.7-1.7c-0.5-0.5-1-0.6-1.7-0.6H52.4c-0.7,0-1.4,0.1-2.3,0.4c-0.8,0.3-1.5,0.7-2,1.2l-8.1,8c-0.5,0.5-1.1,1.1-1.4,2
		c-0.3,0.8-0.7,1.6-0.7,2.3v38.1c0,0.7,0.4,1.2,0.9,1.6c0.5,0.5,1.3,0.6,1.9,0.6h10.8L48.3,203.5z M42.5,163.7l7.9-7.9
		c0.2-0.2,0.9-0.2,0.9-0.4v9h-9.4C42.1,164.4,42.3,163.9,42.5,163.7"/>
	<path class="st2" d="M75.1,197.5v6H69l-3.3,2.9h9.9c0.7,0,1.2-0.1,1.7-0.6c0.5-0.5,0.7-0.9,0.7-1.6v-9.9L75.1,197.5z"/>
	<path class="st2" d="M48.5,187.5c0,0.2,0,0.4,0.2,0.6c0.2,0.2,0.3,0.2,0.5,0.2h18.2c0.2,0,0.6,0,0.7-0.2c0.2-0.2,0.4-0.3,0.4-0.6
		v-1.7c0-0.2-0.2-0.7-0.4-0.9c-0.2-0.2-0.5-0.5-0.7-0.5H49.1c-0.2,0-0.4,0.4-0.5,0.5c-0.2,0.2-0.2,0.6-0.2,0.9V187.5z"/>
	<path class="st2" d="M49.1,174.9h18.2c0.2,0,0.6,0,0.7-0.2c0.2-0.2,0.4-0.3,0.4-0.5v-1.7c0-0.2-0.2-0.3-0.4-0.4
		c-0.2-0.2-0.5-0.1-0.7-0.1H49.1c-0.2,0-0.4-0.1-0.5,0.1c-0.2,0.2-0.2,0.2-0.2,0.4v1.7c0,0.2,0,0.4,0.2,0.5
		C48.8,174.9,48.9,174.9,49.1,174.9"/>
	<g>
		<path class="st1" d="M322.6,454.3c-3.6,1.9-6.4,1.5-7.7-1.1c-1.6-3.2-0.1-5.5,5-8.2l6.4-3.3l-0.2-0.3c-0.9-1.7-2.5-1.5-5.5,0
			l-8.1,4.2l-1.5-2.9l9.9-5.1c3.1-1.6,5.6-2,7.5-1.3l-3.1-5.9l-9.4,5c-4.3,2.3-7,4.6-8.4,7.8c-1.4,3.3-1.2,7.1,0.6,10.6
			c1.8,3.3,4.8,5.5,8.3,6.2c3.5,0.7,6.9-0.3,11.2-2.6l9.4-5l-2.4-4.4L322.6,454.3z"/>
		<path class="st1" d="M322.1,447.4c-2.1,1.1-2.8,1.9-2.2,3.1c0.6,1.2,1.5,0.9,3.3-0.1l6.1-3.1l-1.5-2.9L322.1,447.4z"/>
		<path class="st1" d="M348.6,441.5H342v2.1h5.3c2,0,2.9,0.3,2.9,1.6v0.3H346c-3.4,0-4.8,0.9-4.8,3.3c0,1.9,1.3,3,3.8,3h8.6v-6.4
			C353.6,442.8,351.9,441.5,348.6,441.5 M350.3,449.7h-4c-1.2,0-1.8-0.1-1.8-1c0-0.9,0.6-1.2,2-1.2h3.8V449.7z"/>
		<polygon class="st1" points="364.4,441.5 360.8,448.8 357.5,441.5 353.9,441.5 359,451.8 362.5,451.8 367.9,441.5 		"/>
		<path class="st1" d="M375,441.5h-6.6v2.1h5.3c2,0,2.9,0.3,2.9,1.6v0.3h-4.2c-3.4,0-4.8,0.9-4.8,3.3c0,1.9,1.3,3,3.8,3h8.6v-6.4
			C380,442.8,378.3,441.5,375,441.5 M376.7,449.7h-4c-1.2,0-1.8-0.1-1.8-1c0-0.9,0.6-1.2,2-1.2h3.8V449.7z"/>
		<path class="st1" d="M392.7,451.8v-6.5c0-2.7-1.5-3.8-5.1-3.8h-6v10.3h3.2v-8h2.6c1.8,0,2.1,0.4,2.1,1.8v6.2H392.7z"/>
		<path class="st1" d="M401.9,449.7h-1.3c-1.6,0-2.1-0.6-2.1-2v-4.1h3.4v-2h-3.4v-3.7h-3.2v3.7h-2.3v2h2.3v5c0,2.1,1.3,3.2,3.7,3.2
			h2.9V449.7z"/>
		<path class="st1" d="M426.6,442.2c-0.9-0.6-2.2-0.9-3.9-0.9h-6.9v1.1h5.5c1.3,0,2.3,0.2,2.9,0.5c0.7,0.4,1.1,1.1,1.1,2v1h-5.6
			c-1.9,0-3.2,0.3-3.9,0.8c-0.7,0.5-1,1.2-1,2.3c0,0.9,0.3,1.5,0.9,2c0.6,0.5,1.6,0.7,2.8,0.7h9.3V445
			C427.9,443.8,427.5,442.8,426.6,442.2 M425.4,450.7h-5.3c-1,0-1.6-0.1-2-0.4c-0.3-0.2-0.7-0.6-0.7-1.4c0-0.9,0.4-1.3,0.8-1.6
			c0.5-0.3,1.2-0.4,2.2-0.4h5V450.7z"/>
		<path class="st1" d="M406.3,441.6c-0.8,0.2-1.4,0.5-2,0.9c-0.5,0.5-1,1.1-1.3,1.8c-0.3,0.7-0.5,1.5-0.5,2.3c0,0.8,0.2,1.5,0.5,2.2
			c0.3,0.7,0.8,1.2,1.3,1.7c0.5,0.5,1.2,0.8,1.9,1c0.8,0.2,1.8,0.3,3,0.3h4.3v-1.2h-3.3l-1.8-0.1c0,0-1-0.3-1-0.3l0.2,0.1l-0.6-0.2
			c-0.7-0.4-1.2-0.9-1.6-1.5c-0.3-0.5-0.5-1.2-0.5-2.1c0-1.4,0.4-2.5,1.3-3.2c0.7-0.6,2-0.9,4-0.9h3.3v-1.2h-4.3
			C408,441.3,407.1,441.4,406.3,441.6"/>
		<path class="st1" d="M437.2,444.9h2.2v-1.3c0-0.9-0.2-1.5-0.6-1.8c-0.3-0.3-1-0.5-2.7-0.5h-5.6v10.4h2.4v-9.5h2
			c0.9,0,1.4,0.1,1.7,0.3c0.4,0.4,0.5,0.8,0.5,1.5C437.2,444,437.2,444.5,437.2,444.9"/>
		<path class="st1" d="M394,454c-0.1,0-0.2,0.1-0.3,0.2l-1.4,2.3l-1.4-2.3c-0.1-0.2-0.2-0.2-0.3-0.2c-0.2,0-0.3,0.2-0.3,0.5v4.6
			c0,0.2,0.1,0.3,0.3,0.3c0.2,0,0.3-0.1,0.3-0.3v-3.8l1,1.7c0.2,0.3,0.3,0.3,0.4,0.3c0.1,0,0.2-0.1,0.4-0.3l1-1.7v3.8
			c0,0.2,0.1,0.3,0.3,0.3c0.2,0,0.3-0.1,0.3-0.3v-4.6C394.3,454.1,394.2,454,394,454"/>
		<path class="st1" d="M396.8,455.5c-0.8,0-1.4,0.6-1.4,1.5v0.9c0,0.9,0.6,1.5,1.4,1.5c0.8,0,1.4-0.6,1.4-1.5V457
			C398.2,456.1,397.6,455.5,396.8,455.5 M397.6,457.7c0,0.7-0.3,1.1-0.8,1.1c-0.5,0-0.8-0.4-0.8-1.1v-0.5c0-0.7,0.3-1.1,0.8-1.1
			c0.6,0,0.8,0.4,0.8,1.1V457.7z"/>
		<path class="st1" d="M400.7,455.5h-0.9v-1.3c0-0.2-0.1-0.3-0.3-0.3c-0.2,0-0.3,0.1-0.3,0.3v4.8c0,0.3,0.1,0.3,0.3,0.3h1.1
			c0.9,0,1.3-0.4,1.3-1.3v-1.4c0-0.3-0.1-0.7-0.2-0.8C401.6,455.7,401.2,455.5,400.7,455.5 M401.4,458.1c0,0.5-0.2,0.7-0.7,0.7h-0.9
			v-2.7h0.9c0.5,0,0.7,0.2,0.7,0.7V458.1z"/>
		<path class="st1" d="M403.3,455.5c-0.2,0-0.3,0.1-0.3,0.3v3.3c0,0.2,0.1,0.3,0.3,0.3c0.2,0,0.3-0.1,0.3-0.3v-3.3
			C403.6,455.6,403.5,455.5,403.3,455.5"/>
		<path class="st1" d="M403.3,453.8c-0.2,0-0.3,0.1-0.3,0.3c0,0.2,0.1,0.3,0.3,0.3c0.2,0,0.3-0.1,0.3-0.3
			C403.6,454,403.5,453.8,403.3,453.8"/>
		<path class="st1" d="M405.8,458.9c-0.4-0.2-0.4-0.3-0.4-0.7v-3.9c0-0.2-0.1-0.3-0.3-0.3c-0.2,0-0.3,0.1-0.3,0.3v4
			c0,0.4,0.1,0.6,0.2,0.8c0.1,0.2,0.4,0.3,0.6,0.3c0.2,0,0.3-0.1,0.3-0.3C405.9,459,405.8,459,405.8,458.9"/>
		<path class="st1" d="M408.2,455.5h-1c-0.4,0-0.5,0.1-0.5,0.4v3.2c0,0.2,0.1,0.3,0.3,0.3c0.2,0,0.3-0.1,0.3-0.3v-3h0.8
			c0.6,0,0.8,0.2,0.8,0.9v2.1c0,0.2,0.1,0.3,0.3,0.3c0.2,0,0.3-0.1,0.3-0.3v-2.2C409.4,455.9,409.1,455.5,408.2,455.5"/>
		<path class="st1" d="M411.7,455.5c-0.8,0-1.4,0.6-1.4,1.5v0.9c0,0.9,0.6,1.5,1.4,1.5c0.8,0,1.4-0.6,1.4-1.5V457
			C413.1,456.1,412.6,455.5,411.7,455.5 M412.6,457.7c0,0.7-0.3,1.1-0.8,1.1c-0.5,0-0.8-0.4-0.8-1.1v-0.5c0-0.7,0.3-1.1,0.8-1.1
			c0.6,0,0.8,0.4,0.8,1.1V457.7z"/>
		<path class="st1" d="M416.2,457.7c-0.2-0.1-0.2-0.2-0.8-0.5c-0.5-0.3-0.5-0.3-0.6-0.3c-0.1-0.1-0.2-0.2-0.2-0.4
			c0-0.2,0.3-0.4,0.6-0.4c0.2,0,0.3,0,0.5,0.1c0.2,0.1,0.3,0.1,0.4,0.1c0.2,0,0.3-0.1,0.3-0.3c0-0.1,0-0.2-0.2-0.2
			c-0.3-0.1-0.7-0.2-1-0.2c-0.7,0-1.2,0.4-1.2,1c0,0.5,0.3,0.8,1.1,1.2c0.5,0.3,0.5,0.3,0.7,0.4c0.2,0.1,0.3,0.3,0.3,0.4
			c0,0.2-0.2,0.4-0.6,0.4c-0.3,0-0.6-0.1-0.9-0.3c-0.2-0.1-0.3-0.1-0.4-0.1c-0.1,0-0.3,0.1-0.3,0.3c0,0.3,0.8,0.7,1.5,0.7
			c0.7,0,1.3-0.4,1.3-0.9C416.5,458.1,416.4,457.9,416.2,457.7"/>
		<path class="st1" d="M418.9,455.5h-0.8v-1.3c0-0.2-0.1-0.3-0.3-0.3c-0.2,0-0.3,0.1-0.3,0.3v1.3h-0.2c-0.2,0-0.3,0.1-0.3,0.3
			s0.1,0.3,0.3,0.3h0.2v3c0,0.2,0.1,0.3,0.3,0.3c0.2,0,0.3-0.1,0.3-0.3v-3h0.8c0.2,0,0.3-0.1,0.3-0.3
			C419.2,455.6,419.1,455.5,418.9,455.5"/>
		<path class="st1" d="M422.9,455.5h-1c-0.4,0-0.5,0.1-0.5,0.5v4.6c0,0.2,0.1,0.3,0.3,0.3c0.2,0,0.3-0.1,0.3-0.3v-1.3h0.9
			c0.9,0,1.2-0.4,1.2-1.3v-1.4c0-0.4-0.1-0.7-0.2-0.9C423.7,455.6,423.5,455.5,422.9,455.5 M423.6,458.1c0,0.5-0.2,0.7-0.7,0.7H422
			v-2.7h1c0.5,0,0.7,0.2,0.7,0.7V458.1z"/>
		<path class="st1" d="M426.5,455.5c-0.8,0-1.4,0.6-1.4,1.5v0.9c0,0.9,0.6,1.5,1.4,1.5c0.8,0,1.4-0.6,1.4-1.5V457
			C427.8,456.1,427.3,455.5,426.5,455.5 M427.3,457.7c0,0.7-0.3,1.1-0.8,1.1c-0.5,0-0.8-0.4-0.8-1.1v-0.5c0-0.7,0.3-1.1,0.8-1.1
			c0.6,0,0.8,0.4,0.8,1.1V457.7z"/>
		<path class="st1" d="M432.4,455.5c-0.1,0-0.2,0.1-0.3,0.2l-0.8,2.5l-0.8-2.5c0-0.1-0.1-0.2-0.3-0.2c-0.1,0-0.3,0.1-0.3,0.3
			c0,0,0,0.1,0,0.1l1,3.1c0.1,0.3,0.2,0.4,0.3,0.4c0.2,0,0.3-0.1,0.4-0.4l1-3.1c0,0,0-0.1,0-0.1
			C432.7,455.6,432.5,455.5,432.4,455.5"/>
		<path class="st1" d="M434.8,455.5h-1.1c-0.2,0-0.3,0.1-0.3,0.3c0,0.2,0.1,0.3,0.3,0.3h1.2c0.4,0,0.6,0.2,0.6,0.8v0.2h-1
			c-0.3,0-0.5,0-0.7,0.1c-0.3,0.2-0.6,0.6-0.6,1c0,0.4,0.2,0.8,0.6,1c0.2,0.1,0.4,0.2,0.9,0.2h1c0.3,0,0.4-0.1,0.4-0.5v-2.1
			C436,455.9,435.6,455.5,434.8,455.5 M435.5,458.8h-0.9c-0.4,0-0.7-0.2-0.7-0.5c0-0.4,0.3-0.5,0.8-0.5h0.8V458.8z"/>
		<path class="st1" d="M439.2,457.7c-0.2-0.1-0.2-0.2-0.8-0.5c-0.5-0.3-0.5-0.3-0.6-0.3c-0.1-0.1-0.2-0.2-0.2-0.4
			c0-0.2,0.3-0.4,0.6-0.4c0.2,0,0.3,0,0.5,0.1c0.2,0.1,0.3,0.1,0.4,0.1c0.2,0,0.3-0.1,0.3-0.3c0-0.1,0-0.2-0.2-0.2
			c-0.3-0.1-0.7-0.2-1-0.2c-0.7,0-1.2,0.4-1.2,1c0,0.5,0.3,0.8,1.1,1.2c0.5,0.3,0.5,0.3,0.7,0.4c0.2,0.1,0.3,0.3,0.3,0.4
			c0,0.2-0.2,0.4-0.6,0.4c-0.3,0-0.6-0.1-0.9-0.3c-0.2-0.1-0.3-0.1-0.4-0.1c-0.1,0-0.3,0.1-0.3,0.3c0,0.3,0.8,0.7,1.5,0.7
			c0.7,0,1.3-0.4,1.3-0.9C439.6,458.1,439.4,457.9,439.2,457.7"/>
		<path class="st1" d="M438.7,453.7l-0.5,0.5l-0.5-0.5c-0.1-0.1-0.2-0.1-0.2-0.1c-0.1,0-0.3,0.1-0.3,0.2c0,0.1,0.1,0.2,0.2,0.4
			l0.4,0.3c0.2,0.2,0.3,0.2,0.4,0.2h0c0.1,0,0.2,0,0.4-0.2l0.4-0.3c0.2-0.2,0.2-0.3,0.2-0.4c0-0.1-0.1-0.2-0.3-0.2
			C438.9,453.6,438.8,453.6,438.7,453.7"/>
		<path class="st1" d="M443,457c0-0.9-0.6-1.5-1.4-1.5c-0.8,0-1.4,0.6-1.4,1.5v0.9c0,0.9,0.6,1.5,1.4,1.5c0.8,0,1.4-0.6,1.4-1.5V457
			z M442.4,457.7c0,0.7-0.3,1.1-0.8,1.1c-0.5,0-0.8-0.4-0.8-1.1v-0.5c0-0.7,0.3-1.1,0.8-1.1c0.6,0,0.8,0.4,0.8,1.1V457.7z"/>
		<path class="st1" d="M444.2,455.5c-0.2,0-0.3,0.1-0.3,0.3v3.8c0,0.3-0.1,0.6-0.2,0.7c-0.1,0.1-0.2,0.2-0.7,0.2
			c-0.2,0-0.3,0.1-0.3,0.3c0,0.2,0.1,0.3,0.4,0.3c0.6,0,1-0.2,1.1-0.6c0.1-0.2,0.1-0.5,0.1-0.8v-3.8
			C444.5,455.6,444.4,455.5,444.2,455.5"/>
		<path class="st1" d="M444.2,453.8c-0.2,0-0.3,0.1-0.3,0.3c0,0.2,0.1,0.3,0.3,0.3c0.2,0,0.3-0.1,0.3-0.3
			C444.5,454,444.4,453.8,444.2,453.8"/>
		<path class="st1" d="M451,456.7c0-0.4-0.1-0.7-0.2-0.9c-0.2-0.3-0.5-0.4-1.2-0.4h-1.7c-0.5,0-0.6,0.1-0.6,0.5v3.1
			c0,0.2,0.1,0.3,0.3,0.3c0.2,0,0.3-0.1,0.3-0.3v-3h1v3c0,0.2,0.1,0.3,0.3,0.3c0.2,0,0.3-0.1,0.3-0.3v-3c0.9,0,1.1,0.1,1.1,0.8v2.2
			c0,0.2,0.1,0.3,0.3,0.3c0.2,0,0.3-0.1,0.3-0.3V456.7z"/>
		<path class="st1" d="M452.4,455.5c-0.2,0-0.3,0.1-0.3,0.3v3.8c0,0.3-0.1,0.6-0.2,0.7c-0.1,0.1-0.2,0.2-0.7,0.2
			c-0.2,0-0.3,0.1-0.3,0.3c0,0.2,0.1,0.3,0.4,0.3c0.6,0,1-0.2,1.1-0.6c0.1-0.2,0.1-0.5,0.1-0.8v-3.8
			C452.7,455.6,452.5,455.5,452.4,455.5"/>
		<path class="st1" d="M452.3,453.8c-0.2,0-0.3,0.1-0.3,0.3c0,0.2,0.1,0.3,0.3,0.3c0.2,0,0.3-0.1,0.3-0.3
			C452.7,454,452.5,453.8,452.3,453.8"/>
		<path class="st1" d="M456.1,458.8H455c-0.6,0-0.7-0.2-0.7-0.8v-0.3h1.7c0.3,0,0.4-0.1,0.4-0.6c0-0.3-0.1-0.6-0.2-0.9
			c-0.2-0.4-0.7-0.7-1.2-0.7c-0.8,0-1.3,0.6-1.3,1.4v1.2c0,0.4,0.1,0.7,0.2,0.9c0.2,0.3,0.5,0.4,1.1,0.4h1.1c0.2,0,0.3-0.1,0.3-0.3
			C456.4,458.9,456.3,458.8,456.1,458.8 M454.3,457.1c0-0.6,0.3-1,0.8-1c0.5,0,0.8,0.3,0.8,1.1L454.3,457.1L454.3,457.1z"/>
		<path class="st1" d="M458.6,455.5h-0.9c-0.3,0-0.4,0.1-0.4,0.4v3.1c0,0.2,0.1,0.3,0.3,0.3c0.2,0,0.3-0.1,0.3-0.3v-3h0.5
			c0.3,0,0.5,0.1,0.6,0.2c0.2,0.3,0.2,0.3,0.4,0.3c0.2,0,0.3-0.1,0.3-0.3C459.5,455.9,459.1,455.5,458.6,455.5"/>
		<path class="st1" d="M443.1,443c-0.8,0-1.5,0.6-1.5,1.4c0,0.8,0.7,1.4,1.5,1.4c0.8,0,1.4-0.6,1.4-1.4
			C444.6,443.7,443.9,443,443.1,443 M443.1,445.7c-0.7,0-1.2-0.5-1.2-1.2c0-0.7,0.5-1.2,1.2-1.2c0.6,0,1.2,0.5,1.2,1.2
			C444.3,445.2,443.8,445.7,443.1,445.7"/>
		<path class="st1" d="M443.8,444.1c0-0.3-0.2-0.5-0.6-0.5h-0.6v1.6h0.3v-0.7h0.3l0.4,0.7h0.3l-0.5-0.7
			C443.6,444.5,443.8,444.4,443.8,444.1 M442.8,444.4v-0.5h0.3c0.2,0,0.4,0,0.4,0.2c0,0.3-0.2,0.3-0.4,0.3H442.8z"/>
	</g>
</g>
</svg>
