<?xml version="1.0" encoding="utf-8"?>
<!-- Generator: Adobe Illustrator 21.1.0, SVG Export Plug-In . SVG Version: 6.00 Build 0)  -->
<svg version="1.1" id="Layer_1" xmlns="http://www.w3.org/2000/svg" xmlns:xlink="http://www.w3.org/1999/xlink" x="0px" y="0px"
	 viewBox="0 0 489.3 720" style="enable-background:new 0 0 489.3 720;" xml:space="preserve">
<style type="text/css">
	.st0{clip-path:url(#SVGID_2_);}
	.st1{clip-path:url(#SVGID_4_);}
	.st2{opacity:0.75;clip-path:url(#SVGID_8_);}
	.st3{clip-path:url(#SVGID_10_);fill:#28373C;}
	.st4{clip-path:url(#SVGID_2_);fill:#FFFFFF;}
	.st5{clip-path:url(#SVGID_2_);fill:#E2E2E2;}
	.st6{clip-path:url(#SVGID_2_);fill:#A8B949;}
	.st7{clip-path:url(#SVGID_12_);fill:#28373C;}
	.st8{clip-path:url(#SVGID_12_);fill:#FFFFFF;}
	.st9{clip-path:url(#SVGID_12_);fill:none;stroke:#28373C;stroke-miterlimit:10;}
	.st10{clip-path:url(#SVGID_14_);fill:#FFFFFF;}
	.st11{clip-path:url(#SVGID_14_);fill:none;stroke:#28373C;stroke-miterlimit:10;}
	.st12{clip-path:url(#SVGID_16_);fill:#FFFFFF;}
	.st13{clip-path:url(#SVGID_16_);fill:none;stroke:#28373C;stroke-miterlimit:10;}
	.st14{clip-path:url(#SVGID_18_);fill:#FFFFFF;}
	.st15{clip-path:url(#SVGID_18_);fill:none;stroke:#28373C;stroke-miterlimit:10;}
	.st16{clip-path:url(#SVGID_20_);fill:#FFFFFF;}
	.st17{clip-path:url(#SVGID_20_);fill:none;stroke:#28373C;stroke-miterlimit:10;}
	.st18{clip-path:url(#SVGID_22_);fill:#FFFFFF;}
	.st19{clip-path:url(#SVGID_22_);fill:none;stroke:#28373C;stroke-miterlimit:10;}
	.st20{clip-path:url(#SVGID_24_);fill:#FFFFFF;}
	.st21{clip-path:url(#SVGID_24_);fill:none;stroke:#28373C;stroke-miterlimit:10;}
	.st22{clip-path:url(#SVGID_26_);fill:#FFFFFF;}
	.st23{clip-path:url(#SVGID_26_);fill:none;stroke:#28373C;stroke-miterlimit:10;}
	.st24{clip-path:url(#SVGID_28_);fill-rule:evenodd;clip-rule:evenodd;fill:#A8B949;}
	.st25{clip-path:url(#SVGID_28_);fill:#A8B949;}
	.st26{clip-path:url(#SVGID_28_);fill:#A7B849;}
	.st27{fill:#A8B949;}
	.st28{clip-path:url(#SVGID_30_);fill:#FFFFFF;}
	.st29{clip-path:url(#SVGID_30_);fill:none;stroke:#28373C;stroke-miterlimit:10;}
	.st30{clip-path:url(#SVGID_32_);fill:#FFFFFF;}
	.st31{clip-path:url(#SVGID_32_);fill:none;stroke:#28373C;stroke-miterlimit:10;}
	.st32{clip-path:url(#SVGID_34_);fill:#FFFFFF;}
	.st33{clip-path:url(#SVGID_34_);fill:none;stroke:#28373C;stroke-miterlimit:10;}
	.st34{clip-path:url(#SVGID_36_);fill:#FFFFFF;}
	.st35{clip-path:url(#SVGID_36_);fill:none;stroke:#28373C;stroke-miterlimit:10;}
	.st36{clip-path:url(#SVGID_38_);fill:#FFFFFF;}
	.st37{clip-path:url(#SVGID_38_);fill:none;stroke:#28373C;stroke-miterlimit:10;}
	.st38{clip-path:url(#SVGID_40_);fill:#FFFFFF;}
	.st39{clip-path:url(#SVGID_40_);fill:none;stroke:#28373C;stroke-miterlimit:10;}
	.st40{fill:#E2E2E2;}
	.st41{fill:#28373C;}
	.st42{fill-rule:evenodd;clip-rule:evenodd;fill:#A8B949;}
</style>
<g>
	<rect x="-0.1" y="0" class="st40" width="490" height="720"/>
	<path class="st41" d="M149.5,593.8c-5.8,3-10.2,2.4-12.3-1.7c-2.6-5-0.1-8.7,8-12.9l10.1-5.2l-0.3-0.5c-1.4-2.8-3.9-2.4-8.8,0.1
		l-12.8,6.6l-2.3-4.5l15.7-8.1c4.9-2.5,8.9-3.2,11.8-2.1l-5-9.3l-14.9,7.8c-6.8,3.6-11.2,7.2-13.4,12.4c-2.2,5.1-1.9,11.2,1,16.6
		c2.8,5.2,7.7,8.7,13.1,9.8c5.6,1.2,11-0.4,17.8-4l14.9-7.8l-3.7-7L149.5,593.8z"/>
	<path class="st41" d="M148.5,583c-3.3,1.7-4.5,2.9-3.5,4.9c0.9,1.8,2.5,1.4,5.3-0.1l9.6-4.9l-2.3-4.5L148.5,583z"/>
	<path class="st41" d="M190.7,573.7h-10.4v3.3h8.5c3.2,0,4.6,0.6,4.6,2.6v0.4h-6.7c-5.4,0-7.7,1.4-7.7,5.2c0,3,2.1,4.7,6,4.7h13.7
		v-10.1C198.6,575.7,195.9,573.7,190.7,573.7 M193.4,586.6H187c-1.9,0-2.8-0.2-2.8-1.5c0-1.5,1-1.8,3.2-1.8h6V586.6z"/>
	<polygon class="st41" points="215.8,573.7 210.2,585.2 204.8,573.7 199.1,573.7 207.3,589.8 212.8,589.8 221.3,573.7 	"/>
	<path class="st41" d="M232.6,573.7h-10.4v3.3h8.5c3.2,0,4.6,0.6,4.6,2.6v0.4h-6.7c-5.4,0-7.7,1.4-7.7,5.2c0,3,2.1,4.7,6,4.7h13.7
		v-10.1C240.5,575.7,237.9,573.7,232.6,573.7 M235.3,586.6h-6.4c-1.9,0-2.8-0.2-2.8-1.5c0-1.5,1-1.8,3.2-1.8h6V586.6z"/>
	<path class="st41" d="M260.8,589.8v-10.2c0-4.3-2.3-5.9-8-5.9h-9.6v16.2h5.1v-12.6h4.1c2.9,0,3.4,0.6,3.4,2.9v9.7H260.8z"/>
	<path class="st41" d="M275.5,586.6h-2.1c-2.6,0-3.3-0.9-3.3-3.2v-6.5h5.4v-3.2h-5.4v-5.9H265v5.9h-3.6v3.2h3.6v7.9
		c0,3.3,2.1,5.1,5.8,5.1h4.7V586.6z"/>
	<path class="st41" d="M314.7,574.8c-1.4-1-3.4-1.5-6.2-1.5h-11v1.7h8.8c2.1,0,3.7,0.3,4.7,0.9c1.1,0.7,1.7,1.8,1.7,3.2v1.5h-8.8
		c-2.9,0-5,0.4-6.2,1.2c-1.1,0.7-1.6,1.9-1.6,3.7c0,1.4,0.5,2.4,1.5,3.1c1,0.8,2.5,1.2,4.4,1.2h14.8v-10.6
		C316.6,577.2,316,575.8,314.7,574.8 M312.7,588.1h-8.4c-1.6,0-2.5-0.2-3.1-0.6c-0.5-0.3-1.1-0.9-1.1-2.2c0-1.4,0.7-2.1,1.3-2.5
		c0.8-0.4,1.9-0.6,3.4-0.6h8V588.1z"/>
	<path class="st41" d="M282.4,573.8c-1.2,0.3-2.3,0.8-3.1,1.5c-0.8,0.7-1.6,1.7-2.1,2.8c-0.5,1.1-0.8,2.3-0.8,3.5
		c0,1.2,0.3,2.4,0.8,3.4c0.5,1.1,1.2,2,2.1,2.7c0.9,0.7,1.9,1.2,3,1.6c1.3,0.3,2.9,0.5,4.7,0.5h6.9v-1.9h-5.2l-2.9-0.1
		c0,0-1.5-0.4-1.5-0.4l0.3,0.1l-0.9-0.3c-1.2-0.6-2-1.4-2.5-2.4c-0.5-0.9-0.8-2-0.8-3.2c0-2.3,0.7-3.9,2.1-5c1.1-1,3.2-1.4,6.3-1.4
		h5.2v-1.9H287C285.2,573.3,283.6,573.5,282.4,573.8"/>
	<path class="st41" d="M331.5,579h3.5v-2c0-1.4-0.3-2.3-1-2.8c-0.5-0.4-1.7-0.9-4.2-0.9H321v16.5h3.8v-15h3.1c1.4,0,2.2,0.2,2.8,0.5
		c0.6,0.6,0.8,1.3,0.8,2.3C331.5,577.6,331.5,578.3,331.5,579"/>
	<path class="st41" d="M262.8,593.3c-0.2,0-0.3,0.1-0.5,0.4l-2.2,3.6l-2.2-3.6c-0.1-0.2-0.3-0.4-0.5-0.4c-0.3,0-0.4,0.3-0.4,0.8v7.3
		c0,0.3,0.2,0.5,0.4,0.5c0.3,0,0.5-0.2,0.5-0.5v-6l1.6,2.6c0.2,0.4,0.4,0.6,0.6,0.6c0.2,0,0.4-0.1,0.6-0.6l1.6-2.6v6
		c0,0.3,0.2,0.5,0.5,0.5c0.3,0,0.4-0.2,0.4-0.5v-7.3C263.3,593.6,263.1,593.3,262.8,593.3"/>
	<path class="st41" d="M267.3,595.8c-1.3,0-2.2,0.9-2.2,2.4v1.4c0,1.4,0.9,2.4,2.2,2.4c1.3,0,2.2-0.9,2.2-2.4v-1.4
		C269.5,596.7,268.6,595.8,267.3,595.8 M268.6,599.3c0,1.1-0.5,1.7-1.3,1.7c-0.9,0-1.3-0.6-1.3-1.7v-0.8c0-1.2,0.5-1.7,1.3-1.7
		c0.9,0,1.3,0.6,1.3,1.7V599.3z"/>
	<path class="st41" d="M273.5,595.8H272v-2c0-0.3-0.2-0.5-0.5-0.5c-0.3,0-0.4,0.2-0.4,0.5v7.5c0,0.4,0.1,0.5,0.5,0.5h1.8
		c1.4,0,2-0.6,2-2v-2.1c0-0.5-0.1-1-0.3-1.3C274.9,596,274.3,595.8,273.5,595.8 M274.6,599.8c0,0.8-0.3,1.2-1.1,1.2H272v-4.3h1.4
		c0.8,0,1.1,0.3,1.1,1.2V599.8z"/>
	<path class="st41" d="M277.6,595.8c-0.3,0-0.4,0.2-0.4,0.5v5.1c0,0.3,0.2,0.5,0.4,0.5c0.3,0,0.5-0.2,0.5-0.5v-5.1
		C278.1,596,277.9,595.8,277.6,595.8"/>
	<path class="st41" d="M277.7,593.1c-0.3,0-0.5,0.2-0.5,0.5c0,0.3,0.2,0.5,0.5,0.5c0.3,0,0.5-0.2,0.5-0.5
		C278.2,593.4,277.9,593.1,277.7,593.1"/>
	<path class="st41" d="M281.5,601.1c-0.6-0.3-0.7-0.4-0.7-1.2v-6.2c0-0.3-0.2-0.5-0.5-0.5c-0.3,0-0.4,0.2-0.4,0.5v6.3
		c0,0.6,0.1,0.9,0.3,1.2c0.2,0.3,0.7,0.5,1,0.5c0.2,0,0.4-0.2,0.4-0.4C281.7,601.3,281.6,601.2,281.5,601.1"/>
	<path class="st41" d="M285.4,595.8h-1.7c-0.6,0-0.8,0.1-0.8,0.6v5c0,0.3,0.2,0.5,0.4,0.5c0.3,0,0.5-0.2,0.5-0.5v-4.7h1.3
		c1,0,1.3,0.3,1.3,1.4v3.3c0,0.3,0.2,0.5,0.4,0.5c0.3,0,0.5-0.2,0.5-0.5V598C287.3,596.4,286.8,595.8,285.4,595.8"/>
	<path class="st41" d="M291.1,595.8c-1.3,0-2.2,0.9-2.2,2.4v1.4c0,1.4,0.9,2.4,2.2,2.4c1.3,0,2.2-0.9,2.2-2.4v-1.4
		C293.3,596.7,292.4,595.8,291.1,595.8 M292.4,599.3c0,1.1-0.5,1.7-1.3,1.7c-0.9,0-1.3-0.6-1.3-1.7v-0.8c0-1.2,0.5-1.7,1.3-1.7
		c0.9,0,1.3,0.6,1.3,1.7V599.3z"/>
	<path class="st41" d="M298.1,599.2c-0.3-0.2-0.4-0.3-1.3-0.8c-0.8-0.4-0.8-0.4-1-0.5c-0.2-0.2-0.3-0.4-0.3-0.6c0-0.4,0.4-0.7,1-0.7
		c0.3,0,0.4,0,0.8,0.1c0.4,0.1,0.5,0.1,0.7,0.1c0.3,0,0.4-0.2,0.4-0.4c0-0.2-0.1-0.3-0.3-0.4c-0.5-0.2-1.1-0.3-1.6-0.3
		c-1.1,0-2,0.6-2,1.5c0,0.8,0.4,1.2,1.7,1.9c0.8,0.4,0.8,0.4,1,0.6c0.3,0.2,0.5,0.4,0.5,0.7c0,0.4-0.4,0.6-1,0.6
		c-0.5,0-0.9-0.1-1.5-0.4c-0.3-0.2-0.4-0.2-0.6-0.2c-0.2,0-0.4,0.2-0.4,0.4c0,0.5,1.2,1.1,2.3,1.1c1.2,0,2-0.6,2-1.5
		C298.7,599.9,298.4,599.5,298.1,599.2"/>
	<path class="st41" d="M302.5,595.8h-1.3v-2c0-0.3-0.2-0.5-0.5-0.5c-0.3,0-0.4,0.2-0.4,0.5v2h-0.4c-0.3,0-0.5,0.2-0.5,0.4
		c0,0.3,0.2,0.4,0.5,0.4h0.4v4.7c0,0.3,0.2,0.5,0.4,0.5c0.3,0,0.5-0.2,0.5-0.5v-4.7h1.3c0.3,0,0.5-0.2,0.5-0.4
		C303,595.9,302.8,595.8,302.5,595.8"/>
	<path class="st41" d="M308.8,595.8h-1.6c-0.6,0-0.8,0.2-0.8,0.8v7.3c0,0.3,0.2,0.5,0.4,0.5c0.3,0,0.5-0.2,0.5-0.5v-2h1.5
		c1.4,0,2-0.6,2-2v-2.1c0-0.6-0.1-1-0.4-1.4C310.1,595.9,309.6,595.8,308.8,595.8 M309.9,599.9c0,0.8-0.3,1.1-1.2,1.1h-1.4v-4.3h1.5
		c0.8,0,1.1,0.3,1.1,1V599.9z"/>
	<path class="st41" d="M314.4,595.8c-1.3,0-2.2,0.9-2.2,2.4v1.4c0,1.4,0.9,2.4,2.2,2.4c1.3,0,2.2-0.9,2.2-2.4v-1.4
		C316.6,596.7,315.7,595.8,314.4,595.8 M315.7,599.3c0,1.1-0.5,1.7-1.3,1.7c-0.9,0-1.3-0.6-1.3-1.7v-0.8c0-1.2,0.5-1.7,1.3-1.7
		c0.9,0,1.3,0.6,1.3,1.7V599.3z"/>
	<path class="st41" d="M323.9,595.8c-0.2,0-0.4,0.1-0.4,0.3l-1.3,4l-1.3-4c-0.1-0.2-0.2-0.3-0.4-0.3c-0.2,0-0.4,0.2-0.4,0.5
		c0,0,0,0.1,0,0.2l1.6,4.9c0.1,0.5,0.3,0.6,0.5,0.6c0.3,0,0.5-0.2,0.6-0.6l1.6-4.9c0-0.1,0-0.1,0-0.2
		C324.3,596,324.1,595.8,323.9,595.8"/>
	<path class="st41" d="M327.6,595.8h-1.8c-0.3,0-0.5,0.2-0.5,0.4c0,0.3,0.2,0.4,0.5,0.4h2c0.7,0,0.9,0.4,0.9,1.3v0.4h-1.5
		c-0.4,0-0.8,0.1-1.1,0.2c-0.5,0.3-0.9,0.9-0.9,1.5c0,0.6,0.4,1.2,0.9,1.5c0.4,0.2,0.7,0.3,1.4,0.3h1.6c0.4,0,0.6-0.2,0.6-0.8v-3.3
		C329.6,596.4,329,595.8,327.6,595.8 M328.7,600.9h-1.4c-0.7,0-1.1-0.3-1.1-0.9c0-0.6,0.4-0.9,1.3-0.9h1.2V600.9z"/>
	<path class="st41" d="M334.6,599.2c-0.3-0.2-0.4-0.3-1.3-0.8c-0.8-0.4-0.8-0.4-1-0.5c-0.2-0.2-0.3-0.4-0.3-0.6c0-0.4,0.4-0.7,1-0.7
		c0.3,0,0.4,0,0.8,0.1c0.4,0.1,0.5,0.1,0.7,0.1c0.3,0,0.4-0.2,0.4-0.4c0-0.2-0.1-0.3-0.3-0.4c-0.5-0.2-1.1-0.3-1.6-0.3
		c-1.1,0-2,0.6-2,1.5c0,0.8,0.4,1.2,1.7,1.9c0.8,0.4,0.8,0.4,1,0.6c0.3,0.2,0.5,0.4,0.5,0.7c0,0.4-0.4,0.6-1,0.6
		c-0.5,0-0.9-0.1-1.5-0.4c-0.3-0.2-0.4-0.2-0.6-0.2c-0.2,0-0.4,0.2-0.4,0.4c0,0.5,1.2,1.1,2.3,1.1c1.2,0,2-0.6,2-1.5
		C335.3,599.9,335,599.5,334.6,599.2"/>
	<path class="st41" d="M333.9,592.9l-0.9,0.8l-0.9-0.8c-0.1-0.1-0.3-0.2-0.4-0.2c-0.2,0-0.4,0.2-0.4,0.4c0,0.2,0.1,0.3,0.4,0.6
		l0.6,0.5c0.3,0.3,0.5,0.4,0.7,0.4h0c0.2,0,0.3-0.1,0.7-0.4l0.6-0.5c0.3-0.3,0.4-0.4,0.4-0.6c0-0.2-0.2-0.4-0.4-0.4
		C334.2,592.7,334,592.8,333.9,592.9"/>
	<path class="st41" d="M340.7,598.1c0-1.4-0.9-2.4-2.2-2.4c-1.3,0-2.2,0.9-2.2,2.4v1.4c0,1.4,0.9,2.4,2.2,2.4c1.3,0,2.2-0.9,2.2-2.4
		V598.1z M339.8,599.3c0,1.1-0.5,1.7-1.3,1.7c-0.9,0-1.3-0.6-1.3-1.7v-0.8c0-1.2,0.5-1.7,1.3-1.7c0.9,0,1.3,0.6,1.3,1.7V599.3z"/>
	<path class="st41" d="M342.6,595.8c-0.3,0-0.4,0.2-0.4,0.5v5.9c0,0.5-0.1,0.9-0.2,1.1c-0.2,0.2-0.2,0.2-1,0.3
		c-0.3,0-0.5,0.2-0.5,0.4c0,0.3,0.2,0.4,0.7,0.4c0.9,0,1.6-0.3,1.8-0.9c0.1-0.3,0.2-0.8,0.2-1.3v-6
		C343.1,596,342.9,595.8,342.6,595.8"/>
	<path class="st41" d="M342.6,593.1c-0.3,0-0.5,0.2-0.5,0.5c0,0.3,0.2,0.5,0.5,0.5c0.3,0,0.5-0.2,0.5-0.5
		C343.1,593.4,342.9,593.1,342.6,593.1"/>
	<path class="st41" d="M353.5,597.7c0-0.6-0.1-1-0.4-1.4c-0.3-0.4-0.9-0.6-1.9-0.6h-2.8c-0.7,0-0.9,0.2-0.9,0.7v4.9
		c0,0.3,0.2,0.5,0.4,0.5c0.3,0,0.5-0.2,0.5-0.5v-4.7h1.6v4.7c0,0.3,0.2,0.5,0.4,0.5c0.3,0,0.5-0.2,0.5-0.5v-4.7
		c1.4,0,1.7,0.2,1.7,1.2v3.5c0,0.3,0.2,0.5,0.4,0.5c0.3,0,0.5-0.2,0.5-0.5V597.7z"/>
	<path class="st41" d="M355.6,595.8c-0.3,0-0.4,0.2-0.4,0.5v5.9c0,0.5-0.1,0.9-0.2,1.1c-0.2,0.2-0.2,0.2-1,0.3
		c-0.3,0-0.5,0.2-0.5,0.4c0,0.3,0.2,0.4,0.7,0.4c0.9,0,1.6-0.3,1.8-0.9c0.1-0.3,0.2-0.8,0.2-1.3v-6C356,596,355.9,595.8,355.6,595.8
		"/>
	<path class="st41" d="M355.6,593.1c-0.3,0-0.5,0.2-0.5,0.5c0,0.3,0.2,0.5,0.5,0.5c0.3,0,0.5-0.2,0.5-0.5
		C356.1,593.4,355.8,593.1,355.6,593.1"/>
	<path class="st41" d="M361.5,601h-1.7c-0.9,0-1.2-0.3-1.2-1.3v-0.4h2.8c0.5,0,0.6-0.2,0.6-1c0-0.5-0.1-1-0.3-1.4
		c-0.3-0.7-1.1-1.1-1.8-1.1c-1.2,0-2.1,0.9-2.1,2.2v1.9c0,0.6,0.1,1.1,0.4,1.4c0.3,0.4,0.8,0.6,1.7,0.6h1.8c0.3,0,0.5-0.2,0.5-0.4
		C362,601.2,361.8,601,361.5,601 M358.6,598.2c0-1,0.4-1.5,1.2-1.5c0.9,0,1.2,0.5,1.2,1.7h-2.5V598.2z"/>
	<path class="st41" d="M365.5,595.8h-1.4c-0.5,0-0.6,0.2-0.6,0.7v4.9c0,0.3,0.2,0.5,0.4,0.5c0.3,0,0.5-0.2,0.5-0.5v-4.7h0.7
		c0.5,0,0.7,0.1,0.9,0.3c0.3,0.5,0.3,0.5,0.6,0.5c0.2,0,0.4-0.2,0.4-0.4C366.9,596.4,366.3,595.8,365.5,595.8"/>
	<path class="st41" d="M368.5,595.8c-0.3,0-0.4,0.2-0.4,0.5v5.1c0,0.3,0.2,0.5,0.4,0.5c0.3,0,0.5-0.2,0.5-0.5v-5.1
		C368.9,596,368.7,595.8,368.5,595.8"/>
	<path class="st41" d="M368.5,594.2c0.3,0,0.5-0.2,0.5-0.5c0-0.3-0.2-0.5-0.5-0.5c-0.3,0-0.5,0.2-0.5,0.5
		C367.9,593.9,368.2,594.2,368.5,594.2"/>
	<path class="st41" d="M340.9,576.1c-1.2,0-2.3,1-2.3,2.2c0,1.3,1.1,2.3,2.3,2.3c1.2,0,2.3-1,2.3-2.3
		C343.2,577.1,342.1,576.1,340.9,576.1 M340.9,580.2c-1,0-1.8-0.8-1.8-1.9c0-1.1,0.8-1.9,1.8-1.9c1,0,1.8,0.8,1.8,1.9
		C342.7,579.4,341.9,580.2,340.9,580.2"/>
	<path class="st41" d="M341.9,577.8c0-0.5-0.3-0.7-0.9-0.7h-1v2.6h0.4v-1.1h0.5l0.7,1.1h0.4l-0.7-1.1
		C341.6,578.5,341.9,578.3,341.9,577.8 M340.4,578.2v-0.8h0.5c0.3,0,0.6,0.1,0.6,0.4c0,0.4-0.3,0.4-0.6,0.4H340.4z"/>
	<g>
		<path class="st41" d="M36.6,130.6v6.4h-3.6v-17.8h7.1c2,0,3.7,0.5,4.8,1.6c1.2,1,1.8,2.4,1.8,4.1c0,1.7-0.6,3.1-1.8,4.1
			c-1.2,1-2.8,1.6-4.8,1.6H36.6z M36.6,127.8h3.5c1,0,1.7-0.3,2.3-0.8c0.5-0.5,0.8-1.2,0.8-2.1c0-0.9-0.3-1.6-0.8-2.1
			c-0.5-0.6-1.3-0.8-2.3-0.8h-3.5V127.8z"/>
		<path class="st41" d="M63.6,129.7c0,2.2-0.7,4-2.1,5.4c-1.4,1.4-3.2,2.1-5.4,2.1c-2.2,0-4-0.7-5.3-2.1c-1.4-1.4-2.1-3.2-2.1-5.4
			v-3.2c0-2.2,0.7-4,2-5.4c1.4-1.4,3.1-2.1,5.3-2.1c2.2,0,4,0.7,5.4,2.1c1.4,1.4,2.1,3.2,2.1,5.4V129.7z M60.1,126.5
			c0-1.4-0.3-2.5-1-3.4c-0.7-0.9-1.6-1.3-2.9-1.3s-2.2,0.4-2.8,1.3c-0.7,0.9-1,2-1,3.4v3.2c0,1.4,0.3,2.6,1,3.4s1.6,1.3,2.8,1.3
			c1.2,0,2.2-0.4,2.9-1.3s1-2,1-3.4V126.5z"/>
		<path class="st41" d="M80.1,134.6c-0.5,0.7-1.4,1.3-2.5,1.9c-1.1,0.5-2.5,0.8-4.2,0.8c-2.2,0-3.9-0.7-5.3-2
			c-1.4-1.4-2.1-3.1-2.1-5.3v-3.7c0-2.1,0.7-3.9,2-5.3c1.3-1.4,3-2,5.1-2c2.2,0,3.8,0.5,5,1.6c1.2,1.1,1.7,2.4,1.8,4.2l0,0.1h-3.4
			c-0.1-0.9-0.4-1.7-0.9-2.2c-0.5-0.5-1.3-0.8-2.4-0.8c-1.1,0-2,0.4-2.6,1.3c-0.7,0.8-1,1.9-1,3.3v3.7c0,1.3,0.3,2.4,1,3.3
			c0.7,0.8,1.6,1.3,2.8,1.3c0.8,0,1.5-0.1,2-0.3c0.5-0.2,0.9-0.4,1.1-0.6v-3.3h-3.1v-2.5h6.7V134.6z"/>
		<path class="st41" d="M97.4,129.7c0,2.2-0.7,4-2.1,5.4c-1.4,1.4-3.2,2.1-5.4,2.1c-2.2,0-4-0.7-5.3-2.1c-1.4-1.4-2.1-3.2-2.1-5.4
			v-3.2c0-2.2,0.7-4,2-5.4c1.4-1.4,3.1-2.1,5.3-2.1c2.2,0,4,0.7,5.4,2.1c1.4,1.4,2.1,3.2,2.1,5.4V129.7z M93.9,126.5
			c0-1.4-0.3-2.5-1-3.4c-0.7-0.9-1.6-1.3-2.9-1.3s-2.2,0.4-2.8,1.3c-0.7,0.9-1,2-1,3.4v3.2c0,1.4,0.3,2.6,1,3.4s1.6,1.3,2.8,1.3
			c1.2,0,2.2-0.4,2.9-1.3s1-2,1-3.4V126.5z"/>
		<path class="st41" d="M100.2,137v-17.8h6.1c2.2,0,4,0.7,5.4,2.1s2.1,3.2,2.1,5.3v2.9c0,2.2-0.7,4-2.1,5.3
			c-1.4,1.4-3.2,2.1-5.4,2.1H100.2z M103.8,122v12.3h2.4c1.3,0,2.3-0.4,3-1.3c0.7-0.9,1.1-2,1.1-3.4v-3c0-1.4-0.4-2.5-1.1-3.4
			c-0.7-0.9-1.7-1.3-3-1.3H103.8z"/>
		<path class="st41" d="M131,137h-3.6l-7.2-12.1l-0.1,0V137h-3.6v-17.8h3.6l7.2,12.1l0.1,0v-12.1h3.6V137z"/>
		<path class="st41" d="M148.6,129.7c0,2.2-0.7,4-2.1,5.4c-1.4,1.4-3.2,2.1-5.4,2.1c-2.2,0-4-0.7-5.3-2.1c-1.4-1.4-2.1-3.2-2.1-5.4
			v-3.2c0-2.2,0.7-4,2-5.4c1.4-1.4,3.1-2.1,5.3-2.1c2.2,0,4,0.7,5.4,2.1c1.4,1.4,2.1,3.2,2.1,5.4V129.7z M145,126.5
			c0-1.4-0.3-2.5-1-3.4c-0.7-0.9-1.6-1.3-2.9-1.3s-2.2,0.4-2.8,1.3c-0.7,0.9-1,2-1,3.4v3.2c0,1.4,0.3,2.6,1,3.4s1.6,1.3,2.8,1.3
			c1.2,0,2.2-0.4,2.9-1.3s1-2,1-3.4V126.5z"/>
		<path class="st41" d="M161,132.4c0-0.7-0.2-1.2-0.7-1.6c-0.5-0.4-1.3-0.8-2.5-1.2c-2.1-0.6-3.7-1.3-4.8-2.2
			c-1.1-0.8-1.6-2-1.6-3.4c0-1.5,0.6-2.6,1.9-3.6s2.8-1.4,4.8-1.4c2,0,3.5,0.5,4.8,1.6c1.2,1,1.8,2.3,1.8,3.8l0,0.1H161
			c0-0.8-0.3-1.5-0.8-2c-0.5-0.5-1.3-0.8-2.3-0.8c-1,0-1.7,0.2-2.2,0.6c-0.5,0.4-0.8,1-0.8,1.6c0,0.6,0.3,1.1,0.8,1.5
			s1.5,0.8,2.9,1.2c2,0.5,3.4,1.3,4.5,2.2c1,0.9,1.5,2.1,1.5,3.5c0,1.5-0.6,2.7-1.8,3.6s-2.8,1.3-4.8,1.3c-1.9,0-3.6-0.5-5.1-1.5
			s-2.1-2.4-2.1-4.2l0-0.1h3.5c0,1.1,0.3,1.8,1,2.3c0.6,0.5,1.5,0.7,2.7,0.7c1,0,1.7-0.2,2.2-0.6C160.7,133.6,161,133.1,161,132.4z"
			/>
		<path class="st41" d="M179.5,122h-5v15h-3.6v-15h-5v-2.7h13.6V122z"/>
		<path class="st41" d="M185.3,137h-3.6v-17.8h3.6V137z"/>
		<path class="st41" d="M198.6,130.6v6.4h-3.6v-17.8h7.1c2,0,3.7,0.5,4.8,1.6c1.2,1,1.8,2.4,1.8,4.1c0,1.7-0.6,3.1-1.8,4.1
			c-1.2,1-2.8,1.6-4.8,1.6H198.6z M198.6,127.8h3.5c1,0,1.7-0.3,2.3-0.8c0.5-0.5,0.8-1.2,0.8-2.1c0-0.9-0.3-1.6-0.8-2.1
			c-0.5-0.6-1.3-0.8-2.3-0.8h-3.5V127.8z"/>
		<path class="st41" d="M225.6,129.7c0,2.2-0.7,4-2.1,5.4c-1.4,1.4-3.2,2.1-5.4,2.1c-2.2,0-4-0.7-5.3-2.1c-1.4-1.4-2.1-3.2-2.1-5.4
			v-3.2c0-2.2,0.7-4,2-5.4c1.4-1.4,3.1-2.1,5.3-2.1c2.2,0,4,0.7,5.4,2.1c1.4,1.4,2.1,3.2,2.1,5.4V129.7z M222.1,126.5
			c0-1.4-0.3-2.5-1-3.4c-0.7-0.9-1.6-1.3-2.9-1.3s-2.2,0.4-2.8,1.3c-0.7,0.9-1,2-1,3.4v3.2c0,1.4,0.3,2.6,1,3.4s1.6,1.3,2.8,1.3
			c1.2,0,2.2-0.4,2.9-1.3s1-2,1-3.4V126.5z"/>
		<path class="st41" d="M238,132.4c0-0.7-0.2-1.2-0.7-1.6c-0.5-0.4-1.3-0.8-2.5-1.2c-2.1-0.6-3.7-1.3-4.8-2.2
			c-1.1-0.8-1.6-2-1.6-3.4c0-1.5,0.6-2.6,1.9-3.6s2.8-1.4,4.8-1.4c2,0,3.5,0.5,4.8,1.6c1.2,1,1.8,2.3,1.8,3.8l0,0.1H238
			c0-0.8-0.3-1.5-0.8-2c-0.5-0.5-1.3-0.8-2.3-0.8c-1,0-1.7,0.2-2.2,0.6c-0.5,0.4-0.8,1-0.8,1.6c0,0.6,0.3,1.1,0.8,1.5
			s1.5,0.8,2.9,1.2c2,0.5,3.4,1.3,4.5,2.2c1,0.9,1.5,2.1,1.5,3.5c0,1.5-0.6,2.7-1.8,3.6s-2.8,1.3-4.8,1.3c-1.9,0-3.6-0.5-5.1-1.5
			s-2.1-2.4-2.1-4.2l0-0.1h3.5c0,1.1,0.3,1.8,1,2.3c0.6,0.5,1.5,0.7,2.7,0.7c1,0,1.7-0.2,2.2-0.6C237.8,133.6,238,133.1,238,132.4z"
			/>
		<path class="st41" d="M247.8,134.3h7.9v2.7h-11.5v-17.8h3.6V134.3z"/>
		<path class="st41" d="M271.3,129.7c0,2.2-0.7,4-2.1,5.4c-1.4,1.4-3.2,2.1-5.4,2.1c-2.2,0-4-0.7-5.3-2.1c-1.4-1.4-2.1-3.2-2.1-5.4
			v-3.2c0-2.2,0.7-4,2-5.4c1.4-1.4,3.1-2.1,5.3-2.1c2.2,0,4,0.7,5.4,2.1c1.4,1.4,2.1,3.2,2.1,5.4V129.7z M267.8,126.5
			c0-1.4-0.3-2.5-1-3.4c-0.7-0.9-1.6-1.3-2.9-1.3s-2.2,0.4-2.8,1.3c-0.7,0.9-1,2-1,3.4v3.2c0,1.4,0.3,2.6,1,3.4s1.6,1.3,2.8,1.3
			c1.2,0,2.2-0.4,2.9-1.3s1-2,1-3.4V126.5z"/>
		<path class="st41" d="M279.9,132.3l0.2,1h0.1l0.2-0.9l3.9-13.1h3.8l-6,17.8h-3.7l-6-17.8h3.8L279.9,132.3z"/>
		<path class="st41" d="M304.2,137h-3.6l-7.2-12.1l-0.1,0V137h-3.6v-17.8h3.6l7.2,12.1l0.1,0v-12.1h3.6V137z"/>
		<path class="st41" d="M321.8,129.7c0,2.2-0.7,4-2.1,5.4c-1.4,1.4-3.2,2.1-5.4,2.1c-2.2,0-4-0.7-5.3-2.1c-1.4-1.4-2.1-3.2-2.1-5.4
			v-3.2c0-2.2,0.7-4,2-5.4c1.4-1.4,3.1-2.1,5.3-2.1c2.2,0,4,0.7,5.4,2.1c1.4,1.4,2.1,3.2,2.1,5.4V129.7z M318.2,126.5
			c0-1.4-0.3-2.5-1-3.4c-0.7-0.9-1.6-1.3-2.9-1.3s-2.2,0.4-2.8,1.3c-0.7,0.9-1,2-1,3.4v3.2c0,1.4,0.3,2.6,1,3.4s1.6,1.3,2.8,1.3
			c1.2,0,2.2-0.4,2.9-1.3s1-2,1-3.4V126.5z"/>
		<path class="st41" d="M338.2,134.6c-0.5,0.7-1.4,1.3-2.5,1.9c-1.1,0.5-2.5,0.8-4.2,0.8c-2.2,0-3.9-0.7-5.3-2
			c-1.4-1.4-2.1-3.1-2.1-5.3v-3.7c0-2.1,0.7-3.9,2-5.3c1.3-1.4,3-2,5.1-2c2.2,0,3.8,0.5,5,1.6c1.2,1.1,1.7,2.4,1.8,4.2l0,0.1h-3.4
			c-0.1-0.9-0.4-1.7-0.9-2.2c-0.5-0.5-1.3-0.8-2.4-0.8c-1.1,0-2,0.4-2.6,1.3c-0.7,0.8-1,1.9-1,3.3v3.7c0,1.3,0.3,2.4,1,3.3
			c0.7,0.8,1.6,1.3,2.8,1.3c0.8,0,1.5-0.1,2-0.3c0.5-0.2,0.9-0.4,1.1-0.6v-3.3h-3.1v-2.5h6.7V134.6z"/>
		<path class="st41" d="M361.9,137h-3.6l-7.2-12.1l-0.1,0V137h-3.6v-17.8h3.6l7.2,12.1l0.1,0v-12.1h3.6V137z"/>
		<path class="st41" d="M375,133.2h-6.2l-1.2,3.8h-3.6l6.1-17.8h3.7l6.1,17.8h-3.6L375,133.2z M369.6,130.4h4.5l-2.2-7h-0.1
			L369.6,130.4z"/>
		<path class="st41" d="M388.9,119.3h3.6v12.4c0,1.7-0.6,3.1-1.7,4.1c-1.1,1-2.5,1.5-4.2,1.5c-1.9,0-3.3-0.5-4.4-1.4
			c-1.1-0.9-1.6-2.2-1.6-4l0-0.1h3.5c0,0.9,0.2,1.6,0.7,2s1,0.6,1.8,0.6c0.7,0,1.2-0.3,1.7-0.8c0.5-0.5,0.7-1.2,0.7-2.1V119.3z"/>
		<path class="st41" d="M400.3,119.3l4.5,13.1h0.1l4.6-13.1h4.7V137h-3.6v-5.3l0.3-7.8l-0.1,0l-4.8,13.2h-2.4l-4.7-13.1l-0.1,0
			l0.3,7.8v5.3h-3.6v-17.8H400.3z"/>
		<path class="st41" d="M427.2,133.2H421l-1.2,3.8h-3.6l6.1-17.8h3.7l6.1,17.8h-3.6L427.2,133.2z M421.9,130.4h4.5l-2.2-7h-0.1
			L421.9,130.4z"/>
	</g>
	<g>
		<path class="st27" d="M104.5,197.5v-12.4l10.7,6.2L104.5,197.5z"/>
	</g>
	<g>
		<path class="st41" d="M125.2,190.4h-2v6.7h-1.2v-14.2h1.2v6.5h1.9l5.6-6.5h1.3l0,0l-5.9,6.9l6.3,7.2l0,0h-1.4L125.2,190.4z"/>
		<path class="st41" d="M133.6,191.6c0-1.6,0.4-2.8,1.3-3.8s2-1.5,3.4-1.5c1.4,0,2.5,0.5,3.4,1.5s1.3,2.3,1.3,3.8v0.3
			c0,1.6-0.4,2.8-1.3,3.8s-2,1.5-3.4,1.5c-1.4,0-2.6-0.5-3.4-1.5s-1.3-2.3-1.3-3.8V191.6z M134.8,191.9c0,1.2,0.3,2.3,0.9,3.1
			c0.6,0.8,1.5,1.2,2.6,1.2c1.1,0,1.9-0.4,2.6-1.2c0.6-0.8,0.9-1.9,0.9-3.1v-0.3c0-1.2-0.3-2.2-0.9-3.1c-0.6-0.8-1.5-1.3-2.6-1.3
			s-2,0.4-2.6,1.3c-0.6,0.8-0.9,1.9-0.9,3.1V191.9z"/>
		<path class="st41" d="M146.4,186.5l0.1,1.7c0.3-0.6,0.8-1.1,1.4-1.4s1.2-0.5,2-0.5c0.8,0,1.5,0.2,2,0.6s0.9,1,1.2,1.8
			c0.3-0.7,0.8-1.3,1.4-1.7s1.3-0.6,2.2-0.6c1.1,0,2,0.4,2.6,1.1s0.9,1.9,0.9,3.5v6.2H159v-6.2c0-1.3-0.2-2.2-0.7-2.8
			c-0.5-0.5-1.1-0.8-1.9-0.8c-0.9,0-1.6,0.3-2.1,0.9c-0.5,0.6-0.8,1.3-0.9,2.2c0,0,0,0.1,0,0.2c0,0.1,0,0.1,0,0.2v6.4h-1.2v-6.2
			c0-1.3-0.2-2.2-0.7-2.7c-0.5-0.6-1.1-0.8-1.9-0.8c-0.8,0-1.5,0.2-2,0.6c-0.5,0.4-0.8,1-1,1.7v7.4h-1.2v-10.6H146.4z"/>
		<path class="st41" d="M171.7,192c0,1.6-0.4,2.8-1.1,3.8s-1.7,1.4-3,1.4c-0.7,0-1.4-0.1-1.9-0.4s-1-0.7-1.4-1.2v5.5h-1.2v-14.6h1
			l0.1,1.6c0.4-0.6,0.8-1,1.4-1.4s1.2-0.5,2-0.5c1.3,0,2.3,0.5,3,1.5s1.1,2.4,1.1,4V192z M170.5,191.8c0-1.3-0.3-2.4-0.8-3.3
			c-0.5-0.8-1.3-1.3-2.3-1.3c-0.8,0-1.4,0.2-1.9,0.6s-0.9,0.9-1.1,1.5v5.1c0.3,0.6,0.7,1,1.2,1.4c0.5,0.3,1.1,0.5,1.9,0.5
			c1,0,1.8-0.4,2.3-1.2c0.5-0.8,0.8-1.8,0.8-3.1V191.8z"/>
		<path class="st41" d="M175.6,197h-1.2v-15.2h1.2V197z"/>
		<path class="st41" d="M182.8,197.2c-1.3,0-2.4-0.5-3.3-1.5s-1.3-2.2-1.3-3.7v-0.5c0-1.5,0.4-2.8,1.3-3.8s1.9-1.5,3.2-1.5
			c1.3,0,2.3,0.4,3.1,1.2s1.1,1.9,1.1,3.3v1h-7.5v0.3c0,1.2,0.3,2.2,0.9,3c0.6,0.8,1.5,1.2,2.5,1.2c0.7,0,1.4-0.1,1.9-0.3
			s1-0.5,1.3-0.9l0.5,0.8c-0.4,0.4-0.9,0.8-1.5,1C184.4,197.1,183.6,197.2,182.8,197.2z M182.6,187.3c-0.9,0-1.6,0.3-2.2,1
			c-0.6,0.7-0.9,1.5-1,2.5l0,0h6.2v-0.3c0-0.9-0.3-1.7-0.8-2.3C184.3,187.6,183.6,187.3,182.6,187.3z"/>
		<path class="st41" d="M191,183.8v2.7h2.3v1H191v6.9c0,0.7,0.1,1.2,0.4,1.5s0.6,0.4,1,0.4c0.2,0,0.4,0,0.6,0s0.4,0,0.6-0.1l0.2,0.9
			c-0.2,0.1-0.4,0.2-0.7,0.2s-0.6,0.1-0.8,0.1c-0.7,0-1.3-0.2-1.7-0.7s-0.6-1.2-0.6-2.2v-6.9H188v-1h1.8v-2.7H191z"/>
		<path class="st41" d="M196.8,186.5l0.1,1.8c0.3-0.7,0.8-1.2,1.4-1.5s1.3-0.5,2-0.5c1.1,0,2,0.3,2.6,1s0.9,1.8,0.9,3.3v6.4h-1.2
			v-6.4c0-1.2-0.2-2.1-0.7-2.6c-0.5-0.5-1.1-0.8-1.9-0.8c-0.8,0-1.5,0.2-2,0.7s-0.9,1-1.1,1.7v7.4h-1.2v-10.6H196.8z"/>
		<path class="st41" d="M213.6,197c-0.1-0.4-0.1-0.7-0.2-0.9s0-0.5,0-0.8c-0.4,0.6-0.9,1-1.6,1.4s-1.4,0.5-2.2,0.5
			c-1,0-1.8-0.3-2.4-0.8s-0.9-1.3-0.9-2.2c0-1,0.4-1.8,1.3-2.3s2-0.9,3.4-0.9h2.3v-1.3c0-0.8-0.2-1.3-0.7-1.8s-1.2-0.6-2-0.6
			c-0.8,0-1.5,0.2-2,0.6s-0.8,0.9-0.8,1.5l-1.1,0l0-0.1c0-0.8,0.3-1.5,1.1-2.1s1.7-0.9,2.9-0.9c1.2,0,2.1,0.3,2.8,0.9
			s1.1,1.4,1.1,2.5v5.2c0,0.4,0,0.7,0.1,1.1s0.1,0.7,0.2,1H213.6z M209.8,196.2c0.8,0,1.6-0.2,2.2-0.6s1.1-0.9,1.4-1.5v-2.2H211
			c-1.1,0-1.9,0.2-2.5,0.7s-1,1-1,1.7c0,0.6,0.2,1,0.6,1.4S209.1,196.2,209.8,196.2z"/>
		<path class="st41" d="M229.4,195.3c-0.3,0.6-0.8,1.1-1.4,1.4s-1.3,0.5-2,0.5c-1.1,0-2-0.4-2.6-1.1s-0.9-1.9-0.9-3.5v-6.1h1.2v6.2
			c0,1.3,0.2,2.2,0.7,2.8c0.4,0.6,1.1,0.8,1.9,0.8c0.9,0,1.6-0.2,2.1-0.6c0.5-0.4,0.9-0.9,1.1-1.6v-7.5h1.2V197h-1L229.4,195.3z"/>
		<path class="st41" d="M240,194.3c0-0.5-0.2-0.9-0.6-1.3s-1.1-0.7-2.2-0.9c-1.3-0.3-2.2-0.6-2.8-1.1s-0.9-1.1-0.9-1.9
			c0-0.8,0.3-1.5,1-2s1.6-0.8,2.7-0.8c1.2,0,2.1,0.3,2.8,0.9s1,1.3,1,2.2l0,0.1h-1.1c0-0.6-0.2-1.1-0.7-1.5s-1.2-0.6-2-0.6
			c-0.9,0-1.5,0.2-1.9,0.5c-0.4,0.4-0.6,0.8-0.6,1.3c0,0.5,0.2,0.9,0.6,1.2c0.4,0.3,1.1,0.6,2.2,0.8c1.3,0.3,2.2,0.7,2.8,1.2
			c0.6,0.5,0.9,1.1,0.9,2c0,0.9-0.4,1.6-1.1,2.1c-0.7,0.5-1.7,0.8-2.8,0.8c-1.3,0-2.3-0.3-3-0.9s-1.1-1.3-1-2.2l0-0.1h1.1
			c0,0.8,0.4,1.3,0.9,1.7s1.3,0.5,2,0.5c0.8,0,1.5-0.2,2-0.6C239.7,195.3,240,194.9,240,194.3z"/>
		<path class="st41" d="M245.1,197H244v-15.2h1.2V197z"/>
		<path class="st41" d="M255.3,195.3c-0.3,0.6-0.8,1.1-1.4,1.4s-1.3,0.5-2,0.5c-1.1,0-2-0.4-2.6-1.1s-0.9-1.9-0.9-3.5v-6.1h1.2v6.2
			c0,1.3,0.2,2.2,0.7,2.8c0.4,0.6,1.1,0.8,1.9,0.8c0.9,0,1.6-0.2,2.1-0.6c0.5-0.4,0.9-0.9,1.1-1.6v-7.5h1.2V197h-1L255.3,195.3z"/>
		<path class="st41" d="M259,191.8c0-1.7,0.4-3,1.1-4s1.7-1.5,3-1.5c0.7,0,1.4,0.2,1.9,0.5s1,0.8,1.4,1.4l0.1-1.7h1v10.4
			c0,1.4-0.4,2.4-1.1,3.2s-1.8,1.2-3.1,1.2c-0.5,0-1-0.1-1.6-0.2s-1.1-0.3-1.5-0.5l0.3-1c0.4,0.2,0.9,0.4,1.3,0.5s1,0.2,1.5,0.2
			c1,0,1.8-0.3,2.3-0.9s0.8-1.4,0.8-2.5v-1.3c-0.4,0.5-0.8,0.9-1.4,1.2s-1.2,0.4-1.9,0.4c-1.3,0-2.3-0.5-3-1.4s-1.1-2.2-1.1-3.8
			V191.8z M260.2,192c0,1.3,0.3,2.3,0.8,3.1s1.3,1.1,2.3,1.1c0.8,0,1.4-0.2,1.9-0.5c0.5-0.3,0.9-0.8,1.2-1.4v-4.9
			c-0.3-0.6-0.6-1.1-1.1-1.5s-1.1-0.6-1.9-0.6c-1,0-1.8,0.4-2.3,1.3s-0.8,1.9-0.8,3.3V192z"/>
		<path class="st41" d="M277.3,197c-0.1-0.4-0.1-0.7-0.2-0.9s0-0.5,0-0.8c-0.4,0.6-0.9,1-1.6,1.4s-1.4,0.5-2.2,0.5
			c-1,0-1.8-0.3-2.4-0.8s-0.9-1.3-0.9-2.2c0-1,0.4-1.8,1.3-2.3s2-0.9,3.4-0.9h2.3v-1.3c0-0.8-0.2-1.3-0.7-1.8s-1.2-0.6-2-0.6
			c-0.8,0-1.5,0.2-2,0.6s-0.8,0.9-0.8,1.5l-1.1,0l0-0.1c0-0.8,0.3-1.5,1.1-2.1s1.7-0.9,2.9-0.9c1.2,0,2.1,0.3,2.8,0.9
			s1.1,1.4,1.1,2.5v5.2c0,0.4,0,0.7,0.1,1.1s0.1,0.7,0.2,1H277.3z M273.5,196.2c0.8,0,1.6-0.2,2.2-0.6s1.1-0.9,1.4-1.5v-2.2h-2.4
			c-1.1,0-1.9,0.2-2.5,0.7s-1,1-1,1.7c0,0.6,0.2,1,0.6,1.4S272.8,196.2,273.5,196.2z"/>
		<path class="st41" d="M289.9,191.5h-4.7v-1h4.7V191.5z"/>
		<path class="st41" d="M297.8,186.5l0.1,1.7c0.3-0.6,0.8-1.1,1.4-1.4s1.2-0.5,2-0.5c0.8,0,1.5,0.2,2,0.6s0.9,1,1.2,1.8
			c0.3-0.7,0.8-1.3,1.4-1.7s1.3-0.6,2.2-0.6c1.1,0,2,0.4,2.6,1.1s0.9,1.9,0.9,3.5v6.2h-1.2v-6.2c0-1.3-0.2-2.2-0.7-2.8
			c-0.5-0.5-1.1-0.8-1.9-0.8c-0.9,0-1.6,0.3-2.1,0.9c-0.5,0.6-0.8,1.3-0.9,2.2c0,0,0,0.1,0,0.2c0,0.1,0,0.1,0,0.2v6.4h-1.2v-6.2
			c0-1.3-0.2-2.2-0.7-2.7c-0.5-0.6-1.1-0.8-1.9-0.8c-0.8,0-1.5,0.2-2,0.6c-0.5,0.4-0.8,1-1,1.7v7.4h-1.2v-10.6H297.8z"/>
		<path class="st41" d="M313.9,191.6c0-1.6,0.4-2.8,1.3-3.8s2-1.5,3.4-1.5c1.4,0,2.5,0.5,3.4,1.5s1.3,2.3,1.3,3.8v0.3
			c0,1.6-0.4,2.8-1.3,3.8s-2,1.5-3.4,1.5c-1.4,0-2.6-0.5-3.4-1.5s-1.3-2.3-1.3-3.8V191.6z M315.1,191.9c0,1.2,0.3,2.3,0.9,3.1
			c0.6,0.8,1.5,1.2,2.6,1.2c1.1,0,1.9-0.4,2.6-1.2c0.6-0.8,0.9-1.9,0.9-3.1v-0.3c0-1.2-0.3-2.2-0.9-3.1c-0.6-0.8-1.5-1.3-2.6-1.3
			s-2,0.4-2.6,1.3c-0.6,0.8-0.9,1.9-0.9,3.1V191.9z"/>
		<path class="st41" d="M334.2,192c0,1.6-0.4,2.8-1.1,3.8s-1.7,1.4-3,1.4c-0.8,0-1.4-0.2-2-0.5s-1-0.8-1.4-1.3l-0.1,1.6h-1v-15.2
			h1.2v6.3c0.4-0.6,0.8-1,1.3-1.4s1.2-0.5,2-0.5c1.3,0,2.3,0.5,3,1.5s1.1,2.4,1.1,4V192z M333,191.8c0-1.4-0.3-2.5-0.8-3.3
			c-0.5-0.8-1.3-1.3-2.3-1.3c-0.8,0-1.5,0.2-2,0.6s-0.9,0.9-1.1,1.6v4.8c0.3,0.6,0.6,1.1,1.2,1.5c0.5,0.4,1.2,0.5,1.9,0.5
			c1,0,1.8-0.4,2.3-1.1s0.8-1.8,0.8-3.1V191.8z"/>
		<path class="st41" d="M338.2,183.4H337v-1.6h1.2V183.4z M338.2,197H337v-10.6h1.2V197z"/>
		<path class="st41" d="M342.7,197h-1.2v-15.2h1.2V197z"/>
		<path class="st41" d="M347,186.5l0.1,1.8c0.3-0.7,0.8-1.2,1.4-1.5s1.3-0.5,2-0.5c1.1,0,2,0.3,2.6,1s0.9,1.8,0.9,3.3v6.4h-1.2v-6.4
			c0-1.2-0.2-2.1-0.7-2.6c-0.5-0.5-1.1-0.8-1.9-0.8c-0.8,0-1.5,0.2-2,0.7s-0.9,1-1.1,1.7v7.4h-1.2v-10.6H347z"/>
		<path class="st41" d="M356.4,191.6c0-1.6,0.4-2.8,1.3-3.8s2-1.5,3.4-1.5c1.4,0,2.5,0.5,3.4,1.5s1.3,2.3,1.3,3.8v0.3
			c0,1.6-0.4,2.8-1.3,3.8s-2,1.5-3.4,1.5c-1.4,0-2.6-0.5-3.4-1.5s-1.3-2.3-1.3-3.8V191.6z M357.6,191.9c0,1.2,0.3,2.3,0.9,3.1
			c0.6,0.8,1.5,1.2,2.6,1.2c1.1,0,1.9-0.4,2.6-1.2c0.6-0.8,0.9-1.9,0.9-3.1v-0.3c0-1.2-0.3-2.2-0.9-3.1c-0.6-0.8-1.5-1.3-2.6-1.3
			s-2,0.4-2.6,1.3c-0.6,0.8-0.9,1.9-0.9,3.1V191.9z"/>
		<path class="st41" d="M374.5,194.3c0-0.5-0.2-0.9-0.6-1.3s-1.1-0.7-2.2-0.9c-1.3-0.3-2.2-0.6-2.8-1.1s-0.9-1.1-0.9-1.9
			c0-0.8,0.3-1.5,1-2s1.6-0.8,2.7-0.8c1.2,0,2.1,0.3,2.8,0.9s1,1.3,1,2.2l0,0.1h-1.1c0-0.6-0.2-1.1-0.7-1.5s-1.2-0.6-2-0.6
			c-0.9,0-1.5,0.2-1.9,0.5c-0.4,0.4-0.6,0.8-0.6,1.3c0,0.5,0.2,0.9,0.6,1.2c0.4,0.3,1.1,0.6,2.2,0.8c1.3,0.3,2.2,0.7,2.8,1.2
			c0.6,0.5,0.9,1.1,0.9,2c0,0.9-0.4,1.6-1.1,2.1c-0.7,0.5-1.7,0.8-2.8,0.8c-1.3,0-2.3-0.3-3-0.9s-1.1-1.3-1-2.2l0-0.1h1.1
			c0,0.8,0.4,1.3,0.9,1.7s1.3,0.5,2,0.5c0.8,0,1.5-0.2,2-0.6C374.3,195.3,374.5,194.9,374.5,194.3z"/>
		<path class="st41" d="M380.2,183.8v2.7h2.3v1h-2.3v6.9c0,0.7,0.1,1.2,0.4,1.5s0.6,0.4,1,0.4c0.2,0,0.4,0,0.6,0s0.4,0,0.6-0.1
			l0.2,0.9c-0.2,0.1-0.4,0.2-0.7,0.2s-0.6,0.1-0.8,0.1c-0.7,0-1.3-0.2-1.7-0.7s-0.6-1.2-0.6-2.2v-6.9h-1.8v-1h1.8v-2.7H380.2z"/>
		<path class="st41" d="M398.4,192c0,1.6-0.4,2.8-1.1,3.8s-1.7,1.4-3,1.4c-0.8,0-1.4-0.2-2-0.5s-1-0.8-1.4-1.3l-0.1,1.6h-1v-15.2
			h1.2v6.3c0.4-0.6,0.8-1,1.3-1.4s1.2-0.5,2-0.5c1.3,0,2.3,0.5,3,1.5s1.1,2.4,1.1,4V192z M397.2,191.8c0-1.4-0.3-2.5-0.8-3.3
			c-0.5-0.8-1.3-1.3-2.3-1.3c-0.8,0-1.5,0.2-2,0.6s-0.9,0.9-1.1,1.6v4.8c0.3,0.6,0.6,1.1,1.2,1.5c0.5,0.4,1.2,0.5,1.9,0.5
			c1,0,1.8-0.4,2.3-1.1s0.8-1.8,0.8-3.1V191.8z"/>
		<path class="st41" d="M405,197.2c-1.3,0-2.4-0.5-3.3-1.5s-1.3-2.2-1.3-3.7v-0.5c0-1.5,0.4-2.8,1.3-3.8s1.9-1.5,3.2-1.5
			c1.3,0,2.3,0.4,3.1,1.2s1.1,1.9,1.1,3.3v1h-7.5v0.3c0,1.2,0.3,2.2,0.9,3c0.6,0.8,1.5,1.2,2.5,1.2c0.7,0,1.4-0.1,1.9-0.3
			s1-0.5,1.3-0.9l0.5,0.8c-0.4,0.4-0.9,0.8-1.5,1C406.5,197.1,405.8,197.2,405,197.2z M404.8,187.3c-0.9,0-1.6,0.3-2.2,1
			c-0.6,0.7-0.9,1.5-1,2.5l0,0h6.2v-0.3c0-0.9-0.3-1.7-0.8-2.3C406.5,187.6,405.8,187.3,404.8,187.3z"/>
		<path class="st41" d="M412.1,196h6.9v1h-8.3v-0.9l6.4-8.7h-6.2v-1h7.6v0.9L412.1,196z"/>
		<path class="st41" d="M434.5,192c0,1.6-0.4,2.8-1.1,3.8s-1.7,1.4-3,1.4c-0.8,0-1.4-0.2-2-0.5s-1-0.8-1.4-1.3L427,197h-1v-15.2h1.2
			v6.3c0.4-0.6,0.8-1,1.3-1.4s1.2-0.5,2-0.5c1.3,0,2.3,0.5,3,1.5s1.1,2.4,1.1,4V192z M433.3,191.8c0-1.4-0.3-2.5-0.8-3.3
			c-0.5-0.8-1.3-1.3-2.3-1.3c-0.8,0-1.5,0.2-2,0.6s-0.9,0.9-1.1,1.6v4.8c0.3,0.6,0.6,1.1,1.2,1.5c0.5,0.4,1.2,0.5,1.9,0.5
			c1,0,1.8-0.4,2.3-1.1s0.8-1.8,0.8-3.1V191.8z"/>
		<path class="st41" d="M442,187.5l-0.9-0.1c-0.7,0-1.3,0.2-1.8,0.6s-0.8,1-1,1.7v7.3h-1.2v-10.6h1l0.1,1.8v0.1
			c0.3-0.7,0.7-1.2,1.2-1.5s1.1-0.5,1.8-0.5c0.1,0,0.3,0,0.4,0s0.3,0,0.3,0.1L442,187.5z"/>
		<path class="st41" d="M445.2,183.4H444v-1.6h1.2V183.4z M445.2,197H444v-10.6h1.2V197z"/>
		<path class="st41" d="M448,191.8c0-1.7,0.4-3,1.1-4s1.7-1.5,3-1.5c0.7,0,1.4,0.2,1.9,0.5s1,0.8,1.4,1.4l0.1-1.7h1v10.4
			c0,1.4-0.4,2.4-1.1,3.2s-1.8,1.2-3.1,1.2c-0.5,0-1-0.1-1.6-0.2s-1.1-0.3-1.5-0.5l0.3-1c0.4,0.2,0.9,0.4,1.3,0.5s1,0.2,1.5,0.2
			c1,0,1.8-0.3,2.3-0.9s0.8-1.4,0.8-2.5v-1.3c-0.4,0.5-0.8,0.9-1.4,1.2s-1.2,0.4-1.9,0.4c-1.3,0-2.3-0.5-3-1.4s-1.1-2.2-1.1-3.8
			V191.8z M449.2,192c0,1.3,0.3,2.3,0.8,3.1s1.3,1.1,2.3,1.1c0.8,0,1.4-0.2,1.9-0.5c0.5-0.3,0.9-0.8,1.2-1.4v-4.9
			c-0.3-0.6-0.6-1.1-1.1-1.5s-1.1-0.6-1.9-0.6c-1,0-1.8,0.4-2.3,1.3s-0.8,1.9-0.8,3.3V192z"/>
		<path class="st41" d="M463.6,197.2c-1.3,0-2.4-0.5-3.3-1.5s-1.3-2.2-1.3-3.7v-0.5c0-1.5,0.4-2.8,1.3-3.8s1.9-1.5,3.2-1.5
			c1.3,0,2.3,0.4,3.1,1.2s1.1,1.9,1.1,3.3v1h-7.5v0.3c0,1.2,0.3,2.2,0.9,3c0.6,0.8,1.5,1.2,2.5,1.2c0.7,0,1.4-0.1,1.9-0.3
			s1-0.5,1.3-0.9l0.5,0.8c-0.4,0.4-0.9,0.8-1.5,1C465.1,197.1,464.4,197.2,463.6,197.2z M463.4,187.3c-0.9,0-1.6,0.3-2.2,1
			c-0.6,0.7-0.9,1.5-1,2.5l0,0h6.2v-0.3c0-0.9-0.3-1.7-0.8-2.3C465.1,187.6,464.3,187.3,463.4,187.3z"/>
	</g>
	<g>
		<path class="st27" d="M104.5,227.5v-12.4l10.7,6.2L104.5,227.5z"/>
	</g>
	<g>
		<path class="st41" d="M123.2,220.6v6.4h-1.2v-14.2h4.8c1.5,0,2.7,0.3,3.5,1s1.2,1.6,1.2,2.9c0,0.8-0.2,1.4-0.7,2s-1.1,1-1.8,1.3
			c0.9,0.2,1.5,0.6,1.9,1.2s0.6,1.3,0.6,2.1v1.3c0,0.4,0.1,0.8,0.2,1.2s0.3,0.6,0.5,0.9v0.2h-1.2c-0.2-0.2-0.4-0.6-0.5-1
			s-0.1-0.9-0.1-1.3v-1.3c0-0.9-0.3-1.6-0.8-2.1s-1.3-0.8-2.4-0.8H123.2z M123.2,219.6h3.5c1.3,0,2.2-0.3,2.8-0.8s0.9-1.2,0.9-2.1
			c0-0.9-0.3-1.7-0.9-2.2s-1.5-0.8-2.7-0.8h-3.7V219.6z"/>
		<path class="st41" d="M141.6,227c-0.1-0.4-0.1-0.7-0.2-0.9s0-0.5,0-0.8c-0.4,0.6-0.9,1-1.6,1.4s-1.4,0.5-2.2,0.5
			c-1,0-1.8-0.3-2.4-0.8s-0.9-1.3-0.9-2.2c0-1,0.4-1.8,1.3-2.3s2-0.9,3.4-0.9h2.3v-1.3c0-0.8-0.2-1.3-0.7-1.8s-1.2-0.6-2-0.6
			c-0.8,0-1.5,0.2-2,0.6s-0.8,0.9-0.8,1.5l-1.1,0l0-0.1c0-0.8,0.3-1.5,1.1-2.1s1.7-0.9,2.9-0.9c1.2,0,2.1,0.3,2.8,0.9
			s1.1,1.4,1.1,2.5v5.2c0,0.4,0,0.7,0.1,1.1s0.1,0.7,0.2,1H141.6z M137.8,226.2c0.8,0,1.6-0.2,2.2-0.6s1.1-0.9,1.4-1.5v-2.2h-2.4
			c-1.1,0-1.9,0.2-2.5,0.7s-1,1-1,1.7c0,0.6,0.2,1,0.6,1.4S137.1,226.2,137.8,226.2z"/>
		<path class="st41" d="M146.5,226h6.9v1H145v-0.9l6.4-8.7h-6.2v-1h7.6v0.9L146.5,226z"/>
		<path class="st41" d="M156.5,216.5l0.1,1.8c0.3-0.7,0.8-1.2,1.4-1.5s1.3-0.5,2-0.5c1.1,0,2,0.3,2.6,1s0.9,1.8,0.9,3.3v6.4h-1.2
			v-6.4c0-1.2-0.2-2.1-0.7-2.6c-0.5-0.5-1.1-0.8-1.9-0.8c-0.8,0-1.5,0.2-2,0.7s-0.9,1-1.1,1.7v7.4h-1.2v-10.6H156.5z"/>
		<path class="st41" d="M166,221.6c0-1.6,0.4-2.8,1.3-3.8s2-1.5,3.4-1.5c1.4,0,2.5,0.5,3.4,1.5s1.3,2.3,1.3,3.8v0.3
			c0,1.6-0.4,2.8-1.3,3.8s-2,1.5-3.4,1.5c-1.4,0-2.6-0.5-3.4-1.5s-1.3-2.3-1.3-3.8V221.6z M167.1,221.9c0,1.2,0.3,2.3,0.9,3.1
			c0.6,0.8,1.5,1.2,2.6,1.2c1.1,0,1.9-0.4,2.6-1.2c0.6-0.8,0.9-1.9,0.9-3.1v-0.3c0-1.2-0.3-2.2-0.9-3.1c-0.6-0.8-1.5-1.3-2.6-1.3
			s-2,0.4-2.6,1.3c-0.6,0.8-0.9,1.9-0.9,3.1V221.9z"/>
		<path class="st41" d="M180.6,224.4l0.3,1.2h0.1l0.4-1.2l2.9-7.9h1.2l-4,10.6h-0.9l-4-10.6h1.2L180.6,224.4z"/>
		<path class="st41" d="M192.3,217.5l-0.9-0.1c-0.7,0-1.3,0.2-1.8,0.6s-0.8,1-1,1.7v7.3h-1.2v-10.6h1l0.1,1.8v0.1
			c0.3-0.7,0.7-1.2,1.2-1.5s1.1-0.5,1.8-0.5c0.1,0,0.3,0,0.4,0s0.3,0,0.3,0.1L192.3,217.5z"/>
		<path class="st41" d="M200.5,224.3c0-0.5-0.2-0.9-0.6-1.3s-1.1-0.7-2.2-0.9c-1.3-0.3-2.2-0.6-2.8-1.1s-0.9-1.1-0.9-1.9
			c0-0.8,0.3-1.5,1-2s1.6-0.8,2.7-0.8c1.2,0,2.1,0.3,2.8,0.9s1,1.3,1,2.2l0,0.1h-1.1c0-0.6-0.2-1.1-0.7-1.5s-1.2-0.6-2-0.6
			c-0.9,0-1.5,0.2-1.9,0.5c-0.4,0.4-0.6,0.8-0.6,1.3c0,0.5,0.2,0.9,0.6,1.2c0.4,0.3,1.1,0.6,2.2,0.8c1.3,0.3,2.2,0.7,2.8,1.2
			c0.6,0.5,0.9,1.1,0.9,2c0,0.9-0.4,1.6-1.1,2.1c-0.7,0.5-1.7,0.8-2.8,0.8c-1.3,0-2.3-0.3-3-0.9s-1.1-1.3-1-2.2l0-0.1h1.1
			c0,0.8,0.4,1.3,0.9,1.7s1.3,0.5,2,0.5c0.8,0,1.5-0.2,2-0.6C200.3,225.3,200.5,224.9,200.5,224.3z"/>
		<path class="st41" d="M205.4,216.5l0.1,1.8c0.3-0.7,0.8-1.2,1.4-1.5s1.3-0.5,2-0.5c1.1,0,2,0.3,2.6,1s0.9,1.8,0.9,3.3v6.4h-1.2
			v-6.4c0-1.2-0.2-2.1-0.7-2.6c-0.5-0.5-1.1-0.8-1.9-0.8c-0.8,0-1.5,0.2-2,0.7s-0.9,1-1.1,1.7v7.4h-1.2v-10.6H205.4z"/>
		<path class="st41" d="M222.2,227c-0.1-0.4-0.1-0.7-0.2-0.9s0-0.5,0-0.8c-0.4,0.6-0.9,1-1.6,1.4s-1.4,0.5-2.2,0.5
			c-1,0-1.8-0.3-2.4-0.8s-0.9-1.3-0.9-2.2c0-1,0.4-1.8,1.3-2.3s2-0.9,3.4-0.9h2.3v-1.3c0-0.8-0.2-1.3-0.7-1.8s-1.2-0.6-2-0.6
			c-0.8,0-1.5,0.2-2,0.6s-0.8,0.9-0.8,1.5l-1.1,0l0-0.1c0-0.8,0.3-1.5,1.1-2.1s1.7-0.9,2.9-0.9c1.2,0,2.1,0.3,2.8,0.9
			s1.1,1.4,1.1,2.5v5.2c0,0.4,0,0.7,0.1,1.1s0.1,0.7,0.2,1H222.2z M218.4,226.2c0.8,0,1.6-0.2,2.2-0.6s1.1-0.9,1.4-1.5v-2.2h-2.4
			c-1.1,0-1.9,0.2-2.5,0.7s-1,1-1,1.7c0,0.6,0.2,1,0.6,1.4S217.7,226.2,218.4,226.2z"/>
		<path class="st41" d="M232.4,213.4h-1.2v-1.6h1.2V213.4z M232.4,227h-1.2v-10.6h1.2V227z"/>
		<path class="st41" d="M241.6,216.5l0.1,1.8c0.3-0.7,0.8-1.2,1.4-1.5s1.3-0.5,2-0.5c1.1,0,2,0.3,2.6,1s0.9,1.8,0.9,3.3v6.4h-1.2
			v-6.4c0-1.2-0.2-2.1-0.7-2.6c-0.5-0.5-1.1-0.8-1.9-0.8c-0.8,0-1.5,0.2-2,0.7s-0.9,1-1.1,1.7v7.4h-1.2v-10.6H241.6z"/>
		<path class="st41" d="M251,221.6c0-1.6,0.4-2.8,1.3-3.8s2-1.5,3.4-1.5c1.4,0,2.5,0.5,3.4,1.5s1.3,2.3,1.3,3.8v0.3
			c0,1.6-0.4,2.8-1.3,3.8s-2,1.5-3.4,1.5c-1.4,0-2.6-0.5-3.4-1.5s-1.3-2.3-1.3-3.8V221.6z M252.2,221.9c0,1.2,0.3,2.3,0.9,3.1
			c0.6,0.8,1.5,1.2,2.6,1.2c1.1,0,1.9-0.4,2.6-1.2c0.6-0.8,0.9-1.9,0.9-3.1v-0.3c0-1.2-0.3-2.2-0.9-3.1c-0.6-0.8-1.5-1.3-2.6-1.3
			s-2,0.4-2.6,1.3c-0.6,0.8-0.9,1.9-0.9,3.1V221.9z"/>
		<path class="st41" d="M265.7,224.4l0.3,1.2h0.1l0.4-1.2l2.9-7.9h1.2l-4,10.6h-0.9l-4-10.6h1.2L265.7,224.4z"/>
		<path class="st41" d="M279,227c-0.1-0.4-0.1-0.7-0.2-0.9s0-0.5,0-0.8c-0.4,0.6-0.9,1-1.6,1.4s-1.4,0.5-2.2,0.5
			c-1,0-1.8-0.3-2.4-0.8s-0.9-1.3-0.9-2.2c0-1,0.4-1.8,1.3-2.3s2-0.9,3.4-0.9h2.3v-1.3c0-0.8-0.2-1.3-0.7-1.8s-1.2-0.6-2-0.6
			c-0.8,0-1.5,0.2-2,0.6s-0.8,0.9-0.8,1.5l-1.1,0l0-0.1c0-0.8,0.3-1.5,1.1-2.1s1.7-0.9,2.9-0.9c1.2,0,2.1,0.3,2.8,0.9
			s1.1,1.4,1.1,2.5v5.2c0,0.4,0,0.7,0.1,1.1s0.1,0.7,0.2,1H279z M275.2,226.2c0.8,0,1.6-0.2,2.2-0.6s1.1-0.9,1.4-1.5v-2.2h-2.4
			c-1.1,0-1.9,0.2-2.5,0.7s-1,1-1,1.7c0,0.6,0.2,1,0.6,1.4S274.5,226.2,275.2,226.2z"/>
		<path class="st41" d="M296.5,222c0,1.6-0.4,2.8-1.1,3.8s-1.7,1.4-3,1.4c-0.7,0-1.4-0.1-1.9-0.4s-1-0.7-1.4-1.2v5.5H288v-14.6h1
			l0.1,1.6c0.4-0.6,0.8-1,1.4-1.4s1.2-0.5,2-0.5c1.3,0,2.3,0.5,3,1.5s1.1,2.4,1.1,4V222z M295.3,221.8c0-1.3-0.3-2.4-0.8-3.3
			c-0.5-0.8-1.3-1.3-2.3-1.3c-0.8,0-1.4,0.2-1.9,0.6s-0.9,0.9-1.1,1.5v5.1c0.3,0.6,0.7,1,1.2,1.4c0.5,0.3,1.1,0.5,1.9,0.5
			c1,0,1.8-0.4,2.3-1.2c0.5-0.8,0.8-1.8,0.8-3.1V221.8z"/>
		<path class="st41" d="M304,217.5l-0.9-0.1c-0.7,0-1.3,0.2-1.8,0.6s-0.8,1-1,1.7v7.3h-1.2v-10.6h1l0.1,1.8v0.1
			c0.3-0.7,0.7-1.2,1.2-1.5s1.1-0.5,1.8-0.5c0.1,0,0.3,0,0.4,0s0.3,0,0.3,0.1L304,217.5z"/>
		<path class="st41" d="M309.7,227.2c-1.3,0-2.4-0.5-3.3-1.5s-1.3-2.2-1.3-3.7v-0.5c0-1.5,0.4-2.8,1.3-3.8s1.9-1.5,3.2-1.5
			c1.3,0,2.3,0.4,3.1,1.2s1.1,1.9,1.1,3.3v1h-7.5v0.3c0,1.2,0.3,2.2,0.9,3c0.6,0.8,1.5,1.2,2.5,1.2c0.7,0,1.4-0.1,1.9-0.3
			s1-0.5,1.3-0.9l0.5,0.8c-0.4,0.4-0.9,0.8-1.5,1C311.3,227.1,310.5,227.2,309.7,227.2z M309.5,217.3c-0.9,0-1.6,0.3-2.2,1
			c-0.6,0.7-0.9,1.5-1,2.5l0,0h6.2v-0.3c0-0.9-0.3-1.7-0.8-2.3C311.2,217.6,310.5,217.3,309.5,217.3z"/>
		<path class="st41" d="M317,216.5l0.1,1.7c0.3-0.6,0.8-1.1,1.4-1.4s1.2-0.5,2-0.5c0.8,0,1.5,0.2,2,0.6s0.9,1,1.2,1.8
			c0.3-0.7,0.8-1.3,1.4-1.7s1.3-0.6,2.2-0.6c1.1,0,2,0.4,2.6,1.1s0.9,1.9,0.9,3.5v6.2h-1.2v-6.2c0-1.3-0.2-2.2-0.7-2.8
			c-0.5-0.5-1.1-0.8-1.9-0.8c-0.9,0-1.6,0.3-2.1,0.9c-0.5,0.6-0.8,1.3-0.9,2.2c0,0,0,0.1,0,0.2c0,0.1,0,0.1,0,0.2v6.4h-1.2v-6.2
			c0-1.3-0.2-2.2-0.7-2.7c-0.5-0.6-1.1-0.8-1.9-0.8c-0.8,0-1.5,0.2-2,0.6c-0.5,0.4-0.8,1-1,1.7v7.4H316v-10.6H317z"/>
		<path class="st41" d="M335.1,213.4h-1.2v-1.6h1.2V213.4z M335.1,227h-1.2v-10.6h1.2V227z"/>
		<path class="st41" d="M345.2,225.3c-0.3,0.6-0.8,1.1-1.4,1.4s-1.3,0.5-2,0.5c-1.1,0-2-0.4-2.6-1.1s-0.9-1.9-0.9-3.5v-6.1h1.2v6.2
			c0,1.3,0.2,2.2,0.7,2.8c0.4,0.6,1.1,0.8,1.9,0.8c0.9,0,1.6-0.2,2.1-0.6c0.5-0.4,0.9-0.9,1.1-1.6v-7.5h1.2V227h-1L345.2,225.3z"/>
		<path class="st41" d="M350.4,216.5l0.1,1.7c0.3-0.6,0.8-1.1,1.4-1.4s1.2-0.5,2-0.5c0.8,0,1.5,0.2,2,0.6s0.9,1,1.2,1.8
			c0.3-0.7,0.8-1.3,1.4-1.7s1.3-0.6,2.2-0.6c1.1,0,2,0.4,2.6,1.1s0.9,1.9,0.9,3.5v6.2h-1.2v-6.2c0-1.3-0.2-2.2-0.7-2.8
			c-0.5-0.5-1.1-0.8-1.9-0.8c-0.9,0-1.6,0.3-2.1,0.9c-0.5,0.6-0.8,1.3-0.9,2.2c0,0,0,0.1,0,0.2c0,0.1,0,0.1,0,0.2v6.4h-1.2v-6.2
			c0-1.3-0.2-2.2-0.7-2.7c-0.5-0.6-1.1-0.8-1.9-0.8c-0.8,0-1.5,0.2-2,0.6c-0.5,0.4-0.8,1-1,1.7v7.4h-1.2v-10.6H350.4z"/>
		<path class="st41" d="M372.9,227v-9.6h-1.7v-1h1.7v-1.5c0-1.1,0.3-1.9,0.8-2.5s1.3-0.9,2.2-0.9c0.2,0,0.4,0,0.7,0s0.4,0.1,0.7,0.1
			l-0.1,1c-0.2,0-0.3-0.1-0.5-0.1s-0.4,0-0.6,0c-0.6,0-1.1,0.2-1.5,0.6s-0.5,1-0.5,1.7v1.5h2.5v1H374v9.6H372.9z"/>
		<path class="st41" d="M379.9,227h-1.2v-15.2h1.2V227z"/>
		<path class="st41" d="M382.5,221.6c0-1.6,0.4-2.8,1.3-3.8s2-1.5,3.4-1.5c1.4,0,2.5,0.5,3.4,1.5s1.3,2.3,1.3,3.8v0.3
			c0,1.6-0.4,2.8-1.3,3.8s-2,1.5-3.4,1.5c-1.4,0-2.6-0.5-3.4-1.5s-1.3-2.3-1.3-3.8V221.6z M383.6,221.9c0,1.2,0.3,2.3,0.9,3.1
			c0.6,0.8,1.5,1.2,2.6,1.2c1.1,0,1.9-0.4,2.6-1.2c0.6-0.8,0.9-1.9,0.9-3.1v-0.3c0-1.2-0.3-2.2-0.9-3.1c-0.6-0.8-1.5-1.3-2.6-1.3
			s-2,0.4-2.6,1.3c-0.6,0.8-0.9,1.9-0.9,3.1V221.9z"/>
		<path class="st41" d="M396.1,213.8v2.7h2.3v1h-2.3v6.9c0,0.7,0.1,1.2,0.4,1.5s0.6,0.4,1,0.4c0.2,0,0.4,0,0.6,0s0.4,0,0.6-0.1
			l0.2,0.9c-0.2,0.1-0.4,0.2-0.7,0.2s-0.6,0.1-0.8,0.1c-0.7,0-1.3-0.2-1.7-0.7s-0.6-1.2-0.6-2.2v-6.9h-1.8v-1h1.8v-2.7H396.1z"/>
		<path class="st41" d="M407.6,227c-0.1-0.4-0.1-0.7-0.2-0.9s0-0.5,0-0.8c-0.4,0.6-0.9,1-1.6,1.4s-1.4,0.5-2.2,0.5
			c-1,0-1.8-0.3-2.4-0.8s-0.9-1.3-0.9-2.2c0-1,0.4-1.8,1.3-2.3s2-0.9,3.4-0.9h2.3v-1.3c0-0.8-0.2-1.3-0.7-1.8s-1.2-0.6-2-0.6
			c-0.8,0-1.5,0.2-2,0.6s-0.8,0.9-0.8,1.5l-1.1,0l0-0.1c0-0.8,0.3-1.5,1.1-2.1s1.7-0.9,2.9-0.9c1.2,0,2.1,0.3,2.8,0.9
			s1.1,1.4,1.1,2.5v5.2c0,0.4,0,0.7,0.1,1.1s0.1,0.7,0.2,1H407.6z M403.7,226.2c0.8,0,1.6-0.2,2.2-0.6s1.1-0.9,1.4-1.5v-2.2H405
			c-1.1,0-1.9,0.2-2.5,0.7s-1,1-1,1.7c0,0.6,0.2,1,0.6,1.4S403.1,226.2,403.7,226.2z"/>
	</g>
	<g>
		<path class="st27" d="M104.5,257.5v-12.4l10.7,6.2L104.5,257.5z"/>
	</g>
	<g>
		<path class="st41" d="M132.6,257h-1.2l-8.1-12.2l-0.1,0V257h-1.2v-14.2h1.2l8.1,12.2l0.1,0v-12.2h1.2V257z"/>
		<path class="st41" d="M139.9,257.2c-1.3,0-2.4-0.5-3.3-1.5c-0.9-1-1.3-2.2-1.3-3.7v-0.5c0-1.5,0.4-2.8,1.3-3.8s1.9-1.5,3.2-1.5
			c1.3,0,2.3,0.4,3.1,1.2s1.1,1.9,1.1,3.3v1h-7.5v0.3c0,1.2,0.3,2.2,0.9,3c0.6,0.8,1.5,1.2,2.5,1.2c0.7,0,1.4-0.1,1.9-0.3
			c0.5-0.2,1-0.5,1.3-0.9l0.5,0.8c-0.4,0.4-0.9,0.8-1.5,1C141.5,257.1,140.8,257.2,139.9,257.2z M139.8,247.3c-0.9,0-1.6,0.3-2.2,1
			c-0.6,0.7-0.9,1.5-1,2.5l0,0h6.2v-0.3c0-0.9-0.3-1.7-0.8-2.3C141.5,247.6,140.7,247.3,139.8,247.3z"/>
		<path class="st41" d="M147.3,246.5l0.1,1.7c0.3-0.6,0.8-1.1,1.4-1.4s1.2-0.5,2-0.5c0.8,0,1.5,0.2,2,0.6s0.9,1,1.2,1.8
			c0.3-0.7,0.8-1.3,1.4-1.7s1.3-0.6,2.2-0.6c1.1,0,2,0.4,2.6,1.1s0.9,1.9,0.9,3.5v6.2h-1.2v-6.2c0-1.3-0.2-2.2-0.7-2.8
			c-0.5-0.5-1.1-0.8-1.9-0.8c-0.9,0-1.6,0.3-2.1,0.9c-0.5,0.6-0.8,1.3-0.9,2.2c0,0,0,0.1,0,0.2c0,0.1,0,0.1,0,0.2v6.4H153v-6.2
			c0-1.3-0.2-2.2-0.7-2.7c-0.5-0.6-1.1-0.8-1.9-0.8c-0.8,0-1.5,0.2-2,0.6c-0.5,0.4-0.8,1-1,1.7v7.4h-1.2v-10.6H147.3z"/>
		<path class="st41" d="M170.7,257c-0.1-0.4-0.1-0.7-0.2-0.9c0-0.3,0-0.5,0-0.8c-0.4,0.6-0.9,1-1.6,1.4s-1.4,0.5-2.2,0.5
			c-1,0-1.8-0.3-2.4-0.8c-0.6-0.5-0.9-1.3-0.9-2.2c0-1,0.4-1.8,1.3-2.3s2-0.9,3.4-0.9h2.3v-1.3c0-0.8-0.2-1.3-0.7-1.8
			s-1.2-0.6-2-0.6c-0.8,0-1.5,0.2-2,0.6s-0.8,0.9-0.8,1.5l-1.1,0l0-0.1c0-0.8,0.3-1.5,1.1-2.1s1.7-0.9,2.9-0.9
			c1.2,0,2.1,0.3,2.8,0.9s1.1,1.4,1.1,2.5v5.2c0,0.4,0,0.7,0.1,1.1c0,0.4,0.1,0.7,0.2,1H170.7z M166.9,256.2c0.8,0,1.6-0.2,2.2-0.6
			c0.6-0.4,1.1-0.9,1.4-1.5v-2.2h-2.4c-1.1,0-1.9,0.2-2.5,0.7s-1,1-1,1.7c0,0.6,0.2,1,0.6,1.4C165.6,256,166.2,256.2,166.9,256.2z"
			/>
		<path class="st41" d="M180.7,246.5l0.1,1.8c0.3-0.7,0.8-1.2,1.4-1.5s1.3-0.5,2-0.5c1.1,0,2,0.3,2.6,1s0.9,1.8,0.9,3.3v6.4h-1.2
			v-6.4c0-1.2-0.2-2.1-0.7-2.6c-0.5-0.5-1.1-0.8-1.9-0.8c-0.8,0-1.5,0.2-2,0.7s-0.9,1-1.1,1.7v7.4h-1.2v-10.6H180.7z"/>
		<path class="st41" d="M194.7,257.2c-1.3,0-2.4-0.5-3.3-1.5c-0.9-1-1.3-2.2-1.3-3.7v-0.5c0-1.5,0.4-2.8,1.3-3.8s1.9-1.5,3.2-1.5
			c1.3,0,2.3,0.4,3.1,1.2s1.1,1.9,1.1,3.3v1h-7.5v0.3c0,1.2,0.3,2.2,0.9,3c0.6,0.8,1.5,1.2,2.5,1.2c0.7,0,1.4-0.1,1.9-0.3
			c0.5-0.2,1-0.5,1.3-0.9l0.5,0.8c-0.4,0.4-0.9,0.8-1.5,1C196.3,257.1,195.6,257.2,194.7,257.2z M194.6,247.3c-0.9,0-1.6,0.3-2.2,1
			c-0.6,0.7-0.9,1.5-1,2.5l0,0h6.2v-0.3c0-0.9-0.3-1.7-0.8-2.3C196.2,247.6,195.5,247.3,194.6,247.3z"/>
		<path class="st41" d="M209.6,252c0,1.6-0.4,2.8-1.1,3.8c-0.7,0.9-1.7,1.4-3,1.4c-0.7,0-1.4-0.1-1.9-0.4s-1-0.7-1.4-1.2v5.5H201
			v-14.6h1l0.1,1.6c0.4-0.6,0.8-1,1.4-1.4s1.2-0.5,2-0.5c1.3,0,2.3,0.5,3,1.5s1.1,2.4,1.1,4V252z M208.4,251.8
			c0-1.3-0.3-2.4-0.8-3.3c-0.5-0.8-1.3-1.3-2.3-1.3c-0.8,0-1.4,0.2-1.9,0.6s-0.9,0.9-1.1,1.5v5.1c0.3,0.6,0.7,1,1.2,1.4
			c0.5,0.3,1.1,0.5,1.9,0.5c1,0,1.8-0.4,2.3-1.2c0.5-0.8,0.8-1.8,0.8-3.1V251.8z"/>
		<path class="st41" d="M217.1,247.5l-0.9-0.1c-0.7,0-1.3,0.2-1.8,0.6s-0.8,1-1,1.7v7.3h-1.2v-10.6h1l0.1,1.8v0.1
			c0.3-0.7,0.7-1.2,1.2-1.5s1.1-0.5,1.8-0.5c0.1,0,0.3,0,0.4,0s0.3,0,0.3,0.1L217.1,247.5z"/>
		<path class="st41" d="M222.8,257.2c-1.3,0-2.4-0.5-3.3-1.5c-0.9-1-1.3-2.2-1.3-3.7v-0.5c0-1.5,0.4-2.8,1.3-3.8s1.9-1.5,3.2-1.5
			c1.3,0,2.3,0.4,3.1,1.2s1.1,1.9,1.1,3.3v1h-7.5v0.3c0,1.2,0.3,2.2,0.9,3c0.6,0.8,1.5,1.2,2.5,1.2c0.7,0,1.4-0.1,1.9-0.3
			c0.5-0.2,1-0.5,1.3-0.9l0.5,0.8c-0.4,0.4-0.9,0.8-1.5,1C224.3,257.1,223.6,257.2,222.8,257.2z M222.6,247.3c-0.9,0-1.6,0.3-2.2,1
			c-0.6,0.7-0.9,1.5-1,2.5l0,0h6.2v-0.3c0-0.9-0.3-1.7-0.8-2.3C224.3,247.6,223.6,247.3,222.6,247.3z"/>
		<path class="st41" d="M228.7,251.8c0-1.7,0.4-3,1.1-4s1.7-1.5,3-1.5c0.7,0,1.4,0.2,1.9,0.5s1,0.8,1.3,1.3v-6.3h1.2V257h-1
			l-0.1-1.5c-0.4,0.6-0.8,1-1.4,1.3s-1.2,0.4-2,0.4c-1.3,0-2.3-0.5-3-1.4c-0.7-0.9-1.1-2.2-1.1-3.8V251.8z M229.8,252
			c0,1.3,0.3,2.3,0.8,3.1s1.3,1.1,2.3,1.1c0.8,0,1.4-0.2,1.9-0.5c0.5-0.3,0.9-0.8,1.2-1.4v-5c-0.3-0.6-0.6-1.1-1.1-1.5
			s-1.1-0.6-1.9-0.6c-1,0-1.8,0.4-2.3,1.3c-0.5,0.8-0.8,1.9-0.8,3.3V252z"/>
		<path class="st41" d="M243.3,254.4l0.3,1.2h0.1l0.4-1.2l2.9-7.9h1.2l-4,10.6h-0.9l-4-10.6h1.2L243.3,254.4z"/>
		<path class="st41" d="M251.3,243.4h-1.2v-1.6h1.2V243.4z M251.3,257h-1.2v-10.6h1.2V257z"/>
		<path class="st41" d="M254.1,251.8c0-1.7,0.4-3,1.1-4s1.7-1.5,3-1.5c0.7,0,1.4,0.2,1.9,0.5s1,0.8,1.3,1.3v-6.3h1.2V257h-1
			l-0.1-1.5c-0.4,0.6-0.8,1-1.4,1.3s-1.2,0.4-2,0.4c-1.3,0-2.3-0.5-3-1.4c-0.7-0.9-1.1-2.2-1.1-3.8V251.8z M255.3,252
			c0,1.3,0.3,2.3,0.8,3.1s1.3,1.1,2.3,1.1c0.8,0,1.4-0.2,1.9-0.5c0.5-0.3,0.9-0.8,1.2-1.4v-5c-0.3-0.6-0.6-1.1-1.1-1.5
			s-1.1-0.6-1.9-0.6c-1,0-1.8,0.4-2.3,1.3c-0.5,0.8-0.8,1.9-0.8,3.3V252z"/>
		<path class="st41" d="M267,243.4h-1.2v-1.6h1.2V243.4z M267,257h-1.2v-10.6h1.2V257z"/>
		<path class="st41" d="M273.3,254.4l0.3,1.2h0.1l0.4-1.2l2.9-7.9h1.2l-4,10.6h-0.9l-4-10.6h1.2L273.3,254.4z"/>
		<path class="st41" d="M281.3,243.4h-1.2v-1.6h1.2V243.4z M281.3,257h-1.2v-10.6h1.2V257z"/>
		<path class="st41" d="M285.8,248.3c0.4-0.6,0.8-1.1,1.4-1.5s1.3-0.5,2.1-0.5c1.1,0,2,0.3,2.6,1s0.9,1.8,0.9,3.2v6.5h-1.2v-6.5
			c0-1.1-0.2-2-0.7-2.5c-0.5-0.5-1.1-0.7-1.9-0.7c-0.8,0-1.5,0.2-2,0.6c-0.5,0.4-0.9,1-1.2,1.7v7.5h-1.2v-15.2h1.2V248.3z"/>
		<path class="st41" d="M302.4,243.8v2.7h2.3v1h-2.3v6.9c0,0.7,0.1,1.2,0.4,1.5c0.3,0.3,0.6,0.4,1,0.4c0.2,0,0.4,0,0.6,0
			s0.4,0,0.6-0.1l0.2,0.9c-0.2,0.1-0.4,0.2-0.7,0.2s-0.6,0.1-0.8,0.1c-0.7,0-1.3-0.2-1.7-0.7s-0.6-1.2-0.6-2.2v-6.9h-1.8v-1h1.8
			v-2.7H302.4z"/>
		<path class="st41" d="M312.1,247.5l-0.9-0.1c-0.7,0-1.3,0.2-1.8,0.6s-0.8,1-1,1.7v7.3h-1.2v-10.6h1l0.1,1.8v0.1
			c0.3-0.7,0.7-1.2,1.2-1.5s1.1-0.5,1.8-0.5c0.1,0,0.3,0,0.4,0s0.3,0,0.3,0.1L312.1,247.5z"/>
		<path class="st41" d="M313.2,251.6c0-1.6,0.4-2.8,1.3-3.8s2-1.5,3.4-1.5c1.4,0,2.5,0.5,3.4,1.5s1.3,2.3,1.3,3.8v0.3
			c0,1.6-0.4,2.8-1.3,3.8c-0.8,1-2,1.5-3.4,1.5c-1.4,0-2.6-0.5-3.4-1.5c-0.9-1-1.3-2.3-1.3-3.8V251.6z M314.3,251.9
			c0,1.2,0.3,2.3,0.9,3.1c0.6,0.8,1.5,1.2,2.6,1.2c1.1,0,1.9-0.4,2.6-1.2c0.6-0.8,0.9-1.9,0.9-3.1v-0.3c0-1.2-0.3-2.2-0.9-3.1
			c-0.6-0.8-1.5-1.3-2.6-1.3s-2,0.4-2.6,1.3c-0.6,0.8-0.9,1.9-0.9,3.1V251.9z"/>
		<path class="st41" d="M331.3,254.3c0-0.5-0.2-0.9-0.6-1.3s-1.1-0.7-2.2-0.9c-1.3-0.3-2.2-0.6-2.8-1.1s-0.9-1.1-0.9-1.9
			c0-0.8,0.3-1.5,1-2s1.6-0.8,2.7-0.8c1.2,0,2.1,0.3,2.8,0.9s1,1.3,1,2.2l0,0.1h-1.1c0-0.6-0.2-1.1-0.7-1.5s-1.2-0.6-2-0.6
			c-0.9,0-1.5,0.2-1.9,0.5c-0.4,0.4-0.6,0.8-0.6,1.3c0,0.5,0.2,0.9,0.6,1.2c0.4,0.3,1.1,0.6,2.2,0.8c1.3,0.3,2.2,0.7,2.8,1.2
			c0.6,0.5,0.9,1.1,0.9,2c0,0.9-0.4,1.6-1.1,2.1c-0.7,0.5-1.7,0.8-2.8,0.8c-1.3,0-2.3-0.3-3-0.9c-0.7-0.6-1.1-1.3-1-2.2l0-0.1h1.1
			c0,0.8,0.4,1.3,0.9,1.7c0.6,0.3,1.3,0.5,2,0.5c0.8,0,1.5-0.2,2-0.6C331,255.3,331.3,254.9,331.3,254.3z M328.5,243.8l1.6-1.7h1.1
			v0.2l-2.3,2.2H328l-2.3-2.2v-0.2h1.1L328.5,243.8z"/>
		<path class="st41" d="M337.7,251.9h-1.3v5.2h-1.2v-15.2h1.2v9.1h1.2l3.9-4.4h1.4l0,0l-4.2,4.8l4.7,5.7l0,0h-1.3L337.7,251.9z"/>
		<path class="st41" d="M344.3,251.6c0-1.6,0.4-2.8,1.3-3.8s2-1.5,3.4-1.5c1.4,0,2.5,0.5,3.4,1.5s1.3,2.3,1.3,3.8v0.3
			c0,1.6-0.4,2.8-1.3,3.8c-0.8,1-2,1.5-3.4,1.5c-1.4,0-2.6-0.5-3.4-1.5c-0.9-1-1.3-2.3-1.3-3.8V251.6z M345.5,251.9
			c0,1.2,0.3,2.3,0.9,3.1c0.6,0.8,1.5,1.2,2.6,1.2c1.1,0,1.9-0.4,2.6-1.2c0.6-0.8,0.9-1.9,0.9-3.1v-0.3c0-1.2-0.3-2.2-0.9-3.1
			c-0.6-0.8-1.5-1.3-2.6-1.3s-2,0.4-2.6,1.3c-0.6,0.8-0.9,1.9-0.9,3.1V251.9z"/>
		<path class="st41" d="M359,254.4l0.3,1.2h0.1l0.4-1.2l2.9-7.9h1.2l-4,10.6h-0.9l-4-10.6h1.2L359,254.4z"/>
		<path class="st41" d="M372.3,257c-0.1-0.4-0.1-0.7-0.2-0.9c0-0.3,0-0.5,0-0.8c-0.4,0.6-0.9,1-1.6,1.4s-1.4,0.5-2.2,0.5
			c-1,0-1.8-0.3-2.4-0.8c-0.6-0.5-0.9-1.3-0.9-2.2c0-1,0.4-1.8,1.3-2.3s2-0.9,3.4-0.9h2.3v-1.3c0-0.8-0.2-1.3-0.7-1.8
			s-1.2-0.6-2-0.6c-0.8,0-1.5,0.2-2,0.6s-0.8,0.9-0.8,1.5l-1.1,0l0-0.1c0-0.8,0.3-1.5,1.1-2.1s1.7-0.9,2.9-0.9
			c1.2,0,2.1,0.3,2.8,0.9s1.1,1.4,1.1,2.5v5.2c0,0.4,0,0.7,0.1,1.1c0,0.4,0.1,0.7,0.2,1H372.3z M368.5,256.2c0.8,0,1.6-0.2,2.2-0.6
			c0.6-0.4,1.1-0.9,1.4-1.5v-2.2h-2.4c-1.1,0-1.9,0.2-2.5,0.7s-1,1-1,1.7c0,0.6,0.2,1,0.6,1.4C367.2,256,367.8,256.2,368.5,256.2z"
			/>
	</g>
	<g>
		<path class="st41" d="M36.6,318.1v6.4h-3.6v-17.8h7.1c2,0,3.7,0.5,4.8,1.6c1.2,1,1.8,2.4,1.8,4.1c0,1.7-0.6,3.1-1.8,4.1
			c-1.2,1-2.8,1.6-4.8,1.6H36.6z M36.6,315.3h3.5c1,0,1.7-0.3,2.3-0.8c0.5-0.5,0.8-1.2,0.8-2.1c0-0.9-0.3-1.6-0.8-2.1
			c-0.5-0.6-1.3-0.8-2.3-0.8h-3.5V315.3z"/>
		<path class="st41" d="M63.6,317.2c0,2.2-0.7,4-2.1,5.4c-1.4,1.4-3.2,2.1-5.4,2.1c-2.2,0-4-0.7-5.3-2.1c-1.4-1.4-2.1-3.2-2.1-5.4
			V314c0-2.2,0.7-4,2-5.4c1.4-1.4,3.1-2.1,5.3-2.1c2.2,0,4,0.7,5.4,2.1c1.4,1.4,2.1,3.2,2.1,5.4V317.2z M60.1,314
			c0-1.4-0.3-2.5-1-3.4c-0.7-0.9-1.6-1.3-2.9-1.3s-2.2,0.4-2.8,1.3c-0.7,0.9-1,2-1,3.4v3.2c0,1.4,0.3,2.6,1,3.4s1.6,1.3,2.8,1.3
			c1.2,0,2.2-0.4,2.9-1.3s1-2,1-3.4V314z"/>
		<path class="st41" d="M66.4,324.5v-17.8h6.1c2.2,0,4,0.7,5.4,2.1s2.1,3.2,2.1,5.3v2.9c0,2.2-0.7,4-2.1,5.3
			c-1.4,1.4-3.2,2.1-5.4,2.1H66.4z M70,309.5v12.3h2.4c1.3,0,2.3-0.4,3-1.3c0.7-0.9,1.1-2,1.1-3.4v-3c0-1.4-0.4-2.5-1.1-3.4
			c-0.7-0.9-1.7-1.3-3-1.3H70z"/>
		<path class="st41" d="M86.4,317.4v7.1h-3.6v-17.8h6.7c2,0,3.6,0.5,4.8,1.4c1.1,0.9,1.7,2.2,1.7,3.9c0,0.9-0.2,1.7-0.7,2.4
			s-1.2,1.2-2.1,1.6c1,0.3,1.8,0.8,2.3,1.5c0.5,0.7,0.7,1.6,0.7,2.7v1.3c0,0.5,0.1,1,0.2,1.6c0.1,0.5,0.4,0.9,0.7,1.2v0.3h-3.7
			c-0.3-0.3-0.5-0.7-0.6-1.3c-0.1-0.6-0.1-1.2-0.1-1.7v-1.3c0-0.9-0.2-1.6-0.7-2.1c-0.5-0.5-1.2-0.7-2-0.7H86.4z M86.4,314.7h3.1
			c1,0,1.7-0.2,2.2-0.6c0.5-0.4,0.7-1,0.7-1.9c0-0.8-0.2-1.5-0.7-1.9c-0.5-0.5-1.2-0.7-2.2-0.7h-3.1V314.7z"/>
		<path class="st41" d="M108.9,319.9c0-0.7-0.2-1.2-0.7-1.6c-0.5-0.4-1.3-0.8-2.5-1.2c-2.1-0.6-3.7-1.3-4.8-2.2
			c-1.1-0.8-1.6-2-1.6-3.4c0-1.5,0.6-2.6,1.9-3.6s2.8-1.4,4.8-1.4c2,0,3.5,0.5,4.8,1.6c1.2,1,1.8,2.3,1.8,3.8l0,0.1h-3.5
			c0-0.8-0.3-1.5-0.8-2c-0.5-0.5-1.3-0.8-2.3-0.8c-1,0-1.7,0.2-2.2,0.6c-0.5,0.4-0.8,1-0.8,1.6c0,0.6,0.3,1.1,0.8,1.5
			s1.5,0.8,2.9,1.2c2,0.5,3.4,1.3,4.5,2.2c1,0.9,1.5,2.1,1.5,3.5c0,1.5-0.6,2.7-1.8,3.6s-2.8,1.3-4.8,1.3c-1.9,0-3.6-0.5-5.1-1.5
			s-2.1-2.4-2.1-4.2l0-0.1h3.5c0,1.1,0.3,1.8,1,2.3c0.6,0.5,1.5,0.7,2.7,0.7c1,0,1.7-0.2,2.2-0.6
			C108.7,321.1,108.9,320.6,108.9,319.9z M105.6,303l1.4-1.5h3.2v0.2l-3.4,3.1h-2.4l-3.4-3.1v-0.2h3.2L105.6,303z"/>
		<path class="st41" d="M120.7,317.1h-2v7.4h-3.6v-17.8h3.6v7.3h1.6l4.7-7.3h4.4l-6,8.3l6.5,9.5h-4.3L120.7,317.1z"/>
		<path class="st41" d="M140.9,320.7h-6.2l-1.2,3.8h-3.6l6.1-17.8h3.7l6.1,17.8h-3.6L140.9,320.7z M135.5,317.9h4.5l-2.2-7h-0.1
			L135.5,317.9z"/>
		<path class="st41" d="M165.2,324.5h-12.1v-2.3l5.7-6.2c0.8-1,1.4-1.8,1.8-2.4c0.3-0.7,0.5-1.3,0.5-1.8c0-0.7-0.2-1.4-0.6-1.8
			c-0.4-0.5-1-0.7-1.7-0.7c-0.8,0-1.4,0.3-1.9,0.8c-0.4,0.6-0.6,1.3-0.6,2.2h-3.5l0-0.1c0-1.6,0.5-3,1.6-4.1
			c1.1-1.1,2.6-1.7,4.4-1.7c1.8,0,3.3,0.5,4.3,1.4c1,1,1.6,2.2,1.6,3.8c0,1.1-0.3,2.1-0.9,3c-0.6,0.9-1.6,2.1-2.9,3.6l-3.2,3.4
			l0,0.1h7.5V324.5z"/>
		<path class="st41" d="M177.9,317.9h2v2.7h-2v3.9h-3.6v-3.9h-7.3l-0.2-2.1l7.4-11.8h3.6V317.9z M170.3,317.9h4.1v-6.4l-0.1,0
			L174,312L170.3,317.9z"/>
		<path class="st41" d="M183.9,326.1h-3.5l6.5-19.3h3.5L183.9,326.1z"/>
		<path class="st41" d="M204,309.5c-1.9,2.2-3.2,4.3-3.9,6.2c-0.7,1.9-1.2,4.3-1.5,7l-0.2,1.8h-3.6l0.2-1.8c0.3-2.6,0.9-5,1.8-7.2
			c0.9-2.2,2.2-4.2,3.7-6h-9.1v-2.7H204V309.5z"/>
		<path class="st41" d="M208.3,326.1h-3.5l6.5-19.3h3.5L208.3,326.1z"/>
		<path class="st41" d="M219.9,314.1h2c0.8,0,1.5-0.2,1.9-0.7c0.4-0.4,0.6-1.1,0.6-1.8c0-0.7-0.2-1.3-0.6-1.7
			c-0.4-0.4-1-0.6-1.8-0.6c-0.7,0-1.2,0.2-1.7,0.6c-0.5,0.4-0.7,0.9-0.7,1.5h-3.5l0-0.1c0-1.4,0.5-2.5,1.6-3.4
			c1.1-0.9,2.5-1.4,4.2-1.4c1.8,0,3.3,0.4,4.4,1.3c1.1,0.9,1.6,2.1,1.6,3.8c0,0.8-0.2,1.5-0.7,2.2c-0.5,0.7-1.2,1.2-2,1.6
			c1,0.4,1.7,0.9,2.3,1.6c0.5,0.7,0.8,1.6,0.8,2.5c0,1.6-0.6,2.9-1.8,3.8c-1.2,0.9-2.7,1.4-4.5,1.4c-1.7,0-3.1-0.4-4.3-1.3
			c-1.2-0.9-1.8-2.1-1.7-3.7l0-0.1h3.5c0,0.7,0.2,1.2,0.7,1.7s1.1,0.7,1.9,0.7c0.8,0,1.5-0.2,1.9-0.7c0.5-0.5,0.7-1.1,0.7-1.9
			c0-0.9-0.2-1.6-0.7-2.1c-0.5-0.4-1.2-0.7-2.1-0.7h-2V314.1z"/>
		<path class="st41" d="M237.8,306.5c0.7,0,1.3,0.1,1.8,0.2c0.6,0.1,1.1,0.3,1.7,0.6l-0.6,2.6c-0.5-0.2-1-0.3-1.4-0.4
			c-0.4-0.1-0.9-0.1-1.5-0.1c-1.1,0-2,0.4-2.6,1.2c-0.7,0.8-1,1.9-0.9,3.4l0,0.1c0.4-0.4,0.9-0.7,1.5-1c0.6-0.2,1.3-0.4,2.1-0.4
			c1.6,0,2.8,0.6,3.7,1.7c0.9,1.1,1.3,2.6,1.3,4.3c0,1.8-0.6,3.3-1.7,4.4c-1.1,1.2-2.5,1.7-4.3,1.7c-1.9,0-3.4-0.6-4.6-1.9
			s-1.8-3-1.8-5.3v-3.5c0-2.3,0.7-4.2,2-5.6S235.7,306.5,237.8,306.5z M237,315.3c-0.7,0-1.2,0.1-1.7,0.3c-0.5,0.2-0.8,0.5-1.1,0.9
			v1.2c0,1.4,0.3,2.5,0.8,3.2c0.5,0.8,1.2,1.1,2,1.1c0.7,0,1.3-0.3,1.8-1c0.4-0.7,0.7-1.5,0.7-2.4c0-1-0.2-1.8-0.7-2.4
			S237.7,315.3,237,315.3z"/>
		<path class="st41" d="M245.4,316.7l1-9.9h9.9v2.9h-7l-0.5,4.1c0.3-0.2,0.7-0.4,1.2-0.6c0.5-0.2,1-0.2,1.5-0.3c1.7,0,3,0.5,4,1.6
			c0.9,1.1,1.4,2.5,1.4,4.4c0,1.7-0.5,3.1-1.5,4.3c-1,1.1-2.5,1.7-4.4,1.7c-1.6,0-3-0.4-4.2-1.3c-1.2-0.9-1.7-2.1-1.7-3.7l0-0.1
			l3.4-0.2c0,0.8,0.2,1.4,0.7,1.8c0.4,0.4,1,0.7,1.8,0.7c0.8,0,1.4-0.3,1.8-0.9c0.4-0.6,0.6-1.4,0.6-2.3c0-1-0.2-1.8-0.6-2.5
			c-0.4-0.6-1.1-0.9-1.9-0.9c-0.7,0-1.2,0.1-1.6,0.4s-0.6,0.6-0.8,1L245.4,316.7z"/>
	</g>
	<g>
		<path class="st27" d="M104.5,385v-12.4l10.7,6.2L104.5,385z"/>
	</g>
	<g>
		<path class="st41" d="M125.2,377.9h-2v6.7h-1.2v-14.2h1.2v6.5h1.9l5.6-6.5h1.3l0,0l-5.9,6.9l6.3,7.2l0,0h-1.4L125.2,377.9z"/>
		<path class="st41" d="M133.6,379.1c0-1.6,0.4-2.8,1.3-3.8s2-1.5,3.4-1.5c1.4,0,2.5,0.5,3.4,1.5s1.3,2.3,1.3,3.8v0.3
			c0,1.6-0.4,2.8-1.3,3.8s-2,1.5-3.4,1.5c-1.4,0-2.6-0.5-3.4-1.5s-1.3-2.3-1.3-3.8V379.1z M134.8,379.4c0,1.2,0.3,2.3,0.9,3.1
			c0.6,0.8,1.5,1.2,2.6,1.2c1.1,0,1.9-0.4,2.6-1.2c0.6-0.8,0.9-1.9,0.9-3.1v-0.3c0-1.2-0.3-2.2-0.9-3.1s-1.5-1.3-2.6-1.3
			s-2,0.4-2.6,1.3s-0.9,1.9-0.9,3.1V379.4z"/>
		<path class="st41" d="M150.3,375l-0.9-0.1c-0.7,0-1.3,0.2-1.8,0.6s-0.8,1-1,1.7v7.3h-1.2V374h1l0.1,1.8v0.1
			c0.3-0.7,0.7-1.2,1.2-1.5s1.1-0.5,1.8-0.5c0.1,0,0.3,0,0.4,0s0.3,0,0.3,0.1L150.3,375z"/>
		<path class="st41" d="M153.5,370.9h-1.2v-1.6h1.2V370.9z M153.5,384.5h-1.2V374h1.2V384.5z"/>
		<path class="st41" d="M163.1,381.8c0-0.5-0.2-0.9-0.6-1.3s-1.1-0.7-2.2-0.9c-1.3-0.3-2.2-0.6-2.8-1.1s-0.9-1.1-0.9-1.9
			c0-0.8,0.3-1.5,1-2s1.6-0.8,2.7-0.8c1.2,0,2.1,0.3,2.8,0.9s1,1.3,1,2.2l0,0.1H163c0-0.6-0.2-1.1-0.7-1.5s-1.2-0.6-2-0.6
			c-0.9,0-1.5,0.2-1.9,0.5c-0.4,0.4-0.6,0.8-0.6,1.3c0,0.5,0.2,0.9,0.6,1.2s1.1,0.6,2.2,0.8c1.3,0.3,2.2,0.7,2.8,1.2s0.9,1.1,0.9,2
			c0,0.9-0.4,1.6-1.1,2.1c-0.7,0.5-1.7,0.8-2.8,0.8c-1.3,0-2.3-0.3-3-0.9s-1.1-1.3-1-2.2l0-0.1h1.1c0,0.8,0.4,1.3,0.9,1.7
			c0.6,0.3,1.3,0.5,2,0.5c0.8,0,1.5-0.2,2-0.6S163.1,382.4,163.1,381.8z"/>
		<path class="st41" d="M168,374l0.1,1.8c0.3-0.7,0.8-1.2,1.4-1.5s1.3-0.5,2-0.5c1.1,0,2,0.3,2.6,1s0.9,1.8,0.9,3.3v6.4h-1.2v-6.4
			c0-1.2-0.2-2.1-0.7-2.6c-0.5-0.5-1.1-0.8-1.9-0.8c-0.8,0-1.5,0.2-2,0.7c-0.5,0.4-0.9,1-1.1,1.7v7.4H167V374H168z"/>
		<path class="st41" d="M179.4,370.9h-1.2v-1.6h1.2V370.9z M179.4,384.5h-1.2V374h1.2V384.5z"/>
		<path class="st41" d="M186.5,383.7c0.8,0,1.5-0.2,2.1-0.7c0.6-0.4,0.9-1.1,0.9-1.8h1l0,0.1c0,1-0.4,1.8-1.2,2.5s-1.8,1-2.8,1
			c-1.4,0-2.6-0.5-3.3-1.5s-1.2-2.3-1.2-3.8V379c0-1.5,0.4-2.8,1.2-3.8s1.9-1.5,3.3-1.5c1.2,0,2.1,0.3,2.9,1s1.1,1.6,1.1,2.7l0,0.1
			h-1c0-0.8-0.3-1.5-0.9-2s-1.3-0.8-2.1-0.8c-1.1,0-2,0.4-2.5,1.2s-0.8,1.8-0.8,3.1v0.4c0,1.2,0.3,2.3,0.8,3.1
			C184.6,383.3,185.4,383.7,186.5,383.7z M186.4,371.3l1.6-1.7h1.1v0.2l-2.3,2.2h-0.9l-2.3-2.2v-0.2h1.1L186.4,371.3z"/>
		<path class="st41" d="M195.5,379.4h-1.3v5.2H193v-15.2h1.2v9.1h1.2l3.9-4.4h1.4l0,0l-4.2,4.8l4.7,5.7l0,0h-1.3L195.5,379.4z"/>
		<path class="st41" d="M209.5,384.5c-0.1-0.4-0.1-0.7-0.2-0.9s0-0.5,0-0.8c-0.4,0.6-0.9,1-1.6,1.4s-1.4,0.5-2.2,0.5
			c-1,0-1.8-0.3-2.4-0.8s-0.9-1.3-0.9-2.2c0-1,0.4-1.8,1.3-2.3s2-0.9,3.4-0.9h2.3v-1.3c0-0.8-0.2-1.3-0.7-1.8s-1.2-0.6-2-0.6
			c-0.8,0-1.5,0.2-2,0.6s-0.8,0.9-0.8,1.5l-1.1,0l0-0.1c0-0.8,0.3-1.5,1.1-2.1s1.7-0.9,2.9-0.9c1.2,0,2.1,0.3,2.8,0.9
			s1.1,1.4,1.1,2.5v5.2c0,0.4,0,0.7,0.1,1.1s0.1,0.7,0.2,1H209.5z M205.7,383.7c0.8,0,1.6-0.2,2.2-0.6s1.1-0.9,1.4-1.5v-2.2h-2.4
			c-1.1,0-1.9,0.2-2.5,0.7s-1,1-1,1.7c0,0.6,0.2,1,0.6,1.4S205,383.7,205.7,383.7z"/>
		<path class="st41" d="M226.9,379.5c0,1.6-0.4,2.8-1.1,3.8s-1.7,1.4-3,1.4c-0.7,0-1.4-0.1-1.9-0.4s-1-0.7-1.4-1.2v5.5h-1.2V374h1
			l0.1,1.6c0.4-0.6,0.8-1,1.4-1.4s1.2-0.5,2-0.5c1.3,0,2.3,0.5,3,1.5s1.1,2.4,1.1,4V379.5z M225.8,379.3c0-1.3-0.3-2.4-0.8-3.3
			c-0.5-0.8-1.3-1.3-2.3-1.3c-0.8,0-1.4,0.2-1.9,0.6c-0.5,0.4-0.9,0.9-1.1,1.5v5.1c0.3,0.6,0.7,1,1.2,1.4c0.5,0.3,1.1,0.5,1.9,0.5
			c1,0,1.8-0.4,2.3-1.2c0.5-0.8,0.8-1.8,0.8-3.1V379.3z"/>
		<path class="st41" d="M228.9,379.1c0-1.6,0.4-2.8,1.3-3.8s2-1.5,3.4-1.5c1.4,0,2.5,0.5,3.4,1.5s1.3,2.3,1.3,3.8v0.3
			c0,1.6-0.4,2.8-1.3,3.8s-2,1.5-3.4,1.5c-1.4,0-2.6-0.5-3.4-1.5s-1.3-2.3-1.3-3.8V379.1z M230.1,379.4c0,1.2,0.3,2.3,0.9,3.1
			c0.6,0.8,1.5,1.2,2.6,1.2c1.1,0,1.9-0.4,2.6-1.2c0.6-0.8,0.9-1.9,0.9-3.1v-0.3c0-1.2-0.3-2.2-0.9-3.1s-1.5-1.3-2.6-1.3
			s-2,0.4-2.6,1.3s-0.9,1.9-0.9,3.1V379.4z"/>
		<path class="st41" d="M240.2,379.3c0-1.7,0.4-3,1.1-4s1.7-1.5,3-1.5c0.7,0,1.4,0.2,1.9,0.5s1,0.8,1.3,1.3v-6.3h1.2v15.2h-1
			l-0.1-1.5c-0.4,0.6-0.8,1-1.4,1.3s-1.2,0.4-2,0.4c-1.3,0-2.3-0.5-3-1.4s-1.1-2.2-1.1-3.8V379.3z M241.4,379.5
			c0,1.3,0.3,2.3,0.8,3.1s1.3,1.1,2.3,1.1c0.8,0,1.4-0.2,1.9-0.5s0.9-0.8,1.2-1.4v-5c-0.3-0.6-0.6-1.1-1.1-1.5
			c-0.5-0.4-1.1-0.6-1.9-0.6c-1,0-1.8,0.4-2.3,1.3s-0.8,1.9-0.8,3.3V379.5z"/>
		<path class="st41" d="M256.7,375l-0.9-0.1c-0.7,0-1.3,0.2-1.8,0.6s-0.8,1-1,1.7v7.3h-1.2V374h1l0.1,1.8v0.1
			c0.3-0.7,0.7-1.2,1.2-1.5s1.1-0.5,1.8-0.5c0.1,0,0.3,0,0.4,0s0.3,0,0.3,0.1L256.7,375z"/>
		<path class="st41" d="M265,381.8c0-0.5-0.2-0.9-0.6-1.3s-1.1-0.7-2.2-0.9c-1.3-0.3-2.2-0.6-2.8-1.1s-0.9-1.1-0.9-1.9
			c0-0.8,0.3-1.5,1-2s1.6-0.8,2.7-0.8c1.2,0,2.1,0.3,2.8,0.9s1,1.3,1,2.2l0,0.1h-1.1c0-0.6-0.2-1.1-0.7-1.5s-1.2-0.6-2-0.6
			c-0.9,0-1.5,0.2-1.9,0.5c-0.4,0.4-0.6,0.8-0.6,1.3c0,0.5,0.2,0.9,0.6,1.2s1.1,0.6,2.2,0.8c1.3,0.3,2.2,0.7,2.8,1.2s0.9,1.1,0.9,2
			c0,0.9-0.4,1.6-1.1,2.1c-0.7,0.5-1.7,0.8-2.8,0.8c-1.3,0-2.3-0.3-3-0.9s-1.1-1.3-1-2.2l0-0.1h1.1c0,0.8,0.4,1.3,0.9,1.7
			c0.6,0.3,1.3,0.5,2,0.5c0.8,0,1.5-0.2,2-0.6S265,382.4,265,381.8z M262.2,371.3l1.6-1.7h1.1v0.2l-2.3,2.2h-0.9l-2.3-2.2v-0.2h1.1
			L262.2,371.3z"/>
		<path class="st41" d="M271.4,379.4H270v5.2h-1.2v-15.2h1.2v9.1h1.2l3.9-4.4h1.4l0,0l-4.2,4.8l4.7,5.7l0,0h-1.3L271.4,379.4z"/>
		<path class="st41" d="M285.3,384.5c-0.1-0.4-0.1-0.7-0.2-0.9s0-0.5,0-0.8c-0.4,0.6-0.9,1-1.6,1.4s-1.4,0.5-2.2,0.5
			c-1,0-1.8-0.3-2.4-0.8s-0.9-1.3-0.9-2.2c0-1,0.4-1.8,1.3-2.3s2-0.9,3.4-0.9h2.3v-1.3c0-0.8-0.2-1.3-0.7-1.8s-1.2-0.6-2-0.6
			c-0.8,0-1.5,0.2-2,0.6s-0.8,0.9-0.8,1.5l-1.1,0l0-0.1c0-0.8,0.3-1.5,1.1-2.1s1.7-0.9,2.9-0.9c1.2,0,2.1,0.3,2.8,0.9
			s1.1,1.4,1.1,2.5v5.2c0,0.4,0,0.7,0.1,1.1s0.1,0.7,0.2,1H285.3z M281.5,383.7c0.8,0,1.6-0.2,2.2-0.6s1.1-0.9,1.4-1.5v-2.2h-2.4
			c-1.1,0-1.9,0.2-2.5,0.7s-1,1-1,1.7c0,0.6,0.2,1,0.6,1.4S280.8,383.7,281.5,383.7z"/>
	</g>
	<g>
		<path class="st27" d="M104.5,415v-12.4l10.7,6.2L104.5,415z"/>
	</g>
	<g>
		<path class="st41" d="M129.7,410.6h-6.5l-1.5,4h-1.2l5.4-14.2h1.1l5.4,14.2h-1.2L129.7,410.6z M123.6,409.5h5.7l-2.8-7.7h-0.1
			L123.6,409.5z"/>
		<path class="st41" d="M140.6,411.8c0-0.5-0.2-0.9-0.6-1.3s-1.1-0.7-2.2-0.9c-1.3-0.3-2.2-0.6-2.8-1.1s-0.9-1.1-0.9-1.9
			c0-0.8,0.3-1.5,1-2s1.6-0.8,2.7-0.8c1.2,0,2.1,0.3,2.8,0.9s1,1.3,1,2.2l0,0.1h-1.1c0-0.6-0.2-1.1-0.7-1.5s-1.2-0.6-2-0.6
			c-0.9,0-1.5,0.2-1.9,0.5c-0.4,0.4-0.6,0.8-0.6,1.3c0,0.5,0.2,0.9,0.6,1.2s1.1,0.6,2.2,0.8c1.3,0.3,2.2,0.7,2.8,1.2s0.9,1.1,0.9,2
			c0,0.9-0.4,1.6-1.1,2.1c-0.7,0.5-1.7,0.8-2.8,0.8c-1.3,0-2.3-0.3-3-0.9s-1.1-1.3-1-2.2l0-0.1h1.1c0,0.8,0.4,1.3,0.9,1.7
			c0.6,0.3,1.3,0.5,2,0.5c0.8,0,1.5-0.2,2-0.6S140.6,412.4,140.6,411.8z"/>
		<path class="st41" d="M145.8,400.9h-1.2v-1.6h1.2V400.9z M145.8,414.5h-1.2V404h1.2V414.5z"/>
		<path class="st41" d="M155.3,411.8c0-0.5-0.2-0.9-0.6-1.3s-1.1-0.7-2.2-0.9c-1.3-0.3-2.2-0.6-2.8-1.1s-0.9-1.1-0.9-1.9
			c0-0.8,0.3-1.5,1-2s1.6-0.8,2.7-0.8c1.2,0,2.1,0.3,2.8,0.9s1,1.3,1,2.2l0,0.1h-1.1c0-0.6-0.2-1.1-0.7-1.5s-1.2-0.6-2-0.6
			c-0.9,0-1.5,0.2-1.9,0.5c-0.4,0.4-0.6,0.8-0.6,1.3c0,0.5,0.2,0.9,0.6,1.2s1.1,0.6,2.2,0.8c1.3,0.3,2.2,0.7,2.8,1.2s0.9,1.1,0.9,2
			c0,0.9-0.4,1.6-1.1,2.1c-0.7,0.5-1.7,0.8-2.8,0.8c-1.3,0-2.3-0.3-3-0.9s-1.1-1.3-1-2.2l0-0.1h1.1c0,0.8,0.4,1.3,0.9,1.7
			c0.6,0.3,1.3,0.5,2,0.5c0.8,0,1.5-0.2,2-0.6S155.3,412.4,155.3,411.8z"/>
		<path class="st41" d="M161,401.3v2.7h2.3v1H161v6.9c0,0.7,0.1,1.2,0.4,1.5s0.6,0.4,1,0.4c0.2,0,0.4,0,0.6,0s0.4,0,0.6-0.1l0.2,0.9
			c-0.2,0.1-0.4,0.1-0.7,0.2s-0.6,0.1-0.8,0.1c-0.7,0-1.3-0.2-1.7-0.7s-0.6-1.2-0.6-2.2v-6.9H158v-1h1.8v-2.7H161z"/>
		<path class="st41" d="M169.8,414.7c-1.3,0-2.4-0.5-3.3-1.5s-1.3-2.2-1.3-3.7V409c0-1.5,0.4-2.8,1.3-3.8s1.9-1.5,3.2-1.5
			c1.3,0,2.3,0.4,3.1,1.2s1.1,1.9,1.1,3.3v1h-7.5v0.3c0,1.2,0.3,2.2,0.9,3s1.5,1.2,2.5,1.2c0.7,0,1.4-0.1,1.9-0.3s1-0.5,1.3-0.9
			l0.5,0.8c-0.4,0.4-0.9,0.8-1.5,1C171.4,414.6,170.6,414.7,169.8,414.7z M169.6,404.8c-0.9,0-1.6,0.3-2.2,1c-0.6,0.7-0.9,1.5-1,2.5
			l0,0h6.2V408c0-0.9-0.3-1.7-0.8-2.3C171.3,405.1,170.6,404.8,169.6,404.8z"/>
		<path class="st41" d="M177.2,404l0.1,1.8c0.3-0.7,0.8-1.2,1.4-1.5s1.3-0.5,2-0.5c1.1,0,2,0.3,2.6,1s0.9,1.8,0.9,3.3v6.4H183v-6.4
			c0-1.2-0.2-2.1-0.7-2.6c-0.5-0.5-1.1-0.8-1.9-0.8c-0.8,0-1.5,0.2-2,0.7c-0.5,0.4-0.9,1-1.1,1.7v7.4h-1.2V404H177.2z"/>
		<path class="st41" d="M191.2,413.7c0.8,0,1.5-0.2,2.1-0.7c0.6-0.4,0.9-1.1,0.9-1.8h1l0,0.1c0,1-0.4,1.8-1.2,2.5s-1.8,1-2.8,1
			c-1.4,0-2.6-0.5-3.3-1.5s-1.2-2.3-1.2-3.8V409c0-1.5,0.4-2.8,1.2-3.8s1.9-1.5,3.3-1.5c1.2,0,2.1,0.3,2.9,1s1.1,1.6,1.1,2.7l0,0.1
			h-1c0-0.8-0.3-1.5-0.9-2s-1.3-0.8-2.1-0.8c-1.1,0-2,0.4-2.5,1.2s-0.8,1.8-0.8,3.1v0.4c0,1.2,0.3,2.3,0.8,3.1
			C189.2,413.3,190,413.7,191.2,413.7z"/>
		<path class="st41" d="M198.9,400.9h-1.2v-1.6h1.2V400.9z M198.9,414.5h-1.2V404h1.2V414.5z"/>
		<path class="st41" d="M203.5,404v11.4c0,1.1-0.3,1.9-0.8,2.5s-1.2,0.9-2.2,0.9c-0.2,0-0.4,0-0.6,0s-0.4-0.1-0.5-0.1l0.1-1
			c0.1,0,0.2,0.1,0.4,0.1s0.3,0,0.5,0c0.6,0,1-0.2,1.4-0.6s0.5-1,0.5-1.8V404H203.5z M203.5,400.9h-1.2v-1.6h1.2V400.9z"/>
		<path class="st41" d="M213.6,414.5c-0.1-0.4-0.1-0.7-0.2-0.9s0-0.5,0-0.8c-0.4,0.6-0.9,1-1.6,1.4s-1.4,0.5-2.2,0.5
			c-1,0-1.8-0.3-2.4-0.8s-0.9-1.3-0.9-2.2c0-1,0.4-1.8,1.3-2.3s2-0.9,3.4-0.9h2.3v-1.3c0-0.8-0.2-1.3-0.7-1.8s-1.2-0.6-2-0.6
			c-0.8,0-1.5,0.2-2,0.6s-0.8,0.9-0.8,1.5l-1.1,0l0-0.1c0-0.8,0.3-1.5,1.1-2.1s1.7-0.9,2.9-0.9c1.2,0,2.1,0.3,2.8,0.9
			s1.1,1.4,1.1,2.5v5.2c0,0.4,0,0.7,0.1,1.1s0.1,0.7,0.2,1H213.6z M209.7,413.7c0.8,0,1.6-0.2,2.2-0.6s1.1-0.9,1.4-1.5v-2.2H211
			c-1.1,0-1.9,0.2-2.5,0.7s-1,1-1,1.7c0,0.6,0.2,1,0.6,1.4S209,413.7,209.7,413.7z"/>
		<path class="st41" d="M231.1,414.5h-8.8v-0.9l4.7-5.3c0.9-1,1.5-1.8,1.8-2.4s0.5-1.3,0.5-1.9c0-0.9-0.2-1.6-0.7-2.1
			s-1.2-0.8-2.1-0.8c-1.1,0-1.9,0.3-2.5,0.9s-0.8,1.4-0.8,2.4h-1.1l0-0.1c0-1.2,0.4-2.2,1.2-3s1.9-1.2,3.3-1.2
			c1.2,0,2.2,0.4,2.9,1.1s1.1,1.6,1.1,2.8c0,0.8-0.2,1.6-0.7,2.4s-1.2,1.7-2.1,2.7l-3.9,4.4l0,0h7.3V414.5z"/>
		<path class="st41" d="M240.5,410h2.2v1h-2.2v3.6h-1.2V411h-6.7v-0.7l6.6-10h1.3V410z M234.1,410h5.3v-8.1l-0.1,0l-0.5,1.1
			L234.1,410z"/>
		<path class="st41" d="M244.5,415.8h-1.1l5.9-15.4h1.1L244.5,415.8z"/>
		<path class="st41" d="M261.1,401.3c-1.5,1.8-2.7,3.7-3.5,5.6s-1.4,4-1.6,6.5l-0.1,1.2h-1.2l0.1-1.2c0.3-2.4,0.8-4.6,1.7-6.5
			s2-3.8,3.4-5.5h-8.1v-1h9.3V401.3z"/>
		<path class="st41" d="M263.5,415.8h-1.1l5.9-15.4h1.1L263.5,415.8z"/>
		<path class="st41" d="M274,406.8h1.4c1,0,1.8-0.3,2.4-0.8s0.8-1.2,0.8-2c0-0.9-0.3-1.6-0.8-2.1s-1.2-0.8-2.2-0.8
			c-0.9,0-1.7,0.3-2.2,0.8s-0.9,1.2-0.9,2.1h-1.1l0-0.1c0-1.1,0.4-2,1.2-2.8s1.8-1.1,3.1-1.1c1.3,0,2.3,0.3,3,1s1.1,1.7,1.1,2.9
			c0,0.7-0.2,1.3-0.6,1.9s-1,1-1.8,1.3c0.9,0.3,1.5,0.7,2,1.3s0.7,1.3,0.7,2.1c0,1.3-0.4,2.3-1.2,3s-1.9,1.1-3.1,1.1
			c-1.2,0-2.3-0.4-3.2-1.1s-1.3-1.7-1.3-2.9l0-0.1h1.1c0,0.9,0.3,1.6,0.9,2.2s1.4,0.9,2.4,0.9c1,0,1.8-0.3,2.4-0.8
			c0.6-0.5,0.8-1.3,0.8-2.2c0-1-0.3-1.7-0.9-2.2s-1.4-0.7-2.5-0.7H274V406.8z"/>
		<path class="st41" d="M287.5,400.1c0.5,0,1,0.1,1.4,0.2s0.9,0.3,1.3,0.5l-0.3,1c-0.4-0.2-0.7-0.4-1.1-0.5s-0.8-0.1-1.3-0.1
			c-1.1,0-1.9,0.4-2.6,1.2s-1,1.9-1,3.2v1.3c0.4-0.5,0.9-0.9,1.5-1.2s1.3-0.5,2-0.5c1.3,0,2.3,0.4,3,1.3s1.1,2,1.1,3.4
			c0,1.4-0.4,2.6-1.2,3.5s-1.8,1.4-3.1,1.4c-1.3,0-2.4-0.5-3.2-1.5s-1.3-2.3-1.3-4v-3.6c0-1.6,0.5-3,1.4-4S286.1,400.1,287.5,400.1z
			 M287.1,406.1c-0.8,0-1.5,0.2-2.1,0.6c-0.6,0.4-1,0.9-1.2,1.6v1c0,1.4,0.3,2.4,0.9,3.2c0.6,0.8,1.4,1.2,2.4,1.2
			c1,0,1.7-0.4,2.3-1.1c0.6-0.7,0.9-1.7,0.9-2.7c0-1.1-0.3-2.1-0.8-2.8C288.9,406.5,288.1,406.1,287.1,406.1z"/>
		<path class="st41" d="M294.1,408.1l0.8-7.8h6.9v1.1h-5.9l-0.5,5.1c0.4-0.3,0.8-0.6,1.2-0.8s1-0.3,1.7-0.3c1.2,0,2.2,0.4,2.9,1.2
			s1.1,2,1.1,3.4c0,1.4-0.4,2.6-1.1,3.4s-1.8,1.3-3.2,1.3c-1.2,0-2.1-0.3-2.9-1s-1.2-1.6-1.1-2.9l0-0.1h1c0,1,0.3,1.7,0.8,2.2
			c0.5,0.5,1.3,0.8,2.2,0.8c1.1,0,1.8-0.3,2.4-1c0.5-0.6,0.8-1.6,0.8-2.8c0-1.1-0.3-1.9-0.8-2.5s-1.3-1-2.2-1
			c-0.9,0-1.6,0.1-2.1,0.4s-0.8,0.7-1,1.3L294.1,408.1z"/>
	</g>
	<g>
		<path class="st27" d="M104.5,445v-12.4l10.7,6.2L104.5,445z"/>
	</g>
	<g>
		<path class="st41" d="M122.1,444.5v-14.2h4.1c1.7,0,3.2,0.6,4.3,1.7s1.7,2.6,1.7,4.5v1.8c0,1.8-0.6,3.3-1.7,4.5s-2.6,1.7-4.3,1.7
			H122.1z M123.3,431.3v12.2h3c1.4,0,2.6-0.5,3.5-1.5s1.4-2.2,1.4-3.7v-1.9c0-1.5-0.5-2.7-1.4-3.7s-2.1-1.5-3.5-1.5H123.3z"/>
		<path class="st41" d="M134.3,439.1c0-1.6,0.4-2.8,1.3-3.8s2-1.5,3.4-1.5c1.4,0,2.5,0.5,3.4,1.5s1.3,2.3,1.3,3.8v0.3
			c0,1.6-0.4,2.8-1.3,3.8s-2,1.5-3.4,1.5c-1.4,0-2.6-0.5-3.4-1.5s-1.3-2.3-1.3-3.8V439.1z M135.4,439.4c0,1.2,0.3,2.3,0.9,3.1
			c0.6,0.8,1.5,1.2,2.6,1.2c1.1,0,1.9-0.4,2.6-1.2c0.6-0.8,0.9-1.9,0.9-3.1v-0.3c0-1.2-0.3-2.2-0.9-3.1s-1.5-1.3-2.6-1.3
			s-2,0.4-2.6,1.3s-0.9,1.9-0.9,3.1V439.4z"/>
		<path class="st41" d="M145.6,439.3c0-1.7,0.4-3,1.1-4s1.7-1.5,3-1.5c0.7,0,1.4,0.2,1.9,0.5s1,0.8,1.3,1.3v-6.3h1.2v15.2h-1
			l-0.1-1.5c-0.4,0.6-0.8,1-1.4,1.3s-1.2,0.4-2,0.4c-1.3,0-2.3-0.5-3-1.4s-1.1-2.2-1.1-3.8V439.3z M146.8,439.5
			c0,1.3,0.3,2.3,0.8,3.1s1.3,1.1,2.3,1.1c0.8,0,1.4-0.2,1.9-0.5s0.9-0.8,1.2-1.4v-5c-0.3-0.6-0.6-1.1-1.1-1.5
			c-0.5-0.4-1.1-0.6-1.9-0.6c-1,0-1.8,0.4-2.3,1.3s-0.8,1.9-0.8,3.3V439.5z"/>
		<path class="st41" d="M158.5,430.9h-1.2v-1.6h1.2V430.9z M158.5,444.5h-1.2V434h1.2V444.5z"/>
		<path class="st41" d="M163.1,434v11.4c0,1.1-0.3,1.9-0.8,2.5s-1.2,0.9-2.2,0.9c-0.2,0-0.4,0-0.6,0s-0.4-0.1-0.5-0.1l0.1-1
			c0.1,0,0.2,0.1,0.4,0.1s0.3,0,0.5,0c0.6,0,1-0.2,1.4-0.6s0.5-1,0.5-1.8V434H163.1z M163,430.9h-1.2v-1.6h1.2V430.9z"/>
		<path class="st41" d="M170.4,444.7c-1.3,0-2.4-0.5-3.3-1.5s-1.3-2.2-1.3-3.7V439c0-1.5,0.4-2.8,1.3-3.8s1.9-1.5,3.2-1.5
			c1.3,0,2.3,0.4,3.1,1.2s1.1,1.9,1.1,3.3v1H167v0.3c0,1.2,0.3,2.2,0.9,3s1.5,1.2,2.5,1.2c0.7,0,1.4-0.1,1.9-0.3s1-0.5,1.3-0.9
			l0.5,0.8c-0.4,0.4-0.9,0.8-1.5,1C172,444.6,171.2,444.7,170.4,444.7z M170.3,434.8c-0.9,0-1.6,0.3-2.2,1c-0.6,0.7-0.9,1.5-1,2.5
			l0,0h6.2V438c0-0.9-0.3-1.7-0.8-2.3C171.9,435.1,171.2,434.8,170.3,434.8z"/>
		<path class="st41" d="M178,444.5h-1.2v-15.2h1.2V444.5z"/>
		<path class="st41" d="M182.7,434v11.4c0,1.1-0.3,1.9-0.8,2.5s-1.2,0.9-2.2,0.9c-0.2,0-0.4,0-0.6,0s-0.4-0.1-0.5-0.1l0.1-1
			c0.1,0,0.2,0.1,0.4,0.1s0.3,0,0.5,0c0.6,0,1-0.2,1.4-0.6s0.5-1,0.5-1.8V434H182.7z M182.6,430.9h-1.2v-1.6h1.2V430.9z"/>
		<path class="st41" d="M190,444.7c-1.3,0-2.4-0.5-3.3-1.5s-1.3-2.2-1.3-3.7V439c0-1.5,0.4-2.8,1.3-3.8s1.9-1.5,3.2-1.5
			c1.3,0,2.3,0.4,3.1,1.2s1.1,1.9,1.1,3.3v1h-7.5v0.3c0,1.2,0.3,2.2,0.9,3s1.5,1.2,2.5,1.2c0.7,0,1.4-0.1,1.9-0.3s1-0.5,1.3-0.9
			l0.5,0.8c-0.4,0.4-0.9,0.8-1.5,1C191.5,444.6,190.8,444.7,190,444.7z M189.8,434.8c-0.9,0-1.6,0.3-2.2,1c-0.6,0.7-0.9,1.5-1,2.5
			l0,0h6.2V438c0-0.9-0.3-1.7-0.8-2.3C191.5,435.1,190.8,434.8,189.8,434.8z"/>
		<path class="st41" d="M197.3,434l0.1,1.8c0.3-0.7,0.8-1.2,1.4-1.5s1.3-0.5,2-0.5c1.1,0,2,0.3,2.6,1s0.9,1.8,0.9,3.3v6.4h-1.2v-6.4
			c0-1.2-0.2-2.1-0.7-2.6c-0.5-0.5-1.1-0.8-1.9-0.8c-0.8,0-1.5,0.2-2,0.7c-0.5,0.4-0.9,1-1.1,1.7v7.4h-1.2V434H197.3z"/>
		<path class="st41" d="M208.8,430.9h-1.2v-1.6h1.2V430.9z M208.8,444.5h-1.2V434h1.2V444.5z"/>
		<path class="st41" d="M219.4,439.4H218v5.2h-1.2v-15.2h1.2v9.1h1.2l3.9-4.4h1.4l0,0l-4.2,4.8l4.7,5.7l0,0h-1.3L219.4,439.4z"/>
		<path class="st41" d="M230.4,444.7c-1.3,0-2.4-0.5-3.3-1.5s-1.3-2.2-1.3-3.7V439c0-1.5,0.4-2.8,1.3-3.8s1.9-1.5,3.2-1.5
			c1.3,0,2.3,0.4,3.1,1.2s1.1,1.9,1.1,3.3v1H227v0.3c0,1.2,0.3,2.2,0.9,3s1.5,1.2,2.5,1.2c0.7,0,1.4-0.1,1.9-0.3s1-0.5,1.3-0.9
			l0.5,0.8c-0.4,0.4-0.9,0.8-1.5,1C232,444.6,231.3,444.7,230.4,444.7z M230.3,434.8c-0.9,0-1.6,0.3-2.2,1c-0.6,0.7-0.9,1.5-1,2.5
			l0,0h6.2V438c0-0.9-0.3-1.7-0.8-2.3C231.9,435.1,231.2,434.8,230.3,434.8z"/>
		<path class="st41" d="M239.7,441.7l0.4,1.3h0.1l3.2-9h1.3l-4.6,12.3c-0.3,0.7-0.6,1.3-1.1,1.8s-1.1,0.8-1.9,0.8
			c-0.1,0-0.3,0-0.5,0s-0.3-0.1-0.4-0.1l0.1-1c0.1,0,0.2,0,0.4,0s0.3,0,0.4,0c0.5,0,0.9-0.2,1.2-0.5s0.6-0.8,0.8-1.4l0.6-1.4
			l-4.1-10.4h1.3L239.7,441.7z"/>
		<path class="st41" d="M258,444.5c-0.1-0.4-0.1-0.7-0.2-0.9s0-0.5,0-0.8c-0.4,0.6-0.9,1-1.6,1.4s-1.4,0.5-2.2,0.5
			c-1,0-1.8-0.3-2.4-0.8s-0.9-1.3-0.9-2.2c0-1,0.4-1.8,1.3-2.3s2-0.9,3.4-0.9h2.3v-1.3c0-0.8-0.2-1.3-0.7-1.8s-1.2-0.6-2-0.6
			c-0.8,0-1.5,0.2-2,0.6s-0.8,0.9-0.8,1.5l-1.1,0l0-0.1c0-0.8,0.3-1.5,1.1-2.1s1.7-0.9,2.9-0.9c1.2,0,2.1,0.3,2.8,0.9
			s1.1,1.4,1.1,2.5v5.2c0,0.4,0,0.7,0.1,1.1s0.1,0.7,0.2,1H258z M254.2,443.7c0.8,0,1.6-0.2,2.2-0.6s1.1-0.9,1.4-1.5v-2.2h-2.4
			c-1.1,0-1.9,0.2-2.5,0.7s-1,1-1,1.7c0,0.6,0.2,1,0.6,1.4S253.5,443.7,254.2,443.7z"/>
		<path class="st41" d="M266,443.7c0.8,0,1.5-0.2,2.1-0.7c0.6-0.4,0.9-1.1,0.9-1.8h1l0,0.1c0,1-0.4,1.8-1.2,2.5s-1.8,1-2.8,1
			c-1.4,0-2.6-0.5-3.3-1.5s-1.2-2.3-1.2-3.8V439c0-1.5,0.4-2.8,1.2-3.8s1.9-1.5,3.3-1.5c1.2,0,2.1,0.3,2.9,1s1.1,1.6,1.1,2.7l0,0.1
			h-1c0-0.8-0.3-1.5-0.9-2s-1.3-0.8-2.1-0.8c-1.1,0-2,0.4-2.5,1.2s-0.8,1.8-0.8,3.1v0.4c0,1.2,0.3,2.3,0.8,3.1
			C264,443.3,264.8,443.7,266,443.7z"/>
		<path class="st41" d="M276.3,443.7c0.8,0,1.5-0.2,2.1-0.7c0.6-0.4,0.9-1.1,0.9-1.8h1l0,0.1c0,1-0.4,1.8-1.2,2.5s-1.8,1-2.8,1
			c-1.4,0-2.6-0.5-3.3-1.5s-1.2-2.3-1.2-3.8V439c0-1.5,0.4-2.8,1.2-3.8s1.9-1.5,3.3-1.5c1.2,0,2.1,0.3,2.9,1s1.1,1.6,1.1,2.7l0,0.1
			h-1c0-0.8-0.3-1.5-0.9-2s-1.3-0.8-2.1-0.8c-1.1,0-2,0.4-2.5,1.2s-0.8,1.8-0.8,3.1v0.4c0,1.2,0.3,2.3,0.8,3.1
			C274.3,443.3,275.2,443.7,276.3,443.7z"/>
		<path class="st41" d="M282.1,439.1c0-1.6,0.4-2.8,1.3-3.8s2-1.5,3.4-1.5c1.4,0,2.5,0.5,3.4,1.5s1.3,2.3,1.3,3.8v0.3
			c0,1.6-0.4,2.8-1.3,3.8s-2,1.5-3.4,1.5c-1.4,0-2.6-0.5-3.4-1.5s-1.3-2.3-1.3-3.8V439.1z M283.3,439.4c0,1.2,0.3,2.3,0.9,3.1
			c0.6,0.8,1.5,1.2,2.6,1.2c1.1,0,1.9-0.4,2.6-1.2c0.6-0.8,0.9-1.9,0.9-3.1v-0.3c0-1.2-0.3-2.2-0.9-3.1s-1.5-1.3-2.6-1.3
			s-2,0.4-2.6,1.3s-0.9,1.9-0.9,3.1V439.4z"/>
		<path class="st41" d="M300.8,442.8c-0.3,0.6-0.8,1.1-1.4,1.4s-1.3,0.5-2,0.5c-1.1,0-2-0.4-2.6-1.1s-0.9-1.9-0.9-3.5V434h1.2v6.2
			c0,1.3,0.2,2.2,0.7,2.8c0.4,0.6,1.1,0.8,1.9,0.8c0.9,0,1.6-0.2,2.1-0.6c0.5-0.4,0.9-0.9,1.1-1.6V434h1.2v10.6h-1L300.8,442.8z"/>
		<path class="st41" d="M306.1,434l0.1,1.8c0.3-0.7,0.8-1.2,1.4-1.5s1.3-0.5,2-0.5c1.1,0,2,0.3,2.6,1s0.9,1.8,0.9,3.3v6.4h-1.2v-6.4
			c0-1.2-0.2-2.1-0.7-2.6c-0.5-0.5-1.1-0.8-1.9-0.8c-0.8,0-1.5,0.2-2,0.7c-0.5,0.4-0.9,1-1.1,1.7v7.4H305V434H306.1z"/>
		<path class="st41" d="M318,431.3v2.7h2.3v1H318v6.9c0,0.7,0.1,1.2,0.4,1.5s0.6,0.4,1,0.4c0.2,0,0.4,0,0.6,0s0.4,0,0.6-0.1l0.2,0.9
			c-0.2,0.1-0.4,0.1-0.7,0.2s-0.6,0.1-0.8,0.1c-0.7,0-1.3-0.2-1.7-0.7s-0.6-1.2-0.6-2.2v-6.9H315v-1h1.8v-2.7H318z"/>
		<path class="st41" d="M328.7,434l0.1,1.7c0.3-0.6,0.8-1.1,1.4-1.4s1.2-0.5,2-0.5c0.8,0,1.5,0.2,2,0.6s0.9,1,1.2,1.8
			c0.3-0.7,0.8-1.3,1.4-1.7s1.3-0.6,2.2-0.6c1.1,0,2,0.4,2.6,1.1s0.9,1.9,0.9,3.5v6.2h-1.2v-6.2c0-1.3-0.2-2.2-0.7-2.8
			s-1.1-0.8-1.9-0.8c-0.9,0-1.6,0.3-2.1,0.9s-0.8,1.3-0.9,2.2c0,0,0,0.1,0,0.2s0,0.1,0,0.2v6.4h-1.2v-6.2c0-1.3-0.2-2.2-0.7-2.7
			c-0.5-0.6-1.1-0.8-1.9-0.8c-0.8,0-1.5,0.2-2,0.6s-0.8,1-1,1.7v7.4h-1.2V434H328.7z"/>
		<path class="st41" d="M352.1,444.5c-0.1-0.4-0.1-0.7-0.2-0.9s0-0.5,0-0.8c-0.4,0.6-0.9,1-1.6,1.4s-1.4,0.5-2.2,0.5
			c-1,0-1.8-0.3-2.4-0.8s-0.9-1.3-0.9-2.2c0-1,0.4-1.8,1.3-2.3s2-0.9,3.4-0.9h2.3v-1.3c0-0.8-0.2-1.3-0.7-1.8s-1.2-0.6-2-0.6
			c-0.8,0-1.5,0.2-2,0.6s-0.8,0.9-0.8,1.5l-1.1,0l0-0.1c0-0.8,0.3-1.5,1.1-2.1s1.7-0.9,2.9-0.9c1.2,0,2.1,0.3,2.8,0.9
			s1.1,1.4,1.1,2.5v5.2c0,0.4,0,0.7,0.1,1.1s0.1,0.7,0.2,1H352.1z M348.3,443.7c0.8,0,1.6-0.2,2.2-0.6s1.1-0.9,1.4-1.5v-2.2h-2.4
			c-1.1,0-1.9,0.2-2.5,0.7s-1,1-1,1.7c0,0.6,0.2,1,0.6,1.4S347.6,443.7,348.3,443.7z"/>
		<path class="st41" d="M357.2,434l0.1,1.8c0.3-0.7,0.8-1.2,1.4-1.5s1.3-0.5,2-0.5c1.1,0,2,0.3,2.6,1s0.9,1.8,0.9,3.3v6.4h-1.2v-6.4
			c0-1.2-0.2-2.1-0.7-2.6c-0.5-0.5-1.1-0.8-1.9-0.8c-0.8,0-1.5,0.2-2,0.7c-0.5,0.4-0.9,1-1.1,1.7v7.4h-1.2V434H357.2z"/>
		<path class="st41" d="M374,444.5c-0.1-0.4-0.1-0.7-0.2-0.9s0-0.5,0-0.8c-0.4,0.6-0.9,1-1.6,1.4s-1.4,0.5-2.2,0.5
			c-1,0-1.8-0.3-2.4-0.8s-0.9-1.3-0.9-2.2c0-1,0.4-1.8,1.3-2.3s2-0.9,3.4-0.9h2.3v-1.3c0-0.8-0.2-1.3-0.7-1.8s-1.2-0.6-2-0.6
			c-0.8,0-1.5,0.2-2,0.6s-0.8,0.9-0.8,1.5l-1.1,0l0-0.1c0-0.8,0.3-1.5,1.1-2.1s1.7-0.9,2.9-0.9c1.2,0,2.1,0.3,2.8,0.9
			s1.1,1.4,1.1,2.5v5.2c0,0.4,0,0.7,0.1,1.1s0.1,0.7,0.2,1H374z M370.1,443.7c0.8,0,1.6-0.2,2.2-0.6s1.1-0.9,1.4-1.5v-2.2h-2.4
			c-1.1,0-1.9,0.2-2.5,0.7s-1,1-1,1.7c0,0.6,0.2,1,0.6,1.4S369.4,443.7,370.1,443.7z"/>
		<path class="st41" d="M377.6,439.3c0-1.7,0.4-3,1.1-4s1.7-1.5,3-1.5c0.7,0,1.4,0.2,1.9,0.5s1,0.8,1.4,1.4l0.1-1.7h1v10.4
			c0,1.4-0.4,2.4-1.1,3.2s-1.8,1.2-3.1,1.2c-0.5,0-1-0.1-1.6-0.2s-1.1-0.3-1.5-0.5l0.3-1c0.4,0.2,0.9,0.4,1.3,0.5s1,0.2,1.5,0.2
			c1,0,1.8-0.3,2.3-0.9s0.8-1.4,0.8-2.5v-1.3c-0.4,0.5-0.8,0.9-1.4,1.2s-1.2,0.4-1.9,0.4c-1.3,0-2.3-0.5-3-1.4s-1.1-2.2-1.1-3.8
			V439.3z M378.8,439.5c0,1.3,0.3,2.3,0.8,3.1s1.3,1.1,2.3,1.1c0.8,0,1.4-0.2,1.9-0.5s0.9-0.8,1.2-1.4v-4.9
			c-0.3-0.6-0.6-1.1-1.1-1.5c-0.5-0.4-1.1-0.6-1.9-0.6c-1,0-1.8,0.4-2.3,1.3c-0.5,0.8-0.8,1.9-0.8,3.3V439.5z"/>
		<path class="st41" d="M393.1,444.7c-1.3,0-2.4-0.5-3.3-1.5s-1.3-2.2-1.3-3.7V439c0-1.5,0.4-2.8,1.3-3.8s1.9-1.5,3.2-1.5
			c1.3,0,2.3,0.4,3.1,1.2s1.1,1.9,1.1,3.3v1h-7.5v0.3c0,1.2,0.3,2.2,0.9,3s1.5,1.2,2.5,1.2c0.7,0,1.4-0.1,1.9-0.3s1-0.5,1.3-0.9
			l0.5,0.8c-0.4,0.4-0.9,0.8-1.5,1C394.7,444.6,394,444.7,393.1,444.7z M393,434.8c-0.9,0-1.6,0.3-2.2,1c-0.6,0.7-0.9,1.5-1,2.5l0,0
			h6.2V438c0-0.9-0.3-1.7-0.8-2.3C394.7,435.1,393.9,434.8,393,434.8z"/>
		<path class="st41" d="M404.3,435l-0.9-0.1c-0.7,0-1.3,0.2-1.8,0.6s-0.8,1-1,1.7v7.3h-1.2V434h1l0.1,1.8v0.1
			c0.3-0.7,0.7-1.2,1.2-1.5s1.1-0.5,1.8-0.5c0.1,0,0.3,0,0.4,0s0.3,0,0.3,0.1L404.3,435z"/>
	</g>
	<path class="st42" d="M69.4,402.3c-0.6,0.2-1.1,0.5-1.7,0.6c-1.2,0.4-2.4,0.6-3.6,0.7c-1,0-2,0.1-2.9,0.1c-1.7,0-3.3-0.2-4.9-0.6
		c-1.4-0.4-2.8-0.9-4.1-1.6c-1.5-0.8-2.7-1.9-3.5-3.4c-0.2-0.4-0.4-0.8-0.5-1.2c0-0.1-0.1-0.2-0.1-0.3c-0.1,0.4-0.2,0.7-0.4,1.1
		c-0.7,2.1-1.9,3.8-3.7,5c-1,0.7-2.2,1.1-3.5,1.3c-1,0.2-1.9,0.2-2.9,0.1c-0.2,0-0.3,0-0.4,0.2c-0.5,1.4-0.8,2.8-0.9,4.3
		c-0.1,1.3-0.1,2.5,0.1,3.8c0.2,1.5,0.6,3,1.2,4.4c0.7,1.7,1.7,3.2,2.9,4.6c1,1.1,2,2.1,3.3,2.9c0.7,0.4,1.4,0.8,2.1,1.2
		c0.1,0,0.2,0.2,0.2,0.3c0,1.6,0,3.2,0,4.9c0,0,0,0.1,0,0.1h-0.3c-4.1,0-8.1,0-12.2,0c-0.5,0-0.8-0.3-0.8-0.8c0-3.7,0-7.5,0-11.2
		v-1.4c-0.4-0.1-0.7-0.1-1.1-0.2c-1.8-0.5-3.2-1.6-4.1-3.3c-0.8-1.5-1.2-3-1-4.7c0.1-1.4,0.6-2.6,1.4-3.7c0.6-0.8,1.3-1.5,2.2-2
		c0.1-0.1,0.2-0.2,0.2-0.3c0.2-0.9,0.3-1.8,0.6-2.7c0.4-1.1,0.8-2.3,1.2-3.4c0.5-1.3,1.2-2.5,2-3.7c0.7-1.1,1.5-2.1,2.3-3.1
		c1.1-1.3,2.3-2.4,3.7-3.4c1.5-1.1,3.1-2,4.8-2.7c1.1-0.4,2.3-0.8,3.4-1c2.4-0.6,4.8-0.7,7.2-0.5c1.5,0.1,3,0.3,4.5,0.7
		c1.7,0.4,3.2,1.1,4.7,1.9c1.7,0.9,3.2,2,4.6,3.3c1.1,1,2.1,2.1,3,3.4c0.9,1.2,1.7,2.4,2.3,3.7c0.5,1.1,1.1,2.3,1.5,3.4
		c0.5,1.3,0.9,2.7,1.1,4.1c0,0.2,0.1,0.3,0.3,0.4c0.8,0.5,1.5,1.2,2.1,2c1,1.5,1.5,3.3,1.3,5.1c-0.2,2.2-1.2,4-3,5.4
		c-0.9,0.7-1.9,1.1-3,1.2c-0.1,0-0.2,0-0.3,0.1v0.3c0,4.1,0,8.2,0,12.3c0,0.7-0.2,0.9-0.9,0.9c-4.1,0-8.2,0-12.3,0h-0.2v-0.3
		c0-1.5,0-3,0-4.5c0-0.2,0-0.3,0.3-0.4c2.4-1.2,4.4-2.9,6.1-5c0,0,0.1-0.1,0.1-0.2c-0.3,0.1-0.5,0.3-0.8,0.4c-1,0.6-2,1-3.1,1.3
		c-1.5,0.5-3.1,0.8-4.7,0.9c-0.7,0.1-1.4,0.1-2.1,0.1c-0.1,0-0.2,0-0.3,0.2c-0.6,1.1-1.5,1.7-2.8,1.8c-1.5,0.1-2.9-0.9-3.3-2.4
		c-0.3-1.2-0.1-2.3,0.8-3.2c0.9-0.9,1.9-1.2,3.1-0.9c1.1,0.3,1.8,0.9,2.2,2c0.1,0.2,0.1,0.2,0.3,0.2c1.6,0,3.2-0.3,4.8-0.7
		c2.1-0.6,4-1.4,5.8-2.6c0.9-0.6,1.7-1.2,2.5-1.9c0.2-0.2,0.3-0.6,0.4-0.9c0.4-1.2,0.6-2.4,0.6-3.6c0.1-1.2,0-2.4-0.1-3.6
		c-0.2-1.7-0.7-3.3-1.4-4.9C69.6,402.6,69.5,402.5,69.4,402.3C69.5,402.3,69.5,402.3,69.4,402.3 M33.5,402.6c0.2,0,0.3,0,0.5,0
		c0.2,0,0.2,0,0.3-0.2c0.2-0.5,0.4-1,0.6-1.4c0.8-1.7,1.9-3.3,3.1-4.8c1.4-1.6,3.1-3,4.9-4.1c2-1.2,4.1-2.1,6.4-2.5
		c1.1-0.2,2.3-0.4,3.4-0.5c2-0.1,4.1,0.1,6,0.6c1.4,0.3,2.8,0.8,4,1.5c1.6,0.8,3.1,1.8,4.4,2.9c1.4,1.2,2.6,2.5,3.6,4
		c0.9,1.4,1.7,2.8,2.3,4.4c0,0.1,0.1,0.1,0.2,0.1c0.2,0,0.4,0,0.6,0c-0.1-0.4-0.2-0.9-0.3-1.3c-0.6-1.9-1.4-3.7-2.4-5.5
		c-1.2-2-2.7-3.7-4.4-5.2c-1.4-1.2-2.9-2.1-4.6-2.8c-1.9-0.8-3.8-1.3-5.8-1.5c-2.6-0.3-5.1-0.2-7.7,0.4c-1.4,0.3-2.7,0.7-4,1.3
		c-1.2,0.5-2.3,1.2-3.3,2c-1.1,0.8-2.1,1.7-3,2.8c-1.3,1.5-2.3,3.1-3.2,4.9C34.5,399.2,33.9,400.8,33.5,402.6"/>
	<g>
		<polygon class="st27" points="41.7,234.1 44.3,231.5 54.1,241.4 74.7,220.7 77.3,223.3 54.1,246.5 		"/>
		<path class="st27" d="M42.9,216.9c0,0.3,0.2,0.6,0.4,0.8c0.2,0.2,0.5,0.4,0.8,0.4h19.1c0.3,0,0.4-0.2,0.5-0.4
			c0.2-0.2,0.2-0.5,0.2-0.8v-1.7c0-0.3,0-0.1-0.2-0.2c-0.2-0.2-0.3,0.1-0.5,0.1H44.1c-0.3,0-0.6-0.3-0.8-0.1c-0.2,0.2-0.4,0-0.4,0.2
			V216.9z"/>
		<path class="st27" d="M43.2,241h-8.3v-37h12.7c0.7,0,1.2-0.3,1.7-0.9c0.5-0.5,0.6-1.2,0.6-1.9V190h21v29.5l3-3.5v-27
			c0-0.7,0.1-1.1-0.5-1.6c-0.5-0.5-0.8-0.5-1.5-0.5H47.6c-0.7,0-1.5-0.1-2.4,0.3c-0.9,0.4-1.6,0.7-2.1,1.2l-8.5,8.4
			c-0.5,0.5-1.4,1.2-1.8,2c-0.4,0.9-1,1.6-1,2.4v40c0,0.7,0.7,1.4,1.2,1.9c0.5,0.5,1.6,0.8,2.3,0.8h11.3L43.2,241z M37.1,199.1
			l8.1-8.4c0.2-0.2,0.7-0.3,0.7-0.5v9.9h-9.4C36.7,200,36.9,199.3,37.1,199.1"/>
		<path class="st27" d="M70.9,234.3v6.7h-6l-3.5,3h10.4c0.7,0,1-0.3,1.5-0.8c0.5-0.5,0.5-1.2,0.5-1.9v-10.4L70.9,234.3z"/>
		<path class="st27" d="M42.9,223.8c0,0.3,0.2,0.6,0.4,0.8c0.2,0.2,0.5,0.4,0.8,0.4h19.1c0.3,0,0.4-0.2,0.5-0.4
			c0.2-0.2,0.2-0.5,0.2-0.8v-1.7c0-0.3,0-0.6-0.2-0.7c-0.2-0.2-0.3-0.3-0.5-0.3H44.1c-0.3,0-0.6,0.2-0.8,0.3
			c-0.2,0.2-0.4,0.5-0.4,0.7V223.8z"/>
		<path class="st27" d="M44.1,211h19.1c0.3,0,0.4-0.2,0.5-0.4c0.2-0.2,0.2-0.5,0.2-0.7v-1.7c0-0.3,0-0.1-0.2-0.3
			c-0.2-0.2-0.3,0.1-0.5,0.1H44.1c-0.3,0-0.6-0.3-0.8-0.1c-0.2,0.2-0.4,0-0.4,0.3v1.7c0,0.3,0.2,0.6,0.4,0.7
			C43.5,210.8,43.8,211,44.1,211"/>
	</g>
</g>
</svg>
