<svg xmlns="http://www.w3.org/2000/svg" viewBox="0 0 50 250"><defs><style>.cls-1{fill:#a8b949;}.cls-2{fill:#28373c;}</style></defs><title>Sidebar_gumb</title><g id="Layer_2" data-name="Layer 2"><g id="Layer_1-2" data-name="Layer 1"><rect class="cls-1" width="50" height="250"/><path class="cls-2" d="M20.36,33.63v6.47H17.82V29.57h1.48l10.2,6.36V29.54H32V40H30.61Z"/><path class="cls-2" d="M20.59,49.39V44.91l-2.76-.8V40.79L32,45.38v3.54l-14.22,4.6V50.2Zm2.54-3.75v3l5.09-1.48v-.06Z"/><path class="cls-2" d="M29.5,63.29V59.54H17.82V56.23H29.5V52.51H32V63.29Z"/><path class="cls-2" d="M23.27,67.94H17.82V64.63H32v5.47A6.15,6.15,0,0,1,30.9,74a3.77,3.77,0,0,1-3.12,1.45,3.11,3.11,0,0,1-1.89-.58,4.11,4.11,0,0,1-1.29-1.71A3.18,3.18,0,0,1,23.35,75a3.82,3.82,0,0,1-2.15.57h-.9a5.69,5.69,0,0,0-1.27.17,1.68,1.68,0,0,0-1,.58h-.2V73a1.63,1.63,0,0,1,1.07-.51,9.21,9.21,0,0,1,1.43-.12h.86a2.1,2.1,0,0,0,1.55-.54,2.13,2.13,0,0,0,.54-1.57Zm2.54,0v2.18a2.27,2.27,0,0,0,.45,1.52,1.63,1.63,0,0,0,1.3.53,1.88,1.88,0,0,0,1.4-.54,2.09,2.09,0,0,0,.53-1.53V67.94Z"/><path class="cls-2" d="M20.59,85.39V80.91l-2.76-.8V76.78L32,81.37v3.54l-14.22,4.6V86.2Zm2.54-3.75v3l5.09-1.48v-.06Z"/><path class="cls-2" d="M20.36,94.13v6.47H17.82V90.07h1.48l10.2,6.36V90H32v10.48H30.61ZM35,95.24l1.13,1v3H36L33.49,96.4V94.07L36,91.2h.14v3Z"/><path class="cls-2" d="M17.82,105.72v-3.29H32v3.29Z"/><path class="cls-2" d="M29.5,117.83v-3.75H17.82v-3.31H29.5v-3.72H32v10.78Z"/><path class="cls-2" d="M23.91,128.06v-5.58H20.36v6.57H17.82v-9.88H32v9.9H29.5v-6.59H26.44v5.58Z"/><path class="cls-2" d="M22.69,138.84H17.82v-3.31H32v5.77a5.89,5.89,0,0,1-1.29,4,4.27,4.27,0,0,1-3.38,1.48A4.25,4.25,0,0,1,24,145.31a5.92,5.92,0,0,1-1.28-4Zm2.54,0v2.46a2.15,2.15,0,0,0,.59,1.64,2.11,2.11,0,0,0,1.52.56,2.19,2.19,0,0,0,1.55-.56,2.12,2.12,0,0,0,.61-1.64v-2.46Z"/><path class="cls-2" d="M23.65,160.41a5.94,5.94,0,0,1-4.33-1.67,5.81,5.81,0,0,1-1.7-4.35,5.8,5.8,0,0,1,6-6.06h2.56A5.93,5.93,0,0,1,30.54,150a6.42,6.42,0,0,1,0,8.73,5.92,5.92,0,0,1-4.33,1.68Zm2.58-3.29a4.11,4.11,0,0,0,2.5-.72,2.62,2.62,0,0,0,0-4.07,4.15,4.15,0,0,0-2.5-.71H23.65a4.15,4.15,0,0,0-2.52.72,2.4,2.4,0,0,0-1,2.06,2.34,2.34,0,0,0,1,2,4.17,4.17,0,0,0,2.52.71Z"/><path class="cls-2" d="M17.82,174.19V170.9l9.06-5.21,0-.06h-9v-3.31H32v3.31L23,170.84l0,.06h9v3.29Z"/><path class="cls-2" d="M32,188.1H22.72A4.62,4.62,0,0,1,19,186.48a6.42,6.42,0,0,1-1.34-4.23A6.49,6.49,0,0,1,19,178a4.62,4.62,0,0,1,3.77-1.62H32v3.31H22.72a2.53,2.53,0,0,0-1.94.67,2.68,2.68,0,0,0-.63,1.9,2.63,2.63,0,0,0,.63,1.88,2.56,2.56,0,0,0,1.94.66H32Z"/><path class="cls-2" d="M17.82,190.26H32v5.14a5.8,5.8,0,0,1-1.64,4.2,5.58,5.58,0,0,1-4.19,1.69H23.65a5.58,5.58,0,0,1-4.2-1.69,5.81,5.81,0,0,1-1.63-4.2Zm11.68,3.31H20.36v1.6a2.52,2.52,0,0,0,.9,2.06,3.64,3.64,0,0,0,2.39.74h2.58a3.61,3.61,0,0,0,2.37-.74,2.52,2.52,0,0,0,.9-2.06Z"/><path class="cls-2" d="M32,215H22.72A4.62,4.62,0,0,1,19,213.38a6.42,6.42,0,0,1-1.34-4.23A6.49,6.49,0,0,1,19,204.88a4.62,4.62,0,0,1,3.77-1.62H32v3.31H22.72a2.53,2.53,0,0,0-1.94.67,2.68,2.68,0,0,0-.63,1.9,2.63,2.63,0,0,0,.63,1.88,2.56,2.56,0,0,0,1.94.66H32Z"/></g></g></svg>