<?xml version="1.0" encoding="utf-8"?>
<!-- Generator: Adobe Illustrator 21.1.0, SVG Export Plug-In . SVG Version: 6.00 Build 0)  -->
<svg version="1.1" id="Layer_1" xmlns="http://www.w3.org/2000/svg" xmlns:xlink="http://www.w3.org/1999/xlink" x="0px" y="0px"
	 viewBox="0 0 50 250" style="enable-background:new 0 0 50 250;" xml:space="preserve">
<style type="text/css">
	.st0{fill:#A7B849;}
	.st1{fill:#28373C;}
</style>
<title>sidebar_gumb2</title>
<g>
	<rect class="st0" width="50" height="250"/>
	<g>
		<path class="st1" d="M30.4,11.3v6.5h-2.5V7.3h1.5l10.2,6.4V7.2H42v10.5h-1.4L30.4,11.3z"/>
		<path class="st1" d="M30.6,27v-4.5l-2.8-0.8v-3.3L42,22.9v3.5l-14.2,4.6v-3.3L30.6,27z M33.1,23.2v3l5.1-1.5v-0.1L33.1,23.2z"/>
		<path class="st1" d="M39.5,42v-3.8H27.8V35h11.7v-3.7H42V42H39.5z"/>
		<path class="st1" d="M33.3,46.7h-5.4v-3.3H42v5.5c0,1.6-0.4,3-1.1,3.9c-0.8,1-1.8,1.4-3.1,1.4c-0.7,0-1.4-0.2-1.9-0.6
			c-0.5-0.4-1-1-1.3-1.7c-0.2,0.9-0.7,1.5-1.2,1.9s-1.3,0.6-2.2,0.6h-0.9c-0.4,0-0.8,0.1-1.3,0.2c-0.5,0.1-0.8,0.3-1,0.6h-0.2v-3.4
			c0.2-0.3,0.6-0.4,1.1-0.5c0.5-0.1,1-0.1,1.4-0.1h0.9c0.7,0,1.2-0.2,1.6-0.5c0.4-0.4,0.5-0.9,0.5-1.6V46.7z M35.8,46.7v2.2
			c0,0.7,0.2,1.2,0.5,1.5s0.7,0.5,1.3,0.5c0.6,0,1-0.2,1.4-0.5s0.5-0.9,0.5-1.5v-2.2H35.8z"/>
		<path class="st1" d="M30.6,64.1v-4.5l-2.8-0.8v-3.3L42,60.1v3.5l-14.2,4.6v-3.3L30.6,64.1z M33.1,60.4v3l5.1-1.5v-0.1L33.1,60.4z"
			/>
		<path class="st1" d="M30.4,72.9v6.5h-2.5V68.8h1.5l10.2,6.4v-6.4H42v10.5h-1.4L30.4,72.9z M45,74l1.1,1v3H46l-2.5-2.9v-2.3
			l2.6-2.9h0.1v3L45,74z"/>
		<path class="st1" d="M27.8,84.4v-3.3H42v3.3H27.8z"/>
		<path class="st1" d="M39.5,96.8v-3.8H27.8v-3.3h11.7V86H42v10.8H39.5z"/>
		<path class="st1" d="M33.9,107v-5.6h-3.5v6.6h-2.5v-9.9H42v9.9h-2.5v-6.6h-3.1v5.6H33.9z"/>
		<path class="st1" d="M27.8,118v-3.3H42v3.3H27.8z"/>
		<path class="st1" d="M27.8,132.3v-3.3l9.1-5.2l0-0.1h-9v-3.3H42v3.3L33,129l0,0.1h9v3.3H27.8z"/>
		<path class="st1" d="M27.8,134.6H42v5.1c0,1.7-0.5,3.1-1.6,4.2c-1.1,1.1-2.5,1.7-4.2,1.7h-2.6c-1.7,0-3.1-0.6-4.2-1.7
			c-1.1-1.1-1.6-2.5-1.6-4.2V134.6z M39.5,137.9h-9.1v1.6c0,0.9,0.3,1.6,0.9,2.1c0.6,0.5,1.4,0.7,2.4,0.7h2.6c1,0,1.8-0.2,2.4-0.7
			c0.6-0.5,0.9-1.2,0.9-2.1V137.9z"/>
		<path class="st1" d="M27.8,151.2v-3.3H42v3.3H27.8z"/>
		<path class="st1" d="M31.7,158.7l-0.5,0.1v0.1l0.5,0.1l10.4,2.8v3.5l-14.2-4.6v-3.6l14.2-4.6v3.4L31.7,158.7z"/>
		<path class="st1" d="M27.8,169.9v-3.3H42v3.3H27.8z"/>
		<path class="st1" d="M27.8,172.3H42v5.1c0,1.7-0.5,3.1-1.6,4.2c-1.1,1.1-2.5,1.7-4.2,1.7h-2.6c-1.7,0-3.1-0.6-4.2-1.7
			c-1.1-1.1-1.6-2.5-1.6-4.2V172.3z M39.5,175.6h-9.1v1.6c0,0.9,0.3,1.6,0.9,2.1c0.6,0.5,1.4,0.7,2.4,0.7h2.6c1,0,1.8-0.2,2.4-0.7
			c0.6-0.5,0.9-1.2,0.9-2.1V175.6z"/>
		<path class="st1" d="M42,197.1h-9.3c-1.6,0-2.9-0.5-3.8-1.6c-0.9-1.1-1.3-2.5-1.3-4.2c0-1.8,0.4-3.2,1.3-4.3
			c0.9-1.1,2.1-1.6,3.8-1.6H42v3.3h-9.3c-0.9,0-1.5,0.2-1.9,0.7s-0.6,1.1-0.6,1.9c0,0.8,0.2,1.4,0.6,1.9s1.1,0.7,1.9,0.7H42V197.1z"
			/>
		<path class="st1" d="M30.6,206.8v-4.5l-2.8-0.8v-3.3l14.2,4.6v3.5l-14.2,4.6v-3.3L30.6,206.8z M33.1,203v3l5.1-1.5v-0.1L33.1,203z
			"/>
		<path class="st1" d="M30.4,215.2v6.1h-2.5v-9.4H42v3.3H30.4z"/>
		<path class="st1" d="M27.8,234.6v-3.3l9.1-5.2l0-0.1h-9v-3.3H42v3.3l-9.1,5.2l0,0.1h9v3.3H27.8z"/>
		<path class="st1" d="M27.8,240.4v-3.3H42v3.3H27.8z"/>
	</g>
	<g>
		<path class="st1" d="M19.5,47.3v-3.8H7.8v-3.3h11.7v-3.7H22v10.8H19.5z"/>
		<path class="st1" d="M13.9,57.5v-5.6h-3.5v6.6H7.8v-9.9H22v9.9h-2.5v-6.6h-3.1v5.6H13.9z"/>
		<path class="st1" d="M13.3,63.3H7.8V60H22v5.5c0,1.6-0.4,3-1.1,3.9s-1.8,1.4-3.1,1.4c-0.7,0-1.4-0.2-1.9-0.6s-1-1-1.3-1.7
			c-0.2,0.9-0.7,1.5-1.2,1.9S12.1,71,11.2,71h-0.9C9.9,71,9.5,71,9,71.1s-0.8,0.3-1,0.6H7.8v-3.4c0.2-0.3,0.6-0.4,1.1-0.5
			s1-0.1,1.4-0.1h0.9c0.7,0,1.2-0.2,1.6-0.5s0.5-0.9,0.5-1.6V63.3z M15.8,63.3v2.2c0,0.7,0.2,1.2,0.5,1.5s0.7,0.5,1.3,0.5
			c0.6,0,1-0.2,1.4-0.5s0.5-0.9,0.5-1.5v-2.2H15.8z"/>
		<path class="st1" d="M22,77.5l-10,3.2v0.1L22,84v4.4H7.8V85h3.5l6.5,0.3l0-0.1l-10-3.4v-2.2l9.9-3.4l0-0.1l-6.4,0.3H7.8v-3.3H22
			V77.5z"/>
		<path class="st1" d="M7.8,94.1v-3.3H22v3.3H7.8z"/>
		<path class="st1" d="M7.8,108.4v-3.3l9.1-5.2l0-0.1h-9v-3.3H22v3.3l-9.1,5.2l0,0.1h9v3.3H7.8z"/>
		<path class="st1" d="M11.6,123.2c0.5,0,0.9-0.2,1.2-0.5s0.6-0.9,0.9-1.8c0.6-1.8,1.2-3.1,1.8-4s1.6-1.3,2.8-1.3
			c1.2,0,2.2,0.5,2.9,1.5s1.1,2.3,1.1,3.9c0,1.6-0.4,2.9-1.2,3.9s-1.9,1.5-3.1,1.5l-0.1,0v-3.2c0.6,0,1-0.2,1.4-0.6s0.5-0.9,0.5-1.6
			c0-0.7-0.1-1.2-0.4-1.6s-0.7-0.6-1.1-0.6c-0.4,0-0.8,0.2-1,0.6s-0.6,1.1-0.9,2.1c-0.5,1.6-1.1,2.8-1.8,3.6s-1.7,1.2-2.9,1.2
			c-1.3,0-2.2-0.5-2.9-1.5s-1.1-2.3-1.1-3.9c0-1.6,0.4-3,1.2-4.2s2-1.8,3.5-1.7l0.1,0v3.2c-0.8,0-1.4,0.2-1.8,0.7s-0.5,1.1-0.5,2
			c0,0.7,0.1,1.2,0.4,1.5S11.1,123.2,11.6,123.2z"/>
		<path class="st1" d="M10.6,135.8v-4.5l-2.8-0.8v-3.3l14.2,4.6v3.5l-14.2,4.6v-3.3L10.6,135.8z M13.1,132.1v3l5.1-1.5v-0.1
			L13.1,132.1z"/>
		<path class="st1" d="M11.6,148.5c0.5,0,0.9-0.2,1.2-0.5s0.6-0.9,0.9-1.8c0.6-1.8,1.2-3.1,1.8-4s1.6-1.3,2.8-1.3
			c1.2,0,2.2,0.5,2.9,1.5s1.1,2.3,1.1,3.9c0,1.6-0.4,2.9-1.2,3.9s-1.9,1.5-3.1,1.5l-0.1,0v-3.2c0.6,0,1-0.2,1.4-0.6s0.5-0.9,0.5-1.6
			c0-0.7-0.1-1.2-0.4-1.6s-0.7-0.6-1.1-0.6c-0.4,0-0.8,0.2-1,0.6s-0.6,1.1-0.9,2.1c-0.5,1.6-1.1,2.8-1.8,3.6s-1.7,1.2-2.9,1.2
			c-1.3,0-2.2-0.5-2.9-1.5s-1.1-2.3-1.1-3.9c0-1.6,0.4-3,1.2-4.2s2-1.8,3.5-1.7l0.1,0v3.2c-0.8,0-1.4,0.2-1.8,0.7s-0.5,1.1-0.5,2
			c0,0.7,0.1,1.2,0.4,1.5S11.1,148.5,11.6,148.5z"/>
		<path class="st1" d="M19.5,163.5v-3.8H7.8v-3.3h11.7v-3.7H22v10.8H19.5z"/>
		<path class="st1" d="M10.6,172.4v-4.5l-2.8-0.8v-3.3l14.2,4.6v3.5l-14.2,4.6v-3.3L10.6,172.4z M13.1,168.6v3l5.1-1.5v-0.1
			L13.1,168.6z"/>
		<path class="st1" d="M7.8,189.4v-3.3l9.1-5.2l0-0.1h-9v-3.3H22v3.3L13,186l0,0.1h9v3.3H7.8z"/>
		<path class="st1" d="M13.5,196.5v-1.5H7.8v-3.3H22v3.3h-5.6v1.1l5.6,3.1v4.1l-6.4-4.4l-7.8,4.8v-4L13.5,196.5z"/>
		<path class="st1" d="M10.6,212.1v-4.5l-2.8-0.8v-3.3l14.2,4.6v3.5l-14.2,4.6v-3.3L10.6,212.1z M13.1,208.4v3l5.1-1.5v-0.1
			L13.1,208.4z"/>
	</g>
</g>
</svg>
