<svg xmlns="http://www.w3.org/2000/svg" viewBox="0 0 50 250"><defs><style>.cls-1{fill:#a8b949;}.cls-2{fill:#28373c;}</style></defs><title>sidebar_gumb2</title><g id="Layer_2" data-name="Layer 2"><g id="Layer_1-2" data-name="Layer 1"><rect class="cls-1" width="50" height="250"/><path class="cls-2" d="M27.82,9.72H42v5.14a5.8,5.8,0,0,1-1.64,4.2,5.58,5.58,0,0,1-4.19,1.69H33.65a5.58,5.58,0,0,1-4.2-1.69,5.81,5.81,0,0,1-1.63-4.2ZM39.5,13H30.36v1.6a2.52,2.52,0,0,0,.9,2.06,3.65,3.65,0,0,0,2.39.74h2.58a3.61,3.61,0,0,0,2.37-.74,2.53,2.53,0,0,0,.9-2.06Z"/><path class="cls-2" d="M33.65,34.54a5.94,5.94,0,0,1-4.33-1.67,5.81,5.81,0,0,1-1.7-4.35,5.8,5.8,0,0,1,6-6.06h2.56a5.93,5.93,0,0,1,4.33,1.67,5.85,5.85,0,0,1,1.71,4.37,5.84,5.84,0,0,1-1.71,4.36,5.92,5.92,0,0,1-4.33,1.68Zm2.58-3.29a4.11,4.11,0,0,0,2.5-.72,2.62,2.62,0,0,0,0-4.07,4.15,4.15,0,0,0-2.5-.71H33.65a4.15,4.15,0,0,0-2.52.72,2.4,2.4,0,0,0-1,2.06,2.35,2.35,0,0,0,1,2,4.17,4.17,0,0,0,2.52.71Z"/><path class="cls-2" d="M29.78,47.69a6.14,6.14,0,0,1-1.51-2.1,8,8,0,0,1-.65-3.46,5.84,5.84,0,0,1,1.62-4.28,5.65,5.65,0,0,1,4.21-1.64h3a5.73,5.73,0,0,1,4.2,1.61,5.56,5.56,0,0,1,1.63,4.14A5.86,5.86,0,0,1,41,46.05a5.12,5.12,0,0,1-3.47,1.55l-.06,0v-3.1a3,3,0,0,0,1.69-.73,2.32,2.32,0,0,0,.57-1.71,2.23,2.23,0,0,0-.91-1.86,3.75,3.75,0,0,0-2.36-.7h-3a3.82,3.82,0,0,0-2.39.69,2.31,2.31,0,0,0-.9,1.94,5.47,5.47,0,0,0,.15,1.43,2.29,2.29,0,0,0,.39.82h2.25V42.14h2.19v5.55Z"/><path class="cls-2" d="M33.65,61.46a5.94,5.94,0,0,1-4.33-1.67,5.81,5.81,0,0,1-1.7-4.35,5.8,5.8,0,0,1,6-6.06h2.56A5.93,5.93,0,0,1,40.54,51a6.42,6.42,0,0,1,0,8.73,5.92,5.92,0,0,1-4.33,1.68Zm2.58-3.29a4.11,4.11,0,0,0,2.5-.72,2.62,2.62,0,0,0,0-4.07,4.15,4.15,0,0,0-2.5-.71H33.65a4.15,4.15,0,0,0-2.52.72,2.4,2.4,0,0,0-1,2.06,2.35,2.35,0,0,0,1,2,4.17,4.17,0,0,0,2.52.71Z"/><path class="cls-2" d="M31.68,68.28l-.52.1v.06l.48.1L42,71.35v3.46L27.82,70.2V66.63L42,62v3.45Z"/><path class="cls-2" d="M33.65,87.55a5.94,5.94,0,0,1-4.33-1.67,5.81,5.81,0,0,1-1.7-4.35,5.8,5.8,0,0,1,6-6.06h2.56a5.93,5.93,0,0,1,4.33,1.67,6.42,6.42,0,0,1,0,8.73,5.92,5.92,0,0,1-4.33,1.68Zm2.58-3.29a4.11,4.11,0,0,0,2.5-.72,2.62,2.62,0,0,0,0-4.07,4.15,4.15,0,0,0-2.5-.71H33.65a4.15,4.15,0,0,0-2.52.72,2.4,2.4,0,0,0-1,2.06,2.34,2.34,0,0,0,1,2,4.17,4.17,0,0,0,2.52.71Z"/><path class="cls-2" d="M33.27,92.78H27.82V89.46H42v5.47a6.15,6.15,0,0,1-1.14,3.92,3.77,3.77,0,0,1-3.12,1.45,3.11,3.11,0,0,1-1.89-.58A4.12,4.12,0,0,1,34.59,98a3.18,3.18,0,0,1-1.24,1.88,3.82,3.82,0,0,1-2.15.57h-.9a5.63,5.63,0,0,0-1.27.17,1.68,1.68,0,0,0-1,.58h-.2v-3.4a1.63,1.63,0,0,1,1.07-.51,9.21,9.21,0,0,1,1.43-.12h.86a2.11,2.11,0,0,0,1.55-.54,2.13,2.13,0,0,0,.54-1.57Zm2.54,0V95a2.27,2.27,0,0,0,.45,1.52,1.63,1.63,0,0,0,1.3.53,1.88,1.88,0,0,0,1.4-.54,2.09,2.09,0,0,0,.53-1.53V92.78Z"/><path class="cls-2" d="M27.82,106.18v-3.29H42v3.29Z"/><path class="cls-2" d="M39.5,118.3v-3.75H27.82v-3.31H39.5v-3.72H42V118.3Z"/><path class="cls-2" d="M33.9,128.52v-5.58H30.36v6.57H27.82v-9.88H42v9.9H39.5v-6.59H36.44v5.58Z"/><path class="cls-2" d="M31.59,143.54a1.42,1.42,0,0,0,1.16-.5,6.35,6.35,0,0,0,.87-1.79,13.78,13.78,0,0,1,1.82-4,3.29,3.29,0,0,1,2.81-1.3,3.4,3.4,0,0,1,2.89,1.55,6.61,6.61,0,0,1,1.1,3.93A6,6,0,0,1,41,145.31a3.71,3.71,0,0,1-3.13,1.46l-.06,0v-3.2a1.8,1.8,0,0,0,1.38-.58,2.26,2.26,0,0,0,.53-1.59,2.49,2.49,0,0,0-.44-1.56,1.33,1.33,0,0,0-1.08-.57,1.15,1.15,0,0,0-1,.57,11.49,11.49,0,0,0-.94,2.14,10,10,0,0,1-1.78,3.65,3.62,3.62,0,0,1-2.9,1.23,3.42,3.42,0,0,1-2.93-1.46,6.45,6.45,0,0,1-1.06-3.87,7.21,7.21,0,0,1,1.22-4.19,3.88,3.88,0,0,1,3.5-1.72l.06,0v3.21a2.11,2.11,0,0,0-1.76.66,3.2,3.2,0,0,0-.53,2,2.38,2.38,0,0,0,.41,1.53A1.32,1.32,0,0,0,31.59,143.54Z"/><path class="cls-2" d="M30.58,156.18V151.7l-2.76-.8v-3.32L42,152.16v3.54l-14.22,4.6V157Zm2.54-3.75v3L38.21,154v-.06Z"/><path class="cls-2" d="M31.59,168.86a1.42,1.42,0,0,0,1.16-.5,6.35,6.35,0,0,0,.87-1.79,13.78,13.78,0,0,1,1.82-4,3.29,3.29,0,0,1,2.81-1.3,3.4,3.4,0,0,1,2.89,1.55,6.61,6.61,0,0,1,1.1,3.93A6,6,0,0,1,41,170.63a3.71,3.71,0,0,1-3.13,1.46l-.06,0v-3.2a1.8,1.8,0,0,0,1.38-.58,2.26,2.26,0,0,0,.53-1.59,2.49,2.49,0,0,0-.44-1.56,1.33,1.33,0,0,0-1.08-.57,1.15,1.15,0,0,0-1,.57,11.49,11.49,0,0,0-.94,2.14,10,10,0,0,1-1.78,3.65,3.62,3.62,0,0,1-2.9,1.23,3.42,3.42,0,0,1-2.93-1.46,6.45,6.45,0,0,1-1.06-3.87,7.21,7.21,0,0,1,1.22-4.19,3.88,3.88,0,0,1,3.5-1.72l.06,0v3.21a2.11,2.11,0,0,0-1.76.66,3.2,3.2,0,0,0-.53,2,2.38,2.38,0,0,0,.41,1.53A1.32,1.32,0,0,0,31.59,168.86Z"/><path class="cls-2" d="M39.5,183.86v-3.75H27.82V176.8H39.5v-3.72H42v10.78Z"/><path class="cls-2" d="M30.58,191.6v-4.48l-2.76-.8V183L42,187.59v3.54l-14.22,4.6v-3.32Zm2.54-3.75v3l5.09-1.48v-.06Z"/><path class="cls-2" d="M27.82,208.6v-3.29l9.06-5.21,0-.06h-9v-3.31H42V200L33,205.25l0,.06h9v3.29Z"/><path class="cls-2" d="M30.58,218.56v-4.48l-2.76-.8V210L42,214.54v3.54l-14.22,4.6v-3.32Zm2.54-3.75v3l5.09-1.48v-.06Z"/><path class="cls-2" d="M33.52,228.53V227h-5.7v-3.31H42V227H36.47v1.12L42,231.25v4.1l-6.44-4.4-7.78,4.79v-4Z"/><path class="cls-2" d="M22,64H12.72A4.62,4.62,0,0,1,9,62.41a6.43,6.43,0,0,1-1.34-4.23A6.49,6.49,0,0,1,9,53.91a4.61,4.61,0,0,1,3.77-1.62H22V55.6H12.72a2.54,2.54,0,0,0-1.94.67,2.68,2.68,0,0,0-.63,1.9,2.63,2.63,0,0,0,.63,1.88,2.57,2.57,0,0,0,1.94.66H22Z"/><path class="cls-2" d="M11.59,78.72a1.42,1.42,0,0,0,1.16-.5,6.35,6.35,0,0,0,.87-1.79,13.79,13.79,0,0,1,1.82-4,3.29,3.29,0,0,1,2.81-1.3,3.4,3.4,0,0,1,2.89,1.55,6.61,6.61,0,0,1,1.1,3.93A6,6,0,0,1,21,80.5,3.71,3.71,0,0,1,17.9,82l-.06,0v-3.2a1.8,1.8,0,0,0,1.38-.58,2.26,2.26,0,0,0,.53-1.59A2.49,2.49,0,0,0,19.32,75a1.33,1.33,0,0,0-1.08-.57,1.15,1.15,0,0,0-1,.57,11.5,11.5,0,0,0-.94,2.14,10,10,0,0,1-1.78,3.65A3.63,3.63,0,0,1,11.61,82a3.43,3.43,0,0,1-2.93-1.46,6.45,6.45,0,0,1-1.06-3.87A7.21,7.21,0,0,1,8.83,72.5a3.88,3.88,0,0,1,3.5-1.72l.06,0V74a2.12,2.12,0,0,0-1.76.66,3.2,3.2,0,0,0-.53,2,2.39,2.39,0,0,0,.41,1.53A1.32,1.32,0,0,0,11.59,78.72Z"/><path class="cls-2" d="M7.82,95.67V92.38h5.72V87.11H7.82V83.8H22v3.31h-6v5.26h6v3.29Z"/><path class="cls-2" d="M13.65,109.66A5.94,5.94,0,0,1,9.32,108a5.81,5.81,0,0,1-1.7-4.35,5.8,5.8,0,0,1,6-6.06h2.56a5.92,5.92,0,0,1,4.33,1.67,6.42,6.42,0,0,1,0,8.73,5.92,5.92,0,0,1-4.33,1.68Zm2.58-3.29a4.11,4.11,0,0,0,2.5-.72,2.62,2.62,0,0,0,0-4.07,4.14,4.14,0,0,0-2.5-.71H13.65a4.15,4.15,0,0,0-2.52.72,2.4,2.4,0,0,0-1,2.06,2.34,2.34,0,0,0,1,2,4.17,4.17,0,0,0,2.52.71Z"/><path class="cls-2" d="M12.71,123v.06L22,124.93v3.19L7.82,124.87v-3.11l8.77-2.39v-.06l-8.77-2.37v-3.11L22,110.56v3.2l-9.33,1.87v.06L22,118.2v2.29Z"/><path class="cls-2" d="M13.27,132.65H7.82v-3.31H22v5.47a6.15,6.15,0,0,1-1.14,3.92,3.77,3.77,0,0,1-3.12,1.45,3.12,3.12,0,0,1-1.89-.58,4.12,4.12,0,0,1-1.29-1.71,3.18,3.18,0,0,1-1.24,1.88,3.82,3.82,0,0,1-2.15.57h-.9a5.69,5.69,0,0,0-1.27.17,1.68,1.68,0,0,0-1,.58h-.2v-3.4a1.63,1.63,0,0,1,1.07-.51,9.09,9.09,0,0,1,1.43-.12h.86a2.1,2.1,0,0,0,1.55-.54,2.13,2.13,0,0,0,.54-1.57Zm2.54,0v2.18a2.27,2.27,0,0,0,.45,1.52,1.63,1.63,0,0,0,1.3.53,1.88,1.88,0,0,0,1.4-.54,2.09,2.09,0,0,0,.53-1.53v-2.16Z"/><path class="cls-2" d="M13.65,154.3a5.94,5.94,0,0,1-4.33-1.67,5.81,5.81,0,0,1-1.7-4.35,5.8,5.8,0,0,1,6-6.06h2.56a5.92,5.92,0,0,1,4.33,1.67,6.42,6.42,0,0,1,0,8.73,5.92,5.92,0,0,1-4.33,1.68ZM16.23,151a4.11,4.11,0,0,0,2.5-.72,2.62,2.62,0,0,0,0-4.07,4.14,4.14,0,0,0-2.5-.71H13.65a4.15,4.15,0,0,0-2.52.72,2.4,2.4,0,0,0-1,2.06,2.34,2.34,0,0,0,1,2,4.17,4.17,0,0,0,2.52.71Z"/><path class="cls-2" d="M13.65,168a5.94,5.94,0,0,1-4.33-1.67A5.81,5.81,0,0,1,7.62,162a5.8,5.8,0,0,1,6-6.06h2.56a5.92,5.92,0,0,1,4.33,1.67,6.42,6.42,0,0,1,0,8.73A5.92,5.92,0,0,1,16.21,168Zm2.58-3.29a4.11,4.11,0,0,0,2.5-.72,2.62,2.62,0,0,0,0-4.07,4.14,4.14,0,0,0-2.5-.71H13.65a4.15,4.15,0,0,0-2.52.72,2.4,2.4,0,0,0-1,2.06,2.34,2.34,0,0,0,1,2,4.17,4.17,0,0,0,2.52.71Z"/><path class="cls-2" d="M22,174.22l-10,3.18v.06l10,3.22V185H7.82v-3.31h3.53l6.49.31V182l-10-3.43v-2.23l9.94-3.39v-.06l-6.41.31H7.82v-3.31H22Z"/><path class="cls-2" d="M22,198.94H12.72A4.62,4.62,0,0,1,9,197.32a6.43,6.43,0,0,1-1.34-4.23A6.49,6.49,0,0,1,9,188.82a4.61,4.61,0,0,1,3.77-1.62H22v3.31H12.72a2.54,2.54,0,0,0-1.94.67,2.68,2.68,0,0,0-.63,1.9,2.63,2.63,0,0,0,.63,1.88,2.57,2.57,0,0,0,1.94.66H22Z"/></g></g></svg>